G04*
G04 #@! TF.GenerationSoftware,Altium Limited,Altium Designer,22.0.2 (36)*
G04*
G04 Layer_Physical_Order=3*
G04 Layer_Color=16440176*
%FSLAX25Y25*%
%MOIN*%
G70*
G04*
G04 #@! TF.SameCoordinates,5F5B6C63-6FB6-4E28-9BE5-C2605847C7C1*
G04*
G04*
G04 #@! TF.FilePolarity,Positive*
G04*
G01*
G75*
%ADD14C,0.01000*%
%ADD46C,0.02000*%
%ADD48O,0.06299X0.03150*%
%ADD49C,0.05906*%
%ADD50R,0.05906X0.05906*%
%ADD52C,0.02500*%
%ADD53C,0.03000*%
%ADD54C,0.01968*%
%ADD55C,0.02362*%
G36*
X163971Y1364D02*
X1675D01*
Y175471D01*
X163971D01*
Y1364D01*
D02*
G37*
%LPC*%
G36*
X141024Y173404D02*
X140049Y173210D01*
X139222Y172657D01*
X138670Y171830D01*
X138476Y170855D01*
X138552Y170470D01*
X137859Y169777D01*
X137528Y169281D01*
X137412Y168696D01*
Y155948D01*
X136948Y155756D01*
X136122Y155122D01*
X135488Y154297D01*
X135090Y153335D01*
X134954Y152303D01*
X135090Y151271D01*
X135488Y150310D01*
X136122Y149484D01*
X136948Y148850D01*
X137909Y148452D01*
X138941Y148316D01*
X139973Y148452D01*
X140934Y148850D01*
X141760Y149484D01*
X142394Y150310D01*
X142792Y151271D01*
X142928Y152303D01*
X142792Y153335D01*
X142394Y154297D01*
X141760Y155122D01*
X140934Y155756D01*
X140470Y155948D01*
Y168062D01*
X140765Y168358D01*
X141024Y168306D01*
X142000Y168500D01*
X142827Y169053D01*
X143379Y169879D01*
X143573Y170855D01*
X143379Y171830D01*
X142827Y172657D01*
X142000Y173210D01*
X141024Y173404D01*
D02*
G37*
G36*
X131025Y172404D02*
X130049Y172210D01*
X129222Y171657D01*
X128670Y170830D01*
X128476Y169855D01*
X128552Y169470D01*
X127859Y168777D01*
X127528Y168281D01*
X127412Y167696D01*
Y155948D01*
X126947Y155756D01*
X126122Y155122D01*
X125488Y154297D01*
X125090Y153335D01*
X124954Y152303D01*
X125090Y151271D01*
X125488Y150310D01*
X126122Y149484D01*
X126947Y148850D01*
X127909Y148452D01*
X128941Y148316D01*
X129973Y148452D01*
X130934Y148850D01*
X131760Y149484D01*
X132394Y150310D01*
X132792Y151271D01*
X132928Y152303D01*
X132792Y153335D01*
X132394Y154297D01*
X131760Y155122D01*
X130934Y155756D01*
X130470Y155948D01*
Y167062D01*
X130765Y167358D01*
X131025Y167306D01*
X132000Y167500D01*
X132827Y168052D01*
X133379Y168879D01*
X133573Y169855D01*
X133379Y170830D01*
X132827Y171657D01*
X132000Y172210D01*
X131025Y172404D01*
D02*
G37*
G36*
X152500Y171549D02*
X151524Y171355D01*
X150698Y170802D01*
X150145Y169975D01*
X150103Y169766D01*
X147860Y167522D01*
X147528Y167026D01*
X147412Y166441D01*
Y155948D01*
X146948Y155756D01*
X146122Y155122D01*
X145488Y154297D01*
X145090Y153335D01*
X144954Y152303D01*
X145090Y151271D01*
X145488Y150310D01*
X146122Y149484D01*
X146948Y148850D01*
X147909Y148452D01*
X148941Y148316D01*
X149453Y148384D01*
X151971Y145867D01*
Y144848D01*
X151760Y145122D01*
X150934Y145756D01*
X149973Y146154D01*
X148941Y146290D01*
X147909Y146154D01*
X146948Y145756D01*
X146122Y145122D01*
X145488Y144297D01*
X145090Y143335D01*
X144954Y142303D01*
X145090Y141271D01*
X145488Y140310D01*
X146122Y139484D01*
X146948Y138850D01*
X147909Y138452D01*
X148941Y138316D01*
X149973Y138452D01*
X150934Y138850D01*
X151760Y139484D01*
X151971Y139758D01*
Y138134D01*
X131867Y118029D01*
X110134D01*
X98685Y129478D01*
X98491Y129607D01*
X106257D01*
X107037Y129762D01*
X107699Y130204D01*
X108942Y131448D01*
X109384Y132109D01*
X109539Y132889D01*
Y136740D01*
X109384Y137520D01*
X108942Y138182D01*
X108787Y138337D01*
X108941Y138316D01*
X109973Y138452D01*
X110934Y138850D01*
X111760Y139484D01*
X112394Y140310D01*
X112792Y141271D01*
X112928Y142303D01*
X112792Y143335D01*
X112394Y144297D01*
X111760Y145122D01*
X110934Y145756D01*
X109973Y146154D01*
X108941Y146290D01*
X107909Y146154D01*
X106948Y145756D01*
X106122Y145122D01*
X106027Y144999D01*
Y146506D01*
X107966Y148445D01*
X108941Y148316D01*
X109973Y148452D01*
X110934Y148850D01*
X111760Y149484D01*
X112394Y150310D01*
X112792Y151271D01*
X112928Y152303D01*
X112792Y153335D01*
X112394Y154297D01*
X111760Y155122D01*
X110934Y155756D01*
X110470Y155948D01*
Y160307D01*
X114241Y164078D01*
X114500Y164026D01*
X115475Y164220D01*
X116302Y164773D01*
X116855Y165600D01*
X117049Y166575D01*
X116855Y167551D01*
X116302Y168378D01*
X115475Y168930D01*
X114500Y169124D01*
X113524Y168930D01*
X112698Y168378D01*
X112145Y167551D01*
X111951Y166575D01*
X112028Y166191D01*
X107860Y162022D01*
X107528Y161526D01*
X107412Y160941D01*
Y155948D01*
X106948Y155756D01*
X106122Y155122D01*
X105488Y154297D01*
X105090Y153335D01*
X104954Y152303D01*
X105082Y151328D01*
X102546Y148792D01*
X102104Y148131D01*
X101949Y147350D01*
Y144876D01*
X101760Y145122D01*
X100934Y145756D01*
X99973Y146154D01*
X98941Y146290D01*
X97909Y146154D01*
X96947Y145756D01*
X96122Y145122D01*
X95488Y144297D01*
X95090Y143335D01*
X94954Y142303D01*
X95090Y141271D01*
X95488Y140310D01*
X96122Y139484D01*
X96947Y138850D01*
X97909Y138452D01*
X98941Y138316D01*
X99973Y138452D01*
X100934Y138850D01*
X101760Y139484D01*
X102031Y139838D01*
X102104Y139471D01*
X102546Y138810D01*
X104165Y137191D01*
X104000Y137224D01*
X103149Y137055D01*
X103126Y137039D01*
X97874D01*
X97851Y137055D01*
X97000Y137224D01*
X96149Y137055D01*
X95428Y136573D01*
X94946Y135851D01*
X94776Y135000D01*
X94946Y134149D01*
X95255Y133686D01*
X92757D01*
X92502Y133635D01*
X92300D01*
X91500Y133794D01*
X90622Y133619D01*
X89878Y133122D01*
X89381Y132378D01*
X89206Y131500D01*
X89381Y130622D01*
X89878Y129878D01*
X90622Y129381D01*
X91500Y129206D01*
X92006Y129306D01*
X91984Y129274D01*
X91809Y128396D01*
X91984Y127518D01*
X92481Y126774D01*
X93226Y126277D01*
X93820Y126159D01*
X93622Y126119D01*
X92878Y125622D01*
X92381Y124878D01*
X92300Y124474D01*
X88692Y128081D01*
X88196Y128413D01*
X87611Y128529D01*
X55633D01*
X54772Y129391D01*
X54794Y129500D01*
X54619Y130378D01*
X54122Y131122D01*
X53378Y131620D01*
X52500Y131794D01*
X51622Y131620D01*
X50878Y131122D01*
X50529Y130601D01*
Y131867D01*
X54475Y135812D01*
X54807Y136308D01*
X54923Y136894D01*
Y147850D01*
X54807Y148436D01*
X54475Y148932D01*
X52600Y150807D01*
X52792Y151271D01*
X52928Y152303D01*
X52792Y153335D01*
X52394Y154297D01*
X51760Y155122D01*
X50934Y155756D01*
X49973Y156154D01*
X48941Y156290D01*
X47909Y156154D01*
X46948Y155756D01*
X46122Y155122D01*
X45488Y154297D01*
X45090Y153335D01*
X44954Y152303D01*
X45090Y151271D01*
X45488Y150310D01*
X46122Y149484D01*
X46948Y148850D01*
X47909Y148452D01*
X48941Y148316D01*
X49973Y148452D01*
X50437Y148644D01*
X51864Y147217D01*
Y144986D01*
X51760Y145122D01*
X50934Y145756D01*
X49973Y146154D01*
X48941Y146290D01*
X47909Y146154D01*
X46948Y145756D01*
X46122Y145122D01*
X45488Y144297D01*
X45090Y143335D01*
X44954Y142303D01*
X45090Y141271D01*
X45488Y140310D01*
X46122Y139484D01*
X46948Y138850D01*
X47909Y138452D01*
X48941Y138316D01*
X49973Y138452D01*
X50934Y138850D01*
X51760Y139484D01*
X51864Y139620D01*
Y137527D01*
X47919Y133581D01*
X47587Y133085D01*
X47471Y132500D01*
Y115231D01*
X47529Y114940D01*
X47587Y114646D01*
X47587Y114646D01*
Y114646D01*
X47699Y114479D01*
X47918Y114150D01*
X48211Y113857D01*
X48212Y113857D01*
X63295Y98773D01*
Y91703D01*
X63411Y91118D01*
X63743Y90622D01*
X73171Y81194D01*
Y74294D01*
X72898Y74111D01*
X72345Y73284D01*
X72151Y72309D01*
X72345Y71333D01*
X72898Y70506D01*
X73725Y69954D01*
X74700Y69760D01*
X75676Y69954D01*
X76503Y70506D01*
X77055Y71333D01*
X77249Y72309D01*
X77055Y73284D01*
X76503Y74111D01*
X76230Y74294D01*
Y81827D01*
X76113Y82413D01*
X75782Y82909D01*
X66353Y92337D01*
Y99407D01*
X66256Y99895D01*
X66237Y99992D01*
X65906Y100488D01*
X50529Y115865D01*
Y128399D01*
X50878Y127878D01*
X51622Y127381D01*
X52500Y127206D01*
X52609Y127228D01*
X53919Y125919D01*
X54415Y125587D01*
X54512Y125568D01*
X55000Y125471D01*
X86977D01*
X89919Y122529D01*
X88684D01*
X88622Y122622D01*
X87878Y123119D01*
X87000Y123294D01*
X86122Y123119D01*
X85378Y122622D01*
X84881Y121878D01*
X84706Y121000D01*
X84881Y120122D01*
X85378Y119378D01*
X86122Y118880D01*
X87000Y118706D01*
X87878Y118880D01*
X88622Y119378D01*
X88684Y119471D01*
X90856D01*
X97908Y112419D01*
X98404Y112087D01*
X98990Y111971D01*
X107867D01*
X135471Y84367D01*
Y35500D01*
X135587Y34915D01*
X135919Y34419D01*
X137971Y32366D01*
Y26241D01*
X137909Y26233D01*
X136948Y25835D01*
X136122Y25201D01*
X135488Y24375D01*
X135090Y23414D01*
X134954Y22382D01*
X135090Y21350D01*
X135488Y20389D01*
X136122Y19563D01*
X136948Y18929D01*
X137909Y18531D01*
X138941Y18395D01*
X139973Y18531D01*
X140934Y18929D01*
X141760Y19563D01*
X142394Y20389D01*
X142792Y21350D01*
X142928Y22382D01*
X142792Y23414D01*
X142394Y24375D01*
X141760Y25201D01*
X141029Y25762D01*
Y33000D01*
X140932Y33488D01*
X140913Y33585D01*
X140581Y34081D01*
X138529Y36134D01*
Y84308D01*
X147412Y75426D01*
Y26335D01*
X144988D01*
Y18429D01*
X152894D01*
Y26335D01*
X150470D01*
Y76059D01*
X150354Y76644D01*
X150022Y77140D01*
X112192Y114971D01*
X132500D01*
X133085Y115087D01*
X133581Y115419D01*
X154581Y136419D01*
X154913Y136915D01*
X154932Y137012D01*
X155029Y137500D01*
Y146500D01*
X154913Y147085D01*
X154581Y147581D01*
X152159Y150004D01*
X152394Y150310D01*
X152792Y151271D01*
X152928Y152303D01*
X152792Y153335D01*
X152394Y154297D01*
X151760Y155122D01*
X150934Y155756D01*
X150470Y155948D01*
Y165807D01*
X151395Y166732D01*
X151524Y166645D01*
X152500Y166451D01*
X153475Y166645D01*
X154302Y167198D01*
X154855Y168025D01*
X155049Y169000D01*
X154855Y169975D01*
X154302Y170802D01*
X153475Y171355D01*
X152500Y171549D01*
D02*
G37*
G36*
X69441Y156224D02*
Y152803D01*
X72862D01*
X72792Y153335D01*
X72394Y154297D01*
X71760Y155122D01*
X70934Y155756D01*
X69973Y156154D01*
X69441Y156224D01*
D02*
G37*
G36*
X68441D02*
X67909Y156154D01*
X66948Y155756D01*
X66122Y155122D01*
X65488Y154297D01*
X65090Y153335D01*
X65020Y152803D01*
X68441D01*
Y156224D01*
D02*
G37*
G36*
X59441D02*
Y152803D01*
X62862D01*
X62792Y153335D01*
X62394Y154297D01*
X61760Y155122D01*
X60934Y155756D01*
X59973Y156154D01*
X59441Y156224D01*
D02*
G37*
G36*
X58441D02*
X57909Y156154D01*
X56947Y155756D01*
X56122Y155122D01*
X55488Y154297D01*
X55090Y153335D01*
X55020Y152803D01*
X58441D01*
Y156224D01*
D02*
G37*
G36*
X29441D02*
Y152803D01*
X32862D01*
X32792Y153335D01*
X32394Y154297D01*
X31760Y155122D01*
X30934Y155756D01*
X29973Y156154D01*
X29441Y156224D01*
D02*
G37*
G36*
X28441D02*
X27909Y156154D01*
X26948Y155756D01*
X26122Y155122D01*
X25488Y154297D01*
X25090Y153335D01*
X25020Y152803D01*
X28441D01*
Y156224D01*
D02*
G37*
G36*
X72862Y151803D02*
X69441D01*
Y148382D01*
X69973Y148452D01*
X70934Y148850D01*
X71760Y149484D01*
X72394Y150310D01*
X72792Y151271D01*
X72862Y151803D01*
D02*
G37*
G36*
X68441D02*
X65020D01*
X65090Y151271D01*
X65488Y150310D01*
X66122Y149484D01*
X66948Y148850D01*
X67909Y148452D01*
X68441Y148382D01*
Y151803D01*
D02*
G37*
G36*
X62862D02*
X59441D01*
Y148382D01*
X59973Y148452D01*
X60934Y148850D01*
X61760Y149484D01*
X62394Y150310D01*
X62792Y151271D01*
X62862Y151803D01*
D02*
G37*
G36*
X58441D02*
X55020D01*
X55090Y151271D01*
X55488Y150310D01*
X56122Y149484D01*
X56947Y148850D01*
X57909Y148452D01*
X58441Y148382D01*
Y151803D01*
D02*
G37*
G36*
X32862D02*
X29441D01*
Y148382D01*
X29973Y148452D01*
X30934Y148850D01*
X31760Y149484D01*
X32394Y150310D01*
X32792Y151271D01*
X32862Y151803D01*
D02*
G37*
G36*
X28441D02*
X25020D01*
X25090Y151271D01*
X25488Y150310D01*
X26122Y149484D01*
X26948Y148850D01*
X27909Y148452D01*
X28441Y148382D01*
Y151803D01*
D02*
G37*
G36*
X91500Y168549D02*
X90525Y168355D01*
X89698Y167802D01*
X89145Y166975D01*
X88951Y166000D01*
X89145Y165024D01*
X89698Y164198D01*
X90525Y163645D01*
X91500Y163451D01*
X91822Y163515D01*
X97412Y157926D01*
Y155948D01*
X96947Y155756D01*
X96122Y155122D01*
X95488Y154297D01*
X95090Y153335D01*
X94954Y152303D01*
X95090Y151271D01*
X95488Y150310D01*
X96122Y149484D01*
X96947Y148850D01*
X97909Y148452D01*
X98941Y148316D01*
X99973Y148452D01*
X100934Y148850D01*
X101760Y149484D01*
X102394Y150310D01*
X102792Y151271D01*
X102928Y152303D01*
X102792Y153335D01*
X102394Y154297D01*
X101760Y155122D01*
X100934Y155756D01*
X100470Y155948D01*
Y158559D01*
X100354Y159144D01*
X100022Y159641D01*
X93985Y165678D01*
X94049Y166000D01*
X93855Y166975D01*
X93302Y167802D01*
X92475Y168355D01*
X91500Y168549D01*
D02*
G37*
G36*
X88941Y156290D02*
X87909Y156154D01*
X86948Y155756D01*
X86122Y155122D01*
X85488Y154297D01*
X85090Y153335D01*
X84954Y152303D01*
X85090Y151271D01*
X85488Y150310D01*
X86122Y149484D01*
X86948Y148850D01*
X87909Y148452D01*
X88941Y148316D01*
X89973Y148452D01*
X90934Y148850D01*
X91760Y149484D01*
X92394Y150310D01*
X92792Y151271D01*
X92928Y152303D01*
X92792Y153335D01*
X92394Y154297D01*
X91760Y155122D01*
X90934Y155756D01*
X89973Y156154D01*
X88941Y156290D01*
D02*
G37*
G36*
X78941D02*
X77909Y156154D01*
X76947Y155756D01*
X76122Y155122D01*
X75488Y154297D01*
X75090Y153335D01*
X74954Y152303D01*
X75090Y151271D01*
X75488Y150310D01*
X76122Y149484D01*
X76947Y148850D01*
X77909Y148452D01*
X78941Y148316D01*
X79973Y148452D01*
X80934Y148850D01*
X81760Y149484D01*
X82394Y150310D01*
X82792Y151271D01*
X82928Y152303D01*
X82792Y153335D01*
X82394Y154297D01*
X81760Y155122D01*
X80934Y155756D01*
X79973Y156154D01*
X78941Y156290D01*
D02*
G37*
G36*
X38941D02*
X37909Y156154D01*
X36948Y155756D01*
X36122Y155122D01*
X35488Y154297D01*
X35090Y153335D01*
X34954Y152303D01*
X35090Y151271D01*
X35488Y150310D01*
X36122Y149484D01*
X36948Y148850D01*
X37909Y148452D01*
X38941Y148316D01*
X39973Y148452D01*
X40934Y148850D01*
X41760Y149484D01*
X42394Y150310D01*
X42792Y151271D01*
X42928Y152303D01*
X42792Y153335D01*
X42394Y154297D01*
X41760Y155122D01*
X40934Y155756D01*
X39973Y156154D01*
X38941Y156290D01*
D02*
G37*
G36*
X18941D02*
X17909Y156154D01*
X16948Y155756D01*
X16122Y155122D01*
X15488Y154297D01*
X15090Y153335D01*
X14954Y152303D01*
X15090Y151271D01*
X15488Y150310D01*
X16122Y149484D01*
X16948Y148850D01*
X17909Y148452D01*
X18941Y148316D01*
X19973Y148452D01*
X20934Y148850D01*
X21760Y149484D01*
X22394Y150310D01*
X22792Y151271D01*
X22928Y152303D01*
X22792Y153335D01*
X22394Y154297D01*
X21760Y155122D01*
X20934Y155756D01*
X19973Y156154D01*
X18941Y156290D01*
D02*
G37*
G36*
X8941D02*
X7909Y156154D01*
X6948Y155756D01*
X6122Y155122D01*
X5488Y154297D01*
X5090Y153335D01*
X4954Y152303D01*
X5090Y151271D01*
X5488Y150310D01*
X6122Y149484D01*
X6948Y148850D01*
X7909Y148452D01*
X8941Y148316D01*
X9973Y148452D01*
X10934Y148850D01*
X11760Y149484D01*
X12394Y150310D01*
X12792Y151271D01*
X12928Y152303D01*
X12792Y153335D01*
X12394Y154297D01*
X11760Y155122D01*
X10934Y155756D01*
X9973Y156154D01*
X8941Y156290D01*
D02*
G37*
G36*
X118941D02*
X117909Y156154D01*
X116947Y155756D01*
X116122Y155122D01*
X115488Y154297D01*
X115090Y153335D01*
X114954Y152303D01*
X115090Y151271D01*
X115488Y150310D01*
X116122Y149484D01*
X116947Y148850D01*
X117909Y148452D01*
X118941Y148316D01*
X119916Y148445D01*
X121854Y146506D01*
Y144999D01*
X121760Y145122D01*
X120934Y145756D01*
X119973Y146154D01*
X118941Y146290D01*
X117909Y146154D01*
X116947Y145756D01*
X116122Y145122D01*
X115488Y144297D01*
X115090Y143335D01*
X114954Y142303D01*
X115090Y141271D01*
X115488Y140310D01*
X116122Y139484D01*
X116947Y138850D01*
X117909Y138452D01*
X118941Y138316D01*
X119095Y138337D01*
X115747Y134989D01*
X115220Y134884D01*
X114558Y134442D01*
X114058Y133942D01*
X113616Y133280D01*
X113461Y132500D01*
Y122998D01*
X113381Y122878D01*
X113206Y122000D01*
X113381Y121122D01*
X113878Y120378D01*
X114622Y119880D01*
X115500Y119706D01*
X116378Y119880D01*
X117122Y120378D01*
X117620Y121122D01*
X117794Y122000D01*
X117620Y122878D01*
X117539Y122998D01*
Y131194D01*
X118084Y131558D01*
X125336Y138810D01*
X125778Y139471D01*
X125850Y139838D01*
X126122Y139484D01*
X126947Y138850D01*
X127909Y138452D01*
X128941Y138316D01*
X129973Y138452D01*
X130934Y138850D01*
X131760Y139484D01*
X132394Y140310D01*
X132792Y141271D01*
X132928Y142303D01*
X132792Y143335D01*
X132394Y144297D01*
X131760Y145122D01*
X130934Y145756D01*
X129973Y146154D01*
X128941Y146290D01*
X127909Y146154D01*
X126947Y145756D01*
X126122Y145122D01*
X125933Y144876D01*
Y147350D01*
X125778Y148131D01*
X125336Y148792D01*
X122800Y151328D01*
X122928Y152303D01*
X122792Y153335D01*
X122394Y154297D01*
X121760Y155122D01*
X120934Y155756D01*
X119973Y156154D01*
X118941Y156290D01*
D02*
G37*
G36*
X12894Y146256D02*
X4988D01*
Y138350D01*
X12894D01*
Y146256D01*
D02*
G37*
G36*
X138941Y146290D02*
X137909Y146154D01*
X136948Y145756D01*
X136122Y145122D01*
X135488Y144297D01*
X135090Y143335D01*
X134954Y142303D01*
X135090Y141271D01*
X135488Y140310D01*
X136122Y139484D01*
X136948Y138850D01*
X137909Y138452D01*
X138941Y138316D01*
X139973Y138452D01*
X140934Y138850D01*
X141760Y139484D01*
X142394Y140310D01*
X142792Y141271D01*
X142928Y142303D01*
X142792Y143335D01*
X142394Y144297D01*
X141760Y145122D01*
X140934Y145756D01*
X139973Y146154D01*
X138941Y146290D01*
D02*
G37*
G36*
X88941D02*
X87909Y146154D01*
X86948Y145756D01*
X86122Y145122D01*
X85488Y144297D01*
X85090Y143335D01*
X84954Y142303D01*
X85090Y141271D01*
X85488Y140310D01*
X86122Y139484D01*
X86948Y138850D01*
X87909Y138452D01*
X88941Y138316D01*
X89973Y138452D01*
X90934Y138850D01*
X91760Y139484D01*
X92394Y140310D01*
X92792Y141271D01*
X92928Y142303D01*
X92792Y143335D01*
X92394Y144297D01*
X91760Y145122D01*
X90934Y145756D01*
X89973Y146154D01*
X88941Y146290D01*
D02*
G37*
G36*
X78941D02*
X77909Y146154D01*
X76947Y145756D01*
X76122Y145122D01*
X75488Y144297D01*
X75090Y143335D01*
X74954Y142303D01*
X75090Y141271D01*
X75488Y140310D01*
X76122Y139484D01*
X76947Y138850D01*
X77909Y138452D01*
X78941Y138316D01*
X79973Y138452D01*
X80934Y138850D01*
X81760Y139484D01*
X82394Y140310D01*
X82792Y141271D01*
X82928Y142303D01*
X82792Y143335D01*
X82394Y144297D01*
X81760Y145122D01*
X80934Y145756D01*
X79973Y146154D01*
X78941Y146290D01*
D02*
G37*
G36*
X68941D02*
X67909Y146154D01*
X66948Y145756D01*
X66122Y145122D01*
X65488Y144297D01*
X65090Y143335D01*
X64954Y142303D01*
X65090Y141271D01*
X65488Y140310D01*
X66122Y139484D01*
X66948Y138850D01*
X67909Y138452D01*
X68941Y138316D01*
X69973Y138452D01*
X70934Y138850D01*
X71760Y139484D01*
X72394Y140310D01*
X72792Y141271D01*
X72928Y142303D01*
X72792Y143335D01*
X72394Y144297D01*
X71760Y145122D01*
X70934Y145756D01*
X69973Y146154D01*
X68941Y146290D01*
D02*
G37*
G36*
X58941D02*
X57909Y146154D01*
X56947Y145756D01*
X56122Y145122D01*
X55488Y144297D01*
X55090Y143335D01*
X54954Y142303D01*
X55090Y141271D01*
X55488Y140310D01*
X56122Y139484D01*
X56947Y138850D01*
X57909Y138452D01*
X58941Y138316D01*
X59973Y138452D01*
X60934Y138850D01*
X61760Y139484D01*
X62394Y140310D01*
X62792Y141271D01*
X62928Y142303D01*
X62792Y143335D01*
X62394Y144297D01*
X61760Y145122D01*
X60934Y145756D01*
X59973Y146154D01*
X58941Y146290D01*
D02*
G37*
G36*
X38941D02*
X37909Y146154D01*
X36948Y145756D01*
X36122Y145122D01*
X35488Y144297D01*
X35090Y143335D01*
X34954Y142303D01*
X35090Y141271D01*
X35488Y140310D01*
X36122Y139484D01*
X36948Y138850D01*
X37909Y138452D01*
X38941Y138316D01*
X39973Y138452D01*
X40934Y138850D01*
X41760Y139484D01*
X42394Y140310D01*
X42792Y141271D01*
X42928Y142303D01*
X42792Y143335D01*
X42394Y144297D01*
X41760Y145122D01*
X40934Y145756D01*
X39973Y146154D01*
X38941Y146290D01*
D02*
G37*
G36*
X28941D02*
X27909Y146154D01*
X26948Y145756D01*
X26122Y145122D01*
X25488Y144297D01*
X25090Y143335D01*
X24954Y142303D01*
X25090Y141271D01*
X25488Y140310D01*
X26122Y139484D01*
X26948Y138850D01*
X27909Y138452D01*
X28941Y138316D01*
X29973Y138452D01*
X30934Y138850D01*
X31760Y139484D01*
X32394Y140310D01*
X32792Y141271D01*
X32928Y142303D01*
X32792Y143335D01*
X32394Y144297D01*
X31760Y145122D01*
X30934Y145756D01*
X29973Y146154D01*
X28941Y146290D01*
D02*
G37*
G36*
X18941D02*
X17909Y146154D01*
X16948Y145756D01*
X16122Y145122D01*
X15488Y144297D01*
X15090Y143335D01*
X14954Y142303D01*
X15090Y141271D01*
X15488Y140310D01*
X16122Y139484D01*
X16948Y138850D01*
X17909Y138452D01*
X18941Y138316D01*
X19973Y138452D01*
X20934Y138850D01*
X21760Y139484D01*
X22394Y140310D01*
X22792Y141271D01*
X22928Y142303D01*
X22792Y143335D01*
X22394Y144297D01*
X21760Y145122D01*
X20934Y145756D01*
X19973Y146154D01*
X18941Y146290D01*
D02*
G37*
G36*
X121000Y124294D02*
X120122Y124119D01*
X119378Y123622D01*
X118880Y122878D01*
X118706Y122000D01*
X118880Y121122D01*
X119378Y120378D01*
X120122Y119880D01*
X121000Y119706D01*
X121878Y119880D01*
X122622Y120378D01*
X123119Y121122D01*
X123294Y122000D01*
X123119Y122878D01*
X122622Y123622D01*
X121878Y124119D01*
X121000Y124294D01*
D02*
G37*
G36*
X54335Y123398D02*
X53457Y123224D01*
X52713Y122727D01*
X52215Y121982D01*
X52041Y121104D01*
X52215Y120226D01*
X52713Y119482D01*
X53457Y118985D01*
X54335Y118810D01*
X55213Y118985D01*
X55957Y119482D01*
X56454Y120226D01*
X56629Y121104D01*
X56454Y121982D01*
X55957Y122727D01*
X55213Y123224D01*
X54335Y123398D01*
D02*
G37*
G36*
X69689Y122872D02*
X68811Y122698D01*
X68067Y122201D01*
X67570Y121456D01*
X67395Y120578D01*
X67570Y119701D01*
X68067Y118956D01*
X68811Y118459D01*
X69689Y118284D01*
X70567Y118459D01*
X71023Y118764D01*
X71462Y118106D01*
X72207Y117609D01*
X73085Y117434D01*
X73962Y117609D01*
X74707Y118106D01*
X75204Y118851D01*
X75379Y119729D01*
X75204Y120606D01*
X74707Y121351D01*
X73962Y121848D01*
X73085Y122023D01*
X72207Y121848D01*
X71751Y121543D01*
X71311Y122201D01*
X70567Y122698D01*
X69689Y122872D01*
D02*
G37*
G36*
X89589Y117518D02*
X88711Y117344D01*
X87967Y116847D01*
X87905Y116754D01*
X82421D01*
X81836Y116637D01*
X81339Y116306D01*
X75371Y110337D01*
X75544Y111208D01*
X75369Y112086D01*
X75146Y112420D01*
X75945Y112261D01*
X76823Y112436D01*
X77567Y112933D01*
X78064Y113678D01*
X78239Y114556D01*
X78064Y115433D01*
X77567Y116178D01*
X76823Y116675D01*
X75945Y116850D01*
X75067Y116675D01*
X74322Y116178D01*
X73825Y115433D01*
X73650Y114556D01*
X73825Y113678D01*
X74048Y113343D01*
X73250Y113502D01*
X72372Y113328D01*
X71628Y112830D01*
X71131Y112086D01*
X70956Y111208D01*
X71131Y110330D01*
X71628Y109586D01*
X72372Y109089D01*
X73250Y108914D01*
X74128Y109089D01*
X74628Y109423D01*
X74513Y108846D01*
Y100059D01*
X74331Y100331D01*
X69661Y105002D01*
X69165Y105333D01*
X68580Y105450D01*
X67971D01*
X64653Y108768D01*
X64675Y108878D01*
X64530Y109606D01*
X65128Y109725D01*
X65872Y110222D01*
X66369Y110967D01*
X66544Y111845D01*
X66369Y112722D01*
X65872Y113467D01*
X65128Y113964D01*
X64250Y114139D01*
X63372Y113964D01*
X62628Y113467D01*
X62131Y112722D01*
X61956Y111845D01*
X62101Y111116D01*
X61962Y111089D01*
X62018Y111372D01*
X61844Y112250D01*
X61346Y112994D01*
X60602Y113492D01*
X59724Y113666D01*
X58846Y113492D01*
X58102Y112994D01*
X57605Y112250D01*
X57430Y111372D01*
X57605Y110494D01*
X58102Y109750D01*
X58846Y109253D01*
X59724Y109078D01*
X60143Y109161D01*
X60087Y108878D01*
X60261Y108000D01*
X60758Y107256D01*
X61503Y106758D01*
X62381Y106584D01*
X62490Y106606D01*
X66257Y102839D01*
X66753Y102507D01*
X67338Y102391D01*
X67946D01*
X71721Y98616D01*
Y93102D01*
X71837Y92517D01*
X72169Y92021D01*
X74415Y89774D01*
Y87555D01*
X74532Y86970D01*
X74863Y86474D01*
X78162Y83176D01*
Y38915D01*
X67860Y28613D01*
X67528Y28117D01*
X67412Y27531D01*
Y26027D01*
X66948Y25835D01*
X66122Y25201D01*
X65488Y24375D01*
X65090Y23414D01*
X64954Y22382D01*
X65090Y21350D01*
X65488Y20389D01*
X66122Y19563D01*
X66948Y18929D01*
X67909Y18531D01*
X68941Y18395D01*
X69973Y18531D01*
X70934Y18929D01*
X71760Y19563D01*
X72394Y20389D01*
X72792Y21350D01*
X72928Y22382D01*
X72792Y23414D01*
X72394Y24375D01*
X71760Y25201D01*
X70934Y25835D01*
X70470Y26027D01*
Y26898D01*
X80772Y37200D01*
X81104Y37696D01*
X81220Y38281D01*
Y52711D01*
X81479Y52373D01*
X82102Y51895D01*
X82828Y51595D01*
X83606Y51492D01*
X84385Y51595D01*
X85110Y51895D01*
X85559Y52239D01*
Y51722D01*
X81915Y48078D01*
X81583Y47582D01*
X81467Y46996D01*
Y27071D01*
X80437Y26041D01*
X79973Y26233D01*
X78941Y26369D01*
X77909Y26233D01*
X76947Y25835D01*
X76122Y25201D01*
X75488Y24375D01*
X75090Y23414D01*
X74954Y22382D01*
X75090Y21350D01*
X75488Y20389D01*
X76122Y19563D01*
X76947Y18929D01*
X77909Y18531D01*
X78941Y18395D01*
X79973Y18531D01*
X80934Y18929D01*
X81760Y19563D01*
X82394Y20389D01*
X82792Y21350D01*
X82928Y22382D01*
X82792Y23414D01*
X82600Y23878D01*
X84078Y25356D01*
X84409Y25852D01*
X84526Y26437D01*
Y46363D01*
X88170Y50007D01*
X88502Y50503D01*
X88618Y51089D01*
Y59911D01*
X88502Y60497D01*
X88170Y60993D01*
X82720Y66443D01*
Y84809D01*
X82604Y85394D01*
X82272Y85891D01*
X79529Y88634D01*
Y90474D01*
X79413Y91059D01*
X79081Y91555D01*
X77572Y93064D01*
Y108213D01*
X77869Y108510D01*
X77939Y108155D01*
X78421Y107433D01*
X79143Y106951D01*
X79170Y106946D01*
X82043Y104073D01*
Y102508D01*
X82199Y101727D01*
X82640Y101066D01*
X84408Y99299D01*
X84438Y99149D01*
X84920Y98427D01*
X85378Y98122D01*
X84881Y97378D01*
X84706Y96500D01*
X84881Y95622D01*
X85378Y94878D01*
X86122Y94381D01*
X86647Y94276D01*
X86381Y93878D01*
X86206Y93000D01*
X86381Y92122D01*
X86647Y91724D01*
X86122Y91619D01*
X85378Y91122D01*
X84881Y90378D01*
X84706Y89500D01*
X84881Y88622D01*
X85378Y87878D01*
X86122Y87381D01*
X87000Y87206D01*
X87257Y87257D01*
X87206Y87000D01*
X87381Y86122D01*
X87878Y85378D01*
X88622Y84881D01*
X88971Y84811D01*
Y26365D01*
X88941Y26369D01*
X87909Y26233D01*
X86948Y25835D01*
X86122Y25201D01*
X85488Y24375D01*
X85090Y23414D01*
X84954Y22382D01*
X85090Y21350D01*
X85488Y20389D01*
X86122Y19563D01*
X86948Y18929D01*
X87909Y18531D01*
X88941Y18395D01*
X89973Y18531D01*
X90934Y18929D01*
X91760Y19563D01*
X92394Y20389D01*
X92792Y21350D01*
X92928Y22382D01*
X92792Y23414D01*
X92394Y24375D01*
X91963Y24936D01*
X92029Y25268D01*
Y85664D01*
X91913Y86250D01*
X91706Y86559D01*
X91794Y87000D01*
X91619Y87878D01*
X91446Y88137D01*
X91586Y88165D01*
X92331Y88663D01*
X92828Y89407D01*
X93003Y90285D01*
X92828Y91163D01*
X92331Y91907D01*
X91586Y92404D01*
X90710Y92579D01*
X90794Y93000D01*
X90619Y93878D01*
X90122Y94622D01*
X89378Y95119D01*
X88853Y95224D01*
X89119Y95622D01*
X89294Y96500D01*
X89119Y97378D01*
X88622Y98122D01*
X88096Y98474D01*
X88547Y99149D01*
X88716Y100000D01*
X88547Y100851D01*
X88065Y101573D01*
X87573Y101901D01*
X86122Y103352D01*
Y103507D01*
X86414Y103312D01*
X87292Y103137D01*
X88169Y103312D01*
X88914Y103809D01*
X89411Y104553D01*
X89586Y105431D01*
X89411Y106309D01*
X88914Y107053D01*
X88847Y107098D01*
X89151Y107301D01*
X89648Y108045D01*
X89823Y108923D01*
X89648Y109801D01*
X89151Y110545D01*
X88407Y111042D01*
X87529Y111217D01*
X86651Y111042D01*
X85907Y110545D01*
X85409Y109801D01*
X85235Y108923D01*
X85409Y108045D01*
X85907Y107301D01*
X85973Y107256D01*
X85669Y107053D01*
X85334Y106550D01*
X82054Y109830D01*
X82049Y109857D01*
X81567Y110579D01*
X80845Y111061D01*
X80490Y111131D01*
X83054Y113695D01*
X87905D01*
X87967Y113602D01*
X88711Y113105D01*
X89589Y112930D01*
X90467Y113105D01*
X91211Y113602D01*
X91708Y114347D01*
X91883Y115224D01*
X91708Y116102D01*
X91211Y116847D01*
X90467Y117344D01*
X89589Y117518D01*
D02*
G37*
G36*
X103963Y108737D02*
X103085Y108562D01*
X102341Y108065D01*
X101843Y107321D01*
X101669Y106443D01*
X101843Y105565D01*
X102341Y104821D01*
X103085Y104323D01*
X103963Y104149D01*
X104841Y104323D01*
X105585Y104821D01*
X106082Y105565D01*
X106257Y106443D01*
X106082Y107321D01*
X105585Y108065D01*
X104841Y108562D01*
X103963Y108737D01*
D02*
G37*
G36*
X47000Y107794D02*
X46122Y107620D01*
X45378Y107122D01*
X44881Y106378D01*
X44706Y105500D01*
X44881Y104622D01*
X45378Y103878D01*
X46122Y103381D01*
X47000Y103206D01*
X47878Y103381D01*
X48622Y103878D01*
X49119Y104622D01*
X49294Y105500D01*
X49119Y106378D01*
X48622Y107122D01*
X47878Y107620D01*
X47000Y107794D01*
D02*
G37*
G36*
X109250Y106657D02*
X108372Y106482D01*
X107628Y105985D01*
X107131Y105241D01*
X106956Y104363D01*
X107131Y103485D01*
X107628Y102741D01*
X108372Y102243D01*
X109250Y102069D01*
X110128Y102243D01*
X110872Y102741D01*
X111370Y103485D01*
X111544Y104363D01*
X111370Y105241D01*
X110872Y105985D01*
X110128Y106482D01*
X109250Y106657D01*
D02*
G37*
G36*
X42000Y107294D02*
X41122Y107120D01*
X40378Y106622D01*
X39880Y105878D01*
X39706Y105000D01*
X39880Y104122D01*
X40278Y103527D01*
X39671Y103122D01*
X39174Y102378D01*
X38999Y101500D01*
X39174Y100622D01*
X39671Y99878D01*
X40415Y99381D01*
X41293Y99206D01*
X42171Y99381D01*
X42915Y99878D01*
X43413Y100622D01*
X43587Y101500D01*
X43413Y102378D01*
X43016Y102972D01*
X43622Y103378D01*
X44120Y104122D01*
X44294Y105000D01*
X44120Y105878D01*
X43622Y106622D01*
X42878Y107120D01*
X42000Y107294D01*
D02*
G37*
G36*
X99000Y86294D02*
X98122Y86119D01*
X97378Y85622D01*
X96881Y84878D01*
X96706Y84000D01*
X96881Y83122D01*
X97378Y82378D01*
X98122Y81881D01*
X99000Y81706D01*
X99878Y81881D01*
X100622Y82378D01*
X101119Y83122D01*
X101294Y84000D01*
X101119Y84878D01*
X100622Y85622D01*
X99878Y86119D01*
X99000Y86294D01*
D02*
G37*
G36*
X96194Y79599D02*
X95317Y79425D01*
X94572Y78928D01*
X94075Y78183D01*
X93901Y77306D01*
X94075Y76428D01*
X94572Y75683D01*
X95317Y75186D01*
X96194Y75011D01*
X97072Y75186D01*
X97817Y75683D01*
X98314Y76428D01*
X98489Y77306D01*
X98314Y78183D01*
X97817Y78928D01*
X97072Y79425D01*
X96194Y79599D01*
D02*
G37*
G36*
X32386Y77105D02*
X31311D01*
Y75008D01*
X34917D01*
X34894Y75180D01*
X34635Y75806D01*
X34222Y76344D01*
X33684Y76757D01*
X33058Y77016D01*
X32386Y77105D01*
D02*
G37*
G36*
X30311D02*
X29236D01*
X28564Y77016D01*
X27938Y76757D01*
X27400Y76344D01*
X26987Y75806D01*
X26728Y75180D01*
X26705Y75008D01*
X30311D01*
Y77105D01*
D02*
G37*
G36*
X17425D02*
X16350D01*
Y75008D01*
X19956D01*
X19934Y75180D01*
X19674Y75806D01*
X19262Y76344D01*
X18724Y76757D01*
X18097Y77016D01*
X17425Y77105D01*
D02*
G37*
G36*
X15350D02*
X14276D01*
X13603Y77016D01*
X12977Y76757D01*
X12439Y76344D01*
X12026Y75806D01*
X11767Y75180D01*
X11744Y75008D01*
X15350D01*
Y77105D01*
D02*
G37*
G36*
X34917Y74008D02*
X31311D01*
Y71911D01*
X32386D01*
X33058Y71999D01*
X33684Y72259D01*
X34222Y72672D01*
X34635Y73209D01*
X34894Y73836D01*
X34917Y74008D01*
D02*
G37*
G36*
X30311D02*
X26705D01*
X26728Y73836D01*
X26987Y73209D01*
X27400Y72672D01*
X27938Y72259D01*
X28564Y71999D01*
X29236Y71911D01*
X30311D01*
Y74008D01*
D02*
G37*
G36*
X19956D02*
X16350D01*
Y71911D01*
X17425D01*
X18097Y71999D01*
X18724Y72259D01*
X19262Y72672D01*
X19674Y73209D01*
X19934Y73836D01*
X19956Y74008D01*
D02*
G37*
G36*
X15350D02*
X11744D01*
X11767Y73836D01*
X12026Y73209D01*
X12439Y72672D01*
X12977Y72259D01*
X13603Y71999D01*
X14276Y71911D01*
X15350D01*
Y74008D01*
D02*
G37*
G36*
X39500Y71530D02*
X38586Y71410D01*
X37735Y71057D01*
X37004Y70496D01*
X36443Y69765D01*
X36090Y68914D01*
X35970Y68000D01*
X36090Y67086D01*
X36443Y66235D01*
X37004Y65504D01*
X37735Y64943D01*
X38586Y64590D01*
X39500Y64470D01*
X40414Y64590D01*
X41265Y64943D01*
X41996Y65504D01*
X42557Y66235D01*
X42910Y67086D01*
X43030Y68000D01*
X42910Y68914D01*
X42557Y69765D01*
X41996Y70496D01*
X41265Y71057D01*
X40414Y71410D01*
X39500Y71530D01*
D02*
G37*
G36*
X64250Y68044D02*
X63372Y67869D01*
X62628Y67372D01*
X62131Y66628D01*
X61956Y65750D01*
X62131Y64872D01*
X62628Y64128D01*
X63372Y63631D01*
X64250Y63456D01*
X65128Y63631D01*
X65872Y64128D01*
X66369Y64872D01*
X66544Y65750D01*
X66369Y66628D01*
X65872Y67372D01*
X65128Y67869D01*
X64250Y68044D01*
D02*
G37*
G36*
X58444Y65850D02*
X57567Y65675D01*
X56822Y65178D01*
X56325Y64433D01*
X56151Y63556D01*
X56325Y62678D01*
X56822Y61933D01*
X57567Y61436D01*
X58444Y61261D01*
X59323Y61436D01*
X60067Y61933D01*
X60564Y62678D01*
X60739Y63556D01*
X60564Y64433D01*
X60067Y65178D01*
X59323Y65675D01*
X58444Y65850D01*
D02*
G37*
G36*
X54511Y57306D02*
X53634Y57131D01*
X52889Y56634D01*
X52392Y55889D01*
X52217Y55011D01*
X52392Y54134D01*
X52889Y53389D01*
X53634Y52892D01*
X54511Y52717D01*
X55389Y52892D01*
X56134Y53389D01*
X56360Y53728D01*
X56381Y53622D01*
X56878Y52878D01*
X57622Y52381D01*
X58500Y52206D01*
X59378Y52381D01*
X60122Y52878D01*
X60619Y53622D01*
X60794Y54500D01*
X60619Y55378D01*
X60122Y56122D01*
X59378Y56619D01*
X58500Y56794D01*
X57622Y56619D01*
X56878Y56122D01*
X56652Y55784D01*
X56631Y55889D01*
X56134Y56634D01*
X55389Y57131D01*
X54511Y57306D01*
D02*
G37*
G36*
X64394Y57508D02*
X63615Y57406D01*
X62890Y57105D01*
X62267Y56627D01*
X61789Y56004D01*
X61488Y55278D01*
X61386Y54500D01*
X61488Y53721D01*
X61789Y52996D01*
X62267Y52373D01*
X62890Y51895D01*
X63615Y51595D01*
X64394Y51492D01*
X65172Y51595D01*
X65898Y51895D01*
X66521Y52373D01*
X66999Y52996D01*
X67299Y53721D01*
X67402Y54500D01*
X67299Y55278D01*
X66999Y56004D01*
X66521Y56627D01*
X65898Y57105D01*
X65172Y57406D01*
X64394Y57508D01*
D02*
G37*
G36*
X32386Y43089D02*
X31311D01*
Y40992D01*
X34917D01*
X34894Y41164D01*
X34635Y41791D01*
X34222Y42329D01*
X33684Y42741D01*
X33058Y43001D01*
X32386Y43089D01*
D02*
G37*
G36*
X30311D02*
X29236D01*
X28564Y43001D01*
X27938Y42741D01*
X27400Y42329D01*
X26987Y41791D01*
X26728Y41164D01*
X26705Y40992D01*
X30311D01*
Y43089D01*
D02*
G37*
G36*
X17425D02*
X16350D01*
Y40992D01*
X19956D01*
X19934Y41164D01*
X19674Y41791D01*
X19262Y42329D01*
X18724Y42741D01*
X18097Y43001D01*
X17425Y43089D01*
D02*
G37*
G36*
X15350D02*
X14276D01*
X13603Y43001D01*
X12977Y42741D01*
X12439Y42329D01*
X12026Y41791D01*
X11767Y41164D01*
X11744Y40992D01*
X15350D01*
Y43089D01*
D02*
G37*
G36*
X34917Y39992D02*
X31311D01*
Y37895D01*
X32386D01*
X33058Y37984D01*
X33684Y38243D01*
X34222Y38656D01*
X34635Y39194D01*
X34894Y39820D01*
X34917Y39992D01*
D02*
G37*
G36*
X30311D02*
X26705D01*
X26728Y39820D01*
X26987Y39194D01*
X27400Y38656D01*
X27938Y38243D01*
X28564Y37984D01*
X29236Y37895D01*
X30311D01*
Y39992D01*
D02*
G37*
G36*
X19956D02*
X16350D01*
Y37895D01*
X17425D01*
X18097Y37984D01*
X18724Y38243D01*
X19262Y38656D01*
X19674Y39194D01*
X19934Y39820D01*
X19956Y39992D01*
D02*
G37*
G36*
X15350D02*
X11744D01*
X11767Y39820D01*
X12026Y39194D01*
X12439Y38656D01*
X12977Y38243D01*
X13603Y37984D01*
X14276Y37895D01*
X15350D01*
Y39992D01*
D02*
G37*
G36*
X128941Y26369D02*
X127909Y26233D01*
X126947Y25835D01*
X126122Y25201D01*
X125488Y24375D01*
X125090Y23414D01*
X124954Y22382D01*
X125090Y21350D01*
X125488Y20389D01*
X126122Y19563D01*
X126947Y18929D01*
X127909Y18531D01*
X128941Y18395D01*
X129973Y18531D01*
X130934Y18929D01*
X131760Y19563D01*
X132394Y20389D01*
X132792Y21350D01*
X132928Y22382D01*
X132792Y23414D01*
X132394Y24375D01*
X131760Y25201D01*
X130934Y25835D01*
X129973Y26233D01*
X128941Y26369D01*
D02*
G37*
G36*
X118941D02*
X117909Y26233D01*
X116947Y25835D01*
X116122Y25201D01*
X115488Y24375D01*
X115090Y23414D01*
X114954Y22382D01*
X115090Y21350D01*
X115488Y20389D01*
X116122Y19563D01*
X116947Y18929D01*
X117909Y18531D01*
X118941Y18395D01*
X119973Y18531D01*
X120934Y18929D01*
X121760Y19563D01*
X122394Y20389D01*
X122792Y21350D01*
X122928Y22382D01*
X122792Y23414D01*
X122394Y24375D01*
X121760Y25201D01*
X120934Y25835D01*
X119973Y26233D01*
X118941Y26369D01*
D02*
G37*
G36*
X108941D02*
X107909Y26233D01*
X106948Y25835D01*
X106122Y25201D01*
X105488Y24375D01*
X105090Y23414D01*
X104954Y22382D01*
X105090Y21350D01*
X105488Y20389D01*
X106122Y19563D01*
X106948Y18929D01*
X107909Y18531D01*
X108941Y18395D01*
X109973Y18531D01*
X110934Y18929D01*
X111760Y19563D01*
X112394Y20389D01*
X112792Y21350D01*
X112928Y22382D01*
X112792Y23414D01*
X112394Y24375D01*
X111760Y25201D01*
X110934Y25835D01*
X109973Y26233D01*
X108941Y26369D01*
D02*
G37*
G36*
X98941D02*
X97909Y26233D01*
X96947Y25835D01*
X96122Y25201D01*
X95488Y24375D01*
X95090Y23414D01*
X94954Y22382D01*
X95090Y21350D01*
X95488Y20389D01*
X96122Y19563D01*
X96947Y18929D01*
X97909Y18531D01*
X98941Y18395D01*
X99973Y18531D01*
X100934Y18929D01*
X101760Y19563D01*
X102394Y20389D01*
X102792Y21350D01*
X102928Y22382D01*
X102792Y23414D01*
X102394Y24375D01*
X101760Y25201D01*
X100934Y25835D01*
X99973Y26233D01*
X98941Y26369D01*
D02*
G37*
G36*
X58941D02*
X57909Y26233D01*
X56947Y25835D01*
X56122Y25201D01*
X55488Y24375D01*
X55090Y23414D01*
X54954Y22382D01*
X55090Y21350D01*
X55488Y20389D01*
X56122Y19563D01*
X56947Y18929D01*
X57909Y18531D01*
X58941Y18395D01*
X59973Y18531D01*
X60934Y18929D01*
X61760Y19563D01*
X62394Y20389D01*
X62792Y21350D01*
X62928Y22382D01*
X62792Y23414D01*
X62394Y24375D01*
X61760Y25201D01*
X60934Y25835D01*
X59973Y26233D01*
X58941Y26369D01*
D02*
G37*
G36*
X48941D02*
X47909Y26233D01*
X46948Y25835D01*
X46122Y25201D01*
X45488Y24375D01*
X45090Y23414D01*
X44954Y22382D01*
X45090Y21350D01*
X45488Y20389D01*
X46122Y19563D01*
X46948Y18929D01*
X47909Y18531D01*
X48941Y18395D01*
X49973Y18531D01*
X50934Y18929D01*
X51760Y19563D01*
X52394Y20389D01*
X52792Y21350D01*
X52928Y22382D01*
X52792Y23414D01*
X52394Y24375D01*
X51760Y25201D01*
X50934Y25835D01*
X49973Y26233D01*
X48941Y26369D01*
D02*
G37*
G36*
X38941D02*
X37909Y26233D01*
X36948Y25835D01*
X36122Y25201D01*
X35488Y24375D01*
X35090Y23414D01*
X34954Y22382D01*
X35090Y21350D01*
X35488Y20389D01*
X36122Y19563D01*
X36948Y18929D01*
X37909Y18531D01*
X38941Y18395D01*
X39973Y18531D01*
X40934Y18929D01*
X41760Y19563D01*
X42394Y20389D01*
X42792Y21350D01*
X42928Y22382D01*
X42792Y23414D01*
X42394Y24375D01*
X41760Y25201D01*
X40934Y25835D01*
X39973Y26233D01*
X38941Y26369D01*
D02*
G37*
G36*
X28941D02*
X27909Y26233D01*
X26948Y25835D01*
X26122Y25201D01*
X25488Y24375D01*
X25090Y23414D01*
X24954Y22382D01*
X25090Y21350D01*
X25488Y20389D01*
X26122Y19563D01*
X26948Y18929D01*
X27909Y18531D01*
X28941Y18395D01*
X29973Y18531D01*
X30934Y18929D01*
X31760Y19563D01*
X32394Y20389D01*
X32792Y21350D01*
X32928Y22382D01*
X32792Y23414D01*
X32394Y24375D01*
X31760Y25201D01*
X30934Y25835D01*
X29973Y26233D01*
X28941Y26369D01*
D02*
G37*
G36*
X18941D02*
X17909Y26233D01*
X16948Y25835D01*
X16122Y25201D01*
X15488Y24375D01*
X15090Y23414D01*
X14954Y22382D01*
X15090Y21350D01*
X15488Y20389D01*
X16122Y19563D01*
X16948Y18929D01*
X17909Y18531D01*
X18941Y18395D01*
X19973Y18531D01*
X20934Y18929D01*
X21760Y19563D01*
X22394Y20389D01*
X22792Y21350D01*
X22928Y22382D01*
X22792Y23414D01*
X22394Y24375D01*
X21760Y25201D01*
X20934Y25835D01*
X19973Y26233D01*
X18941Y26369D01*
D02*
G37*
G36*
X8941D02*
X7909Y26233D01*
X6948Y25835D01*
X6122Y25201D01*
X5488Y24375D01*
X5090Y23414D01*
X4954Y22382D01*
X5090Y21350D01*
X5488Y20389D01*
X6122Y19563D01*
X6948Y18929D01*
X7909Y18531D01*
X8941Y18395D01*
X9973Y18531D01*
X10934Y18929D01*
X11760Y19563D01*
X12394Y20389D01*
X12792Y21350D01*
X12928Y22382D01*
X12792Y23414D01*
X12394Y24375D01*
X11760Y25201D01*
X10934Y25835D01*
X9973Y26233D01*
X8941Y26369D01*
D02*
G37*
G36*
X148941Y16369D02*
X147909Y16233D01*
X146948Y15835D01*
X146122Y15201D01*
X145488Y14375D01*
X145090Y13414D01*
X144954Y12382D01*
X145090Y11350D01*
X145488Y10389D01*
X146122Y9563D01*
X146948Y8929D01*
X147909Y8531D01*
X148941Y8395D01*
X149973Y8531D01*
X150934Y8929D01*
X151760Y9563D01*
X152394Y10389D01*
X152792Y11350D01*
X152928Y12382D01*
X152792Y13414D01*
X152394Y14375D01*
X151760Y15201D01*
X150934Y15835D01*
X149973Y16233D01*
X148941Y16369D01*
D02*
G37*
G36*
X138941D02*
X137909Y16233D01*
X136948Y15835D01*
X136122Y15201D01*
X135488Y14375D01*
X135090Y13414D01*
X134954Y12382D01*
X135090Y11350D01*
X135488Y10389D01*
X136122Y9563D01*
X136948Y8929D01*
X137909Y8531D01*
X138941Y8395D01*
X139973Y8531D01*
X140934Y8929D01*
X141760Y9563D01*
X142394Y10389D01*
X142792Y11350D01*
X142928Y12382D01*
X142792Y13414D01*
X142394Y14375D01*
X141760Y15201D01*
X140934Y15835D01*
X139973Y16233D01*
X138941Y16369D01*
D02*
G37*
G36*
X128941D02*
X127909Y16233D01*
X126947Y15835D01*
X126122Y15201D01*
X125488Y14375D01*
X125090Y13414D01*
X124954Y12382D01*
X125090Y11350D01*
X125488Y10389D01*
X126122Y9563D01*
X126947Y8929D01*
X127909Y8531D01*
X128941Y8395D01*
X129973Y8531D01*
X130934Y8929D01*
X131760Y9563D01*
X132394Y10389D01*
X132792Y11350D01*
X132928Y12382D01*
X132792Y13414D01*
X132394Y14375D01*
X131760Y15201D01*
X130934Y15835D01*
X129973Y16233D01*
X128941Y16369D01*
D02*
G37*
G36*
X118941D02*
X117909Y16233D01*
X116947Y15835D01*
X116122Y15201D01*
X115488Y14375D01*
X115090Y13414D01*
X114954Y12382D01*
X115090Y11350D01*
X115488Y10389D01*
X116122Y9563D01*
X116947Y8929D01*
X117909Y8531D01*
X118941Y8395D01*
X119973Y8531D01*
X120934Y8929D01*
X121760Y9563D01*
X122394Y10389D01*
X122792Y11350D01*
X122928Y12382D01*
X122792Y13414D01*
X122394Y14375D01*
X121760Y15201D01*
X120934Y15835D01*
X119973Y16233D01*
X118941Y16369D01*
D02*
G37*
G36*
X108941D02*
X107909Y16233D01*
X106948Y15835D01*
X106122Y15201D01*
X105488Y14375D01*
X105090Y13414D01*
X104954Y12382D01*
X105090Y11350D01*
X105488Y10389D01*
X106122Y9563D01*
X106948Y8929D01*
X107909Y8531D01*
X108941Y8395D01*
X109973Y8531D01*
X110934Y8929D01*
X111760Y9563D01*
X112394Y10389D01*
X112792Y11350D01*
X112928Y12382D01*
X112792Y13414D01*
X112394Y14375D01*
X111760Y15201D01*
X110934Y15835D01*
X109973Y16233D01*
X108941Y16369D01*
D02*
G37*
G36*
X98941D02*
X97909Y16233D01*
X96947Y15835D01*
X96122Y15201D01*
X95488Y14375D01*
X95090Y13414D01*
X94954Y12382D01*
X95090Y11350D01*
X95488Y10389D01*
X96122Y9563D01*
X96947Y8929D01*
X97909Y8531D01*
X98941Y8395D01*
X99973Y8531D01*
X100934Y8929D01*
X101760Y9563D01*
X102394Y10389D01*
X102792Y11350D01*
X102928Y12382D01*
X102792Y13414D01*
X102394Y14375D01*
X101760Y15201D01*
X100934Y15835D01*
X99973Y16233D01*
X98941Y16369D01*
D02*
G37*
G36*
X88941D02*
X87909Y16233D01*
X86948Y15835D01*
X86122Y15201D01*
X85488Y14375D01*
X85090Y13414D01*
X84954Y12382D01*
X85090Y11350D01*
X85488Y10389D01*
X86122Y9563D01*
X86948Y8929D01*
X87909Y8531D01*
X88941Y8395D01*
X89973Y8531D01*
X90934Y8929D01*
X91760Y9563D01*
X92394Y10389D01*
X92792Y11350D01*
X92928Y12382D01*
X92792Y13414D01*
X92394Y14375D01*
X91760Y15201D01*
X90934Y15835D01*
X89973Y16233D01*
X88941Y16369D01*
D02*
G37*
G36*
X78941D02*
X77909Y16233D01*
X76947Y15835D01*
X76122Y15201D01*
X75488Y14375D01*
X75090Y13414D01*
X74954Y12382D01*
X75090Y11350D01*
X75488Y10389D01*
X76122Y9563D01*
X76947Y8929D01*
X77909Y8531D01*
X78941Y8395D01*
X79973Y8531D01*
X80934Y8929D01*
X81760Y9563D01*
X82394Y10389D01*
X82792Y11350D01*
X82928Y12382D01*
X82792Y13414D01*
X82394Y14375D01*
X81760Y15201D01*
X80934Y15835D01*
X79973Y16233D01*
X78941Y16369D01*
D02*
G37*
G36*
X68941D02*
X67909Y16233D01*
X66948Y15835D01*
X66122Y15201D01*
X65488Y14375D01*
X65090Y13414D01*
X64954Y12382D01*
X65090Y11350D01*
X65488Y10389D01*
X66122Y9563D01*
X66948Y8929D01*
X67909Y8531D01*
X68941Y8395D01*
X69973Y8531D01*
X70934Y8929D01*
X71760Y9563D01*
X72394Y10389D01*
X72792Y11350D01*
X72928Y12382D01*
X72792Y13414D01*
X72394Y14375D01*
X71760Y15201D01*
X70934Y15835D01*
X69973Y16233D01*
X68941Y16369D01*
D02*
G37*
G36*
X58941D02*
X57909Y16233D01*
X56947Y15835D01*
X56122Y15201D01*
X55488Y14375D01*
X55090Y13414D01*
X54954Y12382D01*
X55090Y11350D01*
X55488Y10389D01*
X56122Y9563D01*
X56947Y8929D01*
X57909Y8531D01*
X58941Y8395D01*
X59973Y8531D01*
X60934Y8929D01*
X61760Y9563D01*
X62394Y10389D01*
X62792Y11350D01*
X62928Y12382D01*
X62792Y13414D01*
X62394Y14375D01*
X61760Y15201D01*
X60934Y15835D01*
X59973Y16233D01*
X58941Y16369D01*
D02*
G37*
G36*
X48941D02*
X47909Y16233D01*
X46948Y15835D01*
X46122Y15201D01*
X45488Y14375D01*
X45090Y13414D01*
X44954Y12382D01*
X45090Y11350D01*
X45488Y10389D01*
X46122Y9563D01*
X46948Y8929D01*
X47909Y8531D01*
X48941Y8395D01*
X49973Y8531D01*
X50934Y8929D01*
X51760Y9563D01*
X52394Y10389D01*
X52792Y11350D01*
X52928Y12382D01*
X52792Y13414D01*
X52394Y14375D01*
X51760Y15201D01*
X50934Y15835D01*
X49973Y16233D01*
X48941Y16369D01*
D02*
G37*
G36*
X38941D02*
X37909Y16233D01*
X36948Y15835D01*
X36122Y15201D01*
X35488Y14375D01*
X35090Y13414D01*
X34954Y12382D01*
X35090Y11350D01*
X35488Y10389D01*
X36122Y9563D01*
X36948Y8929D01*
X37909Y8531D01*
X38941Y8395D01*
X39973Y8531D01*
X40934Y8929D01*
X41760Y9563D01*
X42394Y10389D01*
X42792Y11350D01*
X42928Y12382D01*
X42792Y13414D01*
X42394Y14375D01*
X41760Y15201D01*
X40934Y15835D01*
X39973Y16233D01*
X38941Y16369D01*
D02*
G37*
G36*
X28941D02*
X27909Y16233D01*
X26948Y15835D01*
X26122Y15201D01*
X25488Y14375D01*
X25090Y13414D01*
X24954Y12382D01*
X25090Y11350D01*
X25488Y10389D01*
X26122Y9563D01*
X26948Y8929D01*
X27909Y8531D01*
X28941Y8395D01*
X29973Y8531D01*
X30934Y8929D01*
X31760Y9563D01*
X32394Y10389D01*
X32792Y11350D01*
X32928Y12382D01*
X32792Y13414D01*
X32394Y14375D01*
X31760Y15201D01*
X30934Y15835D01*
X29973Y16233D01*
X28941Y16369D01*
D02*
G37*
G36*
X18941D02*
X17909Y16233D01*
X16948Y15835D01*
X16122Y15201D01*
X15488Y14375D01*
X15090Y13414D01*
X14954Y12382D01*
X15090Y11350D01*
X15488Y10389D01*
X16122Y9563D01*
X16948Y8929D01*
X17909Y8531D01*
X18941Y8395D01*
X19973Y8531D01*
X20934Y8929D01*
X21760Y9563D01*
X22394Y10389D01*
X22792Y11350D01*
X22928Y12382D01*
X22792Y13414D01*
X22394Y14375D01*
X21760Y15201D01*
X20934Y15835D01*
X19973Y16233D01*
X18941Y16369D01*
D02*
G37*
G36*
X8941D02*
X7909Y16233D01*
X6948Y15835D01*
X6122Y15201D01*
X5488Y14375D01*
X5090Y13414D01*
X4954Y12382D01*
X5090Y11350D01*
X5488Y10389D01*
X6122Y9563D01*
X6948Y8929D01*
X7909Y8531D01*
X8941Y8395D01*
X9973Y8531D01*
X10934Y8929D01*
X11760Y9563D01*
X12394Y10389D01*
X12792Y11350D01*
X12928Y12382D01*
X12792Y13414D01*
X12394Y14375D01*
X11760Y15201D01*
X10934Y15835D01*
X9973Y16233D01*
X8941Y16369D01*
D02*
G37*
%LPD*%
D14*
X94104Y128396D02*
X97604D01*
X109500Y116500D01*
X132500D01*
X82421Y115224D02*
X89589D01*
X74700Y72309D02*
Y81827D01*
X64824Y91703D02*
X74700Y81827D01*
X64824Y91703D02*
Y99407D01*
X75945Y87555D02*
Y90408D01*
X79691Y38281D02*
Y83809D01*
X75945Y87555D02*
X79691Y83809D01*
X81191Y65809D02*
Y84809D01*
X78000Y88000D02*
X81191Y84809D01*
X78000Y88000D02*
Y90474D01*
X48941Y152303D02*
X53394Y147850D01*
Y136894D02*
Y147850D01*
X49000Y132500D02*
X53394Y136894D01*
X49000Y115231D02*
Y132500D01*
X49293Y114938D02*
X64824Y99407D01*
X49000Y115231D02*
X49293Y114938D01*
X148941Y22382D02*
Y76059D01*
X110000Y115000D02*
X148941Y76059D01*
X52500Y129500D02*
X55000Y127000D01*
X95861Y118750D02*
X98361D01*
X55000Y127000D02*
X87611D01*
X95861Y118750D01*
X62381Y108878D02*
X67338Y103920D01*
X68580D02*
X73250Y99250D01*
X67338Y103920D02*
X68580D01*
X98990Y113500D02*
X108500D01*
X91490Y121000D02*
X98990Y113500D01*
X87000Y121000D02*
X91490D01*
X108500Y113500D02*
X137000Y85000D01*
Y35500D02*
Y85000D01*
X102111Y115000D02*
X110000D01*
X98361Y118750D02*
X102111Y115000D01*
X82996Y26437D02*
Y46996D01*
X87089Y51089D01*
Y59911D01*
X81191Y65809D02*
X87089Y59911D01*
X76043Y92431D02*
X78000Y90474D01*
X78941Y22382D02*
X82996Y26437D01*
X68941Y27531D02*
X79691Y38281D01*
X88941Y23709D02*
X90500Y25268D01*
Y85664D01*
X89500Y86664D02*
Y87000D01*
X88941Y22382D02*
Y23709D01*
X89500Y86664D02*
X90500Y85664D01*
X68941Y22382D02*
Y27531D01*
X73250Y93102D02*
X75945Y90408D01*
X73250Y93102D02*
Y99250D01*
X76043Y108846D02*
X82421Y115224D01*
X76043Y92431D02*
Y108846D01*
X148941Y152303D02*
Y166441D01*
X151586Y169086D01*
X152414D01*
X152500Y169000D01*
X153500Y137500D02*
Y146500D01*
X132500Y116500D02*
X153500Y137500D01*
X108941Y152303D02*
Y160941D01*
X114500Y166500D01*
X128941Y152303D02*
Y167696D01*
X131025Y169780D01*
Y169855D01*
X98941Y152303D02*
Y158559D01*
X91500Y166000D02*
X98941Y158559D01*
X138941Y152303D02*
Y168696D01*
X141024Y170780D02*
Y170855D01*
X138941Y168696D02*
X141024Y170780D01*
X149000Y151000D02*
X153500Y146500D01*
X137000Y35500D02*
X139500Y33000D01*
Y23500D02*
Y33000D01*
D46*
X106257Y131646D02*
X107500Y132889D01*
X92757Y131646D02*
X106257D01*
X92707Y131596D02*
X92757Y131646D01*
X91596Y131596D02*
X92707D01*
X91500Y131500D02*
X91596Y131596D01*
X97000Y135000D02*
X104000D01*
X84082Y102508D02*
Y104918D01*
Y102508D02*
X86492Y100098D01*
X79994Y109006D02*
X84082Y104918D01*
X86492Y100000D02*
Y100098D01*
X107500Y132889D02*
Y136740D01*
X103988Y140252D02*
X107500Y136740D01*
X115500Y132500D02*
X116000Y133000D01*
X115500Y122000D02*
Y132500D01*
X116642Y133000D02*
X123894Y140252D01*
X116000Y133000D02*
X116642D01*
X123894Y140252D02*
Y147350D01*
X118941Y152303D02*
X123894Y147350D01*
X103988Y140252D02*
Y147350D01*
X108941Y152303D01*
D48*
X15850Y40492D02*
D03*
Y74508D02*
D03*
X30811Y40492D02*
D03*
Y74508D02*
D03*
D49*
X148941Y152303D02*
D03*
X138941D02*
D03*
X128941D02*
D03*
X118941D02*
D03*
X108941D02*
D03*
X98941D02*
D03*
X68941D02*
D03*
X58941D02*
D03*
X48941D02*
D03*
X28941D02*
D03*
X68941Y22382D02*
D03*
X78941D02*
D03*
X88941D02*
D03*
X138941D02*
D03*
D50*
X148941D02*
D03*
D52*
X91500Y131500D02*
D03*
X94104Y128396D02*
D03*
X89589Y115224D02*
D03*
X52500Y129500D02*
D03*
X62381Y108878D02*
D03*
X57100Y123250D02*
D03*
X89500Y87000D02*
D03*
X115500Y122000D02*
D03*
X87000Y121000D02*
D03*
D53*
X74700Y72309D02*
D03*
X114500Y166575D02*
D03*
X141024Y170855D02*
D03*
X131025Y169855D02*
D03*
X152500Y169000D02*
D03*
X91500Y166000D02*
D03*
D54*
X106000Y110957D02*
D03*
X124752Y107028D02*
D03*
X126515Y122991D02*
D03*
X113500Y138500D02*
D03*
X139000Y90000D02*
D03*
X143500Y91000D02*
D03*
X139340Y93823D02*
D03*
X106000Y69500D02*
D03*
X102000Y77500D02*
D03*
X101500Y80500D02*
D03*
X29500Y134000D02*
D03*
X13500Y133000D02*
D03*
X160185Y170020D02*
D03*
Y166083D02*
D03*
Y162146D02*
D03*
Y158209D02*
D03*
Y154272D02*
D03*
Y150335D02*
D03*
Y146398D02*
D03*
Y142461D02*
D03*
Y138524D02*
D03*
Y134587D02*
D03*
Y130650D02*
D03*
Y126713D02*
D03*
Y122776D02*
D03*
Y118839D02*
D03*
Y114902D02*
D03*
Y110965D02*
D03*
Y107028D02*
D03*
Y103091D02*
D03*
Y99154D02*
D03*
Y95217D02*
D03*
Y91280D02*
D03*
Y87343D02*
D03*
Y83406D02*
D03*
Y79469D02*
D03*
Y75532D02*
D03*
Y71595D02*
D03*
Y67658D02*
D03*
Y63721D02*
D03*
Y59784D02*
D03*
Y55847D02*
D03*
Y51910D02*
D03*
Y47973D02*
D03*
Y44036D02*
D03*
Y40099D02*
D03*
Y36162D02*
D03*
Y32225D02*
D03*
Y28288D02*
D03*
Y24351D02*
D03*
Y20414D02*
D03*
Y16477D02*
D03*
Y12539D02*
D03*
Y8602D02*
D03*
Y4665D02*
D03*
X156248Y170020D02*
D03*
Y166083D02*
D03*
Y162146D02*
D03*
Y158209D02*
D03*
Y91280D02*
D03*
Y87343D02*
D03*
Y83406D02*
D03*
Y79469D02*
D03*
Y75532D02*
D03*
Y71595D02*
D03*
Y67658D02*
D03*
Y63721D02*
D03*
Y59784D02*
D03*
Y55847D02*
D03*
Y51910D02*
D03*
Y47973D02*
D03*
Y44036D02*
D03*
Y40099D02*
D03*
Y36162D02*
D03*
Y32225D02*
D03*
Y28288D02*
D03*
Y24351D02*
D03*
Y20414D02*
D03*
Y16477D02*
D03*
Y12539D02*
D03*
Y8602D02*
D03*
Y4665D02*
D03*
X152311Y162146D02*
D03*
Y67658D02*
D03*
Y63721D02*
D03*
Y59784D02*
D03*
Y55847D02*
D03*
Y51910D02*
D03*
Y47973D02*
D03*
Y44036D02*
D03*
Y40099D02*
D03*
Y36162D02*
D03*
Y32225D02*
D03*
Y28288D02*
D03*
Y16477D02*
D03*
Y8602D02*
D03*
Y4665D02*
D03*
X148374Y170020D02*
D03*
Y4665D02*
D03*
X144437Y170020D02*
D03*
Y67658D02*
D03*
Y63721D02*
D03*
Y59784D02*
D03*
Y40099D02*
D03*
Y36162D02*
D03*
Y32225D02*
D03*
Y28288D02*
D03*
Y16477D02*
D03*
Y8602D02*
D03*
Y4665D02*
D03*
X140500Y67658D02*
D03*
Y63721D02*
D03*
Y59784D02*
D03*
Y40099D02*
D03*
Y36162D02*
D03*
Y4665D02*
D03*
X136563Y170020D02*
D03*
Y110965D02*
D03*
Y103091D02*
D03*
Y32225D02*
D03*
Y28288D02*
D03*
Y4665D02*
D03*
X132626Y162146D02*
D03*
Y103091D02*
D03*
Y67658D02*
D03*
Y63721D02*
D03*
Y51910D02*
D03*
Y47973D02*
D03*
Y44036D02*
D03*
Y40099D02*
D03*
Y36162D02*
D03*
Y32225D02*
D03*
Y28288D02*
D03*
Y16477D02*
D03*
Y8602D02*
D03*
Y4665D02*
D03*
X128689D02*
D03*
X124752Y170020D02*
D03*
Y59784D02*
D03*
Y55847D02*
D03*
Y51910D02*
D03*
Y47973D02*
D03*
Y44036D02*
D03*
Y40099D02*
D03*
Y36162D02*
D03*
Y32225D02*
D03*
Y28288D02*
D03*
Y16477D02*
D03*
Y8602D02*
D03*
Y4665D02*
D03*
X120815Y170020D02*
D03*
Y166083D02*
D03*
Y162146D02*
D03*
Y4665D02*
D03*
X116878Y170020D02*
D03*
Y162146D02*
D03*
Y71595D02*
D03*
Y40099D02*
D03*
Y36162D02*
D03*
Y32225D02*
D03*
Y28288D02*
D03*
Y4665D02*
D03*
X112941Y170020D02*
D03*
Y40099D02*
D03*
Y36162D02*
D03*
Y32225D02*
D03*
Y28288D02*
D03*
Y16477D02*
D03*
Y8602D02*
D03*
Y4665D02*
D03*
X109004Y170020D02*
D03*
Y4665D02*
D03*
X105067Y170020D02*
D03*
Y16477D02*
D03*
Y8602D02*
D03*
Y4665D02*
D03*
X101130Y170020D02*
D03*
Y51910D02*
D03*
Y47973D02*
D03*
Y32225D02*
D03*
Y28288D02*
D03*
Y4665D02*
D03*
X97193Y170020D02*
D03*
Y63721D02*
D03*
Y59784D02*
D03*
Y55847D02*
D03*
Y51910D02*
D03*
Y47973D02*
D03*
Y44036D02*
D03*
Y32225D02*
D03*
Y28288D02*
D03*
Y4665D02*
D03*
X93256Y170020D02*
D03*
Y83406D02*
D03*
Y63721D02*
D03*
Y59784D02*
D03*
Y55847D02*
D03*
Y51910D02*
D03*
Y47973D02*
D03*
Y44036D02*
D03*
Y32225D02*
D03*
Y28288D02*
D03*
Y16477D02*
D03*
Y8602D02*
D03*
Y4665D02*
D03*
X89319Y170020D02*
D03*
Y162146D02*
D03*
Y4665D02*
D03*
X85382Y170020D02*
D03*
Y166083D02*
D03*
Y162146D02*
D03*
Y16477D02*
D03*
Y8602D02*
D03*
Y4665D02*
D03*
X81445Y170020D02*
D03*
Y166083D02*
D03*
Y162146D02*
D03*
Y4665D02*
D03*
X77508Y170020D02*
D03*
Y166083D02*
D03*
Y162146D02*
D03*
Y4665D02*
D03*
X73571Y170020D02*
D03*
Y166083D02*
D03*
Y162146D02*
D03*
Y154272D02*
D03*
Y150335D02*
D03*
Y51910D02*
D03*
Y47973D02*
D03*
Y44036D02*
D03*
Y28288D02*
D03*
Y24351D02*
D03*
Y20414D02*
D03*
Y16477D02*
D03*
Y8602D02*
D03*
Y4665D02*
D03*
X69634Y170020D02*
D03*
Y166083D02*
D03*
Y162146D02*
D03*
Y55847D02*
D03*
Y51910D02*
D03*
Y47973D02*
D03*
Y4665D02*
D03*
X65697Y170020D02*
D03*
Y166083D02*
D03*
Y162146D02*
D03*
Y47973D02*
D03*
Y44036D02*
D03*
Y28288D02*
D03*
Y16477D02*
D03*
Y8602D02*
D03*
Y4665D02*
D03*
X61760Y170020D02*
D03*
Y166083D02*
D03*
Y162146D02*
D03*
Y47973D02*
D03*
Y16477D02*
D03*
Y4665D02*
D03*
X57823Y170020D02*
D03*
Y166083D02*
D03*
Y162146D02*
D03*
Y99154D02*
D03*
Y95217D02*
D03*
Y91280D02*
D03*
Y87343D02*
D03*
Y83406D02*
D03*
Y79469D02*
D03*
Y4665D02*
D03*
X53886Y170020D02*
D03*
Y166083D02*
D03*
Y162146D02*
D03*
Y154272D02*
D03*
Y24351D02*
D03*
Y20414D02*
D03*
Y16477D02*
D03*
Y12539D02*
D03*
Y8602D02*
D03*
Y4665D02*
D03*
X49949Y170020D02*
D03*
Y166083D02*
D03*
Y83406D02*
D03*
Y51910D02*
D03*
Y47973D02*
D03*
Y4665D02*
D03*
X46012Y170020D02*
D03*
Y166083D02*
D03*
Y67658D02*
D03*
Y36162D02*
D03*
Y28288D02*
D03*
Y16477D02*
D03*
Y4665D02*
D03*
X42075Y170020D02*
D03*
Y166083D02*
D03*
Y75532D02*
D03*
Y32225D02*
D03*
Y28288D02*
D03*
Y16477D02*
D03*
Y4665D02*
D03*
X38138Y170020D02*
D03*
Y166083D02*
D03*
Y75532D02*
D03*
Y47973D02*
D03*
Y44036D02*
D03*
Y4665D02*
D03*
X34201Y170020D02*
D03*
Y166083D02*
D03*
Y154272D02*
D03*
Y150335D02*
D03*
Y71595D02*
D03*
Y28288D02*
D03*
Y24351D02*
D03*
Y20414D02*
D03*
Y16477D02*
D03*
Y8602D02*
D03*
Y4665D02*
D03*
X30264Y170020D02*
D03*
Y166083D02*
D03*
Y36162D02*
D03*
Y4665D02*
D03*
X26327Y170020D02*
D03*
Y166083D02*
D03*
Y32225D02*
D03*
Y28288D02*
D03*
Y4665D02*
D03*
X22390Y170020D02*
D03*
Y166083D02*
D03*
Y28288D02*
D03*
Y16477D02*
D03*
Y8602D02*
D03*
Y4665D02*
D03*
X18453Y170020D02*
D03*
Y166083D02*
D03*
Y162146D02*
D03*
Y67658D02*
D03*
Y63721D02*
D03*
Y59784D02*
D03*
Y55847D02*
D03*
Y51910D02*
D03*
Y47973D02*
D03*
Y44036D02*
D03*
Y4665D02*
D03*
X14516Y170020D02*
D03*
Y166083D02*
D03*
Y162146D02*
D03*
Y91280D02*
D03*
Y67658D02*
D03*
Y63721D02*
D03*
Y59784D02*
D03*
Y55847D02*
D03*
Y51910D02*
D03*
Y47973D02*
D03*
Y36162D02*
D03*
Y16477D02*
D03*
Y8602D02*
D03*
Y4665D02*
D03*
X10579Y170020D02*
D03*
Y166083D02*
D03*
Y162146D02*
D03*
Y75532D02*
D03*
Y71595D02*
D03*
Y67658D02*
D03*
Y63721D02*
D03*
Y59784D02*
D03*
Y55847D02*
D03*
Y51910D02*
D03*
Y47973D02*
D03*
Y44036D02*
D03*
Y40099D02*
D03*
Y36162D02*
D03*
Y32225D02*
D03*
Y4665D02*
D03*
X6642Y170020D02*
D03*
Y166083D02*
D03*
Y162146D02*
D03*
Y107028D02*
D03*
Y95217D02*
D03*
Y91280D02*
D03*
Y87343D02*
D03*
Y75532D02*
D03*
Y71595D02*
D03*
Y67658D02*
D03*
Y63721D02*
D03*
Y59784D02*
D03*
Y55847D02*
D03*
Y51910D02*
D03*
Y47973D02*
D03*
Y44036D02*
D03*
Y40099D02*
D03*
Y36162D02*
D03*
Y32225D02*
D03*
Y28288D02*
D03*
Y4665D02*
D03*
X2705Y170020D02*
D03*
Y166083D02*
D03*
Y162146D02*
D03*
Y158209D02*
D03*
Y126713D02*
D03*
Y122776D02*
D03*
Y118839D02*
D03*
Y114902D02*
D03*
Y110965D02*
D03*
Y107028D02*
D03*
Y103091D02*
D03*
Y99154D02*
D03*
Y95217D02*
D03*
Y91280D02*
D03*
Y87343D02*
D03*
Y83406D02*
D03*
Y79469D02*
D03*
Y75532D02*
D03*
Y71595D02*
D03*
Y67658D02*
D03*
Y63721D02*
D03*
Y59784D02*
D03*
Y55847D02*
D03*
Y51910D02*
D03*
Y47973D02*
D03*
Y44036D02*
D03*
Y40099D02*
D03*
Y36162D02*
D03*
Y32225D02*
D03*
Y28288D02*
D03*
Y24351D02*
D03*
Y20414D02*
D03*
Y16477D02*
D03*
Y12539D02*
D03*
Y8602D02*
D03*
Y4665D02*
D03*
D55*
X97000Y135000D02*
D03*
X86492Y100000D02*
D03*
X79994Y109006D02*
D03*
X104000Y135000D02*
D03*
M02*
