M48
;Layer_Color=9474304
;FILE_FORMAT=2:5
INCH,LZ
;TYPE=PLATED
T1F00S00C0.00787
T2F00S00C0.01500
T3F00S00C0.01575
T4F00S00C0.02000
T6F00S00C0.02587
T7F00S00C0.02800
T8F00S00C0.03543
%
T01
X0112941Y0004665
X0116878
X0120815
X0124752
X0128689
X0132626
X0136563
X01405
X0144437
X0148374
X0152311
X0156248
X0160185
Y0008602
Y0012539
Y0016477
Y0020414
Y0024351
Y0028288
Y0032225
Y0036162
Y0040099
Y0044036
Y0047973
Y005191
Y0055847
Y0059784
Y0063721
Y0067658
Y0071595
Y0075532
Y0079469
Y0083406
Y0087343
Y009128
Y0095217
Y0099154
Y0103091
Y0107028
Y0110965
Y0114902
Y0118839
Y0122776
Y0126713
Y013065
Y0134587
Y0138524
X01135Y01385
X0126515Y0122991
X0124752Y0107028
X0132626Y0103091
X0136563
Y0110965
X013934Y0093823
X0139Y009
X01435Y0091
X0156248Y009128
Y0087343
Y0083406
Y0079469
Y0075532
Y0071595
Y0067658
Y0063721
Y0059784
Y0055847
Y005191
Y0047973
Y0044036
Y0040099
Y0036162
Y0032225
Y0028288
Y0024351
Y0020414
Y0016477
Y0012539
Y0008602
X0152311
Y0016477
X0144437
Y0008602
X0132626
Y0016477
X0124752
Y0008602
X0112941
Y0016477
Y0028288
X0116878
Y0032225
Y0036162
Y0040099
X0112941
Y0036162
Y0032225
X0124752
Y0036162
Y0040099
Y0044036
Y0047973
Y005191
Y0055847
Y0059784
X0132626Y0063721
Y0067658
X01405
X0144437
Y0063721
Y0059784
X01405
Y0063721
X0152311
Y0067658
Y0059784
Y0055847
Y005191
Y0047973
Y0044036
Y0040099
Y0036162
Y0032225
Y0028288
X0144437
Y0032225
Y0036162
Y0040099
X01405
Y0036162
X0136563Y0032225
Y0028288
X0132626
Y0032225
Y0036162
Y0040099
Y0044036
Y0047973
Y005191
X0124752Y0028288
X0116878Y0071595
X0106Y00695
X0102Y00775
X01015Y00805
X0093256Y0083406
Y0063721
X0097193
Y0059784
Y0055847
Y005191
X010113
Y0047973
X0097193
Y0044036
X0093256
Y0047973
Y005191
Y0055847
Y0059784
Y0032225
X0097193
X010113
Y0028288
X0097193
X0093256
Y0016477
Y0008602
Y0004665
X0097193
X010113
X0105067
X0109004
X0105067Y0008602
Y0016477
X0085382
Y0008602
Y0004665
X0089319
X0081445
X0077508
X0073571
Y0008602
Y0016477
Y0020414
Y0024351
Y0028288
X0065697
Y0016477
X006176
X0053886
Y0020414
Y0024351
Y0012539
Y0008602
Y0004665
X0057823
X006176
X0065697
X0069634
X0065697Y0008602
X0049949Y0004665
X0046012
X0042075
X0038138
X0034201
Y0008602
Y0016477
Y0020414
Y0024351
Y0028288
X0042075
X0046012
Y0036162
X0042075Y0032225
Y0016477
X0046012
X002239
Y0008602
Y0004665
X0026327
X0030264
X0018453
X0014516
Y0008602
Y0016477
X0002705
Y0020414
Y0024351
Y0028288
X0006642
Y0032225
X0010579
Y0036162
X0014516
X0010579Y0040099
Y0044036
Y0047973
X0014516
X0018453
Y005191
Y0055847
Y0059784
Y0063721
Y0067658
X0014516
Y0063721
Y0059784
Y0055847
Y005191
X0010579
Y0055847
Y0059784
Y0063721
Y0067658
Y0071595
Y0075532
X0006642
Y0071595
Y0067658
Y0063721
Y0059784
Y0055847
Y005191
Y0047973
Y0044036
Y0040099
Y0036162
X0002705
Y0040099
Y0044036
Y0047973
Y005191
Y0055847
Y0059784
Y0063721
Y0067658
Y0071595
Y0075532
Y0079469
Y0083406
Y0087343
X0006642
Y009128
Y0095217
X0002705
Y0099154
Y0103091
Y0107028
X0006642
X0002705Y0110965
Y0114902
Y0118839
Y0122776
Y0126713
X00135Y0133
X00295Y0134
X0014516Y009128
X0002705
X0038138Y0075532
X0042075
X0046012Y0067658
X0034201Y0071595
X0049949Y0083406
X0057823
Y0087343
Y009128
Y0095217
Y0099154
Y0079469
X0069634Y0055847
Y005191
X0073571
Y0047973
Y0044036
X0069634Y0047973
X0065697
Y0044036
X006176Y0047973
X0049949
Y005191
X0038138Y0047973
Y0044036
X0030264Y0036162
X0026327Y0032225
Y0028288
X002239
X0018453Y0044036
X0002705Y0032225
Y0012539
Y0008602
Y0004665
X0006642
X0010579
X0106Y0110957
X0105067Y017002
X0109004
X010113
X0097193
X0093256
X0089319
X0085382
Y0166083
Y0162146
X0089319
X0081445
Y0166083
Y017002
X0077508
Y0166083
Y0162146
X0073571
Y0166083
Y017002
X0069634
Y0166083
Y0162146
X0065697
Y0166083
Y017002
X006176
Y0166083
Y0162146
X0057823
Y0166083
Y017002
X0053886
Y0166083
Y0162146
Y0154272
X0049949Y0166083
Y017002
X0046012
Y0166083
X0042075
Y017002
X0038138
Y0166083
X0034201
Y017002
X0030264
Y0166083
X0026327
Y017002
X002239
Y0166083
X0018453
Y017002
X0014516
Y0166083
Y0162146
X0018453
X0010579
Y0166083
Y017002
X0006642
Y0166083
Y0162146
X0002705
Y0166083
Y017002
Y0158209
X0034201Y0154272
Y0150335
X0073571
Y0154272
X0116878Y0162146
X0120815
Y0166083
Y017002
X0124752
X0116878
X0112941
X0136563
X0144437
X0148374
X0156248
X0160185
Y0166083
Y0162146
Y0158209
Y0154272
Y0150335
Y0146398
Y0142461
X0156248Y0158209
Y0162146
Y0166083
X0152311Y0162146
X0132626
T02
X010925Y0104363
X0103963Y0106443
X0087292Y0105431
X0087529Y0108923
X0089589Y0115224
X0087Y0121
X00945Y0124
X0094104Y0128396
X00915Y01315
X0073085Y0119729
X0069689Y0120578
X0075945Y0114556
X007325Y0111208
X006425Y0111845
X0062381Y0108878
X0059724Y0111372
X00571Y012325
X0054335Y0121104
X00525Y01295
X0047Y01055
X0042Y0105
X0041293Y01015
X0087Y00965
X00885Y0093
X0090709Y0090285
X0087Y00895
X00895Y0087
X0099Y0084
X0096194Y0077306
X006425Y006575
X0058444Y0063556
X00585Y00545
X0054511Y0055011
T03
X01155Y0122
X0121
X0104Y0135
X0097
X0079994Y0109006
X0086492Y01
T04
X00747Y0072309
X00915Y0166
X01145Y0166575
X0131025Y0169855
X0141024Y0170855
X01525Y0169
T06
X0064394Y00545
X0083606
T07
X00395Y0068
T08
X0118941Y0012382
Y0022382
X0128941
Y0012382
X0138941
Y0022382
X0148941
Y0012382
X0108941
X0098941
X0088941
X0078941
X0068941
X0058941
X0048941
X0038941
X0028941
X0018941
X0008941
Y0022382
X0018941
X0028941
X0038941
X0048941
X0058941
X0068941
X0078941
X0088941
X0098941
X0108941
Y0142303
Y0152303
X0098941
Y0142303
X0088941
Y0152303
X0078941
Y0142303
X0068941
Y0152303
X0058941
Y0142303
X0048941
Y0152303
X0038941
Y0142303
X0028941
Y0152303
X0018941
Y0142303
X0008941
Y0152303
X0118941
X0128941
X0138941
X0148941
Y0142303
X0138941
X0128941
X0118941
M30
