G04*
G04 #@! TF.GenerationSoftware,Altium Limited,Altium Designer,22.0.2 (36)*
G04*
G04 Layer_Physical_Order=4*
G04 Layer_Color=16711680*
%FSLAX25Y25*%
%MOIN*%
G70*
G04*
G04 #@! TF.SameCoordinates,5F5B6C63-6FB6-4E28-9BE5-C2605847C7C1*
G04*
G04*
G04 #@! TF.FilePolarity,Positive*
G04*
G01*
G75*
%ADD14C,0.01000*%
G04:AMPARAMS|DCode=21|XSize=39.37mil|YSize=55.91mil|CornerRadius=4.92mil|HoleSize=0mil|Usage=FLASHONLY|Rotation=90.000|XOffset=0mil|YOffset=0mil|HoleType=Round|Shape=RoundedRectangle|*
%AMROUNDEDRECTD21*
21,1,0.03937,0.04606,0,0,90.0*
21,1,0.02953,0.05591,0,0,90.0*
1,1,0.00984,0.02303,0.01476*
1,1,0.00984,0.02303,-0.01476*
1,1,0.00984,-0.02303,-0.01476*
1,1,0.00984,-0.02303,0.01476*
%
%ADD21ROUNDEDRECTD21*%
%ADD24R,0.12284X0.09016*%
%ADD25R,0.04528X0.05709*%
%ADD26R,0.05709X0.04528*%
%ADD46C,0.02000*%
%ADD48O,0.06299X0.03150*%
%ADD49C,0.05906*%
%ADD50R,0.05906X0.05906*%
%ADD51C,0.03965*%
%ADD52C,0.02500*%
%ADD53C,0.03000*%
%ADD54C,0.01968*%
%ADD55C,0.02362*%
%ADD56C,0.05000*%
%ADD57R,0.06299X0.11811*%
%ADD58R,0.23622X0.23622*%
%ADD59R,0.03937X0.04724*%
%ADD60R,0.33268X0.24000*%
G04:AMPARAMS|DCode=61|XSize=39.37mil|YSize=55.91mil|CornerRadius=4.92mil|HoleSize=0mil|Usage=FLASHONLY|Rotation=0.000|XOffset=0mil|YOffset=0mil|HoleType=Round|Shape=RoundedRectangle|*
%AMROUNDEDRECTD61*
21,1,0.03937,0.04606,0,0,0.0*
21,1,0.02953,0.05591,0,0,0.0*
1,1,0.00984,0.01476,-0.02303*
1,1,0.00984,-0.01476,-0.02303*
1,1,0.00984,-0.01476,0.02303*
1,1,0.00984,0.01476,0.02303*
%
%ADD61ROUNDEDRECTD61*%
%ADD62R,0.09016X0.12284*%
%ADD63R,0.01181X0.05512*%
G36*
X163971Y1364D02*
X1675D01*
Y175471D01*
X163971D01*
Y1364D01*
D02*
G37*
%LPC*%
G36*
X141024Y173404D02*
X140049Y173210D01*
X139222Y172657D01*
X138670Y171830D01*
X138476Y170855D01*
X138670Y169879D01*
X139222Y169053D01*
X140049Y168500D01*
X141024Y168306D01*
X142000Y168500D01*
X142827Y169053D01*
X143379Y169879D01*
X143573Y170855D01*
X143379Y171830D01*
X142827Y172657D01*
X142000Y173210D01*
X141024Y173404D01*
D02*
G37*
G36*
X131025Y172404D02*
X130049Y172210D01*
X129222Y171657D01*
X128670Y170830D01*
X128476Y169855D01*
X128670Y168879D01*
X129222Y168052D01*
X130049Y167500D01*
X131025Y167306D01*
X132000Y167500D01*
X132827Y168052D01*
X133379Y168879D01*
X133573Y169855D01*
X133379Y170830D01*
X132827Y171657D01*
X132000Y172210D01*
X131025Y172404D01*
D02*
G37*
G36*
X152500Y171549D02*
X151524Y171355D01*
X150698Y170802D01*
X150145Y169975D01*
X149951Y169000D01*
X150145Y168025D01*
X150698Y167198D01*
X151524Y166645D01*
X152500Y166451D01*
X153475Y166645D01*
X154302Y167198D01*
X154855Y168025D01*
X155049Y169000D01*
X154855Y169975D01*
X154302Y170802D01*
X153475Y171355D01*
X152500Y171549D01*
D02*
G37*
G36*
X114500Y169124D02*
X113524Y168930D01*
X112698Y168378D01*
X112145Y167551D01*
X111951Y166575D01*
X112145Y165600D01*
X112698Y164773D01*
X113524Y164220D01*
X114500Y164026D01*
X115475Y164220D01*
X116302Y164773D01*
X116855Y165600D01*
X117049Y166575D01*
X116855Y167551D01*
X116302Y168378D01*
X115475Y168930D01*
X114500Y169124D01*
D02*
G37*
G36*
X91500Y168549D02*
X90525Y168355D01*
X89698Y167802D01*
X89145Y166975D01*
X88951Y166000D01*
X89145Y165024D01*
X89698Y164198D01*
X90525Y163645D01*
X91500Y163451D01*
X92475Y163645D01*
X93302Y164198D01*
X93855Y165024D01*
X94049Y166000D01*
X93855Y166975D01*
X93302Y167802D01*
X92475Y168355D01*
X91500Y168549D01*
D02*
G37*
G36*
X82000Y159529D02*
X26000D01*
X25415Y159413D01*
X24919Y159081D01*
X22919Y157081D01*
X22587Y156585D01*
X22471Y156000D01*
Y155018D01*
X21971Y154848D01*
X21760Y155122D01*
X20934Y155756D01*
X19973Y156154D01*
X18941Y156290D01*
X17909Y156154D01*
X16948Y155756D01*
X16122Y155122D01*
X15488Y154297D01*
X15090Y153335D01*
X14954Y152303D01*
X15090Y151271D01*
X15488Y150310D01*
X16122Y149484D01*
X16628Y149095D01*
X16675Y148914D01*
X16636Y148459D01*
X13394Y145216D01*
X12894Y145423D01*
Y146256D01*
X4988D01*
Y138350D01*
X11561D01*
X11752Y137889D01*
X5419Y131555D01*
X5087Y131058D01*
X4971Y130473D01*
Y114464D01*
X5087Y113879D01*
X5419Y113382D01*
X12939Y105862D01*
Y103595D01*
X8858D01*
Y99839D01*
Y96083D01*
X9002D01*
Y87650D01*
X9067Y87325D01*
X8723Y86825D01*
X8114D01*
Y83295D01*
X10817D01*
Y84548D01*
X11279Y84740D01*
X12183Y83835D01*
Y80697D01*
X12299Y80115D01*
X12629Y79621D01*
X13123Y79291D01*
X13705Y79176D01*
X16657D01*
X17002Y79244D01*
X17498Y79004D01*
X17577Y78915D01*
X17616Y78720D01*
X18058Y78058D01*
X18076Y78040D01*
X18071Y78028D01*
X17838Y77588D01*
X17728Y77615D01*
X17692Y77617D01*
X17660Y77630D01*
X17549Y77649D01*
X17529Y77649D01*
X17509Y77656D01*
X17395Y77671D01*
X17361Y77669D01*
X17328Y77678D01*
X17218Y77686D01*
X17199Y77684D01*
X17181Y77688D01*
X17067Y77692D01*
X17049Y77689D01*
X17031Y77693D01*
X14669D01*
X14652Y77689D01*
X14634Y77692D01*
X14520Y77688D01*
X14501Y77684D01*
X14482Y77686D01*
X14372Y77678D01*
X14340Y77669D01*
X14306Y77671D01*
X14191Y77656D01*
X14172Y77649D01*
X14151Y77649D01*
X14041Y77630D01*
X14008Y77617D01*
X13973Y77615D01*
X13863Y77588D01*
X13847Y77580D01*
X13830Y77579D01*
X13720Y77547D01*
X13685Y77529D01*
X13646Y77523D01*
X13540Y77484D01*
X13525Y77475D01*
X13509Y77472D01*
X13403Y77429D01*
X13383Y77416D01*
X13360Y77410D01*
X13258Y77363D01*
X13225Y77339D01*
X13187Y77327D01*
X13088Y77271D01*
X13077Y77261D01*
X13062Y77256D01*
X12964Y77197D01*
X12938Y77174D01*
X12906Y77160D01*
X12815Y77097D01*
X12795Y77076D01*
X12769Y77063D01*
X12679Y76992D01*
X12671Y76983D01*
X12662Y76978D01*
X12575Y76907D01*
X12550Y76877D01*
X12517Y76856D01*
X12435Y76778D01*
X12420Y76757D01*
X12399Y76743D01*
X12321Y76660D01*
X12300Y76627D01*
X12270Y76602D01*
X12199Y76516D01*
X12194Y76506D01*
X12185Y76499D01*
X12114Y76408D01*
X12101Y76382D01*
X12080Y76362D01*
X12017Y76271D01*
X12003Y76239D01*
X11980Y76214D01*
X11921Y76115D01*
X11916Y76100D01*
X11906Y76089D01*
X11851Y75990D01*
X11838Y75952D01*
X11814Y75919D01*
X11767Y75817D01*
X11762Y75794D01*
X11749Y75774D01*
X11705Y75668D01*
X11702Y75652D01*
X11693Y75638D01*
X11654Y75531D01*
X11648Y75492D01*
X11630Y75457D01*
X11598Y75347D01*
X11597Y75330D01*
X11590Y75314D01*
X11562Y75204D01*
X11560Y75169D01*
X11547Y75136D01*
X11528Y75026D01*
X11528Y75005D01*
X11522Y74986D01*
X11506Y74872D01*
X11508Y74838D01*
X11499Y74805D01*
X11491Y74695D01*
X11493Y74676D01*
X11489Y74657D01*
X11485Y74543D01*
X11491Y74508D01*
X11485Y74473D01*
X11489Y74359D01*
X11493Y74340D01*
X11491Y74321D01*
X11499Y74211D01*
X11508Y74178D01*
X11506Y74144D01*
X11522Y74030D01*
X11528Y74011D01*
X11528Y73990D01*
X11547Y73880D01*
X11560Y73847D01*
X11562Y73812D01*
X11590Y73702D01*
X11597Y73686D01*
X11598Y73669D01*
X11630Y73558D01*
X11648Y73523D01*
X11654Y73484D01*
X11693Y73378D01*
X11702Y73364D01*
X11705Y73348D01*
X11749Y73241D01*
X11762Y73222D01*
X11767Y73199D01*
X11814Y73096D01*
X11838Y73064D01*
X11851Y73025D01*
X11906Y72927D01*
X11916Y72915D01*
X11921Y72901D01*
X11980Y72802D01*
X12003Y72777D01*
X12017Y72745D01*
X12080Y72654D01*
X12101Y72634D01*
X12114Y72608D01*
X12185Y72517D01*
X12194Y72510D01*
X12199Y72500D01*
X12270Y72413D01*
X12300Y72389D01*
X12321Y72356D01*
X12399Y72273D01*
X12420Y72259D01*
X12435Y72238D01*
X12517Y72159D01*
X12550Y72139D01*
X12575Y72109D01*
X12662Y72038D01*
X12671Y72032D01*
X12679Y72024D01*
X12769Y71953D01*
X12795Y71940D01*
X12815Y71919D01*
X12906Y71856D01*
X12938Y71842D01*
X12964Y71819D01*
X13062Y71760D01*
X13077Y71754D01*
X13088Y71744D01*
X13187Y71689D01*
X13225Y71677D01*
X13258Y71653D01*
X13360Y71606D01*
X13383Y71600D01*
X13403Y71587D01*
X13509Y71544D01*
X13525Y71541D01*
X13540Y71532D01*
X13646Y71493D01*
X13685Y71487D01*
X13720Y71469D01*
X13830Y71437D01*
X13847Y71436D01*
X13863Y71428D01*
X13973Y71401D01*
X14008Y71399D01*
X14041Y71386D01*
X14152Y71366D01*
X14172Y71367D01*
X14191Y71360D01*
X14306Y71344D01*
X14340Y71346D01*
X14372Y71337D01*
X14482Y71329D01*
X14501Y71332D01*
X14520Y71328D01*
X14634Y71324D01*
X14652Y71326D01*
X14669Y71323D01*
X17031D01*
X17049Y71326D01*
X17067Y71324D01*
X17181Y71328D01*
X17199Y71332D01*
X17218Y71329D01*
X17328Y71337D01*
X17361Y71346D01*
X17395Y71344D01*
X17509Y71360D01*
X17529Y71367D01*
X17549Y71366D01*
X17660Y71386D01*
X17692Y71399D01*
X17728Y71401D01*
X17838Y71428D01*
X17853Y71436D01*
X17871Y71437D01*
X17981Y71469D01*
X18016Y71487D01*
X18055Y71493D01*
X18161Y71532D01*
X18175Y71541D01*
X18192Y71544D01*
X18298Y71587D01*
X18318Y71600D01*
X18341Y71606D01*
X18443Y71653D01*
X18476Y71677D01*
X18514Y71689D01*
X18612Y71744D01*
X18624Y71754D01*
X18639Y71759D01*
X18737Y71819D01*
X18763Y71842D01*
X18795Y71856D01*
X18886Y71919D01*
X18906Y71940D01*
X18932Y71953D01*
X19022Y72024D01*
X19029Y72032D01*
X19039Y72038D01*
X19126Y72109D01*
X19151Y72139D01*
X19184Y72159D01*
X19266Y72238D01*
X19281Y72259D01*
X19301Y72273D01*
X19380Y72356D01*
X19401Y72389D01*
X19431Y72413D01*
X19502Y72500D01*
X19507Y72510D01*
X19515Y72517D01*
X19586Y72608D01*
X19600Y72634D01*
X19620Y72654D01*
X19683Y72745D01*
X19697Y72776D01*
X19721Y72802D01*
X19780Y72901D01*
X19785Y72915D01*
X19795Y72927D01*
X19850Y73025D01*
X19852Y73030D01*
X19961Y73082D01*
X20456Y72788D01*
X20461Y72780D01*
Y71500D01*
X20616Y70720D01*
X21058Y70058D01*
X24646Y66470D01*
Y62279D01*
X32354D01*
Y63961D01*
X38961D01*
Y50500D01*
X39116Y49720D01*
X39558Y49058D01*
X53058Y35558D01*
X53720Y35116D01*
X54500Y34961D01*
X99496D01*
X100276Y35116D01*
X100938Y35558D01*
X108738Y43358D01*
X118504D01*
Y57642D01*
X107488D01*
Y47876D01*
X98651Y39039D01*
X55345D01*
X43039Y51345D01*
Y65259D01*
X43273Y65609D01*
X43428Y66389D01*
Y68544D01*
X48172Y73288D01*
X48697Y73183D01*
X53303D01*
X53885Y73299D01*
X54379Y73629D01*
X54709Y74123D01*
X54825Y74705D01*
Y77100D01*
X54830Y77127D01*
X55348Y77645D01*
X55790Y78307D01*
X55945Y79087D01*
X55945Y79087D01*
Y113061D01*
X58779Y115895D01*
X59241Y115703D01*
Y113570D01*
X58846Y113492D01*
X58102Y112994D01*
X57605Y112250D01*
X57430Y111372D01*
X57605Y110494D01*
X58102Y109750D01*
X58846Y109253D01*
X59621Y109099D01*
X59773Y109026D01*
X60132Y108649D01*
X60261Y108000D01*
X60448Y107721D01*
X60180Y107221D01*
X59634D01*
Y81599D01*
X82372D01*
X89660Y74311D01*
Y73943D01*
X89815Y73163D01*
X90257Y72501D01*
X98700Y64058D01*
X98700Y64058D01*
X99362Y63616D01*
X100142Y63461D01*
X100142Y63461D01*
X124159D01*
X133420Y54200D01*
X134082Y53758D01*
X134496Y53675D01*
Y43358D01*
X145512D01*
Y57642D01*
X136693D01*
X136496Y57681D01*
X135707D01*
X126446Y66942D01*
X125784Y67384D01*
X125004Y67539D01*
X100987D01*
X93738Y74788D01*
Y75156D01*
X93583Y75936D01*
X93141Y76598D01*
X85256Y84483D01*
Y87358D01*
X85756Y87625D01*
X86122Y87381D01*
X86747Y87256D01*
X87206Y87000D01*
X87381Y86122D01*
X87878Y85378D01*
X88622Y84881D01*
X89500Y84706D01*
X90378Y84881D01*
X91122Y85378D01*
X91619Y86122D01*
X91794Y87000D01*
X91619Y87878D01*
X91526Y88018D01*
X91586Y88165D01*
X92331Y88663D01*
X92828Y89407D01*
X93003Y90285D01*
X92828Y91163D01*
X92331Y91907D01*
X91586Y92404D01*
X90710Y92579D01*
X90794Y93000D01*
X90619Y93878D01*
X90122Y94622D01*
X89383Y95116D01*
X89270Y95196D01*
X89103Y95598D01*
X89119Y95622D01*
X89294Y96500D01*
X89119Y97378D01*
X89025Y97520D01*
X89260Y97961D01*
X95858D01*
Y92492D01*
X104197D01*
Y89854D01*
X102972D01*
Y82146D01*
X109500D01*
Y89854D01*
X108275D01*
Y92492D01*
X110142D01*
Y99157D01*
X110696D01*
X111477Y99312D01*
X112138Y99754D01*
X120442Y108058D01*
X120884Y108720D01*
X121039Y109500D01*
Y111182D01*
X121146Y111638D01*
X124199D01*
X129779Y106058D01*
X130440Y105616D01*
X131220Y105461D01*
X131220Y105461D01*
X151500D01*
X152280Y105616D01*
X152942Y106058D01*
X156442Y109558D01*
X156884Y110220D01*
X157039Y111000D01*
Y136328D01*
X156884Y137109D01*
X156442Y137770D01*
X156442Y137770D01*
X155270Y138942D01*
X154609Y139384D01*
X153828Y139539D01*
X152901D01*
X152280Y140161D01*
X152394Y140310D01*
X152792Y141271D01*
X152928Y142303D01*
X152792Y143335D01*
X152394Y144297D01*
X151760Y145122D01*
X150934Y145756D01*
X149973Y146154D01*
X148941Y146290D01*
X147909Y146154D01*
X146948Y145756D01*
X146492Y145406D01*
X145992Y145653D01*
Y146047D01*
X145837Y146828D01*
X145395Y147489D01*
X142446Y150437D01*
X142792Y151271D01*
X142928Y152303D01*
X142792Y153335D01*
X142394Y154297D01*
X141760Y155122D01*
X140934Y155756D01*
X139973Y156154D01*
X138941Y156290D01*
X137909Y156154D01*
X136948Y155756D01*
X136122Y155122D01*
X135488Y154297D01*
X135090Y153335D01*
X134954Y152303D01*
X135090Y151271D01*
X135488Y150310D01*
X136122Y149484D01*
X136948Y148850D01*
X137909Y148452D01*
X138778Y148338D01*
X140738Y146379D01*
X140454Y145955D01*
X139973Y146154D01*
X138941Y146290D01*
X137909Y146154D01*
X136948Y145756D01*
X136492Y145406D01*
X135992Y145653D01*
Y146047D01*
X135837Y146828D01*
X135395Y147489D01*
X132447Y150437D01*
X132792Y151271D01*
X132928Y152303D01*
X132792Y153335D01*
X132394Y154297D01*
X131760Y155122D01*
X130934Y155756D01*
X129973Y156154D01*
X128941Y156290D01*
X127909Y156154D01*
X126947Y155756D01*
X126122Y155122D01*
X125488Y154297D01*
X125090Y153335D01*
X124954Y152303D01*
X125090Y151271D01*
X125488Y150310D01*
X126122Y149484D01*
X126947Y148850D01*
X127909Y148452D01*
X128779Y148338D01*
X130738Y146379D01*
X130454Y145955D01*
X129973Y146154D01*
X128941Y146290D01*
X127909Y146154D01*
X126947Y145756D01*
X126267Y145234D01*
X126178Y145216D01*
X125789Y145267D01*
X125649Y145327D01*
X125336Y145797D01*
X122434Y148698D01*
X121965Y149011D01*
X121905Y149151D01*
X121854Y149540D01*
X121872Y149629D01*
X122394Y150310D01*
X122792Y151271D01*
X122928Y152303D01*
X122792Y153335D01*
X122394Y154297D01*
X121760Y155122D01*
X120934Y155756D01*
X119973Y156154D01*
X118941Y156290D01*
X117909Y156154D01*
X116947Y155756D01*
X116122Y155122D01*
X115488Y154297D01*
X115090Y153335D01*
X114954Y152303D01*
X115090Y151271D01*
X115488Y150310D01*
X115883Y149795D01*
X115637Y149295D01*
X112245D01*
X111999Y149795D01*
X112394Y150310D01*
X112792Y151271D01*
X112928Y152303D01*
X112792Y153335D01*
X112394Y154297D01*
X111760Y155122D01*
X110934Y155756D01*
X109973Y156154D01*
X108941Y156290D01*
X107909Y156154D01*
X106948Y155756D01*
X106122Y155122D01*
X105488Y154297D01*
X105090Y153335D01*
X104954Y152303D01*
X105090Y151271D01*
X105488Y150310D01*
X105883Y149795D01*
X105637Y149295D01*
X103589D01*
X102446Y150437D01*
X102792Y151271D01*
X102928Y152303D01*
X102792Y153335D01*
X102394Y154297D01*
X101760Y155122D01*
X100934Y155756D01*
X99973Y156154D01*
X98941Y156290D01*
X97909Y156154D01*
X96947Y155756D01*
X96122Y155122D01*
X95488Y154297D01*
X95090Y153335D01*
X94954Y152303D01*
X95090Y151271D01*
X95488Y150310D01*
X95774Y149937D01*
X94367Y148529D01*
X91337D01*
X91168Y149029D01*
X91760Y149484D01*
X92394Y150310D01*
X92792Y151271D01*
X92928Y152303D01*
X92792Y153335D01*
X92394Y154297D01*
X91760Y155122D01*
X90934Y155756D01*
X89973Y156154D01*
X88941Y156290D01*
X87909Y156154D01*
X86948Y155756D01*
X86642Y155521D01*
X83374Y158789D01*
X83081Y159081D01*
X82585Y159413D01*
X82349Y159460D01*
X82000Y159529D01*
D02*
G37*
G36*
X148941Y156290D02*
X147909Y156154D01*
X146948Y155756D01*
X146122Y155122D01*
X145488Y154297D01*
X145090Y153335D01*
X144954Y152303D01*
X145090Y151271D01*
X145488Y150310D01*
X146122Y149484D01*
X146948Y148850D01*
X147909Y148452D01*
X148941Y148316D01*
X149973Y148452D01*
X150934Y148850D01*
X151760Y149484D01*
X152394Y150310D01*
X152792Y151271D01*
X152928Y152303D01*
X152792Y153335D01*
X152394Y154297D01*
X151760Y155122D01*
X150934Y155756D01*
X149973Y156154D01*
X148941Y156290D01*
D02*
G37*
G36*
X8941D02*
X7909Y156154D01*
X6948Y155756D01*
X6122Y155122D01*
X5488Y154297D01*
X5090Y153335D01*
X4954Y152303D01*
X5090Y151271D01*
X5488Y150310D01*
X6122Y149484D01*
X6948Y148850D01*
X7909Y148452D01*
X8941Y148316D01*
X9973Y148452D01*
X10934Y148850D01*
X11760Y149484D01*
X12394Y150310D01*
X12792Y151271D01*
X12928Y152303D01*
X12792Y153335D01*
X12394Y154297D01*
X11760Y155122D01*
X10934Y155756D01*
X9973Y156154D01*
X8941Y156290D01*
D02*
G37*
G36*
X8268Y103595D02*
X6972D01*
Y100134D01*
X8268D01*
Y103595D01*
D02*
G37*
G36*
Y99543D02*
X6972D01*
Y96083D01*
X8268D01*
Y99543D01*
D02*
G37*
G36*
X116587Y89854D02*
X113618D01*
Y86295D01*
X116587D01*
Y89854D01*
D02*
G37*
G36*
X113028D02*
X110059D01*
Y86295D01*
X113028D01*
Y89854D01*
D02*
G37*
G36*
X155634Y96661D02*
X138295D01*
Y83957D01*
X155634D01*
Y96661D01*
D02*
G37*
G36*
X137705D02*
X120366D01*
Y83957D01*
X137705D01*
Y96661D01*
D02*
G37*
G36*
X7524Y86825D02*
X6342D01*
X5760Y86709D01*
X5267Y86379D01*
X4937Y85885D01*
X4821Y85303D01*
Y83295D01*
X7524D01*
Y86825D01*
D02*
G37*
G36*
X116587Y85705D02*
X113618D01*
Y82146D01*
X116587D01*
Y85705D01*
D02*
G37*
G36*
X113028D02*
X110059D01*
Y82146D01*
X113028D01*
Y85705D01*
D02*
G37*
G36*
X99000Y86294D02*
X98122Y86119D01*
X97378Y85622D01*
X96881Y84878D01*
X96706Y84000D01*
X96881Y83122D01*
X97378Y82378D01*
X98122Y81881D01*
X99000Y81706D01*
X99878Y81881D01*
X100622Y82378D01*
X101119Y83122D01*
X101294Y84000D01*
X101119Y84878D01*
X100622Y85622D01*
X99878Y86119D01*
X99000Y86294D01*
D02*
G37*
G36*
X10817Y82705D02*
X8114D01*
Y79176D01*
X9295D01*
X9877Y79291D01*
X10371Y79621D01*
X10701Y80115D01*
X10817Y80697D01*
Y82705D01*
D02*
G37*
G36*
X7524D02*
X4821D01*
Y80697D01*
X4937Y80115D01*
X5267Y79621D01*
X5760Y79291D01*
X6342Y79176D01*
X7524D01*
Y82705D01*
D02*
G37*
G36*
X96194Y79599D02*
X95317Y79425D01*
X94572Y78928D01*
X94075Y78183D01*
X93901Y77306D01*
X94075Y76428D01*
X94572Y75683D01*
X95317Y75186D01*
X96194Y75011D01*
X97072Y75186D01*
X97817Y75683D01*
X98314Y76428D01*
X98489Y77306D01*
X98314Y78183D01*
X97817Y78928D01*
X97072Y79425D01*
X96194Y79599D01*
D02*
G37*
G36*
X155634Y83366D02*
X138295D01*
Y70661D01*
X155634D01*
Y83366D01*
D02*
G37*
G36*
X137705D02*
X120366D01*
Y70661D01*
X137705D01*
Y83366D01*
D02*
G37*
G36*
X74700Y74858D02*
X73725Y74664D01*
X72898Y74111D01*
X72345Y73284D01*
X72151Y72309D01*
X72345Y71333D01*
X72898Y70506D01*
X73725Y69954D01*
X74700Y69760D01*
X75676Y69954D01*
X76503Y70506D01*
X77055Y71333D01*
X77249Y72309D01*
X77055Y73284D01*
X76503Y74111D01*
X75676Y74664D01*
X74700Y74858D01*
D02*
G37*
G36*
X53303Y71817D02*
X51295D01*
Y69114D01*
X54825D01*
Y70295D01*
X54709Y70877D01*
X54379Y71371D01*
X53885Y71701D01*
X53303Y71817D01*
D02*
G37*
G36*
X50705D02*
X48697D01*
X48115Y71701D01*
X47621Y71371D01*
X47291Y70877D01*
X47175Y70295D01*
Y69114D01*
X50705D01*
Y71817D01*
D02*
G37*
G36*
X54825Y68524D02*
X51295D01*
Y65821D01*
X53303D01*
X53885Y65937D01*
X54379Y66267D01*
X54709Y66760D01*
X54825Y67343D01*
Y68524D01*
D02*
G37*
G36*
X50705D02*
X47175D01*
Y67343D01*
X47291Y66760D01*
X47621Y66267D01*
X48115Y65937D01*
X48697Y65821D01*
X50705D01*
Y68524D01*
D02*
G37*
G36*
X64250Y68044D02*
X63372Y67869D01*
X62628Y67372D01*
X62131Y66628D01*
X61956Y65750D01*
X62131Y64872D01*
X62628Y64128D01*
X63372Y63631D01*
X64250Y63456D01*
X65128Y63631D01*
X65872Y64128D01*
X66369Y64872D01*
X66544Y65750D01*
X66369Y66628D01*
X65872Y67372D01*
X65128Y67869D01*
X64250Y68044D01*
D02*
G37*
G36*
X58444Y65850D02*
X57567Y65675D01*
X56822Y65178D01*
X56325Y64433D01*
X56151Y63556D01*
X56325Y62678D01*
X56822Y61933D01*
X57567Y61436D01*
X58444Y61261D01*
X59323Y61436D01*
X60067Y61933D01*
X60564Y62678D01*
X60739Y63556D01*
X60564Y64433D01*
X60067Y65178D01*
X59323Y65675D01*
X58444Y65850D01*
D02*
G37*
G36*
X32354Y61721D02*
X28795D01*
Y58752D01*
X32354D01*
Y61721D01*
D02*
G37*
G36*
X28205D02*
X24646D01*
Y58752D01*
X28205D01*
Y61721D01*
D02*
G37*
G36*
X32354Y58161D02*
X28795D01*
Y55193D01*
X32354D01*
Y58161D01*
D02*
G37*
G36*
X28205D02*
X24646D01*
Y55193D01*
X28205D01*
Y58161D01*
D02*
G37*
G36*
X54511Y57306D02*
X53634Y57131D01*
X52889Y56634D01*
X52392Y55889D01*
X52217Y55011D01*
X52392Y54134D01*
X52889Y53389D01*
X53634Y52892D01*
X54511Y52717D01*
X55389Y52892D01*
X56134Y53389D01*
X56635Y53241D01*
X56878Y52878D01*
X57622Y52381D01*
X58500Y52206D01*
X59378Y52381D01*
X60122Y52878D01*
X60619Y53622D01*
X60794Y54500D01*
X60619Y55378D01*
X60122Y56122D01*
X59378Y56619D01*
X58500Y56794D01*
X57622Y56619D01*
X56878Y56122D01*
X56376Y56271D01*
X56134Y56634D01*
X55389Y57131D01*
X54511Y57306D01*
D02*
G37*
G36*
X83606Y57508D02*
X82828Y57406D01*
X82102Y57105D01*
X81479Y56627D01*
X81001Y56004D01*
X80701Y55278D01*
X80598Y54500D01*
X80701Y53721D01*
X81001Y52996D01*
X81479Y52373D01*
X82102Y51895D01*
X82828Y51595D01*
X83606Y51492D01*
X84385Y51595D01*
X85110Y51895D01*
X85733Y52373D01*
X86211Y52996D01*
X86512Y53721D01*
X86614Y54500D01*
X86512Y55278D01*
X86211Y56004D01*
X85733Y56627D01*
X85110Y57105D01*
X84385Y57406D01*
X83606Y57508D01*
D02*
G37*
G36*
X64394D02*
X63615Y57406D01*
X62890Y57105D01*
X62267Y56627D01*
X61789Y56004D01*
X61488Y55278D01*
X61386Y54500D01*
X61488Y53721D01*
X61789Y52996D01*
X62267Y52373D01*
X62890Y51895D01*
X63615Y51595D01*
X64394Y51492D01*
X65172Y51595D01*
X65898Y51895D01*
X66521Y52373D01*
X66999Y52996D01*
X67299Y53721D01*
X67402Y54500D01*
X67299Y55278D01*
X66999Y56004D01*
X66521Y56627D01*
X65898Y57105D01*
X65172Y57406D01*
X64394Y57508D01*
D02*
G37*
G36*
X31992Y43677D02*
X29630D01*
X29612Y43674D01*
X29595Y43676D01*
X29481Y43672D01*
X29462Y43668D01*
X29443Y43670D01*
X29333Y43663D01*
X29300Y43654D01*
X29266Y43656D01*
X29152Y43640D01*
X29133Y43633D01*
X29112Y43634D01*
X29002Y43614D01*
X28969Y43601D01*
X28934Y43599D01*
X28824Y43572D01*
X28808Y43564D01*
X28791Y43563D01*
X28681Y43532D01*
X28645Y43514D01*
X28607Y43507D01*
X28500Y43468D01*
X28486Y43459D01*
X28470Y43456D01*
X28363Y43413D01*
X28344Y43400D01*
X28321Y43394D01*
X28218Y43347D01*
X28186Y43323D01*
X28148Y43311D01*
X28049Y43256D01*
X28037Y43246D01*
X28023Y43240D01*
X27924Y43181D01*
X27898Y43158D01*
X27867Y43144D01*
X27776Y43081D01*
X27756Y43060D01*
X27730Y43047D01*
X27639Y42976D01*
X27632Y42968D01*
X27622Y42962D01*
X27536Y42891D01*
X27511Y42862D01*
X27478Y42841D01*
X27395Y42762D01*
X27381Y42741D01*
X27360Y42727D01*
X27281Y42644D01*
X27261Y42611D01*
X27231Y42587D01*
X27160Y42500D01*
X27154Y42490D01*
X27146Y42483D01*
X27075Y42392D01*
X27062Y42366D01*
X27041Y42346D01*
X26978Y42255D01*
X26964Y42224D01*
X26941Y42198D01*
X26882Y42099D01*
X26876Y42085D01*
X26866Y42073D01*
X26811Y41975D01*
X26799Y41936D01*
X26775Y41904D01*
X26728Y41801D01*
X26722Y41778D01*
X26709Y41759D01*
X26666Y41652D01*
X26663Y41636D01*
X26654Y41622D01*
X26615Y41515D01*
X26608Y41477D01*
X26590Y41442D01*
X26559Y41331D01*
X26558Y41314D01*
X26550Y41298D01*
X26523Y41188D01*
X26521Y41153D01*
X26508Y41120D01*
X26488Y41010D01*
X26489Y40989D01*
X26482Y40970D01*
X26466Y40856D01*
X26468Y40822D01*
X26459Y40789D01*
X26452Y40679D01*
X26454Y40660D01*
X26449Y40641D01*
X26446Y40527D01*
X26451Y40492D01*
X26446Y40457D01*
X26449Y40343D01*
X26454Y40324D01*
X26452Y40305D01*
X26459Y40195D01*
X26468Y40162D01*
X26466Y40128D01*
X26482Y40014D01*
X26489Y39995D01*
X26488Y39974D01*
X26508Y39864D01*
X26521Y39831D01*
X26523Y39796D01*
X26550Y39686D01*
X26558Y39670D01*
X26559Y39653D01*
X26590Y39543D01*
X26608Y39508D01*
X26615Y39469D01*
X26654Y39362D01*
X26663Y39348D01*
X26666Y39332D01*
X26709Y39226D01*
X26722Y39206D01*
X26728Y39183D01*
X26775Y39081D01*
X26799Y39048D01*
X26811Y39010D01*
X26866Y38911D01*
X26876Y38899D01*
X26882Y38885D01*
X26941Y38787D01*
X26964Y38761D01*
X26978Y38729D01*
X27041Y38638D01*
X27062Y38618D01*
X27075Y38592D01*
X27146Y38502D01*
X27154Y38494D01*
X27160Y38484D01*
X27231Y38398D01*
X27261Y38373D01*
X27281Y38340D01*
X27360Y38258D01*
X27381Y38243D01*
X27395Y38222D01*
X27478Y38144D01*
X27511Y38123D01*
X27536Y38093D01*
X27622Y38022D01*
X27632Y38017D01*
X27639Y38008D01*
X27730Y37937D01*
X27756Y37924D01*
X27776Y37903D01*
X27867Y37840D01*
X27898Y37826D01*
X27924Y37803D01*
X28023Y37744D01*
X28037Y37739D01*
X28049Y37729D01*
X28148Y37673D01*
X28186Y37661D01*
X28218Y37637D01*
X28321Y37590D01*
X28344Y37584D01*
X28363Y37571D01*
X28470Y37528D01*
X28486Y37525D01*
X28500Y37516D01*
X28607Y37477D01*
X28646Y37471D01*
X28681Y37453D01*
X28791Y37421D01*
X28808Y37420D01*
X28824Y37412D01*
X28934Y37385D01*
X28969Y37383D01*
X29002Y37370D01*
X29112Y37351D01*
X29133Y37351D01*
X29152Y37344D01*
X29266Y37329D01*
X29300Y37331D01*
X29333Y37322D01*
X29443Y37314D01*
X29462Y37316D01*
X29481Y37312D01*
X29595Y37308D01*
X29612Y37311D01*
X29630Y37307D01*
X31992D01*
X32010Y37311D01*
X32027Y37308D01*
X32142Y37312D01*
X32160Y37316D01*
X32179Y37314D01*
X32289Y37322D01*
X32322Y37331D01*
X32356Y37329D01*
X32470Y37344D01*
X32489Y37351D01*
X32510Y37351D01*
X32620Y37370D01*
X32653Y37383D01*
X32688Y37385D01*
X32798Y37412D01*
X32814Y37420D01*
X32831Y37421D01*
X32942Y37453D01*
X32977Y37471D01*
X33015Y37477D01*
X33122Y37516D01*
X33136Y37525D01*
X33152Y37528D01*
X33259Y37571D01*
X33278Y37584D01*
X33301Y37590D01*
X33404Y37637D01*
X33436Y37661D01*
X33475Y37673D01*
X33573Y37729D01*
X33585Y37739D01*
X33599Y37744D01*
X33698Y37803D01*
X33724Y37826D01*
X33755Y37840D01*
X33846Y37903D01*
X33866Y37924D01*
X33892Y37937D01*
X33983Y38008D01*
X33990Y38017D01*
X34000Y38022D01*
X34087Y38093D01*
X34111Y38123D01*
X34144Y38144D01*
X34227Y38222D01*
X34241Y38243D01*
X34262Y38258D01*
X34341Y38340D01*
X34361Y38373D01*
X34391Y38398D01*
X34462Y38484D01*
X34468Y38494D01*
X34476Y38502D01*
X34547Y38592D01*
X34560Y38618D01*
X34581Y38638D01*
X34644Y38729D01*
X34658Y38761D01*
X34681Y38787D01*
X34740Y38885D01*
X34746Y38899D01*
X34756Y38911D01*
X34811Y39010D01*
X34823Y39048D01*
X34847Y39081D01*
X34894Y39183D01*
X34900Y39206D01*
X34913Y39226D01*
X34956Y39332D01*
X34959Y39348D01*
X34968Y39362D01*
X35007Y39469D01*
X35013Y39508D01*
X35032Y39543D01*
X35063Y39653D01*
X35064Y39670D01*
X35072Y39686D01*
X35099Y39796D01*
X35101Y39831D01*
X35114Y39864D01*
X35134Y39974D01*
X35133Y39995D01*
X35140Y40014D01*
X35156Y40128D01*
X35154Y40162D01*
X35163Y40195D01*
X35171Y40305D01*
X35168Y40324D01*
X35173Y40343D01*
X35177Y40457D01*
X35171Y40492D01*
X35177Y40527D01*
X35173Y40641D01*
X35168Y40660D01*
X35171Y40679D01*
X35163Y40789D01*
X35154Y40822D01*
X35156Y40856D01*
X35140Y40970D01*
X35133Y40989D01*
X35134Y41010D01*
X35114Y41120D01*
X35101Y41153D01*
X35099Y41188D01*
X35072Y41298D01*
X35064Y41314D01*
X35063Y41331D01*
X35032Y41442D01*
X35013Y41477D01*
X35007Y41515D01*
X34968Y41622D01*
X34959Y41636D01*
X34956Y41652D01*
X34913Y41759D01*
X34900Y41778D01*
X34894Y41801D01*
X34847Y41904D01*
X34823Y41936D01*
X34811Y41975D01*
X34756Y42073D01*
X34746Y42085D01*
X34740Y42099D01*
X34681Y42198D01*
X34658Y42224D01*
X34644Y42255D01*
X34581Y42346D01*
X34560Y42366D01*
X34547Y42392D01*
X34476Y42483D01*
X34468Y42490D01*
X34462Y42500D01*
X34391Y42587D01*
X34361Y42611D01*
X34341Y42644D01*
X34262Y42727D01*
X34241Y42741D01*
X34227Y42762D01*
X34144Y42841D01*
X34111Y42862D01*
X34087Y42891D01*
X34000Y42962D01*
X33990Y42968D01*
X33983Y42976D01*
X33892Y43047D01*
X33866Y43060D01*
X33846Y43081D01*
X33755Y43144D01*
X33724Y43158D01*
X33698Y43181D01*
X33599Y43240D01*
X33585Y43246D01*
X33573Y43256D01*
X33475Y43311D01*
X33436Y43323D01*
X33404Y43347D01*
X33301Y43394D01*
X33278Y43400D01*
X33259Y43413D01*
X33152Y43456D01*
X33136Y43459D01*
X33122Y43468D01*
X33015Y43507D01*
X32977Y43514D01*
X32941Y43532D01*
X32831Y43563D01*
X32814Y43564D01*
X32798Y43572D01*
X32688Y43599D01*
X32653Y43601D01*
X32620Y43614D01*
X32510Y43634D01*
X32489Y43633D01*
X32470Y43640D01*
X32356Y43656D01*
X32322Y43654D01*
X32289Y43663D01*
X32179Y43670D01*
X32160Y43668D01*
X32142Y43672D01*
X32027Y43676D01*
X32010Y43674D01*
X31992Y43677D01*
D02*
G37*
G36*
X17031D02*
X14669D01*
X14652Y43674D01*
X14634Y43676D01*
X14520Y43672D01*
X14501Y43668D01*
X14482Y43670D01*
X14372Y43663D01*
X14340Y43654D01*
X14306Y43656D01*
X14191Y43640D01*
X14172Y43633D01*
X14152Y43634D01*
X14041Y43614D01*
X14008Y43601D01*
X13973Y43599D01*
X13863Y43572D01*
X13847Y43564D01*
X13830Y43563D01*
X13720Y43532D01*
X13685Y43514D01*
X13646Y43507D01*
X13540Y43468D01*
X13525Y43459D01*
X13509Y43456D01*
X13403Y43413D01*
X13383Y43400D01*
X13360Y43394D01*
X13258Y43347D01*
X13225Y43323D01*
X13187Y43311D01*
X13088Y43256D01*
X13077Y43246D01*
X13062Y43240D01*
X12964Y43181D01*
X12938Y43158D01*
X12906Y43144D01*
X12815Y43081D01*
X12795Y43060D01*
X12769Y43047D01*
X12679Y42976D01*
X12671Y42968D01*
X12662Y42962D01*
X12575Y42891D01*
X12550Y42862D01*
X12517Y42841D01*
X12435Y42762D01*
X12420Y42741D01*
X12399Y42727D01*
X12321Y42644D01*
X12300Y42611D01*
X12270Y42587D01*
X12199Y42500D01*
X12194Y42490D01*
X12185Y42483D01*
X12114Y42392D01*
X12101Y42366D01*
X12080Y42346D01*
X12017Y42255D01*
X12003Y42224D01*
X11980Y42198D01*
X11921Y42099D01*
X11916Y42085D01*
X11906Y42073D01*
X11851Y41975D01*
X11838Y41936D01*
X11814Y41904D01*
X11767Y41801D01*
X11762Y41778D01*
X11749Y41759D01*
X11705Y41652D01*
X11702Y41636D01*
X11693Y41622D01*
X11654Y41515D01*
X11648Y41477D01*
X11630Y41442D01*
X11598Y41331D01*
X11597Y41314D01*
X11590Y41298D01*
X11562Y41188D01*
X11560Y41153D01*
X11547Y41120D01*
X11528Y41010D01*
X11528Y40989D01*
X11522Y40970D01*
X11506Y40856D01*
X11508Y40822D01*
X11499Y40789D01*
X11491Y40679D01*
X11493Y40660D01*
X11489Y40641D01*
X11485Y40527D01*
X11491Y40492D01*
X11485Y40457D01*
X11489Y40343D01*
X11493Y40324D01*
X11491Y40305D01*
X11499Y40195D01*
X11508Y40162D01*
X11506Y40128D01*
X11522Y40014D01*
X11528Y39995D01*
X11528Y39974D01*
X11547Y39864D01*
X11560Y39831D01*
X11562Y39796D01*
X11590Y39686D01*
X11597Y39670D01*
X11598Y39653D01*
X11630Y39543D01*
X11648Y39508D01*
X11654Y39469D01*
X11693Y39362D01*
X11702Y39348D01*
X11705Y39332D01*
X11749Y39226D01*
X11762Y39206D01*
X11767Y39183D01*
X11814Y39081D01*
X11838Y39048D01*
X11851Y39010D01*
X11906Y38911D01*
X11916Y38899D01*
X11921Y38885D01*
X11980Y38787D01*
X12003Y38761D01*
X12017Y38729D01*
X12080Y38638D01*
X12101Y38618D01*
X12114Y38592D01*
X12185Y38502D01*
X12194Y38494D01*
X12199Y38484D01*
X12270Y38398D01*
X12300Y38373D01*
X12321Y38340D01*
X12399Y38258D01*
X12420Y38243D01*
X12435Y38222D01*
X12517Y38144D01*
X12550Y38123D01*
X12575Y38093D01*
X12662Y38022D01*
X12671Y38017D01*
X12679Y38008D01*
X12769Y37937D01*
X12795Y37924D01*
X12815Y37903D01*
X12906Y37840D01*
X12938Y37826D01*
X12964Y37803D01*
X13062Y37744D01*
X13077Y37739D01*
X13088Y37729D01*
X13187Y37673D01*
X13225Y37661D01*
X13258Y37637D01*
X13360Y37590D01*
X13383Y37584D01*
X13403Y37571D01*
X13509Y37528D01*
X13525Y37525D01*
X13540Y37516D01*
X13646Y37477D01*
X13685Y37471D01*
X13720Y37453D01*
X13830Y37421D01*
X13847Y37420D01*
X13863Y37412D01*
X13973Y37385D01*
X14008Y37383D01*
X14041Y37370D01*
X14151Y37351D01*
X14172Y37351D01*
X14191Y37344D01*
X14306Y37329D01*
X14340Y37331D01*
X14372Y37322D01*
X14482Y37314D01*
X14501Y37316D01*
X14520Y37312D01*
X14634Y37308D01*
X14652Y37311D01*
X14669Y37307D01*
X17031D01*
X17049Y37311D01*
X17067Y37308D01*
X17181Y37312D01*
X17199Y37316D01*
X17218Y37314D01*
X17328Y37322D01*
X17361Y37331D01*
X17395Y37329D01*
X17509Y37344D01*
X17529Y37351D01*
X17549Y37351D01*
X17660Y37370D01*
X17692Y37383D01*
X17728Y37385D01*
X17838Y37412D01*
X17853Y37420D01*
X17871Y37421D01*
X17981Y37453D01*
X18016Y37471D01*
X18055Y37477D01*
X18161Y37516D01*
X18175Y37525D01*
X18192Y37528D01*
X18298Y37571D01*
X18318Y37584D01*
X18341Y37590D01*
X18443Y37637D01*
X18476Y37661D01*
X18514Y37673D01*
X18612Y37729D01*
X18624Y37739D01*
X18639Y37744D01*
X18737Y37803D01*
X18763Y37826D01*
X18795Y37840D01*
X18885Y37903D01*
X18906Y37924D01*
X18932Y37937D01*
X19022Y38008D01*
X19029Y38017D01*
X19039Y38022D01*
X19126Y38093D01*
X19151Y38123D01*
X19184Y38144D01*
X19266Y38222D01*
X19281Y38243D01*
X19301Y38258D01*
X19380Y38340D01*
X19401Y38373D01*
X19431Y38398D01*
X19502Y38484D01*
X19507Y38494D01*
X19515Y38502D01*
X19586Y38592D01*
X19600Y38618D01*
X19620Y38638D01*
X19683Y38729D01*
X19697Y38761D01*
X19721Y38787D01*
X19780Y38885D01*
X19785Y38899D01*
X19795Y38911D01*
X19850Y39010D01*
X19863Y39048D01*
X19886Y39081D01*
X19934Y39183D01*
X19939Y39206D01*
X19952Y39226D01*
X19995Y39332D01*
X19999Y39348D01*
X20007Y39362D01*
X20047Y39469D01*
X20053Y39508D01*
X20071Y39543D01*
X20102Y39653D01*
X20104Y39670D01*
X20111Y39686D01*
X20139Y39796D01*
X20141Y39831D01*
X20153Y39864D01*
X20173Y39974D01*
X20173Y39995D01*
X20179Y40014D01*
X20195Y40128D01*
X20193Y40162D01*
X20202Y40195D01*
X20210Y40305D01*
X20208Y40324D01*
X20212Y40343D01*
X20216Y40457D01*
X20210Y40492D01*
X20216Y40527D01*
X20212Y40641D01*
X20208Y40660D01*
X20210Y40679D01*
X20202Y40789D01*
X20193Y40822D01*
X20195Y40856D01*
X20179Y40970D01*
X20173Y40989D01*
X20173Y41010D01*
X20153Y41120D01*
X20141Y41153D01*
X20139Y41188D01*
X20111Y41298D01*
X20104Y41314D01*
X20102Y41331D01*
X20071Y41442D01*
X20053Y41477D01*
X20047Y41515D01*
X20007Y41622D01*
X19999Y41636D01*
X19995Y41652D01*
X19952Y41759D01*
X19939Y41778D01*
X19934Y41801D01*
X19886Y41904D01*
X19863Y41936D01*
X19850Y41975D01*
X19795Y42073D01*
X19785Y42085D01*
X19780Y42099D01*
X19721Y42198D01*
X19697Y42224D01*
X19683Y42255D01*
X19620Y42346D01*
X19600Y42366D01*
X19586Y42392D01*
X19515Y42483D01*
X19507Y42490D01*
X19502Y42500D01*
X19431Y42587D01*
X19401Y42611D01*
X19380Y42644D01*
X19301Y42727D01*
X19281Y42741D01*
X19266Y42762D01*
X19184Y42841D01*
X19151Y42862D01*
X19126Y42891D01*
X19039Y42962D01*
X19029Y42968D01*
X19022Y42976D01*
X18932Y43047D01*
X18906Y43060D01*
X18886Y43081D01*
X18795Y43144D01*
X18763Y43158D01*
X18737Y43181D01*
X18639Y43240D01*
X18624Y43246D01*
X18612Y43256D01*
X18514Y43311D01*
X18476Y43323D01*
X18443Y43347D01*
X18341Y43394D01*
X18318Y43400D01*
X18298Y43413D01*
X18192Y43456D01*
X18175Y43459D01*
X18161Y43468D01*
X18055Y43507D01*
X18016Y43514D01*
X17981Y43532D01*
X17871Y43563D01*
X17853Y43564D01*
X17838Y43572D01*
X17728Y43599D01*
X17692Y43601D01*
X17660Y43614D01*
X17549Y43634D01*
X17529Y43633D01*
X17509Y43640D01*
X17395Y43656D01*
X17361Y43654D01*
X17328Y43663D01*
X17218Y43670D01*
X17199Y43668D01*
X17181Y43672D01*
X17067Y43676D01*
X17049Y43674D01*
X17031Y43677D01*
D02*
G37*
G36*
X152894Y26335D02*
X144988D01*
Y18429D01*
X152894D01*
Y26335D01*
D02*
G37*
G36*
X138941Y26369D02*
X137909Y26233D01*
X136948Y25835D01*
X136122Y25201D01*
X135488Y24375D01*
X135090Y23414D01*
X134954Y22382D01*
X135090Y21350D01*
X135488Y20389D01*
X136122Y19563D01*
X136948Y18929D01*
X137909Y18531D01*
X138941Y18395D01*
X139973Y18531D01*
X140934Y18929D01*
X141760Y19563D01*
X142394Y20389D01*
X142792Y21350D01*
X142928Y22382D01*
X142792Y23414D01*
X142394Y24375D01*
X141760Y25201D01*
X140934Y25835D01*
X139973Y26233D01*
X138941Y26369D01*
D02*
G37*
G36*
X128941D02*
X127909Y26233D01*
X126947Y25835D01*
X126122Y25201D01*
X125488Y24375D01*
X125090Y23414D01*
X124954Y22382D01*
X125090Y21350D01*
X125488Y20389D01*
X126122Y19563D01*
X126947Y18929D01*
X127909Y18531D01*
X128941Y18395D01*
X129973Y18531D01*
X130934Y18929D01*
X131760Y19563D01*
X132394Y20389D01*
X132792Y21350D01*
X132928Y22382D01*
X132792Y23414D01*
X132394Y24375D01*
X131760Y25201D01*
X130934Y25835D01*
X129973Y26233D01*
X128941Y26369D01*
D02*
G37*
G36*
X118941D02*
X117909Y26233D01*
X116947Y25835D01*
X116122Y25201D01*
X115488Y24375D01*
X115090Y23414D01*
X114954Y22382D01*
X115090Y21350D01*
X115488Y20389D01*
X116122Y19563D01*
X116947Y18929D01*
X117909Y18531D01*
X118941Y18395D01*
X119973Y18531D01*
X120934Y18929D01*
X121760Y19563D01*
X122394Y20389D01*
X122792Y21350D01*
X122928Y22382D01*
X122792Y23414D01*
X122394Y24375D01*
X121760Y25201D01*
X120934Y25835D01*
X119973Y26233D01*
X118941Y26369D01*
D02*
G37*
G36*
X108941D02*
X107909Y26233D01*
X106948Y25835D01*
X106122Y25201D01*
X105488Y24375D01*
X105090Y23414D01*
X104954Y22382D01*
X105090Y21350D01*
X105488Y20389D01*
X106122Y19563D01*
X106948Y18929D01*
X107909Y18531D01*
X108941Y18395D01*
X109973Y18531D01*
X110934Y18929D01*
X111760Y19563D01*
X112394Y20389D01*
X112792Y21350D01*
X112928Y22382D01*
X112792Y23414D01*
X112394Y24375D01*
X111760Y25201D01*
X110934Y25835D01*
X109973Y26233D01*
X108941Y26369D01*
D02*
G37*
G36*
X98941D02*
X97909Y26233D01*
X96947Y25835D01*
X96122Y25201D01*
X95488Y24375D01*
X95090Y23414D01*
X94954Y22382D01*
X95090Y21350D01*
X95488Y20389D01*
X96122Y19563D01*
X96947Y18929D01*
X97909Y18531D01*
X98941Y18395D01*
X99973Y18531D01*
X100934Y18929D01*
X101760Y19563D01*
X102394Y20389D01*
X102792Y21350D01*
X102928Y22382D01*
X102792Y23414D01*
X102394Y24375D01*
X101760Y25201D01*
X100934Y25835D01*
X99973Y26233D01*
X98941Y26369D01*
D02*
G37*
G36*
X88941D02*
X87909Y26233D01*
X86948Y25835D01*
X86122Y25201D01*
X85488Y24375D01*
X85090Y23414D01*
X84954Y22382D01*
X85090Y21350D01*
X85488Y20389D01*
X86122Y19563D01*
X86948Y18929D01*
X87909Y18531D01*
X88941Y18395D01*
X89973Y18531D01*
X90934Y18929D01*
X91760Y19563D01*
X92394Y20389D01*
X92792Y21350D01*
X92928Y22382D01*
X92792Y23414D01*
X92394Y24375D01*
X91760Y25201D01*
X90934Y25835D01*
X89973Y26233D01*
X88941Y26369D01*
D02*
G37*
G36*
X78941D02*
X77909Y26233D01*
X76947Y25835D01*
X76122Y25201D01*
X75488Y24375D01*
X75090Y23414D01*
X74954Y22382D01*
X75090Y21350D01*
X75488Y20389D01*
X76122Y19563D01*
X76947Y18929D01*
X77909Y18531D01*
X78941Y18395D01*
X79973Y18531D01*
X80934Y18929D01*
X81760Y19563D01*
X82394Y20389D01*
X82792Y21350D01*
X82928Y22382D01*
X82792Y23414D01*
X82394Y24375D01*
X81760Y25201D01*
X80934Y25835D01*
X79973Y26233D01*
X78941Y26369D01*
D02*
G37*
G36*
X68941D02*
X67909Y26233D01*
X66948Y25835D01*
X66122Y25201D01*
X65488Y24375D01*
X65090Y23414D01*
X64954Y22382D01*
X65090Y21350D01*
X65488Y20389D01*
X66122Y19563D01*
X66948Y18929D01*
X67909Y18531D01*
X68941Y18395D01*
X69973Y18531D01*
X70934Y18929D01*
X71760Y19563D01*
X72394Y20389D01*
X72792Y21350D01*
X72928Y22382D01*
X72792Y23414D01*
X72394Y24375D01*
X71760Y25201D01*
X70934Y25835D01*
X69973Y26233D01*
X68941Y26369D01*
D02*
G37*
G36*
X58941D02*
X57909Y26233D01*
X56947Y25835D01*
X56122Y25201D01*
X55488Y24375D01*
X55090Y23414D01*
X54954Y22382D01*
X55090Y21350D01*
X55488Y20389D01*
X56122Y19563D01*
X56947Y18929D01*
X57909Y18531D01*
X58941Y18395D01*
X59973Y18531D01*
X60934Y18929D01*
X61760Y19563D01*
X62394Y20389D01*
X62792Y21350D01*
X62928Y22382D01*
X62792Y23414D01*
X62394Y24375D01*
X61760Y25201D01*
X60934Y25835D01*
X59973Y26233D01*
X58941Y26369D01*
D02*
G37*
G36*
X48941D02*
X47909Y26233D01*
X46948Y25835D01*
X46122Y25201D01*
X45488Y24375D01*
X45090Y23414D01*
X44954Y22382D01*
X45090Y21350D01*
X45488Y20389D01*
X46122Y19563D01*
X46948Y18929D01*
X47909Y18531D01*
X48941Y18395D01*
X49973Y18531D01*
X50934Y18929D01*
X51760Y19563D01*
X52394Y20389D01*
X52792Y21350D01*
X52928Y22382D01*
X52792Y23414D01*
X52394Y24375D01*
X51760Y25201D01*
X50934Y25835D01*
X49973Y26233D01*
X48941Y26369D01*
D02*
G37*
G36*
X38941D02*
X37909Y26233D01*
X36948Y25835D01*
X36122Y25201D01*
X35488Y24375D01*
X35090Y23414D01*
X34954Y22382D01*
X35090Y21350D01*
X35488Y20389D01*
X36122Y19563D01*
X36948Y18929D01*
X37909Y18531D01*
X38941Y18395D01*
X39973Y18531D01*
X40934Y18929D01*
X41760Y19563D01*
X42394Y20389D01*
X42792Y21350D01*
X42928Y22382D01*
X42792Y23414D01*
X42394Y24375D01*
X41760Y25201D01*
X40934Y25835D01*
X39973Y26233D01*
X38941Y26369D01*
D02*
G37*
G36*
X28941D02*
X27909Y26233D01*
X26948Y25835D01*
X26122Y25201D01*
X25488Y24375D01*
X25090Y23414D01*
X24954Y22382D01*
X25090Y21350D01*
X25488Y20389D01*
X26122Y19563D01*
X26948Y18929D01*
X27909Y18531D01*
X28941Y18395D01*
X29973Y18531D01*
X30934Y18929D01*
X31760Y19563D01*
X32394Y20389D01*
X32792Y21350D01*
X32928Y22382D01*
X32792Y23414D01*
X32394Y24375D01*
X31760Y25201D01*
X30934Y25835D01*
X29973Y26233D01*
X28941Y26369D01*
D02*
G37*
G36*
X18941D02*
X17909Y26233D01*
X16948Y25835D01*
X16122Y25201D01*
X15488Y24375D01*
X15090Y23414D01*
X14954Y22382D01*
X15090Y21350D01*
X15488Y20389D01*
X16122Y19563D01*
X16948Y18929D01*
X17909Y18531D01*
X18941Y18395D01*
X19973Y18531D01*
X20934Y18929D01*
X21760Y19563D01*
X22394Y20389D01*
X22792Y21350D01*
X22928Y22382D01*
X22792Y23414D01*
X22394Y24375D01*
X21760Y25201D01*
X20934Y25835D01*
X19973Y26233D01*
X18941Y26369D01*
D02*
G37*
G36*
X8941D02*
X7909Y26233D01*
X6948Y25835D01*
X6122Y25201D01*
X5488Y24375D01*
X5090Y23414D01*
X4954Y22382D01*
X5090Y21350D01*
X5488Y20389D01*
X6122Y19563D01*
X6948Y18929D01*
X7909Y18531D01*
X8941Y18395D01*
X9973Y18531D01*
X10934Y18929D01*
X11760Y19563D01*
X12394Y20389D01*
X12792Y21350D01*
X12928Y22382D01*
X12792Y23414D01*
X12394Y24375D01*
X11760Y25201D01*
X10934Y25835D01*
X9973Y26233D01*
X8941Y26369D01*
D02*
G37*
G36*
X148941Y16369D02*
X147909Y16233D01*
X146948Y15835D01*
X146122Y15201D01*
X145488Y14375D01*
X145090Y13414D01*
X144954Y12382D01*
X145090Y11350D01*
X145488Y10389D01*
X146122Y9563D01*
X146948Y8929D01*
X147909Y8531D01*
X148941Y8395D01*
X149973Y8531D01*
X150934Y8929D01*
X151760Y9563D01*
X152394Y10389D01*
X152792Y11350D01*
X152928Y12382D01*
X152792Y13414D01*
X152394Y14375D01*
X151760Y15201D01*
X150934Y15835D01*
X149973Y16233D01*
X148941Y16369D01*
D02*
G37*
G36*
X138941D02*
X137909Y16233D01*
X136948Y15835D01*
X136122Y15201D01*
X135488Y14375D01*
X135090Y13414D01*
X134954Y12382D01*
X135090Y11350D01*
X135488Y10389D01*
X136122Y9563D01*
X136948Y8929D01*
X137909Y8531D01*
X138941Y8395D01*
X139973Y8531D01*
X140934Y8929D01*
X141760Y9563D01*
X142394Y10389D01*
X142792Y11350D01*
X142928Y12382D01*
X142792Y13414D01*
X142394Y14375D01*
X141760Y15201D01*
X140934Y15835D01*
X139973Y16233D01*
X138941Y16369D01*
D02*
G37*
G36*
X128941D02*
X127909Y16233D01*
X126947Y15835D01*
X126122Y15201D01*
X125488Y14375D01*
X125090Y13414D01*
X124954Y12382D01*
X125090Y11350D01*
X125488Y10389D01*
X126122Y9563D01*
X126947Y8929D01*
X127909Y8531D01*
X128941Y8395D01*
X129973Y8531D01*
X130934Y8929D01*
X131760Y9563D01*
X132394Y10389D01*
X132792Y11350D01*
X132928Y12382D01*
X132792Y13414D01*
X132394Y14375D01*
X131760Y15201D01*
X130934Y15835D01*
X129973Y16233D01*
X128941Y16369D01*
D02*
G37*
G36*
X118941D02*
X117909Y16233D01*
X116947Y15835D01*
X116122Y15201D01*
X115488Y14375D01*
X115090Y13414D01*
X114954Y12382D01*
X115090Y11350D01*
X115488Y10389D01*
X116122Y9563D01*
X116947Y8929D01*
X117909Y8531D01*
X118941Y8395D01*
X119973Y8531D01*
X120934Y8929D01*
X121760Y9563D01*
X122394Y10389D01*
X122792Y11350D01*
X122928Y12382D01*
X122792Y13414D01*
X122394Y14375D01*
X121760Y15201D01*
X120934Y15835D01*
X119973Y16233D01*
X118941Y16369D01*
D02*
G37*
G36*
X108941D02*
X107909Y16233D01*
X106948Y15835D01*
X106122Y15201D01*
X105488Y14375D01*
X105090Y13414D01*
X104954Y12382D01*
X105090Y11350D01*
X105488Y10389D01*
X106122Y9563D01*
X106948Y8929D01*
X107909Y8531D01*
X108941Y8395D01*
X109973Y8531D01*
X110934Y8929D01*
X111760Y9563D01*
X112394Y10389D01*
X112792Y11350D01*
X112928Y12382D01*
X112792Y13414D01*
X112394Y14375D01*
X111760Y15201D01*
X110934Y15835D01*
X109973Y16233D01*
X108941Y16369D01*
D02*
G37*
G36*
X98941D02*
X97909Y16233D01*
X96947Y15835D01*
X96122Y15201D01*
X95488Y14375D01*
X95090Y13414D01*
X94954Y12382D01*
X95090Y11350D01*
X95488Y10389D01*
X96122Y9563D01*
X96947Y8929D01*
X97909Y8531D01*
X98941Y8395D01*
X99973Y8531D01*
X100934Y8929D01*
X101760Y9563D01*
X102394Y10389D01*
X102792Y11350D01*
X102928Y12382D01*
X102792Y13414D01*
X102394Y14375D01*
X101760Y15201D01*
X100934Y15835D01*
X99973Y16233D01*
X98941Y16369D01*
D02*
G37*
G36*
X88941D02*
X87909Y16233D01*
X86948Y15835D01*
X86122Y15201D01*
X85488Y14375D01*
X85090Y13414D01*
X84954Y12382D01*
X85090Y11350D01*
X85488Y10389D01*
X86122Y9563D01*
X86948Y8929D01*
X87909Y8531D01*
X88941Y8395D01*
X89973Y8531D01*
X90934Y8929D01*
X91760Y9563D01*
X92394Y10389D01*
X92792Y11350D01*
X92928Y12382D01*
X92792Y13414D01*
X92394Y14375D01*
X91760Y15201D01*
X90934Y15835D01*
X89973Y16233D01*
X88941Y16369D01*
D02*
G37*
G36*
X78941D02*
X77909Y16233D01*
X76947Y15835D01*
X76122Y15201D01*
X75488Y14375D01*
X75090Y13414D01*
X74954Y12382D01*
X75090Y11350D01*
X75488Y10389D01*
X76122Y9563D01*
X76947Y8929D01*
X77909Y8531D01*
X78941Y8395D01*
X79973Y8531D01*
X80934Y8929D01*
X81760Y9563D01*
X82394Y10389D01*
X82792Y11350D01*
X82928Y12382D01*
X82792Y13414D01*
X82394Y14375D01*
X81760Y15201D01*
X80934Y15835D01*
X79973Y16233D01*
X78941Y16369D01*
D02*
G37*
G36*
X68941D02*
X67909Y16233D01*
X66948Y15835D01*
X66122Y15201D01*
X65488Y14375D01*
X65090Y13414D01*
X64954Y12382D01*
X65090Y11350D01*
X65488Y10389D01*
X66122Y9563D01*
X66948Y8929D01*
X67909Y8531D01*
X68941Y8395D01*
X69973Y8531D01*
X70934Y8929D01*
X71760Y9563D01*
X72394Y10389D01*
X72792Y11350D01*
X72928Y12382D01*
X72792Y13414D01*
X72394Y14375D01*
X71760Y15201D01*
X70934Y15835D01*
X69973Y16233D01*
X68941Y16369D01*
D02*
G37*
G36*
X58941D02*
X57909Y16233D01*
X56947Y15835D01*
X56122Y15201D01*
X55488Y14375D01*
X55090Y13414D01*
X54954Y12382D01*
X55090Y11350D01*
X55488Y10389D01*
X56122Y9563D01*
X56947Y8929D01*
X57909Y8531D01*
X58941Y8395D01*
X59973Y8531D01*
X60934Y8929D01*
X61760Y9563D01*
X62394Y10389D01*
X62792Y11350D01*
X62928Y12382D01*
X62792Y13414D01*
X62394Y14375D01*
X61760Y15201D01*
X60934Y15835D01*
X59973Y16233D01*
X58941Y16369D01*
D02*
G37*
G36*
X48941D02*
X47909Y16233D01*
X46948Y15835D01*
X46122Y15201D01*
X45488Y14375D01*
X45090Y13414D01*
X44954Y12382D01*
X45090Y11350D01*
X45488Y10389D01*
X46122Y9563D01*
X46948Y8929D01*
X47909Y8531D01*
X48941Y8395D01*
X49973Y8531D01*
X50934Y8929D01*
X51760Y9563D01*
X52394Y10389D01*
X52792Y11350D01*
X52928Y12382D01*
X52792Y13414D01*
X52394Y14375D01*
X51760Y15201D01*
X50934Y15835D01*
X49973Y16233D01*
X48941Y16369D01*
D02*
G37*
G36*
X38941D02*
X37909Y16233D01*
X36948Y15835D01*
X36122Y15201D01*
X35488Y14375D01*
X35090Y13414D01*
X34954Y12382D01*
X35090Y11350D01*
X35488Y10389D01*
X36122Y9563D01*
X36948Y8929D01*
X37909Y8531D01*
X38941Y8395D01*
X39973Y8531D01*
X40934Y8929D01*
X41760Y9563D01*
X42394Y10389D01*
X42792Y11350D01*
X42928Y12382D01*
X42792Y13414D01*
X42394Y14375D01*
X41760Y15201D01*
X40934Y15835D01*
X39973Y16233D01*
X38941Y16369D01*
D02*
G37*
G36*
X28941D02*
X27909Y16233D01*
X26948Y15835D01*
X26122Y15201D01*
X25488Y14375D01*
X25090Y13414D01*
X24954Y12382D01*
X25090Y11350D01*
X25488Y10389D01*
X26122Y9563D01*
X26948Y8929D01*
X27909Y8531D01*
X28941Y8395D01*
X29973Y8531D01*
X30934Y8929D01*
X31760Y9563D01*
X32394Y10389D01*
X32792Y11350D01*
X32928Y12382D01*
X32792Y13414D01*
X32394Y14375D01*
X31760Y15201D01*
X30934Y15835D01*
X29973Y16233D01*
X28941Y16369D01*
D02*
G37*
G36*
X18941D02*
X17909Y16233D01*
X16948Y15835D01*
X16122Y15201D01*
X15488Y14375D01*
X15090Y13414D01*
X14954Y12382D01*
X15090Y11350D01*
X15488Y10389D01*
X16122Y9563D01*
X16948Y8929D01*
X17909Y8531D01*
X18941Y8395D01*
X19973Y8531D01*
X20934Y8929D01*
X21760Y9563D01*
X22394Y10389D01*
X22792Y11350D01*
X22928Y12382D01*
X22792Y13414D01*
X22394Y14375D01*
X21760Y15201D01*
X20934Y15835D01*
X19973Y16233D01*
X18941Y16369D01*
D02*
G37*
G36*
X8941D02*
X7909Y16233D01*
X6948Y15835D01*
X6122Y15201D01*
X5488Y14375D01*
X5090Y13414D01*
X4954Y12382D01*
X5090Y11350D01*
X5488Y10389D01*
X6122Y9563D01*
X6948Y8929D01*
X7909Y8531D01*
X8941Y8395D01*
X9973Y8531D01*
X10934Y8929D01*
X11760Y9563D01*
X12394Y10389D01*
X12792Y11350D01*
X12928Y12382D01*
X12792Y13414D01*
X12394Y14375D01*
X11760Y15201D01*
X10934Y15835D01*
X9973Y16233D01*
X8941Y16369D01*
D02*
G37*
%LPD*%
G36*
X77466Y155971D02*
X76947Y155756D01*
X76122Y155122D01*
X75488Y154297D01*
X75090Y153335D01*
X74954Y152303D01*
X75090Y151271D01*
X75488Y150310D01*
X76122Y149484D01*
X76714Y149029D01*
X76545Y148529D01*
X71337D01*
X71168Y149029D01*
X71760Y149484D01*
X72394Y150310D01*
X72792Y151271D01*
X72862Y151803D01*
X65020D01*
X65090Y151271D01*
X65488Y150310D01*
X66122Y149484D01*
X66714Y149029D01*
X66545Y148529D01*
X61337D01*
X61168Y149029D01*
X61760Y149484D01*
X62394Y150310D01*
X62792Y151271D01*
X62862Y151803D01*
X55020D01*
X55090Y151271D01*
X55488Y150310D01*
X56122Y149484D01*
X56714Y149029D01*
X56545Y148529D01*
X51337D01*
X51168Y149029D01*
X51760Y149484D01*
X52394Y150310D01*
X52792Y151271D01*
X52928Y152303D01*
X52792Y153335D01*
X52394Y154297D01*
X51760Y155122D01*
X50934Y155756D01*
X50416Y155971D01*
X50515Y156471D01*
X57367D01*
X57466Y155971D01*
X56947Y155756D01*
X56122Y155122D01*
X55488Y154297D01*
X55090Y153335D01*
X55020Y152803D01*
X62862D01*
X62792Y153335D01*
X62394Y154297D01*
X61760Y155122D01*
X60934Y155756D01*
X60416Y155971D01*
X60515Y156471D01*
X67366D01*
X67466Y155971D01*
X66948Y155756D01*
X66122Y155122D01*
X65488Y154297D01*
X65090Y153335D01*
X65020Y152803D01*
X72862D01*
X72792Y153335D01*
X72394Y154297D01*
X71760Y155122D01*
X70934Y155756D01*
X70416Y155971D01*
X70515Y156471D01*
X77367D01*
X77466Y155971D01*
D02*
G37*
G36*
X37466D02*
X36948Y155756D01*
X36122Y155122D01*
X35488Y154297D01*
X35090Y153335D01*
X34954Y152303D01*
X35090Y151271D01*
X35488Y150310D01*
X36122Y149484D01*
X36714Y149029D01*
X36544Y148529D01*
X31337D01*
X31168Y149029D01*
X31760Y149484D01*
X32394Y150310D01*
X32792Y151271D01*
X32862Y151803D01*
X28941D01*
Y152803D01*
X32862D01*
X32792Y153335D01*
X32394Y154297D01*
X31760Y155122D01*
X30934Y155756D01*
X30416Y155971D01*
X30515Y156471D01*
X37367D01*
X37466Y155971D01*
D02*
G37*
G36*
X98778Y148338D02*
X100738Y146379D01*
X100454Y145955D01*
X99973Y146154D01*
X98941Y146290D01*
X97909Y146154D01*
X96947Y145756D01*
X96122Y145122D01*
X95488Y144297D01*
X95090Y143335D01*
X94954Y142303D01*
X95090Y141271D01*
X95488Y140310D01*
X96122Y139484D01*
X96947Y138850D01*
X97909Y138452D01*
X98941Y138316D01*
X99973Y138452D01*
X100934Y138850D01*
X101760Y139484D01*
X102394Y140310D01*
X102792Y141271D01*
X102928Y142303D01*
X102792Y143335D01*
X102394Y144297D01*
X101959Y144863D01*
X102241Y145317D01*
X102744Y145217D01*
X105564D01*
X105811Y144717D01*
X105488Y144297D01*
X105090Y143335D01*
X104954Y142303D01*
X105090Y141271D01*
X105488Y140310D01*
X106122Y139484D01*
X106948Y138850D01*
X107909Y138452D01*
X108941Y138316D01*
X109973Y138452D01*
X110934Y138850D01*
X111760Y139484D01*
X112394Y140310D01*
X112792Y141271D01*
X112928Y142303D01*
X112792Y143335D01*
X112394Y144297D01*
X112071Y144717D01*
X112318Y145217D01*
X115564D01*
X115811Y144717D01*
X115488Y144297D01*
X115090Y143335D01*
X114954Y142303D01*
X115090Y141271D01*
X115488Y140310D01*
X116122Y139484D01*
X116947Y138850D01*
X117909Y138452D01*
X118941Y138316D01*
X119973Y138452D01*
X120934Y138850D01*
X121414Y139218D01*
X121914Y138972D01*
Y131030D01*
X119558Y128674D01*
X119116Y128013D01*
X118961Y127232D01*
Y122998D01*
X118880Y122878D01*
X118706Y122000D01*
X118865Y121200D01*
Y120249D01*
X117558Y118942D01*
X117116Y118280D01*
X116961Y117500D01*
Y110345D01*
X111843Y105227D01*
X111282Y105373D01*
X110872Y105985D01*
X110128Y106482D01*
X109250Y106657D01*
X108372Y106482D01*
X107628Y105985D01*
X107131Y105241D01*
X106956Y104363D01*
X107049Y103894D01*
X106732Y103508D01*
X95858D01*
Y102039D01*
X87366D01*
X87343Y102055D01*
X86492Y102224D01*
X85756Y102077D01*
X85256Y102353D01*
Y103596D01*
X85756Y103751D01*
X86414Y103312D01*
X87292Y103137D01*
X88169Y103312D01*
X88914Y103809D01*
X89411Y104553D01*
X89586Y105431D01*
X89411Y106309D01*
X89139Y106716D01*
X89151Y107301D01*
X89648Y108045D01*
X89823Y108923D01*
X89721Y109435D01*
X90114Y109935D01*
X90935D01*
X91716Y110090D01*
X92377Y110532D01*
X96805Y114961D01*
X107763D01*
X108543Y115116D01*
X109205Y115558D01*
X113608Y119961D01*
X114502D01*
X114622Y119880D01*
X115500Y119706D01*
X116378Y119880D01*
X117122Y120378D01*
X117620Y121122D01*
X117794Y122000D01*
X117620Y122878D01*
X117122Y123622D01*
X116378Y124119D01*
X115500Y124294D01*
X114622Y124119D01*
X114502Y124039D01*
X112763D01*
X111983Y123884D01*
X111321Y123442D01*
X110604Y122724D01*
X110142Y122916D01*
Y130516D01*
X105970D01*
Y134022D01*
X106054Y134149D01*
X106224Y135000D01*
X106054Y135851D01*
X105572Y136573D01*
X104851Y137055D01*
X104000Y137224D01*
X103149Y137055D01*
X102427Y136573D01*
X101945Y135851D01*
X101776Y135000D01*
X101892Y134420D01*
Y130516D01*
X95858D01*
Y130516D01*
X95358Y130264D01*
X94981Y130516D01*
X94104Y130691D01*
X93719Y131124D01*
X93794Y131500D01*
X93619Y132378D01*
X93546Y132488D01*
X93782Y132929D01*
X96233D01*
X97000Y132776D01*
X97851Y132946D01*
X98572Y133428D01*
X99054Y134149D01*
X99224Y135000D01*
X99054Y135851D01*
X98572Y136573D01*
X97851Y137055D01*
X97000Y137224D01*
X96149Y137055D01*
X96078Y137007D01*
X85468D01*
X84687Y136852D01*
X84026Y136410D01*
X84026Y136410D01*
X79655Y132039D01*
X58500D01*
X57720Y131884D01*
X57058Y131442D01*
X55273Y129657D01*
X54730Y129821D01*
X54619Y130378D01*
X54122Y131122D01*
X53378Y131620D01*
X52500Y131794D01*
X51622Y131620D01*
X50878Y131122D01*
X50811Y131022D01*
X50311Y131174D01*
Y132669D01*
X24689D01*
Y107047D01*
X40182D01*
X40328Y106547D01*
X39880Y105878D01*
X39706Y105000D01*
X39880Y104122D01*
X40278Y103527D01*
X39671Y103122D01*
X39174Y102378D01*
X38999Y101500D01*
X39174Y100622D01*
X39671Y99878D01*
X40415Y99381D01*
X41293Y99206D01*
X41906Y99328D01*
X42406Y98981D01*
Y90392D01*
X41150D01*
X40564Y90276D01*
X40068Y89944D01*
X38462Y88338D01*
X38130Y87842D01*
X38014Y87256D01*
Y86854D01*
X36279D01*
Y80029D01*
X35721D01*
Y86854D01*
X33986D01*
Y87500D01*
X33870Y88086D01*
X33538Y88582D01*
X32594Y89525D01*
Y101173D01*
X26458D01*
X24029Y103603D01*
Y106500D01*
X23913Y107085D01*
X23581Y107581D01*
X18190Y112973D01*
X18028Y113406D01*
X18028Y113406D01*
X18028D01*
X18028Y113406D01*
Y120917D01*
X12795D01*
Y117161D01*
X12205D01*
Y120917D01*
X12061D01*
Y125601D01*
X24701Y138241D01*
X25032Y138737D01*
X25133Y139243D01*
X25149Y139322D01*
X25168Y139736D01*
X25168Y139736D01*
X25168Y139736D01*
X25168Y139737D01*
X25167Y139745D01*
X25167Y139748D01*
X25136Y139950D01*
X25625Y140131D01*
X26122Y139484D01*
X26948Y138850D01*
X27909Y138452D01*
X28941Y138316D01*
X29973Y138452D01*
X30934Y138850D01*
X31760Y139484D01*
X32394Y140310D01*
X32792Y141271D01*
X32928Y142303D01*
X32792Y143335D01*
X32394Y144297D01*
X31877Y144971D01*
X32081Y145471D01*
X35801D01*
X36005Y144971D01*
X35488Y144297D01*
X35090Y143335D01*
X34954Y142303D01*
X35090Y141271D01*
X35488Y140310D01*
X36122Y139484D01*
X36948Y138850D01*
X37909Y138452D01*
X38941Y138316D01*
X39973Y138452D01*
X40934Y138850D01*
X41760Y139484D01*
X42394Y140310D01*
X42792Y141271D01*
X42928Y142303D01*
X42792Y143335D01*
X42394Y144297D01*
X41877Y144971D01*
X42081Y145471D01*
X45801D01*
X46005Y144971D01*
X45488Y144297D01*
X45090Y143335D01*
X44954Y142303D01*
X45090Y141271D01*
X45488Y140310D01*
X46122Y139484D01*
X46948Y138850D01*
X47909Y138452D01*
X48941Y138316D01*
X49973Y138452D01*
X50934Y138850D01*
X51760Y139484D01*
X52394Y140310D01*
X52792Y141271D01*
X52928Y142303D01*
X52792Y143335D01*
X52394Y144297D01*
X51876Y144971D01*
X52081Y145471D01*
X55801D01*
X56005Y144971D01*
X55488Y144297D01*
X55090Y143335D01*
X54954Y142303D01*
X55090Y141271D01*
X55488Y140310D01*
X56122Y139484D01*
X56947Y138850D01*
X57909Y138452D01*
X58941Y138316D01*
X59973Y138452D01*
X60934Y138850D01*
X61760Y139484D01*
X62394Y140310D01*
X62792Y141271D01*
X62928Y142303D01*
X62792Y143335D01*
X62394Y144297D01*
X61876Y144971D01*
X62081Y145471D01*
X65801D01*
X66005Y144971D01*
X65488Y144297D01*
X65090Y143335D01*
X64954Y142303D01*
X65090Y141271D01*
X65488Y140310D01*
X66122Y139484D01*
X66948Y138850D01*
X67909Y138452D01*
X68941Y138316D01*
X69973Y138452D01*
X70934Y138850D01*
X71760Y139484D01*
X72394Y140310D01*
X72792Y141271D01*
X72928Y142303D01*
X72792Y143335D01*
X72394Y144297D01*
X71877Y144971D01*
X72081Y145471D01*
X75801D01*
X76005Y144971D01*
X75488Y144297D01*
X75090Y143335D01*
X74954Y142303D01*
X75090Y141271D01*
X75488Y140310D01*
X76122Y139484D01*
X76947Y138850D01*
X77909Y138452D01*
X78941Y138316D01*
X79973Y138452D01*
X80934Y138850D01*
X81760Y139484D01*
X82394Y140310D01*
X82792Y141271D01*
X82928Y142303D01*
X82792Y143335D01*
X82394Y144297D01*
X81876Y144971D01*
X82081Y145471D01*
X85801D01*
X86005Y144971D01*
X85488Y144297D01*
X85090Y143335D01*
X84954Y142303D01*
X85090Y141271D01*
X85488Y140310D01*
X86122Y139484D01*
X86948Y138850D01*
X87909Y138452D01*
X88941Y138316D01*
X89973Y138452D01*
X90934Y138850D01*
X91760Y139484D01*
X92394Y140310D01*
X92792Y141271D01*
X92928Y142303D01*
X92792Y143335D01*
X92394Y144297D01*
X91877Y144971D01*
X92081Y145471D01*
X95000D01*
X95585Y145587D01*
X96081Y145919D01*
X98533Y148370D01*
X98778Y148338D01*
D02*
G37*
G36*
X141914Y138972D02*
Y135825D01*
X141524D01*
X140941Y135709D01*
X140448Y135379D01*
X140118Y134885D01*
X140002Y134303D01*
Y131059D01*
X137058Y128115D01*
X136616Y127454D01*
X136461Y126673D01*
Y121087D01*
X136616Y120306D01*
X137058Y119645D01*
X137879Y118824D01*
X137795Y118623D01*
Y115295D01*
X140469D01*
Y115427D01*
X140945Y115637D01*
X141224Y115413D01*
Y111638D01*
X147161D01*
Y118362D01*
X144108D01*
X142757Y119714D01*
X142948Y120176D01*
X143024D01*
Y124000D01*
X143319D01*
Y124295D01*
X146317D01*
Y126303D01*
X146201Y126885D01*
X145871Y127379D01*
X145378Y127709D01*
X145035Y127777D01*
Y128287D01*
X145059Y128291D01*
X145552Y128621D01*
X145882Y129115D01*
X145998Y129697D01*
Y134303D01*
X145992Y134332D01*
Y138953D01*
X146492Y139200D01*
X146948Y138850D01*
X147909Y138452D01*
X148268Y138405D01*
X150348Y136325D01*
X150141Y135825D01*
X148886D01*
X148304Y135709D01*
X147810Y135379D01*
X147480Y134885D01*
X147364Y134303D01*
Y129697D01*
X147480Y129115D01*
X147810Y128621D01*
X148304Y128291D01*
X148585Y128235D01*
Y127683D01*
X148129Y127379D01*
X147799Y126885D01*
X147683Y126303D01*
Y121697D01*
X147799Y121115D01*
X148129Y120621D01*
X148585Y120317D01*
Y118362D01*
X147917D01*
Y111638D01*
X152101D01*
X152292Y111176D01*
X150655Y109539D01*
X132065D01*
X130428Y111176D01*
X130620Y111638D01*
X133776D01*
Y118362D01*
X132846D01*
Y127775D01*
X135395Y130323D01*
X135837Y130984D01*
X135992Y131765D01*
Y138953D01*
X136492Y139200D01*
X136948Y138850D01*
X137909Y138452D01*
X138941Y138316D01*
X139973Y138452D01*
X140934Y138850D01*
X141414Y139218D01*
X141914Y138972D01*
D02*
G37*
G36*
X131914D02*
Y132610D01*
X129365Y130061D01*
X128923Y129400D01*
X128768Y128619D01*
Y118362D01*
X127839D01*
Y114574D01*
X127362Y114363D01*
X127083Y114587D01*
Y118362D01*
X123169D01*
X122836Y118862D01*
X122943Y119404D01*
Y120859D01*
X123119Y121122D01*
X123294Y122000D01*
X123119Y122878D01*
X123039Y122998D01*
Y126388D01*
X125395Y128743D01*
X125837Y129405D01*
X125992Y130185D01*
Y138953D01*
X126492Y139200D01*
X126947Y138850D01*
X127909Y138452D01*
X128941Y138316D01*
X129973Y138452D01*
X130934Y138850D01*
X131414Y139218D01*
X131914Y138972D01*
D02*
G37*
G36*
X74939Y127499D02*
X74384Y126945D01*
X65539D01*
X65342Y126906D01*
X59241D01*
Y120451D01*
X58412D01*
X57632Y120296D01*
X56970Y119854D01*
X56478Y119362D01*
X56090Y119681D01*
X56454Y120226D01*
X56629Y121104D01*
X56454Y121982D01*
X55957Y122727D01*
X55274Y123183D01*
X55103Y123586D01*
X55072Y123688D01*
X59345Y127961D01*
X74747D01*
X74939Y127499D01*
D02*
G37*
G36*
X16122Y139484D02*
X16948Y138850D01*
X17909Y138452D01*
X18941Y138316D01*
X19865Y138438D01*
X20070Y138155D01*
X20124Y137990D01*
X9450Y127316D01*
X9119Y126820D01*
X9002Y126234D01*
Y120917D01*
X8858D01*
Y117161D01*
X8268D01*
Y120917D01*
X8029D01*
Y129840D01*
X15081Y136892D01*
X15413Y137388D01*
X15529Y137973D01*
Y139478D01*
X16003Y139639D01*
X16122Y139484D01*
D02*
G37*
G36*
X52127Y120669D02*
X52215Y120226D01*
X52713Y119482D01*
X53457Y118985D01*
X54335Y118810D01*
X55213Y118985D01*
X55759Y119350D01*
X56077Y118961D01*
X52464Y115348D01*
X52022Y114686D01*
X51867Y113906D01*
Y79931D01*
X51353Y79418D01*
X51193Y79179D01*
X48697D01*
X48115Y79063D01*
X47621Y78733D01*
X47291Y78240D01*
X47175Y77658D01*
Y77475D01*
X46720Y77384D01*
X46058Y76942D01*
X40493Y71377D01*
X40414Y71410D01*
X39500Y71530D01*
X38586Y71410D01*
X37735Y71057D01*
X37004Y70496D01*
X36443Y69765D01*
X36090Y68914D01*
X35975Y68039D01*
X32354D01*
Y68807D01*
X28077D01*
X24539Y72345D01*
Y76500D01*
X24384Y77280D01*
X23942Y77942D01*
X21539Y80345D01*
Y81106D01*
X22039Y81155D01*
X22087Y80915D01*
X22419Y80419D01*
X25419Y77419D01*
X25915Y77087D01*
X26500Y76971D01*
X26903D01*
X26983Y76881D01*
X27095Y76650D01*
X27124Y76471D01*
X27075Y76408D01*
X27062Y76382D01*
X27041Y76362D01*
X26978Y76271D01*
X26964Y76239D01*
X26941Y76214D01*
X26882Y76115D01*
X26876Y76100D01*
X26866Y76089D01*
X26811Y75990D01*
X26799Y75952D01*
X26775Y75919D01*
X26728Y75817D01*
X26722Y75794D01*
X26709Y75774D01*
X26666Y75668D01*
X26663Y75652D01*
X26654Y75638D01*
X26615Y75531D01*
X26608Y75492D01*
X26590Y75457D01*
X26559Y75347D01*
X26558Y75330D01*
X26550Y75314D01*
X26523Y75204D01*
X26521Y75169D01*
X26508Y75136D01*
X26488Y75026D01*
X26489Y75005D01*
X26482Y74986D01*
X26466Y74872D01*
X26468Y74838D01*
X26459Y74805D01*
X26452Y74695D01*
X26454Y74676D01*
X26449Y74657D01*
X26446Y74543D01*
X26451Y74508D01*
X26446Y74473D01*
X26449Y74359D01*
X26454Y74340D01*
X26452Y74321D01*
X26459Y74211D01*
X26468Y74178D01*
X26466Y74144D01*
X26482Y74030D01*
X26489Y74011D01*
X26488Y73990D01*
X26508Y73880D01*
X26521Y73847D01*
X26523Y73812D01*
X26550Y73702D01*
X26558Y73686D01*
X26559Y73669D01*
X26590Y73558D01*
X26608Y73523D01*
X26615Y73484D01*
X26654Y73378D01*
X26663Y73364D01*
X26666Y73348D01*
X26709Y73241D01*
X26722Y73222D01*
X26728Y73199D01*
X26775Y73096D01*
X26799Y73064D01*
X26811Y73025D01*
X26866Y72927D01*
X26876Y72915D01*
X26882Y72901D01*
X26941Y72802D01*
X26964Y72777D01*
X26978Y72745D01*
X27041Y72654D01*
X27062Y72634D01*
X27075Y72608D01*
X27146Y72517D01*
X27154Y72510D01*
X27160Y72500D01*
X27231Y72413D01*
X27261Y72389D01*
X27281Y72356D01*
X27360Y72273D01*
X27381Y72259D01*
X27395Y72238D01*
X27478Y72159D01*
X27511Y72139D01*
X27536Y72109D01*
X27622Y72038D01*
X27632Y72032D01*
X27639Y72024D01*
X27730Y71953D01*
X27756Y71940D01*
X27776Y71919D01*
X27867Y71856D01*
X27898Y71842D01*
X27924Y71819D01*
X28023Y71760D01*
X28037Y71754D01*
X28049Y71744D01*
X28148Y71689D01*
X28186Y71677D01*
X28218Y71653D01*
X28321Y71606D01*
X28344Y71600D01*
X28363Y71587D01*
X28470Y71544D01*
X28486Y71541D01*
X28500Y71532D01*
X28607Y71493D01*
X28646Y71487D01*
X28681Y71469D01*
X28791Y71437D01*
X28808Y71436D01*
X28824Y71428D01*
X28934Y71401D01*
X28969Y71399D01*
X29002Y71386D01*
X29112Y71366D01*
X29133Y71367D01*
X29152Y71360D01*
X29266Y71344D01*
X29300Y71346D01*
X29333Y71337D01*
X29443Y71329D01*
X29462Y71332D01*
X29481Y71328D01*
X29595Y71324D01*
X29612Y71326D01*
X29630Y71323D01*
X31992D01*
X32010Y71326D01*
X32027Y71324D01*
X32142Y71328D01*
X32160Y71332D01*
X32179Y71329D01*
X32289Y71337D01*
X32322Y71346D01*
X32356Y71344D01*
X32470Y71360D01*
X32489Y71367D01*
X32510Y71366D01*
X32620Y71386D01*
X32653Y71399D01*
X32688Y71401D01*
X32798Y71428D01*
X32814Y71436D01*
X32831Y71437D01*
X32942Y71469D01*
X32977Y71487D01*
X33015Y71493D01*
X33122Y71532D01*
X33136Y71541D01*
X33152Y71544D01*
X33259Y71587D01*
X33278Y71600D01*
X33301Y71606D01*
X33404Y71653D01*
X33436Y71677D01*
X33475Y71689D01*
X33573Y71744D01*
X33585Y71754D01*
X33599Y71759D01*
X33698Y71819D01*
X33724Y71842D01*
X33755Y71856D01*
X33846Y71919D01*
X33866Y71940D01*
X33892Y71953D01*
X33983Y72024D01*
X33990Y72032D01*
X34000Y72038D01*
X34087Y72109D01*
X34111Y72139D01*
X34144Y72159D01*
X34227Y72238D01*
X34241Y72259D01*
X34262Y72273D01*
X34341Y72356D01*
X34361Y72389D01*
X34391Y72413D01*
X34462Y72500D01*
X34468Y72510D01*
X34476Y72517D01*
X34547Y72608D01*
X34560Y72634D01*
X34581Y72654D01*
X34644Y72745D01*
X34658Y72776D01*
X34681Y72802D01*
X34740Y72901D01*
X34746Y72915D01*
X34756Y72927D01*
X34811Y73025D01*
X34823Y73064D01*
X34847Y73096D01*
X34894Y73199D01*
X34900Y73222D01*
X34913Y73241D01*
X34956Y73348D01*
X34959Y73364D01*
X34968Y73378D01*
X35007Y73484D01*
X35013Y73523D01*
X35032Y73558D01*
X35063Y73669D01*
X35064Y73686D01*
X35072Y73702D01*
X35099Y73812D01*
X35101Y73847D01*
X35114Y73880D01*
X35134Y73990D01*
X35133Y74011D01*
X35140Y74030D01*
X35156Y74144D01*
X35154Y74178D01*
X35163Y74211D01*
X35171Y74321D01*
X35168Y74340D01*
X35173Y74358D01*
X35177Y74473D01*
X35171Y74508D01*
X35177Y74543D01*
X35173Y74657D01*
X35168Y74676D01*
X35171Y74695D01*
X35163Y74805D01*
X35154Y74838D01*
X35156Y74872D01*
X35140Y74986D01*
X35133Y75005D01*
X35134Y75026D01*
X35114Y75136D01*
X35101Y75169D01*
X35099Y75204D01*
X35072Y75314D01*
X35064Y75330D01*
X35063Y75347D01*
X35032Y75457D01*
X35013Y75492D01*
X35007Y75531D01*
X34968Y75638D01*
X34959Y75652D01*
X34956Y75668D01*
X34913Y75775D01*
X34900Y75794D01*
X34894Y75817D01*
X34847Y75919D01*
X34823Y75952D01*
X34811Y75990D01*
X34756Y76089D01*
X34746Y76100D01*
X34740Y76115D01*
X34681Y76214D01*
X34658Y76239D01*
X34644Y76271D01*
X34581Y76362D01*
X34560Y76382D01*
X34547Y76408D01*
X34498Y76471D01*
X34527Y76650D01*
X34639Y76881D01*
X34719Y76971D01*
X42500D01*
X43085Y77087D01*
X43581Y77419D01*
X45581Y79419D01*
X45913Y79915D01*
X46029Y80500D01*
Y87362D01*
X50704D01*
Y101173D01*
X43855D01*
X43587Y101500D01*
X43413Y102378D01*
X43016Y102972D01*
X43622Y103378D01*
X44120Y104122D01*
X44294Y105000D01*
X44120Y105878D01*
X43672Y106547D01*
X43818Y107047D01*
X44797D01*
X45033Y106606D01*
X44881Y106378D01*
X44706Y105500D01*
X44881Y104622D01*
X45378Y103878D01*
X46122Y103381D01*
X47000Y103206D01*
X47878Y103381D01*
X48622Y103878D01*
X49119Y104622D01*
X49294Y105500D01*
X49119Y106378D01*
X48967Y106606D01*
X49203Y107047D01*
X50311D01*
Y120600D01*
X51139D01*
X51920Y120756D01*
X52127Y120669D01*
D02*
G37*
G36*
X17461Y94655D02*
Y87116D01*
X16961Y86764D01*
X16657Y86825D01*
X13705D01*
X13550Y86794D01*
X12061Y88283D01*
Y96083D01*
X16034D01*
X17461Y94655D01*
D02*
G37*
G36*
X32106Y76669D02*
X32217Y76661D01*
X32331Y76646D01*
X32441Y76626D01*
X32551Y76598D01*
X32661Y76567D01*
X32768Y76528D01*
X32874Y76484D01*
X32976Y76437D01*
X33075Y76382D01*
X33173Y76323D01*
X33264Y76260D01*
X33354Y76189D01*
X33441Y76118D01*
X33524Y76039D01*
X33602Y75957D01*
X33673Y75870D01*
X33744Y75779D01*
X33807Y75689D01*
X33866Y75590D01*
X33921Y75492D01*
X33968Y75390D01*
X34012Y75283D01*
X34051Y75177D01*
X34083Y75067D01*
X34110Y74957D01*
X34130Y74847D01*
X34146Y74732D01*
X34154Y74622D01*
X34157Y74508D01*
X34154Y74394D01*
X34146Y74283D01*
X34130Y74169D01*
X34110Y74059D01*
X34083Y73949D01*
X34051Y73839D01*
X34012Y73732D01*
X33968Y73626D01*
X33921Y73524D01*
X33866Y73425D01*
X33807Y73327D01*
X33744Y73236D01*
X33673Y73146D01*
X33602Y73059D01*
X33524Y72976D01*
X33441Y72898D01*
X33354Y72827D01*
X33264Y72756D01*
X33173Y72693D01*
X33075Y72634D01*
X32976Y72579D01*
X32874Y72531D01*
X32768Y72488D01*
X32661Y72449D01*
X32551Y72417D01*
X32441Y72390D01*
X32331Y72370D01*
X32217Y72354D01*
X32106Y72347D01*
X31992Y72342D01*
X29630D01*
X29516Y72347D01*
X29406Y72354D01*
X29291Y72370D01*
X29181Y72390D01*
X29071Y72417D01*
X28961Y72449D01*
X28854Y72488D01*
X28748Y72531D01*
X28646Y72579D01*
X28547Y72634D01*
X28449Y72693D01*
X28358Y72756D01*
X28268Y72827D01*
X28181Y72898D01*
X28098Y72976D01*
X28020Y73059D01*
X27949Y73146D01*
X27878Y73236D01*
X27815Y73327D01*
X27756Y73425D01*
X27701Y73524D01*
X27654Y73626D01*
X27610Y73732D01*
X27571Y73839D01*
X27539Y73949D01*
X27512Y74059D01*
X27492Y74169D01*
X27476Y74283D01*
X27468Y74394D01*
X27465Y74508D01*
X27468Y74622D01*
X27476Y74732D01*
X27492Y74847D01*
X27512Y74957D01*
X27539Y75067D01*
X27571Y75177D01*
X27610Y75283D01*
X27654Y75390D01*
X27701Y75492D01*
X27756Y75590D01*
X27815Y75689D01*
X27878Y75779D01*
X27949Y75870D01*
X28020Y75957D01*
X28098Y76039D01*
X28181Y76118D01*
X28268Y76189D01*
X28358Y76260D01*
X28449Y76323D01*
X28547Y76382D01*
X28646Y76437D01*
X28748Y76484D01*
X28854Y76528D01*
X28961Y76567D01*
X29071Y76598D01*
X29181Y76626D01*
X29291Y76646D01*
X29406Y76661D01*
X29516Y76669D01*
X29630Y76673D01*
X31992D01*
X32106Y76669D01*
D02*
G37*
G36*
X17146D02*
X17256Y76661D01*
X17370Y76646D01*
X17480Y76626D01*
X17591Y76598D01*
X17701Y76567D01*
X17807Y76528D01*
X17913Y76484D01*
X18016Y76437D01*
X18114Y76382D01*
X18213Y76323D01*
X18303Y76260D01*
X18394Y76189D01*
X18480Y76118D01*
X18563Y76039D01*
X18642Y75957D01*
X18713Y75870D01*
X18783Y75779D01*
X18846Y75689D01*
X18905Y75590D01*
X18961Y75492D01*
X19008Y75390D01*
X19051Y75283D01*
X19091Y75177D01*
X19122Y75067D01*
X19150Y74957D01*
X19169Y74847D01*
X19185Y74732D01*
X19193Y74622D01*
X19197Y74508D01*
X19193Y74394D01*
X19185Y74283D01*
X19169Y74169D01*
X19150Y74059D01*
X19122Y73949D01*
X19091Y73839D01*
X19051Y73732D01*
X19008Y73626D01*
X18961Y73524D01*
X18905Y73425D01*
X18846Y73327D01*
X18783Y73236D01*
X18713Y73146D01*
X18642Y73059D01*
X18563Y72976D01*
X18480Y72898D01*
X18394Y72827D01*
X18303Y72756D01*
X18213Y72693D01*
X18114Y72634D01*
X18016Y72579D01*
X17913Y72531D01*
X17807Y72488D01*
X17701Y72449D01*
X17591Y72417D01*
X17480Y72390D01*
X17370Y72370D01*
X17256Y72354D01*
X17146Y72347D01*
X17031Y72342D01*
X14669D01*
X14555Y72347D01*
X14445Y72354D01*
X14331Y72370D01*
X14220Y72390D01*
X14110Y72417D01*
X14000Y72449D01*
X13894Y72488D01*
X13787Y72531D01*
X13685Y72579D01*
X13587Y72634D01*
X13488Y72693D01*
X13398Y72756D01*
X13307Y72827D01*
X13220Y72898D01*
X13138Y72976D01*
X13059Y73059D01*
X12988Y73146D01*
X12917Y73236D01*
X12854Y73327D01*
X12795Y73425D01*
X12740Y73524D01*
X12693Y73626D01*
X12650Y73732D01*
X12610Y73839D01*
X12579Y73949D01*
X12551Y74059D01*
X12531Y74169D01*
X12516Y74283D01*
X12508Y74394D01*
X12504Y74508D01*
X12508Y74622D01*
X12516Y74732D01*
X12531Y74847D01*
X12551Y74957D01*
X12579Y75067D01*
X12610Y75177D01*
X12650Y75283D01*
X12693Y75390D01*
X12740Y75492D01*
X12795Y75590D01*
X12854Y75689D01*
X12917Y75779D01*
X12988Y75870D01*
X13059Y75957D01*
X13138Y76039D01*
X13220Y76118D01*
X13307Y76189D01*
X13398Y76260D01*
X13488Y76323D01*
X13587Y76382D01*
X13685Y76437D01*
X13787Y76484D01*
X13894Y76528D01*
X14000Y76567D01*
X14110Y76598D01*
X14220Y76626D01*
X14331Y76646D01*
X14445Y76661D01*
X14555Y76669D01*
X14669Y76673D01*
X17031D01*
X17146Y76669D01*
D02*
G37*
%LPC*%
G36*
X103963Y108737D02*
X103085Y108562D01*
X102341Y108065D01*
X101843Y107321D01*
X101669Y106443D01*
X101843Y105565D01*
X102341Y104821D01*
X103085Y104323D01*
X103963Y104149D01*
X104841Y104323D01*
X105585Y104821D01*
X106082Y105565D01*
X106257Y106443D01*
X106082Y107321D01*
X105585Y108065D01*
X104841Y108562D01*
X103963Y108737D01*
D02*
G37*
G36*
X146317Y123705D02*
X143614D01*
Y120176D01*
X144795D01*
X145378Y120291D01*
X145871Y120621D01*
X146201Y121115D01*
X146317Y121697D01*
Y123705D01*
D02*
G37*
G36*
X137205Y118362D02*
X134531D01*
Y115295D01*
X137205D01*
Y118362D01*
D02*
G37*
G36*
X140469Y114705D02*
X137795D01*
Y111638D01*
X140469D01*
Y114705D01*
D02*
G37*
G36*
X137205D02*
X134531D01*
Y111638D01*
X137205D01*
Y114705D01*
D02*
G37*
%LPD*%
G36*
X32106Y42654D02*
X32217Y42646D01*
X32331Y42630D01*
X32441Y42610D01*
X32551Y42583D01*
X32661Y42551D01*
X32768Y42512D01*
X32874Y42469D01*
X32976Y42421D01*
X33075Y42366D01*
X33173Y42307D01*
X33264Y42244D01*
X33354Y42173D01*
X33441Y42102D01*
X33524Y42024D01*
X33602Y41941D01*
X33673Y41854D01*
X33744Y41764D01*
X33807Y41673D01*
X33866Y41575D01*
X33921Y41476D01*
X33968Y41374D01*
X34012Y41268D01*
X34051Y41161D01*
X34083Y41051D01*
X34110Y40941D01*
X34130Y40831D01*
X34146Y40716D01*
X34154Y40606D01*
X34157Y40492D01*
X34154Y40378D01*
X34146Y40268D01*
X34130Y40154D01*
X34110Y40043D01*
X34083Y39933D01*
X34051Y39823D01*
X34012Y39717D01*
X33968Y39610D01*
X33921Y39508D01*
X33866Y39409D01*
X33807Y39311D01*
X33744Y39220D01*
X33673Y39130D01*
X33602Y39043D01*
X33524Y38961D01*
X33441Y38882D01*
X33354Y38811D01*
X33264Y38740D01*
X33173Y38677D01*
X33075Y38618D01*
X32976Y38563D01*
X32874Y38516D01*
X32768Y38472D01*
X32661Y38433D01*
X32551Y38402D01*
X32441Y38374D01*
X32331Y38354D01*
X32217Y38339D01*
X32106Y38331D01*
X31992Y38327D01*
X29630D01*
X29516Y38331D01*
X29406Y38339D01*
X29291Y38354D01*
X29181Y38374D01*
X29071Y38402D01*
X28961Y38433D01*
X28854Y38472D01*
X28748Y38516D01*
X28646Y38563D01*
X28547Y38618D01*
X28449Y38677D01*
X28358Y38740D01*
X28268Y38811D01*
X28181Y38882D01*
X28098Y38961D01*
X28020Y39043D01*
X27949Y39130D01*
X27878Y39220D01*
X27815Y39311D01*
X27756Y39409D01*
X27701Y39508D01*
X27654Y39610D01*
X27610Y39717D01*
X27571Y39823D01*
X27539Y39933D01*
X27512Y40043D01*
X27492Y40154D01*
X27476Y40268D01*
X27468Y40378D01*
X27465Y40492D01*
X27468Y40606D01*
X27476Y40716D01*
X27492Y40831D01*
X27512Y40941D01*
X27539Y41051D01*
X27571Y41161D01*
X27610Y41268D01*
X27654Y41374D01*
X27701Y41476D01*
X27756Y41575D01*
X27815Y41673D01*
X27878Y41764D01*
X27949Y41854D01*
X28020Y41941D01*
X28098Y42024D01*
X28181Y42102D01*
X28268Y42173D01*
X28358Y42244D01*
X28449Y42307D01*
X28547Y42366D01*
X28646Y42421D01*
X28748Y42469D01*
X28854Y42512D01*
X28961Y42551D01*
X29071Y42583D01*
X29181Y42610D01*
X29291Y42630D01*
X29406Y42646D01*
X29516Y42654D01*
X29630Y42658D01*
X31992D01*
X32106Y42654D01*
D02*
G37*
G36*
X17146D02*
X17256Y42646D01*
X17370Y42630D01*
X17480Y42610D01*
X17591Y42583D01*
X17701Y42551D01*
X17807Y42512D01*
X17913Y42469D01*
X18016Y42421D01*
X18114Y42366D01*
X18213Y42307D01*
X18303Y42244D01*
X18394Y42173D01*
X18480Y42102D01*
X18563Y42024D01*
X18642Y41941D01*
X18713Y41854D01*
X18783Y41764D01*
X18846Y41673D01*
X18905Y41575D01*
X18961Y41476D01*
X19008Y41374D01*
X19051Y41268D01*
X19091Y41161D01*
X19122Y41051D01*
X19150Y40941D01*
X19169Y40831D01*
X19185Y40716D01*
X19193Y40606D01*
X19197Y40492D01*
X19193Y40378D01*
X19185Y40268D01*
X19169Y40154D01*
X19150Y40043D01*
X19122Y39933D01*
X19091Y39823D01*
X19051Y39717D01*
X19008Y39610D01*
X18961Y39508D01*
X18905Y39409D01*
X18846Y39311D01*
X18783Y39220D01*
X18713Y39130D01*
X18642Y39043D01*
X18563Y38961D01*
X18480Y38882D01*
X18394Y38811D01*
X18303Y38740D01*
X18213Y38677D01*
X18114Y38618D01*
X18016Y38563D01*
X17913Y38516D01*
X17807Y38472D01*
X17701Y38433D01*
X17591Y38402D01*
X17480Y38374D01*
X17370Y38354D01*
X17256Y38339D01*
X17146Y38331D01*
X17031Y38327D01*
X14669D01*
X14555Y38331D01*
X14445Y38339D01*
X14331Y38354D01*
X14220Y38374D01*
X14110Y38402D01*
X14000Y38433D01*
X13894Y38472D01*
X13787Y38516D01*
X13685Y38563D01*
X13587Y38618D01*
X13488Y38677D01*
X13398Y38740D01*
X13307Y38811D01*
X13220Y38882D01*
X13138Y38961D01*
X13059Y39043D01*
X12988Y39130D01*
X12917Y39220D01*
X12854Y39311D01*
X12795Y39409D01*
X12740Y39508D01*
X12693Y39610D01*
X12650Y39717D01*
X12610Y39823D01*
X12579Y39933D01*
X12551Y40043D01*
X12531Y40154D01*
X12516Y40268D01*
X12508Y40378D01*
X12504Y40492D01*
X12508Y40606D01*
X12516Y40716D01*
X12531Y40831D01*
X12551Y40941D01*
X12579Y41051D01*
X12610Y41161D01*
X12650Y41268D01*
X12693Y41374D01*
X12740Y41476D01*
X12795Y41575D01*
X12854Y41673D01*
X12917Y41764D01*
X12988Y41854D01*
X13059Y41941D01*
X13138Y42024D01*
X13220Y42102D01*
X13307Y42173D01*
X13398Y42244D01*
X13488Y42307D01*
X13587Y42366D01*
X13685Y42421D01*
X13787Y42469D01*
X13894Y42512D01*
X14000Y42551D01*
X14110Y42583D01*
X14220Y42610D01*
X14331Y42630D01*
X14445Y42646D01*
X14555Y42654D01*
X14669Y42658D01*
X17031D01*
X17146Y42654D01*
D02*
G37*
D14*
X23619Y139736D02*
G03*
X23619Y139737I-1000J0D01*
G01*
X23475Y142523D02*
G03*
X23619Y139786I28624J134D01*
G01*
X23500Y143000D02*
G03*
X23475Y142523I4428J-467D01*
G01*
X23500Y143000D02*
G03*
X23505Y143100I-995J100D01*
G01*
X28764Y147000D02*
G03*
X28646Y146993I0J-1000D01*
G01*
X14000Y137973D02*
Y143659D01*
X6500Y114464D02*
Y130473D01*
Y114464D02*
X14469Y106495D01*
X6500Y130473D02*
X14000Y137973D01*
X10531Y126234D02*
X23619Y139322D01*
X10531Y117161D02*
Y126234D01*
X14000Y143659D02*
X17841Y147500D01*
X22000D01*
X24000Y149500D01*
Y156000D01*
X26000Y158000D01*
X82000D01*
X82293Y157707D01*
X89000Y151000D01*
X23619Y139322D02*
Y139736D01*
Y139737D02*
Y139786D01*
X23475Y142523D02*
X23475D01*
X23505Y145005D02*
X23505Y143100D01*
X23505Y145005D02*
X25493Y146993D01*
X28646D01*
X28764Y147000D02*
X95000D01*
X99000Y151000D01*
X14469Y99839D02*
Y106495D01*
X26500Y78500D02*
X42500D01*
X23500Y81500D02*
X26500Y78500D01*
X10531Y87650D02*
X15181Y83000D01*
X10531Y87650D02*
Y99839D01*
X28445Y91512D02*
X32457Y87500D01*
Y83000D02*
Y87500D01*
X28445Y91512D02*
Y94268D01*
X44500Y89457D02*
X46555Y91512D01*
X43905Y88863D02*
X44500Y89457D01*
X41150Y88863D02*
X43905D01*
X39543Y83000D02*
Y87256D01*
X41150Y88863D01*
X46555Y91512D02*
Y94268D01*
X42500Y78500D02*
X44500Y80500D01*
Y89457D01*
X23500Y81500D02*
Y96000D01*
X16437Y112563D02*
Y117161D01*
Y112563D02*
X22500Y106500D01*
Y102969D02*
X28445Y97024D01*
X22500Y102969D02*
Y106500D01*
X28445Y94268D02*
Y97024D01*
X14469Y111531D02*
X20000Y106000D01*
X14469Y111531D02*
Y117161D01*
X20000Y99500D02*
Y106000D01*
Y99500D02*
X23500Y96000D01*
X16437Y101909D02*
X16528Y102000D01*
X16437Y99839D02*
Y101909D01*
D21*
X51000Y68819D02*
D03*
Y76181D02*
D03*
D24*
X103000Y98000D02*
D03*
Y125008D02*
D03*
D25*
X106236Y86000D02*
D03*
X113323D02*
D03*
X32457Y83000D02*
D03*
X39543D02*
D03*
D26*
X28500Y65543D02*
D03*
Y58457D02*
D03*
D46*
X90758Y130182D02*
Y130622D01*
X91500Y131365D01*
Y131500D01*
X77824Y127500D02*
X88075D01*
X90758Y130182D01*
X85468Y134968D02*
X96968D01*
X58500Y130000D02*
X80500D01*
X85468Y134968D01*
X53906Y79087D02*
Y113906D01*
X58412Y118412D02*
X61802D01*
X53906Y113906D02*
X58412Y118412D01*
X61802D02*
X63390Y120000D01*
Y122756D01*
X107763Y117000D02*
X112763Y122000D01*
X90935Y111974D02*
X95961Y117000D01*
X107763D01*
X112763Y122000D02*
X115500D01*
X96968Y134968D02*
X97000Y135000D01*
X84055Y108568D02*
Y110055D01*
X83103Y107616D02*
X84055Y108568D01*
Y110055D02*
X85974Y111974D01*
X73106Y93748D02*
X83103Y103745D01*
X85974Y111974D02*
X90935D01*
X83103Y103745D02*
Y107616D01*
X52795Y77976D02*
X53906Y79087D01*
X52795Y77150D02*
Y77976D01*
X51827Y76181D02*
X52795Y77150D01*
X51000Y76181D02*
X51827D01*
X75229Y124906D02*
X77824Y127500D01*
X65539Y124906D02*
X75229D01*
X63390Y122756D02*
X65539Y124906D01*
X91699Y73943D02*
X100142Y65500D01*
X91699Y73943D02*
Y75156D01*
X72445Y94410D02*
X91699Y75156D01*
X140004Y50500D02*
Y52134D01*
X136496Y55642D02*
X140004Y52134D01*
X134862Y55642D02*
X136496D01*
X125004Y65500D02*
X134862Y55642D01*
X100142Y65500D02*
X125004D01*
X81555Y110665D02*
Y119945D01*
X81500Y120000D02*
X81555Y119945D01*
X79994Y109104D02*
X81555Y110665D01*
X79994Y109006D02*
Y109104D01*
X120904Y119404D02*
Y121904D01*
X119000Y109500D02*
Y117500D01*
X120904Y119404D01*
Y121904D02*
X121000Y122000D01*
X101000Y100000D02*
X103000Y98000D01*
X86492Y100000D02*
X101000D01*
X51139Y122639D02*
X58500Y130000D01*
X40281Y122639D02*
X51139D01*
X37500Y119858D02*
X40281Y122639D01*
X103931Y125939D02*
Y134931D01*
X103000Y125008D02*
X103931Y125939D01*
Y134931D02*
X104000Y135000D01*
X121000Y122000D02*
Y127232D01*
X123953Y130185D01*
X143953Y132953D02*
Y146047D01*
X143000Y132000D02*
X143953Y132953D01*
X133953Y131765D02*
Y146047D01*
X130807Y115000D02*
Y128619D01*
X133953Y131765D01*
X123953Y130185D02*
Y143052D01*
X104634Y98000D02*
X107830Y101196D01*
X110696D01*
X119000Y109500D01*
X149000Y140557D02*
Y141000D01*
Y140557D02*
X152057Y137500D01*
X151500Y107500D02*
X155000Y111000D01*
X153828Y137500D02*
X155000Y136328D01*
X152057Y137500D02*
X153828D01*
X131220Y107500D02*
X151500D01*
X155000Y111000D02*
Y136328D01*
X124114Y114606D02*
X131220Y107500D01*
X139000Y151000D02*
X143953Y146047D01*
X129000Y151000D02*
X133953Y146047D01*
X99000Y151000D02*
X102744Y147256D01*
X120992D01*
X123894Y144355D01*
Y143111D02*
Y144355D01*
Y143111D02*
X123953Y143052D01*
X124114Y114606D02*
Y115000D01*
X103000Y98000D02*
X104634D01*
X106236Y96398D01*
Y86000D02*
Y96398D01*
X41389Y66389D02*
Y69389D01*
X41000Y66000D02*
X41389Y66389D01*
X28000Y66000D02*
X41000D01*
X19500Y79500D02*
Y95500D01*
Y79500D02*
X22500Y76500D01*
X54500Y37000D02*
X99496D01*
X112996Y50500D01*
X41000D02*
X54500Y37000D01*
X41000Y50500D02*
Y66000D01*
X150624Y115262D02*
Y131738D01*
Y115262D02*
X150886Y115000D01*
X150362Y132000D02*
X150624Y131738D01*
X138500Y121087D02*
X144193Y115394D01*
X138500Y126673D02*
X143000Y131173D01*
X138500Y121087D02*
Y126673D01*
X143000Y131173D02*
Y132000D01*
X144193Y115000D02*
Y115394D01*
X22500Y71500D02*
X28000Y66000D01*
X17000Y98000D02*
X19500Y95500D01*
X22500Y71500D02*
Y76500D01*
X47500Y75500D02*
X50319D01*
X51000Y76181D01*
X41389Y69389D02*
X47500Y75500D01*
D48*
X15850Y40492D02*
D03*
Y74508D02*
D03*
X30811Y40492D02*
D03*
Y74508D02*
D03*
D49*
X148941Y152303D02*
D03*
Y142303D02*
D03*
X138941Y152303D02*
D03*
Y142303D02*
D03*
X128941Y152303D02*
D03*
Y142303D02*
D03*
X118941Y152303D02*
D03*
Y142303D02*
D03*
X108941Y152303D02*
D03*
Y142303D02*
D03*
X98941Y152303D02*
D03*
Y142303D02*
D03*
X88941Y152303D02*
D03*
Y142303D02*
D03*
X78941Y152303D02*
D03*
Y142303D02*
D03*
X68941Y152303D02*
D03*
Y142303D02*
D03*
X58941Y152303D02*
D03*
Y142303D02*
D03*
X48941Y152303D02*
D03*
Y142303D02*
D03*
X38941Y152303D02*
D03*
Y142303D02*
D03*
X28941Y152303D02*
D03*
Y142303D02*
D03*
X18941Y152303D02*
D03*
Y142303D02*
D03*
X8941Y152303D02*
D03*
Y12382D02*
D03*
Y22382D02*
D03*
X18941Y12382D02*
D03*
Y22382D02*
D03*
X28941Y12382D02*
D03*
Y22382D02*
D03*
X38941Y12382D02*
D03*
Y22382D02*
D03*
X48941Y12382D02*
D03*
Y22382D02*
D03*
X58941Y12382D02*
D03*
Y22382D02*
D03*
X68941Y12382D02*
D03*
Y22382D02*
D03*
X78941Y12382D02*
D03*
Y22382D02*
D03*
X88941Y12382D02*
D03*
Y22382D02*
D03*
X98941Y12382D02*
D03*
Y22382D02*
D03*
X108941Y12382D02*
D03*
Y22382D02*
D03*
X118941Y12382D02*
D03*
Y22382D02*
D03*
X128941Y12382D02*
D03*
Y22382D02*
D03*
X138941Y12382D02*
D03*
Y22382D02*
D03*
X148941Y12382D02*
D03*
D50*
X8941Y142303D02*
D03*
X148941Y22382D02*
D03*
D51*
X64394Y54500D02*
D03*
X83606D02*
D03*
D52*
X91500Y131500D02*
D03*
X94104Y128396D02*
D03*
X89589Y115224D02*
D03*
X52500Y129500D02*
D03*
X62381Y108878D02*
D03*
X59724Y111372D02*
D03*
X64250Y111845D02*
D03*
X73250Y111208D02*
D03*
X75945Y114556D02*
D03*
X41293Y101500D02*
D03*
X42000Y105000D02*
D03*
X87529Y108923D02*
D03*
X87292Y105431D02*
D03*
X96194Y77306D02*
D03*
X99000Y84000D02*
D03*
X90709Y90285D02*
D03*
X88500Y93000D02*
D03*
X87000Y96500D02*
D03*
X109250Y104363D02*
D03*
X94500Y124000D02*
D03*
X73085Y119729D02*
D03*
X54335Y121104D02*
D03*
X57100Y123250D02*
D03*
X121000Y122000D02*
D03*
X87000Y89500D02*
D03*
X89500Y87000D02*
D03*
X47000Y105500D02*
D03*
X115500Y122000D02*
D03*
X87000Y121000D02*
D03*
X64250Y65750D02*
D03*
X58444Y63556D02*
D03*
X58500Y54500D02*
D03*
X54511Y55011D02*
D03*
X69689Y120578D02*
D03*
X103963Y106443D02*
D03*
D53*
X74700Y72309D02*
D03*
X114500Y166575D02*
D03*
X141024Y170855D02*
D03*
X131025Y169855D02*
D03*
X152500Y169000D02*
D03*
X91500Y166000D02*
D03*
D54*
X106000Y110957D02*
D03*
X124752Y107028D02*
D03*
X126515Y122991D02*
D03*
X113500Y138500D02*
D03*
X139000Y90000D02*
D03*
X143500Y91000D02*
D03*
X139340Y93823D02*
D03*
X106000Y69500D02*
D03*
X102000Y77500D02*
D03*
X101500Y80500D02*
D03*
X29500Y134000D02*
D03*
X13500Y133000D02*
D03*
X160185Y170020D02*
D03*
Y166083D02*
D03*
Y162146D02*
D03*
Y158209D02*
D03*
Y154272D02*
D03*
Y150335D02*
D03*
Y146398D02*
D03*
Y142461D02*
D03*
Y138524D02*
D03*
Y134587D02*
D03*
Y130650D02*
D03*
Y126713D02*
D03*
Y122776D02*
D03*
Y118839D02*
D03*
Y114902D02*
D03*
Y110965D02*
D03*
Y107028D02*
D03*
Y103091D02*
D03*
Y99154D02*
D03*
Y95217D02*
D03*
Y91280D02*
D03*
Y87343D02*
D03*
Y83406D02*
D03*
Y79469D02*
D03*
Y75532D02*
D03*
Y71595D02*
D03*
Y67658D02*
D03*
Y63721D02*
D03*
Y59784D02*
D03*
Y55847D02*
D03*
Y51910D02*
D03*
Y47973D02*
D03*
Y44036D02*
D03*
Y40099D02*
D03*
Y36162D02*
D03*
Y32225D02*
D03*
Y28288D02*
D03*
Y24351D02*
D03*
Y20414D02*
D03*
Y16477D02*
D03*
Y12539D02*
D03*
Y8602D02*
D03*
Y4665D02*
D03*
X156248Y170020D02*
D03*
Y166083D02*
D03*
Y162146D02*
D03*
Y158209D02*
D03*
Y91280D02*
D03*
Y87343D02*
D03*
Y83406D02*
D03*
Y79469D02*
D03*
Y75532D02*
D03*
Y71595D02*
D03*
Y67658D02*
D03*
Y63721D02*
D03*
Y59784D02*
D03*
Y55847D02*
D03*
Y51910D02*
D03*
Y47973D02*
D03*
Y44036D02*
D03*
Y40099D02*
D03*
Y36162D02*
D03*
Y32225D02*
D03*
Y28288D02*
D03*
Y24351D02*
D03*
Y20414D02*
D03*
Y16477D02*
D03*
Y12539D02*
D03*
Y8602D02*
D03*
Y4665D02*
D03*
X152311Y162146D02*
D03*
Y67658D02*
D03*
Y63721D02*
D03*
Y59784D02*
D03*
Y55847D02*
D03*
Y51910D02*
D03*
Y47973D02*
D03*
Y44036D02*
D03*
Y40099D02*
D03*
Y36162D02*
D03*
Y32225D02*
D03*
Y28288D02*
D03*
Y16477D02*
D03*
Y8602D02*
D03*
Y4665D02*
D03*
X148374Y170020D02*
D03*
Y4665D02*
D03*
X144437Y170020D02*
D03*
Y67658D02*
D03*
Y63721D02*
D03*
Y59784D02*
D03*
Y40099D02*
D03*
Y36162D02*
D03*
Y32225D02*
D03*
Y28288D02*
D03*
Y16477D02*
D03*
Y8602D02*
D03*
Y4665D02*
D03*
X140500Y67658D02*
D03*
Y63721D02*
D03*
Y59784D02*
D03*
Y40099D02*
D03*
Y36162D02*
D03*
Y4665D02*
D03*
X136563Y170020D02*
D03*
Y110965D02*
D03*
Y103091D02*
D03*
Y32225D02*
D03*
Y28288D02*
D03*
Y4665D02*
D03*
X132626Y162146D02*
D03*
Y103091D02*
D03*
Y67658D02*
D03*
Y63721D02*
D03*
Y51910D02*
D03*
Y47973D02*
D03*
Y44036D02*
D03*
Y40099D02*
D03*
Y36162D02*
D03*
Y32225D02*
D03*
Y28288D02*
D03*
Y16477D02*
D03*
Y8602D02*
D03*
Y4665D02*
D03*
X128689D02*
D03*
X124752Y170020D02*
D03*
Y59784D02*
D03*
Y55847D02*
D03*
Y51910D02*
D03*
Y47973D02*
D03*
Y44036D02*
D03*
Y40099D02*
D03*
Y36162D02*
D03*
Y32225D02*
D03*
Y28288D02*
D03*
Y16477D02*
D03*
Y8602D02*
D03*
Y4665D02*
D03*
X120815Y170020D02*
D03*
Y166083D02*
D03*
Y162146D02*
D03*
Y4665D02*
D03*
X116878Y170020D02*
D03*
Y162146D02*
D03*
Y71595D02*
D03*
Y40099D02*
D03*
Y36162D02*
D03*
Y32225D02*
D03*
Y28288D02*
D03*
Y4665D02*
D03*
X112941Y170020D02*
D03*
Y40099D02*
D03*
Y36162D02*
D03*
Y32225D02*
D03*
Y28288D02*
D03*
Y16477D02*
D03*
Y8602D02*
D03*
Y4665D02*
D03*
X109004Y170020D02*
D03*
Y4665D02*
D03*
X105067Y170020D02*
D03*
Y16477D02*
D03*
Y8602D02*
D03*
Y4665D02*
D03*
X101130Y170020D02*
D03*
Y51910D02*
D03*
Y47973D02*
D03*
Y32225D02*
D03*
Y28288D02*
D03*
Y4665D02*
D03*
X97193Y170020D02*
D03*
Y63721D02*
D03*
Y59784D02*
D03*
Y55847D02*
D03*
Y51910D02*
D03*
Y47973D02*
D03*
Y44036D02*
D03*
Y32225D02*
D03*
Y28288D02*
D03*
Y4665D02*
D03*
X93256Y170020D02*
D03*
Y83406D02*
D03*
Y63721D02*
D03*
Y59784D02*
D03*
Y55847D02*
D03*
Y51910D02*
D03*
Y47973D02*
D03*
Y44036D02*
D03*
Y32225D02*
D03*
Y28288D02*
D03*
Y16477D02*
D03*
Y8602D02*
D03*
Y4665D02*
D03*
X89319Y170020D02*
D03*
Y162146D02*
D03*
Y4665D02*
D03*
X85382Y170020D02*
D03*
Y166083D02*
D03*
Y162146D02*
D03*
Y16477D02*
D03*
Y8602D02*
D03*
Y4665D02*
D03*
X81445Y170020D02*
D03*
Y166083D02*
D03*
Y162146D02*
D03*
Y4665D02*
D03*
X77508Y170020D02*
D03*
Y166083D02*
D03*
Y162146D02*
D03*
Y4665D02*
D03*
X73571Y170020D02*
D03*
Y166083D02*
D03*
Y162146D02*
D03*
Y154272D02*
D03*
Y150335D02*
D03*
Y51910D02*
D03*
Y47973D02*
D03*
Y44036D02*
D03*
Y28288D02*
D03*
Y24351D02*
D03*
Y20414D02*
D03*
Y16477D02*
D03*
Y8602D02*
D03*
Y4665D02*
D03*
X69634Y170020D02*
D03*
Y166083D02*
D03*
Y162146D02*
D03*
Y55847D02*
D03*
Y51910D02*
D03*
Y47973D02*
D03*
Y4665D02*
D03*
X65697Y170020D02*
D03*
Y166083D02*
D03*
Y162146D02*
D03*
Y47973D02*
D03*
Y44036D02*
D03*
Y28288D02*
D03*
Y16477D02*
D03*
Y8602D02*
D03*
Y4665D02*
D03*
X61760Y170020D02*
D03*
Y166083D02*
D03*
Y162146D02*
D03*
Y47973D02*
D03*
Y16477D02*
D03*
Y4665D02*
D03*
X57823Y170020D02*
D03*
Y166083D02*
D03*
Y162146D02*
D03*
Y99154D02*
D03*
Y95217D02*
D03*
Y91280D02*
D03*
Y87343D02*
D03*
Y83406D02*
D03*
Y79469D02*
D03*
Y4665D02*
D03*
X53886Y170020D02*
D03*
Y166083D02*
D03*
Y162146D02*
D03*
Y154272D02*
D03*
Y24351D02*
D03*
Y20414D02*
D03*
Y16477D02*
D03*
Y12539D02*
D03*
Y8602D02*
D03*
Y4665D02*
D03*
X49949Y170020D02*
D03*
Y166083D02*
D03*
Y83406D02*
D03*
Y51910D02*
D03*
Y47973D02*
D03*
Y4665D02*
D03*
X46012Y170020D02*
D03*
Y166083D02*
D03*
Y67658D02*
D03*
Y36162D02*
D03*
Y28288D02*
D03*
Y16477D02*
D03*
Y4665D02*
D03*
X42075Y170020D02*
D03*
Y166083D02*
D03*
Y75532D02*
D03*
Y32225D02*
D03*
Y28288D02*
D03*
Y16477D02*
D03*
Y4665D02*
D03*
X38138Y170020D02*
D03*
Y166083D02*
D03*
Y75532D02*
D03*
Y47973D02*
D03*
Y44036D02*
D03*
Y4665D02*
D03*
X34201Y170020D02*
D03*
Y166083D02*
D03*
Y154272D02*
D03*
Y150335D02*
D03*
Y71595D02*
D03*
Y28288D02*
D03*
Y24351D02*
D03*
Y20414D02*
D03*
Y16477D02*
D03*
Y8602D02*
D03*
Y4665D02*
D03*
X30264Y170020D02*
D03*
Y166083D02*
D03*
Y36162D02*
D03*
Y4665D02*
D03*
X26327Y170020D02*
D03*
Y166083D02*
D03*
Y32225D02*
D03*
Y28288D02*
D03*
Y4665D02*
D03*
X22390Y170020D02*
D03*
Y166083D02*
D03*
Y28288D02*
D03*
Y16477D02*
D03*
Y8602D02*
D03*
Y4665D02*
D03*
X18453Y170020D02*
D03*
Y166083D02*
D03*
Y162146D02*
D03*
Y67658D02*
D03*
Y63721D02*
D03*
Y59784D02*
D03*
Y55847D02*
D03*
Y51910D02*
D03*
Y47973D02*
D03*
Y44036D02*
D03*
Y4665D02*
D03*
X14516Y170020D02*
D03*
Y166083D02*
D03*
Y162146D02*
D03*
Y91280D02*
D03*
Y67658D02*
D03*
Y63721D02*
D03*
Y59784D02*
D03*
Y55847D02*
D03*
Y51910D02*
D03*
Y47973D02*
D03*
Y36162D02*
D03*
Y16477D02*
D03*
Y8602D02*
D03*
Y4665D02*
D03*
X10579Y170020D02*
D03*
Y166083D02*
D03*
Y162146D02*
D03*
Y75532D02*
D03*
Y71595D02*
D03*
Y67658D02*
D03*
Y63721D02*
D03*
Y59784D02*
D03*
Y55847D02*
D03*
Y51910D02*
D03*
Y47973D02*
D03*
Y44036D02*
D03*
Y40099D02*
D03*
Y36162D02*
D03*
Y32225D02*
D03*
Y4665D02*
D03*
X6642Y170020D02*
D03*
Y166083D02*
D03*
Y162146D02*
D03*
Y107028D02*
D03*
Y95217D02*
D03*
Y91280D02*
D03*
Y87343D02*
D03*
Y75532D02*
D03*
Y71595D02*
D03*
Y67658D02*
D03*
Y63721D02*
D03*
Y59784D02*
D03*
Y55847D02*
D03*
Y51910D02*
D03*
Y47973D02*
D03*
Y44036D02*
D03*
Y40099D02*
D03*
Y36162D02*
D03*
Y32225D02*
D03*
Y28288D02*
D03*
Y4665D02*
D03*
X2705Y170020D02*
D03*
Y166083D02*
D03*
Y162146D02*
D03*
Y158209D02*
D03*
Y126713D02*
D03*
Y122776D02*
D03*
Y118839D02*
D03*
Y114902D02*
D03*
Y110965D02*
D03*
Y107028D02*
D03*
Y103091D02*
D03*
Y99154D02*
D03*
Y95217D02*
D03*
Y91280D02*
D03*
Y87343D02*
D03*
Y83406D02*
D03*
Y79469D02*
D03*
Y75532D02*
D03*
Y71595D02*
D03*
Y67658D02*
D03*
Y63721D02*
D03*
Y59784D02*
D03*
Y55847D02*
D03*
Y51910D02*
D03*
Y47973D02*
D03*
Y44036D02*
D03*
Y40099D02*
D03*
Y36162D02*
D03*
Y32225D02*
D03*
Y28288D02*
D03*
Y24351D02*
D03*
Y20414D02*
D03*
Y16477D02*
D03*
Y12539D02*
D03*
Y8602D02*
D03*
Y4665D02*
D03*
D55*
X97000Y135000D02*
D03*
X86492Y100000D02*
D03*
X79994Y109006D02*
D03*
X104000Y135000D02*
D03*
D56*
X39500Y68000D02*
D03*
D57*
X81500Y120000D02*
D03*
X63390D02*
D03*
X46555Y94268D02*
D03*
X28445D02*
D03*
D58*
X72445Y94410D02*
D03*
X37500Y119858D02*
D03*
D59*
X124114Y115000D02*
D03*
X150886D02*
D03*
X144193D02*
D03*
X137500D02*
D03*
X130807D02*
D03*
D60*
X138000Y83661D02*
D03*
D61*
X143319Y124000D02*
D03*
X150681D02*
D03*
X150362Y132000D02*
D03*
X143000D02*
D03*
X15181Y83000D02*
D03*
X7819D02*
D03*
D62*
X140004Y50500D02*
D03*
X112996D02*
D03*
D63*
X16437Y117161D02*
D03*
X14469D02*
D03*
X12500D02*
D03*
X10531D02*
D03*
X8563D02*
D03*
Y99839D02*
D03*
X10531D02*
D03*
X12500D02*
D03*
X14469D02*
D03*
X16437D02*
D03*
M02*
