G04*
G04 #@! TF.GenerationSoftware,Altium Limited,Altium Designer,22.0.2 (36)*
G04*
G04 Layer_Color=8421504*
%FSLAX25Y25*%
%MOIN*%
G70*
G04*
G04 #@! TF.SameCoordinates,5F5B6C63-6FB6-4E28-9BE5-C2605847C7C1*
G04*
G04*
G04 #@! TF.FilePolarity,Positive*
G04*
G01*
G75*
%ADD15R,0.04724X0.02756*%
%ADD16R,0.04724X0.02992*%
%ADD17R,0.04724X0.03150*%
%ADD18C,0.06000*%
%ADD19R,0.02410X0.06062*%
G04:AMPARAMS|DCode=20|XSize=60.62mil|YSize=24.1mil|CornerRadius=12.05mil|HoleSize=0mil|Usage=FLASHONLY|Rotation=270.000|XOffset=0mil|YOffset=0mil|HoleType=Round|Shape=RoundedRectangle|*
%AMROUNDEDRECTD20*
21,1,0.06062,0.00000,0,0,270.0*
21,1,0.03652,0.02410,0,0,270.0*
1,1,0.02410,0.00000,-0.01826*
1,1,0.02410,0.00000,0.01826*
1,1,0.02410,0.00000,0.01826*
1,1,0.02410,0.00000,-0.01826*
%
%ADD20ROUNDEDRECTD20*%
G04:AMPARAMS|DCode=21|XSize=39.37mil|YSize=55.91mil|CornerRadius=4.92mil|HoleSize=0mil|Usage=FLASHONLY|Rotation=90.000|XOffset=0mil|YOffset=0mil|HoleType=Round|Shape=RoundedRectangle|*
%AMROUNDEDRECTD21*
21,1,0.03937,0.04606,0,0,90.0*
21,1,0.02953,0.05591,0,0,90.0*
1,1,0.00984,0.02303,0.01476*
1,1,0.00984,0.02303,-0.01476*
1,1,0.00984,-0.02303,-0.01476*
1,1,0.00984,-0.02303,0.01476*
%
%ADD21ROUNDEDRECTD21*%
%ADD22R,0.21700X0.08500*%
%ADD23R,0.05787X0.04724*%
%ADD24R,0.12284X0.09016*%
%ADD25R,0.04528X0.05709*%
%ADD26R,0.05709X0.04528*%
%ADD27R,0.01181X0.05807*%
%ADD28R,0.05807X0.01181*%
%ADD29R,0.02756X0.06004*%
D15*
X31126Y55532D02*
D03*
Y59469D02*
D03*
D16*
Y51516D02*
D03*
Y63484D02*
D03*
D17*
Y46673D02*
D03*
Y68327D02*
D03*
D18*
X107000Y164000D02*
D03*
X98000D02*
D03*
X127000Y163500D02*
D03*
X138000Y164500D02*
D03*
X147500Y163500D02*
D03*
D19*
X147740Y132000D02*
D03*
D20*
X144000D02*
D03*
X140260D02*
D03*
Y122429D02*
D03*
X147740D02*
D03*
D21*
X79500Y32819D02*
D03*
Y40181D02*
D03*
X70000Y32819D02*
D03*
Y40181D02*
D03*
X59000Y32819D02*
D03*
Y40181D02*
D03*
X50000Y32819D02*
D03*
Y40181D02*
D03*
X112000Y92819D02*
D03*
Y100181D02*
D03*
X120500D02*
D03*
Y92819D02*
D03*
D22*
X123000Y114400D02*
D03*
Y129600D02*
D03*
D23*
X111500Y57114D02*
D03*
Y63886D02*
D03*
D24*
X145500Y80496D02*
D03*
Y107504D02*
D03*
D25*
X76457Y68500D02*
D03*
X83543D02*
D03*
X92957Y72000D02*
D03*
X100043D02*
D03*
X34795Y96795D02*
D03*
X27709D02*
D03*
X60043Y72000D02*
D03*
X52957D02*
D03*
X41043Y88000D02*
D03*
X33957D02*
D03*
D26*
X88500Y40043D02*
D03*
Y32957D02*
D03*
X45500Y52457D02*
D03*
Y59543D02*
D03*
X102500Y64043D02*
D03*
Y56957D02*
D03*
X41000Y128043D02*
D03*
Y120957D02*
D03*
X106000Y118043D02*
D03*
Y110957D02*
D03*
X120000Y64000D02*
D03*
Y56913D02*
D03*
X128000Y99543D02*
D03*
Y92457D02*
D03*
Y78957D02*
D03*
Y86043D02*
D03*
X8500Y129043D02*
D03*
Y121957D02*
D03*
X116000Y78957D02*
D03*
Y86043D02*
D03*
D27*
X60736Y80910D02*
D03*
X62705D02*
D03*
X64673D02*
D03*
X66642D02*
D03*
X68610D02*
D03*
X70579D02*
D03*
X72547D02*
D03*
X74516D02*
D03*
X76484D02*
D03*
X78453D02*
D03*
X80421D02*
D03*
X82390D02*
D03*
X84358D02*
D03*
X86327D02*
D03*
X88295D02*
D03*
X90264D02*
D03*
Y126091D02*
D03*
X88295D02*
D03*
X86327D02*
D03*
X84358D02*
D03*
X82390D02*
D03*
X80421D02*
D03*
X78453D02*
D03*
X76484D02*
D03*
X74516D02*
D03*
X72547D02*
D03*
X70579D02*
D03*
X68610D02*
D03*
X66642D02*
D03*
X64673D02*
D03*
X62705D02*
D03*
X60736D02*
D03*
D28*
X98090Y88736D02*
D03*
Y90705D02*
D03*
Y92673D02*
D03*
Y94642D02*
D03*
Y96610D02*
D03*
Y98579D02*
D03*
Y100547D02*
D03*
Y102516D02*
D03*
Y104484D02*
D03*
Y106453D02*
D03*
Y108421D02*
D03*
Y110390D02*
D03*
Y112358D02*
D03*
Y114327D02*
D03*
Y116295D02*
D03*
Y118264D02*
D03*
X52909D02*
D03*
Y116295D02*
D03*
Y114327D02*
D03*
Y112358D02*
D03*
Y110390D02*
D03*
Y108421D02*
D03*
Y106453D02*
D03*
Y104484D02*
D03*
Y102516D02*
D03*
Y100547D02*
D03*
Y98579D02*
D03*
Y96610D02*
D03*
Y94642D02*
D03*
Y92673D02*
D03*
Y90705D02*
D03*
Y88736D02*
D03*
D29*
X32000Y128177D02*
D03*
X27000D02*
D03*
X22000D02*
D03*
X17000D02*
D03*
Y106823D02*
D03*
X22000D02*
D03*
X27000D02*
D03*
X32000D02*
D03*
M02*
