G04*
G04 #@! TF.GenerationSoftware,Altium Limited,Altium Designer,22.0.2 (36)*
G04*
G04 Layer_Physical_Order=1*
G04 Layer_Color=255*
%FSLAX25Y25*%
%MOIN*%
G70*
G04*
G04 #@! TF.SameCoordinates,5F5B6C63-6FB6-4E28-9BE5-C2605847C7C1*
G04*
G04*
G04 #@! TF.FilePolarity,Positive*
G04*
G01*
G75*
%ADD14C,0.01000*%
%ADD15R,0.04724X0.02756*%
%ADD16R,0.04724X0.02992*%
%ADD17R,0.04724X0.03150*%
%ADD18C,0.06000*%
%ADD19R,0.02410X0.06062*%
G04:AMPARAMS|DCode=20|XSize=60.62mil|YSize=24.1mil|CornerRadius=12.05mil|HoleSize=0mil|Usage=FLASHONLY|Rotation=270.000|XOffset=0mil|YOffset=0mil|HoleType=Round|Shape=RoundedRectangle|*
%AMROUNDEDRECTD20*
21,1,0.06062,0.00000,0,0,270.0*
21,1,0.03652,0.02410,0,0,270.0*
1,1,0.02410,0.00000,-0.01826*
1,1,0.02410,0.00000,0.01826*
1,1,0.02410,0.00000,0.01826*
1,1,0.02410,0.00000,-0.01826*
%
%ADD20ROUNDEDRECTD20*%
G04:AMPARAMS|DCode=21|XSize=39.37mil|YSize=55.91mil|CornerRadius=4.92mil|HoleSize=0mil|Usage=FLASHONLY|Rotation=90.000|XOffset=0mil|YOffset=0mil|HoleType=Round|Shape=RoundedRectangle|*
%AMROUNDEDRECTD21*
21,1,0.03937,0.04606,0,0,90.0*
21,1,0.02953,0.05591,0,0,90.0*
1,1,0.00984,0.02303,0.01476*
1,1,0.00984,0.02303,-0.01476*
1,1,0.00984,-0.02303,-0.01476*
1,1,0.00984,-0.02303,0.01476*
%
%ADD21ROUNDEDRECTD21*%
%ADD22R,0.21700X0.08500*%
%ADD23R,0.05787X0.04724*%
%ADD24R,0.12284X0.09016*%
%ADD25R,0.04528X0.05709*%
%ADD26R,0.05709X0.04528*%
%ADD27R,0.01181X0.05807*%
%ADD28R,0.05807X0.01181*%
%ADD29R,0.02756X0.06004*%
%ADD46C,0.02000*%
%ADD47C,0.01968*%
%ADD48O,0.06299X0.03150*%
%ADD49C,0.05906*%
%ADD50R,0.05906X0.05906*%
%ADD51C,0.03965*%
%ADD52C,0.02500*%
%ADD53C,0.03000*%
%ADD54C,0.01968*%
%ADD55C,0.02362*%
%ADD56C,0.05000*%
G36*
X163971Y1364D02*
X1675D01*
Y131728D01*
X2175Y131894D01*
X4646Y129423D01*
Y125779D01*
X12354D01*
Y127004D01*
X14622D01*
Y124175D01*
X19378D01*
Y124175D01*
X19461D01*
X19961Y123816D01*
Y122845D01*
X10058Y112942D01*
X9616Y112280D01*
X9461Y111500D01*
Y90075D01*
X9616Y89295D01*
X10058Y88633D01*
X18633Y80058D01*
X19295Y79616D01*
X20075Y79461D01*
X46500D01*
X46666Y79494D01*
X48601Y77558D01*
X49263Y77116D01*
X50043Y76961D01*
X52789D01*
X53434Y76316D01*
X53252Y75877D01*
Y72000D01*
Y68146D01*
X53963D01*
X54155Y67684D01*
X51500Y65029D01*
X42199D01*
X42035Y65413D01*
X42016Y65529D01*
X42557Y66235D01*
X42910Y67086D01*
X43030Y68000D01*
X42910Y68914D01*
X42557Y69765D01*
X41996Y70496D01*
X41265Y71057D01*
X40414Y71410D01*
X39500Y71530D01*
X38586Y71410D01*
X37735Y71057D01*
X37004Y70496D01*
X36443Y69765D01*
X36090Y68914D01*
X35970Y68000D01*
X36090Y67086D01*
X36386Y66372D01*
X36322Y66049D01*
Y65523D01*
X34488D01*
Y68032D01*
X31126D01*
X27764D01*
Y65752D01*
Y60988D01*
Y57091D01*
Y53154D01*
Y49020D01*
Y46968D01*
X31126D01*
X34488D01*
Y49961D01*
X35828D01*
X36609Y50116D01*
X37270Y50558D01*
X38442Y51730D01*
X38442Y51730D01*
X38471Y51773D01*
X38971Y51621D01*
Y48854D01*
X39087Y48269D01*
X39419Y47773D01*
X46176Y41016D01*
Y38705D01*
X46291Y38122D01*
X46621Y37629D01*
X47115Y37299D01*
X47697Y37183D01*
X52303D01*
X52885Y37299D01*
X53379Y37629D01*
X53709Y38122D01*
X53814Y38652D01*
X55186D01*
X55291Y38122D01*
X55621Y37629D01*
X56115Y37299D01*
X56697Y37183D01*
X61303D01*
X61885Y37299D01*
X62379Y37629D01*
X62709Y38122D01*
X62814Y38652D01*
X66186D01*
X66291Y38122D01*
X66621Y37629D01*
X67115Y37299D01*
X67697Y37183D01*
X72303D01*
X72885Y37299D01*
X73379Y37629D01*
X73709Y38122D01*
X73814Y38652D01*
X75686D01*
X75791Y38122D01*
X76121Y37629D01*
X76615Y37299D01*
X77197Y37183D01*
X81162D01*
X82072Y36273D01*
X81826Y35812D01*
X81803Y35817D01*
X77197D01*
X76615Y35701D01*
X76121Y35371D01*
X75791Y34877D01*
X75675Y34295D01*
Y31343D01*
X75791Y30760D01*
X76121Y30267D01*
X76615Y29937D01*
X77197Y29821D01*
X77971D01*
Y26241D01*
X77909Y26233D01*
X76947Y25835D01*
X76122Y25201D01*
X75488Y24375D01*
X75090Y23414D01*
X74954Y22382D01*
X75090Y21350D01*
X75488Y20389D01*
X76122Y19563D01*
X76947Y18929D01*
X77909Y18531D01*
X78941Y18395D01*
X79973Y18531D01*
X80934Y18929D01*
X81760Y19563D01*
X82394Y20389D01*
X82792Y21350D01*
X82928Y22382D01*
X82792Y23414D01*
X82394Y24375D01*
X81760Y25201D01*
X81029Y25762D01*
Y29821D01*
X81803D01*
X82385Y29937D01*
X82879Y30267D01*
X83209Y30760D01*
X83324Y31343D01*
Y34295D01*
X83255Y34643D01*
X83655Y35041D01*
X84008Y34971D01*
X84646D01*
Y33252D01*
X88500D01*
X92354D01*
Y34971D01*
X97000D01*
X97585Y35087D01*
X98081Y35419D01*
X112581Y49919D01*
X112913Y50415D01*
X113029Y51000D01*
Y53752D01*
X115394D01*
Y58314D01*
X115459Y58378D01*
X115908D01*
X116146Y58183D01*
Y57209D01*
X119705D01*
Y60177D01*
X119529D01*
X119270Y60677D01*
X119312Y60736D01*
X123854D01*
Y67264D01*
X118308D01*
X114859Y70713D01*
X114363Y71045D01*
X114057Y71106D01*
X111029Y74133D01*
Y88000D01*
X110913Y88585D01*
X110581Y89081D01*
X110304Y89359D01*
X110495Y89821D01*
X111705D01*
Y92524D01*
X108176D01*
Y92141D01*
X107714Y91949D01*
X106759Y92904D01*
X106263Y93235D01*
X105678Y93352D01*
X104990D01*
X104678Y93664D01*
X104182Y93996D01*
X103597Y94112D01*
X101994D01*
Y99018D01*
X105434D01*
X106020Y99134D01*
X106516Y99466D01*
X107714Y100664D01*
X108176Y100472D01*
Y98705D01*
X108291Y98123D01*
X108621Y97629D01*
X109115Y97299D01*
X109697Y97183D01*
X112961D01*
X113214Y96804D01*
X113740Y96279D01*
X113548Y95817D01*
X112295D01*
Y92819D01*
Y89821D01*
X114002D01*
X114359Y89352D01*
X114361Y89339D01*
X114349Y89307D01*
X112146D01*
Y82780D01*
X119854D01*
Y82975D01*
X120316Y83166D01*
X122025Y81458D01*
X121833Y80996D01*
X119854D01*
Y82221D01*
X112146D01*
Y75693D01*
X119854D01*
Y76917D01*
X124146D01*
Y75693D01*
X131854D01*
Y78457D01*
X138358D01*
Y74988D01*
X152642D01*
Y83807D01*
X152681Y84004D01*
Y92474D01*
X158265Y98058D01*
X158265Y98058D01*
X158707Y98720D01*
X158862Y99500D01*
X158862Y99500D01*
Y100181D01*
X158868Y100191D01*
X159023Y100971D01*
Y152516D01*
X158868Y153296D01*
X158426Y153958D01*
X152942Y159442D01*
X152280Y159884D01*
X151500Y160039D01*
X150338D01*
X150178Y160513D01*
X150353Y160647D01*
X150994Y161483D01*
X151397Y162456D01*
X151534Y163500D01*
X151397Y164544D01*
X151122Y165209D01*
X152386Y166474D01*
X152500Y166451D01*
X153475Y166645D01*
X154302Y167198D01*
X154855Y168025D01*
X155049Y169000D01*
X154855Y169975D01*
X154302Y170802D01*
X153475Y171355D01*
X152500Y171549D01*
X151524Y171355D01*
X150698Y170802D01*
X150145Y169975D01*
X149951Y169000D01*
X150057Y168469D01*
X148855Y167268D01*
X148544Y167397D01*
X147500Y167534D01*
X146456Y167397D01*
X145483Y166994D01*
X144647Y166353D01*
X144006Y165517D01*
X143603Y164544D01*
X143465Y163500D01*
X143603Y162456D01*
X144006Y161483D01*
X144647Y160647D01*
X144823Y160513D01*
X144662Y160039D01*
X138593D01*
X138560Y160539D01*
X139044Y160603D01*
X140017Y161006D01*
X140853Y161647D01*
X141494Y162483D01*
X141897Y163456D01*
X142034Y164500D01*
X141897Y165544D01*
X141494Y166517D01*
X141323Y166740D01*
X141723Y167141D01*
X142055Y167637D01*
X142171Y168222D01*
Y168614D01*
X142827Y169053D01*
X143379Y169879D01*
X143573Y170855D01*
X143379Y171830D01*
X142827Y172657D01*
X142000Y173210D01*
X141024Y173404D01*
X140049Y173210D01*
X139222Y172657D01*
X138670Y171830D01*
X138476Y170855D01*
X138670Y169879D01*
X139112Y169217D01*
Y168856D01*
X138699Y168442D01*
X138000Y168535D01*
X136956Y168397D01*
X135983Y167994D01*
X135147Y167353D01*
X134506Y166517D01*
X134103Y165544D01*
X133966Y164500D01*
X134103Y163456D01*
X134506Y162483D01*
X135147Y161647D01*
X135983Y161006D01*
X136956Y160603D01*
X137440Y160539D01*
X137407Y160039D01*
X134943D01*
X134163Y159884D01*
X133501Y159442D01*
X130143Y156084D01*
X129973Y156154D01*
X128941Y156290D01*
X127909Y156154D01*
X126947Y155756D01*
X126786Y155632D01*
X126743Y155640D01*
X121780Y160603D01*
X121119Y161046D01*
X120338Y161201D01*
X117922D01*
X117922Y161201D01*
X110459D01*
X110238Y161649D01*
X110494Y161983D01*
X110802Y162726D01*
X112495D01*
X113275Y162881D01*
X113937Y163323D01*
X114674Y164061D01*
X115475Y164220D01*
X116302Y164773D01*
X116855Y165600D01*
X117049Y166575D01*
X116855Y167551D01*
X116302Y168378D01*
X115475Y168930D01*
X114500Y169124D01*
X113524Y168930D01*
X112698Y168378D01*
X112145Y167551D01*
X112083Y167237D01*
X111650Y166805D01*
X109890D01*
X109853Y166853D01*
X109017Y167494D01*
X108044Y167897D01*
X107000Y168035D01*
X105956Y167897D01*
X104983Y167494D01*
X104147Y166853D01*
X103506Y166017D01*
X103103Y165044D01*
X102965Y164000D01*
X103103Y162956D01*
X103506Y161983D01*
X103762Y161649D01*
X103541Y161201D01*
X101459D01*
X101238Y161649D01*
X101494Y161983D01*
X101897Y162956D01*
X102034Y164000D01*
X101897Y165044D01*
X101494Y166017D01*
X100853Y166853D01*
X100017Y167494D01*
X99044Y167897D01*
X98000Y168035D01*
X96956Y167897D01*
X95983Y167494D01*
X95147Y166853D01*
X95110Y166805D01*
X93889D01*
X93855Y166975D01*
X93302Y167802D01*
X92475Y168355D01*
X91500Y168549D01*
X90525Y168355D01*
X89698Y167802D01*
X89145Y166975D01*
X88951Y166000D01*
X89145Y165024D01*
X89698Y164198D01*
X90525Y163645D01*
X91420Y163467D01*
X91563Y163323D01*
X91563Y163323D01*
X92225Y162881D01*
X93005Y162726D01*
X94198D01*
X94506Y161983D01*
X94762Y161649D01*
X94541Y161201D01*
X8657D01*
X7877Y161046D01*
X7215Y160603D01*
X2175Y155563D01*
X1675Y155729D01*
Y175471D01*
X163971D01*
Y1364D01*
D02*
G37*
G36*
X119955Y156661D02*
X119722Y156187D01*
X118941Y156290D01*
X117909Y156154D01*
X116947Y155756D01*
X116122Y155122D01*
X115488Y154297D01*
X115090Y153335D01*
X114954Y152303D01*
X115090Y151271D01*
X115488Y150310D01*
X115908Y149763D01*
X115661Y149263D01*
X112221D01*
X111974Y149763D01*
X112394Y150310D01*
X112792Y151271D01*
X112928Y152303D01*
X112792Y153335D01*
X112394Y154297D01*
X111760Y155122D01*
X110934Y155756D01*
X109973Y156154D01*
X108941Y156290D01*
X107909Y156154D01*
X106948Y155756D01*
X106122Y155122D01*
X105488Y154297D01*
X105090Y153335D01*
X104954Y152303D01*
X105090Y151271D01*
X105488Y150310D01*
X105907Y149763D01*
X105661Y149263D01*
X102221D01*
X101974Y149763D01*
X102394Y150310D01*
X102792Y151271D01*
X102928Y152303D01*
X102792Y153335D01*
X102394Y154297D01*
X101760Y155122D01*
X100934Y155756D01*
X99973Y156154D01*
X98941Y156290D01*
X97909Y156154D01*
X96947Y155756D01*
X96122Y155122D01*
X95488Y154297D01*
X95090Y153335D01*
X94954Y152303D01*
X95090Y151271D01*
X95488Y150310D01*
X95907Y149763D01*
X95661Y149263D01*
X92221D01*
X91974Y149763D01*
X92394Y150310D01*
X92792Y151271D01*
X92928Y152303D01*
X92792Y153335D01*
X92394Y154297D01*
X91760Y155122D01*
X90934Y155756D01*
X89973Y156154D01*
X88941Y156290D01*
X87909Y156154D01*
X86948Y155756D01*
X86122Y155122D01*
X85488Y154297D01*
X85090Y153335D01*
X84954Y152303D01*
X85090Y151271D01*
X85488Y150310D01*
X86032Y149601D01*
X86050Y149502D01*
X86016Y149213D01*
X85901Y149023D01*
X83838D01*
X82440Y150421D01*
X82792Y151271D01*
X82928Y152303D01*
X82792Y153335D01*
X82394Y154297D01*
X81760Y155122D01*
X80934Y155756D01*
X79973Y156154D01*
X78941Y156290D01*
X77909Y156154D01*
X76947Y155756D01*
X76122Y155122D01*
X75488Y154297D01*
X75090Y153335D01*
X74954Y152303D01*
X75090Y151271D01*
X75488Y150310D01*
X76122Y149484D01*
X76947Y148850D01*
X77909Y148452D01*
X78805Y148334D01*
X80776Y146362D01*
X80493Y145939D01*
X79973Y146154D01*
X78941Y146290D01*
X77909Y146154D01*
X76947Y145756D01*
X76122Y145122D01*
X75488Y144297D01*
X75090Y143335D01*
X74954Y142303D01*
X75090Y141271D01*
X75488Y140310D01*
X76122Y139484D01*
X76947Y138850D01*
X77909Y138452D01*
X78941Y138316D01*
X79453Y138384D01*
X82829Y135008D01*
Y133024D01*
X82367Y132833D01*
X77571Y137629D01*
X77075Y137960D01*
X76489Y138077D01*
X70373D01*
X70273Y138577D01*
X70934Y138850D01*
X71760Y139484D01*
X72394Y140310D01*
X72792Y141271D01*
X72928Y142303D01*
X72792Y143335D01*
X72394Y144297D01*
X71760Y145122D01*
X70934Y145756D01*
X69973Y146154D01*
X68941Y146290D01*
X67909Y146154D01*
X66948Y145756D01*
X66122Y145122D01*
X65488Y144297D01*
X65090Y143335D01*
X64954Y142303D01*
X65090Y141271D01*
X65488Y140310D01*
X66122Y139484D01*
X66948Y138850D01*
X67608Y138577D01*
X67509Y138077D01*
X64086D01*
X62159Y140004D01*
X62394Y140310D01*
X62792Y141271D01*
X62928Y142303D01*
X62792Y143335D01*
X62394Y144297D01*
X61760Y145122D01*
X60934Y145756D01*
X59973Y146154D01*
X58941Y146290D01*
X57909Y146154D01*
X56947Y145756D01*
X56122Y145122D01*
X55488Y144297D01*
X55090Y143335D01*
X54954Y142303D01*
X55090Y141271D01*
X55488Y140310D01*
X56122Y139484D01*
X56947Y138850D01*
X57909Y138452D01*
X58941Y138316D01*
X59453Y138384D01*
X60799Y137039D01*
X60607Y136577D01*
X55718D01*
X52216Y140078D01*
X52394Y140310D01*
X52792Y141271D01*
X52928Y142303D01*
X52792Y143335D01*
X52394Y144297D01*
X51760Y145122D01*
X50934Y145756D01*
X49973Y146154D01*
X48941Y146290D01*
X47909Y146154D01*
X46948Y145756D01*
X46122Y145122D01*
X45488Y144297D01*
X45090Y143335D01*
X44954Y142303D01*
X45090Y141271D01*
X45488Y140310D01*
X46122Y139484D01*
X46948Y138850D01*
X47909Y138452D01*
X48941Y138316D01*
X49547Y138396D01*
X49852Y138056D01*
X49670Y137620D01*
X44542D01*
X42159Y140004D01*
X42394Y140310D01*
X42792Y141271D01*
X42928Y142303D01*
X42792Y143335D01*
X42394Y144297D01*
X41760Y145122D01*
X40934Y145756D01*
X39973Y146154D01*
X38941Y146290D01*
X37909Y146154D01*
X36948Y145756D01*
X36122Y145122D01*
X35488Y144297D01*
X35090Y143335D01*
X34954Y142303D01*
X35090Y141271D01*
X35488Y140310D01*
X36122Y139484D01*
X36948Y138850D01*
X37909Y138452D01*
X38941Y138316D01*
X39453Y138384D01*
X41255Y136583D01*
X41063Y136120D01*
X38542D01*
X33450Y141212D01*
X32954Y141544D01*
X32831Y141568D01*
X32928Y142303D01*
X32792Y143335D01*
X32394Y144297D01*
X31760Y145122D01*
X30934Y145756D01*
X29973Y146154D01*
X28941Y146290D01*
X27909Y146154D01*
X26948Y145756D01*
X26122Y145122D01*
X25488Y144297D01*
X25090Y143335D01*
X24954Y142303D01*
X25090Y141271D01*
X25488Y140310D01*
X26122Y139484D01*
X26948Y138850D01*
X27909Y138452D01*
X28941Y138316D01*
X29973Y138452D01*
X30334Y138602D01*
X31736D01*
X36827Y133510D01*
X37324Y133178D01*
X37909Y133062D01*
X50664D01*
X51634Y132093D01*
X51489Y131530D01*
X50878Y131122D01*
X50380Y130378D01*
X50206Y129500D01*
X50347Y128789D01*
X50047Y128289D01*
X45087D01*
X44854Y128445D01*
Y131307D01*
X37146D01*
Y127663D01*
X34878Y125396D01*
X34867Y125396D01*
X34378Y125549D01*
Y127882D01*
X32000D01*
Y128177D01*
X31705D01*
Y132179D01*
X29622D01*
Y132179D01*
X29378D01*
Y132179D01*
X26819D01*
X26622Y132218D01*
X24998D01*
X24872Y132193D01*
X24378Y132179D01*
X24378Y132179D01*
X23351D01*
Y132489D01*
X23196Y133270D01*
X22754Y133931D01*
X20821Y135864D01*
X20159Y136306D01*
X19379Y136461D01*
X18423D01*
X16324Y138560D01*
X16344Y138683D01*
X16887Y138897D01*
X16948Y138850D01*
X17909Y138452D01*
X18941Y138316D01*
X19973Y138452D01*
X20934Y138850D01*
X21760Y139484D01*
X22394Y140310D01*
X22792Y141271D01*
X22928Y142303D01*
X22792Y143335D01*
X22394Y144297D01*
X21760Y145122D01*
X20934Y145756D01*
X19973Y146154D01*
X18941Y146290D01*
X17909Y146154D01*
X16948Y145756D01*
X16492Y145406D01*
X15992Y145653D01*
Y146047D01*
X15837Y146828D01*
X15395Y147489D01*
X12447Y150437D01*
X12792Y151271D01*
X12928Y152303D01*
X12792Y153335D01*
X12394Y154297D01*
X11760Y155122D01*
X10934Y155756D01*
X9973Y156154D01*
X9326Y156239D01*
X9147Y156767D01*
X9502Y157122D01*
X117922D01*
X117922Y157123D01*
X119494D01*
X119955Y156661D01*
D02*
G37*
G36*
X145811Y144717D02*
X145488Y144297D01*
X145090Y143335D01*
X144954Y142303D01*
X145090Y141271D01*
X145488Y140310D01*
X146122Y139484D01*
X146948Y138850D01*
X147909Y138452D01*
X148941Y138316D01*
X149973Y138452D01*
X150934Y138850D01*
X151414Y139218D01*
X151914Y138972D01*
Y131290D01*
X150407Y129783D01*
X149945Y129974D01*
Y136031D01*
X145535D01*
Y135982D01*
X145094Y135747D01*
X144860Y135903D01*
X144295Y136015D01*
Y132000D01*
X143705D01*
Y136015D01*
X143140Y135903D01*
X142438Y135434D01*
X142297Y135370D01*
X141962D01*
X141822Y135434D01*
X141120Y135903D01*
X140260Y136074D01*
X139871Y135997D01*
X139286Y136581D01*
X138789Y136913D01*
X138204Y137029D01*
X112500D01*
X111915Y136913D01*
X111419Y136581D01*
X111281Y136444D01*
X111086D01*
X110501Y136327D01*
X110004Y135996D01*
X109419Y135410D01*
X109087Y134914D01*
X108971Y134328D01*
Y121307D01*
X107529D01*
Y122000D01*
X107413Y122585D01*
X107081Y123081D01*
X100685Y129478D01*
X100189Y129809D01*
X99604Y129926D01*
X95788D01*
X95726Y130019D01*
X94981Y130516D01*
X94104Y130691D01*
X93719Y131124D01*
X93794Y131500D01*
X93619Y132378D01*
X93122Y133122D01*
X92378Y133619D01*
X91500Y133794D01*
X91471Y133788D01*
X91235Y134229D01*
X95538Y138532D01*
X97716D01*
X97909Y138452D01*
X98941Y138316D01*
X99973Y138452D01*
X100934Y138850D01*
X101760Y139484D01*
X102394Y140310D01*
X102792Y141271D01*
X102928Y142303D01*
X102792Y143335D01*
X102394Y144297D01*
X102071Y144717D01*
X102318Y145217D01*
X105564D01*
X105811Y144717D01*
X105488Y144297D01*
X105090Y143335D01*
X104954Y142303D01*
X105090Y141271D01*
X105488Y140310D01*
X106122Y139484D01*
X106948Y138850D01*
X107909Y138452D01*
X108941Y138316D01*
X109973Y138452D01*
X110934Y138850D01*
X111760Y139484D01*
X112394Y140310D01*
X112792Y141271D01*
X112928Y142303D01*
X112792Y143335D01*
X112394Y144297D01*
X112071Y144717D01*
X112318Y145217D01*
X115564D01*
X115811Y144717D01*
X115488Y144297D01*
X115090Y143335D01*
X114954Y142303D01*
X115090Y141271D01*
X115488Y140310D01*
X116122Y139484D01*
X116947Y138850D01*
X117909Y138452D01*
X118941Y138316D01*
X119973Y138452D01*
X120934Y138850D01*
X121760Y139484D01*
X122394Y140310D01*
X122792Y141271D01*
X122928Y142303D01*
X122792Y143335D01*
X122394Y144297D01*
X122071Y144717D01*
X122318Y145217D01*
X125564D01*
X125811Y144717D01*
X125488Y144297D01*
X125090Y143335D01*
X124954Y142303D01*
X125090Y141271D01*
X125488Y140310D01*
X126122Y139484D01*
X126947Y138850D01*
X127909Y138452D01*
X128941Y138316D01*
X129973Y138452D01*
X130934Y138850D01*
X131760Y139484D01*
X132394Y140310D01*
X132792Y141271D01*
X132928Y142303D01*
X132792Y143335D01*
X132394Y144297D01*
X132071Y144717D01*
X132318Y145217D01*
X135564D01*
X135811Y144717D01*
X135488Y144297D01*
X135090Y143335D01*
X134954Y142303D01*
X135090Y141271D01*
X135488Y140310D01*
X136122Y139484D01*
X136948Y138850D01*
X137909Y138452D01*
X138941Y138316D01*
X139973Y138452D01*
X140934Y138850D01*
X141760Y139484D01*
X142394Y140310D01*
X142792Y141271D01*
X142928Y142303D01*
X142792Y143335D01*
X142394Y144297D01*
X142071Y144717D01*
X142318Y145217D01*
X145564D01*
X145811Y144717D01*
D02*
G37*
G36*
X11914Y138047D02*
X12069Y137267D01*
X12511Y136605D01*
X16136Y132980D01*
X16136Y132980D01*
X16587Y132679D01*
X16435Y132179D01*
X14622D01*
Y131082D01*
X12354D01*
Y132307D01*
X7530D01*
X5539Y134297D01*
Y138350D01*
X11914D01*
Y138047D01*
D02*
G37*
G36*
X133977Y122362D02*
Y119650D01*
X126461D01*
X126266Y119689D01*
X126070Y119650D01*
X122433D01*
X122281Y120150D01*
X122622Y120378D01*
X123119Y121122D01*
X123294Y122000D01*
X123119Y122878D01*
X122622Y123622D01*
X122281Y123850D01*
X122433Y124350D01*
X127352D01*
X127500Y124321D01*
X127648Y124350D01*
X131989D01*
X133977Y122362D01*
D02*
G37*
G36*
X55771Y123961D02*
X55687Y123835D01*
X55630Y123547D01*
X55243Y123248D01*
X55099Y123246D01*
X54335Y123398D01*
X53457Y123224D01*
X52713Y122727D01*
X52215Y121982D01*
X52041Y121104D01*
X52190Y120354D01*
X51908Y119854D01*
X49006D01*
Y116673D01*
Y113745D01*
X48682Y113681D01*
X48186Y113349D01*
X42109Y107272D01*
X42000Y107294D01*
X41122Y107120D01*
X40378Y106622D01*
X39880Y105878D01*
X39706Y105000D01*
X39880Y104122D01*
X40278Y103527D01*
X39671Y103122D01*
X39174Y102378D01*
X38999Y101500D01*
X39174Y100622D01*
X39671Y99878D01*
X40415Y99381D01*
X41293Y99206D01*
X41789Y99304D01*
X42044Y99134D01*
X42629Y99018D01*
X46825D01*
X49006D01*
Y98874D01*
X52909D01*
X56813D01*
Y100925D01*
Y104862D01*
Y108799D01*
Y112225D01*
X57268Y112416D01*
X57581Y112130D01*
X57430Y111372D01*
X57605Y110494D01*
X58102Y109750D01*
X58846Y109253D01*
X59621Y109099D01*
X59773Y109026D01*
X60132Y108649D01*
X60261Y108000D01*
X60758Y107256D01*
X61503Y106758D01*
X62381Y106584D01*
X62828Y106673D01*
X63264Y106238D01*
X63760Y105906D01*
X64345Y105790D01*
X73250D01*
X73835Y105906D01*
X74331Y106238D01*
X77333Y109239D01*
X77546Y109126D01*
X77776Y108975D01*
X77939Y108155D01*
X78421Y107433D01*
X79143Y106951D01*
X79994Y106782D01*
X80845Y106951D01*
X81567Y107433D01*
X82049Y108155D01*
X82218Y109006D01*
X82049Y109857D01*
X81567Y110579D01*
X81354Y110721D01*
X81506Y111221D01*
X86017D01*
X86169Y110721D01*
X85907Y110545D01*
X85409Y109801D01*
X85235Y108923D01*
X85409Y108045D01*
X85681Y107638D01*
X85669Y107053D01*
X85172Y106309D01*
X84997Y105431D01*
X85141Y104710D01*
X84846Y104210D01*
X84129D01*
X83544Y104094D01*
X83048Y103762D01*
X81919Y102633D01*
X81587Y102137D01*
X81471Y101552D01*
Y93500D01*
X81587Y92915D01*
X81919Y92419D01*
X84728Y89609D01*
X84706Y89500D01*
X84881Y88622D01*
X85378Y87878D01*
X86122Y87381D01*
X86747Y87256D01*
X87190Y87009D01*
X87270Y86527D01*
X87214Y86471D01*
X86882Y85975D01*
X86766Y85389D01*
Y84813D01*
X82685D01*
Y80909D01*
Y77006D01*
X83028D01*
X83036Y76966D01*
X83367Y76470D01*
X85919Y73919D01*
X86415Y73587D01*
X87000Y73471D01*
X89323D01*
X89521Y73273D01*
X89693Y73158D01*
Y68146D01*
X94058D01*
X97478Y64726D01*
X97974Y64394D01*
X98559Y64278D01*
X98646D01*
Y60780D01*
X106354D01*
Y62356D01*
X107606D01*
Y60524D01*
X107606Y60524D01*
Y60476D01*
X107606D01*
X107606Y60024D01*
Y53752D01*
X109971D01*
Y51634D01*
X96367Y38029D01*
X92354D01*
Y43307D01*
X89808D01*
Y43721D01*
X89692Y44307D01*
X89360Y44803D01*
X84742Y49421D01*
Y51742D01*
X85110Y51895D01*
X85733Y52373D01*
X86211Y52996D01*
X86512Y53721D01*
X86614Y54500D01*
X86512Y55278D01*
X86211Y56004D01*
X85733Y56627D01*
X85110Y57105D01*
X84385Y57406D01*
X83606Y57508D01*
X82828Y57406D01*
X82102Y57105D01*
X81479Y56627D01*
X81021Y56029D01*
X75634D01*
X72108Y59555D01*
Y70788D01*
X72608Y70940D01*
X72898Y70506D01*
X73171Y70324D01*
Y70257D01*
X73193Y70145D01*
Y64646D01*
X79720D01*
Y72354D01*
X77240D01*
X77055Y73284D01*
X76503Y74111D01*
X75676Y74664D01*
X74700Y74858D01*
X74458Y74810D01*
X74077Y75148D01*
Y77006D01*
X82095D01*
Y80909D01*
Y84813D01*
X59146D01*
Y77079D01*
X58740Y76777D01*
X55076Y80442D01*
X54414Y80884D01*
X53634Y81039D01*
X50888D01*
X48464Y83464D01*
X48463Y83464D01*
X45182Y86745D01*
X45374Y87207D01*
X49006D01*
Y87146D01*
X56813D01*
Y89114D01*
Y90409D01*
X52909D01*
X49006D01*
Y90266D01*
X44307D01*
Y91854D01*
X43082D01*
Y93474D01*
X42927Y94254D01*
X42485Y94916D01*
X41018Y96383D01*
X40357Y96825D01*
X39577Y96980D01*
X38059D01*
Y100650D01*
X31532D01*
Y92941D01*
X35862D01*
X36059Y92902D01*
X38732D01*
X39004Y92629D01*
Y91854D01*
X37780D01*
Y84146D01*
X41677D01*
X41748Y84039D01*
X41481Y83539D01*
X20920D01*
X13539Y90920D01*
Y110655D01*
X22788Y119904D01*
X23220Y119616D01*
X24000Y119461D01*
X35146D01*
X35926Y119616D01*
X36588Y120058D01*
X36684Y120154D01*
X37146Y119963D01*
Y117693D01*
X40705D01*
Y120957D01*
X41000D01*
Y121252D01*
X44854D01*
Y124211D01*
X53846D01*
X54627Y124366D01*
X54768Y124461D01*
X55504D01*
X55771Y123961D01*
D02*
G37*
G36*
X104030Y121807D02*
X103823Y121307D01*
X102146D01*
Y120292D01*
X101994Y119854D01*
X94187D01*
Y116673D01*
Y116591D01*
X98091D01*
Y116000D01*
X94187D01*
Y113888D01*
X93089D01*
X91861Y115115D01*
X91883Y115224D01*
X91708Y116102D01*
X91211Y116847D01*
X90467Y117344D01*
X89589Y117518D01*
X88711Y117344D01*
X87967Y116847D01*
X87470Y116102D01*
X87295Y115224D01*
X87383Y114779D01*
X86973Y114279D01*
X78693D01*
X78638Y114281D01*
X78211Y114696D01*
X78064Y115433D01*
X77567Y116178D01*
X77474Y116240D01*
Y117882D01*
X77581Y117990D01*
X77913Y118486D01*
X78029Y119071D01*
Y121000D01*
X77913Y121585D01*
X77845Y121687D01*
X78112Y122187D01*
X84531D01*
X84843Y121687D01*
X84706Y121000D01*
X84881Y120122D01*
X85378Y119378D01*
X86122Y118880D01*
X87000Y118706D01*
X87878Y118880D01*
X88622Y119378D01*
X89119Y120122D01*
X89294Y121000D01*
X89157Y121687D01*
X89468Y122187D01*
X91854D01*
Y123205D01*
X92354Y123254D01*
X92381Y123122D01*
X92878Y122378D01*
X93622Y121880D01*
X94500Y121706D01*
X95378Y121880D01*
X96122Y122378D01*
X96619Y123122D01*
X96794Y124000D01*
X96619Y124878D01*
X96122Y125622D01*
X95512Y126030D01*
X95450Y126470D01*
X95478Y126608D01*
X95726Y126774D01*
X95788Y126867D01*
X98970D01*
X104030Y121807D01*
D02*
G37*
G36*
X125977Y102807D02*
X124146D01*
X124146Y102807D01*
X123672Y102871D01*
X123385Y103063D01*
X122803Y103179D01*
X118197D01*
X117615Y103063D01*
X117121Y102733D01*
X116791Y102240D01*
X116686Y101710D01*
X115814D01*
X115709Y102240D01*
X115379Y102733D01*
X114885Y103063D01*
X114303Y103179D01*
X113529D01*
Y108886D01*
X113746Y109150D01*
X125977D01*
Y102807D01*
D02*
G37*
G36*
X138319Y111823D02*
Y111028D01*
X138358Y110832D01*
Y101996D01*
X138358D01*
X138188Y101566D01*
X131854D01*
Y102807D01*
X130023D01*
Y109150D01*
X134850D01*
Y114639D01*
X135312Y114831D01*
X138319Y111823D01*
D02*
G37*
G36*
X154469Y100156D02*
X154490Y100051D01*
X149200Y94761D01*
X148758Y94099D01*
X148602Y93319D01*
Y86004D01*
X138358D01*
Y82535D01*
X132253D01*
X131854Y82780D01*
Y85748D01*
X128000D01*
Y86339D01*
X131854D01*
Y89193D01*
Y92161D01*
X128000D01*
Y92457D01*
X127705D01*
Y95720D01*
X124146D01*
Y95720D01*
X123646Y95527D01*
X123385Y95701D01*
X122803Y95817D01*
X118197D01*
X117913Y96266D01*
X117581Y96763D01*
X117540Y96804D01*
X117786Y97265D01*
X118197Y97183D01*
X122803D01*
X123385Y97299D01*
X123646Y97473D01*
X124146Y97206D01*
Y96280D01*
X131854D01*
Y97520D01*
X150288D01*
X151062Y97674D01*
X151719Y98113D01*
X153927Y100321D01*
X154469Y100156D01*
D02*
G37*
G36*
X94187Y91809D02*
Y91000D01*
X98091D01*
X101994D01*
Y91053D01*
X102963D01*
X103276Y90741D01*
X103772Y90409D01*
X104357Y90293D01*
X105044D01*
X107971Y87366D01*
Y73500D01*
X108087Y72915D01*
X108419Y72419D01*
X112287Y68550D01*
X112783Y68219D01*
X113088Y68158D01*
X113537Y67710D01*
X113345Y67248D01*
X107606D01*
Y65415D01*
X106354D01*
Y67307D01*
X100884D01*
X100736Y67336D01*
X99193D01*
X98845Y67684D01*
X99037Y68146D01*
X99748D01*
Y72000D01*
Y75854D01*
X98461D01*
X98226Y76295D01*
X98314Y76428D01*
X98489Y77306D01*
X98314Y78183D01*
X97817Y78928D01*
X97072Y79425D01*
X96194Y79599D01*
X96085Y79578D01*
X93672Y81991D01*
X93176Y82322D01*
X92590Y82439D01*
X91854D01*
Y84813D01*
X91177D01*
X91025Y85313D01*
X91122Y85378D01*
X91619Y86122D01*
X91794Y87000D01*
X91619Y87878D01*
X91526Y88018D01*
X91586Y88165D01*
X92331Y88663D01*
X92828Y89407D01*
X93003Y90285D01*
X92838Y91114D01*
X93725Y92001D01*
X94187Y91809D01*
D02*
G37*
G36*
X73919Y53419D02*
X74415Y53087D01*
X75000Y52971D01*
X81021D01*
X81479Y52373D01*
X81683Y52217D01*
Y48787D01*
X81800Y48202D01*
X82131Y47706D01*
X86068Y43769D01*
X85877Y43307D01*
X84646D01*
Y38732D01*
X84146Y38525D01*
X83324Y39346D01*
Y41658D01*
X83209Y42240D01*
X82879Y42733D01*
X82385Y43063D01*
X81803Y43179D01*
X77197D01*
X76615Y43063D01*
X76121Y42733D01*
X75791Y42240D01*
X75686Y41710D01*
X73814D01*
X73709Y42240D01*
X73379Y42733D01*
X72885Y43063D01*
X72303Y43179D01*
X67697D01*
X67115Y43063D01*
X66621Y42733D01*
X66291Y42240D01*
X66186Y41710D01*
X62814D01*
X62709Y42240D01*
X62379Y42733D01*
X61885Y43063D01*
X61303Y43179D01*
X56697D01*
X56115Y43063D01*
X55621Y42733D01*
X55291Y42240D01*
X55186Y41710D01*
X53814D01*
X53709Y42240D01*
X53379Y42733D01*
X52885Y43063D01*
X52303Y43179D01*
X48338D01*
X42786Y48731D01*
X42978Y49193D01*
X45205D01*
Y52457D01*
X45500D01*
Y52752D01*
X49354D01*
Y53463D01*
X49816Y53655D01*
X53052Y50419D01*
X53549Y50087D01*
X54134Y49971D01*
X61500D01*
X62085Y50087D01*
X62581Y50419D01*
X63741Y51578D01*
X64394Y51492D01*
X65172Y51595D01*
X65898Y51895D01*
X66521Y52373D01*
X66999Y52996D01*
X67299Y53721D01*
X67402Y54500D01*
X67303Y55247D01*
X69343Y57287D01*
X70048Y57289D01*
X73919Y53419D01*
D02*
G37*
%LPC*%
G36*
X131025Y172404D02*
X130049Y172210D01*
X129222Y171657D01*
X128670Y170830D01*
X128476Y169855D01*
X128670Y168879D01*
X128673Y168875D01*
X127293Y167496D01*
X127000Y167534D01*
X125956Y167397D01*
X124983Y166994D01*
X124147Y166353D01*
X123506Y165517D01*
X123103Y164544D01*
X122966Y163500D01*
X123103Y162456D01*
X123506Y161483D01*
X124147Y160647D01*
X124983Y160006D01*
X125956Y159603D01*
X127000Y159466D01*
X128044Y159603D01*
X129017Y160006D01*
X129853Y160647D01*
X130494Y161483D01*
X130897Y162456D01*
X131035Y163500D01*
X130897Y164544D01*
X130666Y165101D01*
X132275Y166710D01*
X132717Y167372D01*
X132863Y168107D01*
X133379Y168879D01*
X133573Y169855D01*
X133379Y170830D01*
X132827Y171657D01*
X132000Y172210D01*
X131025Y172404D01*
D02*
G37*
G36*
X12354Y125221D02*
X8795D01*
Y122252D01*
X12354D01*
Y125221D01*
D02*
G37*
G36*
X8205D02*
X4646D01*
Y122252D01*
X8205D01*
Y125221D01*
D02*
G37*
G36*
X12354Y121661D02*
X8795D01*
Y118693D01*
X12354D01*
Y121661D01*
D02*
G37*
G36*
X8205D02*
X4646D01*
Y118693D01*
X8205D01*
Y121661D01*
D02*
G37*
G36*
X111705Y95817D02*
X109697D01*
X109115Y95701D01*
X108621Y95371D01*
X108291Y94877D01*
X108176Y94295D01*
Y93114D01*
X111705D01*
Y95817D01*
D02*
G37*
G36*
X31992Y77693D02*
X29630D01*
X29612Y77689D01*
X29595Y77692D01*
X29481Y77688D01*
X29462Y77684D01*
X29443Y77686D01*
X29333Y77678D01*
X29300Y77669D01*
X29266Y77671D01*
X29152Y77656D01*
X29133Y77649D01*
X29112Y77649D01*
X29002Y77630D01*
X28969Y77617D01*
X28934Y77615D01*
X28824Y77588D01*
X28808Y77580D01*
X28791Y77579D01*
X28681Y77547D01*
X28645Y77529D01*
X28607Y77523D01*
X28500Y77484D01*
X28486Y77475D01*
X28470Y77472D01*
X28363Y77429D01*
X28344Y77416D01*
X28321Y77410D01*
X28218Y77363D01*
X28186Y77339D01*
X28148Y77327D01*
X28049Y77271D01*
X28037Y77261D01*
X28023Y77256D01*
X27924Y77197D01*
X27898Y77174D01*
X27867Y77160D01*
X27776Y77097D01*
X27756Y77076D01*
X27730Y77063D01*
X27639Y76992D01*
X27632Y76983D01*
X27622Y76978D01*
X27536Y76907D01*
X27511Y76877D01*
X27478Y76856D01*
X27395Y76778D01*
X27381Y76757D01*
X27360Y76743D01*
X27281Y76660D01*
X27261Y76627D01*
X27231Y76602D01*
X27160Y76516D01*
X27154Y76506D01*
X27146Y76499D01*
X27075Y76408D01*
X27062Y76382D01*
X27041Y76362D01*
X26978Y76271D01*
X26964Y76239D01*
X26941Y76214D01*
X26882Y76115D01*
X26876Y76100D01*
X26866Y76089D01*
X26811Y75990D01*
X26799Y75952D01*
X26775Y75919D01*
X26728Y75817D01*
X26722Y75794D01*
X26709Y75774D01*
X26666Y75668D01*
X26663Y75652D01*
X26654Y75638D01*
X26615Y75531D01*
X26608Y75492D01*
X26590Y75457D01*
X26559Y75347D01*
X26558Y75330D01*
X26550Y75314D01*
X26523Y75204D01*
X26521Y75169D01*
X26508Y75136D01*
X26488Y75026D01*
X26489Y75005D01*
X26482Y74986D01*
X26466Y74872D01*
X26468Y74838D01*
X26459Y74805D01*
X26452Y74695D01*
X26454Y74676D01*
X26449Y74657D01*
X26446Y74543D01*
X26451Y74508D01*
X26446Y74473D01*
X26449Y74359D01*
X26454Y74340D01*
X26452Y74321D01*
X26459Y74211D01*
X26468Y74178D01*
X26466Y74144D01*
X26482Y74030D01*
X26489Y74011D01*
X26488Y73990D01*
X26508Y73880D01*
X26521Y73847D01*
X26523Y73812D01*
X26550Y73702D01*
X26558Y73686D01*
X26559Y73669D01*
X26590Y73558D01*
X26608Y73523D01*
X26615Y73484D01*
X26654Y73378D01*
X26663Y73364D01*
X26666Y73348D01*
X26709Y73241D01*
X26722Y73222D01*
X26728Y73199D01*
X26775Y73096D01*
X26799Y73064D01*
X26811Y73025D01*
X26866Y72927D01*
X26876Y72915D01*
X26882Y72901D01*
X26941Y72802D01*
X26964Y72777D01*
X26978Y72745D01*
X27041Y72654D01*
X27062Y72634D01*
X27075Y72608D01*
X27146Y72517D01*
X27154Y72510D01*
X27160Y72500D01*
X27231Y72413D01*
X27261Y72389D01*
X27281Y72356D01*
X27360Y72273D01*
X27381Y72259D01*
X27395Y72238D01*
X27478Y72159D01*
X27511Y72139D01*
X27536Y72109D01*
X27622Y72038D01*
X27632Y72032D01*
X27639Y72024D01*
X27730Y71953D01*
X27756Y71940D01*
X27776Y71919D01*
X27867Y71856D01*
X27898Y71842D01*
X27924Y71819D01*
X28023Y71760D01*
X28037Y71754D01*
X28049Y71744D01*
X28148Y71689D01*
X28186Y71677D01*
X28218Y71653D01*
X28321Y71606D01*
X28344Y71600D01*
X28363Y71587D01*
X28470Y71544D01*
X28486Y71541D01*
X28500Y71532D01*
X28607Y71493D01*
X28646Y71487D01*
X28681Y71469D01*
X28791Y71437D01*
X28808Y71436D01*
X28824Y71428D01*
X28934Y71401D01*
X28911Y70945D01*
X28902Y70902D01*
X27764D01*
Y68622D01*
X31126D01*
X34488D01*
Y70902D01*
X32720D01*
X32711Y70945D01*
X32688Y71401D01*
X32798Y71428D01*
X32814Y71436D01*
X32831Y71437D01*
X32942Y71469D01*
X32977Y71487D01*
X33015Y71493D01*
X33122Y71532D01*
X33136Y71541D01*
X33152Y71544D01*
X33259Y71587D01*
X33278Y71600D01*
X33301Y71606D01*
X33404Y71653D01*
X33436Y71677D01*
X33475Y71689D01*
X33573Y71744D01*
X33585Y71754D01*
X33599Y71759D01*
X33698Y71819D01*
X33724Y71842D01*
X33755Y71856D01*
X33846Y71919D01*
X33866Y71940D01*
X33892Y71953D01*
X33983Y72024D01*
X33990Y72032D01*
X34000Y72038D01*
X34087Y72109D01*
X34111Y72139D01*
X34144Y72159D01*
X34227Y72238D01*
X34241Y72259D01*
X34262Y72273D01*
X34341Y72356D01*
X34361Y72389D01*
X34391Y72413D01*
X34462Y72500D01*
X34468Y72510D01*
X34476Y72517D01*
X34547Y72608D01*
X34560Y72634D01*
X34581Y72654D01*
X34644Y72745D01*
X34658Y72776D01*
X34681Y72802D01*
X34740Y72901D01*
X34746Y72915D01*
X34756Y72927D01*
X34811Y73025D01*
X34823Y73064D01*
X34847Y73096D01*
X34894Y73199D01*
X34900Y73222D01*
X34913Y73241D01*
X34956Y73348D01*
X34959Y73364D01*
X34968Y73378D01*
X35007Y73484D01*
X35013Y73523D01*
X35032Y73558D01*
X35063Y73669D01*
X35064Y73686D01*
X35072Y73702D01*
X35099Y73812D01*
X35101Y73847D01*
X35114Y73880D01*
X35134Y73990D01*
X35133Y74011D01*
X35140Y74030D01*
X35156Y74144D01*
X35154Y74178D01*
X35163Y74211D01*
X35171Y74321D01*
X35168Y74340D01*
X35173Y74358D01*
X35177Y74473D01*
X35171Y74508D01*
X35177Y74543D01*
X35173Y74657D01*
X35168Y74676D01*
X35171Y74695D01*
X35163Y74805D01*
X35154Y74838D01*
X35156Y74872D01*
X35140Y74986D01*
X35133Y75005D01*
X35134Y75026D01*
X35114Y75136D01*
X35101Y75169D01*
X35099Y75204D01*
X35072Y75314D01*
X35064Y75330D01*
X35063Y75347D01*
X35032Y75457D01*
X35013Y75492D01*
X35007Y75531D01*
X34968Y75638D01*
X34959Y75652D01*
X34956Y75668D01*
X34913Y75775D01*
X34900Y75794D01*
X34894Y75817D01*
X34847Y75919D01*
X34823Y75952D01*
X34811Y75990D01*
X34756Y76089D01*
X34746Y76100D01*
X34740Y76115D01*
X34681Y76214D01*
X34658Y76239D01*
X34644Y76271D01*
X34581Y76362D01*
X34560Y76382D01*
X34547Y76408D01*
X34476Y76498D01*
X34468Y76506D01*
X34462Y76516D01*
X34391Y76602D01*
X34361Y76627D01*
X34341Y76660D01*
X34262Y76743D01*
X34241Y76757D01*
X34227Y76778D01*
X34144Y76856D01*
X34111Y76877D01*
X34087Y76907D01*
X34000Y76978D01*
X33990Y76983D01*
X33983Y76992D01*
X33892Y77063D01*
X33866Y77076D01*
X33846Y77097D01*
X33755Y77160D01*
X33724Y77174D01*
X33698Y77197D01*
X33599Y77256D01*
X33585Y77261D01*
X33573Y77271D01*
X33475Y77327D01*
X33436Y77339D01*
X33404Y77363D01*
X33301Y77410D01*
X33278Y77416D01*
X33259Y77429D01*
X33152Y77472D01*
X33136Y77475D01*
X33122Y77484D01*
X33015Y77523D01*
X32977Y77529D01*
X32941Y77547D01*
X32831Y77579D01*
X32814Y77580D01*
X32798Y77588D01*
X32688Y77615D01*
X32653Y77617D01*
X32620Y77630D01*
X32510Y77649D01*
X32489Y77649D01*
X32470Y77656D01*
X32356Y77671D01*
X32322Y77669D01*
X32289Y77678D01*
X32179Y77686D01*
X32160Y77684D01*
X32142Y77688D01*
X32027Y77692D01*
X32010Y77689D01*
X31992Y77693D01*
D02*
G37*
G36*
X17031D02*
X14669D01*
X14652Y77689D01*
X14634Y77692D01*
X14520Y77688D01*
X14501Y77684D01*
X14482Y77686D01*
X14372Y77678D01*
X14340Y77669D01*
X14306Y77671D01*
X14191Y77656D01*
X14172Y77649D01*
X14151Y77649D01*
X14041Y77630D01*
X14008Y77617D01*
X13973Y77615D01*
X13863Y77588D01*
X13847Y77580D01*
X13830Y77579D01*
X13720Y77547D01*
X13685Y77529D01*
X13646Y77523D01*
X13540Y77484D01*
X13525Y77475D01*
X13509Y77472D01*
X13403Y77429D01*
X13383Y77416D01*
X13360Y77410D01*
X13258Y77363D01*
X13225Y77339D01*
X13187Y77327D01*
X13088Y77271D01*
X13077Y77261D01*
X13062Y77256D01*
X12964Y77197D01*
X12938Y77174D01*
X12906Y77160D01*
X12815Y77097D01*
X12795Y77076D01*
X12769Y77063D01*
X12679Y76992D01*
X12671Y76983D01*
X12662Y76978D01*
X12575Y76907D01*
X12550Y76877D01*
X12517Y76856D01*
X12435Y76778D01*
X12420Y76757D01*
X12399Y76743D01*
X12321Y76660D01*
X12300Y76627D01*
X12270Y76602D01*
X12199Y76516D01*
X12194Y76506D01*
X12185Y76499D01*
X12114Y76408D01*
X12101Y76382D01*
X12080Y76362D01*
X12017Y76271D01*
X12003Y76239D01*
X11980Y76214D01*
X11921Y76115D01*
X11916Y76100D01*
X11906Y76089D01*
X11851Y75990D01*
X11838Y75952D01*
X11814Y75919D01*
X11767Y75817D01*
X11762Y75794D01*
X11749Y75774D01*
X11705Y75668D01*
X11702Y75652D01*
X11693Y75638D01*
X11654Y75531D01*
X11648Y75492D01*
X11630Y75457D01*
X11598Y75347D01*
X11597Y75330D01*
X11590Y75314D01*
X11562Y75204D01*
X11560Y75169D01*
X11547Y75136D01*
X11528Y75026D01*
X11528Y75005D01*
X11522Y74986D01*
X11506Y74872D01*
X11508Y74838D01*
X11499Y74805D01*
X11491Y74695D01*
X11493Y74676D01*
X11489Y74657D01*
X11485Y74543D01*
X11491Y74508D01*
X11485Y74473D01*
X11489Y74359D01*
X11493Y74340D01*
X11491Y74321D01*
X11499Y74211D01*
X11508Y74178D01*
X11506Y74144D01*
X11522Y74030D01*
X11528Y74011D01*
X11528Y73990D01*
X11547Y73880D01*
X11560Y73847D01*
X11562Y73812D01*
X11590Y73702D01*
X11597Y73686D01*
X11598Y73669D01*
X11630Y73558D01*
X11648Y73523D01*
X11654Y73484D01*
X11693Y73378D01*
X11702Y73364D01*
X11705Y73348D01*
X11749Y73241D01*
X11762Y73222D01*
X11767Y73199D01*
X11814Y73096D01*
X11838Y73064D01*
X11851Y73025D01*
X11906Y72927D01*
X11916Y72915D01*
X11921Y72901D01*
X11980Y72802D01*
X12003Y72777D01*
X12017Y72745D01*
X12080Y72654D01*
X12101Y72634D01*
X12114Y72608D01*
X12185Y72517D01*
X12194Y72510D01*
X12199Y72500D01*
X12270Y72413D01*
X12300Y72389D01*
X12321Y72356D01*
X12399Y72273D01*
X12420Y72259D01*
X12435Y72238D01*
X12517Y72159D01*
X12550Y72139D01*
X12575Y72109D01*
X12662Y72038D01*
X12671Y72032D01*
X12679Y72024D01*
X12769Y71953D01*
X12795Y71940D01*
X12815Y71919D01*
X12906Y71856D01*
X12938Y71842D01*
X12964Y71819D01*
X13062Y71760D01*
X13077Y71754D01*
X13088Y71744D01*
X13187Y71689D01*
X13225Y71677D01*
X13258Y71653D01*
X13360Y71606D01*
X13383Y71600D01*
X13403Y71587D01*
X13509Y71544D01*
X13525Y71541D01*
X13540Y71532D01*
X13646Y71493D01*
X13685Y71487D01*
X13720Y71469D01*
X13830Y71437D01*
X13847Y71436D01*
X13863Y71428D01*
X13973Y71401D01*
X14008Y71399D01*
X14041Y71386D01*
X14152Y71366D01*
X14172Y71367D01*
X14191Y71360D01*
X14306Y71344D01*
X14340Y71346D01*
X14372Y71337D01*
X14482Y71329D01*
X14501Y71332D01*
X14520Y71328D01*
X14634Y71324D01*
X14652Y71326D01*
X14669Y71323D01*
X17031D01*
X17049Y71326D01*
X17067Y71324D01*
X17181Y71328D01*
X17199Y71332D01*
X17218Y71329D01*
X17328Y71337D01*
X17361Y71346D01*
X17395Y71344D01*
X17509Y71360D01*
X17529Y71367D01*
X17549Y71366D01*
X17660Y71386D01*
X17692Y71399D01*
X17728Y71401D01*
X17838Y71428D01*
X17853Y71436D01*
X17871Y71437D01*
X17981Y71469D01*
X18016Y71487D01*
X18055Y71493D01*
X18161Y71532D01*
X18175Y71541D01*
X18192Y71544D01*
X18298Y71587D01*
X18318Y71600D01*
X18341Y71606D01*
X18443Y71653D01*
X18476Y71677D01*
X18514Y71689D01*
X18612Y71744D01*
X18624Y71754D01*
X18639Y71759D01*
X18737Y71819D01*
X18763Y71842D01*
X18795Y71856D01*
X18886Y71919D01*
X18906Y71940D01*
X18932Y71953D01*
X19022Y72024D01*
X19029Y72032D01*
X19039Y72038D01*
X19126Y72109D01*
X19151Y72139D01*
X19184Y72159D01*
X19266Y72238D01*
X19281Y72259D01*
X19301Y72273D01*
X19380Y72356D01*
X19401Y72389D01*
X19431Y72413D01*
X19502Y72500D01*
X19507Y72510D01*
X19515Y72517D01*
X19586Y72608D01*
X19600Y72634D01*
X19620Y72654D01*
X19683Y72745D01*
X19697Y72776D01*
X19721Y72802D01*
X19780Y72901D01*
X19785Y72915D01*
X19795Y72927D01*
X19850Y73025D01*
X19863Y73064D01*
X19886Y73096D01*
X19934Y73199D01*
X19939Y73222D01*
X19952Y73241D01*
X19995Y73348D01*
X19999Y73364D01*
X20007Y73378D01*
X20047Y73484D01*
X20053Y73523D01*
X20071Y73558D01*
X20102Y73669D01*
X20104Y73686D01*
X20111Y73702D01*
X20139Y73812D01*
X20141Y73847D01*
X20153Y73880D01*
X20173Y73990D01*
X20173Y74011D01*
X20179Y74030D01*
X20195Y74144D01*
X20193Y74178D01*
X20202Y74211D01*
X20210Y74321D01*
X20208Y74340D01*
X20212Y74358D01*
X20216Y74473D01*
X20210Y74508D01*
X20216Y74543D01*
X20212Y74657D01*
X20208Y74676D01*
X20210Y74695D01*
X20202Y74805D01*
X20193Y74838D01*
X20195Y74872D01*
X20179Y74986D01*
X20173Y75005D01*
X20173Y75026D01*
X20153Y75136D01*
X20141Y75169D01*
X20139Y75204D01*
X20111Y75314D01*
X20104Y75330D01*
X20102Y75347D01*
X20071Y75457D01*
X20053Y75492D01*
X20047Y75531D01*
X20007Y75638D01*
X19999Y75652D01*
X19995Y75668D01*
X19952Y75775D01*
X19939Y75794D01*
X19934Y75817D01*
X19886Y75919D01*
X19863Y75952D01*
X19850Y75990D01*
X19795Y76089D01*
X19785Y76100D01*
X19780Y76115D01*
X19721Y76214D01*
X19697Y76239D01*
X19683Y76271D01*
X19620Y76362D01*
X19600Y76382D01*
X19586Y76408D01*
X19515Y76498D01*
X19507Y76506D01*
X19502Y76516D01*
X19431Y76602D01*
X19401Y76627D01*
X19380Y76660D01*
X19301Y76743D01*
X19281Y76757D01*
X19266Y76778D01*
X19184Y76856D01*
X19151Y76877D01*
X19126Y76907D01*
X19039Y76978D01*
X19029Y76983D01*
X19022Y76992D01*
X18932Y77063D01*
X18906Y77076D01*
X18885Y77097D01*
X18795Y77160D01*
X18763Y77174D01*
X18737Y77197D01*
X18639Y77256D01*
X18624Y77261D01*
X18612Y77271D01*
X18514Y77327D01*
X18476Y77339D01*
X18443Y77363D01*
X18341Y77410D01*
X18318Y77416D01*
X18298Y77429D01*
X18192Y77472D01*
X18175Y77475D01*
X18161Y77484D01*
X18055Y77523D01*
X18016Y77529D01*
X17981Y77547D01*
X17871Y77579D01*
X17853Y77580D01*
X17838Y77588D01*
X17728Y77615D01*
X17692Y77617D01*
X17660Y77630D01*
X17549Y77649D01*
X17529Y77649D01*
X17509Y77656D01*
X17395Y77671D01*
X17361Y77669D01*
X17328Y77678D01*
X17218Y77686D01*
X17199Y77684D01*
X17181Y77688D01*
X17067Y77692D01*
X17049Y77689D01*
X17031Y77693D01*
D02*
G37*
G36*
X52661Y75854D02*
X49693D01*
Y72295D01*
X52661D01*
Y75854D01*
D02*
G37*
G36*
Y71705D02*
X49693D01*
Y68146D01*
X52661D01*
Y71705D01*
D02*
G37*
G36*
X123854Y60177D02*
X120295D01*
Y57209D01*
X123854D01*
Y60177D01*
D02*
G37*
G36*
Y56618D02*
X120295D01*
Y53650D01*
X123854D01*
Y56618D01*
D02*
G37*
G36*
X119705D02*
X116146D01*
Y53650D01*
X119705D01*
Y56618D01*
D02*
G37*
G36*
X17031Y43677D02*
X14669D01*
X14652Y43674D01*
X14634Y43676D01*
X14520Y43672D01*
X14501Y43668D01*
X14482Y43670D01*
X14372Y43663D01*
X14340Y43654D01*
X14306Y43656D01*
X14191Y43640D01*
X14172Y43633D01*
X14152Y43634D01*
X14041Y43614D01*
X14008Y43601D01*
X13973Y43599D01*
X13863Y43572D01*
X13847Y43564D01*
X13830Y43563D01*
X13720Y43532D01*
X13685Y43514D01*
X13646Y43507D01*
X13540Y43468D01*
X13525Y43459D01*
X13509Y43456D01*
X13403Y43413D01*
X13383Y43400D01*
X13360Y43394D01*
X13258Y43347D01*
X13225Y43323D01*
X13187Y43311D01*
X13088Y43256D01*
X13077Y43246D01*
X13062Y43240D01*
X12964Y43181D01*
X12938Y43158D01*
X12906Y43144D01*
X12815Y43081D01*
X12795Y43060D01*
X12769Y43047D01*
X12679Y42976D01*
X12671Y42968D01*
X12662Y42962D01*
X12575Y42891D01*
X12550Y42862D01*
X12517Y42841D01*
X12435Y42762D01*
X12420Y42741D01*
X12399Y42727D01*
X12321Y42644D01*
X12300Y42611D01*
X12270Y42587D01*
X12199Y42500D01*
X12194Y42490D01*
X12185Y42483D01*
X12114Y42392D01*
X12101Y42366D01*
X12080Y42346D01*
X12017Y42255D01*
X12003Y42224D01*
X11980Y42198D01*
X11921Y42099D01*
X11916Y42085D01*
X11906Y42073D01*
X11851Y41975D01*
X11838Y41936D01*
X11814Y41904D01*
X11767Y41801D01*
X11762Y41778D01*
X11749Y41759D01*
X11705Y41652D01*
X11702Y41636D01*
X11693Y41622D01*
X11654Y41515D01*
X11648Y41477D01*
X11630Y41442D01*
X11598Y41331D01*
X11597Y41314D01*
X11590Y41298D01*
X11562Y41188D01*
X11560Y41153D01*
X11547Y41120D01*
X11528Y41010D01*
X11528Y40989D01*
X11522Y40970D01*
X11506Y40856D01*
X11508Y40822D01*
X11499Y40789D01*
X11491Y40679D01*
X11493Y40660D01*
X11489Y40641D01*
X11485Y40527D01*
X11491Y40492D01*
X11485Y40457D01*
X11489Y40343D01*
X11493Y40324D01*
X11491Y40305D01*
X11499Y40195D01*
X11508Y40162D01*
X11506Y40128D01*
X11522Y40014D01*
X11528Y39995D01*
X11528Y39974D01*
X11547Y39864D01*
X11560Y39831D01*
X11562Y39796D01*
X11590Y39686D01*
X11597Y39670D01*
X11598Y39653D01*
X11630Y39543D01*
X11648Y39508D01*
X11654Y39469D01*
X11693Y39362D01*
X11702Y39348D01*
X11705Y39332D01*
X11749Y39226D01*
X11762Y39206D01*
X11767Y39183D01*
X11814Y39081D01*
X11838Y39048D01*
X11851Y39010D01*
X11906Y38911D01*
X11916Y38899D01*
X11921Y38885D01*
X11980Y38787D01*
X12003Y38761D01*
X12017Y38729D01*
X12080Y38638D01*
X12101Y38618D01*
X12114Y38592D01*
X12185Y38502D01*
X12194Y38494D01*
X12199Y38484D01*
X12270Y38398D01*
X12300Y38373D01*
X12321Y38340D01*
X12399Y38258D01*
X12420Y38243D01*
X12435Y38222D01*
X12517Y38144D01*
X12550Y38123D01*
X12575Y38093D01*
X12662Y38022D01*
X12671Y38017D01*
X12679Y38008D01*
X12769Y37937D01*
X12795Y37924D01*
X12815Y37903D01*
X12906Y37840D01*
X12938Y37826D01*
X12964Y37803D01*
X13062Y37744D01*
X13077Y37739D01*
X13088Y37729D01*
X13187Y37673D01*
X13225Y37661D01*
X13258Y37637D01*
X13360Y37590D01*
X13383Y37584D01*
X13403Y37571D01*
X13509Y37528D01*
X13525Y37525D01*
X13540Y37516D01*
X13646Y37477D01*
X13685Y37471D01*
X13720Y37453D01*
X13830Y37421D01*
X13847Y37420D01*
X13863Y37412D01*
X13973Y37385D01*
X14008Y37383D01*
X14041Y37370D01*
X14151Y37351D01*
X14172Y37351D01*
X14191Y37344D01*
X14306Y37329D01*
X14340Y37331D01*
X14372Y37322D01*
X14482Y37314D01*
X14501Y37316D01*
X14520Y37312D01*
X14634Y37308D01*
X14652Y37311D01*
X14669Y37307D01*
X17031D01*
X17049Y37311D01*
X17067Y37308D01*
X17181Y37312D01*
X17199Y37316D01*
X17218Y37314D01*
X17328Y37322D01*
X17361Y37331D01*
X17395Y37329D01*
X17509Y37344D01*
X17529Y37351D01*
X17549Y37351D01*
X17660Y37370D01*
X17692Y37383D01*
X17728Y37385D01*
X17838Y37412D01*
X17853Y37420D01*
X17871Y37421D01*
X17981Y37453D01*
X18016Y37471D01*
X18055Y37477D01*
X18161Y37516D01*
X18175Y37525D01*
X18192Y37528D01*
X18298Y37571D01*
X18318Y37584D01*
X18341Y37590D01*
X18443Y37637D01*
X18476Y37661D01*
X18514Y37673D01*
X18612Y37729D01*
X18624Y37739D01*
X18639Y37744D01*
X18737Y37803D01*
X18763Y37826D01*
X18795Y37840D01*
X18885Y37903D01*
X18906Y37924D01*
X18932Y37937D01*
X19022Y38008D01*
X19029Y38017D01*
X19039Y38022D01*
X19126Y38093D01*
X19151Y38123D01*
X19184Y38144D01*
X19266Y38222D01*
X19281Y38243D01*
X19301Y38258D01*
X19380Y38340D01*
X19401Y38373D01*
X19431Y38398D01*
X19502Y38484D01*
X19507Y38494D01*
X19515Y38502D01*
X19586Y38592D01*
X19600Y38618D01*
X19620Y38638D01*
X19683Y38729D01*
X19697Y38761D01*
X19721Y38787D01*
X19780Y38885D01*
X19785Y38899D01*
X19795Y38911D01*
X19850Y39010D01*
X19863Y39048D01*
X19886Y39081D01*
X19934Y39183D01*
X19939Y39206D01*
X19952Y39226D01*
X19995Y39332D01*
X19999Y39348D01*
X20007Y39362D01*
X20047Y39469D01*
X20053Y39508D01*
X20071Y39543D01*
X20102Y39653D01*
X20104Y39670D01*
X20111Y39686D01*
X20139Y39796D01*
X20141Y39831D01*
X20153Y39864D01*
X20173Y39974D01*
X20173Y39995D01*
X20179Y40014D01*
X20195Y40128D01*
X20193Y40162D01*
X20202Y40195D01*
X20210Y40305D01*
X20208Y40324D01*
X20212Y40343D01*
X20216Y40457D01*
X20210Y40492D01*
X20216Y40527D01*
X20212Y40641D01*
X20208Y40660D01*
X20210Y40679D01*
X20202Y40789D01*
X20193Y40822D01*
X20195Y40856D01*
X20179Y40970D01*
X20173Y40989D01*
X20173Y41010D01*
X20153Y41120D01*
X20141Y41153D01*
X20139Y41188D01*
X20111Y41298D01*
X20104Y41314D01*
X20102Y41331D01*
X20071Y41442D01*
X20053Y41477D01*
X20047Y41515D01*
X20007Y41622D01*
X19999Y41636D01*
X19995Y41652D01*
X19952Y41759D01*
X19939Y41778D01*
X19934Y41801D01*
X19886Y41904D01*
X19863Y41936D01*
X19850Y41975D01*
X19795Y42073D01*
X19785Y42085D01*
X19780Y42099D01*
X19721Y42198D01*
X19697Y42224D01*
X19683Y42255D01*
X19620Y42346D01*
X19600Y42366D01*
X19586Y42392D01*
X19515Y42483D01*
X19507Y42490D01*
X19502Y42500D01*
X19431Y42587D01*
X19401Y42611D01*
X19380Y42644D01*
X19301Y42727D01*
X19281Y42741D01*
X19266Y42762D01*
X19184Y42841D01*
X19151Y42862D01*
X19126Y42891D01*
X19039Y42962D01*
X19029Y42968D01*
X19022Y42976D01*
X18932Y43047D01*
X18906Y43060D01*
X18886Y43081D01*
X18795Y43144D01*
X18763Y43158D01*
X18737Y43181D01*
X18639Y43240D01*
X18624Y43246D01*
X18612Y43256D01*
X18514Y43311D01*
X18476Y43323D01*
X18443Y43347D01*
X18341Y43394D01*
X18318Y43400D01*
X18298Y43413D01*
X18192Y43456D01*
X18175Y43459D01*
X18161Y43468D01*
X18055Y43507D01*
X18016Y43514D01*
X17981Y43532D01*
X17871Y43563D01*
X17853Y43564D01*
X17838Y43572D01*
X17728Y43599D01*
X17692Y43601D01*
X17660Y43614D01*
X17549Y43634D01*
X17529Y43633D01*
X17509Y43640D01*
X17395Y43656D01*
X17361Y43654D01*
X17328Y43663D01*
X17218Y43670D01*
X17199Y43668D01*
X17181Y43672D01*
X17067Y43676D01*
X17049Y43674D01*
X17031Y43677D01*
D02*
G37*
G36*
X34488Y46378D02*
X31126D01*
X27764D01*
Y44098D01*
X28902D01*
X28911Y44055D01*
X28934Y43599D01*
X28824Y43572D01*
X28808Y43564D01*
X28791Y43563D01*
X28681Y43532D01*
X28645Y43514D01*
X28607Y43507D01*
X28500Y43468D01*
X28486Y43459D01*
X28470Y43456D01*
X28363Y43413D01*
X28344Y43400D01*
X28321Y43394D01*
X28218Y43347D01*
X28186Y43323D01*
X28148Y43311D01*
X28049Y43256D01*
X28037Y43246D01*
X28023Y43240D01*
X27924Y43181D01*
X27898Y43158D01*
X27867Y43144D01*
X27776Y43081D01*
X27756Y43060D01*
X27730Y43047D01*
X27639Y42976D01*
X27632Y42968D01*
X27622Y42962D01*
X27536Y42891D01*
X27511Y42862D01*
X27478Y42841D01*
X27395Y42762D01*
X27381Y42741D01*
X27360Y42727D01*
X27281Y42644D01*
X27261Y42611D01*
X27231Y42587D01*
X27160Y42500D01*
X27154Y42490D01*
X27146Y42483D01*
X27075Y42392D01*
X27062Y42366D01*
X27041Y42346D01*
X26978Y42255D01*
X26964Y42224D01*
X26941Y42198D01*
X26882Y42099D01*
X26876Y42085D01*
X26866Y42073D01*
X26811Y41975D01*
X26799Y41936D01*
X26775Y41904D01*
X26728Y41801D01*
X26722Y41778D01*
X26709Y41759D01*
X26666Y41652D01*
X26663Y41636D01*
X26654Y41622D01*
X26615Y41515D01*
X26608Y41477D01*
X26590Y41442D01*
X26559Y41331D01*
X26558Y41314D01*
X26550Y41298D01*
X26523Y41188D01*
X26521Y41153D01*
X26508Y41120D01*
X26488Y41010D01*
X26489Y40989D01*
X26482Y40970D01*
X26466Y40856D01*
X26468Y40822D01*
X26459Y40789D01*
X26452Y40679D01*
X26454Y40660D01*
X26449Y40641D01*
X26446Y40527D01*
X26451Y40492D01*
X26446Y40457D01*
X26449Y40343D01*
X26454Y40324D01*
X26452Y40305D01*
X26459Y40195D01*
X26468Y40162D01*
X26466Y40128D01*
X26482Y40014D01*
X26489Y39995D01*
X26488Y39974D01*
X26508Y39864D01*
X26521Y39831D01*
X26523Y39796D01*
X26550Y39686D01*
X26558Y39670D01*
X26559Y39653D01*
X26590Y39543D01*
X26608Y39508D01*
X26615Y39469D01*
X26654Y39362D01*
X26663Y39348D01*
X26666Y39332D01*
X26709Y39226D01*
X26722Y39206D01*
X26728Y39183D01*
X26775Y39081D01*
X26799Y39048D01*
X26811Y39010D01*
X26866Y38911D01*
X26876Y38899D01*
X26882Y38885D01*
X26941Y38787D01*
X26964Y38761D01*
X26978Y38729D01*
X27041Y38638D01*
X27062Y38618D01*
X27075Y38592D01*
X27146Y38502D01*
X27154Y38494D01*
X27160Y38484D01*
X27231Y38398D01*
X27261Y38373D01*
X27281Y38340D01*
X27360Y38258D01*
X27381Y38243D01*
X27395Y38222D01*
X27478Y38144D01*
X27511Y38123D01*
X27536Y38093D01*
X27622Y38022D01*
X27632Y38017D01*
X27639Y38008D01*
X27730Y37937D01*
X27756Y37924D01*
X27776Y37903D01*
X27867Y37840D01*
X27898Y37826D01*
X27924Y37803D01*
X28023Y37744D01*
X28037Y37739D01*
X28049Y37729D01*
X28148Y37673D01*
X28186Y37661D01*
X28218Y37637D01*
X28321Y37590D01*
X28344Y37584D01*
X28363Y37571D01*
X28470Y37528D01*
X28486Y37525D01*
X28500Y37516D01*
X28607Y37477D01*
X28646Y37471D01*
X28681Y37453D01*
X28791Y37421D01*
X28808Y37420D01*
X28824Y37412D01*
X28934Y37385D01*
X28969Y37383D01*
X29002Y37370D01*
X29112Y37351D01*
X29133Y37351D01*
X29152Y37344D01*
X29266Y37329D01*
X29300Y37331D01*
X29333Y37322D01*
X29443Y37314D01*
X29462Y37316D01*
X29481Y37312D01*
X29595Y37308D01*
X29612Y37311D01*
X29630Y37307D01*
X31992D01*
X32010Y37311D01*
X32027Y37308D01*
X32142Y37312D01*
X32160Y37316D01*
X32179Y37314D01*
X32289Y37322D01*
X32322Y37331D01*
X32356Y37329D01*
X32470Y37344D01*
X32489Y37351D01*
X32510Y37351D01*
X32620Y37370D01*
X32653Y37383D01*
X32688Y37385D01*
X32798Y37412D01*
X32814Y37420D01*
X32831Y37421D01*
X32942Y37453D01*
X32977Y37471D01*
X33015Y37477D01*
X33122Y37516D01*
X33136Y37525D01*
X33152Y37528D01*
X33259Y37571D01*
X33278Y37584D01*
X33301Y37590D01*
X33404Y37637D01*
X33436Y37661D01*
X33475Y37673D01*
X33573Y37729D01*
X33585Y37739D01*
X33599Y37744D01*
X33698Y37803D01*
X33724Y37826D01*
X33755Y37840D01*
X33846Y37903D01*
X33866Y37924D01*
X33892Y37937D01*
X33983Y38008D01*
X33990Y38017D01*
X34000Y38022D01*
X34087Y38093D01*
X34111Y38123D01*
X34144Y38144D01*
X34227Y38222D01*
X34241Y38243D01*
X34262Y38258D01*
X34341Y38340D01*
X34361Y38373D01*
X34391Y38398D01*
X34462Y38484D01*
X34468Y38494D01*
X34476Y38502D01*
X34547Y38592D01*
X34560Y38618D01*
X34581Y38638D01*
X34644Y38729D01*
X34658Y38761D01*
X34681Y38787D01*
X34740Y38885D01*
X34746Y38899D01*
X34756Y38911D01*
X34811Y39010D01*
X34823Y39048D01*
X34847Y39081D01*
X34894Y39183D01*
X34900Y39206D01*
X34913Y39226D01*
X34956Y39332D01*
X34959Y39348D01*
X34968Y39362D01*
X35007Y39469D01*
X35013Y39508D01*
X35032Y39543D01*
X35063Y39653D01*
X35064Y39670D01*
X35072Y39686D01*
X35099Y39796D01*
X35101Y39831D01*
X35114Y39864D01*
X35134Y39974D01*
X35133Y39995D01*
X35140Y40014D01*
X35156Y40128D01*
X35154Y40162D01*
X35163Y40195D01*
X35171Y40305D01*
X35168Y40324D01*
X35173Y40343D01*
X35177Y40457D01*
X35171Y40492D01*
X35177Y40527D01*
X35173Y40641D01*
X35168Y40660D01*
X35171Y40679D01*
X35163Y40789D01*
X35154Y40822D01*
X35156Y40856D01*
X35140Y40970D01*
X35133Y40989D01*
X35134Y41010D01*
X35114Y41120D01*
X35101Y41153D01*
X35099Y41188D01*
X35072Y41298D01*
X35064Y41314D01*
X35063Y41331D01*
X35032Y41442D01*
X35013Y41477D01*
X35007Y41515D01*
X34968Y41622D01*
X34959Y41636D01*
X34956Y41652D01*
X34913Y41759D01*
X34900Y41778D01*
X34894Y41801D01*
X34847Y41904D01*
X34823Y41936D01*
X34811Y41975D01*
X34756Y42073D01*
X34746Y42085D01*
X34740Y42099D01*
X34681Y42198D01*
X34658Y42224D01*
X34644Y42255D01*
X34581Y42346D01*
X34560Y42366D01*
X34547Y42392D01*
X34476Y42483D01*
X34468Y42490D01*
X34462Y42500D01*
X34391Y42587D01*
X34361Y42611D01*
X34341Y42644D01*
X34262Y42727D01*
X34241Y42741D01*
X34227Y42762D01*
X34144Y42841D01*
X34111Y42862D01*
X34087Y42891D01*
X34000Y42962D01*
X33990Y42968D01*
X33983Y42976D01*
X33892Y43047D01*
X33866Y43060D01*
X33846Y43081D01*
X33755Y43144D01*
X33724Y43158D01*
X33698Y43181D01*
X33599Y43240D01*
X33585Y43246D01*
X33573Y43256D01*
X33475Y43311D01*
X33436Y43323D01*
X33404Y43347D01*
X33301Y43394D01*
X33278Y43400D01*
X33259Y43413D01*
X33152Y43456D01*
X33136Y43459D01*
X33122Y43468D01*
X33015Y43507D01*
X32977Y43514D01*
X32941Y43532D01*
X32831Y43563D01*
X32814Y43564D01*
X32798Y43572D01*
X32688Y43599D01*
X32711Y44055D01*
X32720Y44098D01*
X34488D01*
Y46378D01*
D02*
G37*
G36*
X92354Y32661D02*
X88795D01*
Y29693D01*
X92354D01*
Y32661D01*
D02*
G37*
G36*
X88205D02*
X84646D01*
Y29693D01*
X88205D01*
Y32661D01*
D02*
G37*
G36*
X152894Y26335D02*
X144988D01*
Y18429D01*
X152894D01*
Y26335D01*
D02*
G37*
G36*
X138941Y26369D02*
X137909Y26233D01*
X136948Y25835D01*
X136122Y25201D01*
X135488Y24375D01*
X135090Y23414D01*
X134954Y22382D01*
X135090Y21350D01*
X135488Y20389D01*
X136122Y19563D01*
X136948Y18929D01*
X137909Y18531D01*
X138941Y18395D01*
X139973Y18531D01*
X140934Y18929D01*
X141760Y19563D01*
X142394Y20389D01*
X142792Y21350D01*
X142928Y22382D01*
X142792Y23414D01*
X142394Y24375D01*
X141760Y25201D01*
X140934Y25835D01*
X139973Y26233D01*
X138941Y26369D01*
D02*
G37*
G36*
X128941D02*
X127909Y26233D01*
X126947Y25835D01*
X126122Y25201D01*
X125488Y24375D01*
X125090Y23414D01*
X124954Y22382D01*
X125090Y21350D01*
X125488Y20389D01*
X126122Y19563D01*
X126947Y18929D01*
X127909Y18531D01*
X128941Y18395D01*
X129973Y18531D01*
X130934Y18929D01*
X131760Y19563D01*
X132394Y20389D01*
X132792Y21350D01*
X132928Y22382D01*
X132792Y23414D01*
X132394Y24375D01*
X131760Y25201D01*
X130934Y25835D01*
X129973Y26233D01*
X128941Y26369D01*
D02*
G37*
G36*
X118941D02*
X117909Y26233D01*
X116947Y25835D01*
X116122Y25201D01*
X115488Y24375D01*
X115090Y23414D01*
X114954Y22382D01*
X115090Y21350D01*
X115488Y20389D01*
X116122Y19563D01*
X116947Y18929D01*
X117909Y18531D01*
X118941Y18395D01*
X119973Y18531D01*
X120934Y18929D01*
X121760Y19563D01*
X122394Y20389D01*
X122792Y21350D01*
X122928Y22382D01*
X122792Y23414D01*
X122394Y24375D01*
X121760Y25201D01*
X120934Y25835D01*
X119973Y26233D01*
X118941Y26369D01*
D02*
G37*
G36*
X108941D02*
X107909Y26233D01*
X106948Y25835D01*
X106122Y25201D01*
X105488Y24375D01*
X105090Y23414D01*
X104954Y22382D01*
X105090Y21350D01*
X105488Y20389D01*
X106122Y19563D01*
X106948Y18929D01*
X107909Y18531D01*
X108941Y18395D01*
X109973Y18531D01*
X110934Y18929D01*
X111760Y19563D01*
X112394Y20389D01*
X112792Y21350D01*
X112928Y22382D01*
X112792Y23414D01*
X112394Y24375D01*
X111760Y25201D01*
X110934Y25835D01*
X109973Y26233D01*
X108941Y26369D01*
D02*
G37*
G36*
X98941D02*
X97909Y26233D01*
X96947Y25835D01*
X96122Y25201D01*
X95488Y24375D01*
X95090Y23414D01*
X94954Y22382D01*
X95090Y21350D01*
X95488Y20389D01*
X96122Y19563D01*
X96947Y18929D01*
X97909Y18531D01*
X98941Y18395D01*
X99973Y18531D01*
X100934Y18929D01*
X101760Y19563D01*
X102394Y20389D01*
X102792Y21350D01*
X102928Y22382D01*
X102792Y23414D01*
X102394Y24375D01*
X101760Y25201D01*
X100934Y25835D01*
X99973Y26233D01*
X98941Y26369D01*
D02*
G37*
G36*
X88941D02*
X87909Y26233D01*
X86948Y25835D01*
X86122Y25201D01*
X85488Y24375D01*
X85090Y23414D01*
X84954Y22382D01*
X85090Y21350D01*
X85488Y20389D01*
X86122Y19563D01*
X86948Y18929D01*
X87909Y18531D01*
X88941Y18395D01*
X89973Y18531D01*
X90934Y18929D01*
X91760Y19563D01*
X92394Y20389D01*
X92792Y21350D01*
X92928Y22382D01*
X92792Y23414D01*
X92394Y24375D01*
X91760Y25201D01*
X90934Y25835D01*
X89973Y26233D01*
X88941Y26369D01*
D02*
G37*
G36*
X72303Y35817D02*
X67697D01*
X67115Y35701D01*
X66621Y35371D01*
X66291Y34877D01*
X66176Y34295D01*
Y31343D01*
X66291Y30760D01*
X66621Y30267D01*
X67115Y29937D01*
X67697Y29821D01*
X68471D01*
Y26307D01*
X67909Y26233D01*
X66948Y25835D01*
X66122Y25201D01*
X65488Y24375D01*
X65090Y23414D01*
X64954Y22382D01*
X65090Y21350D01*
X65488Y20389D01*
X66122Y19563D01*
X66948Y18929D01*
X67909Y18531D01*
X68941Y18395D01*
X69973Y18531D01*
X70934Y18929D01*
X71760Y19563D01*
X72394Y20389D01*
X72792Y21350D01*
X72928Y22382D01*
X72792Y23414D01*
X72394Y24375D01*
X71760Y25201D01*
X71529Y25378D01*
Y29821D01*
X72303D01*
X72885Y29937D01*
X73379Y30267D01*
X73709Y30760D01*
X73825Y31343D01*
Y34295D01*
X73709Y34877D01*
X73379Y35371D01*
X72885Y35701D01*
X72303Y35817D01*
D02*
G37*
G36*
X61303D02*
X56697D01*
X56115Y35701D01*
X55621Y35371D01*
X55291Y34877D01*
X55176Y34295D01*
Y31343D01*
X55291Y30760D01*
X55621Y30267D01*
X56115Y29937D01*
X56697Y29821D01*
X57971D01*
Y26241D01*
X57909Y26233D01*
X56947Y25835D01*
X56122Y25201D01*
X55488Y24375D01*
X55090Y23414D01*
X54954Y22382D01*
X55090Y21350D01*
X55488Y20389D01*
X56122Y19563D01*
X56947Y18929D01*
X57909Y18531D01*
X58941Y18395D01*
X59973Y18531D01*
X60934Y18929D01*
X61760Y19563D01*
X62394Y20389D01*
X62792Y21350D01*
X62928Y22382D01*
X62792Y23414D01*
X62394Y24375D01*
X61760Y25201D01*
X61029Y25762D01*
Y29821D01*
X61303D01*
X61885Y29937D01*
X62379Y30267D01*
X62709Y30760D01*
X62824Y31343D01*
Y34295D01*
X62709Y34877D01*
X62379Y35371D01*
X61885Y35701D01*
X61303Y35817D01*
D02*
G37*
G36*
X52303D02*
X47697D01*
X47115Y35701D01*
X46621Y35371D01*
X46291Y34877D01*
X46176Y34295D01*
Y31343D01*
X46291Y30760D01*
X46621Y30267D01*
X47115Y29937D01*
X47697Y29821D01*
X47971D01*
Y26241D01*
X47909Y26233D01*
X46948Y25835D01*
X46122Y25201D01*
X45488Y24375D01*
X45090Y23414D01*
X44954Y22382D01*
X45090Y21350D01*
X45488Y20389D01*
X46122Y19563D01*
X46948Y18929D01*
X47909Y18531D01*
X48941Y18395D01*
X49973Y18531D01*
X50934Y18929D01*
X51760Y19563D01*
X52394Y20389D01*
X52792Y21350D01*
X52928Y22382D01*
X52792Y23414D01*
X52394Y24375D01*
X51760Y25201D01*
X51029Y25762D01*
Y29821D01*
X52303D01*
X52885Y29937D01*
X53379Y30267D01*
X53709Y30760D01*
X53825Y31343D01*
Y34295D01*
X53709Y34877D01*
X53379Y35371D01*
X52885Y35701D01*
X52303Y35817D01*
D02*
G37*
G36*
X38941Y26369D02*
X37909Y26233D01*
X36948Y25835D01*
X36122Y25201D01*
X35488Y24375D01*
X35090Y23414D01*
X34954Y22382D01*
X35090Y21350D01*
X35488Y20389D01*
X36122Y19563D01*
X36948Y18929D01*
X37909Y18531D01*
X38941Y18395D01*
X39973Y18531D01*
X40934Y18929D01*
X41760Y19563D01*
X42394Y20389D01*
X42792Y21350D01*
X42928Y22382D01*
X42792Y23414D01*
X42394Y24375D01*
X41760Y25201D01*
X40934Y25835D01*
X39973Y26233D01*
X38941Y26369D01*
D02*
G37*
G36*
X28941D02*
X27909Y26233D01*
X26948Y25835D01*
X26122Y25201D01*
X25488Y24375D01*
X25090Y23414D01*
X24954Y22382D01*
X25090Y21350D01*
X25488Y20389D01*
X26122Y19563D01*
X26948Y18929D01*
X27909Y18531D01*
X28941Y18395D01*
X29973Y18531D01*
X30934Y18929D01*
X31760Y19563D01*
X32394Y20389D01*
X32792Y21350D01*
X32928Y22382D01*
X32792Y23414D01*
X32394Y24375D01*
X31760Y25201D01*
X30934Y25835D01*
X29973Y26233D01*
X28941Y26369D01*
D02*
G37*
G36*
X18941D02*
X17909Y26233D01*
X16948Y25835D01*
X16122Y25201D01*
X15488Y24375D01*
X15090Y23414D01*
X14954Y22382D01*
X15090Y21350D01*
X15488Y20389D01*
X16122Y19563D01*
X16948Y18929D01*
X17909Y18531D01*
X18941Y18395D01*
X19973Y18531D01*
X20934Y18929D01*
X21760Y19563D01*
X22394Y20389D01*
X22792Y21350D01*
X22928Y22382D01*
X22792Y23414D01*
X22394Y24375D01*
X21760Y25201D01*
X20934Y25835D01*
X19973Y26233D01*
X18941Y26369D01*
D02*
G37*
G36*
X8941D02*
X7909Y26233D01*
X6948Y25835D01*
X6122Y25201D01*
X5488Y24375D01*
X5090Y23414D01*
X4954Y22382D01*
X5090Y21350D01*
X5488Y20389D01*
X6122Y19563D01*
X6948Y18929D01*
X7909Y18531D01*
X8941Y18395D01*
X9973Y18531D01*
X10934Y18929D01*
X11760Y19563D01*
X12394Y20389D01*
X12792Y21350D01*
X12928Y22382D01*
X12792Y23414D01*
X12394Y24375D01*
X11760Y25201D01*
X10934Y25835D01*
X9973Y26233D01*
X8941Y26369D01*
D02*
G37*
G36*
X148941Y16369D02*
X147909Y16233D01*
X146948Y15835D01*
X146122Y15201D01*
X145488Y14375D01*
X145090Y13414D01*
X144954Y12382D01*
X145090Y11350D01*
X145488Y10389D01*
X146122Y9563D01*
X146948Y8929D01*
X147909Y8531D01*
X148941Y8395D01*
X149973Y8531D01*
X150934Y8929D01*
X151760Y9563D01*
X152394Y10389D01*
X152792Y11350D01*
X152928Y12382D01*
X152792Y13414D01*
X152394Y14375D01*
X151760Y15201D01*
X150934Y15835D01*
X149973Y16233D01*
X148941Y16369D01*
D02*
G37*
G36*
X138941D02*
X137909Y16233D01*
X136948Y15835D01*
X136122Y15201D01*
X135488Y14375D01*
X135090Y13414D01*
X134954Y12382D01*
X135090Y11350D01*
X135488Y10389D01*
X136122Y9563D01*
X136948Y8929D01*
X137909Y8531D01*
X138941Y8395D01*
X139973Y8531D01*
X140934Y8929D01*
X141760Y9563D01*
X142394Y10389D01*
X142792Y11350D01*
X142928Y12382D01*
X142792Y13414D01*
X142394Y14375D01*
X141760Y15201D01*
X140934Y15835D01*
X139973Y16233D01*
X138941Y16369D01*
D02*
G37*
G36*
X128941D02*
X127909Y16233D01*
X126947Y15835D01*
X126122Y15201D01*
X125488Y14375D01*
X125090Y13414D01*
X124954Y12382D01*
X125090Y11350D01*
X125488Y10389D01*
X126122Y9563D01*
X126947Y8929D01*
X127909Y8531D01*
X128941Y8395D01*
X129973Y8531D01*
X130934Y8929D01*
X131760Y9563D01*
X132394Y10389D01*
X132792Y11350D01*
X132928Y12382D01*
X132792Y13414D01*
X132394Y14375D01*
X131760Y15201D01*
X130934Y15835D01*
X129973Y16233D01*
X128941Y16369D01*
D02*
G37*
G36*
X118941D02*
X117909Y16233D01*
X116947Y15835D01*
X116122Y15201D01*
X115488Y14375D01*
X115090Y13414D01*
X114954Y12382D01*
X115090Y11350D01*
X115488Y10389D01*
X116122Y9563D01*
X116947Y8929D01*
X117909Y8531D01*
X118941Y8395D01*
X119973Y8531D01*
X120934Y8929D01*
X121760Y9563D01*
X122394Y10389D01*
X122792Y11350D01*
X122928Y12382D01*
X122792Y13414D01*
X122394Y14375D01*
X121760Y15201D01*
X120934Y15835D01*
X119973Y16233D01*
X118941Y16369D01*
D02*
G37*
G36*
X108941D02*
X107909Y16233D01*
X106948Y15835D01*
X106122Y15201D01*
X105488Y14375D01*
X105090Y13414D01*
X104954Y12382D01*
X105090Y11350D01*
X105488Y10389D01*
X106122Y9563D01*
X106948Y8929D01*
X107909Y8531D01*
X108941Y8395D01*
X109973Y8531D01*
X110934Y8929D01*
X111760Y9563D01*
X112394Y10389D01*
X112792Y11350D01*
X112928Y12382D01*
X112792Y13414D01*
X112394Y14375D01*
X111760Y15201D01*
X110934Y15835D01*
X109973Y16233D01*
X108941Y16369D01*
D02*
G37*
G36*
X98941D02*
X97909Y16233D01*
X96947Y15835D01*
X96122Y15201D01*
X95488Y14375D01*
X95090Y13414D01*
X94954Y12382D01*
X95090Y11350D01*
X95488Y10389D01*
X96122Y9563D01*
X96947Y8929D01*
X97909Y8531D01*
X98941Y8395D01*
X99973Y8531D01*
X100934Y8929D01*
X101760Y9563D01*
X102394Y10389D01*
X102792Y11350D01*
X102928Y12382D01*
X102792Y13414D01*
X102394Y14375D01*
X101760Y15201D01*
X100934Y15835D01*
X99973Y16233D01*
X98941Y16369D01*
D02*
G37*
G36*
X88941D02*
X87909Y16233D01*
X86948Y15835D01*
X86122Y15201D01*
X85488Y14375D01*
X85090Y13414D01*
X84954Y12382D01*
X85090Y11350D01*
X85488Y10389D01*
X86122Y9563D01*
X86948Y8929D01*
X87909Y8531D01*
X88941Y8395D01*
X89973Y8531D01*
X90934Y8929D01*
X91760Y9563D01*
X92394Y10389D01*
X92792Y11350D01*
X92928Y12382D01*
X92792Y13414D01*
X92394Y14375D01*
X91760Y15201D01*
X90934Y15835D01*
X89973Y16233D01*
X88941Y16369D01*
D02*
G37*
G36*
X78941D02*
X77909Y16233D01*
X76947Y15835D01*
X76122Y15201D01*
X75488Y14375D01*
X75090Y13414D01*
X74954Y12382D01*
X75090Y11350D01*
X75488Y10389D01*
X76122Y9563D01*
X76947Y8929D01*
X77909Y8531D01*
X78941Y8395D01*
X79973Y8531D01*
X80934Y8929D01*
X81760Y9563D01*
X82394Y10389D01*
X82792Y11350D01*
X82928Y12382D01*
X82792Y13414D01*
X82394Y14375D01*
X81760Y15201D01*
X80934Y15835D01*
X79973Y16233D01*
X78941Y16369D01*
D02*
G37*
G36*
X68941D02*
X67909Y16233D01*
X66948Y15835D01*
X66122Y15201D01*
X65488Y14375D01*
X65090Y13414D01*
X64954Y12382D01*
X65090Y11350D01*
X65488Y10389D01*
X66122Y9563D01*
X66948Y8929D01*
X67909Y8531D01*
X68941Y8395D01*
X69973Y8531D01*
X70934Y8929D01*
X71760Y9563D01*
X72394Y10389D01*
X72792Y11350D01*
X72928Y12382D01*
X72792Y13414D01*
X72394Y14375D01*
X71760Y15201D01*
X70934Y15835D01*
X69973Y16233D01*
X68941Y16369D01*
D02*
G37*
G36*
X58941D02*
X57909Y16233D01*
X56947Y15835D01*
X56122Y15201D01*
X55488Y14375D01*
X55090Y13414D01*
X54954Y12382D01*
X55090Y11350D01*
X55488Y10389D01*
X56122Y9563D01*
X56947Y8929D01*
X57909Y8531D01*
X58941Y8395D01*
X59973Y8531D01*
X60934Y8929D01*
X61760Y9563D01*
X62394Y10389D01*
X62792Y11350D01*
X62928Y12382D01*
X62792Y13414D01*
X62394Y14375D01*
X61760Y15201D01*
X60934Y15835D01*
X59973Y16233D01*
X58941Y16369D01*
D02*
G37*
G36*
X48941D02*
X47909Y16233D01*
X46948Y15835D01*
X46122Y15201D01*
X45488Y14375D01*
X45090Y13414D01*
X44954Y12382D01*
X45090Y11350D01*
X45488Y10389D01*
X46122Y9563D01*
X46948Y8929D01*
X47909Y8531D01*
X48941Y8395D01*
X49973Y8531D01*
X50934Y8929D01*
X51760Y9563D01*
X52394Y10389D01*
X52792Y11350D01*
X52928Y12382D01*
X52792Y13414D01*
X52394Y14375D01*
X51760Y15201D01*
X50934Y15835D01*
X49973Y16233D01*
X48941Y16369D01*
D02*
G37*
G36*
X38941D02*
X37909Y16233D01*
X36948Y15835D01*
X36122Y15201D01*
X35488Y14375D01*
X35090Y13414D01*
X34954Y12382D01*
X35090Y11350D01*
X35488Y10389D01*
X36122Y9563D01*
X36948Y8929D01*
X37909Y8531D01*
X38941Y8395D01*
X39973Y8531D01*
X40934Y8929D01*
X41760Y9563D01*
X42394Y10389D01*
X42792Y11350D01*
X42928Y12382D01*
X42792Y13414D01*
X42394Y14375D01*
X41760Y15201D01*
X40934Y15835D01*
X39973Y16233D01*
X38941Y16369D01*
D02*
G37*
G36*
X28941D02*
X27909Y16233D01*
X26948Y15835D01*
X26122Y15201D01*
X25488Y14375D01*
X25090Y13414D01*
X24954Y12382D01*
X25090Y11350D01*
X25488Y10389D01*
X26122Y9563D01*
X26948Y8929D01*
X27909Y8531D01*
X28941Y8395D01*
X29973Y8531D01*
X30934Y8929D01*
X31760Y9563D01*
X32394Y10389D01*
X32792Y11350D01*
X32928Y12382D01*
X32792Y13414D01*
X32394Y14375D01*
X31760Y15201D01*
X30934Y15835D01*
X29973Y16233D01*
X28941Y16369D01*
D02*
G37*
G36*
X18941D02*
X17909Y16233D01*
X16948Y15835D01*
X16122Y15201D01*
X15488Y14375D01*
X15090Y13414D01*
X14954Y12382D01*
X15090Y11350D01*
X15488Y10389D01*
X16122Y9563D01*
X16948Y8929D01*
X17909Y8531D01*
X18941Y8395D01*
X19973Y8531D01*
X20934Y8929D01*
X21760Y9563D01*
X22394Y10389D01*
X22792Y11350D01*
X22928Y12382D01*
X22792Y13414D01*
X22394Y14375D01*
X21760Y15201D01*
X20934Y15835D01*
X19973Y16233D01*
X18941Y16369D01*
D02*
G37*
G36*
X8941D02*
X7909Y16233D01*
X6948Y15835D01*
X6122Y15201D01*
X5488Y14375D01*
X5090Y13414D01*
X4954Y12382D01*
X5090Y11350D01*
X5488Y10389D01*
X6122Y9563D01*
X6948Y8929D01*
X7909Y8531D01*
X8941Y8395D01*
X9973Y8531D01*
X10934Y8929D01*
X11760Y9563D01*
X12394Y10389D01*
X12792Y11350D01*
X12928Y12382D01*
X12792Y13414D01*
X12394Y14375D01*
X11760Y15201D01*
X10934Y15835D01*
X9973Y16233D01*
X8941Y16369D01*
D02*
G37*
%LPD*%
G36*
X32106Y76669D02*
X32217Y76661D01*
X32331Y76646D01*
X32441Y76626D01*
X32551Y76598D01*
X32661Y76567D01*
X32768Y76528D01*
X32874Y76484D01*
X32976Y76437D01*
X33075Y76382D01*
X33173Y76323D01*
X33264Y76260D01*
X33354Y76189D01*
X33441Y76118D01*
X33524Y76039D01*
X33602Y75957D01*
X33673Y75870D01*
X33744Y75779D01*
X33807Y75689D01*
X33866Y75590D01*
X33921Y75492D01*
X33968Y75390D01*
X34012Y75283D01*
X34051Y75177D01*
X34083Y75067D01*
X34110Y74957D01*
X34130Y74847D01*
X34146Y74732D01*
X34154Y74622D01*
X34157Y74508D01*
X34154Y74394D01*
X34146Y74283D01*
X34130Y74169D01*
X34110Y74059D01*
X34083Y73949D01*
X34051Y73839D01*
X34012Y73732D01*
X33968Y73626D01*
X33921Y73524D01*
X33866Y73425D01*
X33807Y73327D01*
X33744Y73236D01*
X33673Y73146D01*
X33602Y73059D01*
X33524Y72976D01*
X33441Y72898D01*
X33354Y72827D01*
X33264Y72756D01*
X33173Y72693D01*
X33075Y72634D01*
X32976Y72579D01*
X32874Y72531D01*
X32768Y72488D01*
X32661Y72449D01*
X32551Y72417D01*
X32441Y72390D01*
X32331Y72370D01*
X32217Y72354D01*
X32106Y72347D01*
X31992Y72342D01*
X29630D01*
X29516Y72347D01*
X29406Y72354D01*
X29291Y72370D01*
X29181Y72390D01*
X29071Y72417D01*
X28961Y72449D01*
X28854Y72488D01*
X28748Y72531D01*
X28646Y72579D01*
X28547Y72634D01*
X28449Y72693D01*
X28358Y72756D01*
X28268Y72827D01*
X28181Y72898D01*
X28098Y72976D01*
X28020Y73059D01*
X27949Y73146D01*
X27878Y73236D01*
X27815Y73327D01*
X27756Y73425D01*
X27701Y73524D01*
X27654Y73626D01*
X27610Y73732D01*
X27571Y73839D01*
X27539Y73949D01*
X27512Y74059D01*
X27492Y74169D01*
X27476Y74283D01*
X27468Y74394D01*
X27465Y74508D01*
X27468Y74622D01*
X27476Y74732D01*
X27492Y74847D01*
X27512Y74957D01*
X27539Y75067D01*
X27571Y75177D01*
X27610Y75283D01*
X27654Y75390D01*
X27701Y75492D01*
X27756Y75590D01*
X27815Y75689D01*
X27878Y75779D01*
X27949Y75870D01*
X28020Y75957D01*
X28098Y76039D01*
X28181Y76118D01*
X28268Y76189D01*
X28358Y76260D01*
X28449Y76323D01*
X28547Y76382D01*
X28646Y76437D01*
X28748Y76484D01*
X28854Y76528D01*
X28961Y76567D01*
X29071Y76598D01*
X29181Y76626D01*
X29291Y76646D01*
X29406Y76661D01*
X29516Y76669D01*
X29630Y76673D01*
X31992D01*
X32106Y76669D01*
D02*
G37*
G36*
X17146D02*
X17256Y76661D01*
X17370Y76646D01*
X17480Y76626D01*
X17591Y76598D01*
X17701Y76567D01*
X17807Y76528D01*
X17913Y76484D01*
X18016Y76437D01*
X18114Y76382D01*
X18213Y76323D01*
X18303Y76260D01*
X18394Y76189D01*
X18480Y76118D01*
X18563Y76039D01*
X18642Y75957D01*
X18713Y75870D01*
X18783Y75779D01*
X18846Y75689D01*
X18905Y75590D01*
X18961Y75492D01*
X19008Y75390D01*
X19051Y75283D01*
X19091Y75177D01*
X19122Y75067D01*
X19150Y74957D01*
X19169Y74847D01*
X19185Y74732D01*
X19193Y74622D01*
X19197Y74508D01*
X19193Y74394D01*
X19185Y74283D01*
X19169Y74169D01*
X19150Y74059D01*
X19122Y73949D01*
X19091Y73839D01*
X19051Y73732D01*
X19008Y73626D01*
X18961Y73524D01*
X18905Y73425D01*
X18846Y73327D01*
X18783Y73236D01*
X18713Y73146D01*
X18642Y73059D01*
X18563Y72976D01*
X18480Y72898D01*
X18394Y72827D01*
X18303Y72756D01*
X18213Y72693D01*
X18114Y72634D01*
X18016Y72579D01*
X17913Y72531D01*
X17807Y72488D01*
X17701Y72449D01*
X17591Y72417D01*
X17480Y72390D01*
X17370Y72370D01*
X17256Y72354D01*
X17146Y72347D01*
X17031Y72342D01*
X14669D01*
X14555Y72347D01*
X14445Y72354D01*
X14331Y72370D01*
X14220Y72390D01*
X14110Y72417D01*
X14000Y72449D01*
X13894Y72488D01*
X13787Y72531D01*
X13685Y72579D01*
X13587Y72634D01*
X13488Y72693D01*
X13398Y72756D01*
X13307Y72827D01*
X13220Y72898D01*
X13138Y72976D01*
X13059Y73059D01*
X12988Y73146D01*
X12917Y73236D01*
X12854Y73327D01*
X12795Y73425D01*
X12740Y73524D01*
X12693Y73626D01*
X12650Y73732D01*
X12610Y73839D01*
X12579Y73949D01*
X12551Y74059D01*
X12531Y74169D01*
X12516Y74283D01*
X12508Y74394D01*
X12504Y74508D01*
X12508Y74622D01*
X12516Y74732D01*
X12531Y74847D01*
X12551Y74957D01*
X12579Y75067D01*
X12610Y75177D01*
X12650Y75283D01*
X12693Y75390D01*
X12740Y75492D01*
X12795Y75590D01*
X12854Y75689D01*
X12917Y75779D01*
X12988Y75870D01*
X13059Y75957D01*
X13138Y76039D01*
X13220Y76118D01*
X13307Y76189D01*
X13398Y76260D01*
X13488Y76323D01*
X13587Y76382D01*
X13685Y76437D01*
X13787Y76484D01*
X13894Y76528D01*
X14000Y76567D01*
X14110Y76598D01*
X14220Y76626D01*
X14331Y76646D01*
X14445Y76661D01*
X14555Y76669D01*
X14669Y76673D01*
X17031D01*
X17146Y76669D01*
D02*
G37*
G36*
Y42654D02*
X17256Y42646D01*
X17370Y42630D01*
X17480Y42610D01*
X17591Y42583D01*
X17701Y42551D01*
X17807Y42512D01*
X17913Y42469D01*
X18016Y42421D01*
X18114Y42366D01*
X18213Y42307D01*
X18303Y42244D01*
X18394Y42173D01*
X18480Y42102D01*
X18563Y42024D01*
X18642Y41941D01*
X18713Y41854D01*
X18783Y41764D01*
X18846Y41673D01*
X18905Y41575D01*
X18961Y41476D01*
X19008Y41374D01*
X19051Y41268D01*
X19091Y41161D01*
X19122Y41051D01*
X19150Y40941D01*
X19169Y40831D01*
X19185Y40716D01*
X19193Y40606D01*
X19197Y40492D01*
X19193Y40378D01*
X19185Y40268D01*
X19169Y40154D01*
X19150Y40043D01*
X19122Y39933D01*
X19091Y39823D01*
X19051Y39717D01*
X19008Y39610D01*
X18961Y39508D01*
X18905Y39409D01*
X18846Y39311D01*
X18783Y39220D01*
X18713Y39130D01*
X18642Y39043D01*
X18563Y38961D01*
X18480Y38882D01*
X18394Y38811D01*
X18303Y38740D01*
X18213Y38677D01*
X18114Y38618D01*
X18016Y38563D01*
X17913Y38516D01*
X17807Y38472D01*
X17701Y38433D01*
X17591Y38402D01*
X17480Y38374D01*
X17370Y38354D01*
X17256Y38339D01*
X17146Y38331D01*
X17031Y38327D01*
X14669D01*
X14555Y38331D01*
X14445Y38339D01*
X14331Y38354D01*
X14220Y38374D01*
X14110Y38402D01*
X14000Y38433D01*
X13894Y38472D01*
X13787Y38516D01*
X13685Y38563D01*
X13587Y38618D01*
X13488Y38677D01*
X13398Y38740D01*
X13307Y38811D01*
X13220Y38882D01*
X13138Y38961D01*
X13059Y39043D01*
X12988Y39130D01*
X12917Y39220D01*
X12854Y39311D01*
X12795Y39409D01*
X12740Y39508D01*
X12693Y39610D01*
X12650Y39717D01*
X12610Y39823D01*
X12579Y39933D01*
X12551Y40043D01*
X12531Y40154D01*
X12516Y40268D01*
X12508Y40378D01*
X12504Y40492D01*
X12508Y40606D01*
X12516Y40716D01*
X12531Y40831D01*
X12551Y40941D01*
X12579Y41051D01*
X12610Y41161D01*
X12650Y41268D01*
X12693Y41374D01*
X12740Y41476D01*
X12795Y41575D01*
X12854Y41673D01*
X12917Y41764D01*
X12988Y41854D01*
X13059Y41941D01*
X13138Y42024D01*
X13220Y42102D01*
X13307Y42173D01*
X13398Y42244D01*
X13488Y42307D01*
X13587Y42366D01*
X13685Y42421D01*
X13787Y42469D01*
X13894Y42512D01*
X14000Y42551D01*
X14110Y42583D01*
X14220Y42610D01*
X14331Y42630D01*
X14445Y42646D01*
X14555Y42654D01*
X14669Y42658D01*
X17031D01*
X17146Y42654D01*
D02*
G37*
G36*
X32106D02*
X32217Y42646D01*
X32331Y42630D01*
X32441Y42610D01*
X32551Y42583D01*
X32661Y42551D01*
X32768Y42512D01*
X32874Y42469D01*
X32976Y42421D01*
X33075Y42366D01*
X33173Y42307D01*
X33264Y42244D01*
X33354Y42173D01*
X33441Y42102D01*
X33524Y42024D01*
X33602Y41941D01*
X33673Y41854D01*
X33744Y41764D01*
X33807Y41673D01*
X33866Y41575D01*
X33921Y41476D01*
X33968Y41374D01*
X34012Y41268D01*
X34051Y41161D01*
X34083Y41051D01*
X34110Y40941D01*
X34130Y40831D01*
X34146Y40716D01*
X34154Y40606D01*
X34157Y40492D01*
X34154Y40378D01*
X34146Y40268D01*
X34130Y40154D01*
X34110Y40043D01*
X34083Y39933D01*
X34051Y39823D01*
X34012Y39717D01*
X33968Y39610D01*
X33921Y39508D01*
X33866Y39409D01*
X33807Y39311D01*
X33744Y39220D01*
X33673Y39130D01*
X33602Y39043D01*
X33524Y38961D01*
X33441Y38882D01*
X33354Y38811D01*
X33264Y38740D01*
X33173Y38677D01*
X33075Y38618D01*
X32976Y38563D01*
X32874Y38516D01*
X32768Y38472D01*
X32661Y38433D01*
X32551Y38402D01*
X32441Y38374D01*
X32331Y38354D01*
X32217Y38339D01*
X32106Y38331D01*
X31992Y38327D01*
X29630D01*
X29516Y38331D01*
X29406Y38339D01*
X29291Y38354D01*
X29181Y38374D01*
X29071Y38402D01*
X28961Y38433D01*
X28854Y38472D01*
X28748Y38516D01*
X28646Y38563D01*
X28547Y38618D01*
X28449Y38677D01*
X28358Y38740D01*
X28268Y38811D01*
X28181Y38882D01*
X28098Y38961D01*
X28020Y39043D01*
X27949Y39130D01*
X27878Y39220D01*
X27815Y39311D01*
X27756Y39409D01*
X27701Y39508D01*
X27654Y39610D01*
X27610Y39717D01*
X27571Y39823D01*
X27539Y39933D01*
X27512Y40043D01*
X27492Y40154D01*
X27476Y40268D01*
X27468Y40378D01*
X27465Y40492D01*
X27468Y40606D01*
X27476Y40716D01*
X27492Y40831D01*
X27512Y40941D01*
X27539Y41051D01*
X27571Y41161D01*
X27610Y41268D01*
X27654Y41374D01*
X27701Y41476D01*
X27756Y41575D01*
X27815Y41673D01*
X27878Y41764D01*
X27949Y41854D01*
X28020Y41941D01*
X28098Y42024D01*
X28181Y42102D01*
X28268Y42173D01*
X28358Y42244D01*
X28449Y42307D01*
X28547Y42366D01*
X28646Y42421D01*
X28748Y42469D01*
X28854Y42512D01*
X28961Y42551D01*
X29071Y42583D01*
X29181Y42610D01*
X29291Y42630D01*
X29406Y42646D01*
X29516Y42654D01*
X29630Y42658D01*
X31992D01*
X32106Y42654D01*
D02*
G37*
%LPC*%
G36*
X69441Y156224D02*
Y152803D01*
X72862D01*
X72792Y153335D01*
X72394Y154297D01*
X71760Y155122D01*
X70934Y155756D01*
X69973Y156154D01*
X69441Y156224D01*
D02*
G37*
G36*
X68441D02*
X67909Y156154D01*
X66948Y155756D01*
X66122Y155122D01*
X65488Y154297D01*
X65090Y153335D01*
X65020Y152803D01*
X68441D01*
Y156224D01*
D02*
G37*
G36*
X59441D02*
Y152803D01*
X62862D01*
X62792Y153335D01*
X62394Y154297D01*
X61760Y155122D01*
X60934Y155756D01*
X59973Y156154D01*
X59441Y156224D01*
D02*
G37*
G36*
X58441D02*
X57909Y156154D01*
X56947Y155756D01*
X56122Y155122D01*
X55488Y154297D01*
X55090Y153335D01*
X55020Y152803D01*
X58441D01*
Y156224D01*
D02*
G37*
G36*
X29441D02*
Y152803D01*
X32862D01*
X32792Y153335D01*
X32394Y154297D01*
X31760Y155122D01*
X30934Y155756D01*
X29973Y156154D01*
X29441Y156224D01*
D02*
G37*
G36*
X28441D02*
X27909Y156154D01*
X26948Y155756D01*
X26122Y155122D01*
X25488Y154297D01*
X25090Y153335D01*
X25020Y152803D01*
X28441D01*
Y156224D01*
D02*
G37*
G36*
X72862Y151803D02*
X69441D01*
Y148382D01*
X69973Y148452D01*
X70934Y148850D01*
X71760Y149484D01*
X72394Y150310D01*
X72792Y151271D01*
X72862Y151803D01*
D02*
G37*
G36*
X68441D02*
X65020D01*
X65090Y151271D01*
X65488Y150310D01*
X66122Y149484D01*
X66948Y148850D01*
X67909Y148452D01*
X68441Y148382D01*
Y151803D01*
D02*
G37*
G36*
X62862D02*
X59441D01*
Y148382D01*
X59973Y148452D01*
X60934Y148850D01*
X61760Y149484D01*
X62394Y150310D01*
X62792Y151271D01*
X62862Y151803D01*
D02*
G37*
G36*
X58441D02*
X55020D01*
X55090Y151271D01*
X55488Y150310D01*
X56122Y149484D01*
X56947Y148850D01*
X57909Y148452D01*
X58441Y148382D01*
Y151803D01*
D02*
G37*
G36*
X32862D02*
X29441D01*
Y148382D01*
X29973Y148452D01*
X30934Y148850D01*
X31760Y149484D01*
X32394Y150310D01*
X32792Y151271D01*
X32862Y151803D01*
D02*
G37*
G36*
X28441D02*
X25020D01*
X25090Y151271D01*
X25488Y150310D01*
X26122Y149484D01*
X26948Y148850D01*
X27909Y148452D01*
X28441Y148382D01*
Y151803D01*
D02*
G37*
G36*
X48941Y156290D02*
X47909Y156154D01*
X46948Y155756D01*
X46122Y155122D01*
X45488Y154297D01*
X45090Y153335D01*
X44954Y152303D01*
X45090Y151271D01*
X45488Y150310D01*
X46122Y149484D01*
X46948Y148850D01*
X47909Y148452D01*
X48941Y148316D01*
X49973Y148452D01*
X50934Y148850D01*
X51760Y149484D01*
X52394Y150310D01*
X52792Y151271D01*
X52928Y152303D01*
X52792Y153335D01*
X52394Y154297D01*
X51760Y155122D01*
X50934Y155756D01*
X49973Y156154D01*
X48941Y156290D01*
D02*
G37*
G36*
X38941D02*
X37909Y156154D01*
X36948Y155756D01*
X36122Y155122D01*
X35488Y154297D01*
X35090Y153335D01*
X34954Y152303D01*
X35090Y151271D01*
X35488Y150310D01*
X36122Y149484D01*
X36948Y148850D01*
X37909Y148452D01*
X38941Y148316D01*
X39973Y148452D01*
X40934Y148850D01*
X41760Y149484D01*
X42394Y150310D01*
X42792Y151271D01*
X42928Y152303D01*
X42792Y153335D01*
X42394Y154297D01*
X41760Y155122D01*
X40934Y155756D01*
X39973Y156154D01*
X38941Y156290D01*
D02*
G37*
G36*
X18941D02*
X17909Y156154D01*
X16948Y155756D01*
X16122Y155122D01*
X15488Y154297D01*
X15090Y153335D01*
X14954Y152303D01*
X15090Y151271D01*
X15488Y150310D01*
X16122Y149484D01*
X16948Y148850D01*
X17909Y148452D01*
X18941Y148316D01*
X19973Y148452D01*
X20934Y148850D01*
X21760Y149484D01*
X22394Y150310D01*
X22792Y151271D01*
X22928Y152303D01*
X22792Y153335D01*
X22394Y154297D01*
X21760Y155122D01*
X20934Y155756D01*
X19973Y156154D01*
X18941Y156290D01*
D02*
G37*
G36*
X34378Y132179D02*
X32295D01*
Y128472D01*
X34378D01*
Y132179D01*
D02*
G37*
G36*
X104000Y137224D02*
X103149Y137055D01*
X102427Y136573D01*
X101945Y135851D01*
X101776Y135000D01*
X101945Y134149D01*
X102427Y133428D01*
X103149Y132946D01*
X104000Y132776D01*
X104851Y132946D01*
X105572Y133428D01*
X106054Y134149D01*
X106224Y135000D01*
X106054Y135851D01*
X105572Y136573D01*
X104851Y137055D01*
X104000Y137224D01*
D02*
G37*
G36*
X97000D02*
X96149Y137055D01*
X95428Y136573D01*
X94946Y135851D01*
X94776Y135000D01*
X94946Y134149D01*
X95428Y133428D01*
X96149Y132946D01*
X97000Y132776D01*
X97851Y132946D01*
X98572Y133428D01*
X99054Y134149D01*
X99224Y135000D01*
X99054Y135851D01*
X98572Y136573D01*
X97851Y137055D01*
X97000Y137224D01*
D02*
G37*
G36*
X44854Y120661D02*
X41295D01*
Y117693D01*
X44854D01*
Y120661D01*
D02*
G37*
G36*
X29622Y110825D02*
X29122Y110825D01*
X24878D01*
X24622Y110825D01*
X24122Y110825D01*
X19878D01*
X19622Y110825D01*
X19122Y110825D01*
X14622D01*
Y102821D01*
X19122D01*
X19378Y102821D01*
X19878Y102821D01*
X24122D01*
X24378Y102821D01*
X24878Y102821D01*
X29122D01*
X29378Y102821D01*
X29878Y102821D01*
X34378D01*
Y110825D01*
X29878D01*
X29622Y110825D01*
D02*
G37*
G36*
X30972Y100650D02*
X28004D01*
Y97091D01*
X30972D01*
Y100650D01*
D02*
G37*
G36*
X27413D02*
X24445D01*
Y97091D01*
X27413D01*
Y100650D01*
D02*
G37*
G36*
X30972Y96500D02*
X28004D01*
Y92941D01*
X30972D01*
Y96500D01*
D02*
G37*
G36*
X27413D02*
X24445D01*
Y92941D01*
X27413D01*
Y96500D01*
D02*
G37*
G36*
X56813Y98283D02*
X52909D01*
X49006D01*
Y95020D01*
Y91000D01*
X52909D01*
X56813D01*
Y93051D01*
Y96988D01*
Y98283D01*
D02*
G37*
G36*
X37220Y91854D02*
X34252D01*
Y88295D01*
X37220D01*
Y91854D01*
D02*
G37*
G36*
X33661D02*
X30693D01*
Y88295D01*
X33661D01*
Y91854D01*
D02*
G37*
G36*
X37220Y87705D02*
X34252D01*
Y84146D01*
X37220D01*
Y87705D01*
D02*
G37*
G36*
X33661D02*
X30693D01*
Y84146D01*
X33661D01*
Y87705D01*
D02*
G37*
G36*
X86807Y72354D02*
X83839D01*
Y68795D01*
X86807D01*
Y72354D01*
D02*
G37*
G36*
X83248D02*
X80279D01*
Y68795D01*
X83248D01*
Y72354D01*
D02*
G37*
G36*
X86807Y68205D02*
X83839D01*
Y64646D01*
X86807D01*
Y68205D01*
D02*
G37*
G36*
X83248D02*
X80279D01*
Y64646D01*
X83248D01*
Y68205D01*
D02*
G37*
G36*
X106354Y60220D02*
X102795D01*
Y57252D01*
X106354D01*
Y60220D01*
D02*
G37*
G36*
X102205D02*
X98646D01*
Y57252D01*
X102205D01*
Y60220D01*
D02*
G37*
G36*
X106354Y56661D02*
X102795D01*
Y53693D01*
X106354D01*
Y56661D01*
D02*
G37*
G36*
X102205D02*
X98646D01*
Y53693D01*
X102205D01*
Y56661D01*
D02*
G37*
G36*
X131854Y95720D02*
X128295D01*
Y92752D01*
X131854D01*
Y95720D01*
D02*
G37*
G36*
X101994Y90409D02*
X98091D01*
X94187D01*
Y87146D01*
X96561D01*
Y85315D01*
X96678Y84730D01*
X96811Y84530D01*
X96706Y84000D01*
X96881Y83122D01*
X97378Y82378D01*
X98122Y81881D01*
X99000Y81706D01*
X99878Y81881D01*
X100622Y82378D01*
X101119Y83122D01*
X101294Y84000D01*
X101119Y84878D01*
X100622Y85622D01*
X99878Y86119D01*
X99620Y86171D01*
Y87146D01*
X101994D01*
Y90409D01*
D02*
G37*
G36*
X103307Y75854D02*
X100339D01*
Y72295D01*
X103307D01*
Y75854D01*
D02*
G37*
G36*
Y71705D02*
X100339D01*
Y68146D01*
X103307D01*
Y71705D01*
D02*
G37*
G36*
X49354Y52161D02*
X45795D01*
Y49193D01*
X49354D01*
Y52161D01*
D02*
G37*
%LPD*%
D14*
X89589Y115224D02*
X92455Y112358D01*
X98090D01*
X91520Y110480D02*
X98000D01*
X90018Y111121D02*
X90879D01*
X91520Y110480D01*
X72547Y74462D02*
Y80910D01*
Y74462D02*
X74700Y72309D01*
Y70257D02*
Y72309D01*
Y70257D02*
X76457Y68500D01*
X56000Y129500D02*
X57000Y130500D01*
X52500Y129500D02*
X56000D01*
X57000Y130500D02*
X67500D01*
X68520Y126181D02*
X68610Y126091D01*
X68520Y126181D02*
Y129480D01*
X67500Y130500D02*
X68520Y129480D01*
X52500Y129500D02*
X52787Y129787D01*
X64345Y107319D02*
X73250D01*
X62381Y108878D02*
X62787D01*
X64345Y107319D01*
X59437Y111659D02*
X59724Y111372D01*
X59437Y111659D02*
Y112555D01*
X57711Y114281D02*
X59437Y112555D01*
X52909Y118264D02*
X57617D01*
X64036Y111845D01*
X64250D01*
X75945Y118516D02*
X76500Y119071D01*
X75945Y114556D02*
Y118516D01*
X111914Y134914D02*
X112500Y135500D01*
X138204D01*
X110500Y110386D02*
Y134328D01*
X111086Y134914D01*
X111914D01*
X138204Y135500D02*
X140260Y133444D01*
X132500Y126500D02*
X144066D01*
X131563Y127437D02*
X132500Y126500D01*
X144066D02*
X147740Y130174D01*
X94104Y128396D02*
X99604D01*
X106000Y122000D01*
X52819Y112268D02*
X52909Y112358D01*
X49268Y112268D02*
X52819D01*
X42000Y105000D02*
X49268Y112268D01*
X42629Y100547D02*
X46825D01*
X41293Y101500D02*
X41676D01*
X46825Y100547D02*
X46825Y100547D01*
X41676Y101500D02*
X42629Y100547D01*
X46825D02*
X52909D01*
Y114327D02*
X52955Y114281D01*
X57711D01*
X87529Y108923D02*
X87935D01*
X88436Y108421D01*
X98090D01*
X66642Y117816D02*
X73250Y111208D01*
X88244Y105718D02*
X88978Y106453D01*
X98090D01*
X87579Y105718D02*
X88244D01*
X87292Y105431D02*
X87579Y105718D01*
X84129Y102681D02*
X87603D01*
X88146Y102138D01*
X95400D01*
X83000Y101552D02*
X84129Y102681D01*
X83000Y93500D02*
Y101552D01*
X90264Y80910D02*
X92590D01*
X96194Y77306D01*
X99000Y84000D02*
Y84406D01*
X98090Y85315D02*
X99000Y84406D01*
X98090Y85315D02*
Y88736D01*
X90709Y90285D02*
X90996Y90572D01*
Y91434D01*
X94203Y94642D01*
X92110Y96610D02*
X98090D01*
X88500Y93000D02*
X92110Y96610D01*
X89079Y98579D02*
X98090D01*
X87000Y96500D02*
X89079Y98579D01*
X105434Y100547D02*
X109250Y104363D01*
X98090Y100547D02*
X105434D01*
X94203Y94642D02*
X98090D01*
X73250Y107319D02*
X78681Y112750D01*
X88389D01*
X66642Y117816D02*
Y126091D01*
X83000Y93500D02*
X87000Y89500D01*
X95400Y102138D02*
X95777Y102516D01*
X98090D01*
X90264Y126091D02*
X92409D01*
X94500Y124000D01*
X72547Y120672D02*
Y126091D01*
Y120672D02*
X73085Y120134D01*
Y119729D02*
Y120134D01*
X76500Y119071D02*
Y121000D01*
X58148Y119854D02*
X59076Y118926D01*
X54335Y121104D02*
X54741D01*
X55991Y119854D01*
X58148D01*
X61397Y118897D02*
X62397D01*
X61369Y118926D02*
X61397Y118897D01*
X59076Y118926D02*
X61369D01*
X58793Y121963D02*
X60355D01*
X57100Y123250D02*
X57506D01*
X58793Y121963D01*
X60355D02*
X60522Y121796D01*
X61350D01*
X62397Y118897D02*
X64673Y121173D01*
Y126091D01*
X74606Y122894D02*
X76500Y121000D01*
X147740Y130174D02*
Y132000D01*
X88295Y80910D02*
Y85389D01*
X89500Y86594D01*
Y87000D01*
X83213Y54500D02*
X83606D01*
X70579Y58921D02*
Y80910D01*
Y58921D02*
X75000Y54500D01*
X83213D01*
X64394D02*
X68610Y58716D01*
Y80910D01*
X61500Y51500D02*
X64394Y54394D01*
Y54500D01*
X54134Y51500D02*
X61500D01*
X47045Y58589D02*
X54134Y51500D01*
X44545Y58589D02*
X47045D01*
X83213Y48787D02*
Y54106D01*
X83606Y54500D01*
X83213Y48787D02*
X88279Y43721D01*
Y40265D02*
Y43721D01*
Y40265D02*
X88500Y40043D01*
X47000Y105500D02*
X47201Y105299D01*
Y103705D02*
Y105299D01*
Y103705D02*
X48390Y102516D01*
X52909D01*
X140642Y170472D02*
X141024Y170855D01*
X140642Y168222D02*
Y170472D01*
X138000Y165580D02*
X140642Y168222D01*
X138000Y164500D02*
Y165580D01*
X86327Y126091D02*
Y138499D01*
X88827Y141000D02*
X89000D01*
X86327Y138499D02*
X88827Y141000D01*
X79000D02*
X84358Y135642D01*
Y126091D02*
Y135642D01*
X29869Y140131D02*
X32369D01*
X37909Y134591D01*
X39000Y141000D02*
X43909Y136091D01*
X74089Y133547D02*
X78362Y129274D01*
X43909Y136091D02*
X51919D01*
X54463Y133547D02*
X74089D01*
X51919Y136091D02*
X54463Y133547D01*
X88295Y133452D02*
X94905Y140061D01*
X63453Y136547D02*
X76489D01*
X82390Y130647D01*
Y126091D02*
Y130647D01*
X80421Y126091D02*
Y130494D01*
X49000Y141000D02*
X49132D01*
X55085Y135047D01*
X75868D01*
X80421Y130494D01*
X29000Y141000D02*
X29869Y140131D01*
X94905Y140061D02*
X98061D01*
X99000Y141000D01*
X59000D02*
X63453Y136547D01*
X88295Y126091D02*
Y133452D01*
X78362Y126181D02*
X78453Y126091D01*
X78362Y126181D02*
Y129274D01*
X76394Y126181D02*
X76484Y126091D01*
X76394Y126181D02*
Y129121D01*
X73467Y132047D02*
X76394Y129121D01*
X53842Y132047D02*
X73467D01*
X51298Y134591D02*
X53842Y132047D01*
X37909Y134591D02*
X51298D01*
X74606Y122894D02*
Y126000D01*
X88389Y112750D02*
X90018Y111121D01*
X103597Y92583D02*
X104357Y91822D01*
X105678D01*
X98181Y92583D02*
X103597D01*
X105678Y91822D02*
X109500Y88000D01*
Y73500D02*
Y88000D01*
X123000Y129600D02*
X123750D01*
X127500Y125850D01*
X110500Y110386D02*
X112000Y108886D01*
Y100181D02*
Y108886D01*
X58472Y54528D02*
Y63528D01*
Y54528D02*
X58500Y54500D01*
X58444Y63556D02*
X58472Y63528D01*
X60750Y65750D02*
X64250D01*
X60000Y66500D02*
X60750Y65750D01*
X102231Y114135D02*
X105409Y110957D01*
X102231Y114135D02*
Y115094D01*
X101121Y116205D02*
X102231Y115094D01*
X98090Y116295D02*
X98181Y116205D01*
X105409Y110957D02*
X106000D01*
X98181Y116205D02*
X101121D01*
X64000Y65500D02*
X64250Y65750D01*
X147500Y163750D02*
X152500Y168750D01*
Y169000D01*
X147500Y163500D02*
Y163750D01*
X106000Y118043D02*
Y122000D01*
X61350Y121796D02*
X62614Y123060D01*
Y126000D02*
X62705Y126091D01*
X62614Y123060D02*
Y126000D01*
X54500Y55023D02*
Y63500D01*
Y55023D02*
X54511Y55011D01*
X54500Y63500D02*
X57500Y66500D01*
X60000D01*
X52134Y63500D02*
X60043Y71409D01*
X42000Y63500D02*
X52134D01*
X69689Y120578D02*
Y120595D01*
X70579Y121485D01*
Y126091D01*
X74516D02*
X74606Y126000D01*
X98000Y110480D02*
X98090Y110390D01*
X98000Y112449D02*
X98090Y112358D01*
X60736Y72693D02*
Y80910D01*
X41780Y88736D02*
X52909D01*
X41043Y88000D02*
X41780Y88736D01*
X105189Y118264D02*
X105409Y118043D01*
X84449Y77551D02*
Y80819D01*
Y77551D02*
X87000Y75000D01*
X90602Y74354D02*
X91193D01*
X92957Y72591D01*
X89957Y75000D02*
X90602Y74354D01*
X87000Y75000D02*
X89957D01*
X92957Y71409D02*
Y72000D01*
Y72591D01*
X98090Y92673D02*
X98181Y92583D01*
X113777Y69632D02*
X119409Y64000D01*
X113368Y69632D02*
X113777D01*
X109500Y73500D02*
X113368Y69632D01*
X98090Y118264D02*
X105189D01*
X60736Y126091D02*
Y128403D01*
X84358Y80910D02*
X84449Y80819D01*
X103810Y106443D02*
X103963D01*
X101942Y104575D02*
X103810Y106443D01*
X98181Y104575D02*
X101942D01*
X98090Y104484D02*
X98181Y104575D01*
X60043Y72000D02*
X60736Y72693D01*
X105409Y118043D02*
X106000D01*
X111500Y51000D02*
Y57114D01*
X97000Y36500D02*
X111500Y51000D01*
X84008Y36500D02*
X97000D01*
X79500Y40181D02*
X80327D01*
X84008Y36500D01*
X40500Y48854D02*
X49173Y40181D01*
X50000D01*
X40500Y48854D02*
Y62000D01*
X42000Y63500D01*
X60043Y71409D02*
Y72000D01*
X119409Y64000D02*
X120000D01*
X117646Y61646D02*
Y62236D01*
X115908Y59908D02*
X117646Y61646D01*
X114825Y59908D02*
X115908D01*
X117646Y62236D02*
X119409Y64000D01*
X112031Y57114D02*
X114825Y59908D01*
X111500Y57114D02*
X112031D01*
X102657Y63886D02*
X111500D01*
X102500Y64043D02*
X102657Y63886D01*
X98559Y65807D02*
X100736D01*
X92957Y71409D02*
X98559Y65807D01*
X100736D02*
X102500Y64043D01*
X116500Y86543D02*
Y95681D01*
X116000Y86043D02*
X116500Y86543D01*
X114295Y97886D02*
X116500Y95681D01*
X114295Y97886D02*
Y98713D01*
X112827Y100181D02*
X114295Y98713D01*
X112827Y100181D02*
X120500D01*
X112000D02*
X112827D01*
X140260Y132000D02*
Y133444D01*
X70000Y40181D02*
X79500D01*
X59000D02*
X70000D01*
X50000D02*
X59000D01*
X79500Y23500D02*
Y32819D01*
X59000D02*
X59500Y32319D01*
Y23500D02*
Y32319D01*
X49500D02*
X50000Y32819D01*
X49500Y23500D02*
Y32319D01*
X70000Y24000D02*
Y32819D01*
X69500Y23500D02*
X70000Y24000D01*
D15*
X31126Y55532D02*
D03*
Y59469D02*
D03*
D16*
Y51516D02*
D03*
Y63484D02*
D03*
D17*
Y46673D02*
D03*
Y68327D02*
D03*
D18*
X107000Y164000D02*
D03*
X98000D02*
D03*
X127000Y163500D02*
D03*
X138000Y164500D02*
D03*
X147500Y163500D02*
D03*
D19*
X147740Y132000D02*
D03*
D20*
X144000D02*
D03*
X140260D02*
D03*
Y122429D02*
D03*
X147740D02*
D03*
D21*
X79500Y32819D02*
D03*
Y40181D02*
D03*
X70000Y32819D02*
D03*
Y40181D02*
D03*
X59000Y32819D02*
D03*
Y40181D02*
D03*
X50000Y32819D02*
D03*
Y40181D02*
D03*
X112000Y92819D02*
D03*
Y100181D02*
D03*
X120500D02*
D03*
Y92819D02*
D03*
D22*
X123000Y114400D02*
D03*
Y129600D02*
D03*
D23*
X111500Y57114D02*
D03*
Y63886D02*
D03*
D24*
X145500Y80496D02*
D03*
Y107504D02*
D03*
D25*
X76457Y68500D02*
D03*
X83543D02*
D03*
X92957Y72000D02*
D03*
X100043D02*
D03*
X34795Y96795D02*
D03*
X27709D02*
D03*
X60043Y72000D02*
D03*
X52957D02*
D03*
X41043Y88000D02*
D03*
X33957D02*
D03*
D26*
X88500Y40043D02*
D03*
Y32957D02*
D03*
X45500Y52457D02*
D03*
Y59543D02*
D03*
X102500Y64043D02*
D03*
Y56957D02*
D03*
X41000Y128043D02*
D03*
Y120957D02*
D03*
X106000Y118043D02*
D03*
Y110957D02*
D03*
X120000Y64000D02*
D03*
Y56913D02*
D03*
X128000Y99543D02*
D03*
Y92457D02*
D03*
Y78957D02*
D03*
Y86043D02*
D03*
X8500Y129043D02*
D03*
Y121957D02*
D03*
X116000Y78957D02*
D03*
Y86043D02*
D03*
D27*
X60736Y80910D02*
D03*
X62705D02*
D03*
X64673D02*
D03*
X66642D02*
D03*
X68610D02*
D03*
X70579D02*
D03*
X72547D02*
D03*
X74516D02*
D03*
X76484D02*
D03*
X78453D02*
D03*
X80421D02*
D03*
X82390D02*
D03*
X84358D02*
D03*
X86327D02*
D03*
X88295D02*
D03*
X90264D02*
D03*
Y126091D02*
D03*
X88295D02*
D03*
X86327D02*
D03*
X84358D02*
D03*
X82390D02*
D03*
X80421D02*
D03*
X78453D02*
D03*
X76484D02*
D03*
X74516D02*
D03*
X72547D02*
D03*
X70579D02*
D03*
X68610D02*
D03*
X66642D02*
D03*
X64673D02*
D03*
X62705D02*
D03*
X60736D02*
D03*
D28*
X98090Y88736D02*
D03*
Y90705D02*
D03*
Y92673D02*
D03*
Y94642D02*
D03*
Y96610D02*
D03*
Y98579D02*
D03*
Y100547D02*
D03*
Y102516D02*
D03*
Y104484D02*
D03*
Y106453D02*
D03*
Y108421D02*
D03*
Y110390D02*
D03*
Y112358D02*
D03*
Y114327D02*
D03*
Y116295D02*
D03*
Y118264D02*
D03*
X52909D02*
D03*
Y116295D02*
D03*
Y114327D02*
D03*
Y112358D02*
D03*
Y110390D02*
D03*
Y108421D02*
D03*
Y106453D02*
D03*
Y104484D02*
D03*
Y102516D02*
D03*
Y100547D02*
D03*
Y98579D02*
D03*
Y96610D02*
D03*
Y94642D02*
D03*
Y92673D02*
D03*
Y90705D02*
D03*
Y88736D02*
D03*
D29*
X32000Y128177D02*
D03*
X27000D02*
D03*
X22000D02*
D03*
X17000D02*
D03*
Y106823D02*
D03*
X22000D02*
D03*
X27000D02*
D03*
X32000D02*
D03*
D46*
X8657Y159162D02*
X117922D01*
X3500Y154004D02*
X8657Y159162D01*
X117922D02*
X117922Y159162D01*
X120338D01*
X125860Y153640D01*
X34795Y96205D02*
Y96795D01*
Y96205D02*
X36059Y94941D01*
X39577D01*
X41043Y93474D01*
Y88736D02*
Y93474D01*
X47022Y82022D02*
X50043Y79000D01*
X42898Y86146D02*
X47022Y82022D01*
X20075Y81500D02*
X46500D01*
X47022Y82022D01*
X11500Y90075D02*
Y111500D01*
Y90075D02*
X20075Y81500D01*
X11500Y111500D02*
X22000Y122000D01*
Y123500D01*
Y128177D01*
X24000Y121500D02*
X35146D01*
X22000Y123500D02*
X24000Y121500D01*
X36317Y122672D02*
Y123951D01*
X35146Y121500D02*
X36317Y122672D01*
X22000Y129801D02*
X24000D01*
X21312Y130867D02*
X21622Y130557D01*
Y130179D02*
X22000Y129801D01*
X21622Y130179D02*
Y130557D01*
X21312Y130867D02*
Y132489D01*
X26622Y130179D02*
X27000Y129801D01*
X24998Y130179D02*
X26622D01*
X19379Y134422D02*
X21312Y132489D01*
X27000Y128177D02*
Y129801D01*
X3500Y133453D02*
X7909Y129043D01*
X3500Y133453D02*
Y154004D01*
X37189Y63484D02*
X38361Y64656D01*
X31126Y63484D02*
X37189D01*
X38361Y64656D02*
Y66049D01*
X39500Y67188D01*
Y68000D01*
X37000Y53172D02*
Y63295D01*
X37189Y63484D01*
X35828Y52000D02*
X37000Y53172D01*
X31126Y51516D02*
X31610Y52000D01*
X35828D01*
X13953Y138047D02*
X17578Y134422D01*
X19379D01*
X151500Y158000D02*
X156984Y152516D01*
X150642Y93319D02*
X156823Y99500D01*
X150642Y84004D02*
Y93319D01*
X156823Y99500D02*
Y100810D01*
X156984Y100971D01*
Y152516D01*
X130130Y80496D02*
X145500D01*
X147134D01*
X9000Y151000D02*
X13953Y146047D01*
Y138047D02*
Y146047D01*
X125860Y153640D02*
X126547D01*
X128130Y152057D01*
X129000D01*
X134943Y158000D01*
X151500D01*
X147134Y80496D02*
X150642Y84004D01*
X44276Y126250D02*
X53846D01*
X54096Y126500D01*
X60000D01*
X41000Y128043D02*
X42264Y126779D01*
X43746D01*
X44276Y126250D01*
X36317Y123951D02*
X40409Y128043D01*
X127000Y164319D02*
X130833Y168152D01*
Y169664D01*
X127000Y163500D02*
Y164319D01*
X130833Y169664D02*
X131025Y169855D01*
X112495Y164765D02*
X114229Y166500D01*
X114500D01*
X107000Y164000D02*
X107765Y164765D01*
X112495D01*
X93005D02*
X97235D01*
X91771Y166000D02*
X93005Y164765D01*
X91500Y166000D02*
X91771D01*
X97235Y164765D02*
X98000Y164000D01*
X40409Y128043D02*
X41000D01*
X50043Y79000D02*
X53634D01*
X60043Y72591D01*
X127409Y78957D02*
X128000D01*
X116000D02*
X127409D01*
X120500Y85866D02*
X127409Y78957D01*
X120500Y85866D02*
Y92819D01*
X128591Y78957D02*
X130130Y80496D01*
X128000Y78957D02*
X128591D01*
X7909Y129043D02*
X16622D01*
X17000Y128665D01*
Y128177D02*
Y128665D01*
X60043Y72000D02*
Y72591D01*
X42307Y86146D02*
X42898D01*
X41043Y87410D02*
Y88000D01*
Y87410D02*
X42307Y86146D01*
D47*
X129600Y129600D02*
X131663Y127537D01*
X132600Y126600D02*
X135700Y123500D01*
X131663Y127537D02*
X132600Y126600D01*
X153937Y130452D02*
Y143045D01*
X147740Y122429D02*
Y124255D01*
X79000Y151000D02*
X83000Y147000D01*
X86656D01*
X86896Y147240D01*
X150986D01*
X153878Y144348D01*
Y143104D02*
Y144348D01*
Y143104D02*
X153937Y143045D01*
X147740Y124255D02*
X153937Y130452D01*
X123750Y129600D02*
X129600D01*
X128000Y99543D02*
X150288D01*
X153126Y102381D01*
Y115217D01*
X147740Y120603D02*
X153126Y115217D01*
X147740Y120603D02*
Y122429D01*
X128000Y99543D02*
Y111134D01*
X124734Y114400D02*
X128000Y111134D01*
X123000Y114400D02*
X124734D01*
X123000D02*
X126266Y117666D01*
X135700Y123500D02*
X136000D01*
Y117004D02*
X140342Y112661D01*
X143866Y107504D02*
X145500D01*
X140342Y111028D02*
X143866Y107504D01*
X140342Y111028D02*
Y112661D01*
X136000Y117004D02*
Y123500D01*
X123000Y114400D02*
X126266Y117666D01*
X140260Y120608D02*
Y122429D01*
X147740D01*
D48*
X15850Y40492D02*
D03*
Y74508D02*
D03*
X30811Y40492D02*
D03*
Y74508D02*
D03*
D49*
X148941Y152303D02*
D03*
Y142303D02*
D03*
X138941Y152303D02*
D03*
Y142303D02*
D03*
X128941Y152303D02*
D03*
Y142303D02*
D03*
X118941Y152303D02*
D03*
Y142303D02*
D03*
X108941Y152303D02*
D03*
Y142303D02*
D03*
X98941Y152303D02*
D03*
Y142303D02*
D03*
X88941Y152303D02*
D03*
Y142303D02*
D03*
X78941Y152303D02*
D03*
Y142303D02*
D03*
X68941Y152303D02*
D03*
Y142303D02*
D03*
X58941Y152303D02*
D03*
Y142303D02*
D03*
X48941Y152303D02*
D03*
Y142303D02*
D03*
X38941Y152303D02*
D03*
Y142303D02*
D03*
X28941Y152303D02*
D03*
Y142303D02*
D03*
X18941Y152303D02*
D03*
Y142303D02*
D03*
X8941Y152303D02*
D03*
Y12382D02*
D03*
Y22382D02*
D03*
X18941Y12382D02*
D03*
Y22382D02*
D03*
X28941Y12382D02*
D03*
Y22382D02*
D03*
X38941Y12382D02*
D03*
Y22382D02*
D03*
X48941Y12382D02*
D03*
Y22382D02*
D03*
X58941Y12382D02*
D03*
Y22382D02*
D03*
X68941Y12382D02*
D03*
Y22382D02*
D03*
X78941Y12382D02*
D03*
Y22382D02*
D03*
X88941Y12382D02*
D03*
Y22382D02*
D03*
X98941Y12382D02*
D03*
Y22382D02*
D03*
X108941Y12382D02*
D03*
Y22382D02*
D03*
X118941Y12382D02*
D03*
Y22382D02*
D03*
X128941Y12382D02*
D03*
Y22382D02*
D03*
X138941Y12382D02*
D03*
Y22382D02*
D03*
X148941Y12382D02*
D03*
D50*
X8941Y142303D02*
D03*
X148941Y22382D02*
D03*
D51*
X64394Y54500D02*
D03*
X83606D02*
D03*
D52*
X91500Y131500D02*
D03*
X94104Y128396D02*
D03*
X89589Y115224D02*
D03*
X52500Y129500D02*
D03*
X62381Y108878D02*
D03*
X59724Y111372D02*
D03*
X64250Y111845D02*
D03*
X73250Y111208D02*
D03*
X75945Y114556D02*
D03*
X41293Y101500D02*
D03*
X42000Y105000D02*
D03*
X87529Y108923D02*
D03*
X87292Y105431D02*
D03*
X96194Y77306D02*
D03*
X99000Y84000D02*
D03*
X90709Y90285D02*
D03*
X88500Y93000D02*
D03*
X87000Y96500D02*
D03*
X109250Y104363D02*
D03*
X94500Y124000D02*
D03*
X73085Y119729D02*
D03*
X54335Y121104D02*
D03*
X57100Y123250D02*
D03*
X121000Y122000D02*
D03*
X87000Y89500D02*
D03*
X89500Y87000D02*
D03*
X47000Y105500D02*
D03*
X115500Y122000D02*
D03*
X87000Y121000D02*
D03*
X64250Y65750D02*
D03*
X58444Y63556D02*
D03*
X58500Y54500D02*
D03*
X54511Y55011D02*
D03*
X69689Y120578D02*
D03*
X103963Y106443D02*
D03*
D53*
X74700Y72309D02*
D03*
X114500Y166575D02*
D03*
X141024Y170855D02*
D03*
X131025Y169855D02*
D03*
X152500Y169000D02*
D03*
X91500Y166000D02*
D03*
D54*
X106000Y110957D02*
D03*
X124752Y107028D02*
D03*
X126515Y122991D02*
D03*
X113500Y138500D02*
D03*
X139000Y90000D02*
D03*
X143500Y91000D02*
D03*
X139340Y93823D02*
D03*
X106000Y69500D02*
D03*
X102000Y77500D02*
D03*
X101500Y80500D02*
D03*
X29500Y134000D02*
D03*
X13500Y133000D02*
D03*
X160185Y170020D02*
D03*
Y166083D02*
D03*
Y162146D02*
D03*
Y158209D02*
D03*
Y154272D02*
D03*
Y150335D02*
D03*
Y146398D02*
D03*
Y142461D02*
D03*
Y138524D02*
D03*
Y134587D02*
D03*
Y130650D02*
D03*
Y126713D02*
D03*
Y122776D02*
D03*
Y118839D02*
D03*
Y114902D02*
D03*
Y110965D02*
D03*
Y107028D02*
D03*
Y103091D02*
D03*
Y99154D02*
D03*
Y95217D02*
D03*
Y91280D02*
D03*
Y87343D02*
D03*
Y83406D02*
D03*
Y79469D02*
D03*
Y75532D02*
D03*
Y71595D02*
D03*
Y67658D02*
D03*
Y63721D02*
D03*
Y59784D02*
D03*
Y55847D02*
D03*
Y51910D02*
D03*
Y47973D02*
D03*
Y44036D02*
D03*
Y40099D02*
D03*
Y36162D02*
D03*
Y32225D02*
D03*
Y28288D02*
D03*
Y24351D02*
D03*
Y20414D02*
D03*
Y16477D02*
D03*
Y12539D02*
D03*
Y8602D02*
D03*
Y4665D02*
D03*
X156248Y170020D02*
D03*
Y166083D02*
D03*
Y162146D02*
D03*
Y158209D02*
D03*
Y91280D02*
D03*
Y87343D02*
D03*
Y83406D02*
D03*
Y79469D02*
D03*
Y75532D02*
D03*
Y71595D02*
D03*
Y67658D02*
D03*
Y63721D02*
D03*
Y59784D02*
D03*
Y55847D02*
D03*
Y51910D02*
D03*
Y47973D02*
D03*
Y44036D02*
D03*
Y40099D02*
D03*
Y36162D02*
D03*
Y32225D02*
D03*
Y28288D02*
D03*
Y24351D02*
D03*
Y20414D02*
D03*
Y16477D02*
D03*
Y12539D02*
D03*
Y8602D02*
D03*
Y4665D02*
D03*
X152311Y162146D02*
D03*
Y67658D02*
D03*
Y63721D02*
D03*
Y59784D02*
D03*
Y55847D02*
D03*
Y51910D02*
D03*
Y47973D02*
D03*
Y44036D02*
D03*
Y40099D02*
D03*
Y36162D02*
D03*
Y32225D02*
D03*
Y28288D02*
D03*
Y16477D02*
D03*
Y8602D02*
D03*
Y4665D02*
D03*
X148374Y170020D02*
D03*
Y4665D02*
D03*
X144437Y170020D02*
D03*
Y67658D02*
D03*
Y63721D02*
D03*
Y59784D02*
D03*
Y40099D02*
D03*
Y36162D02*
D03*
Y32225D02*
D03*
Y28288D02*
D03*
Y16477D02*
D03*
Y8602D02*
D03*
Y4665D02*
D03*
X140500Y67658D02*
D03*
Y63721D02*
D03*
Y59784D02*
D03*
Y40099D02*
D03*
Y36162D02*
D03*
Y4665D02*
D03*
X136563Y170020D02*
D03*
Y110965D02*
D03*
Y103091D02*
D03*
Y32225D02*
D03*
Y28288D02*
D03*
Y4665D02*
D03*
X132626Y162146D02*
D03*
Y103091D02*
D03*
Y67658D02*
D03*
Y63721D02*
D03*
Y51910D02*
D03*
Y47973D02*
D03*
Y44036D02*
D03*
Y40099D02*
D03*
Y36162D02*
D03*
Y32225D02*
D03*
Y28288D02*
D03*
Y16477D02*
D03*
Y8602D02*
D03*
Y4665D02*
D03*
X128689D02*
D03*
X124752Y170020D02*
D03*
Y59784D02*
D03*
Y55847D02*
D03*
Y51910D02*
D03*
Y47973D02*
D03*
Y44036D02*
D03*
Y40099D02*
D03*
Y36162D02*
D03*
Y32225D02*
D03*
Y28288D02*
D03*
Y16477D02*
D03*
Y8602D02*
D03*
Y4665D02*
D03*
X120815Y170020D02*
D03*
Y166083D02*
D03*
Y162146D02*
D03*
Y4665D02*
D03*
X116878Y170020D02*
D03*
Y162146D02*
D03*
Y71595D02*
D03*
Y40099D02*
D03*
Y36162D02*
D03*
Y32225D02*
D03*
Y28288D02*
D03*
Y4665D02*
D03*
X112941Y170020D02*
D03*
Y40099D02*
D03*
Y36162D02*
D03*
Y32225D02*
D03*
Y28288D02*
D03*
Y16477D02*
D03*
Y8602D02*
D03*
Y4665D02*
D03*
X109004Y170020D02*
D03*
Y4665D02*
D03*
X105067Y170020D02*
D03*
Y16477D02*
D03*
Y8602D02*
D03*
Y4665D02*
D03*
X101130Y170020D02*
D03*
Y51910D02*
D03*
Y47973D02*
D03*
Y32225D02*
D03*
Y28288D02*
D03*
Y4665D02*
D03*
X97193Y170020D02*
D03*
Y63721D02*
D03*
Y59784D02*
D03*
Y55847D02*
D03*
Y51910D02*
D03*
Y47973D02*
D03*
Y44036D02*
D03*
Y32225D02*
D03*
Y28288D02*
D03*
Y4665D02*
D03*
X93256Y170020D02*
D03*
Y83406D02*
D03*
Y63721D02*
D03*
Y59784D02*
D03*
Y55847D02*
D03*
Y51910D02*
D03*
Y47973D02*
D03*
Y44036D02*
D03*
Y32225D02*
D03*
Y28288D02*
D03*
Y16477D02*
D03*
Y8602D02*
D03*
Y4665D02*
D03*
X89319Y170020D02*
D03*
Y162146D02*
D03*
Y4665D02*
D03*
X85382Y170020D02*
D03*
Y166083D02*
D03*
Y162146D02*
D03*
Y16477D02*
D03*
Y8602D02*
D03*
Y4665D02*
D03*
X81445Y170020D02*
D03*
Y166083D02*
D03*
Y162146D02*
D03*
Y4665D02*
D03*
X77508Y170020D02*
D03*
Y166083D02*
D03*
Y162146D02*
D03*
Y4665D02*
D03*
X73571Y170020D02*
D03*
Y166083D02*
D03*
Y162146D02*
D03*
Y154272D02*
D03*
Y150335D02*
D03*
Y51910D02*
D03*
Y47973D02*
D03*
Y44036D02*
D03*
Y28288D02*
D03*
Y24351D02*
D03*
Y20414D02*
D03*
Y16477D02*
D03*
Y8602D02*
D03*
Y4665D02*
D03*
X69634Y170020D02*
D03*
Y166083D02*
D03*
Y162146D02*
D03*
Y55847D02*
D03*
Y51910D02*
D03*
Y47973D02*
D03*
Y4665D02*
D03*
X65697Y170020D02*
D03*
Y166083D02*
D03*
Y162146D02*
D03*
Y47973D02*
D03*
Y44036D02*
D03*
Y28288D02*
D03*
Y16477D02*
D03*
Y8602D02*
D03*
Y4665D02*
D03*
X61760Y170020D02*
D03*
Y166083D02*
D03*
Y162146D02*
D03*
Y47973D02*
D03*
Y16477D02*
D03*
Y4665D02*
D03*
X57823Y170020D02*
D03*
Y166083D02*
D03*
Y162146D02*
D03*
Y99154D02*
D03*
Y95217D02*
D03*
Y91280D02*
D03*
Y87343D02*
D03*
Y83406D02*
D03*
Y79469D02*
D03*
Y4665D02*
D03*
X53886Y170020D02*
D03*
Y166083D02*
D03*
Y162146D02*
D03*
Y154272D02*
D03*
Y24351D02*
D03*
Y20414D02*
D03*
Y16477D02*
D03*
Y12539D02*
D03*
Y8602D02*
D03*
Y4665D02*
D03*
X49949Y170020D02*
D03*
Y166083D02*
D03*
Y83406D02*
D03*
Y51910D02*
D03*
Y47973D02*
D03*
Y4665D02*
D03*
X46012Y170020D02*
D03*
Y166083D02*
D03*
Y67658D02*
D03*
Y36162D02*
D03*
Y28288D02*
D03*
Y16477D02*
D03*
Y4665D02*
D03*
X42075Y170020D02*
D03*
Y166083D02*
D03*
Y75532D02*
D03*
Y32225D02*
D03*
Y28288D02*
D03*
Y16477D02*
D03*
Y4665D02*
D03*
X38138Y170020D02*
D03*
Y166083D02*
D03*
Y75532D02*
D03*
Y47973D02*
D03*
Y44036D02*
D03*
Y4665D02*
D03*
X34201Y170020D02*
D03*
Y166083D02*
D03*
Y154272D02*
D03*
Y150335D02*
D03*
Y71595D02*
D03*
Y28288D02*
D03*
Y24351D02*
D03*
Y20414D02*
D03*
Y16477D02*
D03*
Y8602D02*
D03*
Y4665D02*
D03*
X30264Y170020D02*
D03*
Y166083D02*
D03*
Y36162D02*
D03*
Y4665D02*
D03*
X26327Y170020D02*
D03*
Y166083D02*
D03*
Y32225D02*
D03*
Y28288D02*
D03*
Y4665D02*
D03*
X22390Y170020D02*
D03*
Y166083D02*
D03*
Y28288D02*
D03*
Y16477D02*
D03*
Y8602D02*
D03*
Y4665D02*
D03*
X18453Y170020D02*
D03*
Y166083D02*
D03*
Y162146D02*
D03*
Y67658D02*
D03*
Y63721D02*
D03*
Y59784D02*
D03*
Y55847D02*
D03*
Y51910D02*
D03*
Y47973D02*
D03*
Y44036D02*
D03*
Y4665D02*
D03*
X14516Y170020D02*
D03*
Y166083D02*
D03*
Y162146D02*
D03*
Y91280D02*
D03*
Y67658D02*
D03*
Y63721D02*
D03*
Y59784D02*
D03*
Y55847D02*
D03*
Y51910D02*
D03*
Y47973D02*
D03*
Y36162D02*
D03*
Y16477D02*
D03*
Y8602D02*
D03*
Y4665D02*
D03*
X10579Y170020D02*
D03*
Y166083D02*
D03*
Y162146D02*
D03*
Y75532D02*
D03*
Y71595D02*
D03*
Y67658D02*
D03*
Y63721D02*
D03*
Y59784D02*
D03*
Y55847D02*
D03*
Y51910D02*
D03*
Y47973D02*
D03*
Y44036D02*
D03*
Y40099D02*
D03*
Y36162D02*
D03*
Y32225D02*
D03*
Y4665D02*
D03*
X6642Y170020D02*
D03*
Y166083D02*
D03*
Y162146D02*
D03*
Y107028D02*
D03*
Y95217D02*
D03*
Y91280D02*
D03*
Y87343D02*
D03*
Y75532D02*
D03*
Y71595D02*
D03*
Y67658D02*
D03*
Y63721D02*
D03*
Y59784D02*
D03*
Y55847D02*
D03*
Y51910D02*
D03*
Y47973D02*
D03*
Y44036D02*
D03*
Y40099D02*
D03*
Y36162D02*
D03*
Y32225D02*
D03*
Y28288D02*
D03*
Y4665D02*
D03*
X2705Y170020D02*
D03*
Y166083D02*
D03*
Y162146D02*
D03*
Y158209D02*
D03*
Y126713D02*
D03*
Y122776D02*
D03*
Y118839D02*
D03*
Y114902D02*
D03*
Y110965D02*
D03*
Y107028D02*
D03*
Y103091D02*
D03*
Y99154D02*
D03*
Y95217D02*
D03*
Y91280D02*
D03*
Y87343D02*
D03*
Y83406D02*
D03*
Y79469D02*
D03*
Y75532D02*
D03*
Y71595D02*
D03*
Y67658D02*
D03*
Y63721D02*
D03*
Y59784D02*
D03*
Y55847D02*
D03*
Y51910D02*
D03*
Y47973D02*
D03*
Y44036D02*
D03*
Y40099D02*
D03*
Y36162D02*
D03*
Y32225D02*
D03*
Y28288D02*
D03*
Y24351D02*
D03*
Y20414D02*
D03*
Y16477D02*
D03*
Y12539D02*
D03*
Y8602D02*
D03*
Y4665D02*
D03*
D55*
X97000Y135000D02*
D03*
X86492Y100000D02*
D03*
X79994Y109006D02*
D03*
X104000Y135000D02*
D03*
D56*
X39500Y68000D02*
D03*
M02*
