G04*
G04 #@! TF.GenerationSoftware,Altium Limited,Altium Designer,22.0.2 (36)*
G04*
G04 Layer_Color=65535*
%FSLAX25Y25*%
%MOIN*%
G70*
G04*
G04 #@! TF.SameCoordinates,5F5B6C63-6FB6-4E28-9BE5-C2605847C7C1*
G04*
G04*
G04 #@! TF.FilePolarity,Positive*
G04*
G01*
G75*
%ADD10C,0.00984*%
%ADD11C,0.00500*%
%ADD12C,0.00787*%
%ADD13C,0.00600*%
%ADD14C,0.01000*%
G36*
X76670Y168498D02*
X76688D01*
Y168461D01*
X76707D01*
Y168423D01*
X76726D01*
Y168386D01*
X76744D01*
Y168331D01*
X76762D01*
Y168294D01*
X76781D01*
Y168257D01*
X76799D01*
Y168201D01*
X76818D01*
Y168165D01*
X76837D01*
Y168128D01*
X76855D01*
Y168090D01*
X76873D01*
Y168035D01*
X76892D01*
Y167998D01*
X76911D01*
Y167961D01*
X76929D01*
Y167924D01*
X76947D01*
Y167868D01*
X76966D01*
Y167832D01*
X76985D01*
Y167795D01*
X77003D01*
Y167739D01*
X77021D01*
Y167702D01*
X77040D01*
Y167665D01*
X77059D01*
Y167628D01*
X77077D01*
Y167572D01*
X77096D01*
Y167535D01*
X77114D01*
Y167499D01*
X77132D01*
Y167443D01*
X77151D01*
Y167406D01*
X77170D01*
Y167369D01*
X77188D01*
Y167332D01*
X77206D01*
Y167277D01*
X77225D01*
Y167239D01*
X77244D01*
Y167202D01*
X77262D01*
Y167166D01*
X77280D01*
Y167110D01*
X77299D01*
Y167092D01*
X77336D01*
Y167073D01*
X77355D01*
Y167054D01*
X77391D01*
Y167036D01*
X77429D01*
Y167017D01*
X77447D01*
Y166999D01*
X77484D01*
Y166981D01*
X77503D01*
Y166962D01*
X77521D01*
Y166944D01*
X77558D01*
Y166925D01*
X77577D01*
Y166906D01*
X77614D01*
Y166925D01*
X77632D01*
Y166944D01*
X77650D01*
Y166962D01*
X77669D01*
Y166981D01*
X77688D01*
Y166999D01*
X77706D01*
Y167017D01*
X77724D01*
Y167036D01*
X77762D01*
Y167054D01*
X77780D01*
Y167073D01*
X77798D01*
Y167092D01*
X77817D01*
Y167110D01*
X77854D01*
Y167129D01*
X77873D01*
Y167147D01*
X77891D01*
Y167166D01*
X77909D01*
Y167184D01*
X77947D01*
Y167202D01*
X77965D01*
Y167221D01*
X77983D01*
Y167239D01*
X78021D01*
Y167258D01*
X78039D01*
Y167277D01*
X78057D01*
Y167295D01*
X78095D01*
Y167314D01*
X78113D01*
Y167332D01*
X78150D01*
Y167350D01*
X78168D01*
Y167369D01*
X78206D01*
Y167387D01*
X78224D01*
Y167406D01*
X78261D01*
Y167424D01*
X78298D01*
Y167443D01*
X78316D01*
Y167462D01*
X78354D01*
Y167480D01*
X78372D01*
Y167499D01*
X78409D01*
Y167517D01*
X78446D01*
Y167535D01*
X78483D01*
Y167554D01*
X78501D01*
Y167572D01*
X78539D01*
Y167591D01*
X78575D01*
Y167610D01*
X78613D01*
Y167628D01*
X78649D01*
Y167647D01*
X78686D01*
Y167665D01*
X78724D01*
Y167683D01*
X78760D01*
Y167702D01*
X78798D01*
Y167720D01*
X78834D01*
Y167739D01*
X78872D01*
Y167757D01*
X78927D01*
Y167776D01*
X78964D01*
Y167795D01*
X79001D01*
Y167813D01*
X79057D01*
Y167832D01*
X79093D01*
Y167850D01*
X79149D01*
Y167868D01*
X79204D01*
Y167887D01*
X79242D01*
Y167905D01*
X79297D01*
Y167924D01*
X79352D01*
Y167943D01*
X79426D01*
Y167961D01*
X79482D01*
Y167980D01*
X79537D01*
Y167998D01*
X79611D01*
Y168017D01*
X79685D01*
Y168035D01*
X79760D01*
Y168053D01*
X79852D01*
Y168072D01*
X79944D01*
Y168090D01*
X80055D01*
Y168109D01*
X80185D01*
Y168128D01*
X80333D01*
Y168146D01*
X80573D01*
Y168165D01*
X81073D01*
Y168146D01*
X81314D01*
Y168128D01*
X81462D01*
Y168109D01*
X81591D01*
Y168090D01*
X81702D01*
Y168072D01*
X81795D01*
Y168053D01*
X81887D01*
Y168035D01*
X81961D01*
Y168017D01*
X82035D01*
Y167998D01*
X82109D01*
Y167980D01*
X82165D01*
Y167961D01*
X82220D01*
Y167943D01*
X82275D01*
Y167924D01*
X82349D01*
Y167905D01*
X82405D01*
Y167887D01*
X82442D01*
Y167868D01*
X82498D01*
Y167850D01*
X82553D01*
Y167832D01*
X82590D01*
Y167813D01*
X82645D01*
Y167795D01*
X82683D01*
Y167776D01*
X82738D01*
Y167757D01*
X82775D01*
Y167739D01*
X82812D01*
Y167720D01*
X82849D01*
Y167702D01*
X82886D01*
Y167683D01*
X82923D01*
Y167665D01*
X82960D01*
Y167647D01*
X82997D01*
Y167628D01*
X83034D01*
Y167610D01*
X83071D01*
Y167591D01*
X83108D01*
Y167572D01*
X83145D01*
Y167554D01*
X83182D01*
Y167535D01*
X83201D01*
Y167517D01*
X83237D01*
Y167499D01*
X83275D01*
Y167480D01*
X83293D01*
Y167462D01*
X83330D01*
Y167443D01*
X83367D01*
Y167424D01*
X83385D01*
Y167406D01*
X83422D01*
Y167387D01*
X83441D01*
Y167369D01*
X83478D01*
Y167350D01*
X83496D01*
Y167332D01*
X83534D01*
Y167314D01*
X83552D01*
Y167295D01*
X83589D01*
Y167277D01*
X83608D01*
Y167258D01*
X83626D01*
Y167239D01*
X83663D01*
Y167221D01*
X83681D01*
Y167202D01*
X83700D01*
Y167184D01*
X83737D01*
Y167166D01*
X83755D01*
Y167147D01*
X83774D01*
Y167129D01*
X83811D01*
Y167110D01*
X83829D01*
Y167092D01*
X83848D01*
Y167073D01*
X83867D01*
Y167054D01*
X83885D01*
Y167036D01*
X83922D01*
Y167017D01*
X83941D01*
Y166999D01*
X83959D01*
Y166981D01*
X83978D01*
Y166962D01*
X83996D01*
Y166944D01*
X84014D01*
Y166925D01*
X84033D01*
Y166906D01*
X84070D01*
Y166888D01*
X84088D01*
Y166869D01*
X84107D01*
Y166851D01*
X84126D01*
Y166832D01*
X84144D01*
Y166814D01*
X84162D01*
Y166796D01*
X84181D01*
Y166777D01*
X84200D01*
Y166759D01*
X84218D01*
Y166740D01*
X84237D01*
Y166721D01*
X84255D01*
Y166703D01*
X84273D01*
Y166684D01*
X84292D01*
Y166666D01*
X84311D01*
Y166648D01*
X84329D01*
Y166629D01*
X84347D01*
Y166592D01*
X84366D01*
Y166574D01*
X84385D01*
Y166555D01*
X84403D01*
Y166536D01*
X84421D01*
Y166518D01*
X84440D01*
Y166499D01*
X84459D01*
Y166481D01*
X84477D01*
Y166444D01*
X84496D01*
Y166426D01*
X84514D01*
Y166407D01*
X84532D01*
Y166388D01*
X84551D01*
Y166370D01*
X84570D01*
Y166333D01*
X84588D01*
Y166314D01*
X84606D01*
Y166296D01*
X84625D01*
Y166259D01*
X84644D01*
Y166241D01*
X84662D01*
Y166222D01*
X84680D01*
Y166185D01*
X84699D01*
Y166166D01*
X84718D01*
Y166148D01*
X84736D01*
Y166111D01*
X84755D01*
Y166093D01*
X84773D01*
Y166056D01*
X84791D01*
Y166037D01*
X84810D01*
Y166000D01*
X84829D01*
Y165981D01*
X84847D01*
Y165945D01*
X84865D01*
Y165926D01*
X84884D01*
Y165889D01*
X84903D01*
Y165852D01*
X84921D01*
Y165833D01*
X84939D01*
Y165796D01*
X84958D01*
Y165760D01*
X84977D01*
Y165741D01*
X84995D01*
Y165704D01*
X85014D01*
Y165667D01*
X85032D01*
Y165630D01*
X85050D01*
Y165593D01*
X85069D01*
Y165556D01*
X85088D01*
Y165519D01*
X85106D01*
Y165482D01*
X85124D01*
Y165445D01*
X85143D01*
Y165408D01*
X85162D01*
Y165371D01*
X85180D01*
Y165334D01*
X85198D01*
Y165278D01*
X85217D01*
Y165242D01*
X85236D01*
Y165205D01*
X85254D01*
Y165149D01*
X85273D01*
Y165112D01*
X85291D01*
Y165057D01*
X85309D01*
Y165001D01*
X85328D01*
Y164945D01*
X85347D01*
Y164909D01*
X85365D01*
Y164834D01*
X85383D01*
Y164779D01*
X85402D01*
Y164724D01*
X85421D01*
Y164649D01*
X85439D01*
Y164594D01*
X85457D01*
Y164520D01*
X85476D01*
Y164427D01*
X85495D01*
Y164354D01*
X85513D01*
Y164261D01*
X85532D01*
Y164150D01*
X85550D01*
Y164021D01*
X85568D01*
Y164002D01*
Y163873D01*
X85587D01*
Y163613D01*
X85606D01*
Y163151D01*
X85587D01*
Y162892D01*
X85568D01*
Y162744D01*
X85550D01*
Y162615D01*
X85532D01*
Y162504D01*
X85513D01*
Y162411D01*
X85495D01*
Y162319D01*
X85476D01*
Y162244D01*
X85457D01*
Y162189D01*
X85439D01*
Y162115D01*
X85421D01*
Y162041D01*
X85402D01*
Y161986D01*
X85383D01*
Y161911D01*
X85365D01*
Y161856D01*
X85347D01*
Y161801D01*
X85328D01*
Y161764D01*
X85309D01*
Y161708D01*
X85291D01*
Y161653D01*
X85273D01*
Y161616D01*
X85254D01*
Y161560D01*
X85236D01*
Y161523D01*
X85217D01*
Y161468D01*
X85198D01*
Y161431D01*
X85180D01*
Y161393D01*
X85162D01*
Y161356D01*
X85143D01*
Y161319D01*
X85124D01*
Y161283D01*
X85106D01*
Y161246D01*
X85088D01*
Y161208D01*
X85069D01*
Y161171D01*
X85050D01*
Y161135D01*
X85032D01*
Y161098D01*
X85014D01*
Y161061D01*
X84995D01*
Y161042D01*
X84977D01*
Y161005D01*
X84958D01*
Y160968D01*
X84939D01*
Y160931D01*
X84921D01*
Y160913D01*
X84903D01*
Y160875D01*
X84884D01*
Y160857D01*
X84865D01*
Y160820D01*
X84847D01*
Y160783D01*
X84829D01*
Y160765D01*
X84810D01*
Y160746D01*
X84791D01*
Y160709D01*
X84773D01*
Y160690D01*
X84755D01*
Y160653D01*
X84736D01*
Y160635D01*
X84718D01*
Y160598D01*
X84699D01*
Y160580D01*
X84680D01*
Y160561D01*
X84662D01*
Y160524D01*
X84644D01*
Y160505D01*
X84625D01*
Y160487D01*
X84606D01*
Y160468D01*
X84588D01*
Y160432D01*
X84570D01*
Y160413D01*
X84551D01*
Y160395D01*
X84532D01*
Y160376D01*
X84514D01*
Y160339D01*
X84496D01*
Y160320D01*
X84477D01*
Y160302D01*
X84459D01*
Y160284D01*
X84440D01*
Y160265D01*
X84421D01*
Y160247D01*
X84403D01*
Y160228D01*
X84385D01*
Y160210D01*
X84366D01*
Y160191D01*
X84347D01*
Y160154D01*
X84329D01*
Y160135D01*
X84311D01*
Y160117D01*
X84292D01*
Y160099D01*
X84273D01*
Y160080D01*
X84255D01*
Y160062D01*
X84237D01*
Y160043D01*
X84218D01*
Y160024D01*
X84200D01*
Y160006D01*
X84162D01*
Y159987D01*
X84144D01*
Y159969D01*
X84126D01*
Y159950D01*
X84107D01*
Y159932D01*
X84088D01*
Y159914D01*
X84070D01*
Y159895D01*
X84052D01*
Y159877D01*
X84033D01*
Y159858D01*
X83996D01*
Y159839D01*
X83978D01*
Y159821D01*
X83959D01*
Y159802D01*
X83941D01*
Y159784D01*
X83922D01*
Y159766D01*
X83885D01*
Y159747D01*
X83867D01*
Y159729D01*
X83848D01*
Y159710D01*
X83811D01*
Y159692D01*
X83793D01*
Y159673D01*
X83774D01*
Y159654D01*
X83737D01*
Y159636D01*
X83719D01*
Y159617D01*
X83681D01*
Y159599D01*
X83663D01*
Y159581D01*
X83626D01*
Y159562D01*
X83608D01*
Y159544D01*
X83570D01*
Y159525D01*
X83552D01*
Y159506D01*
X83515D01*
Y159488D01*
X83496D01*
Y159469D01*
X83460D01*
Y159451D01*
X83422D01*
Y159432D01*
X83385D01*
Y159414D01*
X83367D01*
Y159396D01*
X83330D01*
Y159377D01*
X83293D01*
Y159359D01*
X83256D01*
Y159340D01*
X83219D01*
Y159321D01*
X83182D01*
Y159303D01*
X83145D01*
Y159284D01*
X83108D01*
Y159266D01*
X83071D01*
Y159248D01*
X83016D01*
Y159229D01*
X82978D01*
Y159211D01*
X82923D01*
Y159192D01*
X82886D01*
Y159174D01*
X82831D01*
Y159155D01*
X82775D01*
Y159136D01*
X82719D01*
Y159118D01*
X82664D01*
Y159099D01*
X82608D01*
Y159081D01*
X82553D01*
Y159063D01*
X82479D01*
Y159044D01*
X82405D01*
Y159026D01*
X82331D01*
Y159007D01*
X82239D01*
Y158988D01*
X82127D01*
Y158970D01*
X81980D01*
Y158951D01*
X81776D01*
Y158933D01*
X81314D01*
Y158951D01*
X81110D01*
Y158970D01*
X80962D01*
Y158988D01*
X80851D01*
Y159007D01*
X80759D01*
Y159026D01*
X80666D01*
Y159044D01*
X80592D01*
Y159063D01*
X80518D01*
Y159081D01*
X80444D01*
Y159099D01*
X80388D01*
Y159118D01*
X80333D01*
Y159136D01*
X80278D01*
Y159155D01*
X80240D01*
Y159174D01*
X80203D01*
Y159192D01*
X80167D01*
Y159211D01*
X80148D01*
Y159229D01*
X80111D01*
Y159248D01*
X80093D01*
Y159266D01*
X80074D01*
Y159284D01*
X80037D01*
Y159303D01*
X80019D01*
Y159321D01*
X80000D01*
Y159340D01*
X79981D01*
Y159377D01*
X79963D01*
Y159396D01*
X79944D01*
Y159414D01*
X79926D01*
Y159451D01*
X79908D01*
Y159488D01*
X79889D01*
Y159544D01*
X79870D01*
Y159654D01*
X79852D01*
Y159692D01*
X79870D01*
Y159784D01*
X79889D01*
Y159821D01*
X79908D01*
Y159858D01*
X79926D01*
Y159877D01*
X79944D01*
Y159914D01*
X79963D01*
Y159932D01*
X79981D01*
Y159950D01*
X80019D01*
Y159969D01*
X80037D01*
Y159987D01*
X80074D01*
Y160006D01*
X80093D01*
Y160024D01*
X80148D01*
Y160043D01*
X80185D01*
Y160062D01*
X80240D01*
Y160080D01*
X80333D01*
Y160099D01*
X81203D01*
Y160117D01*
X81350D01*
Y160135D01*
X81443D01*
Y160154D01*
X81536D01*
Y160172D01*
X81609D01*
Y160191D01*
X81665D01*
Y160210D01*
X81721D01*
Y160228D01*
X81776D01*
Y160247D01*
X81832D01*
Y160265D01*
X81887D01*
Y160284D01*
X81924D01*
Y160302D01*
X81980D01*
Y160320D01*
X82016D01*
Y160339D01*
X82054D01*
Y160357D01*
X82091D01*
Y160376D01*
X82127D01*
Y160395D01*
X82165D01*
Y160413D01*
X82201D01*
Y160432D01*
X82239D01*
Y160450D01*
X82257D01*
Y160468D01*
X82294D01*
Y160487D01*
X82331D01*
Y160505D01*
X82349D01*
Y160524D01*
X82386D01*
Y160543D01*
X82405D01*
Y160561D01*
X82442D01*
Y160580D01*
X82460D01*
Y160598D01*
X82479D01*
Y160617D01*
X82516D01*
Y160635D01*
X82534D01*
Y160653D01*
X82553D01*
Y160672D01*
X82590D01*
Y160690D01*
X82608D01*
Y160709D01*
X82627D01*
Y160728D01*
X82645D01*
Y160746D01*
X82664D01*
Y160765D01*
X82683D01*
Y160783D01*
X82719D01*
Y160820D01*
X82757D01*
Y160838D01*
X82775D01*
Y160857D01*
X82793D01*
Y160875D01*
X82812D01*
Y160894D01*
X82831D01*
Y160913D01*
X82849D01*
Y160950D01*
X82867D01*
Y160968D01*
X82886D01*
Y160986D01*
X82904D01*
Y161005D01*
X82923D01*
Y161023D01*
X82942D01*
Y161042D01*
X82960D01*
Y161061D01*
X82978D01*
Y161098D01*
X82997D01*
Y161116D01*
X83016D01*
Y161135D01*
X83034D01*
Y161153D01*
X83052D01*
Y161190D01*
X83071D01*
Y161208D01*
X83090D01*
Y161246D01*
X83108D01*
Y161264D01*
X83126D01*
Y161283D01*
X83145D01*
Y161319D01*
X83163D01*
Y161356D01*
X83182D01*
Y161375D01*
X83201D01*
Y161412D01*
X83219D01*
Y161449D01*
X83237D01*
Y161468D01*
X83256D01*
Y161504D01*
X83275D01*
Y161541D01*
X83293D01*
Y161579D01*
X83311D01*
Y161616D01*
X83330D01*
Y161653D01*
X83349D01*
Y161689D01*
X83367D01*
Y161745D01*
X83385D01*
Y161782D01*
X83404D01*
Y161837D01*
X83422D01*
Y161874D01*
X83441D01*
Y161930D01*
X83460D01*
Y161986D01*
X83478D01*
Y162059D01*
X83496D01*
Y162134D01*
X83515D01*
Y162207D01*
X83534D01*
Y162282D01*
X83552D01*
Y162392D01*
X83570D01*
Y162559D01*
X83589D01*
Y162892D01*
X83570D01*
Y162800D01*
X83552D01*
Y162725D01*
X83534D01*
Y162670D01*
X83515D01*
Y162615D01*
X83496D01*
Y162540D01*
X83478D01*
Y162504D01*
X83460D01*
Y162448D01*
X83441D01*
Y162411D01*
X83422D01*
Y162355D01*
X83404D01*
Y162319D01*
X83385D01*
Y162282D01*
X83367D01*
Y162244D01*
X83349D01*
Y162207D01*
X83330D01*
Y162171D01*
X83311D01*
Y162134D01*
X83293D01*
Y162097D01*
X83275D01*
Y162059D01*
X83256D01*
Y162041D01*
X83237D01*
Y162004D01*
X83219D01*
Y161967D01*
X83201D01*
Y161949D01*
X83182D01*
Y161911D01*
X83163D01*
Y161893D01*
X83145D01*
Y161856D01*
X83126D01*
Y161837D01*
X83108D01*
Y161819D01*
X83090D01*
Y161782D01*
X83071D01*
Y161764D01*
X83052D01*
Y161745D01*
X83034D01*
Y161708D01*
X83016D01*
Y161689D01*
X82997D01*
Y161671D01*
X82978D01*
Y161653D01*
X82960D01*
Y161634D01*
X82942D01*
Y161616D01*
X82923D01*
Y161579D01*
X82904D01*
Y161560D01*
X82886D01*
Y161541D01*
X82867D01*
Y161523D01*
X82849D01*
Y161504D01*
X82831D01*
Y161486D01*
X82812D01*
Y161468D01*
X82793D01*
Y161449D01*
X82775D01*
Y161431D01*
X82757D01*
Y161412D01*
X82738D01*
Y161393D01*
X82701D01*
Y161375D01*
X82683D01*
Y161356D01*
X82664D01*
Y161338D01*
X82645D01*
Y161319D01*
X82627D01*
Y161301D01*
X82608D01*
Y161283D01*
X82572D01*
Y161264D01*
X82553D01*
Y161246D01*
X82534D01*
Y161227D01*
X82498D01*
Y161208D01*
X82479D01*
Y161190D01*
X82442D01*
Y161171D01*
X82424D01*
Y161153D01*
X82405D01*
Y161135D01*
X82368D01*
Y161116D01*
X82331D01*
Y161098D01*
X82313D01*
Y161079D01*
X82275D01*
Y161061D01*
X82239D01*
Y161042D01*
X82220D01*
Y161023D01*
X82183D01*
Y161005D01*
X82146D01*
Y160986D01*
X82109D01*
Y160968D01*
X78113D01*
Y161079D01*
X78132D01*
Y161153D01*
X78150D01*
Y161208D01*
X78168D01*
Y161264D01*
X78187D01*
Y161301D01*
X78206D01*
Y161338D01*
X78224D01*
Y161375D01*
X78242D01*
Y161412D01*
X78261D01*
Y161449D01*
X78280D01*
Y161486D01*
X78298D01*
Y161504D01*
X78316D01*
Y161541D01*
X78335D01*
Y161560D01*
X78354D01*
Y161597D01*
X78372D01*
Y161616D01*
X78391D01*
Y161634D01*
X78409D01*
Y161653D01*
X78427D01*
Y161671D01*
X78446D01*
Y161689D01*
X78465D01*
Y161726D01*
X78483D01*
Y161745D01*
X78520D01*
Y161764D01*
X78539D01*
Y161782D01*
X78557D01*
Y161801D01*
X78575D01*
Y161819D01*
X78594D01*
Y161837D01*
X78613D01*
Y161856D01*
X78649D01*
Y161874D01*
X78668D01*
Y161893D01*
X78705D01*
Y161911D01*
X78724D01*
Y161930D01*
X78760D01*
Y161949D01*
X78798D01*
Y161967D01*
X78834D01*
Y161986D01*
X78853D01*
Y162004D01*
X78908D01*
Y162022D01*
X78945D01*
Y162041D01*
X79001D01*
Y162059D01*
X79057D01*
Y162078D01*
X79131D01*
Y162097D01*
X79223D01*
Y162115D01*
X79371D01*
Y162134D01*
X79352D01*
Y162152D01*
X79334D01*
Y162189D01*
X79316D01*
Y162207D01*
X79297D01*
Y162226D01*
X79278D01*
Y162244D01*
X79260D01*
Y162263D01*
X79242D01*
Y162300D01*
X79223D01*
Y162319D01*
X79204D01*
Y162337D01*
X79186D01*
Y162374D01*
X79167D01*
Y162392D01*
X79149D01*
Y162411D01*
X79131D01*
Y162448D01*
X79112D01*
Y162467D01*
X79093D01*
Y162504D01*
X79075D01*
Y162540D01*
X79057D01*
Y162559D01*
X79038D01*
Y162596D01*
X79019D01*
Y162633D01*
X79001D01*
Y162670D01*
X78983D01*
Y162707D01*
X78964D01*
Y162744D01*
X78945D01*
Y162781D01*
X78927D01*
Y162818D01*
X78908D01*
Y162855D01*
X78890D01*
Y162910D01*
X78872D01*
Y162947D01*
X78853D01*
Y163003D01*
X78834D01*
Y163058D01*
X78816D01*
Y163114D01*
X78798D01*
Y163188D01*
X78779D01*
Y163262D01*
X78760D01*
Y163355D01*
X78742D01*
Y163447D01*
X78724D01*
Y163613D01*
X78705D01*
Y164058D01*
X78724D01*
Y164206D01*
X78742D01*
Y164316D01*
X78760D01*
Y164409D01*
X78779D01*
Y164464D01*
X78798D01*
Y164539D01*
X78816D01*
Y164594D01*
X78834D01*
Y164649D01*
X78853D01*
Y164705D01*
X78872D01*
Y164760D01*
X78890D01*
Y164797D01*
X78908D01*
Y164834D01*
X78927D01*
Y164890D01*
X78945D01*
Y164927D01*
X78964D01*
Y164964D01*
X78983D01*
Y165001D01*
X79001D01*
Y165020D01*
X79019D01*
Y165057D01*
X79038D01*
Y165094D01*
X79057D01*
Y165130D01*
X79075D01*
Y165149D01*
X79093D01*
Y165186D01*
X79112D01*
Y165205D01*
X79131D01*
Y165242D01*
X79149D01*
Y165260D01*
X79167D01*
Y165297D01*
X79186D01*
Y165315D01*
X79204D01*
Y165334D01*
X79223D01*
Y165371D01*
X79242D01*
Y165390D01*
X79260D01*
Y165408D01*
X79278D01*
Y165427D01*
X79297D01*
Y165463D01*
X79316D01*
Y165482D01*
X79334D01*
Y165500D01*
X79352D01*
Y165519D01*
X79371D01*
Y165538D01*
X79390D01*
Y165556D01*
X79408D01*
Y165575D01*
X79426D01*
Y165593D01*
X79445D01*
Y165612D01*
X79463D01*
Y165630D01*
X79482D01*
Y165648D01*
X79501D01*
Y165667D01*
X79519D01*
Y165685D01*
X79537D01*
Y165704D01*
X79556D01*
Y165723D01*
X79575D01*
Y165741D01*
X79611D01*
Y165760D01*
X79630D01*
Y165778D01*
X79649D01*
Y165796D01*
X79667D01*
Y165815D01*
X79704D01*
Y165833D01*
X79722D01*
Y165852D01*
X79741D01*
Y165870D01*
X79778D01*
Y165889D01*
X79796D01*
Y165908D01*
X79834D01*
Y165926D01*
X79852D01*
Y165945D01*
X79889D01*
Y165963D01*
X79926D01*
Y165981D01*
X79963D01*
Y166000D01*
X80000D01*
Y166018D01*
X80019D01*
Y166037D01*
X79981D01*
Y166018D01*
X79944D01*
Y166000D01*
X79889D01*
Y165981D01*
X79852D01*
Y165963D01*
X79815D01*
Y165945D01*
X79760D01*
Y165926D01*
X79722D01*
Y165908D01*
X79685D01*
Y165889D01*
X79649D01*
Y165870D01*
X79611D01*
Y165852D01*
X79593D01*
Y165833D01*
X79556D01*
Y165815D01*
X79519D01*
Y165796D01*
X79482D01*
Y165778D01*
X79463D01*
Y165760D01*
X79426D01*
Y165741D01*
X79408D01*
Y165723D01*
X79371D01*
Y165704D01*
X79352D01*
Y165685D01*
X79334D01*
Y165667D01*
X79297D01*
Y165648D01*
X79278D01*
Y165630D01*
X79260D01*
Y165612D01*
X79223D01*
Y165593D01*
X79204D01*
Y165575D01*
X79186D01*
Y165556D01*
X79167D01*
Y165538D01*
X79149D01*
Y165519D01*
X79131D01*
Y165500D01*
X79112D01*
Y165482D01*
X79093D01*
Y165463D01*
X79075D01*
Y165445D01*
X79038D01*
Y165427D01*
X79019D01*
Y165390D01*
X79001D01*
Y165371D01*
X78983D01*
Y165352D01*
X78964D01*
Y165334D01*
X78945D01*
Y165315D01*
X78927D01*
Y165297D01*
X78908D01*
Y165278D01*
X78890D01*
Y165260D01*
X78872D01*
Y165223D01*
X78853D01*
Y165205D01*
X78834D01*
Y165186D01*
X78816D01*
Y165149D01*
X78798D01*
Y165130D01*
X78779D01*
Y165112D01*
X78760D01*
Y165075D01*
X78742D01*
Y165057D01*
X78724D01*
Y165020D01*
X78705D01*
Y165001D01*
X78686D01*
Y164964D01*
X78668D01*
Y164927D01*
X78649D01*
Y164909D01*
X78631D01*
Y164872D01*
X78613D01*
Y164834D01*
X78594D01*
Y164797D01*
X78575D01*
Y164760D01*
X78557D01*
Y164724D01*
X78539D01*
Y164687D01*
X78520D01*
Y164631D01*
X78501D01*
Y164594D01*
X78483D01*
Y164539D01*
X78465D01*
Y164502D01*
X78446D01*
Y164446D01*
X78427D01*
Y164391D01*
X78409D01*
Y164316D01*
X78391D01*
Y164242D01*
X78372D01*
Y164169D01*
X78354D01*
Y164058D01*
X78335D01*
Y163909D01*
X78316D01*
Y163428D01*
X78335D01*
Y163280D01*
X78354D01*
Y163188D01*
X78372D01*
Y163095D01*
X78391D01*
Y163022D01*
X78409D01*
Y162947D01*
X78427D01*
Y162892D01*
X78446D01*
Y162837D01*
X78465D01*
Y162800D01*
X78483D01*
Y162744D01*
X78501D01*
Y162689D01*
X78520D01*
Y162652D01*
X78539D01*
Y162615D01*
X78557D01*
Y162577D01*
X78575D01*
Y162540D01*
X78594D01*
Y162504D01*
X78613D01*
Y162467D01*
X78631D01*
Y162429D01*
X78649D01*
Y162411D01*
X78668D01*
Y162374D01*
X78686D01*
Y162337D01*
X78705D01*
Y162300D01*
X78686D01*
Y162282D01*
X78649D01*
Y162263D01*
X78613D01*
Y162244D01*
X78575D01*
Y162226D01*
X78557D01*
Y162207D01*
X78520D01*
Y162189D01*
X78501D01*
Y162171D01*
X78465D01*
Y162152D01*
X78446D01*
Y162134D01*
X78409D01*
Y162115D01*
X78391D01*
Y162097D01*
X78372D01*
Y162078D01*
X78354D01*
Y162059D01*
X78335D01*
Y162041D01*
X78298D01*
Y162022D01*
X78280D01*
Y162004D01*
X78261D01*
Y161986D01*
X78242D01*
Y161967D01*
X78224D01*
Y161949D01*
X78206D01*
Y161930D01*
X78187D01*
Y161911D01*
X78168D01*
Y161874D01*
X78150D01*
Y161856D01*
X78132D01*
Y161837D01*
X78113D01*
Y161819D01*
X78095D01*
Y161801D01*
X78076D01*
Y161764D01*
X78057D01*
Y161745D01*
X78039D01*
Y161708D01*
X78021D01*
Y161689D01*
X78002D01*
Y161653D01*
X77983D01*
Y161634D01*
X77965D01*
Y161597D01*
X77947D01*
Y161560D01*
X77928D01*
Y161523D01*
X77909D01*
Y161486D01*
X77891D01*
Y161449D01*
X77873D01*
Y161393D01*
X77854D01*
Y161338D01*
X77836D01*
Y161301D01*
X77817D01*
Y161227D01*
X77798D01*
Y161153D01*
X77780D01*
Y161061D01*
X77762D01*
Y160968D01*
X75911D01*
Y161061D01*
X75930D01*
Y161135D01*
X75949D01*
Y161208D01*
X75967D01*
Y161246D01*
X75985D01*
Y161301D01*
X76004D01*
Y161338D01*
X76022D01*
Y161375D01*
X76041D01*
Y161412D01*
X76060D01*
Y161449D01*
X76078D01*
Y161486D01*
X76096D01*
Y161504D01*
X76115D01*
Y161541D01*
X76134D01*
Y161560D01*
X76152D01*
Y161579D01*
X76170D01*
Y161616D01*
X76189D01*
Y161634D01*
X76208D01*
Y161653D01*
X76226D01*
Y161671D01*
X76244D01*
Y161689D01*
X76263D01*
Y161708D01*
X76281D01*
Y161726D01*
X76300D01*
Y161745D01*
X76319D01*
Y161856D01*
X76300D01*
Y161949D01*
X76281D01*
Y162022D01*
X76263D01*
Y162097D01*
X76244D01*
Y162189D01*
X76226D01*
Y162263D01*
X76208D01*
Y162319D01*
X76189D01*
Y162392D01*
X76170D01*
Y162448D01*
X76152D01*
Y162504D01*
X76134D01*
Y162559D01*
X76115D01*
Y162596D01*
X76096D01*
Y162652D01*
X76078D01*
Y162689D01*
X76060D01*
Y162744D01*
X76041D01*
Y162781D01*
X76022D01*
Y162818D01*
X76004D01*
Y162855D01*
X75985D01*
Y162892D01*
X75967D01*
Y162929D01*
X75949D01*
Y162966D01*
X75930D01*
Y162985D01*
X75911D01*
Y163022D01*
X75893D01*
Y163058D01*
X75875D01*
Y163077D01*
X75856D01*
Y163114D01*
X75837D01*
Y163133D01*
X75819D01*
Y163170D01*
X75801D01*
Y163188D01*
X75782D01*
Y163207D01*
X75763D01*
Y163243D01*
X75745D01*
Y163262D01*
X75726D01*
Y163280D01*
X75708D01*
Y163299D01*
X75690D01*
Y163318D01*
X75671D01*
Y163336D01*
X75652D01*
Y163355D01*
X75634D01*
Y163373D01*
X75616D01*
Y163391D01*
X75597D01*
Y163410D01*
X75578D01*
Y163428D01*
X75560D01*
Y163447D01*
X75542D01*
Y163465D01*
X75523D01*
Y163484D01*
X75504D01*
Y163503D01*
X75486D01*
Y163521D01*
X75449D01*
Y163540D01*
X75431D01*
Y163558D01*
X75412D01*
Y163576D01*
X75375D01*
Y163595D01*
X75357D01*
Y163613D01*
X75338D01*
Y163632D01*
X75301D01*
Y163651D01*
X75264D01*
Y163669D01*
X75245D01*
Y163688D01*
X75208D01*
Y163706D01*
X75172D01*
Y163725D01*
X75134D01*
Y163743D01*
X75116D01*
Y163761D01*
X75060D01*
Y163780D01*
X75024D01*
Y163798D01*
X74986D01*
Y163817D01*
X74950D01*
Y163836D01*
X74894D01*
Y163854D01*
X74839D01*
Y163873D01*
X74783D01*
Y163891D01*
X74727D01*
Y163909D01*
X74672D01*
Y163928D01*
X74598D01*
Y163946D01*
X74524D01*
Y163965D01*
X74450D01*
Y163984D01*
X74395D01*
Y164002D01*
X74339D01*
Y164021D01*
X74283D01*
Y164039D01*
X74228D01*
Y164058D01*
X74191D01*
Y164076D01*
X74136D01*
Y164094D01*
X74098D01*
Y164113D01*
X74062D01*
Y164131D01*
X74024D01*
Y164150D01*
X73988D01*
Y164169D01*
X73950D01*
Y164187D01*
X73932D01*
Y164206D01*
X73895D01*
Y164224D01*
X73877D01*
Y164242D01*
X73839D01*
Y164261D01*
X73821D01*
Y164279D01*
X73784D01*
Y164298D01*
X73765D01*
Y164316D01*
X73747D01*
Y164335D01*
X73710D01*
Y164354D01*
X73691D01*
Y164372D01*
X73673D01*
Y164391D01*
X73655D01*
Y164409D01*
X73636D01*
Y164427D01*
X73618D01*
Y164446D01*
X73599D01*
Y164464D01*
X73580D01*
Y164483D01*
X73562D01*
Y164502D01*
X73544D01*
Y164520D01*
X73525D01*
Y164557D01*
X73506D01*
Y164576D01*
X73488D01*
Y164594D01*
X73470D01*
Y164631D01*
X73451D01*
Y164649D01*
X73432D01*
Y164687D01*
X73414D01*
Y164724D01*
X73396D01*
Y164742D01*
X73377D01*
Y164779D01*
X73359D01*
Y164834D01*
X73340D01*
Y164872D01*
X73321D01*
Y164927D01*
X73303D01*
Y164982D01*
X73285D01*
Y165057D01*
X73266D01*
Y165186D01*
X73247D01*
Y165408D01*
X73266D01*
Y165538D01*
X73285D01*
Y165612D01*
X73303D01*
Y165685D01*
X73321D01*
Y165741D01*
X73340D01*
Y165796D01*
X73359D01*
Y165833D01*
X73377D01*
Y165889D01*
X73396D01*
Y165926D01*
X73414D01*
Y165963D01*
X73432D01*
Y166000D01*
X73451D01*
Y166018D01*
X73470D01*
Y166056D01*
X73488D01*
Y166241D01*
X73470D01*
Y166407D01*
X73451D01*
Y166574D01*
X73432D01*
Y166740D01*
X73414D01*
Y166906D01*
X73396D01*
Y167073D01*
X73377D01*
Y167239D01*
X73359D01*
Y167424D01*
X73340D01*
Y167572D01*
X73321D01*
Y167610D01*
X73340D01*
Y167647D01*
X73432D01*
Y167628D01*
X73470D01*
Y167610D01*
X73488D01*
Y167591D01*
X73506D01*
Y167572D01*
X73544D01*
Y167554D01*
X73562D01*
Y167535D01*
X73599D01*
Y167517D01*
X73618D01*
Y167499D01*
X73636D01*
Y167480D01*
X73673D01*
Y167462D01*
X73691D01*
Y167443D01*
X73710D01*
Y167424D01*
X73747D01*
Y167406D01*
X73765D01*
Y167387D01*
X73784D01*
Y167369D01*
X73821D01*
Y167350D01*
X73839D01*
Y167332D01*
X73877D01*
Y167314D01*
X73895D01*
Y167295D01*
X73914D01*
Y167277D01*
X73950D01*
Y167258D01*
X73969D01*
Y167239D01*
X73988D01*
Y167221D01*
X74024D01*
Y167202D01*
X74043D01*
Y167184D01*
X74062D01*
Y167166D01*
X74098D01*
Y167147D01*
X74117D01*
Y167129D01*
X74154D01*
Y167110D01*
X74173D01*
Y167092D01*
X74191D01*
Y167073D01*
X74228D01*
Y167054D01*
X74247D01*
Y167036D01*
X74265D01*
Y167017D01*
X74302D01*
Y166999D01*
X74321D01*
Y166981D01*
X74339D01*
Y166962D01*
X74376D01*
Y166944D01*
X74395D01*
Y166925D01*
X74432D01*
Y166944D01*
X74468D01*
Y166962D01*
X74506D01*
Y166981D01*
X74542D01*
Y166999D01*
X74580D01*
Y167017D01*
X74616D01*
Y167036D01*
X74654D01*
Y167054D01*
X74691D01*
Y167073D01*
X74727D01*
Y167092D01*
X74783D01*
Y167110D01*
X74820D01*
Y167129D01*
X74875D01*
Y167147D01*
X74913D01*
Y167166D01*
X74968D01*
Y167184D01*
X75024D01*
Y167202D01*
X75079D01*
Y167221D01*
X75153D01*
Y167239D01*
X75208D01*
Y167258D01*
X75283D01*
Y167277D01*
X75357D01*
Y167295D01*
X75449D01*
Y167314D01*
X75542D01*
Y167332D01*
X75671D01*
Y167350D01*
X75837D01*
Y167369D01*
X76078D01*
Y167387D01*
X76096D01*
Y167424D01*
X76115D01*
Y167462D01*
X76134D01*
Y167517D01*
X76152D01*
Y167554D01*
X76170D01*
Y167591D01*
X76189D01*
Y167628D01*
X76208D01*
Y167683D01*
X76226D01*
Y167720D01*
X76244D01*
Y167757D01*
X76263D01*
Y167813D01*
X76281D01*
Y167850D01*
X76300D01*
Y167887D01*
X76319D01*
Y167924D01*
X76337D01*
Y167980D01*
X76355D01*
Y168017D01*
X76374D01*
Y168053D01*
X76393D01*
Y168090D01*
X76411D01*
Y168146D01*
X76429D01*
Y168183D01*
X76448D01*
Y168220D01*
X76467D01*
Y168275D01*
X76485D01*
Y168313D01*
X76503D01*
Y168350D01*
X76522D01*
Y168386D01*
X76540D01*
Y168442D01*
X76559D01*
Y168461D01*
X76578D01*
Y168498D01*
X76596D01*
Y168516D01*
X76670D01*
Y168498D01*
D02*
G37*
%LPC*%
G36*
X76485Y166333D02*
X76467D01*
Y166314D01*
X76374D01*
Y166296D01*
X76337D01*
Y166278D01*
X76300D01*
Y166259D01*
X76281D01*
Y166241D01*
X76263D01*
Y166222D01*
X76244D01*
Y166203D01*
X76226D01*
Y166166D01*
X76208D01*
Y166130D01*
X76189D01*
Y165963D01*
X76208D01*
Y165908D01*
X76226D01*
Y165889D01*
X76244D01*
Y165870D01*
Y165852D01*
X76263D01*
Y165833D01*
X76300D01*
Y165815D01*
X76319D01*
Y165796D01*
X76355D01*
Y165778D01*
X76393D01*
Y165760D01*
X76540D01*
Y165778D01*
X76596D01*
Y165796D01*
X76614D01*
Y165815D01*
X76652D01*
Y165833D01*
X76670D01*
Y165852D01*
X76688D01*
Y165870D01*
X76707D01*
Y165908D01*
X76726D01*
Y165945D01*
X76744D01*
Y166130D01*
X76726D01*
Y166185D01*
X76707D01*
Y166203D01*
X76688D01*
Y166222D01*
X76670D01*
Y166241D01*
X76652D01*
Y166259D01*
X76633D01*
Y166278D01*
X76614D01*
Y166296D01*
X76578D01*
Y166314D01*
X76485D01*
Y166333D01*
D02*
G37*
G36*
X74765Y165870D02*
X74727D01*
Y165852D01*
X74635D01*
Y165833D01*
X74598D01*
Y165815D01*
X74580D01*
Y165796D01*
X74542D01*
Y165778D01*
X74524D01*
Y165741D01*
X74506D01*
Y165723D01*
X74487D01*
Y165685D01*
X74468D01*
Y165630D01*
Y165612D01*
Y165482D01*
X74487D01*
Y165445D01*
X74506D01*
Y165408D01*
X74524D01*
Y165390D01*
X74542D01*
Y165371D01*
X74561D01*
Y165352D01*
X74598D01*
Y165334D01*
X74616D01*
Y165315D01*
X74672D01*
Y165297D01*
X74801D01*
Y165315D01*
X74857D01*
Y165334D01*
X74894D01*
Y165352D01*
X74913D01*
Y165371D01*
X74931D01*
Y165390D01*
X74950D01*
Y165408D01*
X74968D01*
Y165427D01*
X74986D01*
Y165463D01*
X75005D01*
Y165500D01*
X75024D01*
Y165648D01*
X75005D01*
Y165704D01*
X74986D01*
Y165741D01*
X74968D01*
Y165760D01*
X74950D01*
Y165778D01*
X74931D01*
Y165796D01*
X74913D01*
Y165815D01*
X74875D01*
Y165833D01*
X74839D01*
Y165852D01*
X74765D01*
Y165870D01*
D02*
G37*
%LPD*%
D10*
X58276Y78992D02*
G03*
X58276Y78992I-492J0D01*
G01*
X151992Y129215D02*
G03*
X151992Y129215I-492J0D01*
G01*
D11*
X96638Y54500D02*
G03*
X86795Y64342I-9843J0D01*
G01*
Y44657D02*
G03*
X96638Y54500I0J9843D01*
G01*
X61205Y64342D02*
G03*
X51362Y54500I0J-9843D01*
G01*
D02*
G03*
X61205Y44657I9843J0D01*
G01*
Y64342D02*
X86795D01*
X61205Y44657D02*
X86795D01*
X133876Y80506D02*
X138098D01*
X152902D02*
X157124D01*
X133876Y107494D02*
X138098D01*
X152902D02*
X157124D01*
Y80506D02*
Y107494D01*
X133876Y80506D02*
Y107494D01*
D12*
X145894Y73331D02*
G03*
X145894Y73331I-394J0D01*
G01*
X5614Y39902D02*
X10142D01*
X5614D02*
Y75098D01*
X10142D01*
X153941Y137303D02*
Y157303D01*
X3941Y137303D02*
Y157303D01*
Y137303D02*
X153941D01*
X3941Y157303D02*
X153941D01*
X57193Y85193D02*
Y121807D01*
X93807D01*
Y85193D02*
Y121807D01*
X57193Y85193D02*
X93807D01*
X149709Y127001D02*
Y127428D01*
X138291D02*
X149709D01*
X138291Y127001D02*
Y127428D01*
Y127001D02*
X149709D01*
X3941Y7382D02*
X153941D01*
X3941Y27382D02*
X153941D01*
Y7382D02*
Y27382D01*
X3941Y7382D02*
Y27382D01*
X34146Y111201D02*
Y123799D01*
X14854Y111201D02*
X34146D01*
X14854D02*
Y123799D01*
X34146D01*
X34756Y125177D02*
Y131181D01*
D13*
X134350Y119861D02*
Y124139D01*
X111650Y119861D02*
Y124139D01*
D14*
X7000Y161500D02*
Y167498D01*
X9999D01*
X10999Y166498D01*
Y164499D01*
X9999Y163499D01*
X7000D01*
X15997Y161500D02*
X13998D01*
X12998Y162500D01*
Y164499D01*
X13998Y165499D01*
X15997D01*
X16997Y164499D01*
Y163499D01*
X12998D01*
X19996Y166498D02*
Y165499D01*
X18996D01*
X20996D01*
X19996D01*
Y162500D01*
X20996Y161500D01*
X29993Y167498D02*
X33991D01*
X31992D01*
Y161500D01*
X35991Y165499D02*
Y161500D01*
Y163499D01*
X36990Y164499D01*
X37990Y165499D01*
X38990D01*
X42988D02*
X44988D01*
X45987Y164499D01*
Y161500D01*
X42988D01*
X41989Y162500D01*
X42988Y163499D01*
X45987D01*
X51986Y165499D02*
X48986D01*
X47987Y164499D01*
Y162500D01*
X48986Y161500D01*
X51986D01*
X53985D02*
Y167498D01*
Y163499D02*
X56984Y165499D01*
X53985Y163499D02*
X56984Y161500D01*
X62982D02*
X60983D01*
X59983Y162500D01*
Y164499D01*
X60983Y165499D01*
X62982D01*
X63982Y164499D01*
Y163499D01*
X59983D01*
X65981Y165499D02*
Y161500D01*
Y163499D01*
X66981Y164499D01*
X67980Y165499D01*
X68980D01*
X93195Y172019D02*
Y169020D01*
X94694D01*
X95194Y169520D01*
Y170020D01*
X94694Y170520D01*
X93195D01*
X94694D01*
X95194Y171020D01*
Y171520D01*
X94694Y172019D01*
X93195D01*
X96193Y169020D02*
Y171020D01*
X97193Y172019D01*
X98193Y171020D01*
Y169020D01*
Y170520D01*
X96193D01*
X99193Y172019D02*
X101192D01*
X100192D01*
Y169020D01*
X136500Y169501D02*
Y172500D01*
X135001Y171000D01*
X137000D01*
X138000Y172500D02*
Y170500D01*
X138999Y169501D01*
X139999Y170500D01*
Y172500D01*
X126500Y171500D02*
X124501D01*
Y170000D01*
X125501Y170500D01*
X126000D01*
X126500Y170000D01*
Y169000D01*
X126000Y168500D01*
X125001D01*
X124501Y169000D01*
X127500Y171500D02*
Y169500D01*
X128499Y168500D01*
X129499Y169500D01*
Y171500D01*
X143501Y171000D02*
X144001Y171500D01*
X145001D01*
X145501Y171000D01*
Y170500D01*
X145001Y170000D01*
X144501D01*
X145001D01*
X145501Y169500D01*
Y169000D01*
X145001Y168500D01*
X144001D01*
X143501Y169000D01*
X146500Y171500D02*
Y169500D01*
X147500Y168500D01*
X148500Y169500D01*
Y171500D01*
X149499Y171000D02*
X149999Y171500D01*
X150999D01*
X151499Y171000D01*
Y170500D01*
X150999Y170000D01*
X150499D01*
X150999D01*
X151499Y169500D01*
Y169000D01*
X150999Y168500D01*
X149999D01*
X149499Y169000D01*
X104001Y172000D02*
Y169500D01*
X104501Y169000D01*
X105501D01*
X106001Y169500D01*
Y172000D01*
X109000Y171500D02*
X108500Y172000D01*
X107500D01*
X107000Y171500D01*
Y171000D01*
X107500Y170500D01*
X108500D01*
X109000Y170000D01*
Y169500D01*
X108500Y169000D01*
X107500D01*
X107000Y169500D01*
X109999Y172000D02*
Y169000D01*
X111499D01*
X111999Y169500D01*
Y170000D01*
X111499Y170500D01*
X109999D01*
X111499D01*
X111999Y171000D01*
Y171500D01*
X111499Y172000D01*
X109999D01*
M02*
