G04*
G04 #@! TF.GenerationSoftware,Altium Limited,Altium Designer,22.0.2 (36)*
G04*
G04 Layer_Physical_Order=3*
G04 Layer_Color=16440176*
%FSLAX25Y25*%
%MOIN*%
G70*
G04*
G04 #@! TF.SameCoordinates,D8B2018D-4A20-4394-8D71-C126664B729D*
G04*
G04*
G04 #@! TF.FilePolarity,Positive*
G04*
G01*
G75*
%ADD12C,0.01000*%
%ADD25C,0.00600*%
%ADD26C,0.01500*%
%ADD28C,0.05906*%
%ADD31C,0.01968*%
%ADD32C,0.02362*%
%ADD33C,0.00623*%
G36*
X163825Y1529D02*
X1529D01*
Y175636D01*
X127845D01*
X128112Y175136D01*
X127867Y174768D01*
X127697Y173917D01*
X127867Y173066D01*
X128349Y172345D01*
X129070Y171863D01*
X129921Y171694D01*
X130772Y171863D01*
X131494Y172345D01*
X131976Y173066D01*
X132145Y173917D01*
X131976Y174768D01*
X131730Y175136D01*
X131997Y175636D01*
X141828D01*
X142127Y175172D01*
X142122Y175136D01*
X141661Y174828D01*
X137457Y170624D01*
X116043D01*
X115458Y170508D01*
X114962Y170176D01*
X106725Y161939D01*
X97685D01*
X97370Y162439D01*
X97499Y163091D01*
X97330Y163942D01*
X96848Y164663D01*
X96127Y165145D01*
X95276Y165314D01*
X94425Y165145D01*
X93703Y164663D01*
X93221Y163942D01*
X93052Y163091D01*
X93221Y162240D01*
X93703Y161518D01*
X94048Y161288D01*
X94111Y160644D01*
X93166Y159699D01*
X88321D01*
X87736Y159582D01*
X87239Y159251D01*
X82768Y154779D01*
X82182D01*
X81768Y155319D01*
X80942Y155953D01*
X79981Y156351D01*
X78949Y156487D01*
X77917Y156351D01*
X76955Y155953D01*
X76130Y155319D01*
X75496Y154493D01*
X75098Y153532D01*
X74962Y152500D01*
X75098Y151468D01*
X75496Y150507D01*
X76130Y149681D01*
X76955Y149047D01*
X77917Y148649D01*
X78949Y148513D01*
X79981Y148649D01*
X80942Y149047D01*
X81768Y149681D01*
X82402Y150507D01*
X82800Y151468D01*
X82833Y151720D01*
X83402D01*
X83987Y151837D01*
X84483Y152169D01*
X84499Y152185D01*
X85027Y152005D01*
X85098Y151468D01*
X85496Y150507D01*
X86130Y149681D01*
X86955Y149047D01*
X87917Y148649D01*
X88949Y148513D01*
X89981Y148649D01*
X90942Y149047D01*
X91768Y149681D01*
X92401Y150507D01*
X92800Y151468D01*
X92936Y152500D01*
X92800Y153532D01*
X92401Y154493D01*
X91768Y155319D01*
X90942Y155953D01*
X90490Y156140D01*
X90590Y156640D01*
X93799D01*
X94384Y156756D01*
X94881Y157088D01*
X96673Y158880D01*
X107358D01*
X107943Y158996D01*
X108440Y159328D01*
X116677Y167565D01*
X138091D01*
X138676Y167682D01*
X139172Y168013D01*
X143376Y172217D01*
X145415D01*
X145683Y171717D01*
X145420Y171324D01*
X145250Y170472D01*
X145420Y169621D01*
X145902Y168900D01*
X146623Y168418D01*
X147474Y168249D01*
X148325Y168418D01*
X149047Y168900D01*
X149529Y169621D01*
X149698Y170472D01*
X149666Y170633D01*
X149696Y170711D01*
X150091Y171058D01*
X150334Y171010D01*
X155485D01*
X155514Y170967D01*
X156236Y170485D01*
X157087Y170316D01*
X157938Y170485D01*
X158659Y170967D01*
X159141Y171688D01*
X159310Y172539D01*
X159141Y173390D01*
X158659Y174112D01*
X157938Y174594D01*
X157087Y174763D01*
X156236Y174594D01*
X155514Y174112D01*
X155485Y174069D01*
X150967D01*
X150208Y174828D01*
X149747Y175136D01*
X149742Y175172D01*
X150041Y175636D01*
X163825D01*
Y1529D01*
D02*
G37*
%LPC*%
G36*
X82480Y173582D02*
X81629Y173413D01*
X80908Y172931D01*
X80426Y172209D01*
X80256Y171358D01*
X80426Y170507D01*
X80908Y169786D01*
X81629Y169304D01*
X82480Y169134D01*
X83331Y169304D01*
X84053Y169786D01*
X84535Y170507D01*
X84704Y171358D01*
X84535Y172209D01*
X84053Y172931D01*
X83331Y173413D01*
X82480Y173582D01*
D02*
G37*
G36*
X104724Y172893D02*
X103873Y172724D01*
X103152Y172242D01*
X102670Y171520D01*
X102501Y170669D01*
X102670Y169818D01*
X103152Y169097D01*
X103873Y168615D01*
X104724Y168446D01*
X105575Y168615D01*
X106297Y169097D01*
X106779Y169818D01*
X106948Y170669D01*
X106779Y171520D01*
X106297Y172242D01*
X105575Y172724D01*
X104724Y172893D01*
D02*
G37*
G36*
X69449Y156421D02*
Y153000D01*
X72870D01*
X72800Y153532D01*
X72401Y154493D01*
X71768Y155319D01*
X70942Y155953D01*
X69981Y156351D01*
X69449Y156421D01*
D02*
G37*
G36*
X68449D02*
X67917Y156351D01*
X66955Y155953D01*
X66130Y155319D01*
X65496Y154493D01*
X65098Y153532D01*
X65028Y153000D01*
X68449D01*
Y156421D01*
D02*
G37*
G36*
X59449D02*
Y153000D01*
X62870D01*
X62800Y153532D01*
X62401Y154493D01*
X61768Y155319D01*
X60942Y155953D01*
X59981Y156351D01*
X59449Y156421D01*
D02*
G37*
G36*
X58449D02*
X57917Y156351D01*
X56955Y155953D01*
X56130Y155319D01*
X55496Y154493D01*
X55098Y153532D01*
X55028Y153000D01*
X58449D01*
Y156421D01*
D02*
G37*
G36*
X29449D02*
Y153000D01*
X32870D01*
X32800Y153532D01*
X32401Y154493D01*
X31768Y155319D01*
X30942Y155953D01*
X29981Y156351D01*
X29449Y156421D01*
D02*
G37*
G36*
X28449D02*
X27917Y156351D01*
X26955Y155953D01*
X26130Y155319D01*
X25496Y154493D01*
X25098Y153532D01*
X25028Y153000D01*
X28449D01*
Y156421D01*
D02*
G37*
G36*
X72870Y152000D02*
X69449D01*
Y148579D01*
X69981Y148649D01*
X70942Y149047D01*
X71768Y149681D01*
X72401Y150507D01*
X72800Y151468D01*
X72870Y152000D01*
D02*
G37*
G36*
X68449D02*
X65028D01*
X65098Y151468D01*
X65496Y150507D01*
X66130Y149681D01*
X66955Y149047D01*
X67917Y148649D01*
X68449Y148579D01*
Y152000D01*
D02*
G37*
G36*
X62870D02*
X59449D01*
Y148579D01*
X59981Y148649D01*
X60942Y149047D01*
X61768Y149681D01*
X62401Y150507D01*
X62800Y151468D01*
X62870Y152000D01*
D02*
G37*
G36*
X58449D02*
X55028D01*
X55098Y151468D01*
X55496Y150507D01*
X56130Y149681D01*
X56955Y149047D01*
X57917Y148649D01*
X58449Y148579D01*
Y152000D01*
D02*
G37*
G36*
X32870D02*
X29449D01*
Y148579D01*
X29981Y148649D01*
X30942Y149047D01*
X31768Y149681D01*
X32401Y150507D01*
X32800Y151468D01*
X32870Y152000D01*
D02*
G37*
G36*
X28449D02*
X25028D01*
X25098Y151468D01*
X25496Y150507D01*
X26130Y149681D01*
X26955Y149047D01*
X27917Y148649D01*
X28449Y148579D01*
Y152000D01*
D02*
G37*
G36*
X148949Y156487D02*
X147917Y156351D01*
X146955Y155953D01*
X146130Y155319D01*
X145496Y154493D01*
X145098Y153532D01*
X144962Y152500D01*
X145098Y151468D01*
X145496Y150507D01*
X146130Y149681D01*
X146955Y149047D01*
X147917Y148649D01*
X148949Y148513D01*
X149981Y148649D01*
X150942Y149047D01*
X151768Y149681D01*
X152401Y150507D01*
X152800Y151468D01*
X152936Y152500D01*
X152800Y153532D01*
X152401Y154493D01*
X151768Y155319D01*
X150942Y155953D01*
X149981Y156351D01*
X148949Y156487D01*
D02*
G37*
G36*
X138949D02*
X137917Y156351D01*
X136955Y155953D01*
X136130Y155319D01*
X135496Y154493D01*
X135098Y153532D01*
X134962Y152500D01*
X135098Y151468D01*
X135496Y150507D01*
X136130Y149681D01*
X136955Y149047D01*
X137917Y148649D01*
X138949Y148513D01*
X139981Y148649D01*
X140942Y149047D01*
X141768Y149681D01*
X142402Y150507D01*
X142800Y151468D01*
X142936Y152500D01*
X142800Y153532D01*
X142402Y154493D01*
X141768Y155319D01*
X140942Y155953D01*
X139981Y156351D01*
X138949Y156487D01*
D02*
G37*
G36*
X128949D02*
X127917Y156351D01*
X126955Y155953D01*
X126130Y155319D01*
X125496Y154493D01*
X125098Y153532D01*
X124962Y152500D01*
X125098Y151468D01*
X125496Y150507D01*
X126130Y149681D01*
X126955Y149047D01*
X127917Y148649D01*
X128949Y148513D01*
X129981Y148649D01*
X130942Y149047D01*
X131768Y149681D01*
X132402Y150507D01*
X132800Y151468D01*
X132936Y152500D01*
X132800Y153532D01*
X132402Y154493D01*
X131768Y155319D01*
X130942Y155953D01*
X129981Y156351D01*
X128949Y156487D01*
D02*
G37*
G36*
X118949D02*
X117917Y156351D01*
X116955Y155953D01*
X116130Y155319D01*
X115496Y154493D01*
X115098Y153532D01*
X114962Y152500D01*
X115098Y151468D01*
X115496Y150507D01*
X116130Y149681D01*
X116955Y149047D01*
X117917Y148649D01*
X118949Y148513D01*
X119981Y148649D01*
X120942Y149047D01*
X121768Y149681D01*
X122401Y150507D01*
X122800Y151468D01*
X122936Y152500D01*
X122800Y153532D01*
X122401Y154493D01*
X121768Y155319D01*
X120942Y155953D01*
X119981Y156351D01*
X118949Y156487D01*
D02*
G37*
G36*
X108949D02*
X107917Y156351D01*
X106955Y155953D01*
X106130Y155319D01*
X105496Y154493D01*
X105098Y153532D01*
X104962Y152500D01*
X105098Y151468D01*
X105496Y150507D01*
X106130Y149681D01*
X106955Y149047D01*
X107917Y148649D01*
X108949Y148513D01*
X109981Y148649D01*
X110942Y149047D01*
X111768Y149681D01*
X112401Y150507D01*
X112800Y151468D01*
X112936Y152500D01*
X112800Y153532D01*
X112401Y154493D01*
X111768Y155319D01*
X110942Y155953D01*
X109981Y156351D01*
X108949Y156487D01*
D02*
G37*
G36*
X98949D02*
X97917Y156351D01*
X96955Y155953D01*
X96130Y155319D01*
X95496Y154493D01*
X95098Y153532D01*
X94962Y152500D01*
X95098Y151468D01*
X95496Y150507D01*
X96130Y149681D01*
X96955Y149047D01*
X97917Y148649D01*
X98949Y148513D01*
X99981Y148649D01*
X100942Y149047D01*
X101768Y149681D01*
X102401Y150507D01*
X102800Y151468D01*
X102936Y152500D01*
X102800Y153532D01*
X102401Y154493D01*
X101768Y155319D01*
X100942Y155953D01*
X99981Y156351D01*
X98949Y156487D01*
D02*
G37*
G36*
X48949D02*
X47917Y156351D01*
X46955Y155953D01*
X46130Y155319D01*
X45496Y154493D01*
X45098Y153532D01*
X44962Y152500D01*
X45098Y151468D01*
X45496Y150507D01*
X46130Y149681D01*
X46955Y149047D01*
X47917Y148649D01*
X48949Y148513D01*
X49981Y148649D01*
X50942Y149047D01*
X51768Y149681D01*
X52402Y150507D01*
X52800Y151468D01*
X52936Y152500D01*
X52800Y153532D01*
X52402Y154493D01*
X51768Y155319D01*
X50942Y155953D01*
X49981Y156351D01*
X48949Y156487D01*
D02*
G37*
G36*
X38949D02*
X37917Y156351D01*
X36955Y155953D01*
X36130Y155319D01*
X35496Y154493D01*
X35098Y153532D01*
X34962Y152500D01*
X35098Y151468D01*
X35496Y150507D01*
X36130Y149681D01*
X36955Y149047D01*
X37917Y148649D01*
X38949Y148513D01*
X39981Y148649D01*
X40942Y149047D01*
X41768Y149681D01*
X42401Y150507D01*
X42800Y151468D01*
X42936Y152500D01*
X42800Y153532D01*
X42401Y154493D01*
X41768Y155319D01*
X40942Y155953D01*
X39981Y156351D01*
X38949Y156487D01*
D02*
G37*
G36*
X18949D02*
X17917Y156351D01*
X16955Y155953D01*
X16130Y155319D01*
X15496Y154493D01*
X15098Y153532D01*
X14962Y152500D01*
X15098Y151468D01*
X15496Y150507D01*
X16130Y149681D01*
X16955Y149047D01*
X17917Y148649D01*
X18949Y148513D01*
X19981Y148649D01*
X20942Y149047D01*
X21768Y149681D01*
X22401Y150507D01*
X22800Y151468D01*
X22936Y152500D01*
X22800Y153532D01*
X22401Y154493D01*
X21768Y155319D01*
X20942Y155953D01*
X19981Y156351D01*
X18949Y156487D01*
D02*
G37*
G36*
X8949D02*
X7917Y156351D01*
X6955Y155953D01*
X6130Y155319D01*
X5496Y154493D01*
X5098Y153532D01*
X4962Y152500D01*
X5098Y151468D01*
X5496Y150507D01*
X6130Y149681D01*
X6955Y149047D01*
X7917Y148649D01*
X8949Y148513D01*
X9981Y148649D01*
X10942Y149047D01*
X11768Y149681D01*
X12402Y150507D01*
X12800Y151468D01*
X12936Y152500D01*
X12800Y153532D01*
X12402Y154493D01*
X11768Y155319D01*
X10942Y155953D01*
X9981Y156351D01*
X8949Y156487D01*
D02*
G37*
G36*
X48949Y146487D02*
X47917Y146351D01*
X46955Y145953D01*
X46130Y145319D01*
X45496Y144493D01*
X45098Y143532D01*
X44962Y142500D01*
X45098Y141468D01*
X45496Y140507D01*
X46095Y139726D01*
X46020Y139357D01*
X45975Y139226D01*
X41922D01*
X41878Y139357D01*
X41803Y139726D01*
X42401Y140507D01*
X42800Y141468D01*
X42936Y142500D01*
X42800Y143532D01*
X42401Y144493D01*
X41768Y145319D01*
X40942Y145953D01*
X39981Y146351D01*
X38949Y146487D01*
X37917Y146351D01*
X36955Y145953D01*
X36130Y145319D01*
X35496Y144493D01*
X35098Y143532D01*
X34962Y142500D01*
X35098Y141468D01*
X35496Y140507D01*
X36130Y139681D01*
X36955Y139047D01*
X37917Y138649D01*
X37990Y138639D01*
X38222Y138104D01*
X38109Y137947D01*
X36739D01*
X36710Y137990D01*
X35989Y138472D01*
X35138Y138641D01*
X34287Y138472D01*
X33565Y137990D01*
X33083Y137268D01*
X32914Y136417D01*
X33083Y135566D01*
X33565Y134845D01*
X34287Y134363D01*
X35138Y134194D01*
X35989Y134363D01*
X36710Y134845D01*
X36739Y134888D01*
X39126D01*
X39292Y134921D01*
X39445Y134149D01*
X39928Y133428D01*
X40649Y132946D01*
X41500Y132776D01*
X41551Y132786D01*
X46919Y127419D01*
X47415Y127087D01*
X48000Y126971D01*
X54823D01*
X83450Y98344D01*
X83946Y98012D01*
X84531Y97896D01*
X114186D01*
X114771Y98012D01*
X115268Y98344D01*
X116505Y99581D01*
X117190Y99717D01*
X117911Y100199D01*
X118393Y100921D01*
X118562Y101772D01*
X118393Y102623D01*
X117911Y103344D01*
X117190Y103826D01*
X116339Y103996D01*
X115488Y103826D01*
X114766Y103344D01*
X114284Y102623D01*
X114115Y101772D01*
X114157Y101559D01*
X113553Y100955D01*
X85165D01*
X56538Y129581D01*
X56042Y129913D01*
X55457Y130029D01*
X48634D01*
X46481Y132182D01*
X46735Y132635D01*
X47505Y132788D01*
X48226Y133270D01*
X48708Y133992D01*
X48877Y134843D01*
X48713Y135668D01*
X48710Y135755D01*
X48966Y136168D01*
X50055D01*
X54824Y131399D01*
X55320Y131067D01*
X55905Y130951D01*
X57634D01*
X82580Y106005D01*
X83076Y105674D01*
X83661Y105557D01*
X117969D01*
X119218Y104308D01*
Y98389D01*
X117866Y97037D01*
X117815Y97047D01*
X116964Y96878D01*
X116243Y96396D01*
X115760Y95674D01*
X115591Y94823D01*
X115760Y93972D01*
X116243Y93251D01*
X116964Y92769D01*
X117815Y92600D01*
X118666Y92769D01*
X119387Y93251D01*
X119869Y93972D01*
X120039Y94823D01*
X120029Y94874D01*
X121691Y96537D01*
X122191Y96342D01*
Y89511D01*
X119847Y87168D01*
X119459Y87486D01*
X119648Y87769D01*
X119904Y88153D01*
X120074Y89004D01*
X119904Y89855D01*
X119422Y90576D01*
X118701Y91058D01*
X117850Y91228D01*
X116999Y91058D01*
X116277Y90576D01*
X115795Y89855D01*
X115626Y89004D01*
X115795Y88153D01*
X116277Y87432D01*
X116999Y86949D01*
X117850Y86780D01*
X118701Y86949D01*
X119367Y87395D01*
X119686Y87006D01*
X117964Y85285D01*
X117913Y85295D01*
X117062Y85125D01*
X116341Y84643D01*
X115859Y83922D01*
X115690Y83071D01*
X115859Y82220D01*
X116341Y81498D01*
X117062Y81016D01*
X117913Y80847D01*
X118764Y81016D01*
X119486Y81498D01*
X119968Y82220D01*
X120137Y83071D01*
X120127Y83122D01*
X124802Y87796D01*
X125133Y88293D01*
X125250Y88878D01*
Y100844D01*
X125750Y101111D01*
X126216Y100800D01*
X127067Y100630D01*
X127918Y100800D01*
X128639Y101282D01*
X129121Y102003D01*
X129291Y102854D01*
X129121Y103705D01*
X128639Y104427D01*
X127918Y104909D01*
X127067Y105078D01*
X126216Y104909D01*
X125750Y104597D01*
X125250Y104865D01*
Y107874D01*
X125133Y108459D01*
X124802Y108956D01*
X121430Y112328D01*
X120934Y112659D01*
X120348Y112776D01*
X87419D01*
X65107Y135087D01*
X65118Y135138D01*
X64948Y135989D01*
X64466Y136710D01*
X63745Y137192D01*
X62894Y137362D01*
X62043Y137192D01*
X61321Y136710D01*
X60839Y135989D01*
X60670Y135138D01*
X60839Y134287D01*
X61321Y133565D01*
X62043Y133083D01*
X62894Y132914D01*
X62945Y132924D01*
X85704Y110165D01*
X86200Y109833D01*
X86785Y109717D01*
X119715D01*
X122191Y107240D01*
Y106355D01*
X121691Y106161D01*
X119684Y108168D01*
X119188Y108500D01*
X118602Y108616D01*
X84295D01*
X59349Y133562D01*
X58853Y133893D01*
X58268Y134010D01*
X56539D01*
X51770Y138778D01*
X51579Y138906D01*
X51559Y139521D01*
X51768Y139681D01*
X52402Y140507D01*
X52800Y141468D01*
X52936Y142500D01*
X52800Y143532D01*
X52402Y144493D01*
X51768Y145319D01*
X50942Y145953D01*
X49981Y146351D01*
X48949Y146487D01*
D02*
G37*
G36*
X12902Y146453D02*
X4996D01*
Y138547D01*
X12902D01*
Y146453D01*
D02*
G37*
G36*
X148949Y146487D02*
X147917Y146351D01*
X146955Y145953D01*
X146130Y145319D01*
X145496Y144493D01*
X145098Y143532D01*
X144962Y142500D01*
X145098Y141468D01*
X145496Y140507D01*
X146130Y139681D01*
X146955Y139047D01*
X147917Y138649D01*
X148949Y138513D01*
X149981Y138649D01*
X150942Y139047D01*
X151768Y139681D01*
X152401Y140507D01*
X152800Y141468D01*
X152936Y142500D01*
X152800Y143532D01*
X152401Y144493D01*
X151768Y145319D01*
X150942Y145953D01*
X149981Y146351D01*
X148949Y146487D01*
D02*
G37*
G36*
X138949D02*
X137917Y146351D01*
X136955Y145953D01*
X136130Y145319D01*
X135496Y144493D01*
X135098Y143532D01*
X134962Y142500D01*
X135098Y141468D01*
X135496Y140507D01*
X136130Y139681D01*
X136955Y139047D01*
X137917Y138649D01*
X138949Y138513D01*
X139981Y138649D01*
X140942Y139047D01*
X141768Y139681D01*
X142402Y140507D01*
X142800Y141468D01*
X142936Y142500D01*
X142800Y143532D01*
X142402Y144493D01*
X141768Y145319D01*
X140942Y145953D01*
X139981Y146351D01*
X138949Y146487D01*
D02*
G37*
G36*
X128949D02*
X127917Y146351D01*
X126955Y145953D01*
X126130Y145319D01*
X125496Y144493D01*
X125098Y143532D01*
X124962Y142500D01*
X125098Y141468D01*
X125496Y140507D01*
X126130Y139681D01*
X126955Y139047D01*
X127917Y138649D01*
X128949Y138513D01*
X129981Y138649D01*
X130942Y139047D01*
X131768Y139681D01*
X132402Y140507D01*
X132800Y141468D01*
X132936Y142500D01*
X132800Y143532D01*
X132402Y144493D01*
X131768Y145319D01*
X130942Y145953D01*
X129981Y146351D01*
X128949Y146487D01*
D02*
G37*
G36*
X118949D02*
X117917Y146351D01*
X116955Y145953D01*
X116130Y145319D01*
X115496Y144493D01*
X115098Y143532D01*
X114962Y142500D01*
X115098Y141468D01*
X115496Y140507D01*
X116130Y139681D01*
X116955Y139047D01*
X117917Y138649D01*
X118949Y138513D01*
X119981Y138649D01*
X120942Y139047D01*
X121768Y139681D01*
X122401Y140507D01*
X122800Y141468D01*
X122936Y142500D01*
X122800Y143532D01*
X122401Y144493D01*
X121768Y145319D01*
X120942Y145953D01*
X119981Y146351D01*
X118949Y146487D01*
D02*
G37*
G36*
X108949D02*
X107917Y146351D01*
X106955Y145953D01*
X106130Y145319D01*
X105496Y144493D01*
X105098Y143532D01*
X104962Y142500D01*
X105098Y141468D01*
X105496Y140507D01*
X106130Y139681D01*
X106955Y139047D01*
X107917Y138649D01*
X108949Y138513D01*
X109981Y138649D01*
X110942Y139047D01*
X111768Y139681D01*
X112401Y140507D01*
X112800Y141468D01*
X112936Y142500D01*
X112800Y143532D01*
X112401Y144493D01*
X111768Y145319D01*
X110942Y145953D01*
X109981Y146351D01*
X108949Y146487D01*
D02*
G37*
G36*
X98949D02*
X97917Y146351D01*
X96955Y145953D01*
X96130Y145319D01*
X95496Y144493D01*
X95098Y143532D01*
X94962Y142500D01*
X95098Y141468D01*
X95496Y140507D01*
X96130Y139681D01*
X96955Y139047D01*
X97917Y138649D01*
X98949Y138513D01*
X99981Y138649D01*
X100942Y139047D01*
X101768Y139681D01*
X102401Y140507D01*
X102800Y141468D01*
X102936Y142500D01*
X102800Y143532D01*
X102401Y144493D01*
X101768Y145319D01*
X100942Y145953D01*
X99981Y146351D01*
X98949Y146487D01*
D02*
G37*
G36*
X88949D02*
X87917Y146351D01*
X86955Y145953D01*
X86130Y145319D01*
X85496Y144493D01*
X85098Y143532D01*
X84962Y142500D01*
X85098Y141468D01*
X85496Y140507D01*
X86130Y139681D01*
X86955Y139047D01*
X87917Y138649D01*
X88949Y138513D01*
X89981Y138649D01*
X90942Y139047D01*
X91768Y139681D01*
X92401Y140507D01*
X92800Y141468D01*
X92936Y142500D01*
X92800Y143532D01*
X92401Y144493D01*
X91768Y145319D01*
X90942Y145953D01*
X89981Y146351D01*
X88949Y146487D01*
D02*
G37*
G36*
X78949D02*
X77917Y146351D01*
X76955Y145953D01*
X76130Y145319D01*
X75496Y144493D01*
X75098Y143532D01*
X74962Y142500D01*
X75098Y141468D01*
X75496Y140507D01*
X76130Y139681D01*
X76955Y139047D01*
X77917Y138649D01*
X78949Y138513D01*
X79981Y138649D01*
X80942Y139047D01*
X81768Y139681D01*
X82402Y140507D01*
X82800Y141468D01*
X82936Y142500D01*
X82800Y143532D01*
X82402Y144493D01*
X81768Y145319D01*
X80942Y145953D01*
X79981Y146351D01*
X78949Y146487D01*
D02*
G37*
G36*
X68949D02*
X67917Y146351D01*
X66955Y145953D01*
X66130Y145319D01*
X65496Y144493D01*
X65098Y143532D01*
X64962Y142500D01*
X65098Y141468D01*
X65496Y140507D01*
X66130Y139681D01*
X66955Y139047D01*
X67917Y138649D01*
X68949Y138513D01*
X69981Y138649D01*
X70942Y139047D01*
X71768Y139681D01*
X72401Y140507D01*
X72800Y141468D01*
X72936Y142500D01*
X72800Y143532D01*
X72401Y144493D01*
X71768Y145319D01*
X70942Y145953D01*
X69981Y146351D01*
X68949Y146487D01*
D02*
G37*
G36*
X58949D02*
X57917Y146351D01*
X56955Y145953D01*
X56130Y145319D01*
X55496Y144493D01*
X55098Y143532D01*
X54962Y142500D01*
X55098Y141468D01*
X55496Y140507D01*
X56130Y139681D01*
X56955Y139047D01*
X57917Y138649D01*
X58949Y138513D01*
X59981Y138649D01*
X60942Y139047D01*
X61768Y139681D01*
X62401Y140507D01*
X62800Y141468D01*
X62936Y142500D01*
X62800Y143532D01*
X62401Y144493D01*
X61768Y145319D01*
X60942Y145953D01*
X59981Y146351D01*
X58949Y146487D01*
D02*
G37*
G36*
X28949D02*
X27917Y146351D01*
X26955Y145953D01*
X26130Y145319D01*
X25496Y144493D01*
X25098Y143532D01*
X24962Y142500D01*
X25098Y141468D01*
X25496Y140507D01*
X26130Y139681D01*
X26955Y139047D01*
X27917Y138649D01*
X28949Y138513D01*
X29981Y138649D01*
X30942Y139047D01*
X31768Y139681D01*
X32401Y140507D01*
X32800Y141468D01*
X32936Y142500D01*
X32800Y143532D01*
X32401Y144493D01*
X31768Y145319D01*
X30942Y145953D01*
X29981Y146351D01*
X28949Y146487D01*
D02*
G37*
G36*
X18949D02*
X17917Y146351D01*
X16955Y145953D01*
X16130Y145319D01*
X15496Y144493D01*
X15098Y143532D01*
X14962Y142500D01*
X15098Y141468D01*
X15496Y140507D01*
X16130Y139681D01*
X16955Y139047D01*
X17917Y138649D01*
X18949Y138513D01*
X19981Y138649D01*
X20942Y139047D01*
X21768Y139681D01*
X22401Y140507D01*
X22800Y141468D01*
X22936Y142500D01*
X22800Y143532D01*
X22401Y144493D01*
X21768Y145319D01*
X20942Y145953D01*
X19981Y146351D01*
X18949Y146487D01*
D02*
G37*
G36*
X130807Y110590D02*
X129956Y110421D01*
X129235Y109939D01*
X128753Y109217D01*
X128583Y108366D01*
X128753Y107515D01*
X129235Y106794D01*
X129956Y106312D01*
X130807Y106142D01*
X131658Y106312D01*
X132380Y106794D01*
X132862Y107515D01*
X133031Y108366D01*
X132862Y109217D01*
X132380Y109939D01*
X131658Y110421D01*
X130807Y110590D01*
D02*
G37*
G36*
X140656Y107347D02*
X139805Y107178D01*
X139084Y106696D01*
X138602Y105974D01*
X138433Y105123D01*
X138443Y105072D01*
X134548Y101178D01*
X134217Y100682D01*
X134100Y100097D01*
Y72927D01*
X134217Y72342D01*
X134548Y71846D01*
X141679Y64715D01*
Y39315D01*
X140915Y38550D01*
X140453Y38741D01*
Y44953D01*
X132547D01*
Y37159D01*
X43769D01*
X43183Y37043D01*
X42687Y36711D01*
X36713Y30737D01*
X36663Y30747D01*
X35811Y30578D01*
X35090Y30096D01*
X34608Y29375D01*
X34439Y28524D01*
X34608Y27673D01*
X35090Y26951D01*
X35811Y26469D01*
X36199Y26392D01*
X36323Y25857D01*
X36130Y25709D01*
X35496Y24883D01*
X35098Y23922D01*
X34962Y22890D01*
X35098Y21858D01*
X35496Y20896D01*
X36130Y20071D01*
X36955Y19437D01*
X37917Y19039D01*
X38949Y18903D01*
X39981Y19039D01*
X40942Y19437D01*
X41768Y20071D01*
X42130Y20542D01*
X42793Y20585D01*
X46460Y16918D01*
X46706Y16754D01*
X46721Y16163D01*
X46130Y15709D01*
X45496Y14883D01*
X45098Y13922D01*
X44962Y12890D01*
X45098Y11858D01*
X45496Y10896D01*
X46130Y10071D01*
X46955Y9437D01*
X47917Y9039D01*
X48949Y8903D01*
X49981Y9039D01*
X50942Y9437D01*
X51768Y10071D01*
X52402Y10896D01*
X52800Y11858D01*
X52936Y12890D01*
X52800Y13922D01*
X52402Y14883D01*
X51768Y15709D01*
X51427Y15971D01*
X51597Y16471D01*
X56301D01*
X56471Y15971D01*
X56130Y15709D01*
X55496Y14883D01*
X55098Y13922D01*
X54962Y12890D01*
X55098Y11858D01*
X55496Y10896D01*
X56130Y10071D01*
X56955Y9437D01*
X57917Y9039D01*
X58949Y8903D01*
X59981Y9039D01*
X60942Y9437D01*
X61768Y10071D01*
X62401Y10896D01*
X62800Y11858D01*
X62936Y12890D01*
X62800Y13922D01*
X62401Y14883D01*
X61768Y15709D01*
X61427Y15971D01*
X61597Y16471D01*
X66301D01*
X66471Y15971D01*
X66130Y15709D01*
X65496Y14883D01*
X65098Y13922D01*
X64962Y12890D01*
X65098Y11858D01*
X65496Y10896D01*
X66130Y10071D01*
X66955Y9437D01*
X67917Y9039D01*
X68949Y8903D01*
X69981Y9039D01*
X70942Y9437D01*
X71768Y10071D01*
X72401Y10896D01*
X72800Y11858D01*
X72936Y12890D01*
X72800Y13922D01*
X72401Y14883D01*
X71768Y15709D01*
X71427Y15971D01*
X71597Y16471D01*
X76301D01*
X76471Y15971D01*
X76130Y15709D01*
X75496Y14883D01*
X75098Y13922D01*
X74962Y12890D01*
X75098Y11858D01*
X75496Y10896D01*
X76130Y10071D01*
X76955Y9437D01*
X77917Y9039D01*
X78949Y8903D01*
X79981Y9039D01*
X80942Y9437D01*
X81768Y10071D01*
X82402Y10896D01*
X82800Y11858D01*
X82936Y12890D01*
X82800Y13922D01*
X82402Y14883D01*
X81768Y15709D01*
X81427Y15971D01*
X81597Y16471D01*
X86301D01*
X86471Y15971D01*
X86130Y15709D01*
X85496Y14883D01*
X85098Y13922D01*
X84962Y12890D01*
X85098Y11858D01*
X85496Y10896D01*
X86130Y10071D01*
X86955Y9437D01*
X87917Y9039D01*
X88949Y8903D01*
X89981Y9039D01*
X90942Y9437D01*
X91768Y10071D01*
X92401Y10896D01*
X92800Y11858D01*
X92936Y12890D01*
X92800Y13922D01*
X92401Y14883D01*
X91768Y15709D01*
X91427Y15971D01*
X91597Y16471D01*
X94914D01*
X95499Y16587D01*
X95996Y16919D01*
X96581Y17504D01*
X96913Y18000D01*
X97029Y18586D01*
Y18808D01*
X97453Y19231D01*
X97917Y19039D01*
X98949Y18903D01*
X99981Y19039D01*
X100942Y19437D01*
X101768Y20071D01*
X102401Y20896D01*
X102800Y21858D01*
X102936Y22890D01*
X102800Y23922D01*
X102401Y24883D01*
X101768Y25709D01*
X100942Y26342D01*
X99981Y26741D01*
X98949Y26877D01*
X97917Y26741D01*
X96955Y26342D01*
X96130Y25709D01*
X95496Y24883D01*
X95098Y23922D01*
X94962Y22890D01*
X95098Y21858D01*
X95290Y21394D01*
X94419Y20522D01*
X94087Y20026D01*
X93988Y19529D01*
X91840D01*
X91680Y20003D01*
X91768Y20071D01*
X92401Y20896D01*
X92800Y21858D01*
X92936Y22890D01*
X92800Y23922D01*
X92523Y24590D01*
X98365Y30431D01*
X129746D01*
X129911Y30184D01*
X130633Y29702D01*
X131484Y29533D01*
X132335Y29702D01*
X133056Y30184D01*
X133538Y30906D01*
X133707Y31756D01*
X133538Y32607D01*
X133056Y33329D01*
X132650Y33601D01*
X132801Y34100D01*
X140157D01*
X140743Y34217D01*
X141239Y34549D01*
X144290Y37600D01*
X144622Y38096D01*
X144738Y38681D01*
Y65349D01*
X144622Y65934D01*
X144290Y66430D01*
X137159Y73561D01*
Y75647D01*
X137659Y75798D01*
X137832Y75540D01*
X138553Y75058D01*
X139404Y74889D01*
X140255Y75058D01*
X140977Y75540D01*
X141459Y76262D01*
X141628Y77113D01*
X141459Y77964D01*
X140977Y78685D01*
X140255Y79167D01*
X139404Y79337D01*
X138553Y79167D01*
X137832Y78685D01*
X137659Y78427D01*
X137159Y78579D01*
Y99463D01*
X140606Y102910D01*
X140656Y102899D01*
X141507Y103069D01*
X142229Y103551D01*
X142711Y104272D01*
X142880Y105123D01*
X142711Y105974D01*
X142229Y106696D01*
X141507Y107178D01*
X140656Y107347D01*
D02*
G37*
G36*
X63563Y103606D02*
X62712Y103437D01*
X61990Y102954D01*
X61509Y102233D01*
X61339Y101382D01*
X61509Y100531D01*
X61990Y99809D01*
X62712Y99327D01*
X63563Y99158D01*
X64414Y99327D01*
X65136Y99809D01*
X65618Y100531D01*
X65787Y101382D01*
X65618Y102233D01*
X65136Y102954D01*
X64414Y103437D01*
X63563Y103606D01*
D02*
G37*
G36*
X130217Y82047D02*
X129366Y81877D01*
X128644Y81395D01*
X128162Y80674D01*
X127993Y79823D01*
X128162Y78972D01*
X128644Y78250D01*
X129366Y77768D01*
X130217Y77599D01*
X131068Y77768D01*
X131789Y78250D01*
X132271Y78972D01*
X132440Y79823D01*
X132271Y80674D01*
X131789Y81395D01*
X131068Y81877D01*
X130217Y82047D01*
D02*
G37*
G36*
X147000Y78724D02*
X146149Y78554D01*
X145428Y78073D01*
X144946Y77351D01*
X144776Y76500D01*
X144946Y75649D01*
X145428Y74928D01*
X146149Y74445D01*
X147000Y74276D01*
X147851Y74445D01*
X148573Y74928D01*
X149055Y75649D01*
X149224Y76500D01*
X149055Y77351D01*
X148573Y78073D01*
X147851Y78554D01*
X147000Y78724D01*
D02*
G37*
G36*
X158500Y73724D02*
X157649Y73554D01*
X156928Y73072D01*
X156446Y72351D01*
X156276Y71500D01*
X156446Y70649D01*
X156928Y69928D01*
X157649Y69446D01*
X158500Y69276D01*
X159351Y69446D01*
X160073Y69928D01*
X160555Y70649D01*
X160724Y71500D01*
X160555Y72351D01*
X160073Y73072D01*
X159351Y73554D01*
X158500Y73724D01*
D02*
G37*
G36*
X19776Y68224D02*
X18925Y68054D01*
X18203Y67572D01*
X17721Y66851D01*
X17552Y66000D01*
X17721Y65149D01*
X18203Y64428D01*
X18925Y63946D01*
X19776Y63776D01*
X20627Y63946D01*
X21348Y64428D01*
X21831Y65149D01*
X22000Y66000D01*
X21831Y66851D01*
X21348Y67572D01*
X20627Y68054D01*
X19776Y68224D01*
D02*
G37*
G36*
X107283Y67972D02*
X106432Y67803D01*
X105711Y67321D01*
X105229Y66599D01*
X105060Y65748D01*
X105229Y64897D01*
X105711Y64175D01*
X106432Y63693D01*
X107283Y63524D01*
X108134Y63693D01*
X108856Y64175D01*
X109338Y64897D01*
X109507Y65748D01*
X109338Y66599D01*
X108856Y67321D01*
X108134Y67803D01*
X107283Y67972D01*
D02*
G37*
G36*
X79331Y75748D02*
X78480Y75578D01*
X77758Y75096D01*
X77276Y74375D01*
X77107Y73524D01*
X77276Y72673D01*
X77758Y71951D01*
X78480Y71469D01*
X79331Y71300D01*
X80182Y71469D01*
X80903Y71951D01*
X81060Y72186D01*
X111257D01*
X117615Y65829D01*
X117560Y65551D01*
X117729Y64700D01*
X118211Y63979D01*
X118932Y63497D01*
X119783Y63327D01*
X120634Y63497D01*
X121356Y63979D01*
X121838Y64700D01*
X122007Y65551D01*
X121838Y66402D01*
X121356Y67124D01*
X120634Y67606D01*
X119783Y67775D01*
X119506Y67720D01*
X112757Y74469D01*
X112323Y74759D01*
X111811Y74861D01*
X81060D01*
X80903Y75096D01*
X80182Y75578D01*
X79331Y75748D01*
D02*
G37*
G36*
X10531Y49566D02*
X9680Y49397D01*
X8959Y48915D01*
X8477Y48193D01*
X8308Y47343D01*
X8477Y46492D01*
X8959Y45770D01*
X9680Y45288D01*
X10531Y45119D01*
X11383Y45288D01*
X12104Y45770D01*
X12586Y46492D01*
X12755Y47343D01*
X12586Y48193D01*
X12104Y48915D01*
X11383Y49397D01*
X10531Y49566D01*
D02*
G37*
G36*
X140453Y33326D02*
X139602Y33157D01*
X138880Y32675D01*
X138398Y31953D01*
X138229Y31102D01*
X138398Y30251D01*
X138880Y29530D01*
X139602Y29048D01*
X140453Y28879D01*
X141304Y29048D01*
X142025Y29530D01*
X142507Y30251D01*
X142677Y31102D01*
X142507Y31953D01*
X142025Y32675D01*
X141304Y33157D01*
X140453Y33326D01*
D02*
G37*
G36*
X152902Y26842D02*
X144996D01*
Y18937D01*
X152902D01*
Y26842D01*
D02*
G37*
G36*
X138949Y26877D02*
X137917Y26741D01*
X136955Y26342D01*
X136130Y25709D01*
X135496Y24883D01*
X135098Y23922D01*
X134962Y22890D01*
X135098Y21858D01*
X135496Y20896D01*
X136130Y20071D01*
X136955Y19437D01*
X137917Y19039D01*
X138949Y18903D01*
X139981Y19039D01*
X140942Y19437D01*
X141768Y20071D01*
X142402Y20896D01*
X142800Y21858D01*
X142936Y22890D01*
X142800Y23922D01*
X142402Y24883D01*
X141768Y25709D01*
X140942Y26342D01*
X139981Y26741D01*
X138949Y26877D01*
D02*
G37*
G36*
X128949D02*
X127917Y26741D01*
X126955Y26342D01*
X126130Y25709D01*
X125496Y24883D01*
X125098Y23922D01*
X124962Y22890D01*
X125098Y21858D01*
X125496Y20896D01*
X126130Y20071D01*
X126955Y19437D01*
X127917Y19039D01*
X128949Y18903D01*
X129981Y19039D01*
X130942Y19437D01*
X131768Y20071D01*
X132402Y20896D01*
X132800Y21858D01*
X132936Y22890D01*
X132800Y23922D01*
X132402Y24883D01*
X131768Y25709D01*
X130942Y26342D01*
X129981Y26741D01*
X128949Y26877D01*
D02*
G37*
G36*
X118949D02*
X117917Y26741D01*
X116955Y26342D01*
X116130Y25709D01*
X115496Y24883D01*
X115098Y23922D01*
X114962Y22890D01*
X115098Y21858D01*
X115496Y20896D01*
X116130Y20071D01*
X116955Y19437D01*
X117917Y19039D01*
X118949Y18903D01*
X119981Y19039D01*
X120942Y19437D01*
X121768Y20071D01*
X122401Y20896D01*
X122800Y21858D01*
X122936Y22890D01*
X122800Y23922D01*
X122401Y24883D01*
X121768Y25709D01*
X120942Y26342D01*
X119981Y26741D01*
X118949Y26877D01*
D02*
G37*
G36*
X108949D02*
X107917Y26741D01*
X106955Y26342D01*
X106130Y25709D01*
X105496Y24883D01*
X105098Y23922D01*
X104962Y22890D01*
X105098Y21858D01*
X105496Y20896D01*
X106130Y20071D01*
X106955Y19437D01*
X107917Y19039D01*
X108949Y18903D01*
X109981Y19039D01*
X110942Y19437D01*
X111768Y20071D01*
X112401Y20896D01*
X112800Y21858D01*
X112936Y22890D01*
X112800Y23922D01*
X112401Y24883D01*
X111768Y25709D01*
X110942Y26342D01*
X109981Y26741D01*
X108949Y26877D01*
D02*
G37*
G36*
X28949D02*
X27917Y26741D01*
X26955Y26342D01*
X26130Y25709D01*
X25496Y24883D01*
X25098Y23922D01*
X24962Y22890D01*
X25098Y21858D01*
X25496Y20896D01*
X26130Y20071D01*
X26955Y19437D01*
X27917Y19039D01*
X28949Y18903D01*
X29981Y19039D01*
X30942Y19437D01*
X31768Y20071D01*
X32401Y20896D01*
X32800Y21858D01*
X32936Y22890D01*
X32800Y23922D01*
X32401Y24883D01*
X31768Y25709D01*
X30942Y26342D01*
X29981Y26741D01*
X28949Y26877D01*
D02*
G37*
G36*
X18949D02*
X17917Y26741D01*
X16955Y26342D01*
X16130Y25709D01*
X15496Y24883D01*
X15098Y23922D01*
X14962Y22890D01*
X15098Y21858D01*
X15496Y20896D01*
X16130Y20071D01*
X16955Y19437D01*
X17917Y19039D01*
X18949Y18903D01*
X19981Y19039D01*
X20942Y19437D01*
X21768Y20071D01*
X22401Y20896D01*
X22800Y21858D01*
X22936Y22890D01*
X22800Y23922D01*
X22401Y24883D01*
X21768Y25709D01*
X20942Y26342D01*
X19981Y26741D01*
X18949Y26877D01*
D02*
G37*
G36*
X8949D02*
X7917Y26741D01*
X6955Y26342D01*
X6130Y25709D01*
X5496Y24883D01*
X5098Y23922D01*
X4962Y22890D01*
X5098Y21858D01*
X5496Y20896D01*
X6130Y20071D01*
X6955Y19437D01*
X7917Y19039D01*
X8949Y18903D01*
X9981Y19039D01*
X10942Y19437D01*
X11768Y20071D01*
X12402Y20896D01*
X12800Y21858D01*
X12936Y22890D01*
X12800Y23922D01*
X12402Y24883D01*
X11768Y25709D01*
X10942Y26342D01*
X9981Y26741D01*
X8949Y26877D01*
D02*
G37*
G36*
X148949Y16877D02*
X147917Y16741D01*
X146955Y16342D01*
X146130Y15709D01*
X145496Y14883D01*
X145098Y13922D01*
X144962Y12890D01*
X145098Y11858D01*
X145496Y10896D01*
X146130Y10071D01*
X146955Y9437D01*
X147917Y9039D01*
X148949Y8903D01*
X149981Y9039D01*
X150942Y9437D01*
X151768Y10071D01*
X152401Y10896D01*
X152800Y11858D01*
X152936Y12890D01*
X152800Y13922D01*
X152401Y14883D01*
X151768Y15709D01*
X150942Y16342D01*
X149981Y16741D01*
X148949Y16877D01*
D02*
G37*
G36*
X138949D02*
X137917Y16741D01*
X136955Y16342D01*
X136130Y15709D01*
X135496Y14883D01*
X135098Y13922D01*
X134962Y12890D01*
X135098Y11858D01*
X135496Y10896D01*
X136130Y10071D01*
X136955Y9437D01*
X137917Y9039D01*
X138949Y8903D01*
X139981Y9039D01*
X140942Y9437D01*
X141768Y10071D01*
X142402Y10896D01*
X142800Y11858D01*
X142936Y12890D01*
X142800Y13922D01*
X142402Y14883D01*
X141768Y15709D01*
X140942Y16342D01*
X139981Y16741D01*
X138949Y16877D01*
D02*
G37*
G36*
X128949D02*
X127917Y16741D01*
X126955Y16342D01*
X126130Y15709D01*
X125496Y14883D01*
X125098Y13922D01*
X124962Y12890D01*
X125098Y11858D01*
X125496Y10896D01*
X126130Y10071D01*
X126955Y9437D01*
X127917Y9039D01*
X128949Y8903D01*
X129981Y9039D01*
X130942Y9437D01*
X131768Y10071D01*
X132402Y10896D01*
X132800Y11858D01*
X132936Y12890D01*
X132800Y13922D01*
X132402Y14883D01*
X131768Y15709D01*
X130942Y16342D01*
X129981Y16741D01*
X128949Y16877D01*
D02*
G37*
G36*
X118949D02*
X117917Y16741D01*
X116955Y16342D01*
X116130Y15709D01*
X115496Y14883D01*
X115098Y13922D01*
X114962Y12890D01*
X115098Y11858D01*
X115496Y10896D01*
X116130Y10071D01*
X116955Y9437D01*
X117917Y9039D01*
X118949Y8903D01*
X119981Y9039D01*
X120942Y9437D01*
X121768Y10071D01*
X122401Y10896D01*
X122800Y11858D01*
X122936Y12890D01*
X122800Y13922D01*
X122401Y14883D01*
X121768Y15709D01*
X120942Y16342D01*
X119981Y16741D01*
X118949Y16877D01*
D02*
G37*
G36*
X108949D02*
X107917Y16741D01*
X106955Y16342D01*
X106130Y15709D01*
X105496Y14883D01*
X105098Y13922D01*
X104962Y12890D01*
X105098Y11858D01*
X105496Y10896D01*
X106130Y10071D01*
X106955Y9437D01*
X107917Y9039D01*
X108949Y8903D01*
X109981Y9039D01*
X110942Y9437D01*
X111768Y10071D01*
X112401Y10896D01*
X112800Y11858D01*
X112936Y12890D01*
X112800Y13922D01*
X112401Y14883D01*
X111768Y15709D01*
X110942Y16342D01*
X109981Y16741D01*
X108949Y16877D01*
D02*
G37*
G36*
X98949D02*
X97917Y16741D01*
X96955Y16342D01*
X96130Y15709D01*
X95496Y14883D01*
X95098Y13922D01*
X94962Y12890D01*
X95098Y11858D01*
X95496Y10896D01*
X96130Y10071D01*
X96955Y9437D01*
X97917Y9039D01*
X98949Y8903D01*
X99981Y9039D01*
X100942Y9437D01*
X101768Y10071D01*
X102401Y10896D01*
X102800Y11858D01*
X102936Y12890D01*
X102800Y13922D01*
X102401Y14883D01*
X101768Y15709D01*
X100942Y16342D01*
X99981Y16741D01*
X98949Y16877D01*
D02*
G37*
G36*
X38949D02*
X37917Y16741D01*
X36955Y16342D01*
X36130Y15709D01*
X35496Y14883D01*
X35098Y13922D01*
X34962Y12890D01*
X35098Y11858D01*
X35496Y10896D01*
X36130Y10071D01*
X36955Y9437D01*
X37917Y9039D01*
X38949Y8903D01*
X39981Y9039D01*
X40942Y9437D01*
X41768Y10071D01*
X42401Y10896D01*
X42800Y11858D01*
X42936Y12890D01*
X42800Y13922D01*
X42401Y14883D01*
X41768Y15709D01*
X40942Y16342D01*
X39981Y16741D01*
X38949Y16877D01*
D02*
G37*
G36*
X28949D02*
X27917Y16741D01*
X26955Y16342D01*
X26130Y15709D01*
X25496Y14883D01*
X25098Y13922D01*
X24962Y12890D01*
X25098Y11858D01*
X25496Y10896D01*
X26130Y10071D01*
X26955Y9437D01*
X27917Y9039D01*
X28949Y8903D01*
X29981Y9039D01*
X30942Y9437D01*
X31768Y10071D01*
X32401Y10896D01*
X32800Y11858D01*
X32936Y12890D01*
X32800Y13922D01*
X32401Y14883D01*
X31768Y15709D01*
X30942Y16342D01*
X29981Y16741D01*
X28949Y16877D01*
D02*
G37*
G36*
X18949D02*
X17917Y16741D01*
X16955Y16342D01*
X16130Y15709D01*
X15496Y14883D01*
X15098Y13922D01*
X14962Y12890D01*
X15098Y11858D01*
X15496Y10896D01*
X16130Y10071D01*
X16955Y9437D01*
X17917Y9039D01*
X18949Y8903D01*
X19981Y9039D01*
X20942Y9437D01*
X21768Y10071D01*
X22401Y10896D01*
X22800Y11858D01*
X22936Y12890D01*
X22800Y13922D01*
X22401Y14883D01*
X21768Y15709D01*
X20942Y16342D01*
X19981Y16741D01*
X18949Y16877D01*
D02*
G37*
G36*
X8949D02*
X7917Y16741D01*
X6955Y16342D01*
X6130Y15709D01*
X5496Y14883D01*
X5098Y13922D01*
X4962Y12890D01*
X5098Y11858D01*
X5496Y10896D01*
X6130Y10071D01*
X6955Y9437D01*
X7917Y9039D01*
X8949Y8903D01*
X9981Y9039D01*
X10942Y9437D01*
X11768Y10071D01*
X12402Y10896D01*
X12800Y11858D01*
X12936Y12890D01*
X12800Y13922D01*
X12402Y14883D01*
X11768Y15709D01*
X10942Y16342D01*
X9981Y16741D01*
X8949Y16877D01*
D02*
G37*
%LPD*%
D12*
X149127Y173746D02*
X150334Y172539D01*
X157087D01*
X142742Y173746D02*
X149127D01*
X116043Y169095D02*
X138091D01*
X107358Y160409D02*
X116043Y169095D01*
X138091D02*
X142742Y173746D01*
X93799Y158169D02*
X96039Y160409D01*
X107358D01*
X88321Y158169D02*
X93799D01*
X83402Y153250D02*
X88321Y158169D01*
X79699Y153250D02*
X83402D01*
X78949Y152500D02*
X79699Y153250D01*
X120348Y111246D02*
X123721Y107874D01*
Y88878D02*
Y107874D01*
X117913Y83071D02*
X123721Y88878D01*
X86785Y111246D02*
X120348D01*
X43500Y22041D02*
Y26621D01*
X43908Y27029D02*
Y31978D01*
X43500Y26621D02*
X43908Y27029D01*
X36663Y28524D02*
X43769Y35630D01*
X140157D02*
X143209Y38681D01*
X43769Y35630D02*
X140157D01*
X135630Y100097D02*
X140656Y105123D01*
X135630Y72927D02*
Y100097D01*
Y72927D02*
X143209Y65349D01*
X116339Y101577D02*
Y101772D01*
X84531Y99425D02*
X114186D01*
X116339Y101577D01*
X117815Y94823D02*
X120747Y97756D01*
Y104942D01*
X58268Y132480D02*
X83661Y107087D01*
X118602D02*
X120747Y104942D01*
X83661Y107087D02*
X118602D01*
X55457Y128500D02*
X84531Y99425D01*
X62894Y135138D02*
X86785Y111246D01*
X55905Y132480D02*
X58268D01*
X50689Y137697D02*
X55905Y132480D01*
X40405Y137697D02*
X50689D01*
X143209Y38681D02*
Y65349D01*
X39126Y136417D02*
X40405Y137697D01*
X41500Y135000D02*
X48000Y128500D01*
X35138Y136417D02*
X39126D01*
X78025Y153424D02*
X78949Y152500D01*
X48000Y128500D02*
X55457D01*
X43500Y22041D02*
X47541Y18000D01*
X94914D01*
X95500Y18586D01*
Y19441D01*
X98949Y22890D01*
D25*
X88949D02*
X97816Y31756D01*
X131484D01*
D26*
X87335Y30725D02*
X87500Y30890D01*
X86784Y30725D02*
X87335D01*
X78949Y22890D02*
X86784Y30725D01*
D28*
X78949Y22890D02*
D03*
X88949D02*
D03*
X98949D02*
D03*
X78949Y152500D02*
D03*
X68949D02*
D03*
X58949D02*
D03*
X28949D02*
D03*
D31*
X57185Y171358D02*
D03*
X34843Y169980D02*
D03*
X12992Y169685D02*
D03*
X79724Y90453D02*
D03*
X79528Y79823D02*
D03*
X147531Y137220D02*
D03*
Y125409D02*
D03*
Y113598D02*
D03*
Y7299D02*
D03*
X135720Y30921D02*
D03*
Y19110D02*
D03*
Y7299D02*
D03*
X123909Y137220D02*
D03*
Y19110D02*
D03*
Y7299D02*
D03*
X112098Y137220D02*
D03*
Y7299D02*
D03*
X100287Y137220D02*
D03*
Y7299D02*
D03*
X88476Y160842D02*
D03*
Y137220D02*
D03*
Y7299D02*
D03*
X76665Y137220D02*
D03*
Y7299D02*
D03*
X64854Y149031D02*
D03*
Y7299D02*
D03*
X53043Y149031D02*
D03*
Y7299D02*
D03*
X41232D02*
D03*
X29421Y137220D02*
D03*
Y30921D02*
D03*
Y7299D02*
D03*
X17610Y30921D02*
D03*
Y7299D02*
D03*
X5799Y137220D02*
D03*
Y125409D02*
D03*
Y113598D02*
D03*
Y101787D02*
D03*
Y89976D02*
D03*
Y78165D02*
D03*
Y7299D02*
D03*
D32*
X157087Y172539D02*
D03*
X43908Y31978D02*
D03*
X131484Y31756D02*
D03*
X119783Y65551D02*
D03*
X116339Y101772D02*
D03*
X117815Y94823D02*
D03*
X117913Y83071D02*
D03*
X79331Y73524D02*
D03*
X62894Y135138D02*
D03*
X140656Y105123D02*
D03*
X41500Y135000D02*
D03*
X87500Y30890D02*
D03*
X36663Y28524D02*
D03*
X35138Y136417D02*
D03*
D33*
X79331Y73524D02*
X111811D01*
X119783Y65551D01*
M02*
