G04*
G04 #@! TF.GenerationSoftware,Altium Limited,Altium Designer,22.0.2 (36)*
G04*
G04 Layer_Color=65535*
%FSLAX25Y25*%
%MOIN*%
G70*
G04*
G04 #@! TF.SameCoordinates,D8B2018D-4A20-4394-8D71-C126664B729D*
G04*
G04*
G04 #@! TF.FilePolarity,Positive*
G04*
G01*
G75*
%ADD10C,0.00984*%
%ADD11C,0.00787*%
%ADD12C,0.01000*%
G36*
X77493Y170016D02*
X77511D01*
Y169979D01*
X77530D01*
Y169942D01*
X77548D01*
Y169905D01*
X77567D01*
Y169850D01*
X77585D01*
Y169813D01*
X77604D01*
Y169776D01*
X77622D01*
Y169720D01*
X77641D01*
Y169683D01*
X77659D01*
Y169646D01*
X77678D01*
Y169609D01*
X77696D01*
Y169554D01*
X77715D01*
Y169517D01*
X77733D01*
Y169480D01*
X77752D01*
Y169443D01*
X77770D01*
Y169387D01*
X77789D01*
Y169350D01*
X77807D01*
Y169313D01*
X77826D01*
Y169258D01*
X77844D01*
Y169221D01*
X77863D01*
Y169184D01*
X77881D01*
Y169147D01*
X77900D01*
Y169091D01*
X77918D01*
Y169054D01*
X77937D01*
Y169017D01*
X77955D01*
Y168962D01*
X77974D01*
Y168925D01*
X77992D01*
Y168888D01*
X78011D01*
Y168851D01*
X78029D01*
Y168795D01*
X78048D01*
Y168758D01*
X78066D01*
Y168721D01*
X78085D01*
Y168684D01*
X78103D01*
Y168629D01*
X78122D01*
Y168610D01*
X78159D01*
Y168592D01*
X78177D01*
Y168573D01*
X78214D01*
Y168555D01*
X78251D01*
Y168536D01*
X78270D01*
Y168518D01*
X78307D01*
Y168499D01*
X78325D01*
Y168481D01*
X78344D01*
Y168462D01*
X78381D01*
Y168444D01*
X78399D01*
Y168425D01*
X78436D01*
Y168444D01*
X78455D01*
Y168462D01*
X78473D01*
Y168481D01*
X78492D01*
Y168499D01*
X78510D01*
Y168518D01*
X78529D01*
Y168536D01*
X78547D01*
Y168555D01*
X78584D01*
Y168573D01*
X78603D01*
Y168592D01*
X78621D01*
Y168610D01*
X78640D01*
Y168629D01*
X78677D01*
Y168647D01*
X78695D01*
Y168666D01*
X78714D01*
Y168684D01*
X78732D01*
Y168703D01*
X78769D01*
Y168721D01*
X78788D01*
Y168740D01*
X78806D01*
Y168758D01*
X78843D01*
Y168777D01*
X78862D01*
Y168795D01*
X78880D01*
Y168814D01*
X78917D01*
Y168832D01*
X78936D01*
Y168851D01*
X78973D01*
Y168869D01*
X78991D01*
Y168888D01*
X79028D01*
Y168906D01*
X79047D01*
Y168925D01*
X79084D01*
Y168943D01*
X79121D01*
Y168962D01*
X79139D01*
Y168980D01*
X79176D01*
Y168999D01*
X79195D01*
Y169017D01*
X79232D01*
Y169036D01*
X79269D01*
Y169054D01*
X79306D01*
Y169073D01*
X79324D01*
Y169091D01*
X79361D01*
Y169110D01*
X79398D01*
Y169128D01*
X79435D01*
Y169147D01*
X79472D01*
Y169165D01*
X79509D01*
Y169184D01*
X79546D01*
Y169202D01*
X79583D01*
Y169221D01*
X79620D01*
Y169239D01*
X79657D01*
Y169258D01*
X79694D01*
Y169276D01*
X79750D01*
Y169295D01*
X79787D01*
Y169313D01*
X79824D01*
Y169332D01*
X79879D01*
Y169350D01*
X79916D01*
Y169369D01*
X79972D01*
Y169387D01*
X80027D01*
Y169406D01*
X80064D01*
Y169424D01*
X80120D01*
Y169443D01*
X80175D01*
Y169461D01*
X80249D01*
Y169480D01*
X80305D01*
Y169498D01*
X80360D01*
Y169517D01*
X80434D01*
Y169535D01*
X80508D01*
Y169554D01*
X80582D01*
Y169572D01*
X80675D01*
Y169591D01*
X80767D01*
Y169609D01*
X80878D01*
Y169628D01*
X81008D01*
Y169646D01*
X81156D01*
Y169665D01*
X81396D01*
Y169683D01*
X81896D01*
Y169665D01*
X82136D01*
Y169646D01*
X82284D01*
Y169628D01*
X82414D01*
Y169609D01*
X82525D01*
Y169591D01*
X82617D01*
Y169572D01*
X82710D01*
Y169554D01*
X82784D01*
Y169535D01*
X82858D01*
Y169517D01*
X82932D01*
Y169498D01*
X82987D01*
Y169480D01*
X83043D01*
Y169461D01*
X83098D01*
Y169443D01*
X83172D01*
Y169424D01*
X83228D01*
Y169406D01*
X83265D01*
Y169387D01*
X83320D01*
Y169369D01*
X83376D01*
Y169350D01*
X83413D01*
Y169332D01*
X83468D01*
Y169313D01*
X83505D01*
Y169295D01*
X83561D01*
Y169276D01*
X83598D01*
Y169258D01*
X83635D01*
Y169239D01*
X83672D01*
Y169221D01*
X83709D01*
Y169202D01*
X83746D01*
Y169184D01*
X83783D01*
Y169165D01*
X83820D01*
Y169147D01*
X83857D01*
Y169128D01*
X83894D01*
Y169110D01*
X83931D01*
Y169091D01*
X83968D01*
Y169073D01*
X84005D01*
Y169054D01*
X84023D01*
Y169036D01*
X84060D01*
Y169017D01*
X84097D01*
Y168999D01*
X84116D01*
Y168980D01*
X84153D01*
Y168962D01*
X84190D01*
Y168943D01*
X84208D01*
Y168925D01*
X84245D01*
Y168906D01*
X84264D01*
Y168888D01*
X84301D01*
Y168869D01*
X84319D01*
Y168851D01*
X84356D01*
Y168832D01*
X84375D01*
Y168814D01*
X84412D01*
Y168795D01*
X84430D01*
Y168777D01*
X84449D01*
Y168758D01*
X84486D01*
Y168740D01*
X84504D01*
Y168721D01*
X84523D01*
Y168703D01*
X84560D01*
Y168684D01*
X84578D01*
Y168666D01*
X84597D01*
Y168647D01*
X84634D01*
Y168629D01*
X84652D01*
Y168610D01*
X84671D01*
Y168592D01*
X84689D01*
Y168573D01*
X84708D01*
Y168555D01*
X84745D01*
Y168536D01*
X84763D01*
Y168518D01*
X84782D01*
Y168499D01*
X84800D01*
Y168481D01*
X84819D01*
Y168462D01*
X84837D01*
Y168444D01*
X84856D01*
Y168425D01*
X84893D01*
Y168407D01*
X84911D01*
Y168388D01*
X84930D01*
Y168370D01*
X84948D01*
Y168351D01*
X84967D01*
Y168333D01*
X84985D01*
Y168314D01*
X85004D01*
Y168296D01*
X85022D01*
Y168277D01*
X85041D01*
Y168259D01*
X85059D01*
Y168240D01*
X85078D01*
Y168222D01*
X85096D01*
Y168203D01*
X85115D01*
Y168185D01*
X85133D01*
Y168166D01*
X85152D01*
Y168148D01*
X85170D01*
Y168111D01*
X85189D01*
Y168092D01*
X85207D01*
Y168074D01*
X85226D01*
Y168055D01*
X85244D01*
Y168037D01*
X85263D01*
Y168018D01*
X85281D01*
Y168000D01*
X85300D01*
Y167963D01*
X85318D01*
Y167944D01*
X85337D01*
Y167926D01*
X85355D01*
Y167907D01*
X85374D01*
Y167889D01*
X85392D01*
Y167852D01*
X85411D01*
Y167833D01*
X85429D01*
Y167815D01*
X85448D01*
Y167778D01*
X85466D01*
Y167759D01*
X85485D01*
Y167741D01*
X85503D01*
Y167704D01*
X85522D01*
Y167685D01*
X85540D01*
Y167667D01*
X85559D01*
Y167630D01*
X85577D01*
Y167611D01*
X85596D01*
Y167574D01*
X85614D01*
Y167556D01*
X85633D01*
Y167519D01*
X85651D01*
Y167500D01*
X85670D01*
Y167463D01*
X85688D01*
Y167445D01*
X85707D01*
Y167408D01*
X85725D01*
Y167371D01*
X85744D01*
Y167352D01*
X85762D01*
Y167315D01*
X85781D01*
Y167278D01*
X85799D01*
Y167260D01*
X85818D01*
Y167223D01*
X85836D01*
Y167186D01*
X85855D01*
Y167149D01*
X85873D01*
Y167112D01*
X85892D01*
Y167075D01*
X85910D01*
Y167038D01*
X85929D01*
Y167001D01*
X85947D01*
Y166964D01*
X85966D01*
Y166927D01*
X85984D01*
Y166890D01*
X86003D01*
Y166853D01*
X86021D01*
Y166797D01*
X86040D01*
Y166760D01*
X86058D01*
Y166723D01*
X86077D01*
Y166668D01*
X86095D01*
Y166631D01*
X86114D01*
Y166575D01*
X86132D01*
Y166520D01*
X86151D01*
Y166464D01*
X86169D01*
Y166427D01*
X86188D01*
Y166353D01*
X86206D01*
Y166298D01*
X86225D01*
Y166242D01*
X86243D01*
Y166168D01*
X86262D01*
Y166113D01*
X86280D01*
Y166039D01*
X86299D01*
Y165946D01*
X86317D01*
Y165872D01*
X86336D01*
Y165780D01*
X86354D01*
Y165669D01*
X86373D01*
Y165539D01*
X86391D01*
Y165521D01*
Y165391D01*
X86410D01*
Y165132D01*
X86428D01*
Y164670D01*
X86410D01*
Y164411D01*
X86391D01*
Y164263D01*
X86373D01*
Y164133D01*
X86354D01*
Y164022D01*
X86336D01*
Y163930D01*
X86317D01*
Y163837D01*
X86299D01*
Y163763D01*
X86280D01*
Y163708D01*
X86262D01*
Y163634D01*
X86243D01*
Y163560D01*
X86225D01*
Y163504D01*
X86206D01*
Y163430D01*
X86188D01*
Y163375D01*
X86169D01*
Y163319D01*
X86151D01*
Y163282D01*
X86132D01*
Y163227D01*
X86114D01*
Y163171D01*
X86095D01*
Y163134D01*
X86077D01*
Y163079D01*
X86058D01*
Y163042D01*
X86040D01*
Y162986D01*
X86021D01*
Y162949D01*
X86003D01*
Y162912D01*
X85984D01*
Y162875D01*
X85966D01*
Y162838D01*
X85947D01*
Y162801D01*
X85929D01*
Y162764D01*
X85910D01*
Y162727D01*
X85892D01*
Y162690D01*
X85873D01*
Y162653D01*
X85855D01*
Y162616D01*
X85836D01*
Y162579D01*
X85818D01*
Y162561D01*
X85799D01*
Y162524D01*
X85781D01*
Y162487D01*
X85762D01*
Y162450D01*
X85744D01*
Y162431D01*
X85725D01*
Y162394D01*
X85707D01*
Y162376D01*
X85688D01*
Y162339D01*
X85670D01*
Y162302D01*
X85651D01*
Y162283D01*
X85633D01*
Y162265D01*
X85614D01*
Y162228D01*
X85596D01*
Y162209D01*
X85577D01*
Y162172D01*
X85559D01*
Y162154D01*
X85540D01*
Y162117D01*
X85522D01*
Y162098D01*
X85503D01*
Y162080D01*
X85485D01*
Y162043D01*
X85466D01*
Y162024D01*
X85448D01*
Y162006D01*
X85429D01*
Y161987D01*
X85411D01*
Y161950D01*
X85392D01*
Y161932D01*
X85374D01*
Y161913D01*
X85355D01*
Y161895D01*
X85337D01*
Y161858D01*
X85318D01*
Y161839D01*
X85300D01*
Y161821D01*
X85281D01*
Y161802D01*
X85263D01*
Y161784D01*
X85244D01*
Y161765D01*
X85226D01*
Y161747D01*
X85207D01*
Y161728D01*
X85189D01*
Y161710D01*
X85170D01*
Y161673D01*
X85152D01*
Y161654D01*
X85133D01*
Y161636D01*
X85115D01*
Y161617D01*
X85096D01*
Y161599D01*
X85078D01*
Y161580D01*
X85059D01*
Y161562D01*
X85041D01*
Y161543D01*
X85022D01*
Y161525D01*
X84985D01*
Y161506D01*
X84967D01*
Y161488D01*
X84948D01*
Y161469D01*
X84930D01*
Y161451D01*
X84911D01*
Y161432D01*
X84893D01*
Y161414D01*
X84874D01*
Y161395D01*
X84856D01*
Y161377D01*
X84819D01*
Y161358D01*
X84800D01*
Y161340D01*
X84782D01*
Y161321D01*
X84763D01*
Y161303D01*
X84745D01*
Y161284D01*
X84708D01*
Y161266D01*
X84689D01*
Y161247D01*
X84671D01*
Y161229D01*
X84634D01*
Y161210D01*
X84615D01*
Y161192D01*
X84597D01*
Y161173D01*
X84560D01*
Y161155D01*
X84541D01*
Y161136D01*
X84504D01*
Y161118D01*
X84486D01*
Y161099D01*
X84449D01*
Y161081D01*
X84430D01*
Y161062D01*
X84393D01*
Y161044D01*
X84375D01*
Y161025D01*
X84338D01*
Y161007D01*
X84319D01*
Y160988D01*
X84282D01*
Y160970D01*
X84245D01*
Y160951D01*
X84208D01*
Y160933D01*
X84190D01*
Y160914D01*
X84153D01*
Y160896D01*
X84116D01*
Y160877D01*
X84079D01*
Y160859D01*
X84042D01*
Y160840D01*
X84005D01*
Y160822D01*
X83968D01*
Y160803D01*
X83931D01*
Y160785D01*
X83894D01*
Y160766D01*
X83838D01*
Y160748D01*
X83801D01*
Y160729D01*
X83746D01*
Y160711D01*
X83709D01*
Y160692D01*
X83653D01*
Y160674D01*
X83598D01*
Y160655D01*
X83542D01*
Y160637D01*
X83487D01*
Y160618D01*
X83431D01*
Y160600D01*
X83376D01*
Y160581D01*
X83302D01*
Y160563D01*
X83228D01*
Y160544D01*
X83154D01*
Y160526D01*
X83061D01*
Y160507D01*
X82950D01*
Y160489D01*
X82802D01*
Y160470D01*
X82599D01*
Y160452D01*
X82136D01*
Y160470D01*
X81933D01*
Y160489D01*
X81785D01*
Y160507D01*
X81674D01*
Y160526D01*
X81581D01*
Y160544D01*
X81489D01*
Y160563D01*
X81415D01*
Y160581D01*
X81341D01*
Y160600D01*
X81267D01*
Y160618D01*
X81211D01*
Y160637D01*
X81156D01*
Y160655D01*
X81100D01*
Y160674D01*
X81063D01*
Y160692D01*
X81026D01*
Y160711D01*
X80989D01*
Y160729D01*
X80971D01*
Y160748D01*
X80934D01*
Y160766D01*
X80915D01*
Y160785D01*
X80897D01*
Y160803D01*
X80860D01*
Y160822D01*
X80841D01*
Y160840D01*
X80823D01*
Y160859D01*
X80804D01*
Y160896D01*
X80786D01*
Y160914D01*
X80767D01*
Y160933D01*
X80749D01*
Y160970D01*
X80730D01*
Y161007D01*
X80712D01*
Y161062D01*
X80693D01*
Y161173D01*
X80675D01*
Y161210D01*
X80693D01*
Y161303D01*
X80712D01*
Y161340D01*
X80730D01*
Y161377D01*
X80749D01*
Y161395D01*
X80767D01*
Y161432D01*
X80786D01*
Y161451D01*
X80804D01*
Y161469D01*
X80841D01*
Y161488D01*
X80860D01*
Y161506D01*
X80897D01*
Y161525D01*
X80915D01*
Y161543D01*
X80971D01*
Y161562D01*
X81008D01*
Y161580D01*
X81063D01*
Y161599D01*
X81156D01*
Y161617D01*
X82025D01*
Y161636D01*
X82173D01*
Y161654D01*
X82266D01*
Y161673D01*
X82358D01*
Y161691D01*
X82432D01*
Y161710D01*
X82488D01*
Y161728D01*
X82543D01*
Y161747D01*
X82599D01*
Y161765D01*
X82654D01*
Y161784D01*
X82710D01*
Y161802D01*
X82747D01*
Y161821D01*
X82802D01*
Y161839D01*
X82839D01*
Y161858D01*
X82876D01*
Y161876D01*
X82913D01*
Y161895D01*
X82950D01*
Y161913D01*
X82987D01*
Y161932D01*
X83024D01*
Y161950D01*
X83061D01*
Y161969D01*
X83080D01*
Y161987D01*
X83117D01*
Y162006D01*
X83154D01*
Y162024D01*
X83172D01*
Y162043D01*
X83209D01*
Y162061D01*
X83228D01*
Y162080D01*
X83265D01*
Y162098D01*
X83283D01*
Y162117D01*
X83302D01*
Y162135D01*
X83339D01*
Y162154D01*
X83357D01*
Y162172D01*
X83376D01*
Y162191D01*
X83413D01*
Y162209D01*
X83431D01*
Y162228D01*
X83450D01*
Y162246D01*
X83468D01*
Y162265D01*
X83487D01*
Y162283D01*
X83505D01*
Y162302D01*
X83542D01*
Y162339D01*
X83579D01*
Y162357D01*
X83598D01*
Y162376D01*
X83616D01*
Y162394D01*
X83635D01*
Y162413D01*
X83653D01*
Y162431D01*
X83672D01*
Y162468D01*
X83690D01*
Y162487D01*
X83709D01*
Y162505D01*
X83727D01*
Y162524D01*
X83746D01*
Y162542D01*
X83764D01*
Y162561D01*
X83783D01*
Y162579D01*
X83801D01*
Y162616D01*
X83820D01*
Y162635D01*
X83838D01*
Y162653D01*
X83857D01*
Y162672D01*
X83875D01*
Y162709D01*
X83894D01*
Y162727D01*
X83912D01*
Y162764D01*
X83931D01*
Y162783D01*
X83949D01*
Y162801D01*
X83968D01*
Y162838D01*
X83986D01*
Y162875D01*
X84005D01*
Y162894D01*
X84023D01*
Y162931D01*
X84042D01*
Y162968D01*
X84060D01*
Y162986D01*
X84079D01*
Y163023D01*
X84097D01*
Y163060D01*
X84116D01*
Y163097D01*
X84134D01*
Y163134D01*
X84153D01*
Y163171D01*
X84171D01*
Y163208D01*
X84190D01*
Y163264D01*
X84208D01*
Y163301D01*
X84227D01*
Y163356D01*
X84245D01*
Y163393D01*
X84264D01*
Y163449D01*
X84282D01*
Y163504D01*
X84301D01*
Y163578D01*
X84319D01*
Y163652D01*
X84338D01*
Y163726D01*
X84356D01*
Y163800D01*
X84375D01*
Y163911D01*
X84393D01*
Y164078D01*
X84412D01*
Y164411D01*
X84393D01*
Y164318D01*
X84375D01*
Y164244D01*
X84356D01*
Y164189D01*
X84338D01*
Y164133D01*
X84319D01*
Y164059D01*
X84301D01*
Y164022D01*
X84282D01*
Y163967D01*
X84264D01*
Y163930D01*
X84245D01*
Y163874D01*
X84227D01*
Y163837D01*
X84208D01*
Y163800D01*
X84190D01*
Y163763D01*
X84171D01*
Y163726D01*
X84153D01*
Y163689D01*
X84134D01*
Y163652D01*
X84116D01*
Y163615D01*
X84097D01*
Y163578D01*
X84079D01*
Y163560D01*
X84060D01*
Y163523D01*
X84042D01*
Y163486D01*
X84023D01*
Y163467D01*
X84005D01*
Y163430D01*
X83986D01*
Y163412D01*
X83968D01*
Y163375D01*
X83949D01*
Y163356D01*
X83931D01*
Y163338D01*
X83912D01*
Y163301D01*
X83894D01*
Y163282D01*
X83875D01*
Y163264D01*
X83857D01*
Y163227D01*
X83838D01*
Y163208D01*
X83820D01*
Y163190D01*
X83801D01*
Y163171D01*
X83783D01*
Y163153D01*
X83764D01*
Y163134D01*
X83746D01*
Y163097D01*
X83727D01*
Y163079D01*
X83709D01*
Y163060D01*
X83690D01*
Y163042D01*
X83672D01*
Y163023D01*
X83653D01*
Y163005D01*
X83635D01*
Y162986D01*
X83616D01*
Y162968D01*
X83598D01*
Y162949D01*
X83579D01*
Y162931D01*
X83561D01*
Y162912D01*
X83524D01*
Y162894D01*
X83505D01*
Y162875D01*
X83487D01*
Y162857D01*
X83468D01*
Y162838D01*
X83450D01*
Y162820D01*
X83431D01*
Y162801D01*
X83394D01*
Y162783D01*
X83376D01*
Y162764D01*
X83357D01*
Y162746D01*
X83320D01*
Y162727D01*
X83302D01*
Y162709D01*
X83265D01*
Y162690D01*
X83246D01*
Y162672D01*
X83228D01*
Y162653D01*
X83191D01*
Y162635D01*
X83154D01*
Y162616D01*
X83135D01*
Y162598D01*
X83098D01*
Y162579D01*
X83061D01*
Y162561D01*
X83043D01*
Y162542D01*
X83006D01*
Y162524D01*
X82969D01*
Y162505D01*
X82932D01*
Y162487D01*
X78936D01*
Y162598D01*
X78954D01*
Y162672D01*
X78973D01*
Y162727D01*
X78991D01*
Y162783D01*
X79010D01*
Y162820D01*
X79028D01*
Y162857D01*
X79047D01*
Y162894D01*
X79065D01*
Y162931D01*
X79084D01*
Y162968D01*
X79102D01*
Y163005D01*
X79121D01*
Y163023D01*
X79139D01*
Y163060D01*
X79158D01*
Y163079D01*
X79176D01*
Y163116D01*
X79195D01*
Y163134D01*
X79213D01*
Y163153D01*
X79232D01*
Y163171D01*
X79250D01*
Y163190D01*
X79269D01*
Y163208D01*
X79287D01*
Y163245D01*
X79306D01*
Y163264D01*
X79343D01*
Y163282D01*
X79361D01*
Y163301D01*
X79380D01*
Y163319D01*
X79398D01*
Y163338D01*
X79417D01*
Y163356D01*
X79435D01*
Y163375D01*
X79472D01*
Y163393D01*
X79491D01*
Y163412D01*
X79528D01*
Y163430D01*
X79546D01*
Y163449D01*
X79583D01*
Y163467D01*
X79620D01*
Y163486D01*
X79657D01*
Y163504D01*
X79676D01*
Y163523D01*
X79731D01*
Y163541D01*
X79768D01*
Y163560D01*
X79824D01*
Y163578D01*
X79879D01*
Y163597D01*
X79953D01*
Y163615D01*
X80046D01*
Y163634D01*
X80194D01*
Y163652D01*
X80175D01*
Y163671D01*
X80157D01*
Y163708D01*
X80138D01*
Y163726D01*
X80120D01*
Y163745D01*
X80101D01*
Y163763D01*
X80083D01*
Y163782D01*
X80064D01*
Y163819D01*
X80046D01*
Y163837D01*
X80027D01*
Y163856D01*
X80009D01*
Y163893D01*
X79990D01*
Y163911D01*
X79972D01*
Y163930D01*
X79953D01*
Y163967D01*
X79935D01*
Y163985D01*
X79916D01*
Y164022D01*
X79898D01*
Y164059D01*
X79879D01*
Y164078D01*
X79861D01*
Y164115D01*
X79842D01*
Y164152D01*
X79824D01*
Y164189D01*
X79805D01*
Y164226D01*
X79787D01*
Y164263D01*
X79768D01*
Y164300D01*
X79750D01*
Y164337D01*
X79731D01*
Y164374D01*
X79713D01*
Y164429D01*
X79694D01*
Y164466D01*
X79676D01*
Y164522D01*
X79657D01*
Y164577D01*
X79639D01*
Y164633D01*
X79620D01*
Y164707D01*
X79602D01*
Y164781D01*
X79583D01*
Y164873D01*
X79565D01*
Y164966D01*
X79546D01*
Y165132D01*
X79528D01*
Y165576D01*
X79546D01*
Y165724D01*
X79565D01*
Y165835D01*
X79583D01*
Y165928D01*
X79602D01*
Y165983D01*
X79620D01*
Y166057D01*
X79639D01*
Y166113D01*
X79657D01*
Y166168D01*
X79676D01*
Y166224D01*
X79694D01*
Y166279D01*
X79713D01*
Y166316D01*
X79731D01*
Y166353D01*
X79750D01*
Y166409D01*
X79768D01*
Y166446D01*
X79787D01*
Y166483D01*
X79805D01*
Y166520D01*
X79824D01*
Y166538D01*
X79842D01*
Y166575D01*
X79861D01*
Y166612D01*
X79879D01*
Y166649D01*
X79898D01*
Y166668D01*
X79916D01*
Y166705D01*
X79935D01*
Y166723D01*
X79953D01*
Y166760D01*
X79972D01*
Y166779D01*
X79990D01*
Y166816D01*
X80009D01*
Y166834D01*
X80027D01*
Y166853D01*
X80046D01*
Y166890D01*
X80064D01*
Y166908D01*
X80083D01*
Y166927D01*
X80101D01*
Y166945D01*
X80120D01*
Y166982D01*
X80138D01*
Y167001D01*
X80157D01*
Y167019D01*
X80175D01*
Y167038D01*
X80194D01*
Y167056D01*
X80212D01*
Y167075D01*
X80231D01*
Y167093D01*
X80249D01*
Y167112D01*
X80268D01*
Y167130D01*
X80286D01*
Y167149D01*
X80305D01*
Y167167D01*
X80323D01*
Y167186D01*
X80342D01*
Y167204D01*
X80360D01*
Y167223D01*
X80379D01*
Y167241D01*
X80397D01*
Y167260D01*
X80434D01*
Y167278D01*
X80453D01*
Y167297D01*
X80471D01*
Y167315D01*
X80490D01*
Y167334D01*
X80527D01*
Y167352D01*
X80545D01*
Y167371D01*
X80564D01*
Y167389D01*
X80601D01*
Y167408D01*
X80619D01*
Y167426D01*
X80656D01*
Y167445D01*
X80675D01*
Y167463D01*
X80712D01*
Y167482D01*
X80749D01*
Y167500D01*
X80786D01*
Y167519D01*
X80823D01*
Y167537D01*
X80841D01*
Y167556D01*
X80804D01*
Y167537D01*
X80767D01*
Y167519D01*
X80712D01*
Y167500D01*
X80675D01*
Y167482D01*
X80638D01*
Y167463D01*
X80582D01*
Y167445D01*
X80545D01*
Y167426D01*
X80508D01*
Y167408D01*
X80471D01*
Y167389D01*
X80434D01*
Y167371D01*
X80416D01*
Y167352D01*
X80379D01*
Y167334D01*
X80342D01*
Y167315D01*
X80305D01*
Y167297D01*
X80286D01*
Y167278D01*
X80249D01*
Y167260D01*
X80231D01*
Y167241D01*
X80194D01*
Y167223D01*
X80175D01*
Y167204D01*
X80157D01*
Y167186D01*
X80120D01*
Y167167D01*
X80101D01*
Y167149D01*
X80083D01*
Y167130D01*
X80046D01*
Y167112D01*
X80027D01*
Y167093D01*
X80009D01*
Y167075D01*
X79990D01*
Y167056D01*
X79972D01*
Y167038D01*
X79953D01*
Y167019D01*
X79935D01*
Y167001D01*
X79916D01*
Y166982D01*
X79898D01*
Y166964D01*
X79861D01*
Y166945D01*
X79842D01*
Y166908D01*
X79824D01*
Y166890D01*
X79805D01*
Y166871D01*
X79787D01*
Y166853D01*
X79768D01*
Y166834D01*
X79750D01*
Y166816D01*
X79731D01*
Y166797D01*
X79713D01*
Y166779D01*
X79694D01*
Y166742D01*
X79676D01*
Y166723D01*
X79657D01*
Y166705D01*
X79639D01*
Y166668D01*
X79620D01*
Y166649D01*
X79602D01*
Y166631D01*
X79583D01*
Y166594D01*
X79565D01*
Y166575D01*
X79546D01*
Y166538D01*
X79528D01*
Y166520D01*
X79509D01*
Y166483D01*
X79491D01*
Y166446D01*
X79472D01*
Y166427D01*
X79454D01*
Y166390D01*
X79435D01*
Y166353D01*
X79417D01*
Y166316D01*
X79398D01*
Y166279D01*
X79380D01*
Y166242D01*
X79361D01*
Y166205D01*
X79343D01*
Y166150D01*
X79324D01*
Y166113D01*
X79306D01*
Y166057D01*
X79287D01*
Y166020D01*
X79269D01*
Y165965D01*
X79250D01*
Y165909D01*
X79232D01*
Y165835D01*
X79213D01*
Y165761D01*
X79195D01*
Y165687D01*
X79176D01*
Y165576D01*
X79158D01*
Y165428D01*
X79139D01*
Y164947D01*
X79158D01*
Y164799D01*
X79176D01*
Y164707D01*
X79195D01*
Y164614D01*
X79213D01*
Y164540D01*
X79232D01*
Y164466D01*
X79250D01*
Y164411D01*
X79269D01*
Y164355D01*
X79287D01*
Y164318D01*
X79306D01*
Y164263D01*
X79324D01*
Y164207D01*
X79343D01*
Y164170D01*
X79361D01*
Y164133D01*
X79380D01*
Y164096D01*
X79398D01*
Y164059D01*
X79417D01*
Y164022D01*
X79435D01*
Y163985D01*
X79454D01*
Y163948D01*
X79472D01*
Y163930D01*
X79491D01*
Y163893D01*
X79509D01*
Y163856D01*
X79528D01*
Y163819D01*
X79509D01*
Y163800D01*
X79472D01*
Y163782D01*
X79435D01*
Y163763D01*
X79398D01*
Y163745D01*
X79380D01*
Y163726D01*
X79343D01*
Y163708D01*
X79324D01*
Y163689D01*
X79287D01*
Y163671D01*
X79269D01*
Y163652D01*
X79232D01*
Y163634D01*
X79213D01*
Y163615D01*
X79195D01*
Y163597D01*
X79176D01*
Y163578D01*
X79158D01*
Y163560D01*
X79121D01*
Y163541D01*
X79102D01*
Y163523D01*
X79084D01*
Y163504D01*
X79065D01*
Y163486D01*
X79047D01*
Y163467D01*
X79028D01*
Y163449D01*
X79010D01*
Y163430D01*
X78991D01*
Y163393D01*
X78973D01*
Y163375D01*
X78954D01*
Y163356D01*
X78936D01*
Y163338D01*
X78917D01*
Y163319D01*
X78899D01*
Y163282D01*
X78880D01*
Y163264D01*
X78862D01*
Y163227D01*
X78843D01*
Y163208D01*
X78825D01*
Y163171D01*
X78806D01*
Y163153D01*
X78788D01*
Y163116D01*
X78769D01*
Y163079D01*
X78751D01*
Y163042D01*
X78732D01*
Y163005D01*
X78714D01*
Y162968D01*
X78695D01*
Y162912D01*
X78677D01*
Y162857D01*
X78658D01*
Y162820D01*
X78640D01*
Y162746D01*
X78621D01*
Y162672D01*
X78603D01*
Y162579D01*
X78584D01*
Y162487D01*
X76734D01*
Y162579D01*
X76753D01*
Y162653D01*
X76771D01*
Y162727D01*
X76790D01*
Y162764D01*
X76808D01*
Y162820D01*
X76827D01*
Y162857D01*
X76845D01*
Y162894D01*
X76864D01*
Y162931D01*
X76882D01*
Y162968D01*
X76901D01*
Y163005D01*
X76919D01*
Y163023D01*
X76938D01*
Y163060D01*
X76956D01*
Y163079D01*
X76975D01*
Y163097D01*
X76993D01*
Y163134D01*
X77012D01*
Y163153D01*
X77030D01*
Y163171D01*
X77049D01*
Y163190D01*
X77067D01*
Y163208D01*
X77086D01*
Y163227D01*
X77104D01*
Y163245D01*
X77123D01*
Y163264D01*
X77141D01*
Y163375D01*
X77123D01*
Y163467D01*
X77104D01*
Y163541D01*
X77086D01*
Y163615D01*
X77067D01*
Y163708D01*
X77049D01*
Y163782D01*
X77030D01*
Y163837D01*
X77012D01*
Y163911D01*
X76993D01*
Y163967D01*
X76975D01*
Y164022D01*
X76956D01*
Y164078D01*
X76938D01*
Y164115D01*
X76919D01*
Y164170D01*
X76901D01*
Y164207D01*
X76882D01*
Y164263D01*
X76864D01*
Y164300D01*
X76845D01*
Y164337D01*
X76827D01*
Y164374D01*
X76808D01*
Y164411D01*
X76790D01*
Y164448D01*
X76771D01*
Y164485D01*
X76753D01*
Y164503D01*
X76734D01*
Y164540D01*
X76716D01*
Y164577D01*
X76697D01*
Y164596D01*
X76679D01*
Y164633D01*
X76660D01*
Y164651D01*
X76642D01*
Y164688D01*
X76623D01*
Y164707D01*
X76605D01*
Y164725D01*
X76586D01*
Y164762D01*
X76568D01*
Y164781D01*
X76549D01*
Y164799D01*
X76531D01*
Y164818D01*
X76512D01*
Y164836D01*
X76494D01*
Y164855D01*
X76475D01*
Y164873D01*
X76457D01*
Y164892D01*
X76438D01*
Y164910D01*
X76420D01*
Y164929D01*
X76401D01*
Y164947D01*
X76383D01*
Y164966D01*
X76364D01*
Y164984D01*
X76346D01*
Y165003D01*
X76327D01*
Y165021D01*
X76309D01*
Y165040D01*
X76272D01*
Y165058D01*
X76253D01*
Y165077D01*
X76235D01*
Y165095D01*
X76198D01*
Y165114D01*
X76179D01*
Y165132D01*
X76161D01*
Y165151D01*
X76124D01*
Y165169D01*
X76087D01*
Y165188D01*
X76068D01*
Y165206D01*
X76031D01*
Y165225D01*
X75994D01*
Y165243D01*
X75957D01*
Y165262D01*
X75939D01*
Y165280D01*
X75883D01*
Y165299D01*
X75846D01*
Y165317D01*
X75809D01*
Y165336D01*
X75772D01*
Y165354D01*
X75717D01*
Y165373D01*
X75661D01*
Y165391D01*
X75606D01*
Y165410D01*
X75550D01*
Y165428D01*
X75495D01*
Y165447D01*
X75421D01*
Y165465D01*
X75347D01*
Y165484D01*
X75273D01*
Y165502D01*
X75217D01*
Y165521D01*
X75162D01*
Y165539D01*
X75106D01*
Y165558D01*
X75051D01*
Y165576D01*
X75014D01*
Y165595D01*
X74958D01*
Y165613D01*
X74921D01*
Y165632D01*
X74884D01*
Y165650D01*
X74847D01*
Y165669D01*
X74810D01*
Y165687D01*
X74773D01*
Y165706D01*
X74755D01*
Y165724D01*
X74718D01*
Y165743D01*
X74699D01*
Y165761D01*
X74662D01*
Y165780D01*
X74644D01*
Y165798D01*
X74607D01*
Y165817D01*
X74588D01*
Y165835D01*
X74570D01*
Y165854D01*
X74533D01*
Y165872D01*
X74514D01*
Y165891D01*
X74496D01*
Y165909D01*
X74477D01*
Y165928D01*
X74459D01*
Y165946D01*
X74440D01*
Y165965D01*
X74422D01*
Y165983D01*
X74403D01*
Y166002D01*
X74385D01*
Y166020D01*
X74366D01*
Y166039D01*
X74348D01*
Y166076D01*
X74329D01*
Y166094D01*
X74311D01*
Y166113D01*
X74292D01*
Y166150D01*
X74274D01*
Y166168D01*
X74255D01*
Y166205D01*
X74237D01*
Y166242D01*
X74218D01*
Y166261D01*
X74200D01*
Y166298D01*
X74181D01*
Y166353D01*
X74163D01*
Y166390D01*
X74144D01*
Y166446D01*
X74126D01*
Y166501D01*
X74107D01*
Y166575D01*
X74089D01*
Y166705D01*
X74070D01*
Y166927D01*
X74089D01*
Y167056D01*
X74107D01*
Y167130D01*
X74126D01*
Y167204D01*
X74144D01*
Y167260D01*
X74163D01*
Y167315D01*
X74181D01*
Y167352D01*
X74200D01*
Y167408D01*
X74218D01*
Y167445D01*
X74237D01*
Y167482D01*
X74255D01*
Y167519D01*
X74274D01*
Y167537D01*
X74292D01*
Y167574D01*
X74311D01*
Y167759D01*
X74292D01*
Y167926D01*
X74274D01*
Y168092D01*
X74255D01*
Y168259D01*
X74237D01*
Y168425D01*
X74218D01*
Y168592D01*
X74200D01*
Y168758D01*
X74181D01*
Y168943D01*
X74163D01*
Y169091D01*
X74144D01*
Y169128D01*
X74163D01*
Y169165D01*
X74255D01*
Y169147D01*
X74292D01*
Y169128D01*
X74311D01*
Y169110D01*
X74329D01*
Y169091D01*
X74366D01*
Y169073D01*
X74385D01*
Y169054D01*
X74422D01*
Y169036D01*
X74440D01*
Y169017D01*
X74459D01*
Y168999D01*
X74496D01*
Y168980D01*
X74514D01*
Y168962D01*
X74533D01*
Y168943D01*
X74570D01*
Y168925D01*
X74588D01*
Y168906D01*
X74607D01*
Y168888D01*
X74644D01*
Y168869D01*
X74662D01*
Y168851D01*
X74699D01*
Y168832D01*
X74718D01*
Y168814D01*
X74736D01*
Y168795D01*
X74773D01*
Y168777D01*
X74792D01*
Y168758D01*
X74810D01*
Y168740D01*
X74847D01*
Y168721D01*
X74866D01*
Y168703D01*
X74884D01*
Y168684D01*
X74921D01*
Y168666D01*
X74940D01*
Y168647D01*
X74977D01*
Y168629D01*
X74995D01*
Y168610D01*
X75014D01*
Y168592D01*
X75051D01*
Y168573D01*
X75069D01*
Y168555D01*
X75088D01*
Y168536D01*
X75125D01*
Y168518D01*
X75143D01*
Y168499D01*
X75162D01*
Y168481D01*
X75199D01*
Y168462D01*
X75217D01*
Y168444D01*
X75254D01*
Y168462D01*
X75291D01*
Y168481D01*
X75328D01*
Y168499D01*
X75365D01*
Y168518D01*
X75402D01*
Y168536D01*
X75439D01*
Y168555D01*
X75476D01*
Y168573D01*
X75513D01*
Y168592D01*
X75550D01*
Y168610D01*
X75606D01*
Y168629D01*
X75643D01*
Y168647D01*
X75698D01*
Y168666D01*
X75735D01*
Y168684D01*
X75791D01*
Y168703D01*
X75846D01*
Y168721D01*
X75902D01*
Y168740D01*
X75976D01*
Y168758D01*
X76031D01*
Y168777D01*
X76105D01*
Y168795D01*
X76179D01*
Y168814D01*
X76272D01*
Y168832D01*
X76364D01*
Y168851D01*
X76494D01*
Y168869D01*
X76660D01*
Y168888D01*
X76901D01*
Y168906D01*
X76919D01*
Y168943D01*
X76938D01*
Y168980D01*
X76956D01*
Y169036D01*
X76975D01*
Y169073D01*
X76993D01*
Y169110D01*
X77012D01*
Y169147D01*
X77030D01*
Y169202D01*
X77049D01*
Y169239D01*
X77067D01*
Y169276D01*
X77086D01*
Y169332D01*
X77104D01*
Y169369D01*
X77123D01*
Y169406D01*
X77141D01*
Y169443D01*
X77160D01*
Y169498D01*
X77178D01*
Y169535D01*
X77197D01*
Y169572D01*
X77215D01*
Y169609D01*
X77234D01*
Y169665D01*
X77252D01*
Y169702D01*
X77271D01*
Y169739D01*
X77289D01*
Y169794D01*
X77308D01*
Y169831D01*
X77326D01*
Y169868D01*
X77345D01*
Y169905D01*
X77363D01*
Y169961D01*
X77382D01*
Y169979D01*
X77400D01*
Y170016D01*
X77419D01*
Y170035D01*
X77493D01*
Y170016D01*
D02*
G37*
%LPC*%
G36*
X77308Y167852D02*
X77289D01*
Y167833D01*
X77197D01*
Y167815D01*
X77160D01*
Y167796D01*
X77123D01*
Y167778D01*
X77104D01*
Y167759D01*
X77086D01*
Y167741D01*
X77067D01*
Y167722D01*
X77049D01*
Y167685D01*
X77030D01*
Y167648D01*
X77012D01*
Y167482D01*
X77030D01*
Y167426D01*
X77049D01*
Y167408D01*
X77067D01*
Y167389D01*
Y167371D01*
X77086D01*
Y167352D01*
X77123D01*
Y167334D01*
X77141D01*
Y167315D01*
X77178D01*
Y167297D01*
X77215D01*
Y167278D01*
X77363D01*
Y167297D01*
X77419D01*
Y167315D01*
X77437D01*
Y167334D01*
X77474D01*
Y167352D01*
X77493D01*
Y167371D01*
X77511D01*
Y167389D01*
X77530D01*
Y167426D01*
X77548D01*
Y167463D01*
X77567D01*
Y167648D01*
X77548D01*
Y167704D01*
X77530D01*
Y167722D01*
X77511D01*
Y167741D01*
X77493D01*
Y167759D01*
X77474D01*
Y167778D01*
X77456D01*
Y167796D01*
X77437D01*
Y167815D01*
X77400D01*
Y167833D01*
X77308D01*
Y167852D01*
D02*
G37*
G36*
X75587Y167389D02*
X75550D01*
Y167371D01*
X75458D01*
Y167352D01*
X75421D01*
Y167334D01*
X75402D01*
Y167315D01*
X75365D01*
Y167297D01*
X75347D01*
Y167260D01*
X75328D01*
Y167241D01*
X75310D01*
Y167204D01*
X75291D01*
Y167149D01*
Y167130D01*
Y167001D01*
X75310D01*
Y166964D01*
X75328D01*
Y166927D01*
X75347D01*
Y166908D01*
X75365D01*
Y166890D01*
X75384D01*
Y166871D01*
X75421D01*
Y166853D01*
X75439D01*
Y166834D01*
X75495D01*
Y166816D01*
X75624D01*
Y166834D01*
X75680D01*
Y166853D01*
X75717D01*
Y166871D01*
X75735D01*
Y166890D01*
X75754D01*
Y166908D01*
X75772D01*
Y166927D01*
X75791D01*
Y166945D01*
X75809D01*
Y166982D01*
X75828D01*
Y167019D01*
X75846D01*
Y167167D01*
X75828D01*
Y167223D01*
X75809D01*
Y167260D01*
X75791D01*
Y167278D01*
X75772D01*
Y167297D01*
X75754D01*
Y167315D01*
X75735D01*
Y167334D01*
X75698D01*
Y167352D01*
X75661D01*
Y167371D01*
X75587D01*
Y167389D01*
D02*
G37*
%LPD*%
D10*
X128921Y41000D02*
G03*
X128921Y41000I-492J0D01*
G01*
D11*
X134547Y159744D02*
X143405D01*
X3949Y157500D02*
X153949D01*
X3949Y137500D02*
X153949D01*
X3949D02*
Y157500D01*
X153949Y137500D02*
Y157500D01*
X3949Y7890D02*
X153949D01*
X3949Y27890D02*
X153949D01*
Y7890D02*
Y27890D01*
X3949Y7890D02*
Y27890D01*
X90932Y159645D02*
X99790D01*
X106890Y159744D02*
X115748D01*
X120177Y159843D02*
X129035D01*
X130988Y35488D02*
Y46512D01*
X130988Y46512D02*
X142012D01*
Y35488D02*
Y46512D01*
X130988Y35488D02*
X142012D01*
D12*
X6807Y162024D02*
Y168022D01*
X9806D01*
X10806Y167022D01*
Y165023D01*
X9806Y164023D01*
X6807D01*
X15804Y162024D02*
X13805D01*
X12805Y163023D01*
Y165023D01*
X13805Y166022D01*
X15804D01*
X16804Y165023D01*
Y164023D01*
X12805D01*
X19803Y167022D02*
Y166022D01*
X18803D01*
X20803D01*
X19803D01*
Y163023D01*
X20803Y162024D01*
X29800Y168022D02*
X33798D01*
X31799D01*
Y162024D01*
X35798Y166022D02*
Y162024D01*
Y164023D01*
X36797Y165023D01*
X37797Y166022D01*
X38797D01*
X42795D02*
X44795D01*
X45794Y165023D01*
Y162024D01*
X42795D01*
X41796Y163023D01*
X42795Y164023D01*
X45794D01*
X51793Y166022D02*
X48794D01*
X47794Y165023D01*
Y163023D01*
X48794Y162024D01*
X51793D01*
X53792D02*
Y168022D01*
Y164023D02*
X56791Y166022D01*
X53792Y164023D02*
X56791Y162024D01*
X62789D02*
X60790D01*
X59790Y163023D01*
Y165023D01*
X60790Y166022D01*
X62789D01*
X63789Y165023D01*
Y164023D01*
X59790D01*
X65788Y166022D02*
Y162024D01*
Y164023D01*
X66788Y165023D01*
X67787Y166022D01*
X68787D01*
M02*
