G04*
G04 #@! TF.GenerationSoftware,Altium Limited,Altium Designer,22.0.2 (36)*
G04*
G04 Layer_Physical_Order=1*
G04 Layer_Color=255*
%FSLAX25Y25*%
%MOIN*%
G70*
G04*
G04 #@! TF.SameCoordinates,42502384-103D-4A38-82C6-637D6536F92D*
G04*
G04*
G04 #@! TF.FilePolarity,Positive*
G04*
G01*
G75*
%ADD14C,0.01000*%
%ADD16C,0.06000*%
%ADD17R,0.04724X0.02756*%
%ADD18R,0.04724X0.02992*%
%ADD19R,0.04724X0.03150*%
%ADD20R,0.05807X0.01181*%
%ADD21R,0.01181X0.05807*%
%ADD22R,0.02410X0.06062*%
G04:AMPARAMS|DCode=23|XSize=60.62mil|YSize=24.1mil|CornerRadius=12.05mil|HoleSize=0mil|Usage=FLASHONLY|Rotation=270.000|XOffset=0mil|YOffset=0mil|HoleType=Round|Shape=RoundedRectangle|*
%AMROUNDEDRECTD23*
21,1,0.06062,0.00000,0,0,270.0*
21,1,0.03652,0.02410,0,0,270.0*
1,1,0.02410,0.00000,-0.01826*
1,1,0.02410,0.00000,0.01826*
1,1,0.02410,0.00000,0.01826*
1,1,0.02410,0.00000,-0.01826*
%
%ADD23ROUNDEDRECTD23*%
%ADD24R,0.05709X0.04528*%
G04:AMPARAMS|DCode=25|XSize=39.37mil|YSize=55.91mil|CornerRadius=4.92mil|HoleSize=0mil|Usage=FLASHONLY|Rotation=90.000|XOffset=0mil|YOffset=0mil|HoleType=Round|Shape=RoundedRectangle|*
%AMROUNDEDRECTD25*
21,1,0.03937,0.04606,0,0,90.0*
21,1,0.02953,0.05591,0,0,90.0*
1,1,0.00984,0.02303,0.01476*
1,1,0.00984,0.02303,-0.01476*
1,1,0.00984,-0.02303,-0.01476*
1,1,0.00984,-0.02303,0.01476*
%
%ADD25ROUNDEDRECTD25*%
G04:AMPARAMS|DCode=26|XSize=39.37mil|YSize=55.91mil|CornerRadius=4.92mil|HoleSize=0mil|Usage=FLASHONLY|Rotation=0.000|XOffset=0mil|YOffset=0mil|HoleType=Round|Shape=RoundedRectangle|*
%AMROUNDEDRECTD26*
21,1,0.03937,0.04606,0,0,0.0*
21,1,0.02953,0.05591,0,0,0.0*
1,1,0.00984,0.01476,-0.02303*
1,1,0.00984,-0.01476,-0.02303*
1,1,0.00984,-0.01476,0.02303*
1,1,0.00984,0.01476,0.02303*
%
%ADD26ROUNDEDRECTD26*%
%ADD27R,0.11811X0.06299*%
%ADD28R,0.23622X0.23622*%
%ADD29R,0.01181X0.05512*%
%ADD30R,0.21700X0.08500*%
%ADD31R,0.09016X0.12284*%
%ADD32R,0.06102X0.03740*%
%ADD33R,0.12284X0.09016*%
%ADD34R,0.04528X0.05709*%
%ADD35R,0.02756X0.06004*%
%ADD36R,0.05787X0.04724*%
%ADD41R,0.33268X0.24000*%
%ADD42R,0.03937X0.04724*%
%ADD64C,0.02000*%
%ADD65C,0.01968*%
%ADD66C,0.01500*%
%ADD67O,0.06693X0.04331*%
%ADD68O,0.08268X0.04331*%
%ADD69R,0.05906X0.05906*%
%ADD70C,0.05906*%
%ADD71R,0.05906X0.05906*%
%ADD72C,0.03965*%
%ADD73C,0.05000*%
%ADD74C,0.02500*%
G36*
X415793Y229043D02*
Y1529D01*
X1529D01*
Y22471D01*
X7888D01*
X8057Y21971D01*
X7615Y21632D01*
X7108Y20970D01*
X6789Y20200D01*
X6746Y19874D01*
X16937D01*
X16894Y20200D01*
X16575Y20970D01*
X16068Y21632D01*
X15626Y21971D01*
X15796Y22471D01*
X24423D01*
X24593Y21971D01*
X24151Y21632D01*
X23643Y20970D01*
X23325Y20200D01*
X23282Y19874D01*
X31898D01*
X31855Y20200D01*
X31536Y20970D01*
X31028Y21632D01*
X30367Y22139D01*
X29597Y22458D01*
X28891Y22551D01*
X28837Y22615D01*
X28718Y22858D01*
X28680Y23067D01*
X28913Y23415D01*
X29029Y24000D01*
Y28098D01*
X30830D01*
Y30673D01*
X31330D01*
Y31173D01*
X34692D01*
Y33240D01*
X39146D01*
Y31780D01*
X46854D01*
Y33004D01*
X50488D01*
Y26358D01*
X61504D01*
Y40642D01*
X50488D01*
Y37082D01*
X46854D01*
Y38307D01*
X44789D01*
Y43203D01*
X44956Y43299D01*
X45701Y44044D01*
X45941Y44461D01*
X61482D01*
X62262Y44616D01*
X62924Y45058D01*
X103584Y85718D01*
X104026Y86379D01*
X104181Y87160D01*
Y128713D01*
X104026Y129493D01*
X103584Y130155D01*
X98179Y135559D01*
Y138803D01*
X98063Y139385D01*
X97733Y139879D01*
X97240Y140209D01*
X97220Y140213D01*
Y145025D01*
X98196Y146000D01*
X98461D01*
X99351Y146239D01*
X100149Y146699D01*
X100801Y147351D01*
X101261Y148149D01*
X101500Y149039D01*
Y149961D01*
X101261Y150851D01*
X100801Y151649D01*
X101167Y151972D01*
X108477Y144662D01*
Y134043D01*
X108631Y133269D01*
X109069Y132613D01*
X113646Y128036D01*
Y123779D01*
X121354D01*
Y123923D01*
X122516D01*
X140016Y106423D01*
X139826Y105923D01*
X136900D01*
X136126Y105769D01*
X135469Y105331D01*
X81573Y51434D01*
X81135Y50778D01*
X80981Y50004D01*
Y40642D01*
X77496D01*
Y26358D01*
X88512D01*
Y40642D01*
X85027D01*
Y49166D01*
X137738Y101877D01*
X140150D01*
Y98650D01*
X159827D01*
Y94050D01*
X159981Y93276D01*
X160419Y92619D01*
X165255Y87784D01*
X165911Y87345D01*
X166685Y87191D01*
X168551D01*
X168683Y86528D01*
X169170Y85799D01*
X169899Y85312D01*
X170760Y85140D01*
X171620Y85312D01*
X172350Y85799D01*
X172837Y86528D01*
X172969Y87191D01*
X176031D01*
X176163Y86528D01*
X176651Y85799D01*
X177380Y85312D01*
X178240Y85140D01*
X179101Y85312D01*
X179830Y85799D01*
X180317Y86528D01*
X180488Y87389D01*
Y91040D01*
X180317Y91901D01*
X179830Y92630D01*
X179101Y93118D01*
X178240Y93289D01*
X177380Y93118D01*
X176651Y92630D01*
X176163Y91901D01*
X176031Y91238D01*
X172969D01*
X172837Y91901D01*
X172350Y92630D01*
X171620Y93118D01*
X170760Y93289D01*
X169899Y93118D01*
X169170Y92630D01*
X168683Y91901D01*
X168551Y91238D01*
X167524D01*
X163873Y94888D01*
Y100650D01*
X163850Y100766D01*
Y109150D01*
X143011D01*
X124785Y127376D01*
X124128Y127815D01*
X123354Y127969D01*
X121354D01*
Y130307D01*
X117090D01*
X117076Y130328D01*
X112523Y134881D01*
Y145500D01*
Y167666D01*
X112369Y168440D01*
X111931Y169097D01*
X90811Y190216D01*
X90154Y190655D01*
X89380Y190809D01*
X89095D01*
X69138Y210767D01*
Y216205D01*
X55326D01*
Y207906D01*
X66276D01*
X86827Y187355D01*
X87483Y186917D01*
X88257Y186763D01*
X88542D01*
X98519Y176786D01*
X98327Y176324D01*
X96886D01*
X96304Y176209D01*
X95810Y175879D01*
X95480Y175385D01*
X95364Y174803D01*
Y170197D01*
X95480Y169615D01*
X95810Y169121D01*
X96304Y168791D01*
X96392Y168774D01*
Y166824D01*
X96351Y166801D01*
X95699Y166149D01*
X95239Y165351D01*
X95000Y164461D01*
Y163539D01*
X95239Y162649D01*
X95699Y161851D01*
X96351Y161199D01*
X97149Y160739D01*
X98039Y160500D01*
X98961D01*
X99851Y160739D01*
X100649Y161199D01*
X101301Y161851D01*
X101761Y162649D01*
X102000Y163539D01*
Y164461D01*
X101761Y165351D01*
X101301Y166149D01*
X100649Y166801D01*
X100470Y166904D01*
Y168824D01*
X100914Y169121D01*
X101244Y169615D01*
X101360Y170197D01*
Y173292D01*
X101822Y173483D01*
X108477Y166828D01*
Y151038D01*
X108015Y150846D01*
X100781Y158080D01*
X100125Y158519D01*
X99350Y158673D01*
X68669D01*
Y176311D01*
X43047D01*
Y151637D01*
X42547Y151370D01*
X42539Y151375D01*
Y165079D01*
X42384Y165859D01*
X41942Y166521D01*
X37174Y171289D01*
Y176705D01*
X23362D01*
Y168405D01*
X34290D01*
X38461Y164234D01*
Y150000D01*
X38616Y149220D01*
X39058Y148558D01*
X43739Y143877D01*
X44401Y143435D01*
X45181Y143280D01*
X79287D01*
X79291Y143260D01*
X79621Y142767D01*
X80115Y142437D01*
X80697Y142321D01*
X83918D01*
X83969Y142311D01*
X84919D01*
X85780Y141451D01*
Y140213D01*
X85760Y140209D01*
X85267Y139879D01*
X84937Y139385D01*
X84821Y138803D01*
Y134197D01*
X84937Y133615D01*
X85267Y133121D01*
X85760Y132791D01*
X86343Y132676D01*
X89295D01*
X89877Y132791D01*
X90371Y133121D01*
X90701Y133615D01*
X90817Y134197D01*
Y138803D01*
X90701Y139385D01*
X90371Y139879D01*
X89877Y140209D01*
X89858Y140213D01*
Y142295D01*
X89703Y143076D01*
X89261Y143737D01*
X89261Y143737D01*
X87206Y145792D01*
X86825Y146047D01*
Y146795D01*
X86709Y147378D01*
X86379Y147871D01*
X85885Y148201D01*
X85303Y148317D01*
X80697D01*
X80115Y148201D01*
X79621Y147871D01*
X79291Y147378D01*
X79287Y147358D01*
X46026D01*
X43195Y150189D01*
X43402Y150689D01*
X68669D01*
Y154627D01*
X78875D01*
X79192Y154240D01*
X79176Y154157D01*
Y153181D01*
X83000D01*
X86825D01*
Y154157D01*
X86808Y154240D01*
X87125Y154627D01*
X98512D01*
X100472Y152667D01*
X100149Y152301D01*
X99351Y152761D01*
X98461Y153000D01*
X97539D01*
X96649Y152761D01*
X95851Y152301D01*
X95199Y151649D01*
X94739Y150851D01*
X94500Y149961D01*
Y149039D01*
X94704Y148276D01*
X93739Y147311D01*
X93297Y146650D01*
X93142Y145869D01*
Y140213D01*
X93123Y140209D01*
X92629Y139879D01*
X92299Y139385D01*
X92183Y138803D01*
Y134197D01*
X92299Y133615D01*
X92629Y133121D01*
X93123Y132791D01*
X93705Y132676D01*
X95295D01*
X100102Y127868D01*
Y125012D01*
X89742D01*
X85312Y129442D01*
X84650Y129884D01*
X83870Y130039D01*
X74169D01*
Y140811D01*
X48547D01*
Y115189D01*
X74169D01*
Y125961D01*
X83025D01*
X86858Y122128D01*
Y113996D01*
X100102D01*
Y98004D01*
X86858D01*
Y89872D01*
X84525Y87539D01*
X72354D01*
Y89350D01*
X64646D01*
Y88126D01*
X47744D01*
X47379Y88626D01*
X47435Y88906D01*
Y91567D01*
X49465D01*
Y94823D01*
X47874D01*
Y95823D01*
X49465D01*
Y99079D01*
X49256D01*
X49196Y99377D01*
X48865Y99873D01*
X47656Y101081D01*
X47160Y101413D01*
X46575Y101529D01*
X45000D01*
X44415Y101413D01*
X43998Y101135D01*
X43498Y101283D01*
Y102441D01*
X43382Y103026D01*
X43264Y103202D01*
Y106692D01*
X46081Y109509D01*
X46413Y110005D01*
X46529Y110591D01*
Y126500D01*
X46413Y127085D01*
X46081Y127581D01*
X42703Y130960D01*
Y134406D01*
X42674Y134553D01*
Y141205D01*
X28863D01*
Y132905D01*
X39644D01*
Y130326D01*
X39761Y129741D01*
X40092Y129245D01*
X43471Y125866D01*
Y111224D01*
X41101Y108854D01*
X36736D01*
Y102704D01*
X36236Y102436D01*
X36216Y102450D01*
Y103736D01*
X36177Y103933D01*
Y108854D01*
X36041D01*
Y114795D01*
X42674D01*
Y123094D01*
X28863D01*
Y114795D01*
X31963D01*
Y108854D01*
X29650D01*
Y101146D01*
X32138D01*
X32293Y100365D01*
X32735Y99704D01*
X37969Y94469D01*
X38409Y94175D01*
Y91567D01*
X44376D01*
Y89539D01*
X42932Y88095D01*
X42306Y87971D01*
X41646Y87529D01*
X11181D01*
X10663Y88427D01*
X9927Y89163D01*
X9539Y89387D01*
Y133588D01*
X26246Y150295D01*
X37174D01*
Y158595D01*
X23362D01*
Y153179D01*
X9851Y139668D01*
X9390Y139860D01*
Y177364D01*
X22176Y190150D01*
X25831D01*
X26028Y190189D01*
X49453D01*
Y215811D01*
X23831D01*
Y194228D01*
X21331D01*
X20551Y194073D01*
X19889Y193631D01*
X9851Y183593D01*
X9390Y183785D01*
Y193523D01*
X9473Y194000D01*
X10527D01*
X11544Y194273D01*
X12456Y194799D01*
X13201Y195544D01*
X13727Y196456D01*
X14000Y197473D01*
Y198527D01*
X13727Y199544D01*
X13201Y200456D01*
X12456Y201201D01*
X11544Y201727D01*
X10527Y202000D01*
X9473D01*
X8456Y201727D01*
X7544Y201201D01*
X6799Y200456D01*
X6273Y199544D01*
X6000Y198527D01*
Y197473D01*
X6235Y196597D01*
X5909Y196270D01*
X5466Y195609D01*
X5311Y194828D01*
Y178208D01*
Y134650D01*
X5461Y133897D01*
Y89387D01*
X5073Y89163D01*
X4337Y88427D01*
X3817Y87526D01*
X3547Y86520D01*
Y85480D01*
X3817Y84474D01*
X4337Y83573D01*
X5073Y82837D01*
X5974Y82317D01*
X6980Y82047D01*
X8020D01*
X9026Y82317D01*
X9927Y82837D01*
X10663Y83573D01*
X11181Y84471D01*
X41905D01*
X42306Y84203D01*
X43087Y84047D01*
X64646D01*
Y82823D01*
X72354D01*
Y83461D01*
X85370D01*
X86150Y83616D01*
X86812Y84058D01*
X89742Y86988D01*
X98433D01*
X98624Y86526D01*
X60637Y48539D01*
X45941D01*
X45701Y48956D01*
X44956Y49701D01*
X44539Y49942D01*
Y56650D01*
X47051D01*
Y62390D01*
X39773D01*
X38683Y63480D01*
X38755Y64040D01*
X38949Y64130D01*
X47051D01*
Y69433D01*
X47551Y69640D01*
X49176Y68016D01*
Y65705D01*
X49291Y65122D01*
X49621Y64629D01*
X50115Y64299D01*
X50697Y64183D01*
X55303D01*
X55885Y64299D01*
X56379Y64629D01*
X56709Y65122D01*
X56824Y65705D01*
Y68657D01*
X56709Y69240D01*
X56379Y69733D01*
X55885Y70063D01*
X55303Y70179D01*
X51338D01*
X47773Y73744D01*
X47980Y74244D01*
X49465D01*
Y77500D01*
X47874D01*
Y78000D01*
X47496D01*
Y81756D01*
X38409D01*
Y74316D01*
X35919Y71825D01*
X35587Y71329D01*
X35471Y70744D01*
Y63000D01*
X35587Y62415D01*
X35919Y61919D01*
X38137Y59700D01*
X38634Y59368D01*
X38949Y59306D01*
Y56650D01*
X40461D01*
Y49942D01*
X40044Y49701D01*
X39375Y49031D01*
X34692D01*
Y51827D01*
X31330D01*
Y52327D01*
X30830D01*
Y54902D01*
X29029D01*
Y59500D01*
X28940Y59951D01*
X29142Y60371D01*
X29240Y60495D01*
X29597Y60542D01*
X30367Y60861D01*
X31028Y61368D01*
X31536Y62030D01*
X31855Y62800D01*
X31898Y63126D01*
X23282D01*
X23325Y62800D01*
X23643Y62030D01*
X24027Y61529D01*
X23814Y61029D01*
X16404D01*
X16191Y61529D01*
X16575Y62030D01*
X16894Y62800D01*
X16937Y63126D01*
X6746D01*
X6789Y62800D01*
X7108Y62030D01*
X7492Y61529D01*
X7279Y61029D01*
X1529D01*
Y234691D01*
X410145D01*
X415793Y229043D01*
D02*
G37*
%LPC*%
G36*
X144122Y215179D02*
X143622Y215179D01*
X139378D01*
X139122Y215179D01*
X138622Y215179D01*
X134378D01*
X134122Y215179D01*
X133622Y215179D01*
X129122D01*
Y207175D01*
X133622D01*
X133878Y207175D01*
X134378Y207175D01*
X138622D01*
X138878Y207175D01*
X139378Y207175D01*
X143622D01*
X143878Y207175D01*
X144378Y207175D01*
X148878D01*
Y215179D01*
X144378D01*
X144122Y215179D01*
D02*
G37*
G36*
X207803Y209360D02*
X206000D01*
Y206862D01*
X209325D01*
Y207839D01*
X209209Y208421D01*
X208879Y208914D01*
X208385Y209244D01*
X207803Y209360D01*
D02*
G37*
G36*
X205000D02*
X203197D01*
X202615Y209244D01*
X202121Y208914D01*
X201791Y208421D01*
X201676Y207839D01*
Y206862D01*
X205000D01*
Y209360D01*
D02*
G37*
G36*
X209325Y205862D02*
X206000D01*
Y203364D01*
X207803D01*
X208385Y203480D01*
X208879Y203810D01*
X209209Y204304D01*
X209325Y204886D01*
Y205862D01*
D02*
G37*
G36*
X205000D02*
X201676D01*
Y204886D01*
X201791Y204304D01*
X202121Y203810D01*
X202615Y203480D01*
X203197Y203364D01*
X205000D01*
Y205862D01*
D02*
G37*
G36*
X194520Y215839D02*
X177386D01*
Y203339D01*
X194520D01*
Y215839D01*
D02*
G37*
G36*
X176386D02*
X159252D01*
Y203339D01*
X176386D01*
Y215839D01*
D02*
G37*
G36*
X131000Y193825D02*
X129122D01*
Y190323D01*
X131000D01*
Y193825D01*
D02*
G37*
G36*
X221297Y232529D02*
X161086D01*
X160501Y232413D01*
X160004Y232081D01*
X150919Y222996D01*
X150587Y222499D01*
X150471Y221914D01*
Y189500D01*
X150587Y188915D01*
X150919Y188419D01*
X155419Y183919D01*
X155915Y183587D01*
X156500Y183471D01*
X160031D01*
Y181638D01*
X165969D01*
Y188362D01*
X160031D01*
Y186529D01*
X157133D01*
X153529Y190134D01*
Y221281D01*
X158790Y226541D01*
X159252Y226350D01*
Y216839D01*
X194520D01*
Y229339D01*
X194965Y229471D01*
X220664D01*
X275067Y175067D01*
X276971Y173164D01*
Y172551D01*
X276471Y172399D01*
X276442Y172442D01*
X271489Y177395D01*
X270828Y177837D01*
X270047Y177992D01*
X225589D01*
X225589Y177992D01*
X224808Y177837D01*
X224147Y177395D01*
X224147Y177395D01*
X212791Y166039D01*
X202943D01*
X202894Y166539D01*
X203280Y166616D01*
X203942Y167058D01*
X206942Y170058D01*
X207384Y170720D01*
X207539Y171500D01*
Y181321D01*
X207803D01*
X208385Y181437D01*
X208879Y181767D01*
X209209Y182260D01*
X209325Y182843D01*
Y185795D01*
X209209Y186378D01*
X208879Y186871D01*
X208385Y187201D01*
X207803Y187317D01*
X203197D01*
X202615Y187201D01*
X202121Y186871D01*
X201791Y186378D01*
X201676Y185795D01*
Y182843D01*
X201791Y182260D01*
X202121Y181767D01*
X202615Y181437D01*
X203197Y181321D01*
X203461D01*
Y172345D01*
X201655Y170539D01*
X200941D01*
X200701Y170956D01*
X199956Y171701D01*
X199044Y172227D01*
X198027Y172500D01*
X196973D01*
X196508Y172375D01*
X187708Y181176D01*
X187899Y181638D01*
X192740D01*
Y183471D01*
X194500D01*
X195085Y183587D01*
X195581Y183919D01*
X201314Y189652D01*
X201872Y189502D01*
X202121Y189129D01*
X202615Y188799D01*
X203197Y188683D01*
X207803D01*
X208385Y188799D01*
X208879Y189129D01*
X209209Y189622D01*
X209325Y190205D01*
Y193157D01*
X209209Y193740D01*
X208879Y194233D01*
X208385Y194563D01*
X207803Y194679D01*
X207539D01*
Y196002D01*
X207803D01*
X208385Y196118D01*
X208879Y196448D01*
X209209Y196941D01*
X209325Y197524D01*
Y200476D01*
X209209Y201059D01*
X208879Y201552D01*
X208385Y201882D01*
X207803Y201998D01*
X203197D01*
X202615Y201882D01*
X202121Y201552D01*
X201791Y201059D01*
X201676Y200476D01*
Y197524D01*
X201791Y196941D01*
X202121Y196448D01*
X202615Y196118D01*
X203197Y196002D01*
X203461D01*
Y194679D01*
X203197D01*
X202615Y194563D01*
X202121Y194233D01*
X201791Y193740D01*
X201686Y193210D01*
X201181D01*
X200596Y193094D01*
X200100Y192762D01*
X193867Y186529D01*
X192740D01*
Y188362D01*
X186803D01*
Y183018D01*
X186303Y182773D01*
X186086Y182941D01*
Y184031D01*
X186047Y184229D01*
Y188362D01*
X180110D01*
Y181638D01*
X182071D01*
X182163Y181172D01*
X182605Y180511D01*
X193625Y169492D01*
X193500Y169027D01*
Y168039D01*
X185442D01*
X185201Y168456D01*
X184456Y169201D01*
X183544Y169727D01*
X182527Y170000D01*
X182302D01*
X181987Y170472D01*
X178621Y173838D01*
X177959Y174280D01*
X177179Y174436D01*
X176350D01*
Y176854D01*
X173754D01*
X173707Y177091D01*
X173265Y177753D01*
X171846Y179171D01*
Y181638D01*
X172661D01*
Y188362D01*
X166724D01*
Y181638D01*
X167768D01*
Y180366D01*
X155518D01*
X148917Y186967D01*
Y189445D01*
X148917Y189445D01*
X148878Y189642D01*
Y193825D01*
X144378D01*
X144122Y193825D01*
X143622Y193825D01*
X139122D01*
Y193825D01*
X138878D01*
Y193825D01*
X134378D01*
X134122Y193825D01*
X133622Y193825D01*
X132000D01*
Y189823D01*
Y185821D01*
X133583D01*
X133878Y185821D01*
X134083Y185406D01*
Y178761D01*
X133956Y178727D01*
X133044Y178201D01*
X132299Y177456D01*
X131773Y176544D01*
X131500Y175527D01*
Y174473D01*
X131773Y173456D01*
X132299Y172544D01*
X133044Y171799D01*
X133956Y171273D01*
X134973Y171000D01*
X136027D01*
X136492Y171125D01*
X141431Y166185D01*
X141238Y165851D01*
X141000Y164961D01*
Y164039D01*
X141238Y163149D01*
X141699Y162351D01*
X142351Y161699D01*
X143149Y161239D01*
X144039Y161000D01*
X144961D01*
X145851Y161239D01*
X146649Y161699D01*
X147301Y162351D01*
X147761Y163149D01*
X148000Y164039D01*
Y164961D01*
X147761Y165851D01*
X147301Y166649D01*
X146649Y167301D01*
X145851Y167762D01*
X145470Y167864D01*
X145368Y168016D01*
X139375Y174008D01*
X139500Y174473D01*
Y175527D01*
X139227Y176544D01*
X138701Y177456D01*
X138161Y177996D01*
Y178655D01*
X142942Y183436D01*
X143384Y184098D01*
X143539Y184878D01*
Y185482D01*
X143878Y185821D01*
X144378Y185821D01*
X144899D01*
X144994Y185342D01*
X145436Y184680D01*
X153231Y176885D01*
X153893Y176443D01*
X154673Y176288D01*
X162736D01*
Y173500D01*
X169264D01*
Y174753D01*
X169764Y175020D01*
X169784Y175007D01*
Y174264D01*
X169823Y174067D01*
Y169146D01*
X176350D01*
Y169688D01*
X176812Y169879D01*
X178593Y168099D01*
X178273Y167544D01*
X178000Y166527D01*
Y165473D01*
X178273Y164456D01*
X178799Y163544D01*
X179544Y162799D01*
X179961Y162558D01*
Y151642D01*
X174996D01*
Y137358D01*
X182961D01*
Y130179D01*
X182697D01*
X182115Y130063D01*
X181621Y129733D01*
X181291Y129240D01*
X181175Y128657D01*
Y125705D01*
X181291Y125122D01*
X181621Y124629D01*
X182115Y124299D01*
X182697Y124183D01*
X187303D01*
X187885Y124299D01*
X188379Y124629D01*
X188709Y125122D01*
X188824Y125705D01*
Y128657D01*
X188709Y129240D01*
X188379Y129733D01*
X187885Y130063D01*
X187303Y130179D01*
X187039D01*
Y135876D01*
X187501Y136068D01*
X191146Y132423D01*
Y128779D01*
X198854D01*
Y135307D01*
X194029D01*
X188536Y140800D01*
X187875Y141242D01*
X187094Y141398D01*
X186012D01*
Y147675D01*
X186426Y147758D01*
X187088Y148200D01*
X187994Y149107D01*
X189193D01*
X189390Y149146D01*
X193720D01*
Y156854D01*
X187193D01*
Y153185D01*
X187150D01*
X186369Y153030D01*
X185708Y152588D01*
X184801Y151681D01*
X184039D01*
Y162558D01*
X184456Y162799D01*
X185201Y163544D01*
X185442Y163961D01*
X192791D01*
X194194Y162558D01*
X194856Y162116D01*
X195636Y161961D01*
X213636D01*
X214000Y162033D01*
X214500Y161623D01*
Y161539D01*
X214738Y160649D01*
X215199Y159851D01*
X215851Y159199D01*
X216649Y158739D01*
X217539Y158500D01*
X218461D01*
X219351Y158739D01*
X220149Y159199D01*
X220801Y159851D01*
X220812Y159870D01*
X222655D01*
X230646Y151880D01*
Y150399D01*
X224919Y144672D01*
X224587Y144176D01*
X224471Y143591D01*
Y120453D01*
X222047D01*
Y114710D01*
X213919Y106581D01*
X213587Y106085D01*
X213471Y105500D01*
Y89000D01*
X213587Y88415D01*
X213919Y87919D01*
X220547Y81290D01*
Y75547D01*
X228453D01*
Y83453D01*
X222710D01*
X216529Y89634D01*
Y104867D01*
X224210Y112547D01*
X229953D01*
Y120453D01*
X227529D01*
Y142957D01*
X230184Y145611D01*
X230646Y145420D01*
Y144913D01*
X234000D01*
Y147677D01*
X233440D01*
X233173Y148177D01*
X233212Y148236D01*
X238354D01*
Y154764D01*
X233529D01*
X224942Y163351D01*
X224280Y163793D01*
X223500Y163949D01*
X220916D01*
X220801Y164149D01*
X220149Y164801D01*
X219351Y165261D01*
X218671Y165444D01*
X218490Y165970D01*
X226433Y173914D01*
X258984D01*
Y170803D01*
X266890D01*
Y173914D01*
X269203D01*
X270080Y173036D01*
X269774Y172730D01*
X269254Y171829D01*
X268984Y170824D01*
Y169783D01*
X269254Y168777D01*
X269774Y167876D01*
X270510Y167140D01*
X271411Y166620D01*
X272417Y166350D01*
X273457D01*
X274463Y166620D01*
X275364Y167140D01*
X276100Y167876D01*
X276471Y168518D01*
X276971Y168384D01*
Y168000D01*
X277087Y167415D01*
X277418Y166919D01*
X277711Y166626D01*
X277712Y166626D01*
X283919Y160419D01*
X284415Y160087D01*
X285000Y159971D01*
X287866D01*
X288285Y159552D01*
X288094Y159090D01*
X283146D01*
Y157529D01*
X280158D01*
X279801Y158149D01*
X279149Y158801D01*
X278351Y159262D01*
X277461Y159500D01*
X276539D01*
X275649Y159262D01*
X274851Y158801D01*
X274199Y158149D01*
X273739Y157351D01*
X273500Y156461D01*
Y155539D01*
X273739Y154649D01*
X274199Y153851D01*
X274851Y153199D01*
X275649Y152738D01*
X276539Y152500D01*
X277461D01*
X278351Y152738D01*
X279149Y153199D01*
X279801Y153851D01*
X280158Y154471D01*
X283146D01*
Y152562D01*
X290053D01*
X290093Y152503D01*
X289825Y152003D01*
X287500D01*
Y149240D01*
X290854D01*
Y151512D01*
X291354Y151719D01*
X293707Y149366D01*
Y144994D01*
X293646D01*
Y137187D01*
X296827D01*
Y141091D01*
X297571D01*
X297583Y141033D01*
Y137187D01*
X301444D01*
X301524Y136687D01*
X297087Y132250D01*
X296552D01*
X295725Y131907D01*
X295093Y131274D01*
X294750Y130448D01*
Y129552D01*
X295093Y128726D01*
X295725Y128093D01*
X296552Y127750D01*
X297448D01*
X298153Y128042D01*
X298436Y127618D01*
X298093Y127275D01*
X297750Y126448D01*
Y125552D01*
X298093Y124725D01*
X298726Y124092D01*
X299552Y123750D01*
X300448D01*
X301274Y124092D01*
X301907Y124725D01*
X302250Y125552D01*
Y126087D01*
X303009Y126846D01*
X303471Y126654D01*
Y124153D01*
X303093Y123775D01*
X302750Y122948D01*
Y122052D01*
X303093Y121226D01*
X303726Y120592D01*
X304552Y120250D01*
X305448D01*
X306275Y120592D01*
X306908Y121226D01*
X307250Y122052D01*
Y122948D01*
X306908Y123775D01*
X306529Y124153D01*
Y127449D01*
X308129Y129048D01*
X308460Y129544D01*
X308577Y130130D01*
Y132107D01*
X309039Y132299D01*
X310250Y131087D01*
Y130552D01*
X310593Y129726D01*
X311226Y129093D01*
X312052Y128750D01*
X312948D01*
X313774Y129093D01*
X314407Y129726D01*
X314750Y130552D01*
Y131448D01*
X314407Y132274D01*
X313774Y132907D01*
X312948Y133250D01*
X312413D01*
X310545Y135118D01*
Y137187D01*
X326354D01*
Y141965D01*
X326994D01*
X327579Y142081D01*
X328076Y142413D01*
X337134Y151471D01*
X349500D01*
X350085Y151587D01*
X350581Y151919D01*
X357862Y159199D01*
X358194Y159695D01*
X358310Y160281D01*
Y162147D01*
X362513Y166350D01*
X363457D01*
X364463Y166620D01*
X365364Y167140D01*
X366100Y167876D01*
X366620Y168777D01*
X366890Y169783D01*
Y170824D01*
X366620Y171829D01*
X366100Y172730D01*
X365364Y173466D01*
X364463Y173986D01*
X363457Y174256D01*
X362417D01*
X361411Y173986D01*
X360510Y173466D01*
X359774Y172730D01*
X359254Y171829D01*
X358984Y170824D01*
Y169783D01*
X359254Y168777D01*
X359752Y167915D01*
X355699Y163862D01*
X355368Y163366D01*
X355251Y162781D01*
Y160914D01*
X348867Y154529D01*
X336500D01*
X335915Y154413D01*
X335419Y154081D01*
X326361Y145024D01*
X325394D01*
X325186Y145524D01*
X335812Y156149D01*
X341678D01*
X342264Y156265D01*
X342760Y156597D01*
X352513Y166350D01*
X353457D01*
X354463Y166620D01*
X355364Y167140D01*
X356100Y167876D01*
X356620Y168777D01*
X356890Y169783D01*
Y170824D01*
X356620Y171829D01*
X356100Y172730D01*
X355364Y173466D01*
X354463Y173986D01*
X353457Y174256D01*
X352417D01*
X351411Y173986D01*
X350510Y173466D01*
X349774Y172730D01*
X349254Y171829D01*
X348984Y170824D01*
Y169783D01*
X349254Y168777D01*
X349752Y167915D01*
X341045Y159208D01*
X336024D01*
X335833Y159670D01*
X342513Y166350D01*
X343457D01*
X344463Y166620D01*
X345364Y167140D01*
X346100Y167876D01*
X346620Y168777D01*
X346890Y169783D01*
Y170824D01*
X346620Y171829D01*
X346100Y172730D01*
X345364Y173466D01*
X344463Y173986D01*
X343457Y174256D01*
X342417D01*
X341411Y173986D01*
X340510Y173466D01*
X339774Y172730D01*
X339254Y171829D01*
X338984Y170824D01*
Y169783D01*
X339254Y168777D01*
X339752Y167915D01*
X333491Y161654D01*
X333029Y161846D01*
Y166350D01*
X333457D01*
X334463Y166620D01*
X335364Y167140D01*
X336100Y167876D01*
X336620Y168777D01*
X336890Y169783D01*
Y170824D01*
X336620Y171829D01*
X336100Y172730D01*
X335364Y173466D01*
X334463Y173986D01*
X333457Y174256D01*
X332417D01*
X331411Y173986D01*
X330510Y173466D01*
X329774Y172730D01*
X329254Y171829D01*
X328984Y170824D01*
Y169783D01*
X329254Y168777D01*
X329774Y167876D01*
X330000Y167650D01*
X329971Y167500D01*
Y161634D01*
X322298Y153961D01*
X321907Y154226D01*
X322250Y155052D01*
Y155948D01*
X322029Y156480D01*
Y165866D01*
X322513Y166350D01*
X323457D01*
X324463Y166620D01*
X325364Y167140D01*
X326100Y167876D01*
X326620Y168777D01*
X326890Y169783D01*
Y170824D01*
X326620Y171829D01*
X326100Y172730D01*
X325364Y173466D01*
X324463Y173986D01*
X323457Y174256D01*
X322417D01*
X321411Y173986D01*
X320510Y173466D01*
X319774Y172730D01*
X319254Y171829D01*
X318984Y170824D01*
Y169783D01*
X319254Y168777D01*
X319752Y167915D01*
X319419Y167581D01*
X319087Y167085D01*
X318971Y166500D01*
Y158027D01*
X318919Y157996D01*
X318419Y158279D01*
Y166283D01*
X318303Y166868D01*
X317971Y167364D01*
X317029Y168306D01*
Y170500D01*
X316913Y171085D01*
X316757Y171318D01*
X316620Y171829D01*
X316100Y172730D01*
X315364Y173466D01*
X314463Y173986D01*
X313457Y174256D01*
X312417D01*
X311411Y173986D01*
X310510Y173466D01*
X309774Y172730D01*
X309254Y171829D01*
X308984Y170824D01*
Y169783D01*
X309254Y168777D01*
X309774Y167876D01*
X310510Y167140D01*
X311411Y166620D01*
X312417Y166350D01*
X313457D01*
X314409Y166605D01*
X314419Y166591D01*
X315360Y165649D01*
Y152456D01*
X314898Y152264D01*
X307029Y160134D01*
Y170500D01*
X306913Y171085D01*
X306757Y171318D01*
X306620Y171829D01*
X306100Y172730D01*
X305364Y173466D01*
X304463Y173986D01*
X303457Y174256D01*
X302417D01*
X301411Y173986D01*
X300510Y173466D01*
X299774Y172730D01*
X299254Y171829D01*
X298984Y170824D01*
Y169783D01*
X299254Y168777D01*
X299774Y167876D01*
X300510Y167140D01*
X301411Y166620D01*
X302417Y166350D01*
X303457D01*
X303574Y166382D01*
X303971Y166077D01*
Y159899D01*
X303471Y159692D01*
X297968Y165195D01*
Y168234D01*
X297852Y168819D01*
X297520Y169315D01*
X296890Y169946D01*
Y170824D01*
X296620Y171829D01*
X296100Y172730D01*
X295364Y173466D01*
X294463Y173986D01*
X293457Y174256D01*
X292417D01*
X291411Y173986D01*
X290510Y173466D01*
X289774Y172730D01*
X289254Y171829D01*
X288984Y170824D01*
Y169783D01*
X289010Y169688D01*
X288561Y169429D01*
X286788Y171202D01*
X286620Y171829D01*
X286100Y172730D01*
X285364Y173466D01*
X284463Y173986D01*
X283457Y174256D01*
X282417D01*
X281411Y173986D01*
X280529Y173477D01*
X280264Y173542D01*
X280029Y173639D01*
Y173797D01*
X279913Y174382D01*
X279581Y174879D01*
X279289Y175171D01*
X279289Y175171D01*
X278388Y176073D01*
X278696Y176471D01*
X397867D01*
X400552Y173785D01*
X400510Y173466D01*
X399774Y172730D01*
X399254Y171829D01*
X398984Y170824D01*
Y169783D01*
X399254Y168777D01*
X399774Y167876D01*
X400510Y167140D01*
X401411Y166620D01*
X402417Y166350D01*
X403457D01*
X404463Y166620D01*
X405364Y167140D01*
X406100Y167876D01*
X406620Y168777D01*
X406890Y169783D01*
Y170824D01*
X406620Y171829D01*
X406100Y172730D01*
X405364Y173466D01*
X404968Y173695D01*
X399581Y179081D01*
X399085Y179413D01*
X398500Y179529D01*
X278000D01*
X277415Y179413D01*
X276919Y179081D01*
X276149Y178312D01*
X222379Y232081D01*
X221882Y232413D01*
X221297Y232529D01*
D02*
G37*
G36*
X131000Y189323D02*
X129122D01*
Y185821D01*
X131000D01*
Y189323D01*
D02*
G37*
G36*
X179354Y188362D02*
X176886D01*
Y185500D01*
X179354D01*
Y188362D01*
D02*
G37*
G36*
X175886D02*
X173417D01*
Y185500D01*
X175886D01*
Y188362D01*
D02*
G37*
G36*
X179354Y184500D02*
X176886D01*
Y181638D01*
X179354D01*
Y184500D01*
D02*
G37*
G36*
X175886D02*
X173417D01*
Y181638D01*
X175886D01*
Y184500D01*
D02*
G37*
G36*
X169264Y172500D02*
X166500D01*
Y169146D01*
X169264D01*
Y172500D01*
D02*
G37*
G36*
X165500D02*
X162736D01*
Y169146D01*
X165500D01*
Y172500D01*
D02*
G37*
G36*
X69138Y198094D02*
X55326D01*
Y189795D01*
X65098D01*
Y187717D01*
X65254Y186936D01*
X65696Y186275D01*
X79176Y172795D01*
Y171205D01*
X79291Y170623D01*
X79621Y170129D01*
X80115Y169799D01*
X80697Y169683D01*
X85303D01*
X85885Y169799D01*
X86379Y170129D01*
X86661Y170551D01*
X88002D01*
Y170197D01*
X88118Y169615D01*
X88448Y169121D01*
X88941Y168791D01*
X89524Y168675D01*
X92476D01*
X93059Y168791D01*
X93552Y169121D01*
X93882Y169615D01*
X93998Y170197D01*
Y174803D01*
X93882Y175385D01*
X93552Y175879D01*
X93059Y176209D01*
X92476Y176324D01*
X89524D01*
X88941Y176209D01*
X88448Y175879D01*
X88118Y175385D01*
X88002Y174803D01*
Y174630D01*
X86731D01*
X86709Y174740D01*
X86379Y175233D01*
X85885Y175563D01*
X85303Y175679D01*
X82059D01*
X69177Y188561D01*
Y191796D01*
X69138Y191992D01*
Y198094D01*
D02*
G37*
G36*
X266890Y169803D02*
X263437D01*
Y166350D01*
X266890D01*
Y169803D01*
D02*
G37*
G36*
X262437D02*
X258984D01*
Y166350D01*
X262437D01*
Y169803D01*
D02*
G37*
G36*
X85303Y168317D02*
X83500D01*
Y165819D01*
X86825D01*
Y166795D01*
X86709Y167377D01*
X86379Y167871D01*
X85885Y168201D01*
X85303Y168317D01*
D02*
G37*
G36*
X82500D02*
X80697D01*
X80115Y168201D01*
X79621Y167871D01*
X79291Y167377D01*
X79176Y166795D01*
Y165819D01*
X82500D01*
Y168317D01*
D02*
G37*
G36*
X86825Y164819D02*
X83500D01*
Y162321D01*
X85303D01*
X85885Y162437D01*
X86379Y162767D01*
X86709Y163260D01*
X86825Y163842D01*
Y164819D01*
D02*
G37*
G36*
X82500D02*
X79176D01*
Y163842D01*
X79291Y163260D01*
X79621Y162767D01*
X80115Y162437D01*
X80697Y162321D01*
X82500D01*
Y164819D01*
D02*
G37*
G36*
X200807Y156854D02*
X198043D01*
Y153500D01*
X200807D01*
Y156854D01*
D02*
G37*
G36*
X197043D02*
X194280D01*
Y153500D01*
X197043D01*
Y156854D01*
D02*
G37*
G36*
X393457Y174256D02*
X392417D01*
X391411Y173986D01*
X390510Y173466D01*
X389774Y172730D01*
X389254Y171829D01*
X388984Y170824D01*
Y169783D01*
X389254Y168777D01*
X389752Y167915D01*
X372491Y150654D01*
X372029Y150846D01*
Y154997D01*
X383383Y166350D01*
X383457D01*
X384463Y166620D01*
X385364Y167140D01*
X386100Y167876D01*
X386620Y168777D01*
X386890Y169783D01*
Y170824D01*
X386620Y171829D01*
X386100Y172730D01*
X385364Y173466D01*
X384463Y173986D01*
X383457Y174256D01*
X382417D01*
X381411Y173986D01*
X380510Y173466D01*
X379774Y172730D01*
X379254Y171829D01*
X378984Y170824D01*
Y169783D01*
X379254Y168777D01*
X379774Y167876D01*
X380178Y167472D01*
X369419Y156712D01*
X369087Y156216D01*
X368971Y155631D01*
Y142133D01*
X368465Y141628D01*
X368004Y141874D01*
X368029Y142000D01*
Y161866D01*
X372513Y166350D01*
X373457D01*
X374463Y166620D01*
X375364Y167140D01*
X376100Y167876D01*
X376620Y168777D01*
X376890Y169783D01*
Y170824D01*
X376620Y171829D01*
X376100Y172730D01*
X375364Y173466D01*
X374463Y173986D01*
X373457Y174256D01*
X372417D01*
X371411Y173986D01*
X370510Y173466D01*
X369774Y172730D01*
X369254Y171829D01*
X368984Y170824D01*
Y169783D01*
X369254Y168777D01*
X369752Y167915D01*
X365419Y163581D01*
X365087Y163085D01*
X364971Y162500D01*
Y142633D01*
X347288Y124951D01*
X336494D01*
Y127736D01*
Y131734D01*
X340146D01*
Y131236D01*
X347854D01*
Y133971D01*
X348842D01*
X349199Y133351D01*
X349851Y132699D01*
X350649Y132238D01*
X351539Y132000D01*
X352461D01*
X353351Y132238D01*
X354149Y132699D01*
X354801Y133351D01*
X355261Y134149D01*
X355500Y135039D01*
Y135961D01*
X355261Y136851D01*
X354801Y137649D01*
X354149Y138301D01*
X353351Y138761D01*
X352461Y139000D01*
X351539D01*
X350649Y138761D01*
X349851Y138301D01*
X349199Y137649D01*
X348842Y137029D01*
X347854D01*
Y137764D01*
X340146D01*
Y134793D01*
X336494D01*
Y134854D01*
X328687D01*
Y131673D01*
Y131673D01*
X332591D01*
Y130918D01*
X328687D01*
Y129629D01*
X328225Y129438D01*
X327081Y130581D01*
X326585Y130913D01*
X326000Y131029D01*
X320000D01*
X319415Y130913D01*
X318919Y130581D01*
X291775Y103438D01*
X291313Y103629D01*
Y105327D01*
X287409D01*
X283506D01*
Y104754D01*
X283419Y104696D01*
X283252Y104529D01*
X278807D01*
Y106854D01*
X272280D01*
Y99146D01*
X274971D01*
Y89158D01*
X274351Y88801D01*
X273699Y88149D01*
X273341Y87529D01*
X268500D01*
X267915Y87413D01*
X267419Y87081D01*
X258491Y78154D01*
X258029Y78346D01*
Y79242D01*
X264581Y85794D01*
X264913Y86290D01*
X265029Y86875D01*
Y98713D01*
X265193Y99146D01*
X267957D01*
Y103000D01*
Y106854D01*
X266171D01*
X265979Y107316D01*
X267857Y109194D01*
X268447Y109077D01*
X268593Y108726D01*
X269226Y108092D01*
X270052Y107750D01*
X270948D01*
X271775Y108092D01*
X272408Y108726D01*
X272750Y109552D01*
Y110087D01*
X274712Y112049D01*
X283506D01*
Y108051D01*
Y106082D01*
X287409D01*
X291313D01*
Y108051D01*
Y111988D01*
Y115925D01*
Y119862D01*
Y123799D01*
Y127736D01*
Y131673D01*
Y134854D01*
X283506D01*
Y134793D01*
X269264D01*
X268678Y134677D01*
X268182Y134345D01*
X235919Y102081D01*
X235587Y101585D01*
X235471Y101000D01*
Y73633D01*
X232867Y71029D01*
X228181D01*
X227663Y71927D01*
X226927Y72663D01*
X226026Y73183D01*
X225020Y73453D01*
X223980D01*
X222974Y73183D01*
X222073Y72663D01*
X221337Y71927D01*
X220817Y71026D01*
X220547Y70020D01*
Y68980D01*
X220817Y67974D01*
X221337Y67073D01*
X222073Y66337D01*
X222974Y65817D01*
X223980Y65547D01*
X225020D01*
X226026Y65817D01*
X226927Y66337D01*
X227663Y67073D01*
X228181Y67971D01*
X233500D01*
X234085Y68087D01*
X234581Y68419D01*
X238081Y71919D01*
X238413Y72415D01*
X238529Y73000D01*
Y100366D01*
X269897Y131734D01*
X283506D01*
Y127736D01*
Y123799D01*
Y119045D01*
X268516D01*
X267931Y118929D01*
X267434Y118597D01*
X256419Y107581D01*
X256087Y107085D01*
X255971Y106500D01*
Y89134D01*
X250419Y83581D01*
X250087Y83085D01*
X249971Y82500D01*
Y50668D01*
X250087Y50083D01*
X250419Y49586D01*
X257556Y42449D01*
Y16674D01*
X257673Y16089D01*
X258004Y15593D01*
X259253Y14344D01*
X258984Y13343D01*
Y12302D01*
X259254Y11297D01*
X259774Y10396D01*
X260510Y9660D01*
X261411Y9139D01*
X262417Y8870D01*
X263457D01*
X264463Y9139D01*
X265364Y9660D01*
X266100Y10396D01*
X266620Y11297D01*
X266890Y12302D01*
Y13343D01*
X266620Y14348D01*
X266100Y15250D01*
X265364Y15986D01*
X264463Y16506D01*
X263457Y16776D01*
X262417D01*
X261415Y16507D01*
X260615Y17308D01*
Y43082D01*
X260499Y43667D01*
X260167Y44164D01*
X253029Y51301D01*
Y81867D01*
X258581Y87419D01*
X258913Y87915D01*
X259029Y88500D01*
Y105867D01*
X269149Y115986D01*
X269670D01*
X269862Y115524D01*
X262419Y108081D01*
X262087Y107585D01*
X261971Y107000D01*
Y87508D01*
X255419Y80956D01*
X255087Y80460D01*
X254971Y79875D01*
Y53625D01*
X255087Y53040D01*
X255419Y52544D01*
X261971Y45992D01*
Y22260D01*
X262087Y21675D01*
X262419Y21178D01*
X269252Y14344D01*
X268984Y13343D01*
Y12302D01*
X269254Y11297D01*
X269774Y10396D01*
X270510Y9660D01*
X271411Y9139D01*
X272417Y8870D01*
X273457D01*
X274463Y9139D01*
X275364Y9660D01*
X276100Y10396D01*
X276620Y11297D01*
X276890Y12302D01*
Y13343D01*
X276620Y14348D01*
X276100Y15250D01*
X275364Y15986D01*
X274463Y16506D01*
X273457Y16776D01*
X272417D01*
X271415Y16507D01*
X265029Y22893D01*
Y46625D01*
X264913Y47210D01*
X264581Y47706D01*
X258029Y54259D01*
Y55154D01*
X258491Y55346D01*
X277711Y36126D01*
Y35506D01*
X277670Y35482D01*
X277018Y34830D01*
X276557Y34032D01*
X276319Y33142D01*
Y32220D01*
X276557Y31330D01*
X277018Y30532D01*
X277670Y29880D01*
X278468Y29420D01*
X279358Y29181D01*
X280280D01*
X281170Y29420D01*
X281968Y29880D01*
X282620Y30532D01*
X283080Y31330D01*
X283319Y32220D01*
Y33142D01*
X283080Y34032D01*
X282620Y34830D01*
X281968Y35482D01*
X281170Y35943D01*
X280770Y36050D01*
Y36759D01*
X280654Y37345D01*
X280322Y37841D01*
X276432Y41731D01*
X276623Y42193D01*
X277500D01*
Y44957D01*
X274146D01*
Y44671D01*
X273684Y44479D01*
X260029Y58134D01*
Y59279D01*
X260529Y59378D01*
X260593Y59225D01*
X261226Y58592D01*
X262052Y58250D01*
X262948D01*
X263774Y58592D01*
X264153Y58971D01*
X273312D01*
X273898Y59087D01*
X274394Y59419D01*
X276725Y61750D01*
X277448D01*
X278274Y62093D01*
X278907Y62726D01*
X279250Y63552D01*
Y64448D01*
X278907Y65275D01*
X278274Y65908D01*
X277448Y66250D01*
X276552D01*
X275726Y65908D01*
X275093Y65275D01*
X274750Y64448D01*
Y64100D01*
X272679Y62029D01*
X264153D01*
X263774Y62407D01*
X262948Y62750D01*
X262052D01*
X261226Y62407D01*
X260593Y61774D01*
X260529Y61622D01*
X260029Y61721D01*
Y75366D01*
X269133Y84471D01*
X273341D01*
X273699Y83851D01*
X274351Y83199D01*
X275149Y82739D01*
X276039Y82500D01*
X276961D01*
X277851Y82739D01*
X278649Y83199D01*
X278971Y83521D01*
X279471Y83314D01*
Y74500D01*
X279587Y73915D01*
X279919Y73419D01*
X292185Y61152D01*
X292000Y60461D01*
Y59539D01*
X292238Y58649D01*
X292699Y57851D01*
X293351Y57199D01*
X294149Y56739D01*
X295039Y56500D01*
X295961D01*
X296851Y56739D01*
X297649Y57199D01*
X298301Y57851D01*
X298762Y58649D01*
X299000Y59539D01*
Y60461D01*
X298762Y61351D01*
X298301Y62149D01*
X297649Y62801D01*
X296851Y63261D01*
X295961Y63500D01*
X295039D01*
X294348Y63315D01*
X282529Y75134D01*
Y89867D01*
X283817Y91154D01*
X284193Y90823D01*
X284193Y90367D01*
Y87500D01*
X286957D01*
Y90854D01*
X284692D01*
X284224Y90854D01*
X283893Y91230D01*
X298500Y105837D01*
X299000Y105630D01*
Y105039D01*
X299238Y104149D01*
X299699Y103351D01*
X300351Y102699D01*
X301149Y102239D01*
X302039Y102000D01*
X302961D01*
X303851Y102239D01*
X304649Y102699D01*
X305301Y103351D01*
X305762Y104149D01*
X306000Y105039D01*
Y105961D01*
X305815Y106652D01*
X322702Y123539D01*
X323093Y123275D01*
X322750Y122448D01*
Y121552D01*
X323093Y120726D01*
X323221Y120597D01*
Y120250D01*
X323337Y119665D01*
X323669Y119168D01*
X326403Y116434D01*
X326899Y116103D01*
X327484Y115986D01*
X328687D01*
Y113957D01*
Y110020D01*
Y106083D01*
Y106082D01*
X332591D01*
Y105327D01*
X328687D01*
Y102146D01*
X329471D01*
Y100879D01*
X329587Y100293D01*
X329919Y99797D01*
X335724Y93991D01*
X335533Y93529D01*
X326384D01*
Y95819D01*
X326354Y95967D01*
Y99813D01*
X317267D01*
Y95909D01*
X316512D01*
Y99813D01*
X293646D01*
Y92006D01*
X293707D01*
Y90854D01*
X291280D01*
Y83146D01*
X294778D01*
Y82275D01*
X294786Y82235D01*
X294699Y82149D01*
X294238Y81351D01*
X294000Y80461D01*
Y79539D01*
X294238Y78649D01*
X294699Y77851D01*
X295351Y77199D01*
X296149Y76739D01*
X297039Y76500D01*
X297961D01*
X298851Y76739D01*
X299649Y77199D01*
X300301Y77851D01*
X300762Y78649D01*
X301000Y79539D01*
Y80461D01*
X300762Y81351D01*
X300301Y82149D01*
X299649Y82801D01*
X298851Y83262D01*
X297961Y83500D01*
X297836D01*
Y85236D01*
X297807Y85384D01*
Y90854D01*
X296766D01*
Y92006D01*
X301581D01*
Y57850D01*
X297623Y53892D01*
X297286Y53982D01*
X296501D01*
X295743Y53779D01*
X295062Y53386D01*
X294507Y52831D01*
X294333Y52529D01*
X281854D01*
Y55807D01*
X274146D01*
Y49279D01*
X281854D01*
Y49471D01*
X294333D01*
X294507Y49169D01*
X295062Y48614D01*
X295743Y48221D01*
X296501Y48018D01*
X297286D01*
X298045Y48221D01*
X298725Y48614D01*
X299280Y49169D01*
X299673Y49849D01*
X299876Y50607D01*
Y51393D01*
X299786Y51729D01*
X304192Y56135D01*
X304523Y56631D01*
X304640Y57217D01*
Y58544D01*
X305102Y58736D01*
X313009Y50828D01*
X313124Y50751D01*
Y50607D01*
X313327Y49849D01*
X313720Y49169D01*
X314275Y48614D01*
X314955Y48221D01*
X315714Y48018D01*
X316499D01*
X317257Y48221D01*
X317937Y48614D01*
X318493Y49169D01*
X318667Y49471D01*
X333146D01*
Y46957D01*
X336500D01*
Y49720D01*
X335994D01*
X335727Y50221D01*
X335766Y50279D01*
X340854D01*
Y56807D01*
X333146D01*
Y52529D01*
X318667D01*
X318493Y52831D01*
X317937Y53386D01*
X317257Y53779D01*
X316499Y53982D01*
X315714D01*
X314955Y53779D01*
X314593Y53570D01*
X306608Y61555D01*
Y65088D01*
X307024Y65206D01*
X307108Y65210D01*
X307726Y64592D01*
X308552Y64250D01*
X309448D01*
X310275Y64592D01*
X310653Y64971D01*
X311693D01*
Y62646D01*
X318220D01*
Y70354D01*
X312309D01*
X308577Y74086D01*
Y77929D01*
X309077Y78063D01*
X309199Y77851D01*
X309851Y77199D01*
X310649Y76739D01*
X311539Y76500D01*
X312461D01*
X312999Y76644D01*
X315111Y74533D01*
X315607Y74201D01*
X316106Y74102D01*
Y72252D01*
X323894D01*
Y78976D01*
X323894D01*
Y79024D01*
X323894D01*
Y80856D01*
X325441D01*
X326026Y80973D01*
X326088Y81014D01*
X327146D01*
Y79280D01*
X334854D01*
Y81514D01*
X336146D01*
Y79779D01*
X343854D01*
Y86307D01*
X336146D01*
Y84573D01*
X334854D01*
Y85807D01*
X330765D01*
X330581Y86081D01*
X328654Y88009D01*
X328846Y88471D01*
X342866D01*
X347471Y83867D01*
Y46633D01*
X342367Y41529D01*
X296000D01*
X295415Y41413D01*
X294919Y41081D01*
X284419Y30581D01*
X284087Y30085D01*
X283971Y29500D01*
Y17190D01*
X283535Y16755D01*
X283457Y16776D01*
X282417D01*
X281411Y16506D01*
X280510Y15986D01*
X279774Y15250D01*
X279254Y14348D01*
X278984Y13343D01*
Y12302D01*
X279254Y11297D01*
X279774Y10396D01*
X280510Y9660D01*
X281411Y9139D01*
X282417Y8870D01*
X283457D01*
X284463Y9139D01*
X285364Y9660D01*
X286100Y10396D01*
X286620Y11297D01*
X286890Y12302D01*
Y13343D01*
X286620Y14348D01*
X286194Y15088D01*
X286581Y15475D01*
X286913Y15972D01*
X287029Y16557D01*
Y28866D01*
X296634Y38471D01*
X300654D01*
X300846Y38009D01*
X295333Y32496D01*
X295001Y31999D01*
X294885Y31414D01*
Y24095D01*
X294419Y23629D01*
X294087Y23133D01*
X293971Y22547D01*
Y17190D01*
X293535Y16755D01*
X293457Y16776D01*
X292417D01*
X291411Y16506D01*
X290510Y15986D01*
X289774Y15250D01*
X289254Y14348D01*
X288984Y13343D01*
Y12302D01*
X289254Y11297D01*
X289774Y10396D01*
X290510Y9660D01*
X291411Y9139D01*
X292417Y8870D01*
X293457D01*
X294463Y9139D01*
X295364Y9660D01*
X296100Y10396D01*
X296620Y11297D01*
X296890Y12302D01*
Y13343D01*
X296620Y14348D01*
X296194Y15088D01*
X296581Y15475D01*
X296913Y15972D01*
X297029Y16557D01*
Y21914D01*
X297581Y22466D01*
X297581Y22466D01*
X297913Y22962D01*
X298029Y23547D01*
X297944Y23979D01*
Y30781D01*
X302879Y35716D01*
X302926Y35705D01*
X303008Y35508D01*
X303068Y35154D01*
X302791Y34740D01*
X302676Y34157D01*
Y31205D01*
X302791Y30623D01*
X303121Y30129D01*
X303615Y29799D01*
X304197Y29683D01*
X308803D01*
X309385Y29799D01*
X309879Y30129D01*
X310209Y30623D01*
X310314Y31152D01*
X312686D01*
X312791Y30623D01*
X313121Y30129D01*
X313615Y29799D01*
X314197Y29683D01*
X318803D01*
X319385Y29799D01*
X319879Y30129D01*
X320209Y30623D01*
X320314Y31152D01*
X322686D01*
X322791Y30623D01*
X323121Y30129D01*
X323615Y29799D01*
X324197Y29683D01*
X328803D01*
X329385Y29799D01*
X329879Y30129D01*
X330209Y30623D01*
X330314Y31152D01*
X332686D01*
X332791Y30623D01*
X333121Y30129D01*
X333615Y29799D01*
X334197Y29683D01*
X338803D01*
X339385Y29799D01*
X339879Y30129D01*
X340209Y30623D01*
X340324Y31205D01*
Y31561D01*
X342578D01*
X342699Y31351D01*
X343351Y30699D01*
X344149Y30239D01*
X345039Y30000D01*
X345961D01*
X346851Y30239D01*
X347649Y30699D01*
X348301Y31351D01*
X348762Y32149D01*
X349000Y33039D01*
Y33961D01*
X348762Y34851D01*
X348301Y35649D01*
X347649Y36301D01*
X346851Y36762D01*
X346603Y36828D01*
X346474Y37311D01*
X352009Y42846D01*
X352471Y42654D01*
Y27134D01*
X344419Y19081D01*
X344087Y18585D01*
X343971Y18000D01*
Y17190D01*
X343535Y16755D01*
X343457Y16776D01*
X342417D01*
X341411Y16506D01*
X340510Y15986D01*
X339774Y15250D01*
X339254Y14348D01*
X338984Y13343D01*
Y12302D01*
X339254Y11297D01*
X339774Y10396D01*
X340510Y9660D01*
X341411Y9139D01*
X342417Y8870D01*
X343457D01*
X344463Y9139D01*
X345364Y9660D01*
X346100Y10396D01*
X346620Y11297D01*
X346890Y12302D01*
Y13343D01*
X346620Y14348D01*
X346194Y15088D01*
X346581Y15475D01*
X346913Y15972D01*
X347029Y16557D01*
Y17367D01*
X355081Y25419D01*
X355413Y25915D01*
X355529Y26500D01*
Y85500D01*
X355413Y86085D01*
X355081Y86581D01*
X346581Y95081D01*
X346085Y95413D01*
X345854Y95459D01*
Y97457D01*
X342000D01*
X338146D01*
Y96549D01*
X337684Y96358D01*
X332529Y101512D01*
Y102146D01*
X336494D01*
Y105203D01*
X336994Y105470D01*
X337108Y105394D01*
X337693Y105278D01*
X338146D01*
Y101779D01*
X345854D01*
Y103014D01*
X350000D01*
Y102539D01*
X350238Y101649D01*
X349836Y101346D01*
X349775Y101408D01*
X348948Y101750D01*
X348052D01*
X347225Y101408D01*
X346592Y100775D01*
X346354Y100199D01*
X345854Y100299D01*
Y101221D01*
X342500D01*
Y98457D01*
X345854D01*
Y98701D01*
X346354Y98801D01*
X346592Y98225D01*
X347225Y97593D01*
X348052Y97250D01*
X348337D01*
X353250Y92337D01*
Y91552D01*
X353592Y90725D01*
X354225Y90092D01*
X355052Y89750D01*
X355948D01*
X356774Y90092D01*
X357407Y90725D01*
X357750Y91552D01*
Y92448D01*
X357407Y93274D01*
X356774Y93907D01*
X355948Y94250D01*
X355663D01*
X350750Y99163D01*
Y99948D01*
X350647Y100196D01*
X351071Y100479D01*
X351351Y100199D01*
X352149Y99739D01*
X353039Y99500D01*
X353961D01*
X354851Y99739D01*
X355649Y100199D01*
X356301Y100851D01*
X356762Y101649D01*
X357000Y102539D01*
Y103130D01*
X357500Y103337D01*
X360471Y100366D01*
Y19634D01*
X356094Y15256D01*
X355364Y15986D01*
X354463Y16506D01*
X353457Y16776D01*
X352417D01*
X351411Y16506D01*
X350510Y15986D01*
X349774Y15250D01*
X349254Y14348D01*
X348984Y13343D01*
Y12302D01*
X349254Y11297D01*
X349774Y10396D01*
X350510Y9660D01*
X351411Y9139D01*
X352417Y8870D01*
X353457D01*
X354463Y9139D01*
X355364Y9660D01*
X356100Y10396D01*
X356620Y11297D01*
X356818Y12034D01*
X357085Y12087D01*
X357581Y12419D01*
X358484Y13321D01*
X358984Y13114D01*
Y12302D01*
X359254Y11297D01*
X359774Y10396D01*
X360510Y9660D01*
X361411Y9139D01*
X362417Y8870D01*
X363457D01*
X364463Y9139D01*
X365364Y9660D01*
X366100Y10396D01*
X366620Y11297D01*
X366890Y12302D01*
Y13343D01*
X366620Y14348D01*
X366194Y15088D01*
X366581Y15475D01*
X366913Y15972D01*
X367029Y16557D01*
Y56280D01*
X367581Y56832D01*
X367913Y57328D01*
X368029Y57914D01*
Y99154D01*
X368491Y99346D01*
X374971Y92866D01*
Y55297D01*
X374419Y54745D01*
X374087Y54249D01*
X373971Y53664D01*
Y17190D01*
X373535Y16755D01*
X373457Y16776D01*
X372417D01*
X371411Y16506D01*
X370510Y15986D01*
X369774Y15250D01*
X369254Y14348D01*
X368984Y13343D01*
Y12302D01*
X369254Y11297D01*
X369774Y10396D01*
X370510Y9660D01*
X371411Y9139D01*
X372417Y8870D01*
X373457D01*
X374463Y9139D01*
X375364Y9660D01*
X376100Y10396D01*
X376620Y11297D01*
X376890Y12302D01*
Y13343D01*
X376620Y14348D01*
X376194Y15088D01*
X376581Y15475D01*
X376913Y15972D01*
X377029Y16557D01*
Y53030D01*
X377581Y53582D01*
X377913Y54078D01*
X378029Y54664D01*
Y93500D01*
X377913Y94085D01*
X377581Y94581D01*
X358607Y113556D01*
X358798Y114018D01*
X363319D01*
X384971Y92366D01*
Y55047D01*
X384419Y54495D01*
X384087Y53999D01*
X383971Y53414D01*
Y17190D01*
X383535Y16755D01*
X383457Y16776D01*
X382417D01*
X381411Y16506D01*
X380510Y15986D01*
X379774Y15250D01*
X379254Y14348D01*
X378984Y13343D01*
Y12302D01*
X379254Y11297D01*
X379774Y10396D01*
X380510Y9660D01*
X381411Y9139D01*
X382417Y8870D01*
X383457D01*
X384463Y9139D01*
X385364Y9660D01*
X386100Y10396D01*
X386620Y11297D01*
X386890Y12302D01*
Y13343D01*
X386620Y14348D01*
X386194Y15088D01*
X386581Y15475D01*
X386913Y15972D01*
X387029Y16557D01*
Y52780D01*
X387581Y53332D01*
X387913Y53828D01*
X388029Y54414D01*
Y93000D01*
X387913Y93585D01*
X387581Y94081D01*
X365034Y116629D01*
X364538Y116960D01*
X363953Y117077D01*
X336494D01*
Y117955D01*
X352484D01*
X353069Y118071D01*
X353566Y118403D01*
X374081Y138919D01*
X374413Y139415D01*
X374529Y140000D01*
Y148366D01*
X392513Y166350D01*
X393457D01*
X394463Y166620D01*
X395364Y167140D01*
X396100Y167876D01*
X396620Y168777D01*
X396890Y169783D01*
Y170824D01*
X396620Y171829D01*
X396100Y172730D01*
X395364Y173466D01*
X394463Y173986D01*
X393457Y174256D01*
D02*
G37*
G36*
X86825Y152181D02*
X83500D01*
Y149683D01*
X85303D01*
X85885Y149799D01*
X86379Y150129D01*
X86709Y150622D01*
X86825Y151205D01*
Y152181D01*
D02*
G37*
G36*
X82500D02*
X79176D01*
Y151205D01*
X79291Y150622D01*
X79621Y150129D01*
X80115Y149799D01*
X80697Y149683D01*
X82500D01*
Y152181D01*
D02*
G37*
G36*
X286500Y152003D02*
X283146D01*
Y149240D01*
X286500D01*
Y152003D01*
D02*
G37*
G36*
X200807Y152500D02*
X198043D01*
Y149146D01*
X200807D01*
Y152500D01*
D02*
G37*
G36*
X197043D02*
X194280D01*
Y149146D01*
X197043D01*
Y152500D01*
D02*
G37*
G36*
X290854Y148240D02*
X287500D01*
Y145476D01*
X290854D01*
Y148240D01*
D02*
G37*
G36*
X286500D02*
X283146D01*
Y145476D01*
X286500D01*
Y148240D01*
D02*
G37*
G36*
X238354Y147677D02*
X235000D01*
Y144913D01*
X238354D01*
Y147677D01*
D02*
G37*
G36*
X347854Y144850D02*
X344500D01*
Y142087D01*
X347854D01*
Y144850D01*
D02*
G37*
G36*
X343500D02*
X340146D01*
Y142087D01*
X343500D01*
Y144850D01*
D02*
G37*
G36*
X238354Y143913D02*
X235000D01*
Y141150D01*
X238354D01*
Y143913D01*
D02*
G37*
G36*
X234000D02*
X230646D01*
Y141150D01*
X234000D01*
Y143913D01*
D02*
G37*
G36*
X347854Y141087D02*
X344500D01*
Y138323D01*
X347854D01*
Y141087D01*
D02*
G37*
G36*
X343500D02*
X340146D01*
Y138323D01*
X343500D01*
Y141087D01*
D02*
G37*
G36*
X198854Y128220D02*
X191146D01*
Y124577D01*
X189744Y123175D01*
X189302Y122513D01*
X189210Y122050D01*
X189173Y122014D01*
X189130Y122001D01*
X188563Y122096D01*
X188379Y122371D01*
X187885Y122701D01*
X187303Y122817D01*
X182697D01*
X182115Y122701D01*
X181621Y122371D01*
X181291Y121878D01*
X181175Y121295D01*
Y118342D01*
X181291Y117760D01*
X181621Y117267D01*
X182115Y116937D01*
X182182Y116924D01*
X182288Y116393D01*
X182267Y116379D01*
X181937Y115885D01*
X181821Y115303D01*
Y113958D01*
X176500D01*
X175817Y113822D01*
X175238Y113435D01*
X169577Y107773D01*
X169190Y107194D01*
X169054Y106511D01*
Y102027D01*
X168683Y101472D01*
X168512Y100611D01*
Y96960D01*
X168683Y96099D01*
X169170Y95370D01*
X169899Y94882D01*
X170760Y94711D01*
X171620Y94882D01*
X172321Y95351D01*
X172462Y95415D01*
X172797D01*
X172938Y95351D01*
X173640Y94882D01*
X174000Y94811D01*
Y98785D01*
Y102760D01*
X173640Y102688D01*
X173123Y102343D01*
X172623Y102602D01*
Y105772D01*
X177239Y110389D01*
X181882D01*
X181937Y110115D01*
X182267Y109621D01*
X182760Y109291D01*
X183343Y109176D01*
X186295D01*
X186878Y109291D01*
X187371Y109621D01*
X187701Y110115D01*
X187817Y110697D01*
Y115303D01*
X187701Y115885D01*
X187403Y116331D01*
X187444Y116592D01*
X187539Y116868D01*
X187885Y116937D01*
X188379Y117267D01*
X188661Y117689D01*
X189772D01*
X190552Y117844D01*
X191214Y118286D01*
X192628Y119701D01*
X193070Y120362D01*
X193162Y120825D01*
X194029Y121693D01*
X198854D01*
Y128220D01*
D02*
G37*
G36*
X270948Y125750D02*
X270052D01*
X269226Y125408D01*
X268593Y124775D01*
X268580Y124744D01*
X268336Y124581D01*
X267652Y123897D01*
X267336Y123835D01*
X266840Y123503D01*
X240919Y97581D01*
X240587Y97085D01*
X240471Y96500D01*
Y61133D01*
X230366Y51029D01*
X228181D01*
X227663Y51927D01*
X226927Y52663D01*
X226026Y53183D01*
X225020Y53453D01*
X223980D01*
X222974Y53183D01*
X222073Y52663D01*
X221337Y51927D01*
X220817Y51026D01*
X220547Y50020D01*
Y48980D01*
X220817Y47974D01*
X221337Y47073D01*
X222073Y46337D01*
X222974Y45817D01*
X223980Y45547D01*
X225020D01*
X226026Y45817D01*
X226927Y46337D01*
X227663Y47073D01*
X228181Y47971D01*
X231000D01*
X231585Y48087D01*
X232081Y48419D01*
X243081Y59419D01*
X243413Y59915D01*
X243529Y60500D01*
Y95867D01*
X268609Y120946D01*
X268924Y121009D01*
X269421Y121340D01*
X269542Y121461D01*
X270052Y121250D01*
X270948D01*
X271775Y121592D01*
X272408Y122225D01*
X272750Y123052D01*
Y123948D01*
X272408Y124775D01*
X271775Y125408D01*
X270948Y125750D01*
D02*
G37*
G36*
X121354Y123221D02*
X118000D01*
Y120457D01*
X121354D01*
Y123221D01*
D02*
G37*
G36*
X117000D02*
X113646D01*
Y120457D01*
X117000D01*
Y123221D01*
D02*
G37*
G36*
X121354Y119457D02*
X118000D01*
Y116693D01*
X121354D01*
Y119457D01*
D02*
G37*
G36*
X117000D02*
X113646D01*
Y116693D01*
X117000D01*
Y119457D01*
D02*
G37*
G36*
X193658Y116824D02*
X192681D01*
Y113500D01*
X195179D01*
Y115303D01*
X195063Y115885D01*
X194733Y116379D01*
X194240Y116709D01*
X193658Y116824D01*
D02*
G37*
G36*
X191681D02*
X190705D01*
X190122Y116709D01*
X189629Y116379D01*
X189299Y115885D01*
X189183Y115303D01*
Y113500D01*
X191681D01*
Y116824D01*
D02*
G37*
G36*
X159004Y151642D02*
X147988D01*
Y137358D01*
X149961D01*
Y124350D01*
X140150D01*
Y113850D01*
X156453D01*
X156650Y113811D01*
X165994D01*
X167246Y112558D01*
X167246Y112558D01*
X167908Y112116D01*
X168410Y112016D01*
X169052Y111750D01*
X169948D01*
X170774Y112092D01*
X171407Y112725D01*
X171750Y113552D01*
Y114448D01*
X171407Y115275D01*
X170774Y115908D01*
X169948Y116250D01*
X169322D01*
X168280Y117292D01*
X167619Y117734D01*
X166838Y117889D01*
X163850D01*
Y124350D01*
X154039D01*
Y137358D01*
X159004D01*
Y151642D01*
D02*
G37*
G36*
X195179Y112500D02*
X192681D01*
Y109176D01*
X193658D01*
X194240Y109291D01*
X194733Y109621D01*
X195063Y110115D01*
X195179Y110697D01*
Y112500D01*
D02*
G37*
G36*
X191681D02*
X189183D01*
Y110697D01*
X189299Y110115D01*
X189629Y109621D01*
X190122Y109291D01*
X190705Y109176D01*
X191681D01*
Y112500D01*
D02*
G37*
G36*
X271721Y106854D02*
X268957D01*
Y103500D01*
X271721D01*
Y106854D01*
D02*
G37*
G36*
X226520Y110453D02*
X225480D01*
X224474Y110183D01*
X223573Y109663D01*
X222837Y108927D01*
X222317Y108026D01*
X222047Y107020D01*
Y105980D01*
X222317Y104974D01*
X222837Y104073D01*
X223573Y103337D01*
X224474Y102817D01*
X225480Y102547D01*
X226520D01*
X227526Y102817D01*
X228427Y103337D01*
X229163Y104073D01*
X229683Y104974D01*
X229953Y105980D01*
Y107020D01*
X229683Y108026D01*
X229163Y108927D01*
X228427Y109663D01*
X227526Y110183D01*
X226520Y110453D01*
D02*
G37*
G36*
X182448Y106750D02*
X181552D01*
X180726Y106407D01*
X180093Y105774D01*
X179791Y105046D01*
X177561Y102816D01*
X176035D01*
Y102768D01*
X175594Y102532D01*
X175360Y102688D01*
X175000Y102760D01*
Y98785D01*
Y94811D01*
X175360Y94882D01*
X175594Y95039D01*
X176035Y94803D01*
Y94754D01*
X180445D01*
Y99932D01*
X182985Y102473D01*
X183274Y102593D01*
X183907Y103226D01*
X184250Y104052D01*
Y104948D01*
X183907Y105774D01*
X183274Y106407D01*
X182448Y106750D01*
D02*
G37*
G36*
X271721Y102500D02*
X268957D01*
Y99146D01*
X271721D01*
Y102500D01*
D02*
G37*
G36*
X341500Y101221D02*
X338146D01*
Y98457D01*
X341500D01*
Y101221D01*
D02*
G37*
G36*
X226520Y100453D02*
X226500D01*
Y97000D01*
X229953D01*
Y97020D01*
X229683Y98026D01*
X229163Y98927D01*
X228427Y99663D01*
X227526Y100183D01*
X226520Y100453D01*
D02*
G37*
G36*
X225500D02*
X225480D01*
X224474Y100183D01*
X223573Y99663D01*
X222837Y98927D01*
X222317Y98026D01*
X222047Y97020D01*
Y97000D01*
X225500D01*
Y100453D01*
D02*
G37*
G36*
X229953Y96000D02*
X226500D01*
Y92547D01*
X226520D01*
X227526Y92817D01*
X228427Y93337D01*
X229163Y94073D01*
X229683Y94974D01*
X229953Y95980D01*
Y96000D01*
D02*
G37*
G36*
X225500D02*
X222047D01*
Y95980D01*
X222317Y94974D01*
X222837Y94073D01*
X223573Y93337D01*
X224474Y92817D01*
X225480Y92547D01*
X225500D01*
Y96000D01*
D02*
G37*
G36*
X287957Y90854D02*
Y87500D01*
X290721D01*
Y90854D01*
X287957D01*
D02*
G37*
G36*
X290721Y86500D02*
X287957D01*
Y83146D01*
X290721D01*
Y86500D01*
D02*
G37*
G36*
X286957D02*
X284193D01*
Y83146D01*
X286957D01*
Y86500D01*
D02*
G37*
G36*
X72354Y82264D02*
X69000D01*
Y79500D01*
X72354D01*
Y82264D01*
D02*
G37*
G36*
X68000D02*
X64646D01*
Y79500D01*
X68000D01*
Y82264D01*
D02*
G37*
G36*
X49465Y81756D02*
X48374D01*
Y78500D01*
X49465D01*
Y81756D01*
D02*
G37*
G36*
X11453Y79953D02*
X8000D01*
Y76500D01*
X11453D01*
Y79953D01*
D02*
G37*
G36*
X7000D02*
X3547D01*
Y76500D01*
X7000D01*
Y79953D01*
D02*
G37*
G36*
X343854Y79220D02*
X340500D01*
Y76457D01*
X343854D01*
Y79220D01*
D02*
G37*
G36*
X339500D02*
X336146D01*
Y76457D01*
X339500D01*
Y79220D01*
D02*
G37*
G36*
X334854Y78720D02*
X331500D01*
Y75957D01*
X334854D01*
Y78720D01*
D02*
G37*
G36*
X330500D02*
X327146D01*
Y75957D01*
X330500D01*
Y78720D01*
D02*
G37*
G36*
X72354Y78500D02*
X69000D01*
Y75736D01*
X72354D01*
Y78500D01*
D02*
G37*
G36*
X68000D02*
X64646D01*
Y75736D01*
X68000D01*
Y78500D01*
D02*
G37*
G36*
X343854Y75457D02*
X340500D01*
Y72693D01*
X343854D01*
Y75457D01*
D02*
G37*
G36*
X339500D02*
X336146D01*
Y72693D01*
X339500D01*
Y75457D01*
D02*
G37*
G36*
X334854Y74957D02*
X331500D01*
Y72193D01*
X334854D01*
Y74957D01*
D02*
G37*
G36*
X330500D02*
X327146D01*
Y72193D01*
X330500D01*
Y74957D01*
D02*
G37*
G36*
X11453Y75500D02*
X8000D01*
Y72047D01*
X11453D01*
Y75500D01*
D02*
G37*
G36*
X7000D02*
X3547D01*
Y72047D01*
X7000D01*
Y75500D01*
D02*
G37*
G36*
X325307Y70354D02*
X322543D01*
Y67000D01*
X325307D01*
Y70354D01*
D02*
G37*
G36*
X321543D02*
X318779D01*
Y67000D01*
X321543D01*
Y70354D01*
D02*
G37*
G36*
X28771Y66819D02*
X28090D01*
Y64126D01*
X31898D01*
X31855Y64452D01*
X31536Y65222D01*
X31028Y65883D01*
X30367Y66391D01*
X29597Y66710D01*
X28771Y66819D01*
D02*
G37*
G36*
X27090D02*
X26408D01*
X25582Y66710D01*
X24812Y66391D01*
X24151Y65883D01*
X23643Y65222D01*
X23325Y64452D01*
X23282Y64126D01*
X27090D01*
Y66819D01*
D02*
G37*
G36*
X13810D02*
X12342D01*
Y64126D01*
X16937D01*
X16894Y64452D01*
X16575Y65222D01*
X16068Y65883D01*
X15406Y66391D01*
X14636Y66710D01*
X13810Y66819D01*
D02*
G37*
G36*
X11342D02*
X9873D01*
X9047Y66710D01*
X8277Y66391D01*
X7615Y65883D01*
X7108Y65222D01*
X6789Y64452D01*
X6746Y64126D01*
X11342D01*
Y66819D01*
D02*
G37*
G36*
X325307Y66000D02*
X322543D01*
Y62646D01*
X325307D01*
Y66000D01*
D02*
G37*
G36*
X321543D02*
X318779D01*
Y62646D01*
X321543D01*
Y66000D01*
D02*
G37*
G36*
X55303Y62817D02*
X53500D01*
Y60319D01*
X56824D01*
Y61295D01*
X56709Y61878D01*
X56379Y62371D01*
X55885Y62701D01*
X55303Y62817D01*
D02*
G37*
G36*
X52500D02*
X50697D01*
X50115Y62701D01*
X49621Y62371D01*
X49291Y61878D01*
X49176Y61295D01*
Y60319D01*
X52500D01*
Y62817D01*
D02*
G37*
G36*
X225020Y63453D02*
X225000D01*
Y60000D01*
X228453D01*
Y60020D01*
X228183Y61026D01*
X227663Y61927D01*
X226927Y62663D01*
X226026Y63183D01*
X225020Y63453D01*
D02*
G37*
G36*
X224000D02*
X223980D01*
X222974Y63183D01*
X222073Y62663D01*
X221337Y61927D01*
X220817Y61026D01*
X220547Y60020D01*
Y60000D01*
X224000D01*
Y63453D01*
D02*
G37*
G36*
X56824Y59319D02*
X53500D01*
Y56821D01*
X55303D01*
X55885Y56937D01*
X56379Y57267D01*
X56709Y57760D01*
X56824Y58342D01*
Y59319D01*
D02*
G37*
G36*
X52500D02*
X49176D01*
Y58342D01*
X49291Y57760D01*
X49621Y57267D01*
X50115Y56937D01*
X50697Y56821D01*
X52500D01*
Y59319D01*
D02*
G37*
G36*
X228453Y59000D02*
X225000D01*
Y55547D01*
X225020D01*
X226026Y55817D01*
X226927Y56337D01*
X227663Y57073D01*
X228183Y57974D01*
X228453Y58980D01*
Y59000D01*
D02*
G37*
G36*
X224000D02*
X220547D01*
Y58980D01*
X220817Y57974D01*
X221337Y57073D01*
X222073Y56337D01*
X222974Y55817D01*
X223980Y55547D01*
X224000D01*
Y59000D01*
D02*
G37*
G36*
X34692Y54902D02*
X31830D01*
Y52827D01*
X34692D01*
Y54902D01*
D02*
G37*
G36*
X340854Y49720D02*
X337500D01*
Y46957D01*
X340854D01*
Y49720D01*
D02*
G37*
G36*
X281854Y48720D02*
X278500D01*
Y45957D01*
X281854D01*
Y48720D01*
D02*
G37*
G36*
X277500D02*
X274146D01*
Y45957D01*
X277500D01*
Y48720D01*
D02*
G37*
G36*
X340854Y45957D02*
X337500D01*
Y43193D01*
X340854D01*
Y45957D01*
D02*
G37*
G36*
X336500D02*
X333146D01*
Y43193D01*
X336500D01*
Y45957D01*
D02*
G37*
G36*
X281854Y44957D02*
X278500D01*
Y42193D01*
X281854D01*
Y44957D01*
D02*
G37*
G36*
X225020Y43453D02*
X223980D01*
X222974Y43183D01*
X222073Y42663D01*
X221337Y41927D01*
X220817Y41026D01*
X220547Y40020D01*
Y38980D01*
X220817Y37974D01*
X221337Y37073D01*
X222073Y36337D01*
X222974Y35817D01*
X223980Y35547D01*
X225020D01*
X226026Y35817D01*
X226927Y36337D01*
X227663Y37073D01*
X228183Y37974D01*
X228453Y38980D01*
Y40020D01*
X228183Y41026D01*
X227663Y41927D01*
X226927Y42663D01*
X226026Y43183D01*
X225020Y43453D01*
D02*
G37*
G36*
X46854Y31220D02*
X43500D01*
Y28457D01*
X46854D01*
Y31220D01*
D02*
G37*
G36*
X42500D02*
X39146D01*
Y28457D01*
X42500D01*
Y31220D01*
D02*
G37*
G36*
X34692Y30173D02*
X31830D01*
Y28098D01*
X34692D01*
Y30173D01*
D02*
G37*
G36*
X46854Y27457D02*
X43500D01*
Y24693D01*
X46854D01*
Y27457D01*
D02*
G37*
G36*
X42500D02*
X39146D01*
Y24693D01*
X42500D01*
Y27457D01*
D02*
G37*
G36*
X318803Y28317D02*
X314197D01*
X313615Y28201D01*
X313121Y27871D01*
X312791Y27378D01*
X312675Y26795D01*
Y23843D01*
X312791Y23260D01*
X313121Y22767D01*
X313615Y22437D01*
X314197Y22321D01*
X314971D01*
Y17019D01*
X314459Y16507D01*
X313457Y16776D01*
X312417D01*
X311411Y16506D01*
X310510Y15986D01*
X309774Y15250D01*
X309254Y14348D01*
X308984Y13343D01*
Y12302D01*
X309254Y11297D01*
X309774Y10396D01*
X310510Y9660D01*
X311411Y9139D01*
X312417Y8870D01*
X313457D01*
X314463Y9139D01*
X315364Y9660D01*
X316100Y10396D01*
X316620Y11297D01*
X316890Y12302D01*
Y13343D01*
X316621Y14344D01*
X317581Y15304D01*
X317913Y15801D01*
X318029Y16386D01*
Y22321D01*
X318803D01*
X319385Y22437D01*
X319879Y22767D01*
X320209Y23260D01*
X320324Y23843D01*
Y26795D01*
X320209Y27378D01*
X319879Y27871D01*
X319385Y28201D01*
X318803Y28317D01*
D02*
G37*
G36*
X31898Y18874D02*
X28090D01*
Y16181D01*
X28771D01*
X29597Y16290D01*
X30367Y16609D01*
X31028Y17117D01*
X31536Y17778D01*
X31855Y18548D01*
X31898Y18874D01*
D02*
G37*
G36*
X27090D02*
X23282D01*
X23325Y18548D01*
X23643Y17778D01*
X24151Y17117D01*
X24812Y16609D01*
X25582Y16290D01*
X26408Y16181D01*
X27090D01*
Y18874D01*
D02*
G37*
G36*
X16937D02*
X12342D01*
Y16181D01*
X13810D01*
X14636Y16290D01*
X15406Y16609D01*
X16068Y17117D01*
X16575Y17778D01*
X16894Y18548D01*
X16937Y18874D01*
D02*
G37*
G36*
X11342D02*
X6746D01*
X6789Y18548D01*
X7108Y17778D01*
X7615Y17117D01*
X8277Y16609D01*
X9047Y16290D01*
X9873Y16181D01*
X11342D01*
Y18874D01*
D02*
G37*
G36*
X406890Y16776D02*
X398984D01*
Y8870D01*
X406890D01*
Y16776D01*
D02*
G37*
G36*
X393457D02*
X392417D01*
X391411Y16506D01*
X390510Y15986D01*
X389774Y15250D01*
X389254Y14348D01*
X388984Y13343D01*
Y12302D01*
X389254Y11297D01*
X389774Y10396D01*
X390510Y9660D01*
X391411Y9139D01*
X392417Y8870D01*
X393457D01*
X394463Y9139D01*
X395364Y9660D01*
X396100Y10396D01*
X396620Y11297D01*
X396890Y12302D01*
Y13343D01*
X396620Y14348D01*
X396100Y15250D01*
X395364Y15986D01*
X394463Y16506D01*
X393457Y16776D01*
D02*
G37*
G36*
X338803Y28317D02*
X334197D01*
X333615Y28201D01*
X333121Y27871D01*
X332791Y27378D01*
X332676Y26795D01*
Y24484D01*
X331856Y23664D01*
X331524Y23168D01*
X331408Y22583D01*
Y16504D01*
X330510Y15986D01*
X329774Y15250D01*
X329254Y14348D01*
X328984Y13343D01*
Y12302D01*
X329254Y11297D01*
X329774Y10396D01*
X330510Y9660D01*
X331411Y9139D01*
X332417Y8870D01*
X333457D01*
X334463Y9139D01*
X335364Y9660D01*
X336100Y10396D01*
X336620Y11297D01*
X336890Y12302D01*
Y13343D01*
X336620Y14348D01*
X336100Y15250D01*
X335364Y15986D01*
X334466Y16504D01*
Y21949D01*
X334838Y22321D01*
X338803D01*
X339385Y22437D01*
X339879Y22767D01*
X340209Y23260D01*
X340324Y23843D01*
Y26795D01*
X340209Y27378D01*
X339879Y27871D01*
X339385Y28201D01*
X338803Y28317D01*
D02*
G37*
G36*
X328803D02*
X324197D01*
X323615Y28201D01*
X323121Y27871D01*
X322791Y27378D01*
X322675Y26795D01*
Y24484D01*
X321856Y23664D01*
X321524Y23168D01*
X321408Y22583D01*
Y16504D01*
X320510Y15986D01*
X319774Y15250D01*
X319254Y14348D01*
X318984Y13343D01*
Y12302D01*
X319254Y11297D01*
X319774Y10396D01*
X320510Y9660D01*
X321411Y9139D01*
X322417Y8870D01*
X323457D01*
X324463Y9139D01*
X325364Y9660D01*
X326100Y10396D01*
X326620Y11297D01*
X326890Y12302D01*
Y13343D01*
X326620Y14348D01*
X326100Y15250D01*
X325364Y15986D01*
X324466Y16504D01*
Y21949D01*
X324838Y22321D01*
X328803D01*
X329385Y22437D01*
X329879Y22767D01*
X330209Y23260D01*
X330325Y23843D01*
Y26795D01*
X330209Y27378D01*
X329879Y27871D01*
X329385Y28201D01*
X328803Y28317D01*
D02*
G37*
G36*
X308803D02*
X304197D01*
X303615Y28201D01*
X303121Y27871D01*
X302791Y27378D01*
X302676Y26795D01*
Y24484D01*
X301856Y23664D01*
X301524Y23168D01*
X301408Y22583D01*
Y16504D01*
X300510Y15986D01*
X299774Y15250D01*
X299254Y14348D01*
X298984Y13343D01*
Y12302D01*
X299254Y11297D01*
X299774Y10396D01*
X300510Y9660D01*
X301411Y9139D01*
X302417Y8870D01*
X303457D01*
X304463Y9139D01*
X305364Y9660D01*
X306100Y10396D01*
X306620Y11297D01*
X306890Y12302D01*
Y13343D01*
X306620Y14348D01*
X306100Y15250D01*
X305364Y15986D01*
X304466Y16504D01*
Y21949D01*
X304838Y22321D01*
X308803D01*
X309385Y22437D01*
X309879Y22767D01*
X310209Y23260D01*
X310325Y23843D01*
Y26795D01*
X310209Y27378D01*
X309879Y27871D01*
X309385Y28201D01*
X308803Y28317D01*
D02*
G37*
%LPD*%
G36*
X317329Y90642D02*
X317445Y90057D01*
X317777Y89560D01*
X320419Y86919D01*
X320915Y86587D01*
X321500Y86471D01*
X325867D01*
X327146Y85191D01*
Y84073D01*
X325598D01*
X325013Y83956D01*
X324952Y83915D01*
X323894D01*
Y85748D01*
X316106D01*
Y79024D01*
X316106D01*
Y78976D01*
X316061Y78526D01*
X315620Y78349D01*
X315274Y78695D01*
X315500Y79539D01*
Y80461D01*
X315262Y81351D01*
X314801Y82149D01*
X314149Y82801D01*
X313351Y83262D01*
X312461Y83500D01*
X311539D01*
X310649Y83262D01*
X309851Y82801D01*
X309199Y82149D01*
X309077Y81937D01*
X308577Y82071D01*
Y92006D01*
X317329D01*
Y90642D01*
D02*
G37*
D14*
X278500Y170677D02*
G03*
X278500Y169929I4437J-374D01*
G01*
X292937Y13994D02*
X295500Y16557D01*
X292937Y12823D02*
Y13994D01*
X306077Y149750D02*
X306139D01*
X310894Y141181D02*
Y144995D01*
X306139Y149750D02*
X310894Y144995D01*
X285000Y170827D02*
X306077Y149750D01*
X278500Y170677D02*
Y173797D01*
Y168000D02*
X278793Y167707D01*
X285000Y161500D01*
X276149Y176149D02*
X278207Y174090D01*
X278500Y173797D01*
Y168000D02*
Y169929D01*
X302937Y22583D02*
X305673Y25319D01*
X302937Y12823D02*
Y22583D01*
X305673Y25319D02*
X306500D01*
X316500Y16386D02*
Y25319D01*
X312937Y12823D02*
X316500Y16386D01*
X325673Y25319D02*
X326500D01*
X322937Y12823D02*
Y22583D01*
X325673Y25319D01*
X332937Y22583D02*
X335673Y25319D01*
X332937Y12823D02*
Y22583D01*
X335673Y25319D02*
X336500D01*
X342937Y13994D02*
X345500Y16557D01*
X342937Y12823D02*
Y13994D01*
X345500Y16557D02*
Y18000D01*
X362937Y12823D02*
Y13994D01*
X365500Y16557D01*
X372937Y13994D02*
X375500Y16557D01*
X372937Y12823D02*
Y13994D01*
X382937D02*
X385500Y16557D01*
X382937Y12823D02*
Y13994D01*
X365500Y16557D02*
Y56914D01*
X295500Y16557D02*
Y22547D01*
X282937Y13994D02*
X285500Y16557D01*
X282937Y12823D02*
Y13994D01*
X285500Y16557D02*
Y29500D01*
X263500Y22260D02*
Y46625D01*
Y22260D02*
X273833Y11927D01*
X259086Y16674D02*
X263841Y11919D01*
X259086Y16674D02*
Y43082D01*
X221297Y231000D02*
X276149Y176149D01*
X398500Y178000D02*
X405000Y171500D01*
Y170303D02*
Y171500D01*
X278000Y178000D02*
X398500D01*
X276149Y176149D02*
X278000Y178000D01*
X310894Y141181D02*
X310984Y141091D01*
X370500Y141500D02*
Y155631D01*
X385000Y170131D01*
Y171000D01*
X350453Y121453D02*
X370500Y141500D01*
X332591Y121453D02*
X350453D01*
X320827Y146827D02*
X345000Y171000D01*
X320827Y141091D02*
Y146827D01*
X315500Y167673D02*
Y170500D01*
X315000Y171000D02*
X315500Y170500D01*
Y167673D02*
X316890Y166283D01*
Y141091D02*
Y166283D01*
X366500Y142000D02*
Y162500D01*
X375000Y171000D01*
X347921Y123421D02*
X366500Y142000D01*
X332591Y123421D02*
X347921D01*
X331500Y161000D02*
Y167500D01*
X335000Y171000D01*
X318858Y148358D02*
X331500Y161000D01*
X318858Y141091D02*
Y148358D01*
X341678Y157678D02*
X355000Y171000D01*
X335178Y157678D02*
X341678D01*
X322795Y145295D02*
X335178Y157678D01*
X322795Y141091D02*
Y145295D01*
X320500Y155500D02*
Y166500D01*
X325000Y171000D01*
X349500Y153000D02*
X356781Y160281D01*
Y162781D01*
X365000Y171000D01*
X336500Y153000D02*
X349500D01*
X326994Y143494D02*
X336500Y153000D01*
X324854Y143494D02*
X326994D01*
X324764Y143403D02*
X324854Y143494D01*
X324764Y141091D02*
Y143403D01*
X305500Y159500D02*
Y170500D01*
X305000Y171000D02*
X305500Y170500D01*
Y159500D02*
X314921Y150079D01*
Y141091D02*
Y150079D01*
X373000Y140000D02*
Y149000D01*
X395000Y171000D01*
X352484Y119484D02*
X373000Y140000D01*
X332591Y119484D02*
X352484D01*
X296439Y164561D02*
Y168234D01*
X295000Y169673D02*
X296439Y168234D01*
X295000Y169673D02*
Y171000D01*
X312953Y141091D02*
Y148047D01*
X296439Y164561D02*
X312953Y148047D01*
X161086Y231000D02*
X221297D01*
X386500Y54414D02*
Y93000D01*
X385500Y53414D02*
X386500Y54414D01*
X385500Y16557D02*
Y53414D01*
X363953Y115547D02*
X386500Y93000D01*
X332591Y115547D02*
X363953D01*
X366500Y57914D02*
Y100000D01*
X365500Y56914D02*
X366500Y57914D01*
X354890Y111610D02*
X366500Y100000D01*
X332591Y111610D02*
X354890D01*
X355500Y13500D02*
X356500D01*
X362000Y19000D01*
Y101000D01*
X353358Y109642D02*
X362000Y101000D01*
X332591Y109642D02*
X353358D01*
X268516Y117516D02*
X287409D01*
X257500Y106500D02*
X268516Y117516D01*
X257500Y88500D02*
Y106500D01*
X251500Y82500D02*
X257500Y88500D01*
X251500Y50668D02*
Y82500D01*
Y50668D02*
X259086Y43082D01*
X345500Y18000D02*
X354000Y26500D01*
X331090Y103736D02*
X332591D01*
X331000Y103646D02*
X331090Y103736D01*
X331000Y100879D02*
Y103646D01*
Y100879D02*
X337879Y94000D01*
X345500D01*
X354000Y85500D01*
Y26500D02*
Y85500D01*
X305500Y24319D02*
X306500Y25319D01*
X335500Y24319D02*
X336500Y25319D01*
X315500Y24319D02*
X316500Y25319D01*
X272047Y115547D02*
X287409D01*
X263500Y107000D02*
X272047Y115547D01*
X263500Y86875D02*
Y107000D01*
X256500Y79875D02*
X263500Y86875D01*
X256500Y53625D02*
Y79875D01*
Y53625D02*
X263500Y46625D01*
X285500Y29500D02*
X296000Y40000D01*
X322795Y91205D02*
Y95910D01*
Y91205D02*
X324000Y90000D01*
X343500D01*
X349000Y84500D01*
Y46000D02*
Y84500D01*
X343000Y40000D02*
X349000Y46000D01*
X296000Y40000D02*
X343000D01*
X376500Y54664D02*
Y93500D01*
X375500Y53664D02*
X376500Y54664D01*
X375500Y16557D02*
Y53664D01*
X356421Y113579D02*
X376500Y93500D01*
X332591Y113579D02*
X356421D01*
X295500Y22547D02*
X296500Y23547D01*
X324764Y95910D02*
X324854Y95819D01*
Y92586D02*
Y95819D01*
Y92586D02*
X325440Y92000D01*
X343500D01*
X344000Y91500D01*
X344121D01*
X350500Y85121D01*
Y85000D02*
Y85121D01*
Y85000D02*
X351500Y84000D01*
Y44500D02*
Y84000D01*
X344500Y37500D02*
X351500Y44500D01*
X302500Y37500D02*
X344500D01*
X296414Y31414D02*
X302500Y37500D01*
X296414Y23633D02*
Y31414D01*
Y23633D02*
X296500Y23547D01*
X325500Y24319D02*
X326500Y25319D01*
X152000Y221914D02*
X161086Y231000D01*
X152000Y189500D02*
X156500Y185000D01*
X163000D01*
X152000Y189500D02*
Y221914D01*
X201181Y191681D02*
X205500D01*
X194500Y185000D02*
X201181Y191681D01*
X189772Y185000D02*
X194500D01*
X47783Y95413D02*
Y98791D01*
X46575Y100000D02*
X47783Y98791D01*
Y95413D02*
X47874Y95323D01*
X45000Y100000D02*
X46575D01*
X44028Y95413D02*
Y99028D01*
X45000Y100000D01*
X43937Y95323D02*
X44028Y95413D01*
X322390Y125390D02*
X332591D01*
X302500Y105500D02*
X322390Y125390D01*
X268500Y86000D02*
X276500D01*
Y102043D01*
X258500Y76000D02*
X268500Y86000D01*
X275543Y103000D02*
X276500Y102043D01*
X258500Y57500D02*
Y76000D01*
X320000Y129500D02*
X326000D01*
X281000Y90500D02*
X320000Y129500D01*
X324750Y121750D02*
X325000Y122000D01*
X324750Y120250D02*
Y121750D01*
Y120250D02*
X327484Y117516D01*
X309016Y134484D02*
Y141091D01*
Y134484D02*
X312500Y131000D01*
X305079Y131079D02*
Y141091D01*
X300000Y126000D02*
X305079Y131079D01*
X274079Y113579D02*
X287409D01*
X318858Y90642D02*
Y95910D01*
X329500Y84043D02*
X331000Y82543D01*
X329500Y84043D02*
Y85000D01*
X321500Y88000D02*
X326500D01*
X329500Y85000D01*
X318858Y90642D02*
X321500Y88000D01*
X307047Y73453D02*
Y95910D01*
Y73453D02*
X311859Y68641D01*
X314000Y66500D02*
Y67834D01*
X313193Y68641D02*
X314000Y67834D01*
X311859Y68641D02*
X313193D01*
X305079Y60921D02*
Y95910D01*
X314395Y51909D02*
X315304Y51000D01*
X316106D01*
X314091Y51909D02*
X314395D01*
X305079Y60921D02*
X314091Y51909D01*
X299083Y141181D02*
Y145335D01*
X298000Y146418D02*
X299083Y145335D01*
X298000Y146418D02*
Y147500D01*
X269264Y133264D02*
X287409D01*
X287000Y155826D02*
X288358Y154468D01*
X290769D01*
X295236Y141091D02*
Y150000D01*
X290769Y154468D02*
X295236Y150000D01*
X303110Y57217D02*
Y95910D01*
X296894Y51000D02*
X303110Y57217D01*
X332591Y107673D02*
X336827D01*
X294543Y87000D02*
X295236Y87693D01*
Y95910D01*
X301142Y141091D02*
Y148858D01*
X288500Y161500D02*
X301142Y148858D01*
X285000Y161500D02*
X288500D01*
X332591Y133264D02*
X342764D01*
X327484Y117516D02*
X332591D01*
X303110Y136110D02*
Y141091D01*
X297000Y130000D02*
X303110Y136110D01*
X307047Y130130D02*
Y141091D01*
X305000Y122500D02*
Y128082D01*
X307047Y130130D01*
X328142Y127358D02*
X332591D01*
X299083Y141181D02*
X299173Y141091D01*
X326000Y129500D02*
X328142Y127358D01*
X281000Y74500D02*
Y90500D01*
Y74500D02*
X295500Y60000D01*
X342764Y133264D02*
X344000Y134500D01*
X340236Y106807D02*
X342000Y105043D01*
X337693Y106807D02*
X340236D01*
X336827Y107673D02*
X337693Y106807D01*
X237000Y101000D02*
X269264Y133264D01*
X237000Y73000D02*
Y101000D01*
X233500Y69500D02*
X237000Y73000D01*
X224500Y69500D02*
X233500D01*
X270292Y109792D02*
X274079Y113579D01*
X344000Y134500D02*
X345000Y135500D01*
X342000Y105043D02*
X342500Y104543D01*
X294543Y87000D02*
X296307Y85236D01*
X258500Y57500D02*
X279240Y36759D01*
X242000Y96500D02*
X267922Y122422D01*
X224500Y49500D02*
X231000D01*
X267922Y122422D02*
X268339D01*
X231000Y49500D02*
X242000Y60500D01*
Y96500D01*
X268339Y122422D02*
X269418Y123500D01*
X270500D01*
X279240Y33259D02*
X279819Y32681D01*
X279240Y33259D02*
Y36759D01*
X316106Y51000D02*
X333866D01*
X314000Y66500D02*
X314957D01*
X309000D02*
X314000D01*
X262500Y60500D02*
X273312D01*
X276812Y64000D02*
X277000D01*
X273312Y60500D02*
X276812Y64000D01*
X215000Y89000D02*
Y105500D01*
Y89000D02*
X224500Y79500D01*
X215000Y105500D02*
X226000Y116500D01*
X233910Y151500D02*
X234500D01*
X226000Y116500D02*
Y143591D01*
X233910Y151500D01*
X348500Y99250D02*
Y99500D01*
Y99250D02*
X355500Y92250D01*
Y92000D02*
Y92250D01*
X342500Y104543D02*
X350874D01*
X352418Y103000D02*
X353500D01*
X350874Y104543D02*
X352418Y103000D01*
X336910Y33091D02*
X345091D01*
X336500Y32681D02*
X336910Y33091D01*
X345091D02*
X345500Y33500D01*
X326500Y32681D02*
X336500D01*
X316500D02*
X326500D01*
X306500D02*
X316500D01*
X279543Y51000D02*
X296894D01*
X278000Y52543D02*
X279543Y51000D01*
X333866D02*
X336409Y53543D01*
X337000D01*
X277000Y156000D02*
X287417D01*
X325598Y82543D02*
X331000D01*
X320000Y82386D02*
X325441D01*
X325598Y82543D01*
X312000Y79806D02*
Y80000D01*
Y79806D02*
X316192Y75614D01*
X320000D01*
X296307Y82275D02*
Y85236D01*
X331500Y83043D02*
X340000D01*
X331000Y82543D02*
X331500Y83043D01*
X345000Y135500D02*
X352000D01*
X283886Y103000D02*
X284500Y103614D01*
X275543Y103000D02*
X283886D01*
X41173Y130326D02*
Y134406D01*
Y130326D02*
X45000Y126500D01*
X35768Y137055D02*
X38524D01*
X41173Y134406D01*
X45000Y110591D02*
Y126500D01*
X40000Y105000D02*
Y105591D01*
X45000Y110591D01*
X43087Y86087D02*
X45906Y88906D01*
X43000Y86000D02*
X43087Y86087D01*
X68500D02*
X69087Y85500D01*
X92366Y92496D02*
X94000D01*
X40000Y104409D02*
X41969Y102441D01*
X40000Y104409D02*
Y105000D01*
X41969Y95323D02*
Y102441D01*
X7500Y86000D02*
X43000D01*
X45906Y88906D02*
Y95323D01*
Y73449D02*
X52173Y67181D01*
X53000D01*
X45906Y73449D02*
Y78000D01*
X37000Y70744D02*
X40000Y73744D01*
X37000Y63000D02*
Y70744D01*
Y63000D02*
X39219Y60781D01*
X41739D02*
X43000Y59520D01*
X39219Y60781D02*
X41739D01*
X40000Y73744D02*
Y78000D01*
X41969Y68032D02*
Y78000D01*
Y68032D02*
X43000Y67000D01*
X42701Y35342D02*
X42750Y35293D01*
D16*
X10000Y198000D02*
D03*
X135500Y175000D02*
D03*
X182000Y166000D02*
D03*
X197500Y168500D02*
D03*
X42500Y46500D02*
D03*
D17*
X31330Y39531D02*
D03*
Y43468D02*
D03*
D18*
Y35516D02*
D03*
Y47484D02*
D03*
D19*
Y30673D02*
D03*
Y52327D02*
D03*
D20*
X287409Y103736D02*
D03*
Y105705D02*
D03*
Y107673D02*
D03*
Y109642D02*
D03*
Y111610D02*
D03*
Y113579D02*
D03*
Y115547D02*
D03*
Y117516D02*
D03*
Y119484D02*
D03*
Y121453D02*
D03*
Y123421D02*
D03*
Y125390D02*
D03*
Y127358D02*
D03*
Y129327D02*
D03*
Y131295D02*
D03*
Y133264D02*
D03*
X332591D02*
D03*
Y131295D02*
D03*
Y129327D02*
D03*
Y127358D02*
D03*
Y125390D02*
D03*
Y123421D02*
D03*
Y121453D02*
D03*
Y119484D02*
D03*
Y117516D02*
D03*
Y115547D02*
D03*
Y113579D02*
D03*
Y111610D02*
D03*
Y109642D02*
D03*
Y107673D02*
D03*
Y105705D02*
D03*
Y103736D02*
D03*
D21*
X295236Y141091D02*
D03*
X297205D02*
D03*
X299173D02*
D03*
X301142D02*
D03*
X303110D02*
D03*
X305079D02*
D03*
X307047D02*
D03*
X309016D02*
D03*
X310984D02*
D03*
X312953D02*
D03*
X314921D02*
D03*
X316890D02*
D03*
X318858D02*
D03*
X320827D02*
D03*
X322795D02*
D03*
X324764D02*
D03*
Y95910D02*
D03*
X322795D02*
D03*
X320827D02*
D03*
X318858D02*
D03*
X316890D02*
D03*
X314921D02*
D03*
X312953D02*
D03*
X310984D02*
D03*
X309016D02*
D03*
X307047D02*
D03*
X305079D02*
D03*
X303110D02*
D03*
X301142D02*
D03*
X299173D02*
D03*
X297205D02*
D03*
X295236D02*
D03*
D22*
X178240Y98785D02*
D03*
D23*
X174500D02*
D03*
X170760D02*
D03*
Y89215D02*
D03*
X178240D02*
D03*
D24*
X342000Y97957D02*
D03*
Y105043D02*
D03*
X117500Y127043D02*
D03*
Y119957D02*
D03*
X195000Y132043D02*
D03*
Y124957D02*
D03*
X68500Y86087D02*
D03*
Y79000D02*
D03*
X43000Y35043D02*
D03*
Y27957D02*
D03*
X331000Y82543D02*
D03*
Y75457D02*
D03*
X340000Y83043D02*
D03*
Y75957D02*
D03*
X234500Y151500D02*
D03*
Y144413D02*
D03*
X287000Y155826D02*
D03*
Y148740D02*
D03*
X344000Y134500D02*
D03*
Y141587D02*
D03*
X278000Y45457D02*
D03*
Y52543D02*
D03*
X337000Y53543D02*
D03*
Y46457D02*
D03*
D25*
X316500Y25319D02*
D03*
Y32681D02*
D03*
X326500Y25319D02*
D03*
Y32681D02*
D03*
X336500Y25319D02*
D03*
Y32681D02*
D03*
X306500Y25319D02*
D03*
Y32681D02*
D03*
X205500Y199000D02*
D03*
Y206362D02*
D03*
Y184319D02*
D03*
Y191681D02*
D03*
X185000Y127181D02*
D03*
Y119819D02*
D03*
X83000Y172681D02*
D03*
Y165319D02*
D03*
X53000Y59819D02*
D03*
Y67181D02*
D03*
X83000Y145319D02*
D03*
Y152681D02*
D03*
D26*
X95181Y136500D02*
D03*
X87819D02*
D03*
X184819Y113000D02*
D03*
X192181D02*
D03*
X98362Y172500D02*
D03*
X91000D02*
D03*
D27*
X62232Y193945D02*
D03*
Y212055D02*
D03*
X30268Y172555D02*
D03*
Y154445D02*
D03*
X35768Y137055D02*
D03*
Y118945D02*
D03*
D28*
X36642Y203000D02*
D03*
X55858Y163500D02*
D03*
X61358Y128000D02*
D03*
D29*
X40000Y95323D02*
D03*
X41969D02*
D03*
X43937D02*
D03*
X45906D02*
D03*
X47874D02*
D03*
Y78000D02*
D03*
X45906D02*
D03*
X43937D02*
D03*
X41969D02*
D03*
X40000D02*
D03*
D30*
X152000Y103900D02*
D03*
Y119100D02*
D03*
D31*
X153496Y144500D02*
D03*
X180504D02*
D03*
X55996Y33500D02*
D03*
X83004D02*
D03*
D32*
X43000Y67000D02*
D03*
Y59520D02*
D03*
D33*
X94000Y119504D02*
D03*
Y92496D02*
D03*
D34*
X190457Y153000D02*
D03*
X197543D02*
D03*
X173087Y173000D02*
D03*
X166000D02*
D03*
X32913Y105000D02*
D03*
X40000D02*
D03*
X294543Y87000D02*
D03*
X287457D02*
D03*
X275543Y103000D02*
D03*
X268457D02*
D03*
X314957Y66500D02*
D03*
X322043D02*
D03*
D35*
X131500Y189823D02*
D03*
X136500D02*
D03*
X141500D02*
D03*
X146500D02*
D03*
Y211177D02*
D03*
X141500D02*
D03*
X136500D02*
D03*
X131500D02*
D03*
D36*
X320000Y75614D02*
D03*
Y82386D02*
D03*
D41*
X176886Y216339D02*
D03*
D42*
X169693Y185000D02*
D03*
X176386D02*
D03*
X183079D02*
D03*
X189772D02*
D03*
X163000D02*
D03*
D64*
X270047Y175953D02*
X275000Y171000D01*
X225589Y175953D02*
X270047D01*
X213636Y164000D02*
X225589Y175953D01*
X195636Y164000D02*
X213636D01*
X193636Y166000D02*
X195636Y164000D01*
X182000Y166000D02*
X193636D01*
X31330Y47484D02*
X31822Y46992D01*
X42008D01*
X42500Y46500D01*
X31330Y35516D02*
X31566Y35280D01*
X42638D01*
X42701Y35342D01*
X42750Y35293D02*
X43000Y35043D01*
X98431Y164069D02*
Y172431D01*
Y164069D02*
X98500Y164000D01*
X98362Y172500D02*
X98431Y172431D01*
X184047Y181953D02*
X197500Y168500D01*
X184047Y181953D02*
Y184031D01*
X183079Y185000D02*
X184047Y184031D01*
X169807Y178327D02*
Y184886D01*
X169693Y185000D02*
X169807Y184886D01*
X184012Y139358D02*
X185000D01*
X187094D01*
X182000Y166000D02*
Y167082D01*
Y147630D02*
Y166000D01*
X218091Y161909D02*
X223500D01*
X233910Y151500D01*
X218000Y162000D02*
X218091Y161909D01*
X135500Y175000D02*
X143926Y166574D01*
X9500Y197500D02*
X10000Y198000D01*
X9500Y196978D02*
Y197500D01*
X7350Y194828D02*
X9500Y196978D01*
X7350Y178208D02*
Y194828D01*
Y178208D02*
X21331Y192189D01*
X154673Y178327D02*
X169807D01*
X146878Y186122D02*
X154673Y178327D01*
X146500Y189823D02*
X146878Y189445D01*
Y186122D02*
Y189445D01*
X136122Y179500D02*
Y189445D01*
Y175622D02*
Y179500D01*
X141500Y184878D01*
Y189823D01*
X197500Y168500D02*
X202500D01*
X205500Y171500D02*
Y184319D01*
X202500Y168500D02*
X205500Y171500D01*
X136122Y189445D02*
X136500Y189823D01*
X135500Y175000D02*
X136122Y175622D01*
X205500Y191681D02*
Y199000D01*
X177179Y172396D02*
X180545Y169030D01*
X173690Y172396D02*
X177179D01*
X180545Y168537D02*
X182000Y167082D01*
X180545Y168537D02*
Y169030D01*
X171823Y174264D02*
X173690Y172396D01*
X169807Y178327D02*
X171823Y176311D01*
Y174264D02*
Y176311D01*
X182000Y147630D02*
X184012Y149642D01*
X180504Y146134D02*
X182000Y147630D01*
X185646Y149642D02*
X187150Y151146D01*
X189193D01*
X190457Y152409D01*
Y153000D01*
X180504Y144500D02*
Y146134D01*
X184012Y149642D02*
X185646D01*
X184909Y119728D02*
X189772D01*
X194409Y124957D02*
X195000D01*
X191186Y121733D02*
X194409Y124957D01*
X191186Y121143D02*
Y121733D01*
X189772Y119728D02*
X191186Y121143D01*
X184012Y139358D02*
X185000Y138370D01*
X180504Y142866D02*
X184012Y139358D01*
X194409Y132043D02*
X195000D01*
X187094Y139358D02*
X194409Y132043D01*
X178240Y100611D02*
X182000Y104371D01*
Y104500D01*
X152000Y120500D02*
Y143004D01*
Y120500D02*
X156650Y115850D01*
X166838D02*
X168688Y114000D01*
X156650Y115850D02*
X166838D01*
X168688Y114000D02*
X169500D01*
X178240Y98785D02*
Y100611D01*
X180504Y142866D02*
Y144500D01*
X185000Y127181D02*
Y138370D01*
X152000Y143004D02*
X153496Y144500D01*
X40500Y150000D02*
Y165079D01*
X98000Y148688D02*
Y149500D01*
X95181Y136500D02*
Y145869D01*
X98000Y148688D01*
X83000Y172681D02*
X83091Y172591D01*
X90909D02*
X91000Y172500D01*
X83091Y172591D02*
X90909D01*
X67137Y187717D02*
X82173Y172681D01*
X83000D01*
X62232Y193945D02*
X64988D01*
X67137Y191796D01*
Y187717D02*
Y191796D01*
X7717Y134650D02*
X27512Y154445D01*
X7350Y134650D02*
X7717D01*
X27512Y154445D02*
X30268D01*
X33024Y172555D02*
X40500Y165079D01*
Y150000D02*
X45181Y145319D01*
X83000D01*
X30268Y172555D02*
X33024D01*
X83969Y144350D02*
X85764D01*
X83000Y145319D02*
X83969Y144350D01*
X87819Y136500D02*
Y142295D01*
X85764Y144350D02*
X87819Y142295D01*
X95181Y135673D02*
Y136500D01*
Y135673D02*
X102142Y128713D01*
Y87160D02*
Y128713D01*
X61482Y46500D02*
X102142Y87160D01*
X42500Y46500D02*
X61482D01*
X7350Y134650D02*
Y178208D01*
Y134650D02*
X7500Y134500D01*
Y86000D02*
Y134500D01*
X21331Y192189D02*
X25831D01*
X36642Y203000D01*
X43087Y86087D02*
X68500D01*
X69087Y85500D02*
X85370D01*
X92366Y92496D01*
X83870Y128000D02*
X92366Y119504D01*
X61358Y128000D02*
X83870D01*
X92366Y119504D02*
X94000D01*
X32913Y105000D02*
X34177Y103736D01*
Y101146D02*
X39411Y95911D01*
X34177Y101146D02*
Y103736D01*
X32913Y105000D02*
X34002Y106089D01*
Y117179D01*
X35768Y118945D01*
X42500Y46500D02*
Y59020D01*
X43000Y59520D01*
X42750Y35293D02*
Y46250D01*
X42500Y46500D02*
X42750Y46250D01*
X43000Y35043D02*
X54453D01*
X55996Y33500D01*
D65*
X170760Y89215D02*
X178240D01*
X145400Y103900D02*
X152000D01*
X136900D02*
X145400D01*
X83004Y50004D02*
X136900Y103900D01*
X83004Y33500D02*
Y50004D01*
X123354Y125946D02*
X145400Y103900D01*
X117500Y127043D02*
X118598Y125946D01*
X123354D01*
X110500Y145500D02*
Y167666D01*
X89380Y188786D02*
X110500Y167666D01*
X88257Y188786D02*
X89380D01*
X64988Y212055D02*
X88257Y188786D01*
X62232Y212055D02*
X64988D01*
X99350Y156650D02*
X110500Y145500D01*
X62708Y156650D02*
X99350D01*
X55858Y163500D02*
X62708Y156650D01*
X161850Y94050D02*
Y100650D01*
X158600Y103900D02*
X161850Y100650D01*
X166685Y89215D02*
X170760D01*
X161850Y94050D02*
X166685Y89215D01*
X152000Y103900D02*
X158600D01*
X110500Y134043D02*
Y145500D01*
Y134043D02*
X115646Y128898D01*
X116909Y127043D02*
X117500D01*
X115646Y128307D02*
X116909Y127043D01*
X115646Y128307D02*
Y128898D01*
D66*
X170838Y98864D02*
Y106511D01*
X176500Y112173D02*
X183992D01*
X184909Y113091D01*
X170838Y106511D02*
X176500Y112173D01*
X170760Y98785D02*
X170838Y98864D01*
X184909Y113091D02*
Y119728D01*
D67*
X27590Y19374D02*
D03*
Y63626D02*
D03*
D68*
X11841Y19374D02*
D03*
Y63626D02*
D03*
D69*
X224500Y79500D02*
D03*
X226000Y116500D02*
D03*
X7500Y76000D02*
D03*
D70*
X224500Y69500D02*
D03*
Y59500D02*
D03*
Y49500D02*
D03*
Y39500D02*
D03*
X226000Y96500D02*
D03*
Y106500D02*
D03*
X7500Y86000D02*
D03*
X402937Y170303D02*
D03*
X392937D02*
D03*
X382937D02*
D03*
X372937D02*
D03*
X362937D02*
D03*
X352937D02*
D03*
X342937D02*
D03*
X332937D02*
D03*
X322937D02*
D03*
X312937D02*
D03*
X302937D02*
D03*
X292937D02*
D03*
X282937D02*
D03*
X272937D02*
D03*
X262937Y12823D02*
D03*
X272937D02*
D03*
X282937D02*
D03*
X292937D02*
D03*
X302937D02*
D03*
X312937D02*
D03*
X322937D02*
D03*
X332937D02*
D03*
X342937D02*
D03*
X352937D02*
D03*
X362937D02*
D03*
X372937D02*
D03*
X382937D02*
D03*
X392937D02*
D03*
D71*
X262937Y170303D02*
D03*
X402937Y12823D02*
D03*
D72*
X296894Y51000D02*
D03*
X316106D02*
D03*
D73*
X297500Y80000D02*
D03*
X98500Y164000D02*
D03*
X302500Y105500D02*
D03*
X276500Y86000D02*
D03*
X295500Y60000D02*
D03*
X353500Y103000D02*
D03*
X345500Y33500D02*
D03*
X279819Y32681D02*
D03*
X312000Y80000D02*
D03*
X352000Y135500D02*
D03*
X277000Y156000D02*
D03*
X218000Y162000D02*
D03*
X144500Y164500D02*
D03*
X98000Y149500D02*
D03*
D74*
X325000Y122000D02*
D03*
X391126Y199831D02*
D03*
X371441Y160461D02*
D03*
X391126Y121091D02*
D03*
X371441Y81721D02*
D03*
X391126Y42350D02*
D03*
X351756Y199831D02*
D03*
X312386D02*
D03*
X273016D02*
D03*
X253331Y160461D02*
D03*
Y2980D02*
D03*
X233646Y199831D02*
D03*
Y121091D02*
D03*
X213961Y81721D02*
D03*
X233646Y42350D02*
D03*
X213961Y2980D02*
D03*
X174591Y160461D02*
D03*
Y81721D02*
D03*
X194276Y42350D02*
D03*
X174591Y2980D02*
D03*
X154905Y199831D02*
D03*
X135221Y160461D02*
D03*
Y81721D02*
D03*
X154905Y42350D02*
D03*
X135221Y2980D02*
D03*
X115535Y199831D02*
D03*
Y42350D02*
D03*
X95850Y2980D02*
D03*
X76165Y121091D02*
D03*
X56480Y81721D02*
D03*
Y2980D02*
D03*
X17110Y160461D02*
D03*
Y81721D02*
D03*
Y2980D02*
D03*
X76165Y42350D02*
D03*
X56480D02*
D03*
X46638Y22665D02*
D03*
X313000Y88000D02*
D03*
X262500Y60500D02*
D03*
X277000Y64000D02*
D03*
X309000Y66500D02*
D03*
X270500Y123500D02*
D03*
X298000Y147500D02*
D03*
X270500Y110000D02*
D03*
X355500Y92000D02*
D03*
X348500Y99500D02*
D03*
X312500Y131000D02*
D03*
X297000Y130000D02*
D03*
X300000Y126000D02*
D03*
X305000Y122500D02*
D03*
X320000Y155500D02*
D03*
X182000Y104500D02*
D03*
X169500Y114000D02*
D03*
M02*
