G04*
G04 #@! TF.GenerationSoftware,Altium Limited,Altium Designer,22.0.2 (36)*
G04*
G04 Layer_Color=16711935*
%FSLAX25Y25*%
%MOIN*%
G70*
G04*
G04 #@! TF.SameCoordinates,42502384-103D-4A38-82C6-637D6536F92D*
G04*
G04*
G04 #@! TF.FilePolarity,Negative*
G04*
G01*
G75*
%ADD57O,0.06992X0.04630*%
%ADD58O,0.08567X0.04630*%
%ADD59R,0.06205X0.06205*%
%ADD60C,0.06205*%
%ADD61R,0.06205X0.06205*%
%ADD62C,0.04264*%
%ADD63C,0.02799*%
D57*
X27590Y19374D02*
D03*
Y63626D02*
D03*
D58*
X11841Y19374D02*
D03*
Y63626D02*
D03*
D59*
X224500Y79500D02*
D03*
X226000Y116500D02*
D03*
X7500Y76000D02*
D03*
D60*
X224500Y69500D02*
D03*
Y59500D02*
D03*
Y49500D02*
D03*
Y39500D02*
D03*
X226000Y96500D02*
D03*
Y106500D02*
D03*
X7500Y86000D02*
D03*
X402937Y170303D02*
D03*
X392937D02*
D03*
X382937D02*
D03*
X372937D02*
D03*
X362937D02*
D03*
X352937D02*
D03*
X342937D02*
D03*
X332937D02*
D03*
X322937D02*
D03*
X312937D02*
D03*
X302937D02*
D03*
X292937D02*
D03*
X282937D02*
D03*
X272937D02*
D03*
X262937Y12823D02*
D03*
X272937D02*
D03*
X282937D02*
D03*
X292937D02*
D03*
X302937D02*
D03*
X312937D02*
D03*
X322937D02*
D03*
X332937D02*
D03*
X342937D02*
D03*
X352937D02*
D03*
X362937D02*
D03*
X372937D02*
D03*
X382937D02*
D03*
X392937D02*
D03*
D61*
X262937Y170303D02*
D03*
X402937Y12823D02*
D03*
D62*
X296894Y51000D02*
D03*
X316106D02*
D03*
D63*
X182000Y104500D02*
D03*
X169500Y114000D02*
D03*
M02*
