G04*
G04 #@! TF.GenerationSoftware,Altium Limited,Altium Designer,22.0.2 (36)*
G04*
G04 Layer_Color=8388736*
%FSLAX25Y25*%
%MOIN*%
G70*
G04*
G04 #@! TF.SameCoordinates,42502384-103D-4A38-82C6-637D6536F92D*
G04*
G04*
G04 #@! TF.FilePolarity,Negative*
G04*
G01*
G75*
%ADD22R,0.02410X0.06062*%
G04:AMPARAMS|DCode=23|XSize=60.62mil|YSize=24.1mil|CornerRadius=12.05mil|HoleSize=0mil|Usage=FLASHONLY|Rotation=270.000|XOffset=0mil|YOffset=0mil|HoleType=Round|Shape=RoundedRectangle|*
%AMROUNDEDRECTD23*
21,1,0.06062,0.00000,0,0,270.0*
21,1,0.03652,0.02410,0,0,270.0*
1,1,0.02410,0.00000,-0.01826*
1,1,0.02410,0.00000,0.01826*
1,1,0.02410,0.00000,0.01826*
1,1,0.02410,0.00000,-0.01826*
%
%ADD23ROUNDEDRECTD23*%
%ADD30R,0.21700X0.08500*%
%ADD37C,0.06299*%
%ADD38R,0.05024X0.03055*%
%ADD39R,0.05024X0.03291*%
%ADD40R,0.05024X0.03449*%
%ADD41R,0.33268X0.24000*%
%ADD42R,0.03937X0.04724*%
%ADD43R,0.06106X0.01480*%
%ADD44R,0.01480X0.06106*%
%ADD45R,0.06008X0.04827*%
G04:AMPARAMS|DCode=46|XSize=42.36mil|YSize=58.9mil|CornerRadius=6.42mil|HoleSize=0mil|Usage=FLASHONLY|Rotation=90.000|XOffset=0mil|YOffset=0mil|HoleType=Round|Shape=RoundedRectangle|*
%AMROUNDEDRECTD46*
21,1,0.04236,0.04606,0,0,90.0*
21,1,0.02953,0.05890,0,0,90.0*
1,1,0.01284,0.02303,0.01476*
1,1,0.01284,0.02303,-0.01476*
1,1,0.01284,-0.02303,-0.01476*
1,1,0.01284,-0.02303,0.01476*
%
%ADD46ROUNDEDRECTD46*%
G04:AMPARAMS|DCode=47|XSize=42.36mil|YSize=58.9mil|CornerRadius=6.42mil|HoleSize=0mil|Usage=FLASHONLY|Rotation=0.000|XOffset=0mil|YOffset=0mil|HoleType=Round|Shape=RoundedRectangle|*
%AMROUNDEDRECTD47*
21,1,0.04236,0.04606,0,0,0.0*
21,1,0.02953,0.05890,0,0,0.0*
1,1,0.01284,0.01476,-0.02303*
1,1,0.01284,-0.01476,-0.02303*
1,1,0.01284,-0.01476,0.02303*
1,1,0.01284,0.01476,0.02303*
%
%ADD47ROUNDEDRECTD47*%
%ADD48R,0.12110X0.06598*%
%ADD49R,0.23921X0.23921*%
%ADD50R,0.01480X0.05811*%
%ADD51R,0.09315X0.12583*%
%ADD52R,0.06402X0.04039*%
%ADD53R,0.12583X0.09315*%
%ADD54R,0.04827X0.06008*%
%ADD55R,0.03055X0.06303*%
%ADD56R,0.06087X0.05024*%
%ADD57O,0.06992X0.04630*%
%ADD58O,0.08567X0.04630*%
%ADD59R,0.06205X0.06205*%
%ADD60C,0.06205*%
%ADD61R,0.06205X0.06205*%
%ADD62C,0.04264*%
%ADD63C,0.02799*%
D22*
X178240Y98785D02*
D03*
D23*
X174500D02*
D03*
X170760D02*
D03*
Y89215D02*
D03*
X178240D02*
D03*
D30*
X152000Y103900D02*
D03*
Y119100D02*
D03*
D37*
X10000Y198000D02*
D03*
X135500Y175000D02*
D03*
X182000Y166000D02*
D03*
X197500Y168500D02*
D03*
X42500Y46500D02*
D03*
D38*
X31330Y39531D02*
D03*
Y43468D02*
D03*
D39*
Y35516D02*
D03*
Y47484D02*
D03*
D40*
Y30673D02*
D03*
Y52327D02*
D03*
D41*
X176886Y216339D02*
D03*
D42*
X169693Y185000D02*
D03*
X176386D02*
D03*
X183079D02*
D03*
X189772D02*
D03*
X163000D02*
D03*
D43*
X287409Y103736D02*
D03*
Y105705D02*
D03*
Y107673D02*
D03*
Y109642D02*
D03*
Y111610D02*
D03*
Y113579D02*
D03*
Y115547D02*
D03*
Y117516D02*
D03*
Y119484D02*
D03*
Y121453D02*
D03*
Y123421D02*
D03*
Y125390D02*
D03*
Y127358D02*
D03*
Y129327D02*
D03*
Y131295D02*
D03*
Y133264D02*
D03*
X332591D02*
D03*
Y131295D02*
D03*
Y129327D02*
D03*
Y127358D02*
D03*
Y125390D02*
D03*
Y123421D02*
D03*
Y121453D02*
D03*
Y119484D02*
D03*
Y117516D02*
D03*
Y115547D02*
D03*
Y113579D02*
D03*
Y111610D02*
D03*
Y109642D02*
D03*
Y107673D02*
D03*
Y105705D02*
D03*
Y103736D02*
D03*
D44*
X295236Y141091D02*
D03*
X297205D02*
D03*
X299173D02*
D03*
X301142D02*
D03*
X303110D02*
D03*
X305079D02*
D03*
X307047D02*
D03*
X309016D02*
D03*
X310984D02*
D03*
X312953D02*
D03*
X314921D02*
D03*
X316890D02*
D03*
X318858D02*
D03*
X320827D02*
D03*
X322795D02*
D03*
X324764D02*
D03*
Y95910D02*
D03*
X322795D02*
D03*
X320827D02*
D03*
X318858D02*
D03*
X316890D02*
D03*
X314921D02*
D03*
X312953D02*
D03*
X310984D02*
D03*
X309016D02*
D03*
X307047D02*
D03*
X305079D02*
D03*
X303110D02*
D03*
X301142D02*
D03*
X299173D02*
D03*
X297205D02*
D03*
X295236D02*
D03*
D45*
X342000Y97957D02*
D03*
Y105043D02*
D03*
X117500Y127043D02*
D03*
Y119957D02*
D03*
X195000Y132043D02*
D03*
Y124957D02*
D03*
X68500Y86087D02*
D03*
Y79000D02*
D03*
X43000Y35043D02*
D03*
Y27957D02*
D03*
X331000Y82543D02*
D03*
Y75457D02*
D03*
X340000Y83043D02*
D03*
Y75957D02*
D03*
X234500Y151500D02*
D03*
Y144413D02*
D03*
X287000Y155826D02*
D03*
Y148740D02*
D03*
X344000Y134500D02*
D03*
Y141587D02*
D03*
X278000Y45457D02*
D03*
Y52543D02*
D03*
X337000Y53543D02*
D03*
Y46457D02*
D03*
D46*
X316500Y25319D02*
D03*
Y32681D02*
D03*
X326500Y25319D02*
D03*
Y32681D02*
D03*
X336500Y25319D02*
D03*
Y32681D02*
D03*
X306500Y25319D02*
D03*
Y32681D02*
D03*
X205500Y199000D02*
D03*
Y206362D02*
D03*
Y184319D02*
D03*
Y191681D02*
D03*
X185000Y127181D02*
D03*
Y119819D02*
D03*
X83000Y172681D02*
D03*
Y165319D02*
D03*
X53000Y59819D02*
D03*
Y67181D02*
D03*
X83000Y145319D02*
D03*
Y152681D02*
D03*
D47*
X95181Y136500D02*
D03*
X87819D02*
D03*
X184819Y113000D02*
D03*
X192181D02*
D03*
X98362Y172500D02*
D03*
X91000D02*
D03*
D48*
X62232Y193945D02*
D03*
Y212055D02*
D03*
X30268Y172555D02*
D03*
Y154445D02*
D03*
X35768Y137055D02*
D03*
Y118945D02*
D03*
D49*
X36642Y203000D02*
D03*
X55858Y163500D02*
D03*
X61358Y128000D02*
D03*
D50*
X40000Y95323D02*
D03*
X41969D02*
D03*
X43937D02*
D03*
X45906D02*
D03*
X47874D02*
D03*
Y78000D02*
D03*
X45906D02*
D03*
X43937D02*
D03*
X41969D02*
D03*
X40000D02*
D03*
D51*
X153496Y144500D02*
D03*
X180504D02*
D03*
X55996Y33500D02*
D03*
X83004D02*
D03*
D52*
X43000Y67000D02*
D03*
Y59520D02*
D03*
D53*
X94000Y119504D02*
D03*
Y92496D02*
D03*
D54*
X190457Y153000D02*
D03*
X197543D02*
D03*
X173087Y173000D02*
D03*
X166000D02*
D03*
X32913Y105000D02*
D03*
X40000D02*
D03*
X294543Y87000D02*
D03*
X287457D02*
D03*
X275543Y103000D02*
D03*
X268457D02*
D03*
X314957Y66500D02*
D03*
X322043D02*
D03*
D55*
X131500Y189823D02*
D03*
X136500D02*
D03*
X141500D02*
D03*
X146500D02*
D03*
Y211177D02*
D03*
X141500D02*
D03*
X136500D02*
D03*
X131500D02*
D03*
D56*
X320000Y75614D02*
D03*
Y82386D02*
D03*
D57*
X27590Y19374D02*
D03*
Y63626D02*
D03*
D58*
X11841Y19374D02*
D03*
Y63626D02*
D03*
D59*
X224500Y79500D02*
D03*
X226000Y116500D02*
D03*
X7500Y76000D02*
D03*
D60*
X224500Y69500D02*
D03*
Y59500D02*
D03*
Y49500D02*
D03*
Y39500D02*
D03*
X226000Y96500D02*
D03*
Y106500D02*
D03*
X7500Y86000D02*
D03*
X402937Y170303D02*
D03*
X392937D02*
D03*
X382937D02*
D03*
X372937D02*
D03*
X362937D02*
D03*
X352937D02*
D03*
X342937D02*
D03*
X332937D02*
D03*
X322937D02*
D03*
X312937D02*
D03*
X302937D02*
D03*
X292937D02*
D03*
X282937D02*
D03*
X272937D02*
D03*
X262937Y12823D02*
D03*
X272937D02*
D03*
X282937D02*
D03*
X292937D02*
D03*
X302937D02*
D03*
X312937D02*
D03*
X322937D02*
D03*
X332937D02*
D03*
X342937D02*
D03*
X352937D02*
D03*
X362937D02*
D03*
X372937D02*
D03*
X382937D02*
D03*
X392937D02*
D03*
D61*
X262937Y170303D02*
D03*
X402937Y12823D02*
D03*
D62*
X296894Y51000D02*
D03*
X316106D02*
D03*
D63*
X182000Y104500D02*
D03*
X169500Y114000D02*
D03*
M02*
