G04*
G04 #@! TF.GenerationSoftware,Altium Limited,Altium Designer,22.0.2 (36)*
G04*
G04 Layer_Color=65535*
%FSLAX25Y25*%
%MOIN*%
G70*
G04*
G04 #@! TF.SameCoordinates,42502384-103D-4A38-82C6-637D6536F92D*
G04*
G04*
G04 #@! TF.FilePolarity,Positive*
G04*
G01*
G75*
%ADD10C,0.00787*%
%ADD11C,0.00984*%
%ADD12C,0.00500*%
%ADD13C,0.00600*%
%ADD14C,0.01000*%
%ADD15C,0.05906*%
D10*
X36684Y52327D02*
G03*
X36684Y52327I-394J0D01*
G01*
X188063Y144500D02*
G03*
X188063Y144500I-394J0D01*
G01*
X94394Y85331D02*
G03*
X94394Y85331I-394J0D01*
G01*
X90563Y33500D02*
G03*
X90563Y33500I-394J0D01*
G01*
X157646Y220847D02*
X158276D01*
X194496D02*
X195126D01*
Y188839D02*
Y220847D01*
X157646Y188839D02*
Y220847D01*
Y188839D02*
X159555D01*
X193217D02*
X195126D01*
X291693Y100193D02*
X328307D01*
Y136807D01*
X291693D02*
X328307D01*
X291693Y100193D02*
Y136807D01*
X219500Y34500D02*
X229500D01*
X219500D02*
Y84500D01*
X229500Y34500D02*
Y84500D01*
X219500D02*
X229500D01*
X221000Y121500D02*
X231000D01*
Y91500D02*
Y121500D01*
X221000Y91500D02*
X231000D01*
X221000D02*
Y121500D01*
X38032Y75244D02*
Y80756D01*
Y82134D02*
X49843D01*
Y91189D01*
X38032D02*
X49843D01*
X38032Y82134D02*
Y91189D01*
X2500Y91000D02*
X12500D01*
Y71000D02*
Y91000D01*
X2500Y71000D02*
X12500D01*
X2500D02*
Y91000D01*
X168791Y93786D02*
X180209D01*
X168791D02*
Y94214D01*
X180209D01*
Y93786D02*
Y94214D01*
X38571Y70248D02*
X47429D01*
X129354Y194201D02*
Y206799D01*
X148646D01*
Y194201D02*
Y206799D01*
X129354Y194201D02*
X148646D01*
X128744Y186819D02*
Y192823D01*
X257937Y165303D02*
X407937D01*
X265437Y175303D02*
X407937D01*
X257937D02*
X265437D01*
X257937Y165303D02*
Y175303D01*
X407937Y165303D02*
Y175303D01*
X257937Y17823D02*
X407937D01*
X257937Y7823D02*
X400437D01*
X407937D01*
Y17823D01*
X257937Y7823D02*
Y17823D01*
D11*
X163492Y180374D02*
G03*
X163492Y180374I-492J0D01*
G01*
X292776Y93992D02*
G03*
X292776Y93992I-492J0D01*
G01*
X178732Y103785D02*
G03*
X178732Y103785I-492J0D01*
G01*
D12*
X329138Y51000D02*
G03*
X319295Y60843I-9843J0D01*
G01*
Y41157D02*
G03*
X329138Y51000I0J9843D01*
G01*
X293705Y60843D02*
G03*
X283862Y51000I0J-9843D01*
G01*
D02*
G03*
X293705Y41157I9843J0D01*
G01*
X153506Y132876D02*
X180494D01*
X153506Y156124D02*
X180494D01*
X153506Y151902D02*
Y156124D01*
Y132876D02*
Y137098D01*
X180494Y151902D02*
Y156124D01*
Y132876D02*
Y137098D01*
X82376Y92506D02*
Y119494D01*
X105624Y92506D02*
Y119494D01*
X101402D02*
X105624D01*
X82376D02*
X86598D01*
X101402Y92506D02*
X105624D01*
X82376D02*
X86598D01*
X56006Y21876D02*
X82994D01*
X56006Y45124D02*
X82994D01*
X56006Y40902D02*
Y45124D01*
Y21876D02*
Y26098D01*
X82994Y40902D02*
Y45124D01*
Y21876D02*
Y26098D01*
X293705Y60843D02*
X319295D01*
X293705Y41157D02*
X319295D01*
D13*
X163350Y109361D02*
Y113639D01*
X140650Y109361D02*
Y113639D01*
D14*
X2503Y207249D02*
X4502D01*
X3502D01*
Y204250D01*
X5502D02*
Y207249D01*
X7001D01*
X7501Y206750D01*
Y205750D01*
X7001Y205250D01*
X5502D01*
X8501Y203751D02*
X10500D01*
X11500Y207249D02*
Y204250D01*
X12999D01*
X13499Y204750D01*
Y205250D01*
X12999Y205750D01*
X11500D01*
X12999D01*
X13499Y206250D01*
Y206750D01*
X12999Y207249D01*
X11500D01*
X14999Y206250D02*
X15998D01*
X16498Y205750D01*
Y204250D01*
X14999D01*
X14499Y204750D01*
X14999Y205250D01*
X16498D01*
X17998Y206750D02*
Y206250D01*
X17498D01*
X18497D01*
X17998D01*
Y204750D01*
X18497Y204250D01*
X190002Y162749D02*
X192002D01*
X191002D01*
Y159750D01*
X193001D02*
Y162749D01*
X194501D01*
X195001Y162250D01*
Y161250D01*
X194501Y160750D01*
X193001D01*
X196000Y159251D02*
X198000D01*
X200499Y159750D02*
Y162749D01*
X198999Y161250D01*
X200999D01*
X201998Y162749D02*
Y160750D01*
X202998Y159750D01*
X203998Y160750D01*
Y162749D01*
X162002Y165249D02*
X164002D01*
X163002D01*
Y162250D01*
X165001D02*
Y165249D01*
X166501D01*
X167001Y164750D01*
Y163750D01*
X166501Y163250D01*
X165001D01*
X168000Y161751D02*
X170000D01*
X172999Y165249D02*
X170999D01*
Y163750D01*
X171999Y164250D01*
X172499D01*
X172999Y163750D01*
Y162750D01*
X172499Y162250D01*
X171499D01*
X170999Y162750D01*
X173998Y165249D02*
Y163250D01*
X174998Y162250D01*
X175998Y163250D01*
Y165249D01*
X118003Y169749D02*
X120002D01*
X119002D01*
Y166750D01*
X121002D02*
Y169749D01*
X122501D01*
X123001Y169250D01*
Y168250D01*
X122501Y167750D01*
X121002D01*
X124001Y166251D02*
X126000D01*
X127000Y169250D02*
X127500Y169749D01*
X128499D01*
X128999Y169250D01*
Y168750D01*
X128499Y168250D01*
X127999D01*
X128499D01*
X128999Y167750D01*
Y167250D01*
X128499Y166750D01*
X127500D01*
X127000Y167250D01*
X129999Y169749D02*
Y167750D01*
X130999Y166750D01*
X131998Y167750D01*
Y169749D01*
X132998Y169250D02*
X133498Y169749D01*
X134497D01*
X134997Y169250D01*
Y168750D01*
X134497Y168250D01*
X133998D01*
X134497D01*
X134997Y167750D01*
Y167250D01*
X134497Y166750D01*
X133498D01*
X132998Y167250D01*
X47503Y53249D02*
X49502D01*
X48502D01*
Y50250D01*
X50502D02*
Y53249D01*
X52001D01*
X52501Y52750D01*
Y51750D01*
X52001Y51250D01*
X50502D01*
X53501Y49751D02*
X55500D01*
X56500Y53249D02*
Y50750D01*
X57000Y50250D01*
X57999D01*
X58499Y50750D01*
Y53249D01*
X61498Y52750D02*
X60998Y53249D01*
X59999D01*
X59499Y52750D01*
Y52250D01*
X59999Y51750D01*
X60998D01*
X61498Y51250D01*
Y50750D01*
X60998Y50250D01*
X59999D01*
X59499Y50750D01*
X62498Y53249D02*
Y50250D01*
X63997D01*
X64497Y50750D01*
Y51250D01*
X63997Y51750D01*
X62498D01*
X63997D01*
X64497Y52250D01*
Y52750D01*
X63997Y53249D01*
X62498D01*
X76508Y222999D02*
X74509D01*
X73509Y221999D01*
Y218000D01*
X74509Y217001D01*
X76508D01*
X77508Y218000D01*
Y221999D01*
X76508Y222999D01*
X79507Y220999D02*
Y217001D01*
Y219000D01*
X80507Y220000D01*
X81506Y220999D01*
X82506D01*
X85505Y217001D02*
X87504D01*
X86505D01*
Y220999D01*
X85505D01*
X92503Y215001D02*
X93502D01*
X94502Y216001D01*
Y220999D01*
X91503D01*
X90503Y220000D01*
Y218000D01*
X91503Y217001D01*
X94502D01*
X96501D02*
X98501D01*
X97501D01*
Y220999D01*
X96501D01*
X101500Y217001D02*
Y220999D01*
X104499D01*
X105499Y220000D01*
Y217001D01*
X108498Y220999D02*
X110497D01*
X111497Y220000D01*
Y217001D01*
X108498D01*
X107498Y218000D01*
X108498Y219000D01*
X111497D01*
X113496Y217001D02*
X115495D01*
X114496D01*
Y222999D01*
X113496D01*
X118494Y220999D02*
Y218000D01*
X119494Y217001D01*
X122493D01*
Y220999D01*
X124492Y217001D02*
X127491D01*
X128491Y218000D01*
X127491Y219000D01*
X125492D01*
X124492Y220000D01*
X125492Y220999D01*
X128491D01*
X77508Y181001D02*
Y186999D01*
X79507Y185000D01*
X81507Y186999D01*
Y181001D01*
X84506Y185000D02*
X86505D01*
X87505Y184000D01*
Y181001D01*
X84506D01*
X83506Y182001D01*
X84506Y183000D01*
X87505D01*
X89504Y181001D02*
Y185000D01*
X92503D01*
X93503Y184000D01*
Y181001D01*
X96502D02*
X98501D01*
X99501Y182001D01*
Y184000D01*
X98501Y185000D01*
X96502D01*
X95502Y184000D01*
Y182001D01*
X96502Y181001D01*
X101500Y180001D02*
X105499D01*
X108498Y185999D02*
Y185000D01*
X107498D01*
X109498D01*
X108498D01*
Y182001D01*
X109498Y181001D01*
X115496D02*
X113496D01*
X112497Y182001D01*
Y184000D01*
X113496Y185000D01*
X115496D01*
X116495Y184000D01*
Y183000D01*
X112497D01*
X118495Y181001D02*
X121494D01*
X122493Y182001D01*
X121494Y183000D01*
X119494D01*
X118495Y184000D01*
X119494Y185000D01*
X122493D01*
X125492Y185999D02*
Y185000D01*
X124493D01*
X126492D01*
X125492D01*
Y182001D01*
X126492Y181001D01*
X185004Y83999D02*
Y78001D01*
X188004D01*
X189003Y79000D01*
Y82999D01*
X188004Y83999D01*
X185004D01*
X194002Y78001D02*
X192002D01*
X191003Y79000D01*
Y81000D01*
X192002Y81999D01*
X194002D01*
X195001Y81000D01*
Y80000D01*
X191003D01*
X197001Y83999D02*
Y78001D01*
X200000D01*
X200999Y79000D01*
Y80000D01*
Y81000D01*
X200000Y81999D01*
X197001D01*
X202999D02*
Y79000D01*
X203998Y78001D01*
X206997D01*
Y81999D01*
X210996Y76001D02*
X211996D01*
X212996Y77001D01*
Y81999D01*
X209997D01*
X208997Y81000D01*
Y79000D01*
X209997Y78001D01*
X212996D01*
X211505Y130999D02*
Y125001D01*
X214504D01*
X215504Y126001D01*
Y127000D01*
X214504Y128000D01*
X211505D01*
X214504D01*
X215504Y129000D01*
Y129999D01*
X214504Y130999D01*
X211505D01*
X218503Y125001D02*
X220502D01*
X221502Y126001D01*
Y128000D01*
X220502Y129000D01*
X218503D01*
X217503Y128000D01*
Y126001D01*
X218503Y125001D01*
X224501D02*
X226501D01*
X227500Y126001D01*
Y128000D01*
X226501Y129000D01*
X224501D01*
X223501Y128000D01*
Y126001D01*
X224501Y125001D01*
X230499Y129999D02*
Y129000D01*
X229500D01*
X231499D01*
X230499D01*
Y126001D01*
X231499Y125001D01*
X240496Y128000D02*
X244495D01*
X242495Y129999D02*
Y126001D01*
X15752Y90500D02*
Y87501D01*
X17251D01*
X17751Y88000D01*
Y88500D01*
X17251Y89000D01*
X15752D01*
X17251D01*
X17751Y89500D01*
Y90000D01*
X17251Y90500D01*
X15752D01*
X19251Y89500D02*
X20250D01*
X20750Y89000D01*
Y87501D01*
X19251D01*
X18751Y88000D01*
X19251Y88500D01*
X20750D01*
X22250Y90000D02*
Y89500D01*
X21750D01*
X22749D01*
X22250D01*
Y88000D01*
X22749Y87501D01*
X24249Y89000D02*
X26248D01*
X25249Y90000D02*
Y88000D01*
D15*
X238906Y218584D02*
Y198906D01*
Y205465D01*
X252025Y218584D01*
X242185Y208745D01*
X252025Y198906D01*
X258584Y212025D02*
Y202185D01*
X261864Y198906D01*
X271703D01*
Y212025D01*
X281543Y215304D02*
Y212025D01*
X278263D01*
X284822D01*
X281543D01*
Y202185D01*
X284822Y198906D01*
X304501D02*
X297941D01*
X294662Y202185D01*
Y208745D01*
X297941Y212025D01*
X304501D01*
X307781Y208745D01*
Y205465D01*
X294662D01*
X334019Y198906D02*
Y218584D01*
X343859D01*
X347138Y215304D01*
Y208745D01*
X343859Y205465D01*
X334019D01*
X353698Y212025D02*
Y202185D01*
X356978Y198906D01*
X366817D01*
Y212025D01*
X376656Y215304D02*
Y212025D01*
X373376D01*
X379936D01*
X376656D01*
Y202185D01*
X379936Y198906D01*
X399615D02*
X393055D01*
X389775Y202185D01*
Y208745D01*
X393055Y212025D01*
X399615D01*
X402894Y208745D01*
Y205465D01*
X389775D01*
M02*
