G04*
G04 #@! TF.GenerationSoftware,Altium Limited,Altium Designer,22.0.2 (36)*
G04*
G04 Layer_Color=8421504*
%FSLAX25Y25*%
%MOIN*%
G70*
G04*
G04 #@! TF.SameCoordinates,42502384-103D-4A38-82C6-637D6536F92D*
G04*
G04*
G04 #@! TF.FilePolarity,Positive*
G04*
G01*
G75*
%ADD16C,0.06000*%
%ADD17R,0.04724X0.02756*%
%ADD18R,0.04724X0.02992*%
%ADD19R,0.04724X0.03150*%
%ADD20R,0.05807X0.01181*%
%ADD21R,0.01181X0.05807*%
%ADD22R,0.02410X0.06062*%
G04:AMPARAMS|DCode=23|XSize=60.62mil|YSize=24.1mil|CornerRadius=12.05mil|HoleSize=0mil|Usage=FLASHONLY|Rotation=270.000|XOffset=0mil|YOffset=0mil|HoleType=Round|Shape=RoundedRectangle|*
%AMROUNDEDRECTD23*
21,1,0.06062,0.00000,0,0,270.0*
21,1,0.03652,0.02410,0,0,270.0*
1,1,0.02410,0.00000,-0.01826*
1,1,0.02410,0.00000,0.01826*
1,1,0.02410,0.00000,0.01826*
1,1,0.02410,0.00000,-0.01826*
%
%ADD23ROUNDEDRECTD23*%
%ADD24R,0.05709X0.04528*%
G04:AMPARAMS|DCode=25|XSize=39.37mil|YSize=55.91mil|CornerRadius=4.92mil|HoleSize=0mil|Usage=FLASHONLY|Rotation=90.000|XOffset=0mil|YOffset=0mil|HoleType=Round|Shape=RoundedRectangle|*
%AMROUNDEDRECTD25*
21,1,0.03937,0.04606,0,0,90.0*
21,1,0.02953,0.05591,0,0,90.0*
1,1,0.00984,0.02303,0.01476*
1,1,0.00984,0.02303,-0.01476*
1,1,0.00984,-0.02303,-0.01476*
1,1,0.00984,-0.02303,0.01476*
%
%ADD25ROUNDEDRECTD25*%
G04:AMPARAMS|DCode=26|XSize=39.37mil|YSize=55.91mil|CornerRadius=4.92mil|HoleSize=0mil|Usage=FLASHONLY|Rotation=0.000|XOffset=0mil|YOffset=0mil|HoleType=Round|Shape=RoundedRectangle|*
%AMROUNDEDRECTD26*
21,1,0.03937,0.04606,0,0,0.0*
21,1,0.02953,0.05591,0,0,0.0*
1,1,0.00984,0.01476,-0.02303*
1,1,0.00984,-0.01476,-0.02303*
1,1,0.00984,-0.01476,0.02303*
1,1,0.00984,0.01476,0.02303*
%
%ADD26ROUNDEDRECTD26*%
%ADD27R,0.11811X0.06299*%
%ADD28R,0.23622X0.23622*%
%ADD29R,0.01181X0.05512*%
%ADD30R,0.21700X0.08500*%
%ADD31R,0.09016X0.12284*%
%ADD32R,0.06102X0.03740*%
%ADD33R,0.12284X0.09016*%
%ADD34R,0.04528X0.05709*%
%ADD35R,0.02756X0.06004*%
%ADD36R,0.05787X0.04724*%
D16*
X10000Y198000D02*
D03*
X135500Y175000D02*
D03*
X182000Y166000D02*
D03*
X197500Y168500D02*
D03*
X42500Y46500D02*
D03*
D17*
X31330Y39531D02*
D03*
Y43468D02*
D03*
D18*
Y35516D02*
D03*
Y47484D02*
D03*
D19*
Y30673D02*
D03*
Y52327D02*
D03*
D20*
X287409Y103736D02*
D03*
Y105705D02*
D03*
Y107673D02*
D03*
Y109642D02*
D03*
Y111610D02*
D03*
Y113579D02*
D03*
Y115547D02*
D03*
Y117516D02*
D03*
Y119484D02*
D03*
Y121453D02*
D03*
Y123421D02*
D03*
Y125390D02*
D03*
Y127358D02*
D03*
Y129327D02*
D03*
Y131295D02*
D03*
Y133264D02*
D03*
X332591D02*
D03*
Y131295D02*
D03*
Y129327D02*
D03*
Y127358D02*
D03*
Y125390D02*
D03*
Y123421D02*
D03*
Y121453D02*
D03*
Y119484D02*
D03*
Y117516D02*
D03*
Y115547D02*
D03*
Y113579D02*
D03*
Y111610D02*
D03*
Y109642D02*
D03*
Y107673D02*
D03*
Y105705D02*
D03*
Y103736D02*
D03*
D21*
X295236Y141091D02*
D03*
X297205D02*
D03*
X299173D02*
D03*
X301142D02*
D03*
X303110D02*
D03*
X305079D02*
D03*
X307047D02*
D03*
X309016D02*
D03*
X310984D02*
D03*
X312953D02*
D03*
X314921D02*
D03*
X316890D02*
D03*
X318858D02*
D03*
X320827D02*
D03*
X322795D02*
D03*
X324764D02*
D03*
Y95910D02*
D03*
X322795D02*
D03*
X320827D02*
D03*
X318858D02*
D03*
X316890D02*
D03*
X314921D02*
D03*
X312953D02*
D03*
X310984D02*
D03*
X309016D02*
D03*
X307047D02*
D03*
X305079D02*
D03*
X303110D02*
D03*
X301142D02*
D03*
X299173D02*
D03*
X297205D02*
D03*
X295236D02*
D03*
D22*
X178240Y98785D02*
D03*
D23*
X174500D02*
D03*
X170760D02*
D03*
Y89215D02*
D03*
X178240D02*
D03*
D24*
X342000Y97957D02*
D03*
Y105043D02*
D03*
X117500Y127043D02*
D03*
Y119957D02*
D03*
X195000Y132043D02*
D03*
Y124957D02*
D03*
X68500Y86087D02*
D03*
Y79000D02*
D03*
X43000Y35043D02*
D03*
Y27957D02*
D03*
X331000Y82543D02*
D03*
Y75457D02*
D03*
X340000Y83043D02*
D03*
Y75957D02*
D03*
X234500Y151500D02*
D03*
Y144413D02*
D03*
X287000Y155826D02*
D03*
Y148740D02*
D03*
X344000Y134500D02*
D03*
Y141587D02*
D03*
X278000Y45457D02*
D03*
Y52543D02*
D03*
X337000Y53543D02*
D03*
Y46457D02*
D03*
D25*
X316500Y25319D02*
D03*
Y32681D02*
D03*
X326500Y25319D02*
D03*
Y32681D02*
D03*
X336500Y25319D02*
D03*
Y32681D02*
D03*
X306500Y25319D02*
D03*
Y32681D02*
D03*
X205500Y199000D02*
D03*
Y206362D02*
D03*
Y184319D02*
D03*
Y191681D02*
D03*
X185000Y127181D02*
D03*
Y119819D02*
D03*
X83000Y172681D02*
D03*
Y165319D02*
D03*
X53000Y59819D02*
D03*
Y67181D02*
D03*
X83000Y145319D02*
D03*
Y152681D02*
D03*
D26*
X95181Y136500D02*
D03*
X87819D02*
D03*
X184819Y113000D02*
D03*
X192181D02*
D03*
X98362Y172500D02*
D03*
X91000D02*
D03*
D27*
X62232Y193945D02*
D03*
Y212055D02*
D03*
X30268Y172555D02*
D03*
Y154445D02*
D03*
X35768Y137055D02*
D03*
Y118945D02*
D03*
D28*
X36642Y203000D02*
D03*
X55858Y163500D02*
D03*
X61358Y128000D02*
D03*
D29*
X40000Y95323D02*
D03*
X41969D02*
D03*
X43937D02*
D03*
X45906D02*
D03*
X47874D02*
D03*
Y78000D02*
D03*
X45906D02*
D03*
X43937D02*
D03*
X41969D02*
D03*
X40000D02*
D03*
D30*
X152000Y103900D02*
D03*
Y119100D02*
D03*
D31*
X153496Y144500D02*
D03*
X180504D02*
D03*
X55996Y33500D02*
D03*
X83004D02*
D03*
D32*
X43000Y67000D02*
D03*
Y59520D02*
D03*
D33*
X94000Y119504D02*
D03*
Y92496D02*
D03*
D34*
X190457Y153000D02*
D03*
X197543D02*
D03*
X173087Y173000D02*
D03*
X166000D02*
D03*
X32913Y105000D02*
D03*
X40000D02*
D03*
X294543Y87000D02*
D03*
X287457D02*
D03*
X275543Y103000D02*
D03*
X268457D02*
D03*
X314957Y66500D02*
D03*
X322043D02*
D03*
D35*
X131500Y189823D02*
D03*
X136500D02*
D03*
X141500D02*
D03*
X146500D02*
D03*
Y211177D02*
D03*
X141500D02*
D03*
X136500D02*
D03*
X131500D02*
D03*
D36*
X320000Y75614D02*
D03*
Y82386D02*
D03*
M02*
