M48
;Layer_Color=9474304
;FILE_FORMAT=2:5
INCH,LZ
;TYPE=PLATED
T1F00S00C0.00787
T2F00S00C0.01575
T3F00S00C0.03543
%
T01
X0005799Y0007299
X001761
X0029421
X0041232
X0053043
X0029421Y0030921
X001761
X0064854
X0076665
Y0007299
X0088476
X0100287
X0112098
X0123909
X013572
X0147531
X013572Y001911
Y0030921
X0123909Y001911
X0064854Y0007299
X0079528Y0079823
X0079724Y0090453
X0076665Y013722
X0088476
X0100287
X0112098
X0123909
X0147531
Y0125409
Y0113598
X0088476Y0160842
X0064854Y0149031
X0057185Y0171358
X0034843Y016998
X0012992Y0169685
X0005799Y013722
Y0125409
Y0113598
Y0101787
Y0089976
Y0078165
X0029421Y013722
X0053043Y0149031
T02
X0010531Y0047343
X0036663Y0028524
X0043908Y0031978
X00875Y003089
X0131484Y0031756
X0140453Y0031102
X0139404Y0077113
X0147Y00765
X01585Y00715
X0130217Y0079823
X0117913Y0083071
X011785Y0089004
X0117815Y0094823
X0116339Y0101772
X0127067Y0102854
X0130807Y0108366
X0140656Y0105123
X0119783Y0065551
X0107283Y0065748
X0079331Y0073524
X0063563Y0101382
X0062894Y0135138
X008248Y0171358
X0095276Y0163091
X0104724Y0170669
X0129921Y0173917
X0147474Y0170472
X0157087Y0172539
X0046654Y0134843
X00415Y0135
X0035138Y0136417
X0019776Y0066
T03
X0008949Y001289
Y002289
X0018949
Y001289
X0028949
Y002289
X0038949
Y001289
X0048949
Y002289
X0058949
Y001289
X0068949
Y002289
X0078949
Y001289
X0088949
Y002289
X0098949
Y001289
X0108949
Y002289
X0118949
Y001289
X0128949
Y002289
X0138949
Y001289
X0148949
Y002289
X01365Y0041
X0138949Y01425
X0148949
Y01525
X0138949
X0128949
Y01425
X0118949
Y01525
X0108949
Y01425
X0098949
Y01525
X0088949
Y01425
X0078949
Y01525
X0068949
Y01425
X0058949
Y01525
X0048949
Y01425
X0038949
Y01525
X0028949
Y01425
X0018949
Y01525
X0008949
Y01425
M30
