M48
;Layer_Color=9474304
;FILE_FORMAT=2:5
INCH,LZ
;TYPE=PLATED
T1F00S00C0.01500
T3F00S00C0.02587
T4F00S00C0.02800
T5F00S00C0.03543
%
T01
X0391126Y004235
X0371441Y0081721
X0391126Y0121091
X03485Y00995
X03555Y0092
X0313Y0088
X0309Y00665
X0277Y0064
X02625Y00605
X0233646Y004235
X0253331Y000298
X0213961
Y0081721
X0233646Y0121091
X02705Y01235
Y011
X03Y0126
X0297Y013
X0305Y01225
X03125Y0131
X0325Y0122
X032Y01555
X0298Y01475
X0182Y01045
X01695Y0114
X0174591Y0081721
X0135221
X0154905Y004235
X0194276
X0174591Y000298
X0135221
X009585
X005648
Y004235
X0076165
X0115535
X005648Y0081721
X0076165Y0121091
X001711Y0081721
Y000298
X0046638Y0022665
X001711Y0160461
X0135221
X0174591
X0154905Y0199831
X0115535
X0233646
X0273016
X0312386
X0351756
X0253331Y0160461
X0371441
X0391126Y0199831
T03
X0296894Y0051
X0316106
T04
X0279819Y0032681
X02955Y006
X02975Y008
X0312
X03025Y01055
X02765Y0086
X0277Y0156
X0352Y01355
X03535Y0103
X03455Y00335
X0098Y01495
X00985Y0164
X01445Y01645
X0218Y0162
T05
X0372937Y0012823
X0382937
X0392937
X0402937
X0362937
X0352937
X0342937
X0332937
X0322937
X0312937
X0302937
X0292937
X0282937
X0272937
X0262937
X02245Y00395
Y00495
Y00595
Y00695
Y00795
X0226Y00965
Y01065
Y01165
X00075Y0086
Y0076
X0262937Y0170303
X0272937
X0282937
X0292937
X0302937
X0312937
X0322937
X0332937
X0342937
X0352937
X0362937
X0372937
X0382937
X0392937
X0402937
M30
