G04*
G04 #@! TF.GenerationSoftware,Altium Limited,Altium Designer,22.0.2 (36)*
G04*
G04 Layer_Color=16711935*
%FSLAX25Y25*%
%MOIN*%
G70*
G04*
G04 #@! TF.SameCoordinates,1C5B4622-B4AA-4E77-B977-5182896014AD*
G04*
G04*
G04 #@! TF.FilePolarity,Positive*
G04*
G01*
G75*
%ADD35C,0.01000*%
%ADD46C,0.00600*%
D35*
X173500Y0D02*
X175500Y-6000D01*
X171500D02*
X173500Y0D01*
X171500Y13890D02*
X173500Y7890D01*
X175500Y13890D01*
X173500Y-10000D02*
Y0D01*
Y7890D02*
Y17890D01*
X155342Y7890D02*
X174500D01*
X172500Y0D02*
X235221D01*
X-6000Y-20000D02*
X0Y-18000D01*
X-6000Y-16000D02*
X0Y-18000D01*
X3949D02*
X9949Y-16000D01*
X3949Y-18000D02*
X9949Y-20000D01*
X-10000Y-18000D02*
X0D01*
X3949D02*
X13949D01*
X3949Y-19000D02*
Y6496D01*
X0Y-19000D02*
Y-1000D01*
X-6000Y182000D02*
X0Y184000D01*
X-6000Y186000D02*
X0Y184000D01*
X3949D02*
X9949Y186000D01*
X3949Y184000D02*
X9949Y182000D01*
X-10000Y184000D02*
X0D01*
X3949D02*
X13949D01*
X3949Y158894D02*
Y185000D01*
X0Y183000D02*
Y195850D01*
X269500Y163500D02*
X271500Y157500D01*
X273500Y163500D01*
X271500Y196850D02*
X273500Y190850D01*
X269500D02*
X271500Y196850D01*
Y157500D02*
Y163479D01*
Y187672D02*
Y196850D01*
X155342Y157500D02*
X272500D01*
X237221Y196850D02*
X272500D01*
D46*
X177099Y22888D02*
Y18890D01*
X173100Y22888D01*
X172101D01*
X171101Y21889D01*
Y19889D01*
X172101Y18890D01*
X177099Y24888D02*
X176099D01*
Y25888D01*
X177099D01*
Y24888D01*
X172101Y29886D02*
X171101Y30886D01*
Y32885D01*
X172101Y33885D01*
X176099D01*
X177099Y32885D01*
Y30886D01*
X176099Y29886D01*
X172101D01*
Y35884D02*
X171101Y36884D01*
Y38883D01*
X172101Y39883D01*
X176099D01*
X177099Y38883D01*
Y36884D01*
X176099Y35884D01*
X172101D01*
X-9622Y-32396D02*
X-7623D01*
X-8623D01*
Y-26398D01*
X-9622Y-27398D01*
X-4624Y-32396D02*
Y-31396D01*
X-3624D01*
Y-32396D01*
X-4624D01*
X374Y-27398D02*
X1374Y-26398D01*
X3373D01*
X4373Y-27398D01*
Y-31396D01*
X3373Y-32396D01*
X1374D01*
X374Y-31396D01*
Y-27398D01*
X6373D02*
X7372Y-26398D01*
X9371D01*
X10371Y-27398D01*
Y-31396D01*
X9371Y-32396D01*
X7372D01*
X6373Y-31396D01*
Y-27398D01*
X14949Y180401D02*
X16948D01*
X15948D01*
Y186399D01*
X14949Y185399D01*
X19947Y180401D02*
Y181401D01*
X20947D01*
Y180401D01*
X19947D01*
X24946Y185399D02*
X25945Y186399D01*
X27945D01*
X28944Y185399D01*
Y181401D01*
X27945Y180401D01*
X25945D01*
X24946Y181401D01*
Y185399D01*
X30944D02*
X31943Y186399D01*
X33943D01*
X34942Y185399D01*
Y181401D01*
X33943Y180401D01*
X31943D01*
X30944Y181401D01*
Y185399D01*
X274099Y165079D02*
X275099Y166078D01*
Y168078D01*
X274099Y169077D01*
X270101D01*
X269101Y168078D01*
Y166078D01*
X270101Y165079D01*
X271100D01*
X272100Y166078D01*
Y169077D01*
X275099Y171077D02*
X274099D01*
Y172076D01*
X275099D01*
Y171077D01*
X274099Y176075D02*
X275099Y177075D01*
Y179074D01*
X274099Y180074D01*
X270101D01*
X269101Y179074D01*
Y177075D01*
X270101Y176075D01*
X271100D01*
X272100Y177075D01*
Y180074D01*
X274099Y182073D02*
X275099Y183073D01*
Y185072D01*
X274099Y186072D01*
X270101D01*
X269101Y185072D01*
Y183073D01*
X270101Y182073D01*
X271100D01*
X272100Y183073D01*
Y186072D01*
M02*
