G04*
G04 #@! TF.GenerationSoftware,Altium Limited,Altium Designer,22.0.2 (36)*
G04*
G04 Layer_Physical_Order=1*
G04 Layer_Color=255*
%FSLAX25Y25*%
%MOIN*%
G70*
G04*
G04 #@! TF.SameCoordinates,1C5B4622-B4AA-4E77-B977-5182896014AD*
G04*
G04*
G04 #@! TF.FilePolarity,Positive*
G04*
G01*
G75*
%ADD13R,0.06299X0.05492*%
%ADD14R,0.11811X0.11811*%
%ADD15R,0.27559X0.27559*%
%ADD16R,0.05709X0.04528*%
%ADD17R,0.05118X0.05512*%
%ADD18R,0.06102X0.03740*%
%ADD33R,0.01968X0.01968*%
%ADD34C,0.01373*%
%ADD35C,0.01000*%
%ADD36C,0.01500*%
%ADD37C,0.10925*%
%ADD38R,0.10925X0.10925*%
%ADD39C,0.05906*%
%ADD40R,0.05906X0.05906*%
%ADD41C,0.03150*%
%ADD42C,0.02165*%
%ADD43R,0.05906X0.05906*%
%ADD44C,0.02362*%
%ADD45C,0.01968*%
G36*
X234691Y1529D02*
X1529D01*
Y195321D01*
X234691D01*
Y1529D01*
D02*
G37*
%LPC*%
G36*
X37303Y184216D02*
Y178272D01*
X43248D01*
X43172Y179039D01*
X42803Y180257D01*
X42203Y181379D01*
X41395Y182363D01*
X40411Y183171D01*
X39288Y183771D01*
X38070Y184141D01*
X37303Y184216D01*
D02*
G37*
G36*
X36303D02*
X35536Y184141D01*
X34318Y183771D01*
X33195Y183171D01*
X32211Y182363D01*
X31404Y181379D01*
X30804Y180257D01*
X30434Y179039D01*
X30358Y178272D01*
X36303D01*
Y184216D01*
D02*
G37*
G36*
X43248Y177272D02*
X37303D01*
Y171327D01*
X38070Y171403D01*
X39288Y171772D01*
X40411Y172372D01*
X41395Y173180D01*
X42203Y174164D01*
X42803Y175287D01*
X43172Y176505D01*
X43248Y177272D01*
D02*
G37*
G36*
X36303D02*
X30358D01*
X30434Y176505D01*
X30804Y175287D01*
X31404Y174164D01*
X32211Y173180D01*
X33195Y172372D01*
X34318Y171772D01*
X35536Y171403D01*
X36303Y171327D01*
Y177272D01*
D02*
G37*
G36*
X80274Y184234D02*
X67348D01*
Y171309D01*
X80274D01*
Y184234D01*
D02*
G37*
G36*
X55307Y184265D02*
X54040Y184141D01*
X52822Y183771D01*
X51699Y183171D01*
X50715Y182363D01*
X49908Y181379D01*
X49308Y180257D01*
X48938Y179039D01*
X48813Y177772D01*
X48938Y176505D01*
X49308Y175287D01*
X49908Y174164D01*
X50715Y173180D01*
X51699Y172372D01*
X52822Y171772D01*
X54040Y171403D01*
X55307Y171278D01*
X56574Y171403D01*
X57792Y171772D01*
X58915Y172372D01*
X59899Y173180D01*
X60707Y174164D01*
X61307Y175287D01*
X61676Y176505D01*
X61801Y177772D01*
X61676Y179039D01*
X61307Y180257D01*
X60707Y181379D01*
X59899Y182363D01*
X58915Y183171D01*
X57792Y183771D01*
X56574Y184141D01*
X55307Y184265D01*
D02*
G37*
G36*
X217500Y171724D02*
X216649Y171555D01*
X215928Y171072D01*
X215899Y171029D01*
X213551D01*
Y171110D01*
X205449D01*
Y165370D01*
X213551D01*
Y167971D01*
X215899D01*
X215928Y167928D01*
X216649Y167446D01*
X217500Y167276D01*
X218351Y167446D01*
X219073Y167928D01*
X219555Y168649D01*
X219724Y169500D01*
X219555Y170351D01*
X219073Y171072D01*
X218351Y171555D01*
X217500Y171724D01*
D02*
G37*
G36*
X199551Y171110D02*
X191449D01*
Y169840D01*
X185551D01*
Y170870D01*
X177449D01*
Y169720D01*
X94449D01*
X94449Y169720D01*
X93791Y169589D01*
X93233Y169216D01*
X80255Y156238D01*
X79981Y156351D01*
X78949Y156487D01*
X77917Y156351D01*
X76955Y155953D01*
X76130Y155319D01*
X75496Y154493D01*
X75098Y153532D01*
X74962Y152500D01*
X75098Y151468D01*
X75496Y150507D01*
X76130Y149681D01*
X76955Y149047D01*
X77917Y148649D01*
X78949Y148513D01*
X79981Y148649D01*
X80942Y149047D01*
X81768Y149681D01*
X82402Y150507D01*
X82800Y151468D01*
X82936Y152500D01*
X82800Y153532D01*
X82686Y153806D01*
X95161Y166280D01*
X177449D01*
Y165130D01*
X185551D01*
Y166401D01*
X191449D01*
Y165370D01*
X199551D01*
Y171110D01*
D02*
G37*
G36*
X223500Y175724D02*
X222649Y175555D01*
X221927Y175073D01*
X221445Y174351D01*
X221276Y173500D01*
X221445Y172649D01*
X221927Y171927D01*
X221971Y171899D01*
Y171110D01*
X220949D01*
Y165370D01*
X229051D01*
Y171110D01*
X225029D01*
Y171899D01*
X225073Y171927D01*
X225555Y172649D01*
X225724Y173500D01*
X225555Y174351D01*
X225073Y175073D01*
X224351Y175555D01*
X223500Y175724D01*
D02*
G37*
G36*
X185551Y163390D02*
X177449D01*
Y162239D01*
X96969D01*
X96969Y162239D01*
X96311Y162108D01*
X95753Y161736D01*
X90255Y156238D01*
X89981Y156351D01*
X88949Y156487D01*
X87917Y156351D01*
X86955Y155953D01*
X86130Y155319D01*
X85496Y154493D01*
X85098Y153532D01*
X84962Y152500D01*
X85098Y151468D01*
X85496Y150507D01*
X86130Y149681D01*
X86955Y149047D01*
X87917Y148649D01*
X88949Y148513D01*
X89981Y148649D01*
X90942Y149047D01*
X91768Y149681D01*
X92401Y150507D01*
X92800Y151468D01*
X92936Y152500D01*
X92800Y153532D01*
X92686Y153806D01*
X97681Y158800D01*
X177449D01*
Y157650D01*
X185551D01*
Y163390D01*
D02*
G37*
G36*
X229051Y163630D02*
X220949D01*
Y157890D01*
X229051D01*
Y163630D01*
D02*
G37*
G36*
X213551D02*
X205449D01*
Y157890D01*
X213551D01*
Y163630D01*
D02*
G37*
G36*
X199551D02*
X191449D01*
Y157890D01*
X199551D01*
Y163630D01*
D02*
G37*
G36*
X222205Y154095D02*
X213906D01*
Y153720D01*
X189094D01*
Y154095D01*
X180795D01*
Y151720D01*
X175852D01*
X175351Y152055D01*
X174500Y152224D01*
X173649Y152055D01*
X172927Y151573D01*
X172445Y150851D01*
X172276Y150000D01*
X172445Y149149D01*
X172927Y148427D01*
X173649Y147945D01*
X174500Y147776D01*
X175351Y147945D01*
X175852Y148280D01*
X180795D01*
Y146602D01*
X189094D01*
Y150280D01*
X213906D01*
Y146602D01*
X222205D01*
Y154095D01*
D02*
G37*
G36*
X69449Y156421D02*
Y153000D01*
X72870D01*
X72800Y153532D01*
X72401Y154493D01*
X71768Y155319D01*
X70942Y155953D01*
X69981Y156351D01*
X69449Y156421D01*
D02*
G37*
G36*
X68449D02*
X67917Y156351D01*
X66955Y155953D01*
X66130Y155319D01*
X65496Y154493D01*
X65098Y153532D01*
X65028Y153000D01*
X68449D01*
Y156421D01*
D02*
G37*
G36*
X59449D02*
Y153000D01*
X62870D01*
X62800Y153532D01*
X62401Y154493D01*
X61768Y155319D01*
X60942Y155953D01*
X59981Y156351D01*
X59449Y156421D01*
D02*
G37*
G36*
X58449D02*
X57917Y156351D01*
X56955Y155953D01*
X56130Y155319D01*
X55496Y154493D01*
X55098Y153532D01*
X55028Y153000D01*
X58449D01*
Y156421D01*
D02*
G37*
G36*
X29449D02*
Y153000D01*
X32870D01*
X32800Y153532D01*
X32401Y154493D01*
X31768Y155319D01*
X30942Y155953D01*
X29981Y156351D01*
X29449Y156421D01*
D02*
G37*
G36*
X28449D02*
X27917Y156351D01*
X26955Y155953D01*
X26130Y155319D01*
X25496Y154493D01*
X25098Y153532D01*
X25028Y153000D01*
X28449D01*
Y156421D01*
D02*
G37*
G36*
X72870Y152000D02*
X69449D01*
Y148579D01*
X69981Y148649D01*
X70942Y149047D01*
X71768Y149681D01*
X72401Y150507D01*
X72800Y151468D01*
X72870Y152000D01*
D02*
G37*
G36*
X68449D02*
X65028D01*
X65098Y151468D01*
X65496Y150507D01*
X66130Y149681D01*
X66955Y149047D01*
X67917Y148649D01*
X68449Y148579D01*
Y152000D01*
D02*
G37*
G36*
X62870D02*
X59449D01*
Y148579D01*
X59981Y148649D01*
X60942Y149047D01*
X61768Y149681D01*
X62401Y150507D01*
X62800Y151468D01*
X62870Y152000D01*
D02*
G37*
G36*
X58449D02*
X55028D01*
X55098Y151468D01*
X55496Y150507D01*
X56130Y149681D01*
X56955Y149047D01*
X57917Y148649D01*
X58449Y148579D01*
Y152000D01*
D02*
G37*
G36*
X32870D02*
X29449D01*
Y148579D01*
X29981Y148649D01*
X30942Y149047D01*
X31768Y149681D01*
X32401Y150507D01*
X32800Y151468D01*
X32870Y152000D01*
D02*
G37*
G36*
X28449D02*
X25028D01*
X25098Y151468D01*
X25496Y150507D01*
X26130Y149681D01*
X26955Y149047D01*
X27917Y148649D01*
X28449Y148579D01*
Y152000D01*
D02*
G37*
G36*
X148949Y156487D02*
X147917Y156351D01*
X146955Y155953D01*
X146130Y155319D01*
X145496Y154493D01*
X145098Y153532D01*
X144962Y152500D01*
X145098Y151468D01*
X145496Y150507D01*
X146130Y149681D01*
X146955Y149047D01*
X147917Y148649D01*
X148949Y148513D01*
X149981Y148649D01*
X150942Y149047D01*
X151768Y149681D01*
X152401Y150507D01*
X152800Y151468D01*
X152936Y152500D01*
X152800Y153532D01*
X152401Y154493D01*
X151768Y155319D01*
X150942Y155953D01*
X149981Y156351D01*
X148949Y156487D01*
D02*
G37*
G36*
X138949D02*
X137917Y156351D01*
X136955Y155953D01*
X136130Y155319D01*
X135496Y154493D01*
X135098Y153532D01*
X134962Y152500D01*
X135098Y151468D01*
X135496Y150507D01*
X136130Y149681D01*
X136955Y149047D01*
X137917Y148649D01*
X138949Y148513D01*
X139981Y148649D01*
X140942Y149047D01*
X141768Y149681D01*
X142402Y150507D01*
X142800Y151468D01*
X142936Y152500D01*
X142800Y153532D01*
X142402Y154493D01*
X141768Y155319D01*
X140942Y155953D01*
X139981Y156351D01*
X138949Y156487D01*
D02*
G37*
G36*
X128949D02*
X127917Y156351D01*
X126955Y155953D01*
X126130Y155319D01*
X125496Y154493D01*
X125098Y153532D01*
X124962Y152500D01*
X125098Y151468D01*
X125496Y150507D01*
X126130Y149681D01*
X126955Y149047D01*
X127917Y148649D01*
X128949Y148513D01*
X129981Y148649D01*
X130942Y149047D01*
X131768Y149681D01*
X132402Y150507D01*
X132800Y151468D01*
X132936Y152500D01*
X132800Y153532D01*
X132402Y154493D01*
X131768Y155319D01*
X130942Y155953D01*
X129981Y156351D01*
X128949Y156487D01*
D02*
G37*
G36*
X118949D02*
X117917Y156351D01*
X116955Y155953D01*
X116130Y155319D01*
X115496Y154493D01*
X115098Y153532D01*
X114962Y152500D01*
X115098Y151468D01*
X115496Y150507D01*
X116130Y149681D01*
X116955Y149047D01*
X117917Y148649D01*
X118949Y148513D01*
X119981Y148649D01*
X120942Y149047D01*
X121768Y149681D01*
X122401Y150507D01*
X122800Y151468D01*
X122936Y152500D01*
X122800Y153532D01*
X122401Y154493D01*
X121768Y155319D01*
X120942Y155953D01*
X119981Y156351D01*
X118949Y156487D01*
D02*
G37*
G36*
X108949D02*
X107917Y156351D01*
X106955Y155953D01*
X106130Y155319D01*
X105496Y154493D01*
X105098Y153532D01*
X104962Y152500D01*
X105098Y151468D01*
X105496Y150507D01*
X106130Y149681D01*
X106955Y149047D01*
X107917Y148649D01*
X108949Y148513D01*
X109981Y148649D01*
X110942Y149047D01*
X111768Y149681D01*
X112401Y150507D01*
X112800Y151468D01*
X112936Y152500D01*
X112800Y153532D01*
X112401Y154493D01*
X111768Y155319D01*
X110942Y155953D01*
X109981Y156351D01*
X108949Y156487D01*
D02*
G37*
G36*
X98949D02*
X97917Y156351D01*
X96955Y155953D01*
X96130Y155319D01*
X95496Y154493D01*
X95098Y153532D01*
X94962Y152500D01*
X95098Y151468D01*
X95496Y150507D01*
X96130Y149681D01*
X96955Y149047D01*
X97917Y148649D01*
X98949Y148513D01*
X99981Y148649D01*
X100942Y149047D01*
X101768Y149681D01*
X102401Y150507D01*
X102800Y151468D01*
X102936Y152500D01*
X102800Y153532D01*
X102401Y154493D01*
X101768Y155319D01*
X100942Y155953D01*
X99981Y156351D01*
X98949Y156487D01*
D02*
G37*
G36*
X48949D02*
X47917Y156351D01*
X46955Y155953D01*
X46130Y155319D01*
X45496Y154493D01*
X45098Y153532D01*
X44962Y152500D01*
X45098Y151468D01*
X45496Y150507D01*
X46130Y149681D01*
X46955Y149047D01*
X47917Y148649D01*
X48949Y148513D01*
X49981Y148649D01*
X50942Y149047D01*
X51768Y149681D01*
X52402Y150507D01*
X52800Y151468D01*
X52936Y152500D01*
X52800Y153532D01*
X52402Y154493D01*
X51768Y155319D01*
X50942Y155953D01*
X49981Y156351D01*
X48949Y156487D01*
D02*
G37*
G36*
X38949D02*
X37917Y156351D01*
X36955Y155953D01*
X36130Y155319D01*
X35496Y154493D01*
X35098Y153532D01*
X34962Y152500D01*
X35098Y151468D01*
X35496Y150507D01*
X36130Y149681D01*
X36955Y149047D01*
X37917Y148649D01*
X38949Y148513D01*
X39981Y148649D01*
X40942Y149047D01*
X41768Y149681D01*
X42401Y150507D01*
X42800Y151468D01*
X42936Y152500D01*
X42800Y153532D01*
X42401Y154493D01*
X41768Y155319D01*
X40942Y155953D01*
X39981Y156351D01*
X38949Y156487D01*
D02*
G37*
G36*
X18949D02*
X17917Y156351D01*
X16955Y155953D01*
X16130Y155319D01*
X15496Y154493D01*
X15098Y153532D01*
X14962Y152500D01*
X15098Y151468D01*
X15496Y150507D01*
X16130Y149681D01*
X16955Y149047D01*
X17917Y148649D01*
X18949Y148513D01*
X19981Y148649D01*
X20942Y149047D01*
X21768Y149681D01*
X22401Y150507D01*
X22800Y151468D01*
X22936Y152500D01*
X22800Y153532D01*
X22401Y154493D01*
X21768Y155319D01*
X20942Y155953D01*
X19981Y156351D01*
X18949Y156487D01*
D02*
G37*
G36*
X8949D02*
X7917Y156351D01*
X6955Y155953D01*
X6130Y155319D01*
X5496Y154493D01*
X5098Y153532D01*
X4962Y152500D01*
X5098Y151468D01*
X5496Y150507D01*
X6130Y149681D01*
X6955Y149047D01*
X7917Y148649D01*
X8949Y148513D01*
X9981Y148649D01*
X10942Y149047D01*
X11768Y149681D01*
X12402Y150507D01*
X12800Y151468D01*
X12936Y152500D01*
X12800Y153532D01*
X12402Y154493D01*
X11768Y155319D01*
X10942Y155953D01*
X9981Y156351D01*
X8949Y156487D01*
D02*
G37*
G36*
X188094Y145275D02*
X184551D01*
X184525Y145270D01*
X184498Y145274D01*
X184210Y145259D01*
X184158Y145246D01*
X184104Y145248D01*
X183819Y145203D01*
X183768Y145184D01*
X183714Y145180D01*
X183436Y145106D01*
X183387Y145082D01*
X183334Y145073D01*
X183065Y144969D01*
X183019Y144941D01*
X182967Y144926D01*
X182710Y144795D01*
X182668Y144762D01*
X182618Y144742D01*
X182376Y144585D01*
X182337Y144547D01*
X182290Y144522D01*
X182065Y144340D01*
X182031Y144299D01*
X181986Y144269D01*
X181782Y144065D01*
X181752Y144020D01*
X181711Y143986D01*
X181529Y143762D01*
X181504Y143714D01*
X181466Y143675D01*
X181309Y143433D01*
X181289Y143383D01*
X181256Y143341D01*
X181125Y143084D01*
X181110Y143032D01*
X181082Y142986D01*
X180978Y142717D01*
X180969Y142664D01*
X180945Y142615D01*
X180871Y142337D01*
X180867Y142283D01*
X180849Y142233D01*
X180803Y141948D01*
X180806Y141894D01*
X180792Y141841D01*
X180777Y141553D01*
X180785Y141500D01*
X180777Y141447D01*
X180792Y141159D01*
X180806Y141106D01*
X180803Y141052D01*
X180849Y140768D01*
X180867Y140717D01*
X180871Y140663D01*
X180945Y140384D01*
X180969Y140336D01*
X180978Y140283D01*
X181082Y140014D01*
X181110Y139968D01*
X181125Y139916D01*
X181256Y139659D01*
X181289Y139617D01*
X181309Y139567D01*
X181466Y139325D01*
X181504Y139286D01*
X181529Y139239D01*
X181711Y139014D01*
X181752Y138980D01*
X181782Y138935D01*
X181986Y138731D01*
X182031Y138701D01*
X182065Y138660D01*
X182290Y138478D01*
X182337Y138453D01*
X182376Y138415D01*
X182618Y138258D01*
X182668Y138238D01*
X182710Y138205D01*
X182967Y138074D01*
X183019Y138059D01*
X183065Y138031D01*
X183334Y137927D01*
X183387Y137918D01*
X183415Y137904D01*
Y136398D01*
X180795D01*
Y133152D01*
X189094D01*
Y136398D01*
X186474D01*
Y137724D01*
X188094D01*
X188485Y137802D01*
X188815Y138023D01*
X189037Y138354D01*
X189114Y138744D01*
Y144256D01*
X189037Y144646D01*
X188815Y144977D01*
X188485Y145198D01*
X188094Y145275D01*
D02*
G37*
G36*
X12902Y146453D02*
X4996D01*
Y138547D01*
X12902D01*
Y146453D01*
D02*
G37*
G36*
X148949Y146487D02*
X147917Y146351D01*
X146955Y145953D01*
X146130Y145319D01*
X145496Y144493D01*
X145098Y143532D01*
X144962Y142500D01*
X145098Y141468D01*
X145496Y140507D01*
X146130Y139681D01*
X146955Y139047D01*
X147917Y138649D01*
X148949Y138513D01*
X149981Y138649D01*
X150942Y139047D01*
X151768Y139681D01*
X152401Y140507D01*
X152800Y141468D01*
X152936Y142500D01*
X152800Y143532D01*
X152401Y144493D01*
X151768Y145319D01*
X150942Y145953D01*
X149981Y146351D01*
X148949Y146487D01*
D02*
G37*
G36*
X138949D02*
X137917Y146351D01*
X136955Y145953D01*
X136130Y145319D01*
X135496Y144493D01*
X135098Y143532D01*
X134962Y142500D01*
X135098Y141468D01*
X135496Y140507D01*
X136130Y139681D01*
X136955Y139047D01*
X137917Y138649D01*
X138949Y138513D01*
X139981Y138649D01*
X140942Y139047D01*
X141768Y139681D01*
X142402Y140507D01*
X142800Y141468D01*
X142936Y142500D01*
X142800Y143532D01*
X142402Y144493D01*
X141768Y145319D01*
X140942Y145953D01*
X139981Y146351D01*
X138949Y146487D01*
D02*
G37*
G36*
X128949D02*
X127917Y146351D01*
X126955Y145953D01*
X126130Y145319D01*
X125496Y144493D01*
X125098Y143532D01*
X124962Y142500D01*
X125098Y141468D01*
X125496Y140507D01*
X126130Y139681D01*
X126955Y139047D01*
X127917Y138649D01*
X128949Y138513D01*
X129981Y138649D01*
X130942Y139047D01*
X131768Y139681D01*
X132402Y140507D01*
X132800Y141468D01*
X132936Y142500D01*
X132800Y143532D01*
X132402Y144493D01*
X131768Y145319D01*
X130942Y145953D01*
X129981Y146351D01*
X128949Y146487D01*
D02*
G37*
G36*
X118949D02*
X117917Y146351D01*
X116955Y145953D01*
X116130Y145319D01*
X115496Y144493D01*
X115098Y143532D01*
X114962Y142500D01*
X115098Y141468D01*
X115496Y140507D01*
X116130Y139681D01*
X116955Y139047D01*
X117917Y138649D01*
X118949Y138513D01*
X119981Y138649D01*
X120942Y139047D01*
X121768Y139681D01*
X122401Y140507D01*
X122800Y141468D01*
X122936Y142500D01*
X122800Y143532D01*
X122401Y144493D01*
X121768Y145319D01*
X120942Y145953D01*
X119981Y146351D01*
X118949Y146487D01*
D02*
G37*
G36*
X108949D02*
X107917Y146351D01*
X106955Y145953D01*
X106130Y145319D01*
X105496Y144493D01*
X105098Y143532D01*
X104962Y142500D01*
X105098Y141468D01*
X105496Y140507D01*
X106130Y139681D01*
X106955Y139047D01*
X107917Y138649D01*
X108949Y138513D01*
X109981Y138649D01*
X110942Y139047D01*
X111768Y139681D01*
X112401Y140507D01*
X112800Y141468D01*
X112936Y142500D01*
X112800Y143532D01*
X112401Y144493D01*
X111768Y145319D01*
X110942Y145953D01*
X109981Y146351D01*
X108949Y146487D01*
D02*
G37*
G36*
X98949D02*
X97917Y146351D01*
X96955Y145953D01*
X96130Y145319D01*
X95496Y144493D01*
X95098Y143532D01*
X94962Y142500D01*
X95098Y141468D01*
X95496Y140507D01*
X96130Y139681D01*
X96955Y139047D01*
X97917Y138649D01*
X98949Y138513D01*
X99981Y138649D01*
X100942Y139047D01*
X101768Y139681D01*
X102401Y140507D01*
X102800Y141468D01*
X102936Y142500D01*
X102800Y143532D01*
X102401Y144493D01*
X101768Y145319D01*
X100942Y145953D01*
X99981Y146351D01*
X98949Y146487D01*
D02*
G37*
G36*
X88949D02*
X87917Y146351D01*
X86955Y145953D01*
X86130Y145319D01*
X85496Y144493D01*
X85098Y143532D01*
X84962Y142500D01*
X85098Y141468D01*
X85496Y140507D01*
X86130Y139681D01*
X86955Y139047D01*
X87917Y138649D01*
X88949Y138513D01*
X89981Y138649D01*
X90942Y139047D01*
X91768Y139681D01*
X92401Y140507D01*
X92800Y141468D01*
X92936Y142500D01*
X92800Y143532D01*
X92401Y144493D01*
X91768Y145319D01*
X90942Y145953D01*
X89981Y146351D01*
X88949Y146487D01*
D02*
G37*
G36*
X78949D02*
X77917Y146351D01*
X76955Y145953D01*
X76130Y145319D01*
X75496Y144493D01*
X75098Y143532D01*
X74962Y142500D01*
X75098Y141468D01*
X75496Y140507D01*
X76130Y139681D01*
X76955Y139047D01*
X77917Y138649D01*
X78949Y138513D01*
X79981Y138649D01*
X80942Y139047D01*
X81768Y139681D01*
X82402Y140507D01*
X82800Y141468D01*
X82936Y142500D01*
X82800Y143532D01*
X82402Y144493D01*
X81768Y145319D01*
X80942Y145953D01*
X79981Y146351D01*
X78949Y146487D01*
D02*
G37*
G36*
X68949D02*
X67917Y146351D01*
X66955Y145953D01*
X66130Y145319D01*
X65496Y144493D01*
X65098Y143532D01*
X64962Y142500D01*
X65098Y141468D01*
X65496Y140507D01*
X66130Y139681D01*
X66955Y139047D01*
X67917Y138649D01*
X68949Y138513D01*
X69981Y138649D01*
X70942Y139047D01*
X71768Y139681D01*
X72401Y140507D01*
X72800Y141468D01*
X72936Y142500D01*
X72800Y143532D01*
X72401Y144493D01*
X71768Y145319D01*
X70942Y145953D01*
X69981Y146351D01*
X68949Y146487D01*
D02*
G37*
G36*
X58949D02*
X57917Y146351D01*
X56955Y145953D01*
X56130Y145319D01*
X55496Y144493D01*
X55098Y143532D01*
X54962Y142500D01*
X55098Y141468D01*
X55496Y140507D01*
X56130Y139681D01*
X56955Y139047D01*
X57917Y138649D01*
X58949Y138513D01*
X59981Y138649D01*
X60942Y139047D01*
X61768Y139681D01*
X62401Y140507D01*
X62800Y141468D01*
X62936Y142500D01*
X62800Y143532D01*
X62401Y144493D01*
X61768Y145319D01*
X60942Y145953D01*
X59981Y146351D01*
X58949Y146487D01*
D02*
G37*
G36*
X48949D02*
X47917Y146351D01*
X46955Y145953D01*
X46130Y145319D01*
X45496Y144493D01*
X45098Y143532D01*
X44962Y142500D01*
X45098Y141468D01*
X45496Y140507D01*
X46130Y139681D01*
X46955Y139047D01*
X47917Y138649D01*
X48949Y138513D01*
X49981Y138649D01*
X50942Y139047D01*
X51768Y139681D01*
X52402Y140507D01*
X52800Y141468D01*
X52936Y142500D01*
X52800Y143532D01*
X52402Y144493D01*
X51768Y145319D01*
X50942Y145953D01*
X49981Y146351D01*
X48949Y146487D01*
D02*
G37*
G36*
X38949D02*
X37917Y146351D01*
X36955Y145953D01*
X36130Y145319D01*
X35496Y144493D01*
X35098Y143532D01*
X34962Y142500D01*
X35098Y141468D01*
X35496Y140507D01*
X36130Y139681D01*
X36955Y139047D01*
X37917Y138649D01*
X38949Y138513D01*
X39981Y138649D01*
X40942Y139047D01*
X41768Y139681D01*
X42401Y140507D01*
X42800Y141468D01*
X42936Y142500D01*
X42800Y143532D01*
X42401Y144493D01*
X41768Y145319D01*
X40942Y145953D01*
X39981Y146351D01*
X38949Y146487D01*
D02*
G37*
G36*
X28949D02*
X27917Y146351D01*
X26955Y145953D01*
X26130Y145319D01*
X25496Y144493D01*
X25098Y143532D01*
X24962Y142500D01*
X25098Y141468D01*
X25496Y140507D01*
X26130Y139681D01*
X26955Y139047D01*
X27917Y138649D01*
X28949Y138513D01*
X29981Y138649D01*
X30942Y139047D01*
X31768Y139681D01*
X32401Y140507D01*
X32800Y141468D01*
X32936Y142500D01*
X32800Y143532D01*
X32401Y144493D01*
X31768Y145319D01*
X30942Y145953D01*
X29981Y146351D01*
X28949Y146487D01*
D02*
G37*
G36*
X18949D02*
X17917Y146351D01*
X16955Y145953D01*
X16130Y145319D01*
X15496Y144493D01*
X15098Y143532D01*
X14962Y142500D01*
X15098Y141468D01*
X15496Y140507D01*
X16130Y139681D01*
X16955Y139047D01*
X17917Y138649D01*
X18949Y138513D01*
X19981Y138649D01*
X20942Y139047D01*
X21768Y139681D01*
X22401Y140507D01*
X22800Y141468D01*
X22936Y142500D01*
X22800Y143532D01*
X22401Y144493D01*
X21768Y145319D01*
X20942Y145953D01*
X19981Y146351D01*
X18949Y146487D01*
D02*
G37*
G36*
X47000Y137224D02*
X46149Y137055D01*
X45428Y136573D01*
X44945Y135851D01*
X44776Y135000D01*
X44919Y134280D01*
X44637Y133780D01*
X43863D01*
X43580Y134280D01*
X43724Y135000D01*
X43555Y135851D01*
X43073Y136573D01*
X42351Y137055D01*
X41500Y137224D01*
X40649Y137055D01*
X39928Y136573D01*
X39445Y135851D01*
X39276Y135000D01*
X39419Y134280D01*
X39137Y133780D01*
X38500D01*
Y119500D01*
X52780D01*
Y133780D01*
X49363D01*
X49081Y134280D01*
X49224Y135000D01*
X49055Y135851D01*
X48572Y136573D01*
X47851Y137055D01*
X47000Y137224D01*
D02*
G37*
G36*
X222205Y136398D02*
X218555D01*
Y133151D01*
X222205D01*
Y136398D01*
D02*
G37*
G36*
X217555D02*
X213906D01*
Y133151D01*
X217555D01*
Y136398D01*
D02*
G37*
G36*
X222205Y132151D02*
X218555D01*
Y128905D01*
X222205D01*
Y132151D01*
D02*
G37*
G36*
X217555D02*
X213906D01*
Y128905D01*
X217555D01*
Y132151D01*
D02*
G37*
G36*
X189094Y132152D02*
X185445D01*
Y128905D01*
X189094D01*
Y132152D01*
D02*
G37*
G36*
X184445D02*
X180795D01*
Y128905D01*
X184445D01*
Y132152D01*
D02*
G37*
G36*
X88213Y133780D02*
X73933D01*
Y119500D01*
X88213D01*
Y133780D01*
D02*
G37*
G36*
X58585Y136905D02*
X57734Y136736D01*
X57013Y136254D01*
X56531Y135532D01*
X56361Y134681D01*
X56531Y133830D01*
X57013Y133109D01*
X57734Y132626D01*
X58585Y132457D01*
X58653Y132401D01*
Y119500D01*
X72933D01*
Y133780D01*
X61140D01*
X60729Y134280D01*
X60809Y134681D01*
X60640Y135532D01*
X60158Y136254D01*
X59436Y136736D01*
X58585Y136905D01*
D02*
G37*
G36*
X123646Y133780D02*
X109366D01*
Y119500D01*
X123646D01*
Y133780D01*
D02*
G37*
G36*
X108366D02*
X94087D01*
Y119500D01*
X108366D01*
Y133780D01*
D02*
G37*
G36*
X35138Y138641D02*
X34287Y138472D01*
X33565Y137990D01*
X33083Y137268D01*
X32914Y136417D01*
X33083Y135566D01*
X33565Y134845D01*
X34287Y134363D01*
X34705Y134280D01*
X34656Y133780D01*
X23221D01*
Y119500D01*
X37500D01*
Y133780D01*
X35620D01*
X35570Y134280D01*
X35989Y134363D01*
X36710Y134845D01*
X37192Y135566D01*
X37362Y136417D01*
X37192Y137268D01*
X36710Y137990D01*
X35989Y138472D01*
X35138Y138641D01*
D02*
G37*
G36*
X216059Y111339D02*
X213000D01*
Y108083D01*
X216059D01*
Y111339D01*
D02*
G37*
G36*
X212000D02*
X208941D01*
Y108083D01*
X212000D01*
Y111339D01*
D02*
G37*
G36*
X129500Y110724D02*
X128649Y110555D01*
X127927Y110073D01*
X127445Y109351D01*
X127276Y108500D01*
X127445Y107649D01*
X127927Y106928D01*
X128649Y106446D01*
X129500Y106276D01*
X130351Y106446D01*
X131072Y106928D01*
X131554Y107649D01*
X131724Y108500D01*
X131554Y109351D01*
X131072Y110073D01*
X130351Y110555D01*
X129500Y110724D01*
D02*
G37*
G36*
X123646Y118500D02*
X109366D01*
Y104220D01*
X123646D01*
Y118500D01*
D02*
G37*
G36*
X108366D02*
X94087D01*
Y104220D01*
X108366D01*
Y118500D01*
D02*
G37*
G36*
X88213Y118500D02*
X73933D01*
Y104220D01*
X88213D01*
Y118500D01*
D02*
G37*
G36*
X72933D02*
X58653D01*
Y104220D01*
X72933D01*
Y118500D01*
D02*
G37*
G36*
X52780Y118500D02*
X38500D01*
Y104220D01*
X52780D01*
Y118500D01*
D02*
G37*
G36*
X37500D02*
X23221D01*
Y104220D01*
X37500D01*
Y118500D01*
D02*
G37*
G36*
X216059Y107083D02*
X213000D01*
Y103827D01*
X216059D01*
Y107083D01*
D02*
G37*
G36*
X212000D02*
X208941D01*
Y103827D01*
X212000D01*
Y107083D01*
D02*
G37*
G36*
X206059Y111339D02*
X198941D01*
Y103827D01*
X206059D01*
Y111339D01*
D02*
G37*
G36*
X179000Y128724D02*
X178149Y128554D01*
X177427Y128073D01*
X176945Y127351D01*
X176776Y126500D01*
X176945Y125649D01*
X177427Y124927D01*
X178149Y124445D01*
X179000Y124276D01*
X179051Y124286D01*
X190971Y112366D01*
Y111339D01*
X188941D01*
Y103827D01*
X196059D01*
Y111339D01*
X194029D01*
Y113000D01*
X193913Y113585D01*
X193581Y114081D01*
X181214Y126449D01*
X181224Y126500D01*
X181054Y127351D01*
X180572Y128073D01*
X179851Y128554D01*
X179000Y128724D01*
D02*
G37*
G36*
X186059Y111339D02*
X178941D01*
Y103827D01*
X186059D01*
Y111339D01*
D02*
G37*
G36*
X140911Y107135D02*
X140060Y106966D01*
X139339Y106484D01*
X138857Y105762D01*
X138688Y104911D01*
X138857Y104060D01*
X139339Y103339D01*
X140060Y102857D01*
X140911Y102688D01*
X141762Y102857D01*
X142484Y103339D01*
X142966Y104060D01*
X143135Y104911D01*
X142966Y105762D01*
X142484Y106484D01*
X141762Y106966D01*
X140911Y107135D01*
D02*
G37*
G36*
X63563Y103606D02*
X62712Y103437D01*
X61990Y102954D01*
X61509Y102233D01*
X61339Y101382D01*
X61509Y100531D01*
X61990Y99809D01*
X62712Y99327D01*
X63563Y99158D01*
X64414Y99327D01*
X65136Y99809D01*
X65618Y100531D01*
X65787Y101382D01*
X65618Y102233D01*
X65136Y102954D01*
X64414Y103437D01*
X63563Y103606D01*
D02*
G37*
G36*
X140354Y94850D02*
X137000D01*
Y92087D01*
X140354D01*
Y94850D01*
D02*
G37*
G36*
X136000D02*
X132646D01*
Y92087D01*
X136000D01*
Y94850D01*
D02*
G37*
G36*
X160354Y94764D02*
X157000D01*
Y92000D01*
X160354D01*
Y94764D01*
D02*
G37*
G36*
X150854D02*
X147500D01*
Y92000D01*
X150854D01*
Y94764D01*
D02*
G37*
G36*
X156000D02*
X152646D01*
Y92000D01*
X156000D01*
Y94764D01*
D02*
G37*
G36*
X146500D02*
X143146D01*
Y92000D01*
X146500D01*
Y94764D01*
D02*
G37*
G36*
X140354Y91087D02*
X137000D01*
Y88323D01*
X140354D01*
Y91087D01*
D02*
G37*
G36*
X136000D02*
X132646D01*
Y88323D01*
X136000D01*
Y91087D01*
D02*
G37*
G36*
X160354Y91000D02*
X157000D01*
Y88236D01*
X160354D01*
Y91000D01*
D02*
G37*
G36*
X156000D02*
X152646D01*
Y88236D01*
X156000D01*
Y91000D01*
D02*
G37*
G36*
X150854D02*
X147500D01*
Y88236D01*
X150854D01*
Y91000D01*
D02*
G37*
G36*
X146500D02*
X143146D01*
Y88236D01*
X146500D01*
Y91000D01*
D02*
G37*
G36*
X221122Y92792D02*
X220039Y92649D01*
X219029Y92231D01*
X218162Y91566D01*
X217497Y90699D01*
X217079Y89690D01*
X216937Y88606D01*
X217079Y87523D01*
X217497Y86514D01*
X218162Y85647D01*
X219029Y84982D01*
X220039Y84563D01*
X221122Y84421D01*
X222205Y84563D01*
X223215Y84982D01*
X224082Y85647D01*
X224747Y86514D01*
X225165Y87523D01*
X225307Y88606D01*
X225165Y89690D01*
X224747Y90699D01*
X224082Y91566D01*
X223215Y92231D01*
X222205Y92649D01*
X221122Y92792D01*
D02*
G37*
G36*
X88213Y98347D02*
X73933D01*
Y84067D01*
X88213D01*
Y98347D01*
D02*
G37*
G36*
X72933D02*
X58653D01*
Y84067D01*
X72933D01*
Y98347D01*
D02*
G37*
G36*
X108366D02*
X94087D01*
Y84067D01*
X108366D01*
Y98347D01*
D02*
G37*
G36*
X123646D02*
X109366D01*
Y84067D01*
X123646D01*
Y84198D01*
X124146Y84349D01*
X124427Y83928D01*
X125149Y83446D01*
X126000Y83276D01*
X126851Y83446D01*
X127573Y83928D01*
X128054Y84649D01*
X128224Y85500D01*
X128054Y86351D01*
X127573Y87072D01*
X126851Y87555D01*
X126000Y87724D01*
X125149Y87555D01*
X124427Y87072D01*
X124146Y86651D01*
X123646Y86802D01*
Y98347D01*
D02*
G37*
G36*
X129000Y82224D02*
X128149Y82055D01*
X127427Y81573D01*
X126945Y80851D01*
X126776Y80000D01*
X126945Y79149D01*
X127427Y78427D01*
X128149Y77946D01*
X129000Y77776D01*
X129851Y77946D01*
X130572Y78427D01*
X131054Y79149D01*
X131224Y80000D01*
X131054Y80851D01*
X130572Y81573D01*
X129851Y82055D01*
X129000Y82224D01*
D02*
G37*
G36*
X160354Y87677D02*
X152646D01*
Y81150D01*
X156716D01*
Y75510D01*
X156216Y75358D01*
X156072Y75573D01*
X155351Y76055D01*
X154500Y76224D01*
X153649Y76055D01*
X152927Y75573D01*
X152445Y74851D01*
X152276Y74000D01*
X152445Y73149D01*
X152927Y72427D01*
X153649Y71946D01*
X154500Y71776D01*
X155351Y71946D01*
X155932Y72334D01*
X156390Y72071D01*
X156276Y71500D01*
X156446Y70649D01*
X156928Y69928D01*
X157649Y69446D01*
X158500Y69276D01*
X159351Y69446D01*
X160073Y69928D01*
X160555Y70649D01*
X160724Y71500D01*
X160555Y72351D01*
X160284Y72755D01*
Y81150D01*
X160354D01*
Y87677D01*
D02*
G37*
G36*
X150854D02*
X143146D01*
Y81150D01*
X145216D01*
Y77755D01*
X144946Y77351D01*
X144776Y76500D01*
X144946Y75649D01*
X145428Y74928D01*
X146149Y74445D01*
X147000Y74276D01*
X147851Y74445D01*
X148573Y74928D01*
X149055Y75649D01*
X149224Y76500D01*
X149055Y77351D01*
X148784Y77755D01*
Y81150D01*
X150854D01*
Y87677D01*
D02*
G37*
G36*
X140354Y87764D02*
X132646D01*
Y81236D01*
X134716D01*
Y79000D01*
X134852Y78317D01*
X135238Y77738D01*
X137850Y75126D01*
X137945Y74649D01*
X138427Y73927D01*
X139149Y73445D01*
X140000Y73276D01*
X140851Y73445D01*
X141572Y73927D01*
X142054Y74649D01*
X142224Y75500D01*
X142054Y76351D01*
X141572Y77073D01*
X140851Y77555D01*
X140374Y77649D01*
X138284Y79739D01*
Y81236D01*
X140354D01*
Y87764D01*
D02*
G37*
G36*
X123646Y83067D02*
X109366D01*
Y68787D01*
X123646D01*
Y83067D01*
D02*
G37*
G36*
X108366D02*
X94087D01*
Y68787D01*
X108366D01*
Y83067D01*
D02*
G37*
G36*
X88213Y83067D02*
X73933D01*
Y68787D01*
X88213D01*
Y83067D01*
D02*
G37*
G36*
X72933D02*
X58653D01*
Y68787D01*
X72933D01*
Y83067D01*
D02*
G37*
G36*
X44087Y97197D02*
X12197D01*
Y69500D01*
X20191D01*
X20382Y69038D01*
X19516Y68172D01*
X18925Y68054D01*
X18203Y67572D01*
X17721Y66851D01*
X17552Y66000D01*
X17721Y65149D01*
X18203Y64428D01*
X18925Y63946D01*
X19776Y63776D01*
X20627Y63946D01*
X21348Y64428D01*
X21831Y65149D01*
X21948Y65740D01*
X25708Y69500D01*
X44087D01*
Y69697D01*
Y97197D01*
D02*
G37*
G36*
X129500Y67724D02*
X128649Y67554D01*
X127927Y67072D01*
X127445Y66351D01*
X127276Y65500D01*
X127445Y64649D01*
X127927Y63928D01*
X128649Y63446D01*
X129500Y63276D01*
X130351Y63446D01*
X131072Y63928D01*
X131554Y64649D01*
X131724Y65500D01*
X131554Y66351D01*
X131072Y67072D01*
X130351Y67554D01*
X129500Y67724D01*
D02*
G37*
G36*
X123646Y62913D02*
X109366D01*
Y48634D01*
X123646D01*
Y56018D01*
X124146Y56282D01*
X124649Y55945D01*
X125500Y55776D01*
X126351Y55945D01*
X127073Y56428D01*
X127555Y57149D01*
X127724Y58000D01*
X127555Y58851D01*
X127073Y59572D01*
X126351Y60054D01*
X125500Y60224D01*
X124649Y60054D01*
X124146Y59718D01*
X123646Y59982D01*
Y62913D01*
D02*
G37*
G36*
X88213D02*
X73933D01*
Y48634D01*
X88213D01*
Y62913D01*
D02*
G37*
G36*
X72933D02*
X58653D01*
Y48634D01*
X72933D01*
Y62913D01*
D02*
G37*
G36*
X52780D02*
X38500D01*
Y48634D01*
X52780D01*
Y62913D01*
D02*
G37*
G36*
X37500D02*
X23221D01*
Y48634D01*
X37500D01*
Y62913D01*
D02*
G37*
G36*
X108366D02*
X94087D01*
Y48634D01*
X108366D01*
Y62913D01*
D02*
G37*
G36*
X11000Y42224D02*
X10149Y42055D01*
X9427Y41572D01*
X8945Y40851D01*
X8776Y40000D01*
X8945Y39149D01*
X9427Y38427D01*
X10149Y37945D01*
X11000Y37776D01*
X11851Y37945D01*
X12573Y38427D01*
X13055Y39149D01*
X13224Y40000D01*
X13055Y40851D01*
X12573Y41572D01*
X11851Y42055D01*
X11000Y42224D01*
D02*
G37*
G36*
X140453Y44953D02*
X132547D01*
Y37047D01*
X140453D01*
Y44953D01*
D02*
G37*
G36*
X123646Y47634D02*
X109366D01*
Y33354D01*
X123646D01*
Y34698D01*
X124146Y34849D01*
X124427Y34427D01*
X125149Y33945D01*
X126000Y33776D01*
X126851Y33945D01*
X127573Y34427D01*
X128054Y35149D01*
X128224Y36000D01*
X128054Y36851D01*
X127573Y37573D01*
X126974Y37972D01*
X126943Y38091D01*
Y38409D01*
X126974Y38528D01*
X127573Y38928D01*
X128054Y39649D01*
X128224Y40500D01*
X128054Y41351D01*
X127573Y42072D01*
X126851Y42555D01*
X126000Y42724D01*
X125149Y42555D01*
X124427Y42072D01*
X124146Y41651D01*
X123646Y41802D01*
Y47634D01*
D02*
G37*
G36*
X108366D02*
X94087D01*
Y33354D01*
X108366D01*
Y47634D01*
D02*
G37*
G36*
X72933Y47634D02*
X58653D01*
Y33354D01*
X72933D01*
Y47634D01*
D02*
G37*
G36*
X52780Y47634D02*
X38500D01*
Y33354D01*
X52780D01*
Y47634D01*
D02*
G37*
G36*
X37500D02*
X23221D01*
Y33354D01*
X37500D01*
Y47634D01*
D02*
G37*
G36*
X88213Y47634D02*
X73933D01*
Y33354D01*
X86363D01*
X86514Y32854D01*
X85927Y32462D01*
X85445Y31741D01*
X85276Y30890D01*
X85445Y30039D01*
X85927Y29317D01*
X86649Y28835D01*
X87500Y28666D01*
X88351Y28835D01*
X89073Y29317D01*
X89555Y30039D01*
X89724Y30890D01*
X89555Y31741D01*
X89073Y32462D01*
X88381Y32924D01*
X88279Y33184D01*
X88213Y33407D01*
X88213Y33482D01*
Y47634D01*
D02*
G37*
G36*
X55500Y32224D02*
X54649Y32055D01*
X53927Y31572D01*
X53446Y30851D01*
X53276Y30000D01*
X53446Y29149D01*
X53927Y28427D01*
X54649Y27945D01*
X55500Y27776D01*
X56351Y27945D01*
X57073Y28427D01*
X57555Y29149D01*
X57724Y30000D01*
X57555Y30851D01*
X57073Y31572D01*
X56351Y32055D01*
X55500Y32224D01*
D02*
G37*
G36*
X43500D02*
X42649Y32055D01*
X41927Y31572D01*
X41445Y30851D01*
X41276Y30000D01*
X41445Y29149D01*
X41927Y28427D01*
X42649Y27945D01*
X43500Y27776D01*
X44351Y27945D01*
X45072Y28427D01*
X45555Y29149D01*
X45724Y30000D01*
X45555Y30851D01*
X45072Y31572D01*
X44351Y32055D01*
X43500Y32224D01*
D02*
G37*
G36*
X173878Y29201D02*
X173052Y29092D01*
X172282Y28773D01*
X171620Y28265D01*
X171113Y27604D01*
X170794Y26834D01*
X170685Y26008D01*
X170794Y25181D01*
X171113Y24411D01*
X171620Y23750D01*
X172282Y23243D01*
X173052Y22924D01*
X173878Y22815D01*
X174704Y22924D01*
X175474Y23243D01*
X176136Y23750D01*
X176643Y24411D01*
X176962Y25181D01*
X177071Y26008D01*
X176962Y26834D01*
X176643Y27604D01*
X176136Y28265D01*
X175474Y28773D01*
X174704Y29092D01*
X173878Y29201D01*
D02*
G37*
G36*
X152902Y26842D02*
X144996D01*
Y18937D01*
X152902D01*
Y26842D01*
D02*
G37*
G36*
X138949Y26877D02*
X137917Y26741D01*
X136955Y26342D01*
X136130Y25709D01*
X135496Y24883D01*
X135098Y23922D01*
X134962Y22890D01*
X135098Y21858D01*
X135496Y20896D01*
X136130Y20071D01*
X136955Y19437D01*
X137917Y19039D01*
X138949Y18903D01*
X139981Y19039D01*
X140942Y19437D01*
X141768Y20071D01*
X142402Y20896D01*
X142800Y21858D01*
X142936Y22890D01*
X142800Y23922D01*
X142402Y24883D01*
X141768Y25709D01*
X140942Y26342D01*
X139981Y26741D01*
X138949Y26877D01*
D02*
G37*
G36*
X128949D02*
X127917Y26741D01*
X126955Y26342D01*
X126130Y25709D01*
X125496Y24883D01*
X125098Y23922D01*
X124962Y22890D01*
X125098Y21858D01*
X125496Y20896D01*
X126130Y20071D01*
X126955Y19437D01*
X127917Y19039D01*
X128949Y18903D01*
X129981Y19039D01*
X130942Y19437D01*
X131768Y20071D01*
X132402Y20896D01*
X132800Y21858D01*
X132936Y22890D01*
X132800Y23922D01*
X132402Y24883D01*
X131768Y25709D01*
X130942Y26342D01*
X129981Y26741D01*
X128949Y26877D01*
D02*
G37*
G36*
X118949D02*
X117917Y26741D01*
X116955Y26342D01*
X116130Y25709D01*
X115496Y24883D01*
X115098Y23922D01*
X114962Y22890D01*
X115098Y21858D01*
X115496Y20896D01*
X116130Y20071D01*
X116955Y19437D01*
X117917Y19039D01*
X118949Y18903D01*
X119981Y19039D01*
X120942Y19437D01*
X121768Y20071D01*
X122401Y20896D01*
X122800Y21858D01*
X122936Y22890D01*
X122800Y23922D01*
X122401Y24883D01*
X121768Y25709D01*
X120942Y26342D01*
X119981Y26741D01*
X118949Y26877D01*
D02*
G37*
G36*
X108949D02*
X107917Y26741D01*
X106955Y26342D01*
X106130Y25709D01*
X105496Y24883D01*
X105098Y23922D01*
X104962Y22890D01*
X105098Y21858D01*
X105496Y20896D01*
X106130Y20071D01*
X106955Y19437D01*
X107917Y19039D01*
X108949Y18903D01*
X109981Y19039D01*
X110942Y19437D01*
X111768Y20071D01*
X112401Y20896D01*
X112800Y21858D01*
X112936Y22890D01*
X112800Y23922D01*
X112401Y24883D01*
X111768Y25709D01*
X110942Y26342D01*
X109981Y26741D01*
X108949Y26877D01*
D02*
G37*
G36*
X98949D02*
X97917Y26741D01*
X96955Y26342D01*
X96130Y25709D01*
X95496Y24883D01*
X95098Y23922D01*
X94962Y22890D01*
X95098Y21858D01*
X95496Y20896D01*
X96130Y20071D01*
X96955Y19437D01*
X97917Y19039D01*
X98949Y18903D01*
X99981Y19039D01*
X100942Y19437D01*
X101768Y20071D01*
X102401Y20896D01*
X102800Y21858D01*
X102936Y22890D01*
X102800Y23922D01*
X102401Y24883D01*
X101768Y25709D01*
X100942Y26342D01*
X99981Y26741D01*
X98949Y26877D01*
D02*
G37*
G36*
X88949D02*
X87917Y26741D01*
X86955Y26342D01*
X86130Y25709D01*
X85496Y24883D01*
X85098Y23922D01*
X84962Y22890D01*
X85098Y21858D01*
X85496Y20896D01*
X86130Y20071D01*
X86955Y19437D01*
X87917Y19039D01*
X88949Y18903D01*
X89981Y19039D01*
X90942Y19437D01*
X91768Y20071D01*
X92401Y20896D01*
X92800Y21858D01*
X92936Y22890D01*
X92800Y23922D01*
X92401Y24883D01*
X91768Y25709D01*
X90942Y26342D01*
X89981Y26741D01*
X88949Y26877D01*
D02*
G37*
G36*
X78949D02*
X77917Y26741D01*
X76955Y26342D01*
X76130Y25709D01*
X75496Y24883D01*
X75098Y23922D01*
X74962Y22890D01*
X75098Y21858D01*
X75496Y20896D01*
X76130Y20071D01*
X76955Y19437D01*
X77917Y19039D01*
X78949Y18903D01*
X79981Y19039D01*
X80942Y19437D01*
X81768Y20071D01*
X82402Y20896D01*
X82800Y21858D01*
X82936Y22890D01*
X82800Y23922D01*
X82402Y24883D01*
X81768Y25709D01*
X80942Y26342D01*
X79981Y26741D01*
X78949Y26877D01*
D02*
G37*
G36*
X68949D02*
X67917Y26741D01*
X66955Y26342D01*
X66130Y25709D01*
X65496Y24883D01*
X65098Y23922D01*
X64962Y22890D01*
X65098Y21858D01*
X65496Y20896D01*
X66130Y20071D01*
X66955Y19437D01*
X67917Y19039D01*
X68949Y18903D01*
X69981Y19039D01*
X70942Y19437D01*
X71768Y20071D01*
X72401Y20896D01*
X72800Y21858D01*
X72936Y22890D01*
X72800Y23922D01*
X72401Y24883D01*
X71768Y25709D01*
X70942Y26342D01*
X69981Y26741D01*
X68949Y26877D01*
D02*
G37*
G36*
X58949D02*
X57917Y26741D01*
X56955Y26342D01*
X56130Y25709D01*
X55496Y24883D01*
X55098Y23922D01*
X54962Y22890D01*
X55098Y21858D01*
X55496Y20896D01*
X56130Y20071D01*
X56955Y19437D01*
X57917Y19039D01*
X58949Y18903D01*
X59981Y19039D01*
X60942Y19437D01*
X61768Y20071D01*
X62401Y20896D01*
X62800Y21858D01*
X62936Y22890D01*
X62800Y23922D01*
X62401Y24883D01*
X61768Y25709D01*
X60942Y26342D01*
X59981Y26741D01*
X58949Y26877D01*
D02*
G37*
G36*
X48949D02*
X47917Y26741D01*
X46955Y26342D01*
X46130Y25709D01*
X45496Y24883D01*
X45098Y23922D01*
X44962Y22890D01*
X45098Y21858D01*
X45496Y20896D01*
X46130Y20071D01*
X46955Y19437D01*
X47917Y19039D01*
X48949Y18903D01*
X49981Y19039D01*
X50942Y19437D01*
X51768Y20071D01*
X52402Y20896D01*
X52800Y21858D01*
X52936Y22890D01*
X52800Y23922D01*
X52402Y24883D01*
X51768Y25709D01*
X50942Y26342D01*
X49981Y26741D01*
X48949Y26877D01*
D02*
G37*
G36*
X38949D02*
X37917Y26741D01*
X36955Y26342D01*
X36130Y25709D01*
X35496Y24883D01*
X35098Y23922D01*
X34962Y22890D01*
X35098Y21858D01*
X35496Y20896D01*
X36130Y20071D01*
X36955Y19437D01*
X37917Y19039D01*
X38949Y18903D01*
X39981Y19039D01*
X40942Y19437D01*
X41768Y20071D01*
X42401Y20896D01*
X42800Y21858D01*
X42936Y22890D01*
X42800Y23922D01*
X42401Y24883D01*
X41768Y25709D01*
X40942Y26342D01*
X39981Y26741D01*
X38949Y26877D01*
D02*
G37*
G36*
X28949D02*
X27917Y26741D01*
X26955Y26342D01*
X26130Y25709D01*
X25496Y24883D01*
X25098Y23922D01*
X24962Y22890D01*
X25098Y21858D01*
X25496Y20896D01*
X26130Y20071D01*
X26955Y19437D01*
X27917Y19039D01*
X28949Y18903D01*
X29981Y19039D01*
X30942Y19437D01*
X31768Y20071D01*
X32401Y20896D01*
X32800Y21858D01*
X32936Y22890D01*
X32800Y23922D01*
X32401Y24883D01*
X31768Y25709D01*
X30942Y26342D01*
X29981Y26741D01*
X28949Y26877D01*
D02*
G37*
G36*
X18949D02*
X17917Y26741D01*
X16955Y26342D01*
X16130Y25709D01*
X15496Y24883D01*
X15098Y23922D01*
X14962Y22890D01*
X15098Y21858D01*
X15496Y20896D01*
X16130Y20071D01*
X16955Y19437D01*
X17917Y19039D01*
X18949Y18903D01*
X19981Y19039D01*
X20942Y19437D01*
X21768Y20071D01*
X22401Y20896D01*
X22800Y21858D01*
X22936Y22890D01*
X22800Y23922D01*
X22401Y24883D01*
X21768Y25709D01*
X20942Y26342D01*
X19981Y26741D01*
X18949Y26877D01*
D02*
G37*
G36*
X8949D02*
X7917Y26741D01*
X6955Y26342D01*
X6130Y25709D01*
X5496Y24883D01*
X5098Y23922D01*
X4962Y22890D01*
X5098Y21858D01*
X5496Y20896D01*
X6130Y20071D01*
X6955Y19437D01*
X7917Y19039D01*
X8949Y18903D01*
X9981Y19039D01*
X10942Y19437D01*
X11768Y20071D01*
X12402Y20896D01*
X12800Y21858D01*
X12936Y22890D01*
X12800Y23922D01*
X12402Y24883D01*
X11768Y25709D01*
X10942Y26342D01*
X9981Y26741D01*
X8949Y26877D01*
D02*
G37*
G36*
X148949Y16877D02*
X147917Y16741D01*
X146955Y16342D01*
X146130Y15709D01*
X145496Y14883D01*
X145098Y13922D01*
X144962Y12890D01*
X145098Y11858D01*
X145496Y10896D01*
X146130Y10071D01*
X146955Y9437D01*
X147917Y9039D01*
X148949Y8903D01*
X149981Y9039D01*
X150942Y9437D01*
X151768Y10071D01*
X152401Y10896D01*
X152800Y11858D01*
X152936Y12890D01*
X152800Y13922D01*
X152401Y14883D01*
X151768Y15709D01*
X150942Y16342D01*
X149981Y16741D01*
X148949Y16877D01*
D02*
G37*
G36*
X138949D02*
X137917Y16741D01*
X136955Y16342D01*
X136130Y15709D01*
X135496Y14883D01*
X135098Y13922D01*
X134962Y12890D01*
X135098Y11858D01*
X135496Y10896D01*
X136130Y10071D01*
X136955Y9437D01*
X137917Y9039D01*
X138949Y8903D01*
X139981Y9039D01*
X140942Y9437D01*
X141768Y10071D01*
X142402Y10896D01*
X142800Y11858D01*
X142936Y12890D01*
X142800Y13922D01*
X142402Y14883D01*
X141768Y15709D01*
X140942Y16342D01*
X139981Y16741D01*
X138949Y16877D01*
D02*
G37*
G36*
X128949D02*
X127917Y16741D01*
X126955Y16342D01*
X126130Y15709D01*
X125496Y14883D01*
X125098Y13922D01*
X124962Y12890D01*
X125098Y11858D01*
X125496Y10896D01*
X126130Y10071D01*
X126955Y9437D01*
X127917Y9039D01*
X128949Y8903D01*
X129981Y9039D01*
X130942Y9437D01*
X131768Y10071D01*
X132402Y10896D01*
X132800Y11858D01*
X132936Y12890D01*
X132800Y13922D01*
X132402Y14883D01*
X131768Y15709D01*
X130942Y16342D01*
X129981Y16741D01*
X128949Y16877D01*
D02*
G37*
G36*
X118949D02*
X117917Y16741D01*
X116955Y16342D01*
X116130Y15709D01*
X115496Y14883D01*
X115098Y13922D01*
X114962Y12890D01*
X115098Y11858D01*
X115496Y10896D01*
X116130Y10071D01*
X116955Y9437D01*
X117917Y9039D01*
X118949Y8903D01*
X119981Y9039D01*
X120942Y9437D01*
X121768Y10071D01*
X122401Y10896D01*
X122800Y11858D01*
X122936Y12890D01*
X122800Y13922D01*
X122401Y14883D01*
X121768Y15709D01*
X120942Y16342D01*
X119981Y16741D01*
X118949Y16877D01*
D02*
G37*
G36*
X108949D02*
X107917Y16741D01*
X106955Y16342D01*
X106130Y15709D01*
X105496Y14883D01*
X105098Y13922D01*
X104962Y12890D01*
X105098Y11858D01*
X105496Y10896D01*
X106130Y10071D01*
X106955Y9437D01*
X107917Y9039D01*
X108949Y8903D01*
X109981Y9039D01*
X110942Y9437D01*
X111768Y10071D01*
X112401Y10896D01*
X112800Y11858D01*
X112936Y12890D01*
X112800Y13922D01*
X112401Y14883D01*
X111768Y15709D01*
X110942Y16342D01*
X109981Y16741D01*
X108949Y16877D01*
D02*
G37*
G36*
X98949D02*
X97917Y16741D01*
X96955Y16342D01*
X96130Y15709D01*
X95496Y14883D01*
X95098Y13922D01*
X94962Y12890D01*
X95098Y11858D01*
X95496Y10896D01*
X96130Y10071D01*
X96955Y9437D01*
X97917Y9039D01*
X98949Y8903D01*
X99981Y9039D01*
X100942Y9437D01*
X101768Y10071D01*
X102401Y10896D01*
X102800Y11858D01*
X102936Y12890D01*
X102800Y13922D01*
X102401Y14883D01*
X101768Y15709D01*
X100942Y16342D01*
X99981Y16741D01*
X98949Y16877D01*
D02*
G37*
G36*
X88949D02*
X87917Y16741D01*
X86955Y16342D01*
X86130Y15709D01*
X85496Y14883D01*
X85098Y13922D01*
X84962Y12890D01*
X85098Y11858D01*
X85496Y10896D01*
X86130Y10071D01*
X86955Y9437D01*
X87917Y9039D01*
X88949Y8903D01*
X89981Y9039D01*
X90942Y9437D01*
X91768Y10071D01*
X92401Y10896D01*
X92800Y11858D01*
X92936Y12890D01*
X92800Y13922D01*
X92401Y14883D01*
X91768Y15709D01*
X90942Y16342D01*
X89981Y16741D01*
X88949Y16877D01*
D02*
G37*
G36*
X78949D02*
X77917Y16741D01*
X76955Y16342D01*
X76130Y15709D01*
X75496Y14883D01*
X75098Y13922D01*
X74962Y12890D01*
X75098Y11858D01*
X75496Y10896D01*
X76130Y10071D01*
X76955Y9437D01*
X77917Y9039D01*
X78949Y8903D01*
X79981Y9039D01*
X80942Y9437D01*
X81768Y10071D01*
X82402Y10896D01*
X82800Y11858D01*
X82936Y12890D01*
X82800Y13922D01*
X82402Y14883D01*
X81768Y15709D01*
X80942Y16342D01*
X79981Y16741D01*
X78949Y16877D01*
D02*
G37*
G36*
X68949D02*
X67917Y16741D01*
X66955Y16342D01*
X66130Y15709D01*
X65496Y14883D01*
X65098Y13922D01*
X64962Y12890D01*
X65098Y11858D01*
X65496Y10896D01*
X66130Y10071D01*
X66955Y9437D01*
X67917Y9039D01*
X68949Y8903D01*
X69981Y9039D01*
X70942Y9437D01*
X71768Y10071D01*
X72401Y10896D01*
X72800Y11858D01*
X72936Y12890D01*
X72800Y13922D01*
X72401Y14883D01*
X71768Y15709D01*
X70942Y16342D01*
X69981Y16741D01*
X68949Y16877D01*
D02*
G37*
G36*
X58949D02*
X57917Y16741D01*
X56955Y16342D01*
X56130Y15709D01*
X55496Y14883D01*
X55098Y13922D01*
X54962Y12890D01*
X55098Y11858D01*
X55496Y10896D01*
X56130Y10071D01*
X56955Y9437D01*
X57917Y9039D01*
X58949Y8903D01*
X59981Y9039D01*
X60942Y9437D01*
X61768Y10071D01*
X62401Y10896D01*
X62800Y11858D01*
X62936Y12890D01*
X62800Y13922D01*
X62401Y14883D01*
X61768Y15709D01*
X60942Y16342D01*
X59981Y16741D01*
X58949Y16877D01*
D02*
G37*
G36*
X48949D02*
X47917Y16741D01*
X46955Y16342D01*
X46130Y15709D01*
X45496Y14883D01*
X45098Y13922D01*
X44962Y12890D01*
X45098Y11858D01*
X45496Y10896D01*
X46130Y10071D01*
X46955Y9437D01*
X47917Y9039D01*
X48949Y8903D01*
X49981Y9039D01*
X50942Y9437D01*
X51768Y10071D01*
X52402Y10896D01*
X52800Y11858D01*
X52936Y12890D01*
X52800Y13922D01*
X52402Y14883D01*
X51768Y15709D01*
X50942Y16342D01*
X49981Y16741D01*
X48949Y16877D01*
D02*
G37*
G36*
X38949D02*
X37917Y16741D01*
X36955Y16342D01*
X36130Y15709D01*
X35496Y14883D01*
X35098Y13922D01*
X34962Y12890D01*
X35098Y11858D01*
X35496Y10896D01*
X36130Y10071D01*
X36955Y9437D01*
X37917Y9039D01*
X38949Y8903D01*
X39981Y9039D01*
X40942Y9437D01*
X41768Y10071D01*
X42401Y10896D01*
X42800Y11858D01*
X42936Y12890D01*
X42800Y13922D01*
X42401Y14883D01*
X41768Y15709D01*
X40942Y16342D01*
X39981Y16741D01*
X38949Y16877D01*
D02*
G37*
G36*
X28949D02*
X27917Y16741D01*
X26955Y16342D01*
X26130Y15709D01*
X25496Y14883D01*
X25098Y13922D01*
X24962Y12890D01*
X25098Y11858D01*
X25496Y10896D01*
X26130Y10071D01*
X26955Y9437D01*
X27917Y9039D01*
X28949Y8903D01*
X29981Y9039D01*
X30942Y9437D01*
X31768Y10071D01*
X32401Y10896D01*
X32800Y11858D01*
X32936Y12890D01*
X32800Y13922D01*
X32401Y14883D01*
X31768Y15709D01*
X30942Y16342D01*
X29981Y16741D01*
X28949Y16877D01*
D02*
G37*
G36*
X18949D02*
X17917Y16741D01*
X16955Y16342D01*
X16130Y15709D01*
X15496Y14883D01*
X15098Y13922D01*
X14962Y12890D01*
X15098Y11858D01*
X15496Y10896D01*
X16130Y10071D01*
X16955Y9437D01*
X17917Y9039D01*
X18949Y8903D01*
X19981Y9039D01*
X20942Y9437D01*
X21768Y10071D01*
X22401Y10896D01*
X22800Y11858D01*
X22936Y12890D01*
X22800Y13922D01*
X22401Y14883D01*
X21768Y15709D01*
X20942Y16342D01*
X19981Y16741D01*
X18949Y16877D01*
D02*
G37*
G36*
X8949D02*
X7917Y16741D01*
X6955Y16342D01*
X6130Y15709D01*
X5496Y14883D01*
X5098Y13922D01*
X4962Y12890D01*
X5098Y11858D01*
X5496Y10896D01*
X6130Y10071D01*
X6955Y9437D01*
X7917Y9039D01*
X8949Y8903D01*
X9981Y9039D01*
X10942Y9437D01*
X11768Y10071D01*
X12402Y10896D01*
X12800Y11858D01*
X12936Y12890D01*
X12800Y13922D01*
X12402Y14883D01*
X11768Y15709D01*
X10942Y16342D01*
X9981Y16741D01*
X8949Y16877D01*
D02*
G37*
G36*
X212500Y17724D02*
X211649Y17555D01*
X210928Y17073D01*
X210445Y16351D01*
X210276Y15500D01*
X210445Y14649D01*
X210928Y13927D01*
X210971Y13899D01*
Y11339D01*
X208941D01*
Y3827D01*
X216059D01*
Y11339D01*
X214029D01*
Y13899D01*
X214072Y13927D01*
X214555Y14649D01*
X214724Y15500D01*
X214555Y16351D01*
X214072Y17073D01*
X213351Y17555D01*
X212500Y17724D01*
D02*
G37*
G36*
X202500D02*
X201649Y17555D01*
X200927Y17073D01*
X200446Y16351D01*
X200276Y15500D01*
X200446Y14649D01*
X200927Y13927D01*
X200971Y13899D01*
Y11339D01*
X198941D01*
Y3827D01*
X206059D01*
Y11339D01*
X204029D01*
Y13899D01*
X204072Y13927D01*
X204555Y14649D01*
X204724Y15500D01*
X204555Y16351D01*
X204072Y17073D01*
X203351Y17555D01*
X202500Y17724D01*
D02*
G37*
G36*
X192500Y18224D02*
X191649Y18055D01*
X190928Y17572D01*
X190445Y16851D01*
X190276Y16000D01*
X190445Y15149D01*
X190928Y14427D01*
X190971Y14399D01*
Y11339D01*
X188941D01*
Y3827D01*
X196059D01*
Y11339D01*
X194029D01*
Y14399D01*
X194072Y14427D01*
X194554Y15149D01*
X194724Y16000D01*
X194554Y16851D01*
X194072Y17572D01*
X193351Y18055D01*
X192500Y18224D01*
D02*
G37*
G36*
X186059Y11339D02*
X178941D01*
Y3827D01*
X186059D01*
Y11339D01*
D02*
G37*
%LPD*%
G36*
X188094Y138744D02*
X184551D01*
X184263Y138759D01*
X183978Y138804D01*
X183700Y138879D01*
X183430Y138982D01*
X183173Y139113D01*
X182931Y139270D01*
X182707Y139452D01*
X182503Y139656D01*
X182322Y139880D01*
X182165Y140122D01*
X182034Y140379D01*
X181930Y140648D01*
X181855Y140927D01*
X181810Y141212D01*
X181795Y141500D01*
X181810Y141788D01*
X181855Y142073D01*
X181930Y142352D01*
X182034Y142621D01*
X182165Y142878D01*
X182322Y143120D01*
X182503Y143344D01*
X182707Y143548D01*
X182931Y143730D01*
X183173Y143887D01*
X183430Y144018D01*
X183700Y144121D01*
X183978Y144196D01*
X184263Y144241D01*
X184551Y144256D01*
X188094D01*
Y138744D01*
D02*
G37*
D13*
X184945Y132652D02*
D03*
Y150348D02*
D03*
X218055D02*
D03*
Y132652D02*
D03*
D14*
X27173Y83567D02*
D03*
D15*
X108866Y119000D02*
D03*
X38000Y48134D02*
D03*
X108866Y83567D02*
D03*
X73433Y119000D02*
D03*
Y83567D02*
D03*
Y48134D02*
D03*
X38000Y119000D02*
D03*
X108866Y48134D02*
D03*
D16*
X147000Y91500D02*
D03*
Y84413D02*
D03*
X156500Y91500D02*
D03*
Y84413D02*
D03*
X136500Y91587D02*
D03*
Y84500D02*
D03*
D17*
X212500Y7583D02*
D03*
X202500D02*
D03*
X192500D02*
D03*
X182500D02*
D03*
X212500Y107583D02*
D03*
X202500D02*
D03*
X192500D02*
D03*
X182500D02*
D03*
D18*
X225000Y160760D02*
D03*
Y168240D02*
D03*
X209500Y160760D02*
D03*
Y168240D02*
D03*
X195500Y160760D02*
D03*
Y168240D02*
D03*
X181500Y160520D02*
D03*
Y168000D02*
D03*
D33*
X184945Y141500D02*
D03*
D34*
X27173Y73397D02*
Y83567D01*
X19776Y66000D02*
X27173Y73397D01*
X174500Y150000D02*
X184945D01*
Y150348D02*
X186597Y152000D01*
X216404D02*
X218055Y150348D01*
X186597Y152000D02*
X216404D01*
X96969Y160520D02*
X181500D01*
X88949Y152500D02*
X96969Y160520D01*
X94449Y168000D02*
X181500D01*
X78949Y152500D02*
X94449Y168000D01*
X181500D02*
X181620Y168120D01*
X195380D02*
X195500Y168240D01*
X181620Y168120D02*
X195380D01*
D35*
X184945Y132652D02*
Y141500D01*
X210760Y169500D02*
X217500D01*
X209500Y168240D02*
X210760Y169500D01*
X179000Y126500D02*
X192500Y113000D01*
Y107583D02*
Y113000D01*
X212500Y7583D02*
Y15500D01*
X202500Y7583D02*
Y15500D01*
X192500Y7583D02*
Y16000D01*
X223500Y169610D02*
Y173500D01*
X224870Y168240D02*
X225000D01*
X223500Y169610D02*
X224870Y168240D01*
D36*
X136500Y79000D02*
Y84500D01*
Y79000D02*
X140000Y75500D01*
X147000Y76500D02*
Y84413D01*
X156986D02*
X158500Y82900D01*
Y71500D02*
Y82900D01*
X156500Y84413D02*
X156986D01*
D37*
X36803Y177772D02*
D03*
X55307D02*
D03*
D38*
X73811D02*
D03*
D39*
X8949Y12890D02*
D03*
Y22890D02*
D03*
X18949Y12890D02*
D03*
Y22890D02*
D03*
X28949Y12890D02*
D03*
Y22890D02*
D03*
X38949Y12890D02*
D03*
Y22890D02*
D03*
X48949Y12890D02*
D03*
Y22890D02*
D03*
X58949Y12890D02*
D03*
Y22890D02*
D03*
X68949Y12890D02*
D03*
Y22890D02*
D03*
X78949Y12890D02*
D03*
Y22890D02*
D03*
X88949Y12890D02*
D03*
Y22890D02*
D03*
X98949Y12890D02*
D03*
Y22890D02*
D03*
X108949Y12890D02*
D03*
Y22890D02*
D03*
X118949Y12890D02*
D03*
Y22890D02*
D03*
X128949Y12890D02*
D03*
Y22890D02*
D03*
X138949Y12890D02*
D03*
Y22890D02*
D03*
X148949Y12890D02*
D03*
Y152500D02*
D03*
Y142500D02*
D03*
X138949Y152500D02*
D03*
Y142500D02*
D03*
X128949Y152500D02*
D03*
Y142500D02*
D03*
X118949Y152500D02*
D03*
Y142500D02*
D03*
X108949Y152500D02*
D03*
Y142500D02*
D03*
X98949Y152500D02*
D03*
Y142500D02*
D03*
X88949Y152500D02*
D03*
Y142500D02*
D03*
X78949Y152500D02*
D03*
Y142500D02*
D03*
X68949Y152500D02*
D03*
Y142500D02*
D03*
X58949Y152500D02*
D03*
Y142500D02*
D03*
X48949Y152500D02*
D03*
Y142500D02*
D03*
X38949Y152500D02*
D03*
Y142500D02*
D03*
X28949Y152500D02*
D03*
Y142500D02*
D03*
X18949Y152500D02*
D03*
Y142500D02*
D03*
X8949Y152500D02*
D03*
D40*
X148949Y22890D02*
D03*
X8949Y142500D02*
D03*
D41*
X221122Y88606D02*
D03*
D42*
X173878Y26008D02*
D03*
D43*
X136500Y41000D02*
D03*
D44*
X35138Y136417D02*
D03*
X217500Y169500D02*
D03*
X179000Y126500D02*
D03*
X58585Y134681D02*
D03*
X47000Y135000D02*
D03*
X41500D02*
D03*
X212500Y15500D02*
D03*
X202500D02*
D03*
X192500Y16000D02*
D03*
X129500Y65500D02*
D03*
X125500Y58000D02*
D03*
X126000Y36000D02*
D03*
Y40500D02*
D03*
X63563Y101382D02*
D03*
X223500Y173500D02*
D03*
X11000Y40000D02*
D03*
X43500Y30000D02*
D03*
X55500D02*
D03*
X140911Y104911D02*
D03*
X87500Y30890D02*
D03*
X129500Y108500D02*
D03*
X126000Y85500D02*
D03*
X129000Y80000D02*
D03*
X154500Y74000D02*
D03*
X140000Y75500D02*
D03*
X147000Y76500D02*
D03*
X158500Y71500D02*
D03*
X19776Y66000D02*
D03*
X224776Y160681D02*
D03*
X209276Y160500D02*
D03*
X195276Y160362D02*
D03*
X174500Y150000D02*
D03*
D45*
X7000Y169500D02*
D03*
X155500Y49500D02*
D03*
X218397Y160842D02*
D03*
Y125409D02*
D03*
Y113598D02*
D03*
Y101787D02*
D03*
Y78165D02*
D03*
Y66354D02*
D03*
Y54543D02*
D03*
Y42732D02*
D03*
Y30921D02*
D03*
Y19110D02*
D03*
Y7299D02*
D03*
X206587Y149031D02*
D03*
Y137220D02*
D03*
Y125409D02*
D03*
Y113598D02*
D03*
Y101787D02*
D03*
Y89976D02*
D03*
Y78165D02*
D03*
Y54543D02*
D03*
Y42732D02*
D03*
Y30921D02*
D03*
Y19110D02*
D03*
X194775Y137220D02*
D03*
Y125409D02*
D03*
Y101787D02*
D03*
Y89976D02*
D03*
X182965Y113598D02*
D03*
Y101787D02*
D03*
Y54543D02*
D03*
Y42732D02*
D03*
Y30921D02*
D03*
Y19110D02*
D03*
X171153Y149031D02*
D03*
Y125409D02*
D03*
Y113598D02*
D03*
Y66354D02*
D03*
Y54543D02*
D03*
Y42732D02*
D03*
Y30921D02*
D03*
Y19110D02*
D03*
Y7299D02*
D03*
X159342Y149031D02*
D03*
Y30921D02*
D03*
Y19110D02*
D03*
Y7299D02*
D03*
X147531D02*
D03*
X135720Y19110D02*
D03*
Y7299D02*
D03*
X123909Y149031D02*
D03*
Y19110D02*
D03*
Y7299D02*
D03*
X112098D02*
D03*
X100287Y101787D02*
D03*
Y66354D02*
D03*
Y7299D02*
D03*
X88476Y101787D02*
D03*
Y66354D02*
D03*
Y7299D02*
D03*
X76665D02*
D03*
X64854Y149031D02*
D03*
Y7299D02*
D03*
X53043Y149031D02*
D03*
Y7299D02*
D03*
X41232D02*
D03*
X29421Y137220D02*
D03*
Y30921D02*
D03*
Y7299D02*
D03*
X17610Y125409D02*
D03*
Y54543D02*
D03*
Y30921D02*
D03*
Y7299D02*
D03*
X5799Y137220D02*
D03*
Y125409D02*
D03*
Y113598D02*
D03*
Y101787D02*
D03*
Y89976D02*
D03*
Y78165D02*
D03*
Y7299D02*
D03*
M02*
