M48
;Layer_Color=9474304
;FILE_FORMAT=2:5
INCH,LZ
;TYPE=PLATED
T1F00S00C0.00787
T2F00S00C0.01575
T3F00S00C0.03543
T4F00S00C0.07283
;TYPE=NON_PLATED
T5F00S00C0.04331
T6F00S00C0.06299
%
T01
X0005799Y0007299
X001761
X0029421
X0041232
X0053043
X0029421Y0030921
X001761
Y0054543
X0064854Y0007299
X0076665
X0088476
X0100287
X0112098
X0123909
X013572
X0147531
X0159342
X0171153
Y001911
X0182965
Y0030921
Y0042732
Y0054543
X0171153
Y0042732
Y0030921
X0159342
Y001911
X013572
X0123909
X01555Y00495
X0206587Y0054543
Y0042732
Y0030921
Y001911
X0218397
Y0030921
Y0042732
Y0054543
Y0007299
Y0066354
Y0078165
Y0101787
Y0113598
Y0125409
Y0160842
X0206587Y0149031
Y013722
Y0125409
Y0113598
Y0101787
Y0089976
Y0078165
X0194775Y0089976
Y0101787
X0182965
Y0113598
X0171153
Y0125409
X0194775
Y013722
X0171153Y0149031
X0159342
X0123909
X0064854
X0088476Y0101787
X0100287
Y0066354
X0088476
X0171153
X0005799Y0078165
Y0089976
Y0101787
Y0113598
Y0125409
X001761
X0029421Y013722
X0005799
X0007Y01695
X0053043Y0149031
T02
X0011Y004
X00435Y003
X00555
X00875Y003089
X0126Y0036
Y00405
X01925Y0016
X02025Y00155
X02125
X0224776Y0160681
X02235Y01735
X02175Y01695
X0209276Y01605
X0195276Y0160362
X01745Y015
X0179Y01265
X0140911Y0104911
X01295Y01085
X0126Y00855
X0129Y008
X01295Y00655
X01255Y0058
X014Y00755
X0147Y00765
X01545Y0074
X01585Y00715
X0063563Y0101382
X0058585Y0134681
X0047Y0135
X00415
X0035138Y0136417
X0019776Y0066
T03
X0008949Y001289
Y002289
X0018949
Y001289
X0028949
Y002289
X0038949
Y001289
X0048949
Y002289
X0058949
Y001289
X0068949
Y002289
X0078949
Y001289
X0088949
Y002289
X0098949
Y001289
X0108949
Y002289
X0118949
Y001289
X0128949
Y002289
X0138949
Y001289
X0148949
Y002289
X01365Y0041
X0138949Y01425
X0148949
Y01525
X0138949
X0128949
Y01425
X0118949
Y01525
X0108949
Y01425
X0098949
Y01525
X0088949
Y01425
X0078949
Y01525
X0068949
Y01425
X0058949
Y01525
X0048949
Y01425
X0038949
Y01525
X0028949
Y01425
X0018949
Y01525
X0008949
Y01425
T04
X0073811Y0177772
X0055307
X0036803
T05
X0173878Y0026008
T06
X0221122Y0088606
M30
