G04*
G04 #@! TF.GenerationSoftware,Altium Limited,Altium Designer,22.0.2 (36)*
G04*
G04 Layer_Physical_Order=3*
G04 Layer_Color=16440176*
%FSLAX25Y25*%
%MOIN*%
G70*
G04*
G04 #@! TF.SameCoordinates,1C5B4622-B4AA-4E77-B977-5182896014AD*
G04*
G04*
G04 #@! TF.FilePolarity,Positive*
G04*
G01*
G75*
%ADD35C,0.01000*%
%ADD36C,0.01500*%
%ADD37C,0.10925*%
%ADD38R,0.10925X0.10925*%
%ADD39C,0.05906*%
%ADD44C,0.02362*%
%ADD45C,0.01968*%
%ADD46C,0.00600*%
G36*
X234691Y1529D02*
X1529D01*
Y195321D01*
X234691D01*
Y1529D01*
D02*
G37*
%LPC*%
G36*
X37303Y184216D02*
Y178272D01*
X43248D01*
X43172Y179039D01*
X42803Y180257D01*
X42203Y181379D01*
X41395Y182363D01*
X40411Y183171D01*
X39288Y183771D01*
X38070Y184141D01*
X37303Y184216D01*
D02*
G37*
G36*
X36303D02*
X35536Y184141D01*
X34318Y183771D01*
X33195Y183171D01*
X32211Y182363D01*
X31404Y181379D01*
X30804Y180257D01*
X30434Y179039D01*
X30358Y178272D01*
X36303D01*
Y184216D01*
D02*
G37*
G36*
X43248Y177272D02*
X37303D01*
Y171327D01*
X38070Y171403D01*
X39288Y171772D01*
X40411Y172372D01*
X41395Y173180D01*
X42203Y174164D01*
X42803Y175287D01*
X43172Y176505D01*
X43248Y177272D01*
D02*
G37*
G36*
X36303D02*
X30358D01*
X30434Y176505D01*
X30804Y175287D01*
X31404Y174164D01*
X32211Y173180D01*
X33195Y172372D01*
X34318Y171772D01*
X35536Y171403D01*
X36303Y171327D01*
Y177272D01*
D02*
G37*
G36*
X223500Y175724D02*
X222649Y175555D01*
X221927Y175073D01*
X221445Y174351D01*
X221276Y173500D01*
X221445Y172649D01*
X221927Y171927D01*
X222649Y171446D01*
X223500Y171276D01*
X224351Y171446D01*
X225073Y171927D01*
X225555Y172649D01*
X225724Y173500D01*
X225555Y174351D01*
X225073Y175073D01*
X224351Y175555D01*
X223500Y175724D01*
D02*
G37*
G36*
X217500Y171724D02*
X216649Y171555D01*
X215928Y171072D01*
X215445Y170351D01*
X215276Y169500D01*
X215445Y168649D01*
X215928Y167928D01*
X216649Y167446D01*
X217500Y167276D01*
X218351Y167446D01*
X219073Y167928D01*
X219555Y168649D01*
X219724Y169500D01*
X219555Y170351D01*
X219073Y171072D01*
X218351Y171555D01*
X217500Y171724D01*
D02*
G37*
G36*
X224776Y162905D02*
X223925Y162736D01*
X223203Y162254D01*
X222721Y161532D01*
X222552Y160681D01*
X222721Y159830D01*
X223203Y159109D01*
X223925Y158626D01*
X224776Y158457D01*
X225627Y158626D01*
X226348Y159109D01*
X226831Y159830D01*
X227000Y160681D01*
X226831Y161532D01*
X226348Y162254D01*
X225627Y162736D01*
X224776Y162905D01*
D02*
G37*
G36*
X209276Y162724D02*
X208425Y162555D01*
X207703Y162073D01*
X207221Y161351D01*
X207052Y160500D01*
X207221Y159649D01*
X207703Y158928D01*
X208425Y158446D01*
X209276Y158276D01*
X210127Y158446D01*
X210848Y158928D01*
X211331Y159649D01*
X211500Y160500D01*
X211331Y161351D01*
X210848Y162073D01*
X210127Y162555D01*
X209276Y162724D01*
D02*
G37*
G36*
X195276Y162586D02*
X194425Y162417D01*
X193703Y161935D01*
X193221Y161213D01*
X193052Y160362D01*
X193221Y159511D01*
X193703Y158790D01*
X194425Y158308D01*
X195276Y158138D01*
X196127Y158308D01*
X196848Y158790D01*
X197330Y159511D01*
X197500Y160362D01*
X197330Y161213D01*
X196848Y161935D01*
X196127Y162417D01*
X195276Y162586D01*
D02*
G37*
G36*
X55307Y184265D02*
X54040Y184141D01*
X52822Y183771D01*
X51699Y183171D01*
X50715Y182363D01*
X49908Y181379D01*
X49308Y180257D01*
X48938Y179039D01*
X48813Y177772D01*
X48938Y176505D01*
X49308Y175287D01*
X49908Y174164D01*
X50715Y173180D01*
X51699Y172372D01*
X52822Y171772D01*
X54040Y171403D01*
X55307Y171278D01*
X55380Y171285D01*
X64145Y162520D01*
X64641Y162188D01*
X64651Y162187D01*
X69982Y156855D01*
X69748Y156382D01*
X69449Y156421D01*
Y153000D01*
X72870D01*
X72830Y153300D01*
X73304Y153533D01*
X74494Y152343D01*
X74991Y152011D01*
X75027Y152004D01*
X75098Y151468D01*
X75496Y150507D01*
X76130Y149681D01*
X76955Y149047D01*
X77917Y148649D01*
X78949Y148513D01*
X79981Y148649D01*
X80942Y149047D01*
X81768Y149681D01*
X82402Y150507D01*
X82800Y151468D01*
X82936Y152500D01*
X82800Y153532D01*
X82402Y154493D01*
X81768Y155319D01*
X80942Y155953D01*
X79981Y156351D01*
X78949Y156487D01*
X77917Y156351D01*
X76955Y155953D01*
X76130Y155319D01*
X75861Y155301D01*
X66480Y164683D01*
X65984Y165014D01*
X65974Y165016D01*
X59058Y171933D01*
X59140Y172557D01*
X59899Y173180D01*
X60707Y174164D01*
X61307Y175287D01*
X61676Y176505D01*
X61801Y177772D01*
X61676Y179039D01*
X61307Y180257D01*
X60707Y181379D01*
X59899Y182363D01*
X58915Y183171D01*
X57792Y183771D01*
X56574Y184141D01*
X55307Y184265D01*
D02*
G37*
G36*
X68449Y156421D02*
X67917Y156351D01*
X66955Y155953D01*
X66130Y155319D01*
X65496Y154493D01*
X65098Y153532D01*
X65028Y153000D01*
X68449D01*
Y156421D01*
D02*
G37*
G36*
X59449D02*
Y153000D01*
X62870D01*
X62800Y153532D01*
X62401Y154493D01*
X61768Y155319D01*
X60942Y155953D01*
X59981Y156351D01*
X59449Y156421D01*
D02*
G37*
G36*
X58449D02*
X57917Y156351D01*
X56955Y155953D01*
X56130Y155319D01*
X55496Y154493D01*
X55098Y153532D01*
X55028Y153000D01*
X58449D01*
Y156421D01*
D02*
G37*
G36*
X29449D02*
Y153000D01*
X32870D01*
X32800Y153532D01*
X32401Y154493D01*
X31768Y155319D01*
X30942Y155953D01*
X29981Y156351D01*
X29449Y156421D01*
D02*
G37*
G36*
X28449D02*
X27917Y156351D01*
X26955Y155953D01*
X26130Y155319D01*
X25496Y154493D01*
X25098Y153532D01*
X25028Y153000D01*
X28449D01*
Y156421D01*
D02*
G37*
G36*
X72870Y152000D02*
X69449D01*
Y148579D01*
X69981Y148649D01*
X70942Y149047D01*
X71768Y149681D01*
X72401Y150507D01*
X72800Y151468D01*
X72870Y152000D01*
D02*
G37*
G36*
X68449D02*
X65028D01*
X65098Y151468D01*
X65496Y150507D01*
X66130Y149681D01*
X66955Y149047D01*
X67917Y148649D01*
X68449Y148579D01*
Y152000D01*
D02*
G37*
G36*
X62870D02*
X59449D01*
Y148579D01*
X59981Y148649D01*
X60942Y149047D01*
X61768Y149681D01*
X62401Y150507D01*
X62800Y151468D01*
X62870Y152000D01*
D02*
G37*
G36*
X58449D02*
X55028D01*
X55098Y151468D01*
X55496Y150507D01*
X56130Y149681D01*
X56955Y149047D01*
X57917Y148649D01*
X58449Y148579D01*
Y152000D01*
D02*
G37*
G36*
X32870D02*
X29449D01*
Y148579D01*
X29981Y148649D01*
X30942Y149047D01*
X31768Y149681D01*
X32401Y150507D01*
X32800Y151468D01*
X32870Y152000D01*
D02*
G37*
G36*
X28449D02*
X25028D01*
X25098Y151468D01*
X25496Y150507D01*
X26130Y149681D01*
X26955Y149047D01*
X27917Y148649D01*
X28449Y148579D01*
Y152000D01*
D02*
G37*
G36*
X148949Y156487D02*
X147917Y156351D01*
X146955Y155953D01*
X146130Y155319D01*
X145496Y154493D01*
X145098Y153532D01*
X144962Y152500D01*
X145098Y151468D01*
X145496Y150507D01*
X146130Y149681D01*
X146955Y149047D01*
X147917Y148649D01*
X148949Y148513D01*
X149981Y148649D01*
X150942Y149047D01*
X151768Y149681D01*
X152401Y150507D01*
X152800Y151468D01*
X152936Y152500D01*
X152800Y153532D01*
X152401Y154493D01*
X151768Y155319D01*
X150942Y155953D01*
X149981Y156351D01*
X148949Y156487D01*
D02*
G37*
G36*
X138949D02*
X137917Y156351D01*
X136955Y155953D01*
X136130Y155319D01*
X135496Y154493D01*
X135098Y153532D01*
X134962Y152500D01*
X135098Y151468D01*
X135496Y150507D01*
X136130Y149681D01*
X136955Y149047D01*
X137917Y148649D01*
X138949Y148513D01*
X139981Y148649D01*
X140942Y149047D01*
X141768Y149681D01*
X142402Y150507D01*
X142800Y151468D01*
X142936Y152500D01*
X142800Y153532D01*
X142402Y154493D01*
X141768Y155319D01*
X140942Y155953D01*
X139981Y156351D01*
X138949Y156487D01*
D02*
G37*
G36*
X128949D02*
X127917Y156351D01*
X126955Y155953D01*
X126130Y155319D01*
X125496Y154493D01*
X125098Y153532D01*
X124962Y152500D01*
X125098Y151468D01*
X125496Y150507D01*
X126130Y149681D01*
X126955Y149047D01*
X127917Y148649D01*
X128949Y148513D01*
X129981Y148649D01*
X130942Y149047D01*
X131768Y149681D01*
X132402Y150507D01*
X132800Y151468D01*
X132936Y152500D01*
X132800Y153532D01*
X132402Y154493D01*
X131768Y155319D01*
X130942Y155953D01*
X129981Y156351D01*
X128949Y156487D01*
D02*
G37*
G36*
X80274Y184234D02*
X67348D01*
Y171309D01*
X76363D01*
Y170147D01*
X76480Y169562D01*
X76811Y169065D01*
X77397Y168480D01*
X77893Y168148D01*
X78478Y168032D01*
X101254D01*
X115290Y153996D01*
X115098Y153532D01*
X114962Y152500D01*
X115098Y151468D01*
X115496Y150507D01*
X116130Y149681D01*
X116955Y149047D01*
X117917Y148649D01*
X118949Y148513D01*
X119981Y148649D01*
X120942Y149047D01*
X121768Y149681D01*
X122401Y150507D01*
X122800Y151468D01*
X122936Y152500D01*
X122800Y153532D01*
X122401Y154493D01*
X121768Y155319D01*
X120942Y155953D01*
X119981Y156351D01*
X118949Y156487D01*
X117917Y156351D01*
X117453Y156159D01*
X102969Y170642D01*
X102473Y170974D01*
X101888Y171090D01*
X80683D01*
X80274Y171309D01*
Y184234D01*
D02*
G37*
G36*
X108949Y156487D02*
X107917Y156351D01*
X106955Y155953D01*
X106130Y155319D01*
X105496Y154493D01*
X105098Y153532D01*
X104962Y152500D01*
X105098Y151468D01*
X105496Y150507D01*
X106130Y149681D01*
X106955Y149047D01*
X107917Y148649D01*
X108949Y148513D01*
X109981Y148649D01*
X110942Y149047D01*
X111768Y149681D01*
X112401Y150507D01*
X112800Y151468D01*
X112936Y152500D01*
X112800Y153532D01*
X112401Y154493D01*
X111768Y155319D01*
X110942Y155953D01*
X109981Y156351D01*
X108949Y156487D01*
D02*
G37*
G36*
X98949D02*
X97917Y156351D01*
X96955Y155953D01*
X96130Y155319D01*
X95496Y154493D01*
X95098Y153532D01*
X94962Y152500D01*
X95098Y151468D01*
X95496Y150507D01*
X96130Y149681D01*
X96955Y149047D01*
X97917Y148649D01*
X98949Y148513D01*
X99981Y148649D01*
X100942Y149047D01*
X101768Y149681D01*
X102401Y150507D01*
X102800Y151468D01*
X102936Y152500D01*
X102800Y153532D01*
X102401Y154493D01*
X101768Y155319D01*
X100942Y155953D01*
X99981Y156351D01*
X98949Y156487D01*
D02*
G37*
G36*
X88949D02*
X87917Y156351D01*
X86955Y155953D01*
X86130Y155319D01*
X85496Y154493D01*
X85098Y153532D01*
X84962Y152500D01*
X85098Y151468D01*
X85496Y150507D01*
X86130Y149681D01*
X86955Y149047D01*
X87917Y148649D01*
X88949Y148513D01*
X89981Y148649D01*
X90942Y149047D01*
X91768Y149681D01*
X92401Y150507D01*
X92800Y151468D01*
X92936Y152500D01*
X92800Y153532D01*
X92401Y154493D01*
X91768Y155319D01*
X90942Y155953D01*
X89981Y156351D01*
X88949Y156487D01*
D02*
G37*
G36*
X48949D02*
X47917Y156351D01*
X46955Y155953D01*
X46130Y155319D01*
X45496Y154493D01*
X45098Y153532D01*
X44962Y152500D01*
X45098Y151468D01*
X45496Y150507D01*
X46130Y149681D01*
X46955Y149047D01*
X47917Y148649D01*
X48949Y148513D01*
X49981Y148649D01*
X50942Y149047D01*
X51768Y149681D01*
X52402Y150507D01*
X52800Y151468D01*
X52936Y152500D01*
X52800Y153532D01*
X52402Y154493D01*
X51768Y155319D01*
X50942Y155953D01*
X49981Y156351D01*
X48949Y156487D01*
D02*
G37*
G36*
X38949D02*
X37917Y156351D01*
X36955Y155953D01*
X36130Y155319D01*
X35496Y154493D01*
X35098Y153532D01*
X34962Y152500D01*
X35098Y151468D01*
X35496Y150507D01*
X36130Y149681D01*
X36955Y149047D01*
X37917Y148649D01*
X38949Y148513D01*
X39981Y148649D01*
X40942Y149047D01*
X41768Y149681D01*
X42401Y150507D01*
X42800Y151468D01*
X42936Y152500D01*
X42800Y153532D01*
X42401Y154493D01*
X41768Y155319D01*
X40942Y155953D01*
X39981Y156351D01*
X38949Y156487D01*
D02*
G37*
G36*
X18949D02*
X17917Y156351D01*
X16955Y155953D01*
X16130Y155319D01*
X15496Y154493D01*
X15098Y153532D01*
X14962Y152500D01*
X15098Y151468D01*
X15496Y150507D01*
X16130Y149681D01*
X16955Y149047D01*
X17917Y148649D01*
X18949Y148513D01*
X19981Y148649D01*
X20942Y149047D01*
X21768Y149681D01*
X22401Y150507D01*
X22800Y151468D01*
X22936Y152500D01*
X22800Y153532D01*
X22401Y154493D01*
X21768Y155319D01*
X20942Y155953D01*
X19981Y156351D01*
X18949Y156487D01*
D02*
G37*
G36*
X8949D02*
X7917Y156351D01*
X6955Y155953D01*
X6130Y155319D01*
X5496Y154493D01*
X5098Y153532D01*
X4962Y152500D01*
X5098Y151468D01*
X5496Y150507D01*
X6130Y149681D01*
X6955Y149047D01*
X7917Y148649D01*
X8949Y148513D01*
X9981Y148649D01*
X10942Y149047D01*
X11768Y149681D01*
X12402Y150507D01*
X12800Y151468D01*
X12936Y152500D01*
X12800Y153532D01*
X12402Y154493D01*
X11768Y155319D01*
X10942Y155953D01*
X9981Y156351D01*
X8949Y156487D01*
D02*
G37*
G36*
X174500Y152224D02*
X173649Y152055D01*
X172927Y151573D01*
X172445Y150851D01*
X172276Y150000D01*
X172445Y149149D01*
X172927Y148427D01*
X173649Y147945D01*
X174500Y147776D01*
X175351Y147945D01*
X176073Y148427D01*
X176555Y149149D01*
X176724Y150000D01*
X176555Y150851D01*
X176073Y151573D01*
X175351Y152055D01*
X174500Y152224D01*
D02*
G37*
G36*
X148949Y146487D02*
X147917Y146351D01*
X146955Y145953D01*
X146130Y145319D01*
X145496Y144493D01*
X145098Y143532D01*
X144962Y142500D01*
X145098Y141468D01*
X145496Y140507D01*
X146107Y139710D01*
X146073Y139514D01*
X145970Y139210D01*
X141928D01*
X141825Y139514D01*
X141791Y139710D01*
X142402Y140507D01*
X142800Y141468D01*
X142936Y142500D01*
X142800Y143532D01*
X142402Y144493D01*
X141768Y145319D01*
X140942Y145953D01*
X139981Y146351D01*
X138949Y146487D01*
X137917Y146351D01*
X136955Y145953D01*
X136130Y145319D01*
X135496Y144493D01*
X135098Y143532D01*
X134962Y142500D01*
X135098Y141468D01*
X135496Y140507D01*
X136107Y139710D01*
X136073Y139514D01*
X135970Y139210D01*
X131928D01*
X131825Y139514D01*
X131791Y139710D01*
X132402Y140507D01*
X132800Y141468D01*
X132936Y142500D01*
X132800Y143532D01*
X132402Y144493D01*
X131768Y145319D01*
X130942Y145953D01*
X129981Y146351D01*
X128949Y146487D01*
X127917Y146351D01*
X126955Y145953D01*
X126130Y145319D01*
X125496Y144493D01*
X125098Y143532D01*
X124962Y142500D01*
X125098Y141468D01*
X125496Y140507D01*
X126107Y139710D01*
X126073Y139514D01*
X125970Y139210D01*
X121928D01*
X121825Y139514D01*
X121791Y139710D01*
X122401Y140507D01*
X122800Y141468D01*
X122936Y142500D01*
X122800Y143532D01*
X122401Y144493D01*
X121768Y145319D01*
X120942Y145953D01*
X119981Y146351D01*
X118949Y146487D01*
X117917Y146351D01*
X116955Y145953D01*
X116130Y145319D01*
X115496Y144493D01*
X115098Y143532D01*
X114962Y142500D01*
X115098Y141468D01*
X115496Y140507D01*
X116107Y139710D01*
X116073Y139514D01*
X115970Y139210D01*
X111928D01*
X111825Y139514D01*
X111791Y139710D01*
X112401Y140507D01*
X112800Y141468D01*
X112936Y142500D01*
X112800Y143532D01*
X112401Y144493D01*
X111768Y145319D01*
X110942Y145953D01*
X109981Y146351D01*
X108949Y146487D01*
X107917Y146351D01*
X106955Y145953D01*
X106130Y145319D01*
X105496Y144493D01*
X105098Y143532D01*
X104962Y142500D01*
X105098Y141468D01*
X105496Y140507D01*
X106107Y139710D01*
X106073Y139514D01*
X105970Y139210D01*
X101928D01*
X101825Y139514D01*
X101791Y139710D01*
X102401Y140507D01*
X102800Y141468D01*
X102936Y142500D01*
X102800Y143532D01*
X102401Y144493D01*
X101768Y145319D01*
X100942Y145953D01*
X99981Y146351D01*
X98949Y146487D01*
X97917Y146351D01*
X96955Y145953D01*
X96130Y145319D01*
X95496Y144493D01*
X95098Y143532D01*
X94962Y142500D01*
X95098Y141468D01*
X95496Y140507D01*
X96107Y139710D01*
X96073Y139514D01*
X95970Y139210D01*
X91928D01*
X91825Y139514D01*
X91791Y139710D01*
X92401Y140507D01*
X92800Y141468D01*
X92936Y142500D01*
X92800Y143532D01*
X92401Y144493D01*
X91768Y145319D01*
X90942Y145953D01*
X89981Y146351D01*
X88949Y146487D01*
X87917Y146351D01*
X86955Y145953D01*
X86130Y145319D01*
X85496Y144493D01*
X85098Y143532D01*
X84962Y142500D01*
X85098Y141468D01*
X85496Y140507D01*
X86107Y139710D01*
X86073Y139514D01*
X85970Y139210D01*
X81928D01*
X81825Y139514D01*
X81791Y139710D01*
X82402Y140507D01*
X82800Y141468D01*
X82936Y142500D01*
X82800Y143532D01*
X82402Y144493D01*
X81768Y145319D01*
X80942Y145953D01*
X79981Y146351D01*
X78949Y146487D01*
X77917Y146351D01*
X76955Y145953D01*
X76130Y145319D01*
X75496Y144493D01*
X75098Y143532D01*
X74962Y142500D01*
X75098Y141468D01*
X75496Y140507D01*
X76107Y139710D01*
X76073Y139514D01*
X75970Y139210D01*
X71928D01*
X71825Y139514D01*
X71791Y139710D01*
X72401Y140507D01*
X72800Y141468D01*
X72936Y142500D01*
X72800Y143532D01*
X72401Y144493D01*
X71768Y145319D01*
X70942Y145953D01*
X69981Y146351D01*
X68949Y146487D01*
X67917Y146351D01*
X66955Y145953D01*
X66130Y145319D01*
X65496Y144493D01*
X65098Y143532D01*
X64962Y142500D01*
X65098Y141468D01*
X65496Y140507D01*
X66107Y139710D01*
X66073Y139514D01*
X65970Y139210D01*
X61928D01*
X61825Y139514D01*
X61791Y139710D01*
X62401Y140507D01*
X62800Y141468D01*
X62936Y142500D01*
X62800Y143532D01*
X62401Y144493D01*
X61768Y145319D01*
X60942Y145953D01*
X59981Y146351D01*
X58949Y146487D01*
X57917Y146351D01*
X56955Y145953D01*
X56130Y145319D01*
X55496Y144493D01*
X55098Y143532D01*
X54962Y142500D01*
X55098Y141468D01*
X55496Y140507D01*
X56107Y139710D01*
X56073Y139514D01*
X55970Y139210D01*
X51928D01*
X51825Y139514D01*
X51791Y139710D01*
X52402Y140507D01*
X52800Y141468D01*
X52936Y142500D01*
X52800Y143532D01*
X52402Y144493D01*
X51768Y145319D01*
X50942Y145953D01*
X49981Y146351D01*
X48949Y146487D01*
X47917Y146351D01*
X46955Y145953D01*
X46130Y145319D01*
X45496Y144493D01*
X45098Y143532D01*
X44962Y142500D01*
X45098Y141468D01*
X45496Y140507D01*
X46107Y139710D01*
X46073Y139514D01*
X45970Y139210D01*
X41928D01*
X41825Y139514D01*
X41791Y139710D01*
X42401Y140507D01*
X42800Y141468D01*
X42936Y142500D01*
X42800Y143532D01*
X42401Y144493D01*
X41768Y145319D01*
X40942Y145953D01*
X39981Y146351D01*
X38949Y146487D01*
X37917Y146351D01*
X36955Y145953D01*
X36130Y145319D01*
X35496Y144493D01*
X35098Y143532D01*
X34962Y142500D01*
X35098Y141468D01*
X35496Y140507D01*
X36130Y139681D01*
X36955Y139047D01*
X37917Y138649D01*
X37990Y138639D01*
X38222Y138104D01*
X38109Y137947D01*
X36739D01*
X36710Y137990D01*
X35989Y138472D01*
X35138Y138641D01*
X34287Y138472D01*
X33565Y137990D01*
X33083Y137268D01*
X32914Y136417D01*
X33083Y135566D01*
X33565Y134845D01*
X34287Y134363D01*
X35138Y134194D01*
X35989Y134363D01*
X36710Y134845D01*
X36739Y134888D01*
X39126D01*
X39292Y134921D01*
X39445Y134149D01*
X39928Y133428D01*
X40649Y132946D01*
X41500Y132776D01*
X41551Y132786D01*
X46919Y127419D01*
X47415Y127087D01*
X48000Y126971D01*
X120867D01*
X140362Y107475D01*
X140217Y106997D01*
X140060Y106966D01*
X139339Y106484D01*
X138857Y105762D01*
X138688Y104911D01*
X138857Y104060D01*
X139339Y103339D01*
X139382Y103310D01*
Y81545D01*
X132919Y75081D01*
X132587Y74585D01*
X132471Y74000D01*
Y57500D01*
X132587Y56915D01*
X132919Y56419D01*
X143471Y45867D01*
Y39634D01*
X140953Y37116D01*
X140453Y37323D01*
X140453Y37425D01*
X140453Y37425D01*
X140453Y37433D01*
Y44953D01*
X132547D01*
Y37047D01*
X140067Y37047D01*
X140075D01*
X140075D01*
X140177Y37047D01*
X140250Y36873D01*
X140384Y36547D01*
X137866Y34029D01*
X127808D01*
X127641Y34529D01*
X128054Y35149D01*
X128224Y36000D01*
X128214Y36051D01*
X130581Y38419D01*
X130913Y38915D01*
X131029Y39500D01*
Y63899D01*
X131072Y63928D01*
X131554Y64649D01*
X131724Y65500D01*
X131554Y66351D01*
X131072Y67072D01*
X130351Y67554D01*
X129500Y67724D01*
X128649Y67554D01*
X127927Y67072D01*
X127445Y66351D01*
X127276Y65500D01*
X127445Y64649D01*
X127927Y63928D01*
X127971Y63899D01*
Y59127D01*
X127471Y58977D01*
X127073Y59572D01*
X126351Y60054D01*
X125500Y60224D01*
X124649Y60054D01*
X123927Y59572D01*
X123445Y58851D01*
X123276Y58000D01*
X123445Y57149D01*
X123927Y56428D01*
X124471Y56065D01*
Y42101D01*
X124427Y42072D01*
X123945Y41351D01*
X123776Y40500D01*
X123945Y39649D01*
X124427Y38928D01*
X125026Y38528D01*
X125057Y38409D01*
Y38091D01*
X125026Y37972D01*
X124427Y37573D01*
X123945Y36851D01*
X123776Y36000D01*
X123945Y35149D01*
X124359Y34529D01*
X124192Y34029D01*
X113614D01*
X112991Y34652D01*
X112495Y34984D01*
X111909Y35100D01*
X59071D01*
X58486Y34984D01*
X57989Y34652D01*
X55551Y32214D01*
X55500Y32224D01*
X54649Y32055D01*
X53927Y31572D01*
X53446Y30851D01*
X53276Y30000D01*
X53446Y29149D01*
X53927Y28427D01*
X54649Y27945D01*
X55500Y27776D01*
X56351Y27945D01*
X57073Y28427D01*
X57555Y29149D01*
X57724Y30000D01*
X57714Y30051D01*
X59704Y32041D01*
X84870D01*
X85077Y31541D01*
X80190Y26654D01*
X79981Y26741D01*
X78949Y26877D01*
X77917Y26741D01*
X76955Y26342D01*
X76130Y25709D01*
X75496Y24883D01*
X75098Y23922D01*
X74962Y22890D01*
X75098Y21858D01*
X75496Y20896D01*
X76130Y20071D01*
X76218Y20003D01*
X76057Y19529D01*
X71840D01*
X71680Y20003D01*
X71768Y20071D01*
X72401Y20896D01*
X72800Y21858D01*
X72936Y22890D01*
X72800Y23922D01*
X72401Y24883D01*
X71768Y25709D01*
X70942Y26342D01*
X69981Y26741D01*
X68949Y26877D01*
X67917Y26741D01*
X66955Y26342D01*
X66130Y25709D01*
X65496Y24883D01*
X65098Y23922D01*
X64962Y22890D01*
X65098Y21858D01*
X65496Y20896D01*
X66130Y20071D01*
X66218Y20003D01*
X66057Y19529D01*
X61840D01*
X61680Y20003D01*
X61768Y20071D01*
X62401Y20896D01*
X62800Y21858D01*
X62936Y22890D01*
X62800Y23922D01*
X62401Y24883D01*
X61768Y25709D01*
X60942Y26342D01*
X59981Y26741D01*
X58949Y26877D01*
X57917Y26741D01*
X56955Y26342D01*
X56130Y25709D01*
X55496Y24883D01*
X55098Y23922D01*
X54962Y22890D01*
X55098Y21858D01*
X55496Y20896D01*
X56130Y20071D01*
X56218Y20003D01*
X56057Y19529D01*
X51840D01*
X51680Y20003D01*
X51768Y20071D01*
X52402Y20896D01*
X52800Y21858D01*
X52936Y22890D01*
X52800Y23922D01*
X52402Y24883D01*
X51768Y25709D01*
X50942Y26342D01*
X49981Y26741D01*
X48949Y26877D01*
X47917Y26741D01*
X46955Y26342D01*
X46130Y25709D01*
X45803Y25283D01*
X45125Y25202D01*
X45029Y25278D01*
Y28399D01*
X45072Y28427D01*
X45555Y29149D01*
X45724Y30000D01*
X45555Y30851D01*
X45072Y31572D01*
X44351Y32055D01*
X43500Y32224D01*
X42649Y32055D01*
X41927Y31572D01*
X41445Y30851D01*
X41276Y30000D01*
X41445Y29149D01*
X41927Y28427D01*
X41971Y28399D01*
Y26184D01*
X41471Y25937D01*
X40942Y26342D01*
X39981Y26741D01*
X38949Y26877D01*
X37917Y26741D01*
X36955Y26342D01*
X36130Y25709D01*
X35496Y24883D01*
X35098Y23922D01*
X34962Y22890D01*
X35098Y21858D01*
X35496Y20896D01*
X36130Y20071D01*
X36955Y19437D01*
X37917Y19039D01*
X38949Y18903D01*
X39981Y19039D01*
X40942Y19437D01*
X41768Y20071D01*
X42130Y20542D01*
X42793Y20585D01*
X46460Y16918D01*
X46706Y16754D01*
X46721Y16163D01*
X46130Y15709D01*
X45496Y14883D01*
X45098Y13922D01*
X44962Y12890D01*
X45098Y11858D01*
X45496Y10896D01*
X46130Y10071D01*
X46955Y9437D01*
X47917Y9039D01*
X48949Y8903D01*
X49981Y9039D01*
X50942Y9437D01*
X51768Y10071D01*
X52402Y10896D01*
X52800Y11858D01*
X52936Y12890D01*
X52800Y13922D01*
X52402Y14883D01*
X51768Y15709D01*
X51427Y15971D01*
X51597Y16471D01*
X56301D01*
X56471Y15971D01*
X56130Y15709D01*
X55496Y14883D01*
X55098Y13922D01*
X54962Y12890D01*
X55098Y11858D01*
X55496Y10896D01*
X56130Y10071D01*
X56955Y9437D01*
X57917Y9039D01*
X58949Y8903D01*
X59981Y9039D01*
X60942Y9437D01*
X61768Y10071D01*
X62401Y10896D01*
X62800Y11858D01*
X62936Y12890D01*
X62800Y13922D01*
X62401Y14883D01*
X61768Y15709D01*
X61427Y15971D01*
X61597Y16471D01*
X66301D01*
X66471Y15971D01*
X66130Y15709D01*
X65496Y14883D01*
X65098Y13922D01*
X64962Y12890D01*
X65098Y11858D01*
X65496Y10896D01*
X66130Y10071D01*
X66955Y9437D01*
X67917Y9039D01*
X68949Y8903D01*
X69981Y9039D01*
X70942Y9437D01*
X71768Y10071D01*
X72401Y10896D01*
X72800Y11858D01*
X72936Y12890D01*
X72800Y13922D01*
X72401Y14883D01*
X71768Y15709D01*
X71427Y15971D01*
X71597Y16471D01*
X76301D01*
X76471Y15971D01*
X76130Y15709D01*
X75496Y14883D01*
X75098Y13922D01*
X74962Y12890D01*
X75098Y11858D01*
X75496Y10896D01*
X76130Y10071D01*
X76955Y9437D01*
X77917Y9039D01*
X78949Y8903D01*
X79981Y9039D01*
X80942Y9437D01*
X81768Y10071D01*
X82402Y10896D01*
X82800Y11858D01*
X82936Y12890D01*
X82800Y13922D01*
X82402Y14883D01*
X81768Y15709D01*
X81427Y15971D01*
X81597Y16471D01*
X86301D01*
X86471Y15971D01*
X86130Y15709D01*
X85496Y14883D01*
X85098Y13922D01*
X84962Y12890D01*
X85098Y11858D01*
X85496Y10896D01*
X86130Y10071D01*
X86955Y9437D01*
X87917Y9039D01*
X88949Y8903D01*
X89981Y9039D01*
X90942Y9437D01*
X91768Y10071D01*
X92401Y10896D01*
X92800Y11858D01*
X92936Y12890D01*
X92800Y13922D01*
X92401Y14883D01*
X91768Y15709D01*
X91427Y15971D01*
X91597Y16471D01*
X94914D01*
X95499Y16587D01*
X95996Y16919D01*
X96581Y17504D01*
X96913Y18000D01*
X97029Y18586D01*
Y18808D01*
X97453Y19231D01*
X97917Y19039D01*
X98949Y18903D01*
X99981Y19039D01*
X100942Y19437D01*
X101768Y20071D01*
X102401Y20896D01*
X102800Y21858D01*
X102936Y22890D01*
X102800Y23922D01*
X102401Y24883D01*
X101768Y25709D01*
X100942Y26342D01*
X99981Y26741D01*
X98949Y26877D01*
X97917Y26741D01*
X96955Y26342D01*
X96130Y25709D01*
X95496Y24883D01*
X95098Y23922D01*
X94962Y22890D01*
X95098Y21858D01*
X95290Y21394D01*
X94419Y20522D01*
X94087Y20026D01*
X93988Y19529D01*
X91840D01*
X91680Y20003D01*
X91768Y20071D01*
X92401Y20896D01*
X92800Y21858D01*
X92936Y22890D01*
X92800Y23922D01*
X92523Y24590D01*
X95608Y27674D01*
X153500D01*
X154007Y27775D01*
X154437Y28063D01*
X162437Y36063D01*
X162725Y36493D01*
X162826Y37000D01*
Y72009D01*
X162725Y72516D01*
X162437Y72946D01*
X160465Y74918D01*
X160035Y75206D01*
X159528Y75307D01*
X156250D01*
X156072Y75573D01*
X155351Y76055D01*
X154500Y76224D01*
X153649Y76055D01*
X152927Y75573D01*
X152445Y74851D01*
X152276Y74000D01*
X152445Y73149D01*
X152927Y72427D01*
X153649Y71946D01*
X154500Y71776D01*
X155351Y71946D01*
X155932Y72334D01*
X156390Y72071D01*
X156276Y71500D01*
X156334Y71209D01*
X155451Y70325D01*
X149787D01*
X146184Y73929D01*
X146431Y74389D01*
X147000Y74276D01*
X147851Y74445D01*
X148573Y74928D01*
X149055Y75649D01*
X149224Y76500D01*
X149055Y77351D01*
X148573Y78073D01*
X147851Y78554D01*
X147000Y78724D01*
X146149Y78554D01*
X145428Y78073D01*
X144946Y77351D01*
X144776Y76500D01*
X144889Y75931D01*
X144429Y75684D01*
X143676Y76437D01*
X143246Y76725D01*
X142738Y76825D01*
X141737D01*
X141572Y77073D01*
X140851Y77555D01*
X140495Y77625D01*
X140331Y78168D01*
X141993Y79830D01*
X142324Y80326D01*
X142441Y80911D01*
Y103310D01*
X142484Y103339D01*
X142966Y104060D01*
X142997Y104217D01*
X143475Y104362D01*
X190971Y56867D01*
Y17601D01*
X190928Y17572D01*
X190445Y16851D01*
X190276Y16000D01*
X190445Y15149D01*
X190928Y14427D01*
X191649Y13945D01*
X192500Y13776D01*
X193351Y13945D01*
X194072Y14427D01*
X194554Y15149D01*
X194724Y16000D01*
X194554Y16851D01*
X194072Y17572D01*
X194029Y17601D01*
Y57500D01*
X193913Y58085D01*
X193581Y58581D01*
X122581Y129581D01*
X122085Y129913D01*
X121795Y129971D01*
X121845Y130471D01*
X126866D01*
X200971Y56366D01*
Y17101D01*
X200927Y17073D01*
X200446Y16351D01*
X200276Y15500D01*
X200446Y14649D01*
X200927Y13927D01*
X201649Y13445D01*
X202500Y13276D01*
X203351Y13445D01*
X204072Y13927D01*
X204555Y14649D01*
X204724Y15500D01*
X204555Y16351D01*
X204072Y17073D01*
X204029Y17101D01*
Y57000D01*
X203913Y57585D01*
X203581Y58081D01*
X129011Y132652D01*
X129218Y133152D01*
X134685D01*
X210971Y56867D01*
Y17101D01*
X210928Y17073D01*
X210445Y16351D01*
X210276Y15500D01*
X210445Y14649D01*
X210928Y13927D01*
X211649Y13445D01*
X212500Y13276D01*
X213351Y13445D01*
X214072Y13927D01*
X214555Y14649D01*
X214724Y15500D01*
X214555Y16351D01*
X214072Y17073D01*
X214029Y17101D01*
Y57500D01*
X213913Y58085D01*
X213581Y58581D01*
X136511Y135652D01*
X136648Y136089D01*
X136696Y136152D01*
X167185D01*
X176786Y126551D01*
X176776Y126500D01*
X176945Y125649D01*
X177427Y124927D01*
X178149Y124445D01*
X179000Y124276D01*
X179851Y124445D01*
X180572Y124927D01*
X181054Y125649D01*
X181224Y126500D01*
X181054Y127351D01*
X180572Y128073D01*
X179851Y128554D01*
X179000Y128724D01*
X178949Y128714D01*
X168900Y138762D01*
X168404Y139094D01*
X167819Y139210D01*
X151928D01*
X151825Y139514D01*
X151791Y139710D01*
X152401Y140507D01*
X152800Y141468D01*
X152936Y142500D01*
X152800Y143532D01*
X152401Y144493D01*
X151768Y145319D01*
X150942Y145953D01*
X149981Y146351D01*
X148949Y146487D01*
D02*
G37*
G36*
X12902Y146453D02*
X4996D01*
Y138547D01*
X12902D01*
Y146453D01*
D02*
G37*
G36*
X28949Y146487D02*
X27917Y146351D01*
X26955Y145953D01*
X26130Y145319D01*
X25496Y144493D01*
X25098Y143532D01*
X24962Y142500D01*
X25098Y141468D01*
X25496Y140507D01*
X26130Y139681D01*
X26955Y139047D01*
X27917Y138649D01*
X28949Y138513D01*
X29981Y138649D01*
X30942Y139047D01*
X31768Y139681D01*
X32401Y140507D01*
X32800Y141468D01*
X32936Y142500D01*
X32800Y143532D01*
X32401Y144493D01*
X31768Y145319D01*
X30942Y145953D01*
X29981Y146351D01*
X28949Y146487D01*
D02*
G37*
G36*
X18949D02*
X17917Y146351D01*
X16955Y145953D01*
X16130Y145319D01*
X15496Y144493D01*
X15098Y143532D01*
X14962Y142500D01*
X15098Y141468D01*
X15496Y140507D01*
X16130Y139681D01*
X16955Y139047D01*
X17917Y138649D01*
X18949Y138513D01*
X19981Y138649D01*
X20942Y139047D01*
X21768Y139681D01*
X22401Y140507D01*
X22800Y141468D01*
X22936Y142500D01*
X22800Y143532D01*
X22401Y144493D01*
X21768Y145319D01*
X20942Y145953D01*
X19981Y146351D01*
X18949Y146487D01*
D02*
G37*
G36*
X129500Y110724D02*
X128649Y110555D01*
X127927Y110073D01*
X127445Y109351D01*
X127276Y108500D01*
X127445Y107649D01*
X127927Y106928D01*
X128649Y106446D01*
X129500Y106276D01*
X130351Y106446D01*
X131072Y106928D01*
X131554Y107649D01*
X131724Y108500D01*
X131554Y109351D01*
X131072Y110073D01*
X130351Y110555D01*
X129500Y110724D01*
D02*
G37*
G36*
X63563Y103606D02*
X62712Y103437D01*
X61990Y102954D01*
X61509Y102233D01*
X61339Y101382D01*
X61509Y100531D01*
X61990Y99809D01*
X62712Y99327D01*
X63563Y99158D01*
X64414Y99327D01*
X65136Y99809D01*
X65618Y100531D01*
X65787Y101382D01*
X65618Y102233D01*
X65136Y102954D01*
X64414Y103437D01*
X63563Y103606D01*
D02*
G37*
G36*
X221122Y92792D02*
X220039Y92649D01*
X219029Y92231D01*
X218162Y91566D01*
X217497Y90699D01*
X217079Y89690D01*
X216937Y88606D01*
X217079Y87523D01*
X217497Y86514D01*
X218162Y85647D01*
X219029Y84982D01*
X220039Y84563D01*
X221122Y84421D01*
X222205Y84563D01*
X223215Y84982D01*
X224082Y85647D01*
X224747Y86514D01*
X225165Y87523D01*
X225307Y88606D01*
X225165Y89690D01*
X224747Y90699D01*
X224082Y91566D01*
X223215Y92231D01*
X222205Y92649D01*
X221122Y92792D01*
D02*
G37*
G36*
X126000Y87724D02*
X125149Y87555D01*
X124427Y87072D01*
X123945Y86351D01*
X123776Y85500D01*
X123945Y84649D01*
X124427Y83928D01*
X125149Y83446D01*
X126000Y83276D01*
X126851Y83446D01*
X127573Y83928D01*
X128054Y84649D01*
X128224Y85500D01*
X128054Y86351D01*
X127573Y87072D01*
X126851Y87555D01*
X126000Y87724D01*
D02*
G37*
G36*
X129000Y82224D02*
X128149Y82055D01*
X127427Y81573D01*
X126945Y80851D01*
X126776Y80000D01*
X126945Y79149D01*
X127427Y78427D01*
X128149Y77946D01*
X129000Y77776D01*
X129851Y77946D01*
X130572Y78427D01*
X131054Y79149D01*
X131224Y80000D01*
X131054Y80851D01*
X130572Y81573D01*
X129851Y82055D01*
X129000Y82224D01*
D02*
G37*
G36*
X19776Y68224D02*
X18925Y68054D01*
X18203Y67572D01*
X17721Y66851D01*
X17552Y66000D01*
X17721Y65149D01*
X18203Y64428D01*
X18925Y63946D01*
X19776Y63776D01*
X20627Y63946D01*
X21348Y64428D01*
X21831Y65149D01*
X22000Y66000D01*
X21831Y66851D01*
X21348Y67572D01*
X20627Y68054D01*
X19776Y68224D01*
D02*
G37*
G36*
X11000Y42224D02*
X10149Y42055D01*
X9427Y41572D01*
X8945Y40851D01*
X8776Y40000D01*
X8945Y39149D01*
X9427Y38427D01*
X10149Y37945D01*
X11000Y37776D01*
X11851Y37945D01*
X12573Y38427D01*
X13055Y39149D01*
X13224Y40000D01*
X13055Y40851D01*
X12573Y41572D01*
X11851Y42055D01*
X11000Y42224D01*
D02*
G37*
G36*
X173878Y29201D02*
X173052Y29092D01*
X172282Y28773D01*
X171620Y28265D01*
X171113Y27604D01*
X170794Y26834D01*
X170685Y26008D01*
X170794Y25181D01*
X171113Y24411D01*
X171620Y23750D01*
X172282Y23243D01*
X173052Y22924D01*
X173878Y22815D01*
X174704Y22924D01*
X175474Y23243D01*
X176136Y23750D01*
X176643Y24411D01*
X176962Y25181D01*
X177071Y26008D01*
X176962Y26834D01*
X176643Y27604D01*
X176136Y28265D01*
X175474Y28773D01*
X174704Y29092D01*
X173878Y29201D01*
D02*
G37*
G36*
X152902Y26842D02*
X144996D01*
Y18937D01*
X152902D01*
Y26842D01*
D02*
G37*
G36*
X138949Y26877D02*
X137917Y26741D01*
X136955Y26342D01*
X136130Y25709D01*
X135496Y24883D01*
X135098Y23922D01*
X134962Y22890D01*
X135098Y21858D01*
X135496Y20896D01*
X136130Y20071D01*
X136955Y19437D01*
X137917Y19039D01*
X138949Y18903D01*
X139981Y19039D01*
X140942Y19437D01*
X141768Y20071D01*
X142402Y20896D01*
X142800Y21858D01*
X142936Y22890D01*
X142800Y23922D01*
X142402Y24883D01*
X141768Y25709D01*
X140942Y26342D01*
X139981Y26741D01*
X138949Y26877D01*
D02*
G37*
G36*
X128949D02*
X127917Y26741D01*
X126955Y26342D01*
X126130Y25709D01*
X125496Y24883D01*
X125098Y23922D01*
X124962Y22890D01*
X125098Y21858D01*
X125496Y20896D01*
X126130Y20071D01*
X126955Y19437D01*
X127917Y19039D01*
X128949Y18903D01*
X129981Y19039D01*
X130942Y19437D01*
X131768Y20071D01*
X132402Y20896D01*
X132800Y21858D01*
X132936Y22890D01*
X132800Y23922D01*
X132402Y24883D01*
X131768Y25709D01*
X130942Y26342D01*
X129981Y26741D01*
X128949Y26877D01*
D02*
G37*
G36*
X118949D02*
X117917Y26741D01*
X116955Y26342D01*
X116130Y25709D01*
X115496Y24883D01*
X115098Y23922D01*
X114962Y22890D01*
X115098Y21858D01*
X115496Y20896D01*
X116130Y20071D01*
X116955Y19437D01*
X117917Y19039D01*
X118949Y18903D01*
X119981Y19039D01*
X120942Y19437D01*
X121768Y20071D01*
X122401Y20896D01*
X122800Y21858D01*
X122936Y22890D01*
X122800Y23922D01*
X122401Y24883D01*
X121768Y25709D01*
X120942Y26342D01*
X119981Y26741D01*
X118949Y26877D01*
D02*
G37*
G36*
X108949D02*
X107917Y26741D01*
X106955Y26342D01*
X106130Y25709D01*
X105496Y24883D01*
X105098Y23922D01*
X104962Y22890D01*
X105098Y21858D01*
X105496Y20896D01*
X106130Y20071D01*
X106955Y19437D01*
X107917Y19039D01*
X108949Y18903D01*
X109981Y19039D01*
X110942Y19437D01*
X111768Y20071D01*
X112401Y20896D01*
X112800Y21858D01*
X112936Y22890D01*
X112800Y23922D01*
X112401Y24883D01*
X111768Y25709D01*
X110942Y26342D01*
X109981Y26741D01*
X108949Y26877D01*
D02*
G37*
G36*
X28949D02*
X27917Y26741D01*
X26955Y26342D01*
X26130Y25709D01*
X25496Y24883D01*
X25098Y23922D01*
X24962Y22890D01*
X25098Y21858D01*
X25496Y20896D01*
X26130Y20071D01*
X26955Y19437D01*
X27917Y19039D01*
X28949Y18903D01*
X29981Y19039D01*
X30942Y19437D01*
X31768Y20071D01*
X32401Y20896D01*
X32800Y21858D01*
X32936Y22890D01*
X32800Y23922D01*
X32401Y24883D01*
X31768Y25709D01*
X30942Y26342D01*
X29981Y26741D01*
X28949Y26877D01*
D02*
G37*
G36*
X18949D02*
X17917Y26741D01*
X16955Y26342D01*
X16130Y25709D01*
X15496Y24883D01*
X15098Y23922D01*
X14962Y22890D01*
X15098Y21858D01*
X15496Y20896D01*
X16130Y20071D01*
X16955Y19437D01*
X17917Y19039D01*
X18949Y18903D01*
X19981Y19039D01*
X20942Y19437D01*
X21768Y20071D01*
X22401Y20896D01*
X22800Y21858D01*
X22936Y22890D01*
X22800Y23922D01*
X22401Y24883D01*
X21768Y25709D01*
X20942Y26342D01*
X19981Y26741D01*
X18949Y26877D01*
D02*
G37*
G36*
X8949D02*
X7917Y26741D01*
X6955Y26342D01*
X6130Y25709D01*
X5496Y24883D01*
X5098Y23922D01*
X4962Y22890D01*
X5098Y21858D01*
X5496Y20896D01*
X6130Y20071D01*
X6955Y19437D01*
X7917Y19039D01*
X8949Y18903D01*
X9981Y19039D01*
X10942Y19437D01*
X11768Y20071D01*
X12402Y20896D01*
X12800Y21858D01*
X12936Y22890D01*
X12800Y23922D01*
X12402Y24883D01*
X11768Y25709D01*
X10942Y26342D01*
X9981Y26741D01*
X8949Y26877D01*
D02*
G37*
G36*
X148949Y16877D02*
X147917Y16741D01*
X146955Y16342D01*
X146130Y15709D01*
X145496Y14883D01*
X145098Y13922D01*
X144962Y12890D01*
X145098Y11858D01*
X145496Y10896D01*
X146130Y10071D01*
X146955Y9437D01*
X147917Y9039D01*
X148949Y8903D01*
X149981Y9039D01*
X150942Y9437D01*
X151768Y10071D01*
X152401Y10896D01*
X152800Y11858D01*
X152936Y12890D01*
X152800Y13922D01*
X152401Y14883D01*
X151768Y15709D01*
X150942Y16342D01*
X149981Y16741D01*
X148949Y16877D01*
D02*
G37*
G36*
X138949D02*
X137917Y16741D01*
X136955Y16342D01*
X136130Y15709D01*
X135496Y14883D01*
X135098Y13922D01*
X134962Y12890D01*
X135098Y11858D01*
X135496Y10896D01*
X136130Y10071D01*
X136955Y9437D01*
X137917Y9039D01*
X138949Y8903D01*
X139981Y9039D01*
X140942Y9437D01*
X141768Y10071D01*
X142402Y10896D01*
X142800Y11858D01*
X142936Y12890D01*
X142800Y13922D01*
X142402Y14883D01*
X141768Y15709D01*
X140942Y16342D01*
X139981Y16741D01*
X138949Y16877D01*
D02*
G37*
G36*
X128949D02*
X127917Y16741D01*
X126955Y16342D01*
X126130Y15709D01*
X125496Y14883D01*
X125098Y13922D01*
X124962Y12890D01*
X125098Y11858D01*
X125496Y10896D01*
X126130Y10071D01*
X126955Y9437D01*
X127917Y9039D01*
X128949Y8903D01*
X129981Y9039D01*
X130942Y9437D01*
X131768Y10071D01*
X132402Y10896D01*
X132800Y11858D01*
X132936Y12890D01*
X132800Y13922D01*
X132402Y14883D01*
X131768Y15709D01*
X130942Y16342D01*
X129981Y16741D01*
X128949Y16877D01*
D02*
G37*
G36*
X118949D02*
X117917Y16741D01*
X116955Y16342D01*
X116130Y15709D01*
X115496Y14883D01*
X115098Y13922D01*
X114962Y12890D01*
X115098Y11858D01*
X115496Y10896D01*
X116130Y10071D01*
X116955Y9437D01*
X117917Y9039D01*
X118949Y8903D01*
X119981Y9039D01*
X120942Y9437D01*
X121768Y10071D01*
X122401Y10896D01*
X122800Y11858D01*
X122936Y12890D01*
X122800Y13922D01*
X122401Y14883D01*
X121768Y15709D01*
X120942Y16342D01*
X119981Y16741D01*
X118949Y16877D01*
D02*
G37*
G36*
X108949D02*
X107917Y16741D01*
X106955Y16342D01*
X106130Y15709D01*
X105496Y14883D01*
X105098Y13922D01*
X104962Y12890D01*
X105098Y11858D01*
X105496Y10896D01*
X106130Y10071D01*
X106955Y9437D01*
X107917Y9039D01*
X108949Y8903D01*
X109981Y9039D01*
X110942Y9437D01*
X111768Y10071D01*
X112401Y10896D01*
X112800Y11858D01*
X112936Y12890D01*
X112800Y13922D01*
X112401Y14883D01*
X111768Y15709D01*
X110942Y16342D01*
X109981Y16741D01*
X108949Y16877D01*
D02*
G37*
G36*
X98949D02*
X97917Y16741D01*
X96955Y16342D01*
X96130Y15709D01*
X95496Y14883D01*
X95098Y13922D01*
X94962Y12890D01*
X95098Y11858D01*
X95496Y10896D01*
X96130Y10071D01*
X96955Y9437D01*
X97917Y9039D01*
X98949Y8903D01*
X99981Y9039D01*
X100942Y9437D01*
X101768Y10071D01*
X102401Y10896D01*
X102800Y11858D01*
X102936Y12890D01*
X102800Y13922D01*
X102401Y14883D01*
X101768Y15709D01*
X100942Y16342D01*
X99981Y16741D01*
X98949Y16877D01*
D02*
G37*
G36*
X38949D02*
X37917Y16741D01*
X36955Y16342D01*
X36130Y15709D01*
X35496Y14883D01*
X35098Y13922D01*
X34962Y12890D01*
X35098Y11858D01*
X35496Y10896D01*
X36130Y10071D01*
X36955Y9437D01*
X37917Y9039D01*
X38949Y8903D01*
X39981Y9039D01*
X40942Y9437D01*
X41768Y10071D01*
X42401Y10896D01*
X42800Y11858D01*
X42936Y12890D01*
X42800Y13922D01*
X42401Y14883D01*
X41768Y15709D01*
X40942Y16342D01*
X39981Y16741D01*
X38949Y16877D01*
D02*
G37*
G36*
X28949D02*
X27917Y16741D01*
X26955Y16342D01*
X26130Y15709D01*
X25496Y14883D01*
X25098Y13922D01*
X24962Y12890D01*
X25098Y11858D01*
X25496Y10896D01*
X26130Y10071D01*
X26955Y9437D01*
X27917Y9039D01*
X28949Y8903D01*
X29981Y9039D01*
X30942Y9437D01*
X31768Y10071D01*
X32401Y10896D01*
X32800Y11858D01*
X32936Y12890D01*
X32800Y13922D01*
X32401Y14883D01*
X31768Y15709D01*
X30942Y16342D01*
X29981Y16741D01*
X28949Y16877D01*
D02*
G37*
G36*
X18949D02*
X17917Y16741D01*
X16955Y16342D01*
X16130Y15709D01*
X15496Y14883D01*
X15098Y13922D01*
X14962Y12890D01*
X15098Y11858D01*
X15496Y10896D01*
X16130Y10071D01*
X16955Y9437D01*
X17917Y9039D01*
X18949Y8903D01*
X19981Y9039D01*
X20942Y9437D01*
X21768Y10071D01*
X22401Y10896D01*
X22800Y11858D01*
X22936Y12890D01*
X22800Y13922D01*
X22401Y14883D01*
X21768Y15709D01*
X20942Y16342D01*
X19981Y16741D01*
X18949Y16877D01*
D02*
G37*
G36*
X8949D02*
X7917Y16741D01*
X6955Y16342D01*
X6130Y15709D01*
X5496Y14883D01*
X5098Y13922D01*
X4962Y12890D01*
X5098Y11858D01*
X5496Y10896D01*
X6130Y10071D01*
X6955Y9437D01*
X7917Y9039D01*
X8949Y8903D01*
X9981Y9039D01*
X10942Y9437D01*
X11768Y10071D01*
X12402Y10896D01*
X12800Y11858D01*
X12936Y12890D01*
X12800Y13922D01*
X12402Y14883D01*
X11768Y15709D01*
X10942Y16342D01*
X9981Y16741D01*
X8949Y16877D01*
D02*
G37*
%LPD*%
G36*
X137875Y75005D02*
X137945Y74649D01*
X138427Y73927D01*
X139149Y73445D01*
X140000Y73276D01*
X140851Y73445D01*
X141572Y73927D01*
X141708Y74130D01*
X142205Y74159D01*
X148301Y68063D01*
X148731Y67775D01*
X149238Y67674D01*
X156000D01*
X156507Y67775D01*
X156937Y68063D01*
X158209Y69334D01*
X158500Y69276D01*
X159351Y69446D01*
X159675Y69662D01*
X160175Y69394D01*
Y37549D01*
X152951Y30325D01*
X95059D01*
X94552Y30225D01*
X94122Y29937D01*
X90649Y26464D01*
X89981Y26741D01*
X88949Y26877D01*
X87917Y26741D01*
X86955Y26342D01*
X86130Y25709D01*
X85496Y24883D01*
X85098Y23922D01*
X84962Y22890D01*
X85098Y21858D01*
X85496Y20896D01*
X86130Y20071D01*
X86218Y20003D01*
X86057Y19529D01*
X81840D01*
X81680Y20003D01*
X81768Y20071D01*
X82402Y20896D01*
X82800Y21858D01*
X82936Y22890D01*
X82800Y23922D01*
X82713Y24131D01*
X87290Y28708D01*
X87500Y28666D01*
X88351Y28835D01*
X89073Y29317D01*
X89555Y30039D01*
X89724Y30890D01*
X89594Y31541D01*
X89909Y32041D01*
X111276D01*
X111899Y31419D01*
X112395Y31087D01*
X112980Y30971D01*
X138500D01*
X139085Y31087D01*
X139581Y31419D01*
X146081Y37919D01*
X146413Y38415D01*
X146529Y39000D01*
Y46500D01*
X146413Y47085D01*
X146081Y47581D01*
X135529Y58134D01*
Y73366D01*
X137332Y75169D01*
X137875Y75005D01*
D02*
G37*
D35*
X35138Y136417D02*
X39126D01*
X40389Y137681D01*
X167819D01*
X77893Y170147D02*
X78478Y169561D01*
X77893Y170147D02*
Y173690D01*
X73811Y177772D02*
X77893Y173690D01*
X101888Y169561D02*
X118949Y152500D01*
X78478Y169561D02*
X101888D01*
X54067Y174760D02*
X65226Y163601D01*
X78025Y153424D02*
X78949Y152500D01*
X75576Y153424D02*
X78025D01*
X65399Y163601D02*
X75576Y153424D01*
X65226Y163601D02*
X65399D01*
X167819Y137681D02*
X179000Y126500D01*
X58585Y134681D02*
X135319D01*
X212500Y57500D01*
X50000Y132000D02*
X127500D01*
X47000Y135000D02*
X50000Y132000D01*
X48000Y128500D02*
X121500D01*
X41500Y135000D02*
X48000Y128500D01*
X212500Y15500D02*
Y57500D01*
X202500Y15500D02*
Y57000D01*
X127500Y132000D02*
X202500Y57000D01*
X121500Y128500D02*
X192500Y57500D01*
Y16000D02*
Y57500D01*
X134000D02*
X145000Y46500D01*
X134000Y57500D02*
Y74000D01*
X140911Y80911D02*
Y104911D01*
X134000Y74000D02*
X140911Y80911D01*
X129500Y39500D02*
Y65500D01*
X126000Y36000D02*
X129500Y39500D01*
X125500Y58000D02*
X126000Y57500D01*
Y40500D02*
Y57500D01*
X43500Y22041D02*
X47541Y18000D01*
X43500Y22041D02*
Y30000D01*
X47541Y18000D02*
X94914D01*
X95500Y18586D01*
Y19441D01*
X98949Y22890D01*
X111909Y33571D02*
X112980Y32500D01*
X59071Y33571D02*
X111909D01*
X112980Y32500D02*
X138500D01*
X55500Y30000D02*
X59071Y33571D01*
X138500Y32500D02*
X145000Y39000D01*
Y46500D01*
D36*
X87335Y30725D02*
X87500Y30890D01*
X86784Y30725D02*
X87335D01*
X78949Y22890D02*
X86784Y30725D01*
D37*
X36803Y177772D02*
D03*
X55307D02*
D03*
D38*
X73811D02*
D03*
D39*
X78949Y22890D02*
D03*
X88949D02*
D03*
X98949D02*
D03*
X118949Y152500D02*
D03*
X78949D02*
D03*
X68949D02*
D03*
X58949D02*
D03*
X28949D02*
D03*
D44*
X35138Y136417D02*
D03*
X179000Y126500D02*
D03*
X58585Y134681D02*
D03*
X47000Y135000D02*
D03*
X41500D02*
D03*
X212500Y15500D02*
D03*
X202500D02*
D03*
X192500Y16000D02*
D03*
X129500Y65500D02*
D03*
X125500Y58000D02*
D03*
X126000Y36000D02*
D03*
Y40500D02*
D03*
X43500Y30000D02*
D03*
X55500D02*
D03*
X140911Y104911D02*
D03*
X87500Y30890D02*
D03*
X154500Y74000D02*
D03*
X140000Y75500D02*
D03*
X158500Y71500D02*
D03*
D45*
X7000Y169500D02*
D03*
X155500Y49500D02*
D03*
X218397Y160842D02*
D03*
Y125409D02*
D03*
Y113598D02*
D03*
Y101787D02*
D03*
Y78165D02*
D03*
Y66354D02*
D03*
Y54543D02*
D03*
Y42732D02*
D03*
Y30921D02*
D03*
Y19110D02*
D03*
Y7299D02*
D03*
X206587Y149031D02*
D03*
Y137220D02*
D03*
Y125409D02*
D03*
Y113598D02*
D03*
Y101787D02*
D03*
Y89976D02*
D03*
Y78165D02*
D03*
Y54543D02*
D03*
Y42732D02*
D03*
Y30921D02*
D03*
Y19110D02*
D03*
X194775Y137220D02*
D03*
Y125409D02*
D03*
Y101787D02*
D03*
Y89976D02*
D03*
X182965Y113598D02*
D03*
Y101787D02*
D03*
Y54543D02*
D03*
Y42732D02*
D03*
Y30921D02*
D03*
Y19110D02*
D03*
X171153Y149031D02*
D03*
Y125409D02*
D03*
Y113598D02*
D03*
Y66354D02*
D03*
Y54543D02*
D03*
Y42732D02*
D03*
Y30921D02*
D03*
Y19110D02*
D03*
Y7299D02*
D03*
X159342Y149031D02*
D03*
Y30921D02*
D03*
Y19110D02*
D03*
Y7299D02*
D03*
X147531D02*
D03*
X135720Y19110D02*
D03*
Y7299D02*
D03*
X123909Y149031D02*
D03*
Y19110D02*
D03*
Y7299D02*
D03*
X112098D02*
D03*
X100287Y101787D02*
D03*
Y66354D02*
D03*
Y7299D02*
D03*
X88476Y101787D02*
D03*
Y66354D02*
D03*
Y7299D02*
D03*
X76665D02*
D03*
X64854Y149031D02*
D03*
Y7299D02*
D03*
X53043Y149031D02*
D03*
Y7299D02*
D03*
X41232D02*
D03*
X29421Y137220D02*
D03*
Y30921D02*
D03*
Y7299D02*
D03*
X17610Y125409D02*
D03*
Y54543D02*
D03*
Y30921D02*
D03*
Y7299D02*
D03*
X5799Y137220D02*
D03*
Y125409D02*
D03*
Y113598D02*
D03*
Y101787D02*
D03*
Y89976D02*
D03*
Y78165D02*
D03*
Y7299D02*
D03*
D46*
X149238Y69000D02*
X156000D01*
X158500Y71500D01*
X142738Y75500D02*
X149238Y69000D01*
X140000Y75500D02*
X142738D01*
X154333Y73981D02*
X159528D01*
X95059Y29000D02*
X153500D01*
X161500Y37000D02*
Y72009D01*
X88949Y22890D02*
X95059Y29000D01*
X153500D02*
X161500Y37000D01*
X159528Y73981D02*
X161500Y72009D01*
M02*
