G04*
G04 #@! TF.GenerationSoftware,Altium Limited,Altium Designer,22.0.2 (36)*
G04*
G04 Layer_Color=128*
%FSLAX25Y25*%
%MOIN*%
G70*
G04*
G04 #@! TF.SameCoordinates,5F5B6C63-6FB6-4E28-9BE5-C2605847C7C1*
G04*
G04*
G04 #@! TF.FilePolarity,Positive*
G04*
G01*
G75*
G04:AMPARAMS|DCode=21|XSize=39.37mil|YSize=55.91mil|CornerRadius=4.92mil|HoleSize=0mil|Usage=FLASHONLY|Rotation=90.000|XOffset=0mil|YOffset=0mil|HoleType=Round|Shape=RoundedRectangle|*
%AMROUNDEDRECTD21*
21,1,0.03937,0.04606,0,0,90.0*
21,1,0.02953,0.05591,0,0,90.0*
1,1,0.00984,0.02303,0.01476*
1,1,0.00984,0.02303,-0.01476*
1,1,0.00984,-0.02303,-0.01476*
1,1,0.00984,-0.02303,0.01476*
%
%ADD21ROUNDEDRECTD21*%
%ADD24R,0.12284X0.09016*%
%ADD25R,0.04528X0.05709*%
%ADD26R,0.05709X0.04528*%
%ADD57R,0.06299X0.11811*%
%ADD58R,0.23622X0.23622*%
G04:AMPARAMS|DCode=61|XSize=39.37mil|YSize=55.91mil|CornerRadius=4.92mil|HoleSize=0mil|Usage=FLASHONLY|Rotation=0.000|XOffset=0mil|YOffset=0mil|HoleType=Round|Shape=RoundedRectangle|*
%AMROUNDEDRECTD61*
21,1,0.03937,0.04606,0,0,0.0*
21,1,0.02953,0.05591,0,0,0.0*
1,1,0.00984,0.01476,-0.02303*
1,1,0.00984,-0.01476,-0.02303*
1,1,0.00984,-0.01476,0.02303*
1,1,0.00984,0.01476,0.02303*
%
%ADD61ROUNDEDRECTD61*%
%ADD62R,0.09016X0.12284*%
%ADD63R,0.01181X0.05512*%
D21*
X51000Y68819D02*
D03*
Y76181D02*
D03*
D24*
X103000Y98000D02*
D03*
Y125008D02*
D03*
D25*
X106236Y86000D02*
D03*
X113323D02*
D03*
X32457Y83000D02*
D03*
X39543D02*
D03*
D26*
X28500Y65543D02*
D03*
Y58457D02*
D03*
D57*
X81500Y120000D02*
D03*
X63390D02*
D03*
X46555Y94268D02*
D03*
X28445D02*
D03*
D58*
X72445Y94410D02*
D03*
X37500Y119858D02*
D03*
D61*
X143319Y124000D02*
D03*
X150681D02*
D03*
X150362Y132000D02*
D03*
X143000D02*
D03*
X15181Y83000D02*
D03*
X7819D02*
D03*
D62*
X140004Y50500D02*
D03*
X112996D02*
D03*
D63*
X16437Y117161D02*
D03*
X14469D02*
D03*
X12500D02*
D03*
X10531D02*
D03*
X8563D02*
D03*
Y99839D02*
D03*
X10531D02*
D03*
X12500D02*
D03*
X14469D02*
D03*
X16437D02*
D03*
M02*
