G04*
G04 #@! TF.GenerationSoftware,Altium Limited,Altium Designer,22.0.2 (36)*
G04*
G04 Layer_Color=32896*
%FSLAX25Y25*%
%MOIN*%
G70*
G04*
G04 #@! TF.SameCoordinates,5F5B6C63-6FB6-4E28-9BE5-C2605847C7C1*
G04*
G04*
G04 #@! TF.FilePolarity,Positive*
G04*
G01*
G75*
%ADD10C,0.00984*%
%ADD11C,0.00500*%
%ADD12C,0.00787*%
D10*
X124606Y119626D02*
G03*
X124606Y119626I-492J0D01*
G01*
D11*
X114624Y98010D02*
Y124998D01*
X91376Y98010D02*
Y124998D01*
X95598D01*
X110402D02*
X114624D01*
X91376Y98010D02*
X95598D01*
X110402D02*
X114624D01*
X139994Y57902D02*
Y62124D01*
Y38876D02*
Y43098D01*
X113006Y57902D02*
Y62124D01*
Y38876D02*
Y43098D01*
Y38876D02*
X139994D01*
X113006Y62124D02*
X139994D01*
D12*
X103394Y90835D02*
G03*
X103394Y90835I-394J0D01*
G01*
X147563Y50500D02*
G03*
X147563Y50500I-394J0D01*
G01*
X154331Y111161D02*
X156240D01*
X118760D02*
X120669D01*
X118760Y79154D02*
Y111161D01*
X156240Y79154D02*
Y111161D01*
X155610Y79154D02*
X156240D01*
X118760D02*
X119390D01*
X18406Y97083D02*
Y102594D01*
X6594Y103972D02*
X18406D01*
X6594D02*
Y113028D01*
X18406D01*
Y103972D02*
Y113028D01*
M02*
