G04*
G04 #@! TF.GenerationSoftware,Altium Limited,Altium Designer,22.0.2 (36)*
G04*
G04 Layer_Color=16711935*
%FSLAX25Y25*%
%MOIN*%
G70*
G04*
G04 #@! TF.SameCoordinates,E5DF6677-F1A3-40F0-8D4B-31E310C81F74*
G04*
G04*
G04 #@! TF.FilePolarity,Positive*
G04*
G01*
G75*
%ADD12C,0.01000*%
%ADD25C,0.00600*%
D12*
X173500Y0D02*
X175500Y-6000D01*
X171500D02*
X173500Y0D01*
X171500Y13890D02*
X173500Y7890D01*
X175500Y13890D01*
X173500Y-10000D02*
Y0D01*
Y7890D02*
Y17890D01*
X155342Y7890D02*
X174500D01*
X166854Y0D02*
X174500D01*
X-6000Y-20000D02*
X0Y-18000D01*
X-6000Y-16000D02*
X0Y-18000D01*
X3949D02*
X9949Y-16000D01*
X3949Y-18000D02*
X9949Y-20000D01*
X-10000Y-18000D02*
X0D01*
X3949D02*
X13949D01*
X3949Y-19000D02*
Y6496D01*
X0Y-19000D02*
Y-1500D01*
X-6000Y182000D02*
X0Y184000D01*
X-6000Y186000D02*
X0Y184000D01*
X3949D02*
X9949Y186000D01*
X3949Y184000D02*
X9949Y182000D01*
X-10000Y184000D02*
X0D01*
X3949D02*
X13949D01*
X3949Y158894D02*
Y185000D01*
X0Y178665D02*
Y185000D01*
X269500Y183165D02*
X271500Y177165D01*
X273500Y183165D01*
X271500Y157500D02*
X273500Y151500D01*
X269500D02*
X271500Y157500D01*
Y177165D02*
Y187165D01*
Y147500D02*
Y157500D01*
X155342D02*
X272500D01*
X166854Y177165D02*
X272500D01*
D25*
X187896Y-4153D02*
Y-8152D01*
X183897Y-4153D01*
X182898D01*
X181898Y-5153D01*
Y-7152D01*
X182898Y-8152D01*
X187896Y-2154D02*
X186896D01*
Y-1154D01*
X187896D01*
Y-2154D01*
X182898Y2845D02*
X181898Y3844D01*
Y5844D01*
X182898Y6843D01*
X186896D01*
X187896Y5844D01*
Y3844D01*
X186896Y2845D01*
X182898D01*
Y8843D02*
X181898Y9842D01*
Y11842D01*
X182898Y12842D01*
X186896D01*
X187896Y11842D01*
Y9842D01*
X186896Y8843D01*
X182898D01*
X-9622Y-32396D02*
X-7623D01*
X-8623D01*
Y-26398D01*
X-9622Y-27398D01*
X-4624Y-32396D02*
Y-31396D01*
X-3624D01*
Y-32396D01*
X-4624D01*
X374Y-27398D02*
X1374Y-26398D01*
X3373D01*
X4373Y-27398D01*
Y-31396D01*
X3373Y-32396D01*
X1374D01*
X374Y-31396D01*
Y-27398D01*
X6373D02*
X7372Y-26398D01*
X9371D01*
X10371Y-27398D01*
Y-31396D01*
X9371Y-32396D01*
X7372D01*
X6373Y-31396D01*
Y-27398D01*
X-9622Y191198D02*
X-7623D01*
X-8623D01*
Y197196D01*
X-9622Y196196D01*
X-4624Y191198D02*
Y192198D01*
X-3624D01*
Y191198D01*
X-4624D01*
X374Y196196D02*
X1374Y197196D01*
X3373D01*
X4373Y196196D01*
Y192198D01*
X3373Y191198D01*
X1374D01*
X374Y192198D01*
Y196196D01*
X6373D02*
X7372Y197196D01*
X9371D01*
X10371Y196196D01*
Y192198D01*
X9371Y191198D01*
X7372D01*
X6373Y192198D01*
Y196196D01*
X279898Y159235D02*
Y155236D01*
X282897D01*
X281897Y157235D01*
Y158235D01*
X282897Y159235D01*
X284896D01*
X285896Y158235D01*
Y156236D01*
X284896Y155236D01*
X285896Y161234D02*
X284896D01*
Y162234D01*
X285896D01*
Y161234D01*
X280898Y166233D02*
X279898Y167232D01*
Y169231D01*
X280898Y170231D01*
X284896D01*
X285896Y169231D01*
Y167232D01*
X284896Y166233D01*
X280898D01*
Y172231D02*
X279898Y173230D01*
Y175230D01*
X280898Y176229D01*
X284896D01*
X285896Y175230D01*
Y173230D01*
X284896Y172231D01*
X280898D01*
M02*
